<svg width="309" height="217" viewBox="0 0 309 217" fill="none" xmlns="http://www.w3.org/2000/svg">
<g clip-path="url(#clip0_107_99)">
<path d="M166.951 202.242C166.951 202.242 149.414 210.695 107.13 210.439C107.13 210.439 59.8799 209.828 32.6492 181.1C32.6492 181.1 21.5165 173.553 13.4182 147.682C8.92574 133.337 8.27552 109.023 6.1672 91.7622L1.22154 56.2559C1.22154 56.2559 -0.453292 51.6452 5.04408 50.3841L93.2583 30.9561M178.812 14.3852L184.586 12.9074C187.088 12.336 189.827 14.2275 189.827 14.2275L231.914 40.5519M213.058 187.484C261.352 168.725 279.637 154.342 279.637 154.342C299.538 139.859 302.966 125.003 302.966 125.003M157.552 55.3101C157.552 55.3101 160.902 51.724 161.374 49.1428C161.374 49.1428 161.434 47.1133 159.069 46.069C159.069 46.069 157.966 45.3793 156.192 46.069M154.321 89.3978C154.321 89.3978 149.887 80.4522 143.089 74.6396C143.089 74.6396 140.055 69.6348 140.311 64.5512C140.311 64.5512 140.646 62.9946 139.818 59.9602C139.818 59.9602 137.099 50.6009 132.016 50.3644C132.016 50.3644 126.282 51.0738 128.252 57.0834C128.252 57.0834 128.095 57.8125 129.237 62.5808C129.237 62.5808 129.237 66.3639 130.302 70.0486L130.873 73.4967C131.287 76.7282 129.848 80.7872 129.848 80.7872M130.203 80.2355C127.346 84.7082 129.159 87.2894 129.159 87.2894C131.405 91.0529 132.292 95.4862 132.292 95.4862C134.301 100.865 138.873 112.53 138.873 112.53C139.484 117.2 141.927 121.949 141.927 121.949C145.789 130.48 148.981 152.805 148.981 152.805C151.069 168.371 157.749 183.09 157.749 183.09C163.601 193.414 166.99 202.222 166.99 202.222M249.608 215.03C241.825 211.975 236.072 211.325 236.072 211.325L226.377 204.921L221.314 201.02C214.91 195.444 212.072 184.193 212.072 184.193C205.393 162.578 193.472 151.701 193.472 151.701C182.99 140.569 176.369 130.145 176.369 130.145L167.502 119.17C166.379 117.673 167.227 115.998 167.227 115.998C171.975 107.466 168.566 101.673 168.566 101.673C168.783 99.1118 167.896 97.7719 167.896 97.7719C169.02 94.2646 171.246 91.2499 171.246 91.2499L175.542 85.792C177.827 83.6245 180.27 79.999 180.27 79.999C186.852 73.2012 186.182 70.6988 186.182 70.6988C185.788 67.1324 182.832 67.1324 182.832 67.1324C179.423 66.9157 174.418 74.7578 174.418 74.7578C170.064 78.7774 168.724 80.2749 168.724 80.2749C163.759 84.9447 162.419 86.6786 162.419 86.6786C161.709 86.6786 161.256 86.186 161.256 86.186C164.764 82.5014 166.714 79.2109 166.714 79.2109C169.768 74.7578 172.941 70.6791 172.941 70.6791C179.581 63.763 179.522 62.0882 179.522 62.0882C179.975 58.7386 176.96 57.714 175.896 57.4775C175.66 57.4381 175.364 57.4184 175.088 57.4775C171.266 58.4036 166.773 65.8714 166.773 65.8714C163.66 68.9254 159.857 72.4524 159.857 72.4524C157.178 75.2504 153.276 81.5359 153.276 81.5359C152.37 81.8118 151.995 81.0236 151.995 81.0236C155.877 75.5065 155.897 71.6249 155.897 71.6249C157.572 69.7333 159.01 67.2112 159.01 67.2112C160.37 65.2014 162.025 63.1522 162.025 63.1522C166.281 59.7829 168.172 57.044 168.763 55.9997C168.96 55.6451 169.02 54.9554 169 54.6993C168.566 50.0295 163.798 50.6206 163.798 50.6206C159.286 51.8028 155.542 57.911 155.542 57.911C154.813 58.3642 154.655 58.9553 154.655 58.9553M139.759 59.7632L140.134 59.4282C142.163 56.4923 144.39 54.7584 144.39 54.7584C147.503 49.6551 149.848 48.8275 149.848 48.8275M149.71 62.0094C147.247 66.2851 148.074 65.1226 145.158 68.0782C145.06 71.2505 143.227 74.679 143.227 74.679M144.961 69.7727C144.961 69.7727 147.227 65.5955 149.572 63.6645M146.754 5.97163C148.429 5.3214 150.675 6.56274 150.675 6.56274C155.01 7.80409 158.104 9.3804 158.104 9.3804C163.483 8.51343 166.202 10.6414 166.202 10.6414C167.286 10.4247 168.231 10.1685 169.059 9.99121C174.241 8.84839 176.901 12.7301 176.901 12.7301C178.852 14.7398 183.443 17.6954 183.443 17.6954C190.812 22.7396 200.073 27.173 200.073 27.173L208.486 30.562L211.856 32.3748L215.954 34.4043C228.663 39.9214 241.766 43.6454 241.766 43.6454L252.8 47.1724L261.293 49.7142L269.785 52.4727L279.696 55.6056L288.661 59.0538L299.479 63.3296C300.326 63.6645 303.912 64.8862 304.74 65.2408M132.666 16.0206C132.666 16.0206 130.183 18.1486 135.267 19.055" stroke="#053C5E" stroke-width="1.52817" stroke-linecap="round" stroke-linejoin="round"/>
<path d="M144.115 37.1824L145.356 38.4237C146.873 39.1922 149.987 39.0148 149.987 39.0148" stroke="#053C5E" stroke-width="1.52817" stroke-linecap="round" stroke-linejoin="round"/>
<path d="M157.729 38.9951C160.33 38.936 161.059 40.0788 161.059 40.0788C162.832 41.2414 164.527 41.8325 164.527 41.8325C168.724 43.6058 172.054 44.8866 172.054 44.8866C177.137 47.2116 181.728 45.8915 181.728 45.8915C185.945 45.261 190.497 46.7585 190.497 46.7585L196.546 49.6549C210.259 56.5907 222.831 69.28 222.831 69.28L231.402 75.7625L242.554 84.6293L252.702 92.097L260.031 97.2791L266.12 100.609C275.716 106.087 284.602 113.476 284.602 113.476C290.769 118.146 301.134 124.195 306.67 127.15" stroke="#053C5E" stroke-width="1.52817" stroke-linecap="round" stroke-linejoin="round"/>
<path d="M147.129 38.8568C147.129 38.8568 150.065 39.0144 150.341 37.3987" stroke="#053C5E" stroke-width="1.52817" stroke-linecap="round" stroke-linejoin="round"/>
<path d="M143.898 36.5512C143.898 36.5512 142.223 32.7286 147.385 33.6547" stroke="#053C5E" stroke-width="1.52817" stroke-linecap="round" stroke-linejoin="round"/>
<path d="M149.651 36.2166C150.045 36.9259 150.459 37.3397 150.518 38.1672C150.577 39.0539 150.696 39.8224 150.774 40.7287C150.912 42.5021 150.479 44.1572 150.479 45.9503C150.479 47.7433 150.499 49.5364 150.518 51.3294C150.518 52.4722 150.558 53.6151 150.479 54.7579C150.262 57.4376 150.656 60.1173 150.38 62.7971C150.223 64.4522 150.026 65.9497 150.026 67.6245" stroke="#053C5E" stroke-width="1.52817" stroke-linecap="round" stroke-linejoin="round"/>
<path d="M158.321 36.3743C158.065 36.6107 157.946 37.123 157.809 37.458C157.651 37.8127 157.414 38.0491 157.257 38.3841C156.902 39.0934 156.607 39.9407 156.41 40.6894C156.193 41.5367 155.996 42.3051 155.956 43.2115C155.917 44.0982 155.523 44.7681 155.464 45.6154C155.365 46.6597 155.247 47.6843 155.149 48.7286C155.07 49.5561 155.089 50.4625 154.971 51.2901C154.833 52.1768 154.774 52.9846 154.577 53.8516C154.419 54.6397 154.419 55.5855 154.301 56.4328C154.045 58.0879 153.651 59.6248 153.651 61.3588C153.651 62.2848 153.592 63.1321 153.415 63.9991C153.237 64.9055 153.415 65.8709 153.296 66.7773" stroke="#053C5E" stroke-width="1.52817" stroke-linecap="round" stroke-linejoin="round"/>
<path d="M123.346 24.8873L128.863 23.4489C130.262 21.3406 133.848 20.2963 133.848 20.2963L139.897 18.5033C133.474 14.2472 126.814 13.4591 126.814 13.4591C119.504 11.7448 115.248 13.5576 115.248 13.5576C111.011 16.06 110.401 21.5574 110.401 21.5574C109.553 25.2026 109.494 27.8035 109.494 27.8035C118.006 31.7443 123.346 25.8922 123.346 25.8922C122.577 18.8382 126.834 13.4394 126.834 13.4394" stroke="#053C5E" stroke-width="1.52817" stroke-linecap="round" stroke-linejoin="round"/>
<path d="M106.322 27.1128L106.952 27.2901C109.297 28.2556 111.858 30.0684 111.858 30.0684C111.622 32.1176 113.868 39.3489 113.868 39.3489C112.765 44.6886 106.203 48.59 106.203 48.59C99.6814 48.2944 96.4105 46.2452 96.4105 46.2452C93.8293 44.0975 92.7456 42.3439 92.7456 42.3439" stroke="#053C5E" stroke-width="1.52817" stroke-linecap="round" stroke-linejoin="round"/>
<path d="M102.894 43.9402L106.204 48.61" stroke="#053C5E" stroke-width="1.52817" stroke-linecap="round" stroke-linejoin="round"/>
<path d="M109.238 36.6301L113.868 39.369" stroke="#053C5E" stroke-width="1.52817" stroke-linecap="round" stroke-linejoin="round"/>
<path d="M104.528 26.6603C104.528 26.6603 105.474 24.7687 105.908 24.3352C105.908 24.3352 106.44 26.4238 109.494 27.8228" stroke="#053C5E" stroke-width="1.52817" stroke-linecap="round" stroke-linejoin="round"/>
<path d="M105.908 24.3157L106.145 22.6015C107.248 9.02552 114.046 4.74979 114.046 4.74979C122.243 -0.432328 131.957 1.65628 131.957 1.65628C145.237 4.3163 158.104 13.5574 158.104 13.5574C160.961 15.6066 162.537 28.8082 162.537 28.8082C162.399 29.9904 161.729 30.6604 161.729 30.6604C157.296 35.6651 148.153 32.0002 148.153 32.0002C147.109 31.6258 147.109 30.2269 147.109 30.2269C146.498 21.7148 139.917 18.5228 139.917 18.5228" stroke="#053C5E" stroke-width="1.52817" stroke-linecap="round" stroke-linejoin="round"/>
<path d="M103.012 48.3149C103.012 48.3149 108.253 54.561 121.356 50.4035C121.356 50.4035 126.361 48.8272 128.449 44.1771L132.311 40.059C131.05 39.0541 129.947 38.2857 129.119 37.3596C126.932 34.9163 126.715 30.0692 126.715 30.0692C127.858 27.2318 128.903 23.429 128.903 23.429" stroke="#053C5E" stroke-width="1.52817" stroke-linecap="round" stroke-linejoin="round"/>
<path d="M132.292 40.0785C132.292 40.0785 135.602 41.8518 139.759 41.6548L145.335 38.4233C140.666 34.4235 147.05 30.7585 147.05 30.7585C145.867 29.7537 144.429 29.8522 144.429 29.8522C141.946 26.8966 141.769 22.9952 141.769 22.9952C143.286 21.8918 143.207 21.1431 143.207 21.1431" stroke="#053C5E" stroke-width="1.52817" stroke-linecap="round" stroke-linejoin="round"/>
<path d="M144.429 29.833L128.981 37.2811" stroke="#053C5E" stroke-width="1.52817" stroke-linecap="round" stroke-linejoin="round"/>
<path d="M126.696 30.0885L141.77 22.9951" stroke="#053C5E" stroke-width="1.52817" stroke-linecap="round" stroke-linejoin="round"/>
<path d="M127.209 28.7684C127.209 28.7684 123.839 27.5862 123.347 25.9114" stroke="#053C5E" stroke-width="1.52817" stroke-linecap="round" stroke-linejoin="round"/>
<path d="M129.336 37.7539L125.238 39.1923C118.283 38.148 113.337 41.4779 113.337 41.4779" stroke="#053C5E" stroke-width="1.52817" stroke-linecap="round" stroke-linejoin="round"/>
<path d="M148.016 31.9405L148.114 34.6597C147.917 36.9453 154.4 36.9453 154.4 36.9453C161.119 36.7089 161.355 33.7533 161.355 33.7533L161.316 31.0933" stroke="#053C5E" stroke-width="1.52817" stroke-linecap="round" stroke-linejoin="round"/>
<path d="M164.114 29.0247L162.518 28.5715" stroke="#053C5E" stroke-width="1.52817" stroke-linecap="round" stroke-linejoin="round"/>
<path d="M128.253 57.0827C128.647 58.6984 129.672 59.0728 129.672 59.0728C130.42 59.4472 131.386 59.0728 131.386 59.0728C134.716 57.3586 134.519 55.2897 134.519 55.2897C133.888 53.004 132.174 51.6839 132.174 51.6839C129.277 51.0927 128.036 53.3981 128.036 53.3981" stroke="#053C5E" stroke-width="1.52817" stroke-linecap="round" stroke-linejoin="round"/>
<path d="M93.2778 30.9554C95.9378 28.5121 96.4895 25.5369 96.4895 25.5369C101.672 25.6748 106.341 27.1329 106.341 27.1329C105.514 32.2165 109.258 36.6498 109.258 36.6498C107.07 40.1768 102.913 43.96 102.913 43.96C99.0116 40.2951 92.7655 42.364 92.7655 42.364C90.6177 38.1276 89.8296 33.3396 89.8296 33.3396C91.6029 32.3938 93.3172 30.9554 93.3172 30.9554" stroke="#053C5E" stroke-width="1.52817" stroke-linecap="round" stroke-linejoin="round"/>
<path d="M128.588 59.6638L71.4465 73.8506C49.2402 78.1657 37.7332 93.1801 37.7332 93.1801C23.3494 110.539 33.5363 143.464 33.5363 143.464C45.4374 183.049 91.6429 187.089 91.6429 187.089C127.366 193.473 157.749 183.089 157.749 183.089" stroke="#053C5E" stroke-width="1.52817" stroke-linecap="round" stroke-linejoin="round"/>
<path d="M138.695 56.8662L143.542 55.5854" stroke="#053C5E" stroke-width="1.52817" stroke-linecap="round" stroke-linejoin="round"/>
<path d="M160.666 52.0582L161.276 51.7236" stroke="#053C5E" stroke-width="1.52817" stroke-linecap="round" stroke-linejoin="round"/>
<path d="M166.479 51.0336L188.133 46.1077" stroke="#053C5E" stroke-width="1.52817" stroke-linecap="round" stroke-linejoin="round"/>
<path d="M206.103 169.769C242.673 157.099 267.914 138.44 267.914 138.44C280.682 129.672 283.717 112.825 283.717 112.825" stroke="#053C5E" stroke-width="1.52817" stroke-linecap="round" stroke-linejoin="round"/>
<path d="M130.065 69.3196L116.509 72.6889C113.671 74.3244 114.026 76.3933 114.341 77.2602C114.893 78.8168 116.706 78.6592 116.706 78.6592L130.893 75.2504" stroke="#053C5E" stroke-width="1.52817" stroke-linecap="round" stroke-linejoin="round"/>
<path d="M130.912 73.6143L116.883 77.1807C115.13 77.7915 114.164 76.5304 114.164 76.5304" stroke="#053C5E" stroke-width="1.52817" stroke-linecap="round" stroke-linejoin="round"/>
<path d="M142.892 124.411C136.488 122.204 132.016 123.899 130.439 124.687C130.026 124.904 129.454 125.298 129.297 125.436C123.267 130.185 125.415 135.051 126.617 136.943C126.952 137.455 127.563 138.027 127.74 138.165C138.419 146.243 146.931 140.568 146.931 140.568" stroke="#053C5E" stroke-width="1.52817" stroke-linecap="round" stroke-linejoin="round"/>
<path d="M144.35 129.199C141.434 126.854 136.508 126.972 136.508 126.972C130.755 127.445 129.75 131.15 129.75 131.15C127.839 136.194 133.237 138.164 133.237 138.164C139.109 140.43 142.419 138.598 142.419 138.598C145.04 137.415 145.946 135.819 145.946 135.819" stroke="#053C5E" stroke-width="1.52817" stroke-linecap="round" stroke-linejoin="round"/>
<path d="M103.268 34.7985C103.268 36.8871 101.553 38.5817 99.4451 38.5817C97.3368 38.5817 95.6226 36.8871 95.6226 34.7985C95.6226 32.7099 97.3368 31.0154 99.4451 31.0154C101.553 31.0154 103.268 32.7099 103.268 34.7985Z" stroke="#053C5E" stroke-width="1.52817" stroke-linecap="round" stroke-linejoin="round"/>
<path d="M165.69 11.094C165.69 11.094 168.705 12.0595 171.562 13.4388" stroke="#053C5E" stroke-width="1.52817" stroke-linecap="round" stroke-linejoin="round"/>
<path d="M130.164 64.7477C130.164 64.7477 131.72 63.1911 134.085 63.2896" stroke="#053C5E" stroke-width="1.52817" stroke-linecap="round" stroke-linejoin="round"/>
<path d="M130.735 66.2648C130.735 66.2648 132.568 66.4027 133.474 65.7722" stroke="#053C5E" stroke-width="1.52817" stroke-linecap="round" stroke-linejoin="round"/>
<path d="M151.995 81.0427C151.995 81.0427 151.424 81.4171 150.419 81.2398" stroke="#053C5E" stroke-width="1.52817" stroke-linecap="round" stroke-linejoin="round"/>
<path d="M158.972 37.6948C158.972 37.6948 159.425 36.5519 159.504 35.8623" stroke="#053C5E" stroke-width="1.52817" stroke-linecap="round" stroke-linejoin="round"/>
</g>
<defs>
<clipPath id="clip0_107_99">
<rect width="308.149" height="216.013" fill="white" transform="translate(0 0.493408)"/>
</clipPath>
</defs>
</svg>
