<svg width="273" height="186" viewBox="0 0 273 186" fill="none" xmlns="http://www.w3.org/2000/svg">
<g clip-path="url(#clip0_107_633)">
<path d="M190.595 184.464C190.578 169.63 189.891 161.299 189.891 161.299C189.539 141.218 186.991 133.005 186.991 133.005C182.667 116.595 179.381 109.304 179.381 109.304C174.923 98.2913 175.61 93.0952 175.61 93.0952L175.66 88.5527C174.738 84.027 173.917 79.669 173.917 79.669C172.962 75.5288 174.118 71.7742 174.118 71.7742L173.883 68.7235C173.481 65.103 173.498 64.3319 173.498 64.3319C172.123 60.7784 172.325 54.5766 172.325 54.5766C171.034 52.8836 170.833 49.7827 170.833 49.7827C170.196 44.6033 172.827 44.3686 172.827 44.3686C177.32 43.1282 180.337 48.0227 180.337 48.0227C184.594 53.2524 184.594 57.4261 184.594 57.4261C186.639 61.6333 186.388 65.7399 186.388 65.7399C186.807 67.3658 187.159 68.0698 187.159 68.0698C188.282 69.2766 189.288 68.2877 189.288 68.2877C190.394 61.4656 192.053 59.5883 192.053 59.5883C191.5 57.2249 192.204 55.6158 192.204 55.6158C191.433 54.3922 191.567 52.8333 191.567 52.8333C189.472 51.5091 186.287 44.3183 186.287 44.3183C181.527 43.7484 180.437 42.0387 180.437 42.0387L180.085 41.9717" stroke="#053C5E" stroke-width="1.49451" stroke-linecap="round" stroke-linejoin="round"/>
<path d="M172.158 36.541C170.046 33.0545 174.79 31.965 174.79 31.965C178.125 31.3616 180.019 31.5292 180.019 31.5292C182.869 31.6465 187.311 32.4176 187.311 32.4176C191.803 33.021 194.585 34.8313 194.585 34.8313C198.608 38.2507 202.648 43.7821 202.648 43.7821L205.531 47.0003C208.095 49.3135 210.341 51.5763 210.341 51.5763C211.8 53.5877 213.945 55.1298 213.945 55.1298" stroke="#053C5E" stroke-width="1.49451" stroke-linecap="round" stroke-linejoin="round"/>
<path d="M238.904 183.826C236.155 175.898 230.02 159.371 230.02 159.371L224.807 143.011C221.22 129.333 218.454 122.092 218.454 122.092C217.381 118.271 219.393 115.538 219.393 115.538C222.293 110.912 223.349 92.2898 223.349 92.2898L224.488 83.2384C227.506 76.6008 227.438 74.1368 227.438 74.1368C227.438 70.7174 225.863 67.4991 225.863 67.4991C227.506 63.5433 224.991 60.3418 224.991 60.3418C221.79 56.1849 220.6 52.2291 220.6 52.2291C218.84 42.9096 214.247 35.8193 214.247 35.8193C213.107 33.8079 208.079 33.1374 208.079 33.1374C204.173 31.4613 199.346 31.059 199.346 31.059C196.396 29.5169 193.814 29.3828 193.814 29.3828C190.043 28.31 189.54 28.947 189.54 28.947" stroke="#053C5E" stroke-width="1.49451" stroke-linecap="round" stroke-linejoin="round"/>
<path d="M203.938 45.2571C203.72 43.9329 203.871 43.1619 203.871 43.1619C202.345 43.2121 200.837 41.4521 200.837 41.4521" stroke="#053C5E" stroke-width="1.49451" stroke-linecap="round" stroke-linejoin="round"/>
<path d="M218.772 45.3235C222.326 45.2732 224.22 51.7768 224.22 51.7768C225.209 55.7661 225.041 60.3253 225.041 60.3253" stroke="#053C5E" stroke-width="1.49451" stroke-linecap="round" stroke-linejoin="round"/>
<path d="M225.879 67.4663C224.337 69.813 223.499 74.4392 223.499 74.4392" stroke="#053C5E" stroke-width="1.49451" stroke-linecap="round" stroke-linejoin="round"/>
<path d="M198.406 7.82711L50.4164 5.43018C46.4438 5.48046 45.8739 7.76007 45.8739 7.76007L32.3472 40.8479L26.3632 56.2687L12.2665 92.625C8.0258 102.598 4.05326 113.292 1.03613 120.818" stroke="#053C5E" stroke-width="1.49451" stroke-linecap="round" stroke-linejoin="round"/>
<path d="M270.432 8.96735C250.352 8.64887 228.846 8.29688 228.846 8.29688" stroke="#053C5E" stroke-width="1.49451" stroke-linecap="round" stroke-linejoin="round"/>
<path d="M172.308 54.543C172.61 52.9842 174.655 51.7941 174.655 51.7941C176.314 50.5369 175.996 49.3804 175.996 49.3804C175.51 47.017 174.554 46.0112 174.554 46.0112C173.046 44.2513 171.587 45.0391 171.587 45.0391" stroke="#053C5E" stroke-width="1.49451" stroke-linecap="round" stroke-linejoin="round"/>
<path d="M172.459 33.3897C176.365 33.1885 178.041 31.9314 178.041 31.9314C178.36 31.6632 178.242 31.4956 178.242 31.4956" stroke="#053C5E" stroke-width="1.49451" stroke-linecap="round" stroke-linejoin="round"/>
<path d="M193.814 29.3496C192.272 30.2715 189.305 29.6681 189.305 29.6681" stroke="#053C5E" stroke-width="1.49451" stroke-linecap="round" stroke-linejoin="round"/>
<path d="M129.667 76.5512L89.5053 74.6404C65.8376 73.4335 50.8526 85.3009 50.8526 85.3009C24.6371 107.628 14.1778 143.112 14.1778 143.112C10.222 154.762 7.55686 164.936 5.79688 173.703" stroke="#053C5E" stroke-width="1.49451" stroke-linecap="round" stroke-linejoin="round"/>
<path d="M236.205 82.8867C256 83.289 268.27 89.0215 268.27 89.0215C269.494 89.5914 270.684 90.1781 271.823 90.7983" stroke="#053C5E" stroke-width="1.49451" stroke-linecap="round" stroke-linejoin="round"/>
<path d="M139.171 28.3777L132.449 27.791L116.894 34.6466C113.709 39.6416 112.687 44.4522 112.687 44.4522C116.291 50.2183 117.313 57.7108 117.313 57.7108C120.917 60.2083 126.331 61.0297 126.331 61.0297L132.282 60.0742C137.813 31.5121 139.187 28.3609 139.187 28.3609L139.171 28.3777Z" stroke="#053C5E" stroke-width="1.49451" stroke-linecap="round" stroke-linejoin="round"/>
<path d="M139.17 28.3773C143.193 11.582 152.68 11.1462 152.68 11.1462C157.977 10.1069 163.374 11.0791 165.033 12.2357C170.196 15.8562 173.364 21.5887 173.364 21.5887" stroke="#053C5E" stroke-width="1.49451" stroke-linecap="round" stroke-linejoin="round"/>
<path d="M137.963 33.1211L125.878 37.5965C119.207 40.3454 116.86 34.6464 116.86 34.6464" stroke="#053C5E" stroke-width="1.49451" stroke-linecap="round" stroke-linejoin="round"/>
<path d="M134.41 49.0781L130.437 49.9665C125.509 53.5535 126.297 61.046 126.297 61.046" stroke="#053C5E" stroke-width="1.49451" stroke-linecap="round" stroke-linejoin="round"/>
<path d="M125.895 37.5962C125.895 37.5962 129.08 43.6137 130.454 49.9664" stroke="#053C5E" stroke-width="1.49451" stroke-linecap="round" stroke-linejoin="round"/>
<path d="M132.264 60.0913C129.432 75.9144 127.99 88.9216 127.99 88.9216C125.224 105.834 128.644 111.986 128.644 111.986C131.829 119.227 135.315 120.316 135.315 120.316C136.807 123.903 142.64 122.563 142.64 122.563C150.149 120.182 150.401 115.12 150.401 115.12L150.518 112.489C151.172 108.449 150.568 106.019 150.568 106.019" stroke="#053C5E" stroke-width="1.49451" stroke-linecap="round" stroke-linejoin="round"/>
<path d="M135.315 120.316C147.401 123.836 150.518 112.505 150.518 112.505" stroke="#053C5E" stroke-width="1.49451" stroke-linecap="round" stroke-linejoin="round"/>
<path d="M150.585 106.035C149.093 97.8888 150.652 90.2119 150.652 90.2119C152.58 76.5007 157.323 55.934 157.323 55.934C161.598 31.4618 166.526 27.4893 166.526 27.4893" stroke="#053C5E" stroke-width="1.49451" stroke-linecap="round" stroke-linejoin="round"/>
<path d="M187.092 146.816C187.042 155.968 179.751 163.595 171.051 163.344C161.145 163.075 155.312 155.918 155.312 146.766C155.312 137.614 162.369 130.256 171.051 130.189C180.119 130.105 187.143 136.776 187.092 146.833V146.816Z" stroke="#053C5E" stroke-width="1.49451" stroke-linecap="round" stroke-linejoin="round"/>
<path d="M179.232 146.431C179.064 152.079 174.907 156.538 169.627 156.94C164.598 157.343 159.788 152.063 159.989 146.431C160.173 140.983 164.314 136.558 169.61 136.206C175.058 135.854 179.433 140.078 179.232 146.431Z" stroke="#053C5E" stroke-width="1.49451" stroke-linecap="round" stroke-linejoin="round"/>
<path d="M174.856 137.497C178.276 138.888 180.639 142.408 180.488 147.101C180.321 152.75 176.164 157.208 170.884 157.611C169.241 157.745 167.615 157.259 166.174 156.37" stroke="#053C5E" stroke-width="1.49451" stroke-linecap="round" stroke-linejoin="round"/>
<path d="M125.275 48.0563C125.376 50.9896 124.471 52.8669 122.694 53.001C120.75 53.1183 118.705 50.7549 118.336 48.0563C117.934 45.1565 118.872 42.3237 120.817 42.3237C122.761 42.3237 125.175 44.9721 125.292 48.0563H125.275Z" stroke="#053C5E" stroke-width="1.49451" stroke-linecap="round" stroke-linejoin="round"/>
<path d="M169.073 41.5527L173.246 43.2457L175.476 43.4636" stroke="#053C5E" stroke-width="1.49451" stroke-linecap="round" stroke-linejoin="round"/>
<path d="M172.174 94.3013L167.95 94.9382" stroke="#053C5E" stroke-width="1.49451" stroke-linecap="round" stroke-linejoin="round"/>
<path d="M162.386 35.3502L166.258 36.0542L167.951 33.5399L169.56 28.7125L177.002 15.8394L209.151 3.78771L229.148 1.27344L228.679 14.0292L230.941 36.8587L234.143 57.1573L232.97 61.6494L235.652 78.5788L237.227 96.162L223.013 96.6648" stroke="#053C5E" stroke-width="1.49451" stroke-linecap="round" stroke-linejoin="round"/>
<path d="M178.527 107.846L166.71 117.014L164.179 115.154L163.944 113.88L157.608 109.606L150.82 106.991" stroke="#053C5E" stroke-width="1.49451" stroke-linecap="round" stroke-linejoin="round"/>
<path d="M177.639 17.3315L177.035 19.8626L184.829 22.5947L187.059 24.7235L189.221 29.5341L189.087 31.1935L189.791 32.8194" stroke="#053C5E" stroke-width="1.49451" stroke-linecap="round" stroke-linejoin="round"/>
<path d="M202.328 25.5283L201.993 31.3279" stroke="#053C5E" stroke-width="1.49451" stroke-linecap="round" stroke-linejoin="round"/>
<path d="M166.258 36.0542L174.337 37.4287L179.265 41.837L183.975 46.6812" stroke="#053C5E" stroke-width="1.49451" stroke-linecap="round" stroke-linejoin="round"/>
<path d="M159.737 44.2176L166.341 42.1391L173.08 40.6138L173.733 42.6755" stroke="#053C5E" stroke-width="1.49451" stroke-linecap="round" stroke-linejoin="round"/>
<path d="M173.733 42.6758L177.136 44.3017L181.544 46.0617L183.17 47.6205L183.438 50.822" stroke="#053C5E" stroke-width="1.49451" stroke-linecap="round" stroke-linejoin="round"/>
<path d="M154.993 66.5609L161.396 57.6939L166.844 48.5587L169.425 43.9325L169.593 41.8037" stroke="#053C5E" stroke-width="1.49451" stroke-linecap="round" stroke-linejoin="round"/>
<path d="M158.078 51.978L160.827 55.2298L161.598 57.2915" stroke="#053C5E" stroke-width="1.49451" stroke-linecap="round" stroke-linejoin="round"/>
<path d="M150.116 94.6536L160.81 94.0166L167.951 94.9385" stroke="#053C5E" stroke-width="1.49451" stroke-linecap="round" stroke-linejoin="round"/>
<path d="M175.526 91.9214L171.99 92.6589" stroke="#053C5E" stroke-width="1.49451" stroke-linecap="round" stroke-linejoin="round"/>
<path d="M173.783 79.3672L172.157 85.0997L169.526 89.6254" stroke="#053C5E" stroke-width="1.49451" stroke-linecap="round" stroke-linejoin="round"/>
<path d="M209.587 30.9591L215.118 25.3271L216.895 21.5724L216.51 20.6338L214.75 20.902" stroke="#053C5E" stroke-width="1.49451" stroke-linecap="round" stroke-linejoin="round"/>
<path d="M229.08 18.8906L219.14 19.9634L213.995 20.0975L201.926 23.9694L196.143 26.1317L194.383 25.9976" stroke="#053C5E" stroke-width="1.49451" stroke-linecap="round" stroke-linejoin="round"/>
<path d="M172.275 54.7779L169.895 54.0571L168.336 54.208" stroke="#053C5E" stroke-width="1.49451" stroke-linecap="round" stroke-linejoin="round"/>
<path d="M164.346 91.6532L168.034 90.4631L169.526 89.625" stroke="#053C5E" stroke-width="1.49451" stroke-linecap="round" stroke-linejoin="round"/>
<path d="M167.213 114.768L170.884 105.734L170.046 102.415L168.923 100.303L169.191 97.2856L175.426 93.9668" stroke="#053C5E" stroke-width="1.49451" stroke-linecap="round" stroke-linejoin="round"/>
<path d="M225.695 61.7839L232.483 57.627" stroke="#053C5E" stroke-width="1.49451" stroke-linecap="round" stroke-linejoin="round"/>
</g>
<defs>
<clipPath id="clip0_107_633">
<rect width="272.279" height="185.084" fill="white" transform="translate(0.181641 0.636719)"/>
</clipPath>
</defs>
</svg>
