<svg width="256" height="194" viewBox="0 0 256 194" fill="none" xmlns="http://www.w3.org/2000/svg">
<g clip-path="url(#clip0_107_479)">
<path d="M86.2822 103.569L86.9024 99.9817C87.6567 95.5901 88.3272 94.97 88.3272 94.97C90.5565 83.8904 93.758 82.0466 93.758 82.0466C96.7248 79.7 99.7587 81.8622 99.7587 81.8622C98.5854 87.863 99.5743 92.8747 99.5743 92.8747C97.9652 100.971 98.5854 103.77 98.5854 103.77C92.2829 104.507 86.2822 103.586 86.2822 103.586V103.569Z" stroke="#053C5E" stroke-width="1.49451" stroke-linecap="round" stroke-linejoin="round"/>
<path d="M1.61816 93.4946L18.8996 98.3555L30.5155 101.658L33.4823 102.462C38.8126 104.39 44.5619 103.116 44.5619 103.116L50.9817 102.965C59.3793 103.116 61.5583 101.071 61.5583 101.071C65.1118 99.2774 69.4867 99.0428 69.4867 99.0428C76.3255 95.3552 82.0413 95.9251 82.0413 95.9251H87.7906" stroke="#053C5E" stroke-width="1.49451" stroke-linecap="round" stroke-linejoin="round"/>
<path d="M74.7832 102.546L80.8677 102.445C83.315 102.345 86.265 103.552 86.265 103.552" stroke="#053C5E" stroke-width="1.49451" stroke-linecap="round" stroke-linejoin="round"/>
<path d="M99.7586 81.8619C100.194 79.1465 100.697 78.3922 100.697 78.3922C103.882 74.6375 107.503 77.1183 108.441 77.8726C108.592 77.9899 108.827 78.4927 108.894 78.7274C109.983 82.2977 109.547 87.6112 109.547 87.6112C109.749 91.1982 109.229 94.2153 109.229 94.2153C108.475 100.35 108.559 102.663 108.559 102.663C106.899 103.25 104.737 103.401 104.737 103.401C102.038 103.267 99.8592 103.837 99.8592 103.837L98.5518 103.786" stroke="#053C5E" stroke-width="1.49451" stroke-linecap="round" stroke-linejoin="round"/>
<path d="M1.56753 139.992L6.32788 140.243C34.8397 141.735 45.165 148.909 45.165 148.909C40.1532 149.781 23.9613 155.027 23.9613 155.027C12.513 159.368 5.72445 161.95 5.72445 161.95C4.36675 162.754 1.4502 163.19 1.4502 163.19" stroke="#053C5E" stroke-width="1.49451" stroke-linecap="round" stroke-linejoin="round"/>
<path d="M45.1494 148.893L48.9879 147.719C50.53 147.418 52.4408 145.071 52.4408 145.071C60.0842 133.539 59.531 132.852 59.5478 133.002" stroke="#053C5E" stroke-width="1.49451" stroke-linecap="round" stroke-linejoin="round"/>
<path d="M50.4785 192.675L63.5192 180.254L74.2132 173.7L86.0806 166.845L93.9419 162.939L100.127 159.788C108.592 158.112 114.039 154.659 114.039 154.659L119.051 152.916" stroke="#053C5E" stroke-width="1.49451" stroke-linecap="round" stroke-linejoin="round"/>
<path d="M98.2178 160.726C104.286 164.749 109.7 165.001 109.7 165.001C114.175 165.319 115.147 160.793 115.147 160.793C115.667 157.24 112.214 155.698 112.214 155.698" stroke="#053C5E" stroke-width="1.49451" stroke-linecap="round" stroke-linejoin="round"/>
<path d="M124.398 152.446C126.192 153.033 127.03 152.262 127.03 152.262C131.321 150.519 130.734 145.708 130.734 145.708C130.366 144.317 129.913 143.915 129.913 143.915" stroke="#053C5E" stroke-width="1.49451" stroke-linecap="round" stroke-linejoin="round"/>
<path d="M129.562 134.762L133.299 136.002C136.048 136.622 137.322 135.634 137.322 135.634C143.139 131.208 137.725 126.264 137.725 126.264" stroke="#053C5E" stroke-width="1.49451" stroke-linecap="round" stroke-linejoin="round"/>
<path d="M72.7891 134.477C72.7891 134.477 78.8066 132.918 81.1867 131.326C81.1867 131.326 85.6621 129.063 90.7577 127.672C90.7577 127.672 97.4457 124.957 109.347 125.476C109.347 125.476 116.956 124.739 118.985 121.973C118.985 121.973 124.114 112.234 140.909 111.162C140.909 111.162 145.703 111.447 146.843 115.486C146.843 115.486 148.888 120.481 142.166 123.482C142.166 123.482 133.819 128.845 130.081 130.304C130.081 130.304 129.494 131.544 128.254 132.013C128.254 132.013 125.84 133.924 123.242 136.187L120.309 140.21L114.409 148.121" stroke="#053C5E" stroke-width="1.49451" stroke-linecap="round" stroke-linejoin="round"/>
<path d="M116.353 75.1909C120.107 75.61 120.66 80.2362 120.66 80.2362C122.135 84.477 121.482 92.6902 121.482 92.6902C121.364 95.8582 121.867 101.021 121.867 101.021C121.683 101.758 121.649 102.814 121.649 102.814" stroke="#053C5E" stroke-width="1.49451" stroke-linecap="round" stroke-linejoin="round"/>
<path d="M121.549 86.5056C123.191 82.8012 126.996 82.8682 126.996 82.8682C131.036 83.0861 132.31 88.7014 132.31 88.7014C134.506 96.2777 133.634 102.329 133.634 102.329C133.517 106.234 134.69 112.101 134.69 112.101" stroke="#053C5E" stroke-width="1.49451" stroke-linecap="round" stroke-linejoin="round"/>
<path d="M133.65 102.328C140.389 106.669 134.606 111.731 134.606 111.731" stroke="#053C5E" stroke-width="1.49451" stroke-linecap="round" stroke-linejoin="round"/>
<path d="M56.5303 132.902C60.0167 133.455 62.179 131.645 62.179 131.645C67.0902 129.264 71.9344 128.242 71.9344 128.242C81.9747 124.755 85.679 119.61 85.679 119.61C91.6965 117.33 97.01 117.514 97.01 117.514C106.279 119.375 111.308 116.844 111.308 116.844C119.672 113.86 121.432 109.737 121.432 109.737C124.483 103.786 120.125 101.457 119.32 101.105C119.253 101.071 119.136 101.054 119.085 101.071C115.817 101.339 114.174 101.641 114.174 101.641C110.654 102.11 108.576 102.68 108.576 102.68" stroke="#053C5E" stroke-width="1.49451" stroke-linecap="round" stroke-linejoin="round"/>
<path d="M119.974 116.174C120.46 115.302 120.828 114.448 120.979 113.542C121.248 111.967 121.281 110.173 121.281 110.173" stroke="#053C5E" stroke-width="1.49451" stroke-linecap="round" stroke-linejoin="round"/>
<path d="M118.314 118.956C118.666 118.369 119.002 117.799 119.337 117.246" stroke="#053C5E" stroke-width="1.49451" stroke-linecap="round" stroke-linejoin="round"/>
<path d="M1.56836 44.919L83.148 7.1044C85.6288 5.7467 88.5956 7.1044 88.5956 7.1044L111.811 14.9824C107.704 17.0944 105.81 19.5081 104.67 23.3466C100.178 38.4322 104.335 41.7343 104.335 41.7343L104.754 45.1034C104.888 48.0199 110.939 48.7407 110.939 48.7407C119.136 49.8302 120.996 47.2824 120.996 47.2824L121.885 45.1704L122.287 42.6562C124.416 42.0695 124.885 35.8341 124.885 35.8341C125.958 27.5538 134.137 24.9557 134.137 24.9557C154.268 16.1055 162.297 19.1058 162.297 19.1058" stroke="#053C5E" stroke-width="1.49451" stroke-linecap="round" stroke-linejoin="round"/>
<path d="M197.982 46.2598L254.537 66.6253" stroke="#053C5E" stroke-width="1.49451" stroke-linecap="round" stroke-linejoin="round"/>
<path d="M141.814 2.89746C141.814 2.89746 127.282 6.16601 111.811 14.9827" stroke="#053C5E" stroke-width="1.49451" stroke-linecap="round" stroke-linejoin="round"/>
<path d="M163.336 2.94727C173.477 6.28286 177.5 13.0882 177.5 13.0882C182.88 22.7429 182.511 34.9791 182.511 34.9791C183.802 38.2476 184.355 41.0636 184.355 41.0636" stroke="#053C5E" stroke-width="1.49451" stroke-linecap="round" stroke-linejoin="round"/>
<path d="M141.814 2.89695C141.814 2.89695 156.716 0.0809729 163.337 2.964" stroke="#053C5E" stroke-width="1.49451" stroke-linecap="round" stroke-linejoin="round"/>
<path d="M137.138 120.532C137.507 121.889 137.658 123.415 137.658 123.415C138.111 123.85 139.133 123.599 139.133 123.599C144.597 122.845 146.307 120.448 146.307 120.448C148.251 117.917 146.961 115.688 146.961 115.688C146.089 114.179 143.491 113.71 143.491 113.71C141.228 113.559 139.653 114.229 139.653 114.229C136.216 115.403 136.786 117.732 136.786 117.732C136.753 118.755 137.122 120.548 137.122 120.548L137.138 120.532Z" stroke="#053C5E" stroke-width="1.49451" stroke-linecap="round" stroke-linejoin="round"/>
<path d="M109.414 81.4259C109.414 81.4259 109.665 78.7775 110.269 77.688" stroke="#053C5E" stroke-width="1.49451" stroke-linecap="round" stroke-linejoin="round"/>
<path d="M112.665 111.229C115.18 111.179 116.755 110.14 116.755 110.14C118.884 108.815 118.834 105.195 118.834 105.195C118.85 101.491 117.912 101.608 117.912 101.608C114.006 102.446 112.246 103.452 112.246 103.452C109.112 104.709 108.777 106.67 108.777 106.67C108.408 111.129 112.665 111.246 112.665 111.246V111.229Z" stroke="#053C5E" stroke-width="1.49451" stroke-linecap="round" stroke-linejoin="round"/>
<path d="M153.698 30.1021L158.693 32.0129" stroke="#053C5E" stroke-width="1.49451" stroke-linecap="round" stroke-linejoin="round"/>
<path d="M184.288 40.3262L186.199 40.9128" stroke="#053C5E" stroke-width="1.49451" stroke-linecap="round" stroke-linejoin="round"/>
<path d="M115.968 66.7095C164.46 86.2705 195.201 98.7413 195.201 98.7413C243.994 118.034 254.186 130.471 254.186 130.471" stroke="#053C5E" stroke-width="1.49451" stroke-linecap="round" stroke-linejoin="round"/>
<path d="M1.14941 60.7255C47.1605 37.7283 85.9306 54.6074 85.9306 54.6074C94.2612 57.9598 102.257 61.1948 109.866 64.2454" stroke="#053C5E" stroke-width="1.49451" stroke-linecap="round" stroke-linejoin="round"/>
<path d="M133.45 90.1587C134.188 88.0467 137.657 88.9016 137.657 88.9016L157.302 97.3998C160.018 99.1933 160.034 101.54 159.884 102.646C159.448 105.999 155.459 104.825 155.459 104.825L135.763 96.2935C132.998 94.7347 132.947 91.6337 133.45 90.1755V90.1587Z" stroke="#053C5E" stroke-width="1.49451" stroke-linecap="round" stroke-linejoin="round"/>
<path d="M135.411 88.7847C135.076 90.3603 135.361 93.0254 137.859 94.4166L157.57 102.948C159.565 103.686 159.867 102.814 159.867 102.814" stroke="#053C5E" stroke-width="1.49451" stroke-linecap="round" stroke-linejoin="round"/>
<path d="M140.574 22.4585L153.279 29.4146L155.123 37.5274C155.659 46.7128 146.39 51.9928 146.39 51.9928L139.954 53.2164C137.657 53.7528 134.221 51.6073 134.221 51.6073L122.438 42.5727" stroke="#053C5E" stroke-width="1.49451" stroke-linecap="round" stroke-linejoin="round"/>
<path d="M124.214 39.6722C124.75 39.9068 126.561 39.3705 126.561 39.3705C127.482 33.5541 134.455 30.3359 134.455 30.3359C136.132 25.2067 135.679 24.3687 135.679 24.3687" stroke="#053C5E" stroke-width="1.49451" stroke-linecap="round" stroke-linejoin="round"/>
<path d="M134.455 30.3359L151.653 40.8623C154.62 37.7614 154.251 33.9397 154.251 33.9397" stroke="#053C5E" stroke-width="1.49451" stroke-linecap="round" stroke-linejoin="round"/>
<path d="M151.636 40.8624C151.267 50.249 144.026 51.4391 144.026 51.4391L126.561 39.3706" stroke="#053C5E" stroke-width="1.49451" stroke-linecap="round" stroke-linejoin="round"/>
<path d="M144.027 51.4399C144.027 51.4399 140.875 52.6133 139.518 53.2335" stroke="#053C5E" stroke-width="1.49451" stroke-linecap="round" stroke-linejoin="round"/>
<path d="M125.304 33.7556C125.304 33.7556 129.511 33.6215 130.567 26.833" stroke="#053C5E" stroke-width="1.49451" stroke-linecap="round" stroke-linejoin="round"/>
<path d="M155.039 37.3421C159.498 37.2248 158.811 33.3193 158.811 33.3193C158.257 25.9609 156.95 23.2454 156.95 23.2454C155.525 19.474 154.419 18.9209 154.419 18.9209" stroke="#053C5E" stroke-width="1.49451" stroke-linecap="round" stroke-linejoin="round"/>
<path d="M191.396 39.555C196.709 44.0136 200.179 49.8803 200.179 49.8803C199.005 51.7911 197.329 53.5846 197.329 53.5846C195.72 55.2608 195.787 58.8981 195.787 58.8981C195.854 61.1274 195.72 62.9712 195.72 62.9712C190.273 65.2006 182.545 65.5023 182.545 65.5023C180.618 56.2162 173.511 54.4227 173.511 54.4227C174.5 46.7626 177.718 42.0022 177.718 42.0022C180.534 42.4548 183.937 42.9241 185.378 42.5386C188.244 41.7843 191.396 39.5215 191.396 39.5215C183.97 41.8011 178.506 42.1196 178.506 42.1196" stroke="#053C5E" stroke-width="1.49451" stroke-linecap="round" stroke-linejoin="round"/>
<path d="M192.149 52.5291C192.149 55.4792 189.803 57.8762 186.886 57.8762C183.97 57.8762 181.64 55.4792 181.64 52.5291C181.64 49.5791 183.986 47.1821 186.886 47.1821C189.786 47.1821 192.149 49.5791 192.149 52.5291Z" stroke="#053C5E" stroke-width="1.49451" stroke-linecap="round" stroke-linejoin="round"/>
<path d="M177.735 42.0356C173.896 42.5888 171.617 44.1979 171.617 44.1979C168.097 50.2489 167.292 57.1213 167.292 57.1213C170.259 54.7076 173.527 54.4561 173.527 54.4561" stroke="#053C5E" stroke-width="1.49451" stroke-linecap="round" stroke-linejoin="round"/>
<path d="M195.736 63.0054C194.06 66.341 191.898 68.0674 191.898 68.0674C185.83 71.1013 178.907 70.5482 178.907 70.5482C181.757 68.1345 182.561 65.5364 182.561 65.5364" stroke="#053C5E" stroke-width="1.49451" stroke-linecap="round" stroke-linejoin="round"/>
<path d="M178.908 70.5481C170.125 64.8659 167.275 57.1387 167.275 57.1387" stroke="#053C5E" stroke-width="1.49451" stroke-linecap="round" stroke-linejoin="round"/>
<path d="M182.445 34.9962C180.316 40.6784 170.996 40.5779 170.996 40.5779C158.928 40.8293 158.827 34.5771 158.827 34.5771" stroke="#053C5E" stroke-width="1.49451" stroke-linecap="round" stroke-linejoin="round"/>
<path d="M178.557 70.347C164.226 73.1127 153.448 63.1059 153.448 63.1059C148.235 56.0492 145.536 52.1772 145.536 52.1772" stroke="#053C5E" stroke-width="1.49451" stroke-linecap="round" stroke-linejoin="round"/>
<path d="M104.318 41.7344C107.335 43.9972 113.688 44.0475 113.688 44.0475C119.773 44.1313 122.27 42.6563 122.27 42.6563" stroke="#053C5E" stroke-width="1.49451" stroke-linecap="round" stroke-linejoin="round"/>
<path d="M119.874 159.972C131.473 157.575 138.898 166.358 138.898 166.358C144.715 175.04 136.92 182.315 136.92 182.315C134.607 184.36 133.182 185.366 129.88 186.304C125.925 187.411 121.215 186.74 121.215 186.74C115.029 186.489 110.521 182.969 110.521 182.969" stroke="#053C5E" stroke-width="1.49451" stroke-linecap="round" stroke-linejoin="round"/>
<path d="M106.162 177.807C105.391 176.449 105.257 173.784 105.257 173.784" stroke="#053C5E" stroke-width="1.49451" stroke-linecap="round" stroke-linejoin="round"/>
<path d="M118.365 164.347C119.656 163.961 121.064 163.76 122.539 163.76C128.69 163.76 133.668 167.414 133.668 171.923C133.668 176.432 128.69 180.086 122.539 180.086C119.689 180.086 117.091 179.298 115.13 178.008" stroke="#053C5E" stroke-width="1.49451" stroke-linecap="round" stroke-linejoin="round"/>
<path d="M133.668 171.621C134.087 172.509 134.305 173.465 134.305 174.454C134.305 179.13 129.343 182.952 123.225 182.952C119.621 182.952 116.403 181.628 114.392 179.583" stroke="#053C5E" stroke-width="1.49451" stroke-linecap="round" stroke-linejoin="round"/>
<path d="M131.439 129.717L129.562 134.762" stroke="#053C5E" stroke-width="1.49451" stroke-linecap="round" stroke-linejoin="round"/>
<path d="M118.515 48.606C118.448 49.2932 118.096 49.8631 117.912 50.5168C117.71 51.204 117.593 51.9583 117.425 52.6288C117.073 54.0871 116.822 55.5621 116.587 57.0371C116.47 57.8082 116.353 58.5625 116.286 59.3335C116.219 60.0878 116.219 60.7583 116.185 61.5293C116.101 63.0882 115.833 64.4961 115.917 66.055C115.984 67.3959 116.034 68.8039 115.967 70.1616C115.9 71.3014 115.783 72.4245 115.733 73.5475C115.699 74.6203 115.783 75.2907 115.733 76.2797C115.699 77.0172 115.548 77.7715 115.481 78.4755C115.33 80.0846 115.716 81.6435 115.783 83.2191C115.95 87.376 115.464 91.5329 115.464 95.6898C115.464 97.6342 115.414 99.5618 115.414 101.523" stroke="#053C5E" stroke-width="1.49451" stroke-linecap="round" stroke-linejoin="round"/>
<path d="M107.201 47.8188C107.151 48.5396 107.503 49.2939 107.754 49.8805C108.039 50.5343 108.24 51.1712 108.307 51.892C108.442 53.3335 108.559 54.8588 108.726 56.3171C108.81 57.0378 109.095 57.7418 109.263 58.4291C109.43 59.0828 109.397 59.9041 109.414 60.6081C109.414 61.4462 109.648 62.0664 109.732 62.9045C109.799 63.6587 109.9 64.4298 110.017 65.1841C110.235 66.6759 110.336 68.1174 110.336 69.6595C110.336 70.5478 110.252 71.453 110.285 72.3581C110.352 73.7829 110.369 75.1909 110.369 76.5988C110.369 77.3699 110.285 78.0739 110.285 78.8282C110.285 80.4541 110.118 82.1302 110.285 83.7226C110.47 85.5161 110.654 87.4102 110.553 89.2037C110.47 90.8799 110.738 92.489 110.822 94.1317C110.855 94.7183 110.872 95.2883 110.872 95.8582C110.872 97.9534 111.006 100.015 111.006 102.11" stroke="#053C5E" stroke-width="1.49451" stroke-linecap="round" stroke-linejoin="round"/>
<path d="M129.394 131.242C129.394 132.064 129.595 132.667 129.561 133.488C129.528 134.209 129.561 134.997 129.478 135.718C129.411 136.338 129.025 137.26 129.21 137.863C129.31 138.198 129.461 138.416 129.478 138.852C129.494 139.305 129.478 139.774 129.478 140.243C129.478 141.249 129.712 142.271 129.561 143.277C129.427 144.149 129.109 145.205 128.79 146.026C128.64 146.395 128.64 146.797 128.489 147.149C128.338 147.501 128.053 147.836 127.852 148.138C127.6 148.507 127.382 149.026 127.064 149.362C126.695 149.764 126.192 150.066 125.807 150.468C125.237 151.055 124.382 151.273 123.93 151.977C123.46 152.681 123.661 153.737 123.276 154.541C123.091 154.943 122.857 155.262 122.739 155.664C122.639 156.05 122.656 156.452 122.538 156.787C122.337 157.407 122.505 158.48 122.153 159.033C121.75 159.653 120.477 159.285 119.94 159.754C119.622 160.056 119.756 160.609 119.538 160.994C119.303 161.43 118.884 161.749 118.683 162.201C118.398 162.838 118.381 163.71 118.365 164.414C118.331 165.218 118.281 166.056 118.398 166.827C118.515 167.565 118.566 168.319 118.784 169.04C119.002 169.744 119.32 170.247 119.622 170.901C119.84 171.353 119.991 171.806 120.208 172.225C120.41 172.61 120.544 173.046 120.745 173.448C121.181 174.421 121.834 175.762 121.6 176.851C121.449 177.538 120.862 178.091 120.208 178.158C119.37 178.242 118.968 177.89 118.398 177.354C117.912 176.885 117.007 176.901 116.32 177.035C114.677 177.387 115.096 179.164 113.973 179.935C113.101 180.522 111.911 180.27 110.973 180.069" stroke="#053C5E" stroke-width="1.49451" stroke-linecap="round" stroke-linejoin="round"/>
<path d="M110.989 180.086C111.375 180.773 110.771 181.36 110.151 181.494C110.319 181.645 110.537 181.746 110.62 181.98C110.671 182.148 110.687 182.567 110.637 182.751C110.503 183.221 109.749 183.372 109.363 183.204C108.81 182.936 108.994 182.181 108.374 182.064C107.939 181.98 107.369 182.282 107.117 182.651C106.966 182.869 106.916 183.304 106.966 183.589C107 183.807 107.335 184.277 107.184 184.528C107.05 184.763 106.463 184.495 106.212 184.562C105.642 184.712 104.737 185.5 104.502 186.037C104.351 186.372 104.184 186.992 103.614 186.741C103.228 186.556 103.513 185.668 103.363 185.333C103.161 184.863 102.759 184.679 102.256 184.679C101.653 184.679 101.251 185.132 100.764 185.4C100.496 185.551 100.211 185.618 99.9599 185.785C99.7085 185.953 99.4906 186.154 99.2559 186.322C98.8033 186.64 98.2837 186.959 97.9149 187.394C97.5462 187.847 97.5629 188.467 97.2445 188.903C96.574 189.808 95.1492 190.127 94.2106 189.573C93.1546 188.953 93.2216 187.663 94.3112 187.21C94.9816 186.942 95.6186 186.523 96.3393 186.422C96.8254 186.355 97.1104 186.255 97.4456 185.953C97.9317 185.517 98.4848 185.232 98.9207 184.712C99.105 184.478 99.3229 184.327 99.5744 184.176C100.111 183.841 100.446 183.556 100.731 183.003C100.848 182.785 100.982 182.533 101.049 182.282C101.116 182.014 101.066 181.796 101.2 181.578C101.519 181.109 101.971 180.723 101.485 180.17C101.334 179.986 101.15 179.986 100.949 179.885C100.781 179.785 100.647 179.6 100.463 179.516C100.01 179.315 99.457 179.365 98.9709 179.365" stroke="#053C5E" stroke-width="1.49451" stroke-linecap="round" stroke-linejoin="round"/>
<path d="M108.726 164.967C109.162 165.487 108.877 166.643 108.995 167.314C109.078 167.683 109.296 168.018 109.196 168.403C109.162 168.588 108.911 168.772 109.062 169.007C109.246 169.325 109.548 169.107 109.715 169.51C109.866 169.878 109.95 170.314 109.95 170.717C109.95 171.236 110.034 171.706 109.984 172.225C109.933 172.627 109.984 173.348 109.816 173.734C109.732 173.952 109.648 174.304 109.43 174.438C109.313 174.505 109.162 174.488 109.062 174.572C108.944 174.639 108.827 174.806 108.743 174.907C108.458 175.192 108.509 175.645 108.19 175.913C107.872 176.164 107.436 176.181 107.168 176.55C106.95 176.851 107.067 177.27 106.883 177.522C106.665 177.824 106.313 177.84 105.978 177.723" stroke="#053C5E" stroke-width="1.49451" stroke-linecap="round" stroke-linejoin="round"/>
<path d="M122.152 174.839C121.8 174.806 121.834 175.225 122.035 175.393C122.236 175.543 122.605 175.527 122.806 175.393C123.426 174.973 122.454 174.454 122.119 174.806" stroke="#053C5E" stroke-width="1.49451" stroke-linecap="round" stroke-linejoin="round"/>
<path d="M124.331 172.459C124.063 172.527 123.845 172.644 123.895 172.979C123.945 173.231 124.163 173.432 124.415 173.415C124.733 173.415 124.817 173.214 124.783 172.912C124.767 172.543 124.599 172.577 124.348 172.459" stroke="#053C5E" stroke-width="1.49451" stroke-linecap="round" stroke-linejoin="round"/>
<path d="M121.549 171.638C121.248 171.973 121.7 172.493 122.035 172.258C122.438 171.973 121.834 171.604 121.549 171.638Z" stroke="#053C5E" stroke-width="1.49451" stroke-linecap="round" stroke-linejoin="round"/>
<path d="M86.8359 186.153C86.2493 186.153 85.7464 186.153 85.2939 186.522C84.8413 186.908 84.791 187.427 84.7575 188.014C84.724 188.601 84.9251 189.103 85.4279 189.405C85.9978 189.757 86.6013 190.092 87.3556 189.908C88.1098 189.707 88.6797 188.835 88.5624 188.047C88.4954 187.612 88.2272 187.008 87.8416 186.69C87.5232 186.438 87.1209 186.338 86.7354 186.17" stroke="#053C5E" stroke-width="1.49451" stroke-linecap="round" stroke-linejoin="round"/>
<path d="M86.9025 175.913C86.5673 175.594 85.3437 176.013 85.0419 176.214C84.8073 176.382 84.7402 176.7 84.7402 176.985C84.7402 177.421 84.9079 177.455 85.1928 177.706C85.6286 178.075 86.1315 178.594 86.7517 178.427C87.4054 178.242 87.9082 177.605 87.8579 176.918C87.8244 176.315 87.4724 175.913 86.8355 175.896" stroke="#053C5E" stroke-width="1.49451" stroke-linecap="round" stroke-linejoin="round"/>
<path d="M86.3666 173.566C86.2158 173.449 85.6794 173.499 85.5118 173.599C85.3107 173.717 85.3107 173.901 85.2939 174.119C85.2604 174.639 85.3945 174.974 85.9141 174.991C86.2996 174.991 86.7857 174.739 86.8863 174.337C86.9868 174.018 86.6348 173.465 86.2828 173.532" stroke="#053C5E" stroke-width="1.49451" stroke-linecap="round" stroke-linejoin="round"/>
<path d="M100.664 173.532C100.144 173.901 99.3229 174.102 98.7027 173.766C98.3843 173.616 98.4346 173.314 98.2167 173.079C97.9987 172.845 97.7138 172.727 97.5127 172.493C97.1607 172.057 96.9763 171.705 97.0601 171.118C97.1271 170.548 97.5629 170.297 98.049 170.062C98.5519 169.827 99.1721 170.012 99.6917 169.827C100.278 169.626 100.278 169.14 100.178 168.654C99.9264 168.654 99.6917 168.671 99.6079 168.386C99.5408 168.185 99.6582 167.9 99.9096 167.933" stroke="#053C5E" stroke-width="1.49451" stroke-linecap="round" stroke-linejoin="round"/>
<path d="M95.6191 162.034C96.0717 162.403 96.5075 162.688 96.9098 163.124C97.3121 163.576 97.882 163.979 98.2675 164.465C98.6866 164.967 99.005 165.571 99.29 166.107C99.4241 166.375 99.642 166.61 99.7258 166.862C99.8264 167.13 99.7761 167.465 99.8264 167.733C99.8264 167.8 99.8599 167.867 99.8599 167.951" stroke="#053C5E" stroke-width="1.49451" stroke-linecap="round" stroke-linejoin="round"/>
<path d="M108.877 165.286C108.676 165.403 108.442 165.52 108.24 165.671C107.989 166.006 107.57 166.442 107.235 166.761C107 166.995 106.816 167.113 106.715 167.431C106.631 167.666 106.581 167.917 106.464 168.169C106.363 168.403 106.145 168.621 106.061 168.856C105.961 169.074 105.91 169.376 105.843 169.593C105.693 170.113 105.693 170.499 105.776 171.035C105.86 171.538 106.179 171.89 106.212 172.409C106.246 173.113 105.592 173.616 104.989 173.935C103.731 174.588 103.346 172.644 103.43 171.789C103.48 171.219 103.43 170.767 102.977 170.381C102.474 169.945 102.005 170.532 101.938 171.001C101.871 171.387 101.686 172.192 101.904 172.527C102.072 172.778 102.256 172.812 102.34 173.13C102.407 173.348 102.458 173.616 102.323 173.851C101.988 174.404 100.563 174.22 100.58 173.516" stroke="#053C5E" stroke-width="1.49451" stroke-linecap="round" stroke-linejoin="round"/>
<path d="M95.5847 169.057C95.0986 168.99 94.6125 169.526 94.6628 169.979C94.7131 170.582 95.3165 170.549 95.7691 170.448C96.1713 170.364 96.8586 170.18 96.7748 169.627C96.7077 169.157 95.9702 169.074 95.5679 169.04" stroke="#053C5E" stroke-width="1.49451" stroke-linecap="round" stroke-linejoin="round"/>
<path d="M114.878 115.268C115.096 115.988 115.029 116.474 115.347 117.095C115.783 117.966 116.118 118.033 116.956 118.335C118.214 118.788 119.001 119.676 120.56 119.542" stroke="#053C5E" stroke-width="1.49451" stroke-linecap="round" stroke-linejoin="round"/>
<path d="M121.012 115.821C121.012 115.821 120.962 115.67 120.811 115.687C120.761 115.52 120.761 115.251 120.811 115.067C121.28 114.966 121.767 115.067 122.102 115.402C122.102 115.402 121.901 115.872 121.884 115.905C121.498 115.989 121.18 115.872 120.912 115.587" stroke="#053C5E" stroke-width="1.49451" stroke-linecap="round" stroke-linejoin="round"/>
<path d="M118.816 115.939C117.844 116.995 120.425 118.135 120.006 116.174C119.587 115.939 119.084 115.872 118.598 115.939" stroke="#053C5E" stroke-width="1.49451" stroke-linecap="round" stroke-linejoin="round"/>
<path d="M98.1497 123.699C98.7531 124.386 100.396 124.101 99.5744 123.113C98.8034 122.224 97.2948 123.364 98.3676 123.8" stroke="#053C5E" stroke-width="1.49451" stroke-linecap="round" stroke-linejoin="round"/>
<path d="M94.3113 123.482C94.194 123.683 94.1605 124.035 94.2275 124.337C95.6523 125.125 95.317 122.728 94.2108 123.482" stroke="#053C5E" stroke-width="1.49451" stroke-linecap="round" stroke-linejoin="round"/>
<path d="M93.0036 124.471C92.8027 124.923 93.0371 125.09 93.5226 125.006C93.5561 124.872 93.5226 124.739 93.5226 124.605C93.3552 124.588 93.171 124.605 93.0036 124.605" stroke="#053C5E" stroke-width="1.49451" stroke-linecap="round" stroke-linejoin="round"/>
<path d="M107.871 122.61C107.117 122.526 107.184 123.213 107.754 123.381C108.374 123.548 108.206 122.794 107.653 122.727" stroke="#053C5E" stroke-width="1.49451" stroke-linecap="round" stroke-linejoin="round"/>
<path d="M112.699 123.381C112.163 123.867 112.883 124.605 113.47 124.269C114.224 123.817 113.068 123.297 112.599 123.381" stroke="#053C5E" stroke-width="1.49451" stroke-linecap="round" stroke-linejoin="round"/>
<path d="M102.071 118.989C101.585 118.872 101.233 118.989 101.317 119.526C101.535 119.66 101.786 119.676 102.038 119.626C102.189 119.408 102.138 119.308 102.055 119.107" stroke="#053C5E" stroke-width="1.49451" stroke-linecap="round" stroke-linejoin="round"/>
<path d="M114.777 119.978C114.677 120.012 114.559 119.978 114.459 119.978C114.408 120.146 114.408 120.431 114.459 120.598C114.626 120.649 114.911 120.649 115.079 120.598C115.112 120.431 115.112 120.229 115.079 120.079C114.911 120.062 114.71 120.045 114.542 120.079" stroke="#053C5E" stroke-width="1.49451" stroke-linecap="round" stroke-linejoin="round"/>
<path d="M98.9539 179.332C98.4008 179.332 97.5124 179.5 96.976 179.332C96.3558 179.131 95.9368 178.36 96.5234 177.874C97.3951 177.137 99.3562 178.612 100.278 178.763C101.116 178.88 101.569 178.964 101.954 178.176C102.29 177.489 102.239 176.634 103.077 177.237C103.848 177.79 103.429 178.075 104.385 177.74C104.686 177.623 104.686 177.438 105.139 177.455C105.474 177.455 105.675 177.707 106.044 177.707" stroke="#053C5E" stroke-width="1.49451" stroke-linecap="round" stroke-linejoin="round"/>
<path d="M112.648 185.098C112.162 184.763 112.162 184.327 111.207 184.595C110.586 184.763 110 185.517 110.335 186.254C110.989 187.713 113.687 186.523 112.648 185.098Z" stroke="#053C5E" stroke-width="1.49451" stroke-linecap="round" stroke-linejoin="round"/>
<path d="M75.1522 133.706C74.3812 133.823 73.476 133.304 72.638 133.354C72.3027 133.371 72.0681 133.455 71.7831 133.505C71.3138 133.589 71.297 133.605 71.0456 133.957C70.4757 134.762 71.1629 136.623 68.9168 136.371C67.9949 136.254 67.006 139.522 65.8494 139.087C64.9778 138.751 65.6818 137.461 65.95 137.159C66.2517 136.824 66.3355 136.187 66.3188 135.751C66.2852 135.03 65.7321 134.712 65.1119 134.36C63.9553 133.672 62.6815 133.924 61.4914 134.309C60.8041 134.527 61.0388 134.829 60.3516 134.745" stroke="#053C5E" stroke-width="1.49451" stroke-linecap="round" stroke-linejoin="round"/>
<path d="M131.757 128.728C131.757 128.728 132.327 127.035 130.266 123.599" stroke="#053C5E" stroke-width="1.49451" stroke-linecap="round" stroke-linejoin="round"/>
<path d="M129.779 129.734C129.779 129.734 129.109 127.253 128.958 125.51" stroke="#053C5E" stroke-width="1.49451" stroke-linecap="round" stroke-linejoin="round"/>
<path d="M97.8475 104.625C97.8475 104.625 96.6741 106.787 98.4006 110.005" stroke="#053C5E" stroke-width="1.49451" stroke-linecap="round" stroke-linejoin="round"/>
<path d="M101.552 104.675C101.552 104.675 101.62 106.284 100.865 109.066" stroke="#053C5E" stroke-width="1.49451" stroke-linecap="round" stroke-linejoin="round"/>
</g>
<defs>
<clipPath id="clip0_107_479">
<rect width="255.198" height="193.113" fill="white" transform="translate(0.176758 0.818848)"/>
</clipPath>
</defs>
</svg>
