<svg width="274" height="223" viewBox="0 0 274 223" fill="none" xmlns="http://www.w3.org/2000/svg">
<g clip-path="url(#clip0_107_185)">
<path d="M1.65442 30.3691C1.16182 34.3296 7.7035 41.1472 7.7035 41.1472" stroke="#053C5E" stroke-width="1.52817" stroke-linecap="round" stroke-linejoin="round"/>
<path d="M7.7627 42.3098L9.96953 45.7777C9.96953 45.7777 11.7626 54.5459 13.9694 57.6C13.9694 57.6 15.7625 59.4325 16.7674 65.9544L19.5653 73.304C19.5653 73.304 21.5554 88.3971 23.9593 90.4463L40.3332 127.155C42.9341 131.312 41.3381 136.652 41.3381 136.652L37.7126 150.78C31.6438 164.158 28.7276 180.887 28.7276 180.887L21.1022 201.813L16.4915 215.31C16.4915 215.31 15.2896 218.305 14.0876 221.319" stroke="#053C5E" stroke-width="1.52817" stroke-linecap="round" stroke-linejoin="round"/>
<path d="M55.8783 70.901C51.9967 72.2802 46.5387 71.8862 41.1004 63.9258C41.1004 63.9258 39.5044 58.0146 31.9184 48.0248C31.9184 48.0248 31.7214 40.4782 21.3178 31.0992C21.3178 31.0992 3.28874 19.0404 1.65332 30.3898" stroke="#053C5E" stroke-width="1.52817" stroke-linecap="round" stroke-linejoin="round"/>
<path d="M93.8086 36.0639L104.606 27.0199C106.281 26.2711 107.188 24.7933 107.188 24.7933C115.581 17.3453 120.763 13.3651 120.763 13.3651C123.758 11.2174 124.763 9.99572 124.763 9.99572C147.817 -3.65905 148.625 10.6065 148.625 10.6065L157.61 3.15848C167.383 -0.604955 170.063 3.78901 171.777 7.13866C172.782 9.06964 170.969 12.1434 170.969 12.1434L168.979 14.1729L166.792 16.1039C178.87 15.2961 176.762 26.8228 176.762 26.8228C171.974 36.1033 167.875 39.6697 167.875 39.6697L161.688 49.364C174.358 44.6745 172.663 56.7136 172.663 56.7136C170.457 65.068 166.87 68.3388 166.87 68.3388C164.959 72.319 158.102 81.6784 157.511 82.2695" stroke="#053C5E" stroke-width="1.52817" stroke-linecap="round" stroke-linejoin="round"/>
<path d="M148.605 10.5864C148.605 10.5864 146.931 12.6159 144.27 14.7242C144.27 14.7242 137.847 20.793 127.286 32.6942C127.286 32.6942 121.375 39.4329 115.956 46.7233" stroke="#053C5E" stroke-width="1.52817" stroke-linecap="round" stroke-linejoin="round"/>
<path d="M132.115 57.8364C135.307 53.3439 139.189 48.6741 139.189 48.6741C144.529 41.8565 146.716 39.7679 146.716 39.7679L154.479 30.2313C160.055 22.5467 166.794 16.1233 166.794 16.1233" stroke="#053C5E" stroke-width="1.52817" stroke-linecap="round" stroke-linejoin="round"/>
<path d="M145.178 71.5504C152.547 62.9792 161.69 49.3245 161.69 49.3245" stroke="#053C5E" stroke-width="1.52817" stroke-linecap="round" stroke-linejoin="round"/>
<path d="M100.153 183.371C97.591 192.769 94.9113 199.547 94.9113 199.547L89.7095 219.842C89.7095 219.98 89.6898 220.138 89.6504 220.296" stroke="#053C5E" stroke-width="1.52817" stroke-linecap="round" stroke-linejoin="round"/>
<path d="M112.056 155.627C110.164 157.164 108.864 158.13 108.864 158.13C108.017 158.76 107.288 159.489 106.677 160.238" stroke="#053C5E" stroke-width="1.52817" stroke-linecap="round" stroke-linejoin="round"/>
<path d="M138.932 65.738C146.636 72.5753 149.651 76.3584 149.651 76.3584L176.467 96.3972L178.162 97.875C205.156 128.16 212.072 141.145 212.072 141.145C242.357 170.563 251.874 192 251.874 192C253.037 194.286 270.534 217.32 271.578 219.152" stroke="#053C5E" stroke-width="1.52817" stroke-linecap="round" stroke-linejoin="round"/>
<path d="M196.111 220.768C192.387 215.093 189.549 210.64 189.175 210.285C179.52 200.965 172.013 200.217 172.013 200.217C164.998 204.118 151.363 200.138 151.363 200.138L138.201 197.537C126.044 193.399 115.719 190.581 115.719 190.581C107.384 185.951 97.9067 182.601 97.9067 182.601L88.0942 178.956L69.277 173.873L55.0311 169.833C48.6077 166.641 50.6569 160.316 53.8686 157.242C56.4498 154.799 59.2477 153.341 59.2477 153.341C73.7892 149.361 85.0007 153.834 86.045 154.366C87.3257 155.016 89.1779 155.055 89.1779 155.055C99.9362 157.774 106.34 160.139 106.34 160.139L115.088 161.833C114.379 160.494 115.029 159.095 115.029 159.095C108.192 151.686 102.892 141.736 102.892 141.736C94.6359 129.125 87.8775 121.007 87.8775 121.007" stroke="#053C5E" stroke-width="1.52817" stroke-linecap="round" stroke-linejoin="round"/>
<path d="M87.8973 120.988L83.9369 116.515L72.4101 97.3433C62.4991 84.7919 59.2479 75.7478 59.2479 75.7478C51.4058 64.9895 50.5979 58.4084 50.5979 58.4084C48.6473 46.9605 56.0756 44.734 56.0756 44.734C59.1297 43.9655 60.706 45.1675 60.706 45.1675L68.5087 54.645C71.1294 57.5021 73.3953 62.8221 73.3953 62.8221C78.2227 70.1716 81.5921 73.5804 81.5921 73.5804C87.5427 78.9202 92.6263 85.8756 92.6263 85.8756C98.2419 90.6834 105.946 101.304 105.946 101.304C107.384 102.762 112.035 107.865 112.035 107.865" stroke="#053C5E" stroke-width="1.52817" stroke-linecap="round" stroke-linejoin="round"/>
<path d="M58.0086 44.4181L56.4323 40.4577C54.8166 35.4923 56.2746 31.8077 56.2746 31.8077L57.2007 30.2314C61.2597 25.3842 64.8655 26.6453 64.8655 26.6453C68.294 27.4531 71.5451 31.5515 71.5451 31.5515L74.8751 35.9061C77.8898 39.6104 79.9981 43.6497 79.9981 43.6497L82.9931 47.4131C91.3672 54.9991 99.899 63.6097 99.899 63.6097L103.465 67.5308C109.534 72.4173 114.421 78.5649 114.421 78.5649C121.396 87.1164 128.115 90.801 128.115 90.801L129.888 92.2394" stroke="#053C5E" stroke-width="1.52817" stroke-linecap="round" stroke-linejoin="round"/>
<path d="M75.8584 37.0499C76.5283 30.2915 83.8779 29.7595 83.8779 29.7595C88.863 30.1142 94.9909 37.3455 94.9909 37.3455C99.306 40.7543 101.395 43.3749 101.395 43.3749C104.665 47.4339 111.148 52.0249 111.148 52.0249C118.537 58.5863 124.783 65.6402 124.783 65.6402L126.793 67.8274C132.349 72.4381 134.871 75.768 134.871 75.768C143.482 86.3096 149.098 88.9893 149.098 88.9893" stroke="#053C5E" stroke-width="1.52817" stroke-linecap="round" stroke-linejoin="round"/>
<path d="M138.931 65.7378L136.093 63.0975C132.074 57.206 128.369 53.9943 128.369 53.9943L125.158 50.7234L122.261 48.3196L121.769 47.9846C118.695 45.3246 116.094 46.6447 116.094 46.6447C111.976 48.4969 112.39 53.147 112.39 53.147" stroke="#053C5E" stroke-width="1.52817" stroke-linecap="round" stroke-linejoin="round"/>
<path d="M111.483 52.2603C112.429 51.1963 111.444 52.2209 112.685 50.8022" stroke="#053C5E" stroke-width="1.52817" stroke-linecap="round" stroke-linejoin="round"/>
<path d="M60.7073 45.1871L64.9042 52.182C65.6135 53.6401 64.4313 55.2952 64.4313 55.2952C62.3821 57.1474 60.2738 57.305 60.2738 57.305C57.0029 57.5809 55.3084 55.6893 55.3084 55.6893C52.7863 51.0392 53.3183 48.4383 53.3183 48.4383C54.4217 45.6994 56.4512 44.7537 56.4512 44.7537" stroke="#053C5E" stroke-width="1.52817" stroke-linecap="round" stroke-linejoin="round"/>
<path d="M67.6818 29.2262L71.5438 34.8024C72.5487 39.6693 65.3371 40.3392 65.3371 40.3392C62.7953 40.615 61.2584 38.4673 61.2584 38.4673L58.953 34.7236C58.1057 28.5563 63.2878 27.3544 63.2878 27.3544C65.8296 27.3149 67.7015 29.2459 67.7015 29.2459L67.6818 29.2262Z" stroke="#053C5E" stroke-width="1.52817" stroke-linecap="round" stroke-linejoin="round"/>
<path d="M87.1097 32.34L91.0505 36.5566C91.7401 41.3446 87.0506 42.7239 87.0506 42.7239C84.1147 43.9061 81.9473 42.586 81.9473 42.586C79.6616 40.9505 78.9326 38.4482 78.9326 38.4482C78.8341 32.3991 82.5384 31.276 82.5384 31.276C85.7501 30.7242 87.1097 32.34 87.1097 32.34Z" stroke="#053C5E" stroke-width="1.52817" stroke-linecap="round" stroke-linejoin="round"/>
<path d="M1.65332 30.3701C1.65332 30.3701 5.35765 29.976 7.76152 41.286V42.3106" stroke="#053C5E" stroke-width="1.52817" stroke-linecap="round" stroke-linejoin="round"/>
<path d="M118.144 47.5706C118.952 47.3144 119.484 47.5312 119.484 47.5312L120.627 48.3982L124.233 51.6493C125.277 53.5015 124.311 54.8807 124.311 54.8807C122.361 56.5556 120.331 55.7477 120.331 55.7477C117.139 54.9398 115.898 52.6936 115.898 52.6936C114.991 50.4868 116.489 48.8514 116.489 48.8514C117.1 48.1814 117.651 47.7282 118.144 47.5706Z" stroke="#053C5E" stroke-width="1.52817" stroke-linecap="round" stroke-linejoin="round"/>
<path d="M64.1945 158.504L66.8348 159.095C70.6179 161.124 70.5785 165.203 70.5785 165.203L70.1647 169.144C69.3766 172.75 65.3176 171.587 65.3176 171.587L57.9681 170.011L55.0322 169.242C51.1308 165.026 54.047 161.597 54.047 161.597C56.9238 158.563 59.17 158.326 59.17 158.326L61.5345 158.228L64.1748 158.484L64.1945 158.504Z" stroke="#053C5E" stroke-width="1.52817" stroke-linecap="round" stroke-linejoin="round"/>
<path d="M87.7206 85.7969C87.7206 85.7969 82.637 93.5011 78.4795 92.8903" stroke="#053C5E" stroke-width="1.52817" stroke-linecap="round" stroke-linejoin="round"/>
<path d="M82.8549 80.1611C82.8549 80.1611 77.456 82.0724 76.9043 84.3581" stroke="#053C5E" stroke-width="1.52817" stroke-linecap="round" stroke-linejoin="round"/>
<path d="M78.2232 83.3733C78.2232 83.3733 75.0903 86.5259 74.5977 90.3485" stroke="#053C5E" stroke-width="1.52817" stroke-linecap="round" stroke-linejoin="round"/>
<path d="M94.2227 77.5802C94.2227 77.5802 97.1979 78.5654 103.818 71.6887" stroke="#053C5E" stroke-width="1.52817" stroke-linecap="round" stroke-linejoin="round"/>
<path d="M88.7666 73.5607C88.7666 73.5607 89.2986 72.142 90.3626 69.5805C91.7419 66.2703 95.9979 65.9353 95.9979 65.9353" stroke="#053C5E" stroke-width="1.52817" stroke-linecap="round" stroke-linejoin="round"/>
<path d="M94.1836 73.1074C94.1836 73.1074 96.7648 71.4522 98.3017 69.7971" stroke="#053C5E" stroke-width="1.52817" stroke-linecap="round" stroke-linejoin="round"/>
<path d="M111.817 69.6587C111.817 69.6587 114.083 65.6982 119.088 63.4126" stroke="#053C5E" stroke-width="1.52817" stroke-linecap="round" stroke-linejoin="round"/>
<path d="M116.527 72.4569C116.527 72.4569 121.512 70.6047 122.971 67.7673" stroke="#053C5E" stroke-width="1.52817" stroke-linecap="round" stroke-linejoin="round"/>
<path d="M149.354 76.1018C149.354 76.1018 148.723 78.3283 143.167 77.3629" stroke="#053C5E" stroke-width="1.52817" stroke-linecap="round" stroke-linejoin="round"/>
<path d="M146.714 74.1516C146.714 74.1516 143.522 73.2453 143.068 75.0777" stroke="#053C5E" stroke-width="1.52817" stroke-linecap="round" stroke-linejoin="round"/>
<path d="M86.8535 176.868C86.8535 176.868 90.7943 174.602 87.3855 162.622" stroke="#053C5E" stroke-width="1.52817" stroke-linecap="round" stroke-linejoin="round"/>
<path d="M82.3027 175.922C82.3027 175.922 83.0515 176.573 84.1155 164.001" stroke="#053C5E" stroke-width="1.52817" stroke-linecap="round" stroke-linejoin="round"/>
<path d="M137.453 128.948C151.305 113.678 170.181 108.239 179.915 116.83C189.767 125.539 186.496 145.342 172.604 161.065C158.713 176.789 139.463 182.484 129.611 173.774C124.113 168.908 122.695 160.593 124.941 151.45" stroke="#053C5E" stroke-width="7.03428" stroke-linecap="round" stroke-linejoin="round"/>
<path d="M154.714 129.795L130.045 135.174L137.749 111.136L154.714 129.795Z" fill="#053C5E"/>
</g>
<defs>
<clipPath id="clip0_107_185">
<rect width="272.879" height="222.555" fill="white" transform="translate(0.157227 0.222412)"/>
</clipPath>
</defs>
</svg>
