<svg width="221" height="199" viewBox="0 0 221 199" fill="none" xmlns="http://www.w3.org/2000/svg">
<g clip-path="url(#clip0_107_222)">
<path d="M51.3921 197.588L56.253 189.609C59.773 182.569 62.4549 178.58 62.4549 178.58C65.3044 174.457 67.1817 170.166 67.1817 170.166C67.1817 167.165 68.8579 162.589 68.8579 162.589C72.8975 168.707 76.1325 170.199 76.1325 170.199C83.9267 177.038 91.9724 175.144 91.9724 175.144L92.8775 175.563L94.7046 176.518L99.3811 180.189C101.845 182.687 108.265 187.43 108.265 187.43L110.729 190.313L113.712 194.202L114.768 195.878" stroke="#053C5E" stroke-width="1.49451" stroke-linecap="round" stroke-linejoin="round"/>
<path d="M68.874 162.589L62.0352 154.778C56.705 147.889 52.3302 145.09 52.3302 145.09L50.7713 143.564L49.2292 142.223C47.838 141.369 44.7873 139.357 44.7873 139.357L39.675 135.737L34.2777 131.345C30.2549 129.149 31.6126 125.043 31.6126 125.043C32.4507 122.394 35.5516 121.355 35.5516 121.355C40.3622 119.712 45.5081 121.573 45.5081 121.573C51.7938 123.4 54.7774 126.836 54.7774 126.836C61.9682 130.641 65.5049 134.329 65.5049 134.329C66.7118 134.513 67.1141 134.882 67.1141 134.882C66.5274 132.015 64.4154 121.539 64.4154 121.539C63.3259 118.371 61.4989 115.723 61.4989 115.723C58.2471 111.063 56.353 107.594 56.353 107.594C51.5088 101.123 48.8102 95.6759 48.8102 95.6759C44.9047 91.4017 42.8765 84.7472 42.8765 84.7472C42.3736 81.5122 43.2788 80.4562 43.2788 80.4562C46.0445 75.9473 50.0673 79.2326 50.0673 79.2326C53.537 82.3335 56.9899 89.474 56.9899 89.474C59.0349 92.1392 61.3312 95.6256 61.3312 95.6256C63.0074 98.0896 63.0074 99.7658 63.0074 99.7658C63.9461 107.895 68.1533 116.243 68.1533 116.243C68.1533 119.662 69.4775 121.64 69.4775 121.64C69.3266 124.322 70.0641 124.992 70.0641 124.992C69.8127 126.97 70.0641 128.613 70.0641 128.613C69.0752 130.658 69.7457 132.904 69.7457 132.904C69.0081 133.843 69.0584 135.887 69.0584 135.887C68.4382 135.619 67.7845 135.77 67.7845 135.77C67.751 135.217 67.1308 134.882 67.1308 134.882" stroke="#053C5E" stroke-width="1.49451" stroke-linecap="round" stroke-linejoin="round"/>
<path d="M61.3316 95.2238L60.4265 91.7206C59.7728 87.7313 58.9682 85.5187 58.9682 85.5187L58.7838 84.6806C57.8787 77.4395 60.0242 75.1767 60.0242 75.1767C63.4771 70.5336 67.0306 74.5062 67.0306 74.5062C69.7628 77.1043 71.2713 83.8928 71.2713 83.8928C72.0256 87.1446 73.6012 88.7537 73.6012 88.7537C75.9982 91.9552 77.5067 95.2908 77.5067 95.2908C82.2336 103.504 84.1109 108.784 84.1109 108.784C86.7257 111.818 88.5695 108.633 88.5695 108.633C88.9886 103.404 86.9604 98.5091 86.9604 98.5091C84.8149 89.6924 84.6808 83.3899 84.6808 83.3899C85.5859 78.4117 83.1722 71.8075 83.1722 71.8075C82.1833 66.0247 82.8705 63.7284 82.8705 63.7284C86.2899 54.3753 92.9108 61.8008 92.9108 61.8008C94.6708 64.4659 94.9055 69.4441 94.9055 69.4441C94.939 71.9249 95.7268 74.7744 95.7268 74.7744C96.1794 75.6963 96.4476 76.7858 97.0677 77.7412C98.4087 79.8029 99.3474 82.401 99.934 84.6136C100.621 87.2116 100.789 89.1728 100.789 89.1728C100.789 90.6813 101.024 91.9888 101.057 93.1621C101.191 98.8946 102.767 101.778 102.767 101.778L104.493 105.499C106.102 108.365 107.644 105.599 107.644 105.599C107.561 99.6992 108.198 93.9331 108.198 93.9331C108.063 89.6756 109.823 85.1164 109.823 85.1164C111.818 77.1881 109.924 69.3771 109.924 69.3771L109.488 60.0743L108.633 43.9327C108.55 37.7476 103.655 36.8089 103.655 36.8089C99.0121 35.9541 97.2186 40.5133 97.2186 40.5133C96.8163 44.0668 97.0175 47.2515 97.0175 47.2515L97.1851 51.9448C97.3192 56.0682 97.051 60.4933 97.051 60.4933L96.7493 66.8293C96.414 71.774 96.5481 75.579 96.5481 75.579L96.8498 77.3725" stroke="#053C5E" stroke-width="1.49451" stroke-linecap="round" stroke-linejoin="round"/>
<path d="M109.824 66.9628L110.394 66.4935C113.008 65.7895 114.534 67.1975 114.534 67.1975C117.434 69.3598 117.869 72.8965 117.869 72.8965C118.858 76.031 119.026 79.7521 119.026 79.7521C119.261 83.8084 120.451 87.077 120.451 87.077C121.943 90.9657 121.708 96.3965 121.708 96.3965L120.484 108.147L120.853 112.471L121.607 115.706C122.965 120.601 124.222 116.008 124.222 116.008L125.043 113.745C126.401 108.75 129.301 106.018 129.301 106.018L130.39 103.755C131.849 96.4636 135.184 94.2343 135.184 94.2343C138.034 92.8095 139.425 93.6476 140.313 94.3013C141.034 94.8377 141.52 96.7653 141.571 97.5364C141.822 100.654 141.001 104.459 141.001 104.459C138.989 109.052 137.162 114.717 137.162 114.717L136.525 116.243L136.157 117.751L135.922 119.444C134.631 123.97 134.799 127.255 134.799 127.255L134.765 135.837C134.078 140.597 134.765 143.112 134.765 143.112C135.922 148.09 135.285 151.66 135.285 151.66C137.28 153.906 139.744 155.918 141.202 158.197C144.236 162.941 145.962 167.098 145.962 167.098C150.052 172.981 153.907 180.893 153.907 180.893C156.371 185.586 160.662 190.129 160.662 190.129L166.562 197.034" stroke="#053C5E" stroke-width="1.49451" stroke-linecap="round" stroke-linejoin="round"/>
<path d="M73.9864 89.2567L73.4836 87.4631C72.0253 84.8315 71.8577 81.0769 71.8577 81.0769C70.1983 74.2548 69.6451 67.9692 69.6451 67.9692C67.2985 60.2755 66.9968 55.7833 66.9968 55.7833C66.9968 55.7833 66.8292 54.4759 66.8962 53.1853C66.9632 51.8108 67.2147 50.386 67.4829 49.9167C69.1926 46.9499 71.6566 47.0169 71.6566 47.0169C75.9476 46.6817 77.0203 49.615 77.0203 49.615C78.1434 52.5483 78.7971 56.4706 78.7971 56.4706C79.3837 58.7669 79.9201 63.4938 79.9201 63.4938C81.3449 68.12 83.7586 76.3333 83.7586 76.3333L84.2614 77.2049L84.6637 77.8754" stroke="#053C5E" stroke-width="1.49451" stroke-linecap="round" stroke-linejoin="round"/>
<path d="M119.764 84.9485L121.004 81.4117C122.11 75.763 124.373 69.7623 124.373 69.7623C126.2 64.9516 126.871 59.8896 126.871 59.8896C128.413 52.967 130.039 50.7544 130.039 50.7544C132.436 47.1674 136.391 49.3296 136.391 49.3296C138.839 50.6035 139.224 54.09 139.224 54.09C140.33 59.6381 137.732 67.8011 137.732 67.8011C135.704 82.1995 134.648 84.7473 134.648 84.7473C133.056 91.0833 131.765 95.0726 131.765 95.0726C129.603 102.833 129.402 105.633 129.402 105.633" stroke="#053C5E" stroke-width="1.49451" stroke-linecap="round" stroke-linejoin="round"/>
<path d="M134.798 135.988L140.246 133.658C145.509 129.166 151.627 125.244 151.627 125.244C159.606 117.416 169.546 118.556 169.546 118.556C175.446 119.679 175.831 123.182 175.831 123.182C176.284 125.311 175.312 126.266 175.312 126.266C174.339 127.876 169.931 130.105 169.931 130.105L159.74 136.826C156.924 138.553 154.058 141.57 154.058 141.57C148.543 145.526 146.934 148.476 146.934 148.476C143.347 153.136 139.726 156.371 139.726 156.371" stroke="#053C5E" stroke-width="1.49451" stroke-linecap="round" stroke-linejoin="round"/>
<path d="M100.806 196.884L103.102 193.582L105.985 189.509L108.281 187.414" stroke="#053C5E" stroke-width="1.49451" stroke-linecap="round" stroke-linejoin="round"/>
<path d="M48.1396 79.9706L49.5811 82.3507C50.1175 83.4235 49.7488 84.3454 49.7488 84.3454C48.9777 85.5187 47.2848 86.2227 47.2848 86.2227C46.212 86.5747 45.3907 85.988 45.3907 85.988C43.9324 84.2113 43.748 83.2559 43.748 83.2559C43.4966 82.3172 43.8151 81.8144 43.8151 81.8144C45.7762 78.8978 48.1564 79.9873 48.1564 79.9873L48.1396 79.9706Z" stroke="#053C5E" stroke-width="1.49451" stroke-linecap="round" stroke-linejoin="round"/>
<path d="M33.5744 130.926L34.4796 131.345L39.2064 134.228L39.6254 134.379L39.9271 134.295C39.9271 134.295 40.0445 130.088 41.5698 127.574C41.5698 127.574 41.9386 125.646 40.3127 124.255C40.3127 124.255 39.2064 123.266 36.8933 122.73L36.558 122.663C34.7477 122.328 33.4403 123.249 33.4403 123.249C32.6022 123.618 31.6636 124.842 31.6636 124.842" stroke="#053C5E" stroke-width="1.49451" stroke-linecap="round" stroke-linejoin="round"/>
<path d="M66.7284 74.2884L66.9128 74.5902C67.7844 75.8305 67.8514 77.4564 67.8514 77.4564V77.5235L67.7006 77.557C63.7448 78.3113 61.4819 77.8084 61.4819 77.8084L61.197 77.6576L61.1132 77.4732L61.0294 77.3056C60.845 75.7802 61.2808 74.6572 61.2808 74.6572C61.5657 73.6012 61.9513 73.4336 61.9513 73.4336" stroke="#053C5E" stroke-width="1.49451" stroke-linecap="round" stroke-linejoin="round"/>
<path d="M68.4547 51.2575L68.5888 50.7714C69.9968 49.1623 71.8406 48.7768 71.8406 48.7768C74.0029 48.2069 74.8913 48.9947 74.8913 48.9947C75.3606 49.3467 75.5785 49.6987 75.5785 49.6987C76.0981 52.2297 76.3998 54.6099 76.3998 54.6099C76.2993 55.096 76.0311 55.4145 76.0311 55.4145C74.908 57.275 73.5168 57.4091 73.5168 57.4091C71.2204 57.8952 70.0136 56.7386 70.0136 56.7386C69.1923 55.9341 69.0582 54.7105 69.0582 54.7105L68.438 51.2743L68.4547 51.2575Z" stroke="#053C5E" stroke-width="1.49451" stroke-linecap="round" stroke-linejoin="round"/>
<path d="M106.321 39.4407L106.404 40.0609C106.589 41.3348 106.639 42.4076 106.673 43.1954C106.723 44.3184 106.287 45.1733 106.103 45.3577C103.203 48.2239 101.108 46.8662 99.75 45.6594C99.1969 45.1733 98.5264 44.1005 98.4259 43.1283C98.1912 41.0499 98.4594 39.5916 98.4594 39.5916C99.5321 37.8484 100.756 37.664 100.756 37.664C102.667 37.0773 104.628 37.7478 104.628 37.7478C105.768 38.083 106.337 39.4072 106.337 39.4072L106.321 39.4407Z" stroke="#053C5E" stroke-width="1.49451" stroke-linecap="round" stroke-linejoin="round"/>
<path d="M90.8997 60.1585L91.1008 60.477C92.1401 61.8514 92.0395 63.1924 92.0395 63.1924C91.8551 63.779 91.5199 63.8293 91.5199 63.8293C88.486 64.1981 85.7203 63.9634 85.7203 63.9634C85.0163 63.9131 84.7984 63.5108 84.7984 63.5108C84.0441 60.7451 85.4186 59.8735 85.4186 59.8735" stroke="#053C5E" stroke-width="1.49451" stroke-linecap="round" stroke-linejoin="round"/>
<path d="M110.359 71.5391L110.711 71.8911C113.829 72.8633 115.941 71.7067 115.941 71.7067C116.176 71.3212 116.142 71.0697 116.142 71.0697C115.991 69.9132 115.472 68.8404 115.472 68.8404C115.153 67.9353 114.6 67.2983 114.6 67.2983" stroke="#053C5E" stroke-width="1.49451" stroke-linecap="round" stroke-linejoin="round"/>
<path d="M134.631 49.4133L135.017 49.4971C136.508 49.9161 137.028 50.8883 137.028 50.8883C137.38 51.8605 137.33 53.1009 137.33 53.1009C137.43 55.414 137.028 56.3024 137.028 56.3024C136.374 58.0959 134.631 58.297 134.631 58.297C133.508 58.5652 132.352 58.1965 132.352 58.1965C131.161 57.8948 130.759 57.0231 130.759 57.0231C129.871 55.7828 130.122 53.6708 130.122 53.6708C130.374 51.0895 131.664 49.9664 131.664 49.9664C133.106 49.0613 134.648 49.4468 134.648 49.4468L134.631 49.4133Z" stroke="#053C5E" stroke-width="1.49451" stroke-linecap="round" stroke-linejoin="round"/>
<path d="M140.883 95.1898L140.966 95.9609C140.866 97.6371 140.43 98.3243 140.43 98.3243C140.128 98.978 139.76 99.2127 139.76 99.2127C137.933 99.2127 136.122 97.57 136.122 97.57C135.586 97.2013 135.536 96.4637 135.536 96.4637C135.821 95.4916 136.223 95.0558 136.223 95.0558C137.027 93.9495 137.815 93.4634 137.815 93.4634" stroke="#053C5E" stroke-width="1.49451" stroke-linecap="round" stroke-linejoin="round"/>
<path d="M168.825 130.775L167.97 130.742C164.953 130.189 164.5 126.065 164.5 126.065C164.349 124.791 165.204 123.702 165.204 123.702C168.439 121.841 169.814 121.674 169.814 121.674C171.859 121.339 173.082 122.495 173.082 122.495C175.362 124.037 175.328 126.267 175.328 126.267" stroke="#053C5E" stroke-width="1.49451" stroke-linecap="round" stroke-linejoin="round"/>
<path d="M49.5479 138.133C49.5479 138.133 49.8663 132.736 51.3749 129.535" stroke="#053C5E" stroke-width="1.49451" stroke-linecap="round" stroke-linejoin="round"/>
<path d="M47.302 136.843C47.302 136.843 46.8997 133.692 49.3134 129.435" stroke="#053C5E" stroke-width="1.49451" stroke-linecap="round" stroke-linejoin="round"/>
<path d="M59.8062 107.678C59.8062 107.678 62.8736 106.739 64.4659 105.348" stroke="#053C5E" stroke-width="1.49451" stroke-linecap="round" stroke-linejoin="round"/>
<path d="M58.6997 105.08C58.6997 105.08 60.51 102.448 63.0913 101.761" stroke="#053C5E" stroke-width="1.49451" stroke-linecap="round" stroke-linejoin="round"/>
<path d="M52.1968 94.0672C52.1968 94.0672 53.8562 92.5251 55.9682 91.8379" stroke="#053C5E" stroke-width="1.49451" stroke-linecap="round" stroke-linejoin="round"/>
<path d="M64.936 82.6355C64.936 82.6355 67.6012 81.9483 68.741 82.4009" stroke="#053C5E" stroke-width="1.49451" stroke-linecap="round" stroke-linejoin="round"/>
<path d="M67.7173 94.5534C67.7173 94.5534 70.2986 94.4696 73.366 92.7432" stroke="#053C5E" stroke-width="1.49451" stroke-linecap="round" stroke-linejoin="round"/>
<path d="M66.8301 91.8375C66.8301 91.8375 69.5958 90.4798 72.5459 90.7815" stroke="#053C5E" stroke-width="1.49451" stroke-linecap="round" stroke-linejoin="round"/>
<path d="M88.6025 86.189C88.6025 86.189 94.2513 86.7925 97.4695 85.6191" stroke="#053C5E" stroke-width="1.49451" stroke-linecap="round" stroke-linejoin="round"/>
<path d="M89.1895 82.7523C89.1895 82.7523 92.9944 81.5119 95.1399 82.1992" stroke="#053C5E" stroke-width="1.49451" stroke-linecap="round" stroke-linejoin="round"/>
<path d="M87.2783 70.1309C87.2783 70.1309 90.5636 69.561 91.6029 70.265" stroke="#053C5E" stroke-width="1.49451" stroke-linecap="round" stroke-linejoin="round"/>
<path d="M77.3223 64.8179C77.3223 64.8179 74.2214 65.1364 73.1821 65.5051" stroke="#053C5E" stroke-width="1.49451" stroke-linecap="round" stroke-linejoin="round"/>
<path d="M99.9673 79.8528C99.9673 79.8528 103.806 80.9255 107.393 79.2158" stroke="#053C5E" stroke-width="1.49451" stroke-linecap="round" stroke-linejoin="round"/>
<path d="M101.393 77.5903C101.393 77.5903 104.544 78.2273 105.852 77.6574" stroke="#053C5E" stroke-width="1.49451" stroke-linecap="round" stroke-linejoin="round"/>
<path d="M99.8335 73.7351C99.8335 73.7351 103.303 72.0925 107.125 73.9866" stroke="#053C5E" stroke-width="1.49451" stroke-linecap="round" stroke-linejoin="round"/>
<path d="M100.202 56.8555C100.202 56.8555 102.615 57.6098 104.409 56.9225" stroke="#053C5E" stroke-width="1.49451" stroke-linecap="round" stroke-linejoin="round"/>
<path d="M76.7188 87.6641C76.7188 87.6641 81.5964 88.4016 83.4905 86.6416" stroke="#053C5E" stroke-width="1.49451" stroke-linecap="round" stroke-linejoin="round"/>
<path d="M76.9536 85.1493C76.9536 85.1493 78.7471 83.9425 82.837 84.0095" stroke="#053C5E" stroke-width="1.49451" stroke-linecap="round" stroke-linejoin="round"/>
<path d="M90.2788 84.412C90.2788 84.412 93.4133 84.2947 94.419 83.9595" stroke="#053C5E" stroke-width="1.49451" stroke-linecap="round" stroke-linejoin="round"/>
<path d="M117.835 93.3965C117.835 93.3965 115.203 93.7988 111.901 91.5024" stroke="#053C5E" stroke-width="1.49451" stroke-linecap="round" stroke-linejoin="round"/>
<path d="M117.785 89.8431C117.785 89.8431 114.869 88.7536 112.958 88.938" stroke="#053C5E" stroke-width="1.49451" stroke-linecap="round" stroke-linejoin="round"/>
<path d="M112.288 78.2271C112.288 78.2271 114.701 78.2271 115.422 78.864" stroke="#053C5E" stroke-width="1.49451" stroke-linecap="round" stroke-linejoin="round"/>
<path d="M122.831 83.8423C122.831 83.8423 125.295 86.5242 129.669 86.4739" stroke="#053C5E" stroke-width="1.49451" stroke-linecap="round" stroke-linejoin="round"/>
<path d="M124.506 81.9985C124.506 81.9985 128.261 82.0656 129.602 83.5406" stroke="#053C5E" stroke-width="1.49451" stroke-linecap="round" stroke-linejoin="round"/>
<path d="M128.714 66.3262C128.714 66.3262 131.966 67.6504 133.357 67.2481" stroke="#053C5E" stroke-width="1.49451" stroke-linecap="round" stroke-linejoin="round"/>
<path d="M133.574 102.901C133.574 102.901 136.088 103.756 136.256 104.158" stroke="#053C5E" stroke-width="1.49451" stroke-linecap="round" stroke-linejoin="round"/>
<path d="M130.507 110.729C130.507 110.729 131.798 113.008 134.262 113.645" stroke="#053C5E" stroke-width="1.49451" stroke-linecap="round" stroke-linejoin="round"/>
<path d="M131.564 108.616C131.564 108.616 133.978 110.108 134.648 111.767" stroke="#053C5E" stroke-width="1.49451" stroke-linecap="round" stroke-linejoin="round"/>
<path d="M154.51 136.927C154.51 136.927 152.649 136.374 152.364 130.524" stroke="#053C5E" stroke-width="1.49451" stroke-linecap="round" stroke-linejoin="round"/>
<path d="M156.623 134.966C156.623 134.966 155.835 132.972 155.147 132.268" stroke="#053C5E" stroke-width="1.49451" stroke-linecap="round" stroke-linejoin="round"/>
<path d="M162.104 99.2636L164.182 95.7269L165.322 93.1121C166.344 90.0782 167.149 87.983 167.149 87.983C169.093 84.5971 169.479 82.5689 169.479 82.5689C170.049 78.7137 171.105 76.5346 171.105 76.5346C169.295 74.5065 166.629 70.5339 166.629 70.5339C165.171 68.556 164.635 67.8353 164.635 67.8353C163.344 66.0082 162.305 63.5945 162.305 63.5945C161.232 62.2368 160.143 60.1416 160.143 60.1416C157.863 57.5771 155.785 54.1409 155.785 54.1409L153.253 51.0567C152.684 49.3135 154.309 48.4586 154.309 48.4586C156.757 47.4529 159.204 49.0118 159.204 49.0118C162.64 50.755 163.88 53.8392 163.88 53.8392C166.277 55.8673 167.669 58.8677 167.669 58.8677L169.211 60.2422" stroke="#053C5E" stroke-width="1.49451" stroke-linecap="round" stroke-linejoin="round"/>
<path d="M171.105 76.5344L171.725 75.3778C170.635 71.6567 170.837 68.3546 170.837 68.3546C170.837 66.008 170.015 64.2145 170.015 64.2145C169.194 61.2476 169.211 59.5044 169.211 59.5044C167.283 55.029 167.166 53.5204 167.166 53.5204C166.797 50.9223 168.138 50.2854 168.138 50.2854C169.412 48.978 171.122 49.5982 171.122 49.5982" stroke="#053C5E" stroke-width="1.49451" stroke-linecap="round" stroke-linejoin="round"/>
<path d="M171.071 50.1347V48.6932L170.284 45.3743C168.976 40.8654 168.641 38.4517 168.641 38.4517C167.35 34.5127 167.568 32.0822 167.568 32.0822C167.417 30.7245 166.998 28.8304 166.998 28.8304C166.78 24.0701 167.3 22.9638 167.3 22.9638C168.071 20.6004 169.63 20.6172 169.63 20.6172C171.708 20.5836 171.926 22.4274 171.926 22.4274C172.479 23.9025 172.748 25.8804 172.748 25.8804C172.915 27.3219 172.949 28.3443 172.949 28.3443C173.384 30.9089 173.837 32.1493 173.837 32.1493C174.625 34.6133 174.91 35.8704 174.91 35.8704C175.496 37.6974 175.848 38.9546 175.848 38.9546" stroke="#053C5E" stroke-width="1.49451" stroke-linecap="round" stroke-linejoin="round"/>
<path d="M171.071 50.1343L171.205 50.369C172.16 51.71 172.663 52.8833 172.663 52.8833L173.619 54.3751C174.775 55.297 175.664 53.9393 175.664 53.9393C175.915 52.0284 175.731 50.9892 175.731 50.9892L175.513 47.5195C174.742 44.3012 174.993 40.3287 174.993 40.3287C175.513 38.7196 177.072 38.0994 177.072 38.0994C178.832 37.3116 179.737 37.7641 179.737 37.7641C179.368 34.9146 179.401 31.579 179.401 31.579V24.757L179.385 21.6728C179.334 17.5159 181.078 16.4264 181.078 16.4264C182.335 15.538 183.944 16.2252 183.944 16.2252C185.05 16.7951 185.184 18.2199 185.184 18.2199C185.402 21.8069 185.184 25.1593 185.184 25.1593C186.056 31.1935 186.089 34.328 186.089 34.328L186.207 35.7695" stroke="#053C5E" stroke-width="1.49451" stroke-linecap="round" stroke-linejoin="round"/>
<path d="M179.754 37.7481L179.787 38.0834C180.827 39.5752 181.061 40.7317 181.061 40.7317C181.38 44.0673 181.614 44.9222 181.614 44.9222L182 47.9393C183.207 51.6269 184.129 47.9393 184.129 47.9393L184.531 45.0898L184.799 43.4807L185.017 39.8601C184.665 36.91 186.375 35.6697 186.375 35.6697C189.006 34.2449 190.867 35.8373 190.867 35.8373C192.091 37.3291 191.99 38.9717 191.99 38.9717C192.007 43.7824 191.755 44.8216 191.755 44.8216C191.169 48.5762 191.47 49.4981 191.47 49.4981L191.588 49.8501L191.789 50.5206C191.889 51.0235 192.174 51.1743 192.174 51.1743H192.627C193.08 51.0905 193.063 50.353 193.063 50.353C193.247 49.1294 193.666 48.2075 193.666 48.2075L194.102 46.5983L194.521 45.4585C195.175 42.6426 196.18 41.3687 196.583 41.1172C196.985 40.8826 198.175 40.6647 198.175 40.6647C201.108 40.5306 202.081 41.838 202.081 41.838C202.567 42.4247 202.801 43.0616 202.801 43.0616C206.958 37.0609 208.266 36.5413 208.266 36.5413C209.556 36.0384 210.311 36.9603 210.311 36.9603C211.467 38.2342 210.814 39.2399 210.814 39.2399C209.372 42.5085 208.5 43.5477 208.5 43.5477C206.74 45.8441 206.087 46.8163 206.087 46.8163C204.36 49.4814 203.991 49.9675 203.991 49.9675C201.98 53.7053 201.259 55.0966 201.259 55.0966C200.27 58.7004 200.321 59.5385 200.321 59.5385" stroke="#053C5E" stroke-width="1.49451" stroke-linecap="round" stroke-linejoin="round"/>
<path d="M191.688 37.328L192.761 33.2549C193.398 30.9586 193.666 28.8131 193.666 28.8131C194.102 23.7342 195.024 22.5274 195.024 22.5274C196.432 20.3986 198.728 22.0245 198.728 22.0245C200.203 23.1979 199.583 25.9803 199.583 25.9803C199.348 28.9304 198.845 30.6904 198.845 30.6904C198.393 34.7803 197.622 39.0545 197.622 39.0545C197.069 40.7475 196.918 40.9486 196.918 40.9486" stroke="#053C5E" stroke-width="1.49451" stroke-linecap="round" stroke-linejoin="round"/>
<path d="M202.768 43.0781L202.114 44.9554C201.729 47.453 201.142 48.576 201.142 48.576C200.187 54.8617 200.136 56.5546 200.136 56.5546C200.052 59.5215 200.572 60.8289 200.572 60.8289C201.377 63.7119 202.081 64.2818 202.081 64.2818C203.623 62.1028 205.5 59.8902 205.5 59.8902C208.014 55.9344 212.188 56.2864 212.188 56.2864C214.367 56.5043 214.635 58.0799 214.635 58.0799C214.92 59.9908 213.831 60.6948 213.831 60.6948L211.3 63.8292C210.076 65.2205 209.724 65.9412 209.724 65.9412C209.121 67.1984 208.333 67.9862 208.333 67.9862C207.478 71.7408 205.651 73.2158 205.651 73.2158L203.841 75.8307C202.449 78.7137 201.041 80.0044 201.041 80.0044C197.823 83.9434 194.068 83.2561 194.068 83.2561C191.437 86.1224 190.783 87.1281 190.783 87.1281L188.369 90.2458L186.526 93.0618L185.017 95.6766L183.961 97.8389L183.073 99.733" stroke="#053C5E" stroke-width="1.49451" stroke-linecap="round" stroke-linejoin="round"/>
<path d="M201.711 79.3003L203.22 81.7475L204.092 83.0549C205.533 85.7703 206.522 86.9101 206.522 86.9101C209.522 90.3463 210.729 91.7208 210.729 91.7208L213.478 94.805L216.143 97.6209L218.741 100.068L220.032 101.409" stroke="#053C5E" stroke-width="1.49451" stroke-linecap="round" stroke-linejoin="round"/>
<path d="M186.811 92.6089L187.783 94.1007C189.694 96.6485 190.481 97.9894 190.481 97.9894L191.118 99.0287C192.543 100.822 193.18 102.063 193.18 102.063" stroke="#053C5E" stroke-width="1.49451" stroke-linecap="round" stroke-linejoin="round"/>
<path d="M170.988 21.4044L171.088 21.572C171.575 23.4493 171.491 24.2036 171.491 24.2036C171.306 24.7065 171.021 24.9076 171.021 24.9076C170.317 25.4608 169.58 25.444 169.58 25.444C168.708 25.3434 168.373 24.8573 168.373 24.8573C168.021 24.4718 167.904 24.0025 167.904 24.0025C167.77 22.9465 168.004 22.3095 168.004 22.3095C168.373 21.1362 169.345 20.9518 169.345 20.9518C170.485 20.8513 170.988 21.4212 170.988 21.4212V21.4044Z" stroke="#053C5E" stroke-width="1.49451" stroke-linecap="round" stroke-linejoin="round"/>
<path d="M155.6 53.9055L156.12 54.3413C156.622 54.4754 156.84 54.3413 156.84 54.3413C157.477 53.7882 157.896 52.4975 157.896 52.4975C158.148 51.7768 157.913 51.1566 157.913 51.1566C157.041 49.6816 155.717 49.2122 155.717 49.2122C154.896 49.0446 154.427 49.1787 154.427 49.1787C152.868 49.5307 153.304 51.1398 153.304 51.1398" stroke="#053C5E" stroke-width="1.49451" stroke-linecap="round" stroke-linejoin="round"/>
<path d="M198.828 23.1982V23.7346C198.828 24.8074 198.694 25.4276 198.694 25.4276C198.258 26.2489 197.437 26.3998 197.437 26.3998C196.297 26.5003 195.727 25.6622 195.727 25.6622C195.358 25.327 195.341 24.5224 195.341 24.5224C195.224 23.215 195.727 22.6954 195.727 22.6954C196.364 22.1087 197.169 22.2596 197.169 22.2596C198.359 22.3099 198.845 23.1982 198.845 23.1982H198.828Z" stroke="#053C5E" stroke-width="1.49451" stroke-linecap="round" stroke-linejoin="round"/>
<path d="M183.81 16.9296L184.095 17.1307C184.296 17.6168 184.363 18.1364 184.363 18.1364C184.531 19.4606 184.263 20.2317 184.263 20.2317C183.76 21.0362 182.972 21.1536 182.972 21.1536C182.034 21.4553 181.313 20.8518 181.313 20.8518C180.609 20.3657 180.458 19.4941 180.458 19.4941C180.374 18.4214 180.693 17.6001 180.693 17.6001C181.212 16.6279 182.184 16.6949 182.184 16.6949C183.425 16.6446 183.81 16.9296 183.81 16.9296Z" stroke="#053C5E" stroke-width="1.49451" stroke-linecap="round" stroke-linejoin="round"/>
<path d="M208.467 37.1608L208.785 36.9932C209.674 36.8758 210.244 37.5798 210.244 37.5798C210.629 37.9654 210.629 38.4347 210.629 38.4347L210.16 39.1554L209.623 39.8594C208.903 40.3958 208.299 40.0103 208.299 40.0103C207.662 39.7253 207.629 39.0214 207.629 39.0214C207.595 38.4179 207.83 37.9989 207.83 37.9989L208.484 37.144L208.467 37.1608Z" stroke="#053C5E" stroke-width="1.49451" stroke-linecap="round" stroke-linejoin="round"/>
<path d="M213.83 60.6947L213.31 61.097L213.075 61.2311L212.824 61.2814H212.69L212.539 61.1808C212.17 60.1248 211.416 59.1191 211.416 59.1191C210.813 58.4486 211.031 58.0128 211.031 58.0128C211.751 57.1412 212.12 56.9903 212.12 56.9903C213.008 56.6719 213.528 56.9065 213.528 56.9065C214.316 57.2585 214.584 58.0128 214.584 58.0128" stroke="#053C5E" stroke-width="1.49451" stroke-linecap="round" stroke-linejoin="round"/>
<path d="M159.773 59.1022C159.773 59.1022 160.477 59.2531 161.684 55.9678" stroke="#053C5E" stroke-width="1.49451" stroke-linecap="round" stroke-linejoin="round"/>
<path d="M159.002 57.7608C159.002 57.7608 159.337 56.9898 160.578 56.269" stroke="#053C5E" stroke-width="1.49451" stroke-linecap="round" stroke-linejoin="round"/>
<path d="M210.377 64.03C210.377 64.03 210.36 62.2533 208.919 61.2476" stroke="#053C5E" stroke-width="1.49451" stroke-linecap="round" stroke-linejoin="round"/>
<path d="M210.008 64.7006C210.008 64.7006 210.377 62.8233 208.047 61.8008" stroke="#053C5E" stroke-width="1.49451" stroke-linecap="round" stroke-linejoin="round"/>
<path d="M169.194 28.9809C169.194 28.9809 170.853 28.7798 171.507 28.5786" stroke="#053C5E" stroke-width="1.49451" stroke-linecap="round" stroke-linejoin="round"/>
<path d="M181.245 24.5894C181.245 24.5894 183.491 25.0587 184.162 24.7234" stroke="#053C5E" stroke-width="1.49451" stroke-linecap="round" stroke-linejoin="round"/>
<path d="M195.275 29.4004C195.275 29.4004 196.867 30.205 197.722 30.0038" stroke="#053C5E" stroke-width="1.49451" stroke-linecap="round" stroke-linejoin="round"/>
<path d="M205.751 42.0386C205.751 42.0386 206.807 43.1784 207.545 43.2622" stroke="#053C5E" stroke-width="1.49451" stroke-linecap="round" stroke-linejoin="round"/>
<path d="M170.25 36.3562C170.25 36.3562 171.842 35.0656 173.032 35.4008" stroke="#053C5E" stroke-width="1.49451" stroke-linecap="round" stroke-linejoin="round"/>
<path d="M170.25 37.2446C170.25 37.2446 171.238 37.8481 173.367 36.2222" stroke="#053C5E" stroke-width="1.49451" stroke-linecap="round" stroke-linejoin="round"/>
<path d="M181.043 36.0213C181.043 36.0213 182.703 37.0438 184.882 35.8872" stroke="#053C5E" stroke-width="1.49451" stroke-linecap="round" stroke-linejoin="round"/>
<path d="M181.899 35.351C181.899 35.351 183.022 35.4851 183.759 35.1499" stroke="#053C5E" stroke-width="1.49451" stroke-linecap="round" stroke-linejoin="round"/>
<path d="M181.043 34.5968C181.043 34.5968 182.77 33.5073 184.48 34.6638" stroke="#053C5E" stroke-width="1.49451" stroke-linecap="round" stroke-linejoin="round"/>
<path d="M193.23 39.1392C193.23 39.1392 194.554 40.2287 195.677 40.0275" stroke="#053C5E" stroke-width="1.49451" stroke-linecap="round" stroke-linejoin="round"/>
<path d="M193.951 37.5796C193.951 37.5796 196.13 37.9148 196.599 38.5182" stroke="#053C5E" stroke-width="1.49451" stroke-linecap="round" stroke-linejoin="round"/>
<path d="M201.577 47.9219C201.577 47.9219 202.633 49.2796 203.17 49.4137" stroke="#053C5E" stroke-width="1.49451" stroke-linecap="round" stroke-linejoin="round"/>
<path d="M202.231 46.7822C202.231 46.7822 203.555 47.7376 203.823 48.4081" stroke="#053C5E" stroke-width="1.49451" stroke-linecap="round" stroke-linejoin="round"/>
<path d="M176.066 40.5126C176.066 40.5126 178.58 39.222 179.77 39.7081" stroke="#053C5E" stroke-width="1.49451" stroke-linecap="round" stroke-linejoin="round"/>
<path d="M176.669 41.3678C176.669 41.3678 178.328 41.636 179.854 40.8984" stroke="#053C5E" stroke-width="1.49451" stroke-linecap="round" stroke-linejoin="round"/>
<path d="M167.718 51.9947C167.718 51.9947 169.177 50.3018 170.031 50.3018" stroke="#053C5E" stroke-width="1.49451" stroke-linecap="round" stroke-linejoin="round"/>
<path d="M168.389 52.1292C168.389 52.1292 169.378 51.4587 169.78 50.9727" stroke="#053C5E" stroke-width="1.49451" stroke-linecap="round" stroke-linejoin="round"/>
<path d="M186.927 36.3561C186.927 36.3561 189.24 35.8868 190.363 36.9595" stroke="#053C5E" stroke-width="1.49451" stroke-linecap="round" stroke-linejoin="round"/>
<path d="M188.135 37.2449C188.135 37.2449 189.459 37.1109 189.526 37.379" stroke="#053C5E" stroke-width="1.49451" stroke-linecap="round" stroke-linejoin="round"/>
<path d="M187.329 37.7812C187.329 37.7812 189.123 38.7367 190.514 38.0494" stroke="#053C5E" stroke-width="1.49451" stroke-linecap="round" stroke-linejoin="round"/>
<path d="M196.868 41.9717C196.868 41.9717 197.857 42.8433 199.717 42.8433" stroke="#053C5E" stroke-width="1.49451" stroke-linecap="round" stroke-linejoin="round"/>
<path d="M197.605 41.1333C197.605 41.1333 200.052 41.2339 200.454 41.8373" stroke="#053C5E" stroke-width="1.49451" stroke-linecap="round" stroke-linejoin="round"/>
<path d="M28.3941 104.073C16.9291 87.2614 7.94475 65.8733 8.95046 37.3447" stroke="#053C5E" stroke-width="5.21292" stroke-linecap="round" stroke-linejoin="round"/>
<path d="M5.1792 2.59766C21.3711 14.6829 36.6746 31.9308 44.8209 59.219" stroke="#053C5E" stroke-width="5.21292" stroke-linecap="round" stroke-linejoin="round"/>
<path d="M18.7062 45.4578L0 45.1896L9.58775 29.1318L18.7062 45.4578Z" fill="#053C5E"/>
<path d="M32.9204 52.9668L50.5203 46.6309L47.1847 65.0353L32.9204 52.9668Z" fill="#053C5E"/>
</g>
<defs>
<clipPath id="clip0_107_222">
<rect width="220.87" height="198.845" fill="white"/>
</clipPath>
</defs>
</svg>
