<svg width="256" height="197" viewBox="0 0 256 197" fill="none" xmlns="http://www.w3.org/2000/svg">
<g clip-path="url(#clip0_107_382)">
<path d="M1.25732 190.832C1.67637 190.078 2.29656 188.922 2.29656 188.922L4.81082 184.53L6.85576 181.329L9.16889 177.926L11.7334 174.439L13.5437 171.372L15.0523 168.673L17.2313 165.17L18.8907 162.455L20.7513 159.27C23.7349 153.571 25.5284 147.805 25.5284 147.805C28.3611 141.234 29.7356 137.781 29.7356 137.781C31.2777 132.149 32.8701 128.06 32.8701 128.06C38.5523 116.946 39.2228 116.226 39.2228 116.226L41.4186 111.465L42.9439 107.61C44.5866 103.956 45.2738 102.028 45.2738 102.028C48.3077 95.1058 48.5926 94.8879 48.5926 94.8879L50.9058 90.9992L52.2299 88.619L53.8726 86.2556L55.7667 83.5067L57.4764 81.0259L58.9514 78.4949L61.0634 74.9246L63.4771 71.522L65.2706 69.4267L67.3323 66.8119L70.031 63.9959L72.4279 61.0794L74.8919 57.4085L76.6016 55.3301L77.9928 53.3522L81.362 48.3572L84.6975 43.6136L87.3124 39.7751C91.3855 32.0312 95.6765 27.2541 95.6765 27.2541C97.8388 24.8571 100.085 25.2762 100.085 25.2762C103.789 25.8461 104.359 28.595 104.359 28.595" stroke="#053C5E" stroke-width="1.49451" stroke-linecap="round" stroke-linejoin="round"/>
<path d="M96.8668 148.711C96.8668 148.711 92.911 146.062 89.8101 142.559C89.8101 142.559 85.4185 139.777 82.7701 137.816C82.7701 137.816 76.4677 134.312 72.9477 129.87C72.9477 129.87 69.1931 127.49 66.3436 124.507C66.3436 124.507 64.9021 120.97 68.4053 117.534C68.4053 117.534 72.2773 114.299 79.401 115.723C79.401 115.723 87.4467 116.411 95.0398 124.507C95.0398 124.507 95.8611 124.708 100.236 128.764L106.589 134.379C106.589 134.379 108.399 135.821 111.315 135.888C111.315 135.888 110.729 134.312 111.433 132.267C111.433 132.267 110.628 130.943 111.248 128.798C111.248 128.798 108.919 125.026 111.466 116.813L113.126 109.89C113.126 109.89 114.014 106.152 117.266 103.554C117.266 103.554 123.216 98.5426 126.803 85.6193L129.318 77.3054L131.53 70.5337L134.631 60.376C134.631 60.376 138.654 52.5147 141.084 41.4352C141.084 41.4352 144.638 36.2558 144.487 24.4722C144.487 24.4722 144.487 21.8741 142.928 20.0136C142.928 20.0136 140.347 16.6612 136.358 17.9854C136.358 17.9854 137.497 15.6723 138.319 12.7222C138.319 12.7222 139.459 9.93975 138.386 6.70472C138.252 6.25216 136.944 2.1958 131.446 2.1958C131.446 2.1958 128.781 2.4137 127.424 5.90016L125.462 9.82242C125.462 9.82242 124.624 7.52605 120.819 7.15729C120.819 7.15729 116.696 6.90587 114.835 10.8617L113.327 13.6441L109.421 20.4829L102.935 30.9423C98.191 37.1609 95.7941 42.8096 95.7941 42.8096C91.7377 47.8047 88.7541 54.6435 88.7541 54.6435C84.5469 61.3985 80.038 64.7844 80.038 64.7844" stroke="#053C5E" stroke-width="1.49451" stroke-linecap="round" stroke-linejoin="round"/>
<path d="M116.628 104.141L119.729 102.85L121.322 102.582C123.752 102.783 126.099 103.923 126.099 103.923C129.904 105.465 132.887 103.554 132.887 103.554C135.67 101.895 136.324 100.135 136.324 100.135C138.402 96.7321 141.285 97.0171 141.285 97.0171C145.911 97.1512 147.286 99.4643 147.286 99.4643C147.286 99.4643 149.398 101.392 150.152 102.129C153.253 105.18 156.505 102.498 156.505 102.498C160.243 99.7157 163.159 103.454 163.159 103.454C165.573 106.286 170.132 107.577 170.132 107.577L174.239 109.203C178.781 110.846 179.921 114.349 179.921 114.349L182.368 118.891C184.229 123.065 185.603 126.82 185.603 126.82L187.715 131.731C189.911 135.837 190.95 140.547 190.95 140.547L191.403 143.632L191.57 148.945C191.973 150.822 193.615 151.878 193.615 151.878C197.018 153.504 199.448 157.561 199.448 157.561L203.119 161.466L207.561 165.573C210.126 167.467 211.685 170.149 211.685 170.149L213.88 173.015L217.015 176.317L220.702 179.887L224.625 183.424L229.536 187.682L233.844 191.436L236.542 193.448C236.542 193.448 238.52 194.738 238.889 194.973" stroke="#053C5E" stroke-width="1.49451" stroke-linecap="round" stroke-linejoin="round"/>
<path d="M56.8223 194.118C69.293 160.746 72.461 156.103 72.461 156.103C72.9806 154.896 73.5505 154.007 74.1037 153.505C74.8244 152.851 75.7631 151.761 76.4 151.175C79.2495 148.526 82.3505 149.465 82.3505 149.465C88.4518 149.867 96.8997 148.895 96.8997 148.895C102.967 156.874 109.823 161.316 109.823 161.316L113.444 164.232L116.327 166.646L121.221 170.417C126.317 173.3 129.367 175.295 129.367 175.295C136.759 181.161 144.369 178.781 144.369 178.781C146.464 178.245 148.124 179.77 148.124 179.77L154.342 184.497L158.064 187.112L163.612 191.118C163.612 191.118 167.651 194.336 169.11 195.493" stroke="#053C5E" stroke-width="1.49451" stroke-linecap="round" stroke-linejoin="round"/>
<path d="M125.462 9.80566L123.753 13.1413L123.116 14.5493L121.825 17.4323C119.763 22.1759 115.02 30.2886 115.02 30.2886L112.64 34.0935C108.533 38.6192 105.533 45.743 105.533 45.743C103.404 50.4363 102.113 53.7048 102.113 53.7048L100.722 56.4202L98.7441 60.0743L96.9171 62.555C94.7213 65.5554 92.0059 67.1143 92.0059 67.1143" stroke="#053C5E" stroke-width="1.49451" stroke-linecap="round" stroke-linejoin="round"/>
<path d="M136.357 17.9854L135.436 18.7564L135.1 19.4604L134.245 21.8573L133.659 23.3994L133.139 24.4219C130.96 27.7575 129.804 32.3502 129.804 32.3502L127.792 37.1106L125.848 41.6362L124.49 44.3014C120.987 48.1231 119.629 52.9002 119.629 52.9002L118.171 56.1017L116.159 60.9961L114.768 64.0132L114.098 65.2033C112.472 69.6787 110.611 72.612 110.611 72.612C111.902 67.5165 113.997 65.6056 113.997 65.6056" stroke="#053C5E" stroke-width="1.49451" stroke-linecap="round" stroke-linejoin="round"/>
<path d="M111.315 135.905C111.315 135.905 112.925 136.357 113.042 139.408" stroke="#053C5E" stroke-width="1.49451" stroke-linecap="round" stroke-linejoin="round"/>
<path d="M100.219 32.7863L101.946 30.2721C102.432 29.6016 102.13 28.9814 102.13 28.9814C100.739 27.0203 99.398 26.6012 99.398 26.6012C98.4091 25.9978 97.5542 26.5845 97.5542 26.5845C96.2803 27.9757 95.4758 29.6854 95.4758 29.6854C94.7382 31.4789 95.6937 32.1997 95.6937 32.1997C97.9733 34.8313 100.219 32.7863 100.219 32.7863Z" stroke="#053C5E" stroke-width="1.49451" stroke-linecap="round" stroke-linejoin="round"/>
<path d="M124.523 11.5489L124.121 10.9455C122.327 8.91734 119.897 8.63239 119.897 8.63239C118.455 8.53182 118.137 9.23582 118.137 9.23582C117.098 10.979 115.422 14.3314 115.422 14.3314C115.019 16.0076 115.975 17.0636 115.975 17.0636C117.165 18.4883 119.126 18.7733 119.126 18.7733C120.551 19.2258 121.657 17.8011 121.657 17.8011" stroke="#053C5E" stroke-width="1.49451" stroke-linecap="round" stroke-linejoin="round"/>
<path d="M127.608 7.92887L129.284 4.47594C130.575 2.29691 132.117 2.66567 132.117 2.66567C137.062 3.41995 136.559 6.60469 136.559 6.60469C135.788 9.8062 133.676 12.9239 133.676 12.9239C132.536 14.7677 128.228 12.6054 128.228 12.6054C125.915 11.1639 127.591 7.92887 127.591 7.92887H127.608Z" stroke="#053C5E" stroke-width="1.49451" stroke-linecap="round" stroke-linejoin="round"/>
<path d="M135.401 18.8906L136.038 18.4213C136.658 17.9687 137.765 18.0357 137.765 18.0357C139.927 18.2704 140.799 19.2258 140.799 19.2258C142.559 20.4997 141.821 22.8128 141.821 22.8128C141.201 25.5618 139.659 26.8357 139.659 26.8357C138.318 28.2437 135.334 27.5229 135.334 27.5229C133.49 27.0703 133.474 25.0757 133.474 25.0757C133.39 24.2208 133.641 23.2822 133.641 23.2822" stroke="#053C5E" stroke-width="1.49451" stroke-linecap="round" stroke-linejoin="round"/>
<path d="M66.3433 124.507L66.4438 123.719C67.8183 118.557 72.2769 118.406 72.2769 118.406C77.6575 118.523 79.9538 122.697 79.9538 122.697C81.1774 125.597 79.5516 127.859 79.5516 127.859C77.6239 132.62 72.9474 129.854 72.9474 129.854" stroke="#053C5E" stroke-width="1.49451" stroke-linecap="round" stroke-linejoin="round"/>
<path d="M81.6299 50.8381C81.6299 50.8381 85.0828 50.5364 86.826 51.8774" stroke="#053C5E" stroke-width="1.49451" stroke-linecap="round" stroke-linejoin="round"/>
<path d="M79.8867 53.7886C79.8867 53.7886 81.345 55.3977 84.9655 55.6994" stroke="#053C5E" stroke-width="1.49451" stroke-linecap="round" stroke-linejoin="round"/>
<path d="M90.5806 39.1724C90.5806 39.1724 92.4579 40.5301 93.6647 40.7144" stroke="#053C5E" stroke-width="1.49451" stroke-linecap="round" stroke-linejoin="round"/>
<path d="M96.1958 46.9492C96.1958 46.9492 97.4026 50.1004 102.113 50.3351" stroke="#053C5E" stroke-width="1.49451" stroke-linecap="round" stroke-linejoin="round"/>
<path d="M99.0288 42.877C99.0288 42.877 102.482 43.2457 103.622 44.9722" stroke="#053C5E" stroke-width="1.49451" stroke-linecap="round" stroke-linejoin="round"/>
<path d="M109.42 44.5527C109.42 44.5527 110.862 47.0167 117.399 47.1341" stroke="#053C5E" stroke-width="1.49451" stroke-linecap="round" stroke-linejoin="round"/>
<path d="M111.835 42.6929C111.835 42.6929 115.758 44.9054 117.702 44.9725" stroke="#053C5E" stroke-width="1.49451" stroke-linecap="round" stroke-linejoin="round"/>
<path d="M112.271 38.7365C112.271 38.7365 116.93 38.3677 119.277 42.1224" stroke="#053C5E" stroke-width="1.49451" stroke-linecap="round" stroke-linejoin="round"/>
<path d="M110.51 24.5396C110.51 24.5396 113.293 26.0816 114.801 26.4504" stroke="#053C5E" stroke-width="1.49451" stroke-linecap="round" stroke-linejoin="round"/>
<path d="M123.249 20.4834C123.249 20.4834 125.361 21.8411 128.328 21.7741" stroke="#053C5E" stroke-width="1.49451" stroke-linecap="round" stroke-linejoin="round"/>
<path d="M130.742 34.5967C130.742 34.5967 133.524 36.5075 135.217 36.3231" stroke="#053C5E" stroke-width="1.49451" stroke-linecap="round" stroke-linejoin="round"/>
<path d="M120.835 56.521C120.835 56.521 124.456 59.3537 127.841 59.052" stroke="#053C5E" stroke-width="1.49451" stroke-linecap="round" stroke-linejoin="round"/>
<path d="M122.948 53.001C122.948 53.001 128.262 53.068 129.05 56.0181" stroke="#053C5E" stroke-width="1.49451" stroke-linecap="round" stroke-linejoin="round"/>
<path d="M88.8706 139.626C88.8706 139.626 91.8207 137.883 92.223 129.753" stroke="#053C5E" stroke-width="1.49451" stroke-linecap="round" stroke-linejoin="round"/>
<path d="M85.9717 137.547C85.9717 137.547 89.2067 132.837 89.4917 130.339" stroke="#053C5E" stroke-width="1.49451" stroke-linecap="round" stroke-linejoin="round"/>
<path d="M150.32 85.1504L152.08 84.0441L153.337 83.0551L155.315 81.8148L158.5 78.63L161.332 75.6464L164.014 72.6628L165.741 70.3497L168.423 67.4834L169.227 66.595C170.3 64.8183 171.674 64.0975 171.674 64.0975C172.663 63.4606 172.395 62.304 172.395 62.304C171.926 59.5383 174.44 55.13 174.44 55.13C175.915 50.2523 177.44 47.8554 177.44 47.8554C178.195 46.2127 180.307 46.0116 180.307 46.0116C182.57 45.207 184.145 43.38 184.145 43.38C185.268 41.268 187.363 42.7933 187.363 42.7933C187.95 43.1118 188.537 42.9777 188.922 42.8436C189.274 42.7263 189.626 42.2737 189.744 42.1061C191.872 39.2398 193.364 39.575 193.364 39.575C194.722 39.6253 195.091 39.7427 196.666 41.6032C197.102 42.1228 199.08 42.7263 200.588 41.9217C202.315 41.0165 203.924 41.5529 203.924 41.5529" stroke="#053C5E" stroke-width="1.49451" stroke-linecap="round" stroke-linejoin="round"/>
<path d="M203.925 41.536L202.936 40.5136C201.209 38.301 200.656 35.8538 200.656 35.8538L199.047 30.9929L197.505 26.8192C196.717 25.1598 196.734 24.372 196.734 24.372C194.504 20.0474 194.437 17.4996 194.437 17.4996C192.459 14.164 192.862 11.0463 192.862 11.0463C192.744 7.44254 195.292 7.49283 195.292 7.49283C196.264 7.40902 196.834 8.1633 196.834 8.1633C197.823 10.6608 198.728 12.2029 198.728 12.2029C199.952 16.1084 202.148 18.9076 202.148 18.9076C203.824 22.8634 205.483 25.4279 205.483 25.4279C207.076 28.2607 207.713 29.8698 207.713 29.8698C206.405 28.5289 206.221 26.7186 206.221 26.7186" stroke="#053C5E" stroke-width="1.49451" stroke-linecap="round" stroke-linejoin="round"/>
<path d="M179.569 85.2336L182.351 82.6858L184.363 80.8922L185.268 80.1547C187.782 78.7132 189.09 77.5902 189.09 77.5902L191.671 75.562C196.096 76.1989 199.918 74.2043 199.918 74.2043L202.499 72.8131L205.097 71.5559L206.723 70.8184C210.109 70.5502 210.98 66.9129 210.98 66.9129C211.299 65.5384 211.634 65.1026 211.634 65.1026C212.673 63.879 212.69 62.4878 212.69 62.4878C215.573 62.9739 217.534 62.9404 217.534 62.9404C218.255 63.0912 219.965 63.1415 221.054 62.823C221.708 62.6387 222.848 63.0577 223.334 63.6611C223.502 63.8455 223.87 64.164 224.155 64.6333C224.641 65.4714 224.591 65.4546 226.167 67.8013L228.295 71.975L230.139 75.5955L231.313 78.3109L232.737 81.4119L233.844 83.8758L234.43 85.2" stroke="#053C5E" stroke-width="1.49451" stroke-linecap="round" stroke-linejoin="round"/>
<path d="M203.924 41.5356L204.829 42.0385C205.952 42.709 206.287 44.6869 206.287 44.6869C207.142 46.3463 207.41 48.4415 207.41 48.4415C208.366 50.4362 208.064 52.8666 208.064 52.8666C208.131 55.4982 207.36 56.99 207.36 56.99C206.505 59.4708 207.963 60.4597 207.963 60.4597C210.243 61.4151 212.724 62.4879 212.724 62.4879" stroke="#053C5E" stroke-width="1.49451" stroke-linecap="round" stroke-linejoin="round"/>
<path d="M196.817 8.12938L196.046 5.90006C194.788 2.84941 196.398 1.70961 196.398 1.70961C198.325 -0.100664 199.783 1.44142 199.783 1.44142C200.99 3.05055 201.745 5.34692 201.745 5.34692C202.398 6.53701 203.136 8.09586 203.136 8.09586C205.918 12.8394 207.511 14.9179 207.511 14.9179L208.382 16.527C209.941 18.991 211.835 22.7289 211.835 22.7289C212.623 24.1034 213.26 24.8074 213.26 24.8074" stroke="#053C5E" stroke-width="1.49451" stroke-linecap="round" stroke-linejoin="round"/>
<path d="M254.259 74.3053C252.315 71.6402 249.097 67.1983 249.097 67.1983C247.186 64.2147 245.929 61.2646 245.392 59.9237C245.208 59.4376 244.822 58.7504 244.605 58.3648C243.632 56.7054 243.197 55.4986 242.979 54.7778C242.761 54.0571 242.442 53.219 242.442 53.219L241.973 52.3138L239.844 48.8441L238.151 45.5756L236.358 41.2008L235.201 38.6697L233.575 36.2895L231.715 33.792C228.714 29.149 225.831 26.266 225.831 26.266L224.122 24.0031C223.267 23.0645 222.546 22.1426 222.546 22.1426C221.104 19.7624 219.78 18.2203 219.78 18.2203C219.21 17.5499 218.607 16.5274 218.607 16.5274C217.601 14.4489 216.529 13.3091 216.529 13.3091C215.02 10.8284 213.713 10.6105 213.713 10.6105C212.774 10.4261 212.238 10.8284 212.238 10.8284C211.5 11.2139 211.366 12.4207 211.366 12.4207C208.952 8.36439 208.014 6.87259 208.014 6.87259C206.287 3.20176 204.913 2.98385 204.913 2.98385C203.773 2.64862 202.851 3.20176 202.851 3.20176C201.594 3.92251 201.594 5.04556 201.594 5.04556" stroke="#053C5E" stroke-width="1.49451" stroke-linecap="round" stroke-linejoin="round"/>
<path d="M211.416 12.4209L212.355 13.8121L212.925 14.5999C214.316 16.2761 215.154 18.1367 215.154 18.1367L215.456 18.6563C217.165 21.0867 217.869 22.5618 217.869 22.5618C218.188 23.2323 219.227 24.2044 219.227 24.2044" stroke="#053C5E" stroke-width="1.49451" stroke-linecap="round" stroke-linejoin="round"/>
<path d="M242.728 127.959C242.124 143.715 233.726 156.186 223.804 155.935C213.746 155.683 205.935 142.458 206.354 126.417C206.774 110.376 215.255 97.5867 225.295 97.8381C230.911 97.989 235.822 102.163 239.006 108.633" stroke="#053C5E" stroke-width="5.38054" stroke-linecap="round" stroke-linejoin="round"/>
<path d="M232.184 135.955L244.018 120.685L251.309 138.553L232.184 135.955Z" fill="#053C5E"/>
</g>
<defs>
<clipPath id="clip0_107_382">
<rect width="255.098" height="196.75" fill="white"/>
</clipPath>
</defs>
</svg>
