<svg width="147" height="229" viewBox="0 0 147 229" fill="none" xmlns="http://www.w3.org/2000/svg">
<g clip-path="url(#clip0_107_149)">
<path d="M64.6782 226.773C70.6091 219.009 76.0473 216.665 76.0473 216.665L80.9339 214.95C98.0763 213.157 103.593 208.527 103.593 208.527C107.83 207.877 111.376 207.463 114.056 206.3C118.529 204.369 125.78 197.217 125.78 197.217C130.292 194.695 133.445 191.779 133.445 191.779C140.479 188.291 140.952 184.39 140.952 184.39C142.843 176.508 141.819 174.715 141.819 174.715C143.947 170.971 144.42 168.705 144.42 168.705C145.838 160.981 143.238 161.06 143.238 161.06C139.533 157.553 133.445 162.361 133.445 162.361C127.435 166.026 124.598 174.4 124.598 174.4C122.943 174.636 120.952 176.035 120.952 176.035C122.371 165.218 121.425 157.257 121.425 157.257C120.558 146.519 119.376 140.746 119.376 140.746C119.376 125.455 115.908 123.189 115.908 123.189C112.756 120.51 110.982 123.189 110.982 123.189L113.13 106.382" stroke="#053C5E" stroke-width="1.52817" stroke-linecap="round" stroke-linejoin="round"/>
<path d="M2.47266 227.502C5.7829 222.536 8.62026 218.28 8.62026 218.28C18.8269 203.266 18.8269 198.655 18.8269 198.655C20.6199 186.616 29.9792 181.414 29.9792 181.414L34.8264 178.38C41.4469 174.36 49.4466 171.326 49.4466 171.326C54.3529 167.484 58.1952 165.572 58.1952 165.572C62.6088 158.735 63.7714 158.105 63.7714 158.105C66.6678 144.824 68.0865 144.45 68.0865 144.45C70.5495 134.795 74.0174 129.337 74.8252 128.726C75.771 127.997 75.0026 128.135 75.8104 127.938" stroke="#053C5E" stroke-width="1.52817" stroke-linecap="round" stroke-linejoin="round"/>
<path d="M101.268 174.104C103.061 168.686 104.953 161.967 104.953 161.967C104.894 154.597 106.056 142.243 106.056 142.243L106.135 135.524" stroke="#053C5E" stroke-width="1.52817" stroke-linecap="round" stroke-linejoin="round"/>
<path d="M93.9582 133.396L93.8991 134.263C93.4854 137.731 92.9533 139.09 92.9533 139.09C92.8548 144.45 89.4855 156.213 89.4855 156.213C87.6333 160.705 86.9043 163.74 86.9043 163.74C86.4511 164.784 85.6629 166.873 85.3477 167.897" stroke="#053C5E" stroke-width="1.52817" stroke-linecap="round" stroke-linejoin="round"/>
<path d="M120.952 176.015L119.612 177.217C116.066 178.281 113.465 179.424 113.465 179.424C110.509 181.02 104.401 180.054 104.401 180.054C97.6229 177.828 84.2834 176.902 84.2834 176.902C72.4414 175.345 66.5894 177.138 66.5894 177.138C60.5403 178.576 56.0281 180.409 56.0281 180.409C53.2892 181.374 48.0283 181.374 48.0283 181.374" stroke="#053C5E" stroke-width="1.52817" stroke-linecap="round" stroke-linejoin="round"/>
<path d="M140.321 3.68548C139.356 29.3596 138.154 61.8119 138.154 61.8119C138.154 66.9152 136.046 68.3141 136.046 68.3141L112.224 79.2301C107.77 81.9098 100.047 80.6291 100.047 80.6291L46.3929 74.0874C42.4719 73.7524 42.4325 71.1318 42.4325 71.1318C42.4325 71.1318 41.7034 32.5319 41.1123 1.04517" stroke="#053C5E" stroke-width="1.52817" stroke-linecap="round" stroke-linejoin="round"/>
<path d="M138.39 91.2887C138.39 91.2887 141.7 89.5548 141.956 84.885C141.956 84.885 143.808 37.2016 145.069 4.04004" stroke="#053C5E" stroke-width="1.52817" stroke-linecap="round" stroke-linejoin="round"/>
<path d="M45.1519 95.6825L43.9499 77.3579C43.7332 74.5993 45.6839 73.9885 45.6839 73.9885" stroke="#053C5E" stroke-width="1.52817" stroke-linecap="round" stroke-linejoin="round"/>
<path d="M138.39 91.2883L114.391 104.963C110.115 107.741 102.372 106.48 102.372 106.48L48.1665 98.5788C45.1124 98.0665 45.1715 95.6823 45.1715 95.6823" stroke="#053C5E" stroke-width="1.52817" stroke-linecap="round" stroke-linejoin="round"/>
<path d="M75.2983 117.613C75.6727 118.914 76.0865 119.406 76.1456 120.904C76.185 122.52 76.3032 123.899 76.3821 125.554C76.52 128.766 77.1899 132.115 77.1899 135.386C77.1899 138.657 77.2096 141.869 77.2293 145.12C77.2293 147.189 77.2687 149.238 77.1899 151.307C76.9929 156.134 77.3475 161.021 77.0914 165.848C76.9338 168.824 76.7958 172.272 76.7958 175.286" stroke="#053C5E" stroke-width="1.52817" stroke-linecap="round" stroke-linejoin="round"/>
<path d="M84.9932 118.539C84.7567 118.973 84.6976 119.702 84.5597 120.312C84.402 120.943 84.205 121.376 84.0277 121.987C83.6927 123.288 83.4169 124.825 83.2395 126.164C83.0228 127.701 82.412 128.746 82.3725 130.381C82.274 134.302 82.0573 131.406 81.8997 134.736C81.742 137.849 81.7026 138.322 81.6041 140.371C81.5253 141.868 81.545 143.504 81.4465 145.021C81.3282 146.617 81.2494 148.075 81.0918 149.632C80.9342 151.05 80.9539 152.784 80.8356 154.302C80.5992 157.297 80.2248 160.055 80.2248 163.208C80.2248 164.863 80.1657 166.419 80.0081 167.996C79.8505 169.651 80.2642 174.498 80.1263 176.153" stroke="#053C5E" stroke-width="1.52817" stroke-linecap="round" stroke-linejoin="round"/>
<path d="M142.39 173.631C142.39 173.631 141.779 173.73 140.774 171.877C140.774 171.877 140.045 170.912 139.592 168.725C139.592 168.725 139.001 166.183 139.868 164.232C139.868 164.232 140.282 162.262 142.272 161.395C142.942 161.099 143.218 161.06 143.218 161.06" stroke="#053C5E" stroke-width="1.52817" stroke-linecap="round" stroke-linejoin="round"/>
<path d="M85.6432 118.381L86.8057 118.283L85.4265 127.721C84.9142 130.972 87.8106 131.524 87.8106 131.524L104.815 134.775C108.874 135.8 109.189 132.667 109.189 132.667L110.49 122.697" stroke="#053C5E" stroke-width="1.52817" stroke-linecap="round" stroke-linejoin="round"/>
<path d="M77.1507 161.198C76.0079 164.449 74.2148 167.601 74.2148 167.601" stroke="#053C5E" stroke-width="1.52817" stroke-linecap="round" stroke-linejoin="round"/>
<path d="M45.1313 77.437C45.5057 77.5946 46.0968 77.772 46.9835 77.8705L101.09 84.688C101.09 84.688 108.834 85.9491 113.11 83.1708L136.538 71.053C140.616 69.6737 140.301 62.6197 140.301 62.6197C140.301 62.6197 141.148 29.1034 141.818 2.85791" stroke="#053C5E" stroke-width="1.52817" stroke-linecap="round" stroke-linejoin="round"/>
<path d="M68.6973 101.653L69.0716 110.264C69.0716 116.017 74.3917 116.983 74.3917 116.983C81.1895 118.658 85.6426 118.401 85.6426 118.401" stroke="#053C5E" stroke-width="1.52817" stroke-linecap="round" stroke-linejoin="round"/>
<path d="M110.352 106.895L107.376 131.288C107.002 133.948 104.756 133.14 104.756 133.14L87.5542 130.067" stroke="#053C5E" stroke-width="1.52817" stroke-linecap="round" stroke-linejoin="round"/>
<path d="M111.238 106.263L95.534 115.899C92.6966 117.692 86.8052 118.283 86.8052 118.283" stroke="#053C5E" stroke-width="1.52817" stroke-linecap="round" stroke-linejoin="round"/>
<path d="M97.2096 105.791C96.8156 109.496 98.3525 110.717 98.3525 110.717C99.4362 111.643 100.559 110.441 100.559 110.441C101.111 109.949 101.466 109.042 101.643 108.313C101.761 107.801 101.742 106.481 101.742 106.481" stroke="#053C5E" stroke-width="1.52817" stroke-linecap="round" stroke-linejoin="round"/>
<path d="M108.814 4.00049C108.833 35.8813 108.873 72.7866 108.873 72.7866C108.873 76.3924 108.065 78.284 108.065 78.284" stroke="#053C5E" stroke-width="1.52817" stroke-linecap="round" stroke-linejoin="round"/>
<path d="M124.597 174.38C124.597 174.38 125.72 173.986 128.065 174.341" stroke="#053C5E" stroke-width="1.52817" stroke-linecap="round" stroke-linejoin="round"/>
<path d="M58.2744 165.533C58.2744 165.533 60.5404 164.686 63.1216 164.843" stroke="#053C5E" stroke-width="1.52817" stroke-linecap="round" stroke-linejoin="round"/>
<path d="M74.2149 167.602C73.7026 167.287 72.0869 166.755 72.0869 166.755" stroke="#053C5E" stroke-width="1.52817" stroke-linecap="round" stroke-linejoin="round"/>
<path d="M75.7517 167.602C75.7517 167.602 74.668 167.484 74.2148 167.602" stroke="#053C5E" stroke-width="1.52817" stroke-linecap="round" stroke-linejoin="round"/>
<path d="M83.0425 168.213C84.2247 168.075 87.4561 169.494 88.0276 170.499" stroke="#053C5E" stroke-width="1.52817" stroke-linecap="round" stroke-linejoin="round"/>
<path d="M99.6328 174.872C99.6328 174.872 101.761 174.301 103.396 175.03" stroke="#053C5E" stroke-width="1.52817" stroke-linecap="round" stroke-linejoin="round"/>
<path d="M63.8311 158.085C63.8311 158.085 65.2103 157.08 67.1413 157.493" stroke="#053C5E" stroke-width="1.52817" stroke-linecap="round" stroke-linejoin="round"/>
<path d="M68.1064 144.371C68.1064 144.371 69.8798 144.371 70.2739 144.449" stroke="#053C5E" stroke-width="1.52817" stroke-linecap="round" stroke-linejoin="round"/>
<path d="M105.012 162.085C105.012 162.085 106.155 162.676 107.672 162.755" stroke="#053C5E" stroke-width="1.52817" stroke-linecap="round" stroke-linejoin="round"/>
<path d="M89.3276 156.509C89.3276 156.509 90.0567 156.095 91.7512 156.253" stroke="#053C5E" stroke-width="1.52817" stroke-linecap="round" stroke-linejoin="round"/>
<path d="M91.5146 138.381C91.5146 138.381 92.4801 138.637 92.8939 139.209C92.8939 139.209 93.5638 138.499 94.155 138.598" stroke="#053C5E" stroke-width="1.52817" stroke-linecap="round" stroke-linejoin="round"/>
<path d="M104.756 140.627C104.756 140.627 105.643 141.376 105.958 142.046" stroke="#053C5E" stroke-width="1.52817" stroke-linecap="round" stroke-linejoin="round"/>
<path d="M107.593 141.454C107.593 141.454 106.213 141.533 105.977 142.026" stroke="#053C5E" stroke-width="1.52817" stroke-linecap="round" stroke-linejoin="round"/>
<path d="M88.4606 158.912C88.4606 158.912 87.9286 158.321 87.4951 158.203" stroke="#053C5E" stroke-width="1.52817" stroke-linecap="round" stroke-linejoin="round"/>
<path d="M104.499 159.563C104.499 159.563 104.932 160.923 104.932 161.908" stroke="#053C5E" stroke-width="1.52817" stroke-linecap="round" stroke-linejoin="round"/>
</g>
<defs>
<clipPath id="clip0_107_149">
<rect width="145.316" height="228.959" fill="white" transform="translate(0.994629 0.0205078)"/>
</clipPath>
</defs>
</svg>
