<svg width="257" height="197" viewBox="0 0 257 197" fill="none" xmlns="http://www.w3.org/2000/svg">
<g clip-path="url(#clip0_107_419)">
<path d="M220.93 98.4836L220.494 94.5278L220.142 91.0246L219.74 87.7561L219.438 84.8228L219.254 82.7275" stroke="#053C5E" stroke-width="1.49451" stroke-linecap="round" stroke-linejoin="round"/>
<path d="M246.643 98.517L245.57 93.5052L244.413 89.2477L243.776 86.6496C243.072 82.191 242.117 78.2184 242.117 78.2184C240.223 73.1396 240.474 70.0722 240.474 70.0722C240.575 66.4684 242.419 64.2056 242.419 64.2056L245.101 58.5736C247.296 56.5622 247.397 51.2152 247.397 51.2152C248.671 47.9131 249.274 45.315 249.274 45.315C250.414 43.3874 250.632 40.5714 250.632 40.5714C251.554 39.1634 251.487 38.1912 251.487 38.1912C252.895 36.8168 253.465 35.9787 253.465 35.9787C255.811 33.3471 255.158 33.1292 255.158 33.1292C256.214 31.5368 253.934 30.4641 253.934 30.4641C251.202 29.2907 247.414 32.4922 247.414 32.4922C242.637 36.6156 242.318 39.4316 242.318 39.4316C241.581 40.2865 239.569 46.7398 239.569 46.7398C238.63 49.0529 236.217 49.891 236.217 49.891" stroke="#053C5E" stroke-width="1.49451" stroke-linecap="round" stroke-linejoin="round"/>
<path d="M207.421 45.9688L207.387 44.9128C205.946 38.9456 205.812 38.0069 205.812 38.0069C204.404 35.191 203.364 31.8386 203.364 31.8386C201.169 27.732 201.839 23.2566 201.839 23.2566C202.476 20.625 205.057 21.1111 205.057 21.1111C207.236 21.2787 209.415 29.4249 209.415 29.4249L210.119 31.0005C210.505 31.8218 211.46 33.0957 211.46 33.0957C212.416 35.7776 213.22 37.4873 213.22 37.4873C213.556 38.8618 214.276 40.4206 214.276 40.4206" stroke="#053C5E" stroke-width="1.49451" stroke-linecap="round" stroke-linejoin="round"/>
<path d="M211.461 33.096L210.455 30.3973C208.611 26.3913 207.539 22.7037 207.539 22.7037C205.276 18.6808 204.739 14.1551 204.739 14.1551C204.723 11.6241 207.756 11.0542 207.756 11.0542C209.014 10.8531 209.718 11.4397 209.718 11.4397C210.321 14.1216 213.405 19.2172 213.405 19.2172C215.182 22.9216 217.093 26.8606 217.093 26.8606C218.333 32.459 220.361 36.1969 220.361 36.1969" stroke="#053C5E" stroke-width="1.49451" stroke-linecap="round" stroke-linejoin="round"/>
<path d="M209.717 11.4394L209.784 11.0707C209.985 8.22118 212.935 7.68481 212.935 7.68481C215.382 7.28252 217.109 9.72975 217.109 9.72975C218.835 12.3949 220.176 16.2501 220.176 16.2501C221.148 18.0939 222.02 19.5857 222.02 19.5857C223.109 21.7647 223.663 23.1559 223.663 23.1559C224.467 25.7708 225.071 26.4915 225.071 26.4915C226.076 30.7658 227.685 34.1349 227.685 34.1349C227.937 34.5372 227.87 35.258 227.87 35.258" stroke="#053C5E" stroke-width="1.49451" stroke-linecap="round" stroke-linejoin="round"/>
<path d="M218.298 11.8754V11.2217C218.265 9.21031 219.773 8.32193 219.773 8.32193C222.053 6.79661 223.863 8.67393 223.863 8.67393C227.417 12.0766 228.775 16.3676 228.775 16.3676C232.227 21.7817 233.753 25.5363 233.753 25.5363L235.513 30.3972C236.703 34.3027 237.591 35.4425 237.591 35.4425C238.396 36.6159 239.971 40.9404 239.971 40.9404C240.424 42.2143 240.625 43.5385 240.625 43.5385" stroke="#053C5E" stroke-width="1.49451" stroke-linecap="round" stroke-linejoin="round"/>
<path d="M228.523 44.3928C228.523 44.3928 226.964 44.024 224.819 44.9124C224.819 44.9124 222.623 45.7337 219.338 46.0019C219.338 46.0019 217.678 45.8343 215.231 48.2312L211.661 51.2819C209.532 53.5615 207.873 54.1984 207.873 54.1984" stroke="#053C5E" stroke-width="1.49451" stroke-linecap="round" stroke-linejoin="round"/>
<path d="M203.448 51.232L203.783 51.0308C205.879 49.4385 207.572 47.4271 207.572 47.4271C209.281 45.8179 210.488 45.0972 210.488 45.0972" stroke="#053C5E" stroke-width="1.49451" stroke-linecap="round" stroke-linejoin="round"/>
<path d="M172.455 79.0733C181.171 72.6871 182.831 69.4185 182.831 69.4185C185.932 63.7698 188.815 60.7694 188.815 60.7694C191.597 58.4731 192.603 56.579 192.603 56.579C194.916 52.1874 200.598 50.6956 200.598 50.6956C204.135 48.4495 206.582 47.1924 206.582 47.1924C208.661 45.3821 210.471 45.1139 210.471 45.1139C213.421 42.717 216.874 42.8846 216.874 42.8846C220.729 41.7783 223.461 41.7783 223.461 41.7783C225.892 41.7783 227.434 42.6835 227.434 42.6835C228.607 43.2869 228.507 44.4267 228.507 44.4267C231.172 44.3764 232.513 45.3821 232.513 45.3821C233.954 46.3543 233.552 48.0975 233.552 48.0975C233.435 49.2708 232.814 49.891 232.814 49.891C231.758 50.2933 230.384 50.4945 230.384 50.4945C228.875 50.5615 227.819 51.6343 227.819 51.6343C226.227 52.7573 224.919 53.2099 224.919 53.2099C223.394 53.6624 221.919 54.9028 221.919 54.9028L214.779 60.6856L214.343 61.2723" stroke="#053C5E" stroke-width="1.49451" stroke-linecap="round" stroke-linejoin="round"/>
<path d="M232.832 49.8745C234.86 50.0757 234.876 52.0703 234.876 52.0703C235.631 53.4113 233.753 55.7411 233.753 55.7411C233.049 56.6128 232.144 57.1324 232.128 57.1324C231.155 57.6185 230.317 58.9426 229.412 59.6299C227.602 61.0379 225.892 62.6135 224.333 64.3064C222.573 66.2173 221.082 68.4298 219.389 70.4245C217.612 72.5365 215.332 74.749 215.315 77.7494" stroke="#053C5E" stroke-width="1.49451" stroke-linecap="round" stroke-linejoin="round"/>
<path d="M226.479 62.1105C228.29 61.5238 230.016 62.9821 229.982 64.0883C229.949 65.4461 229.094 66.787 228.39 67.8933C227.451 69.4018 226.714 71.0277 225.826 72.5698C224.401 75.0841 222.004 76.8106 220.73 79.4422C219.775 81.42 218.618 84.0181 216.271 84.6048C214.545 85.3926 212.701 85.9625 210.908 86.5994L207.807 87.7225L205.041 88.7114L202.728 89.3484C201.89 89.3819 200.985 89.583 200.096 89.8345" stroke="#053C5E" stroke-width="1.49451" stroke-linecap="round" stroke-linejoin="round"/>
<path d="M255.158 33.1465C255.158 33.1465 253.13 33.6493 252.426 34.7891L252.141 35.1914C250.834 37.0855 250.817 37.8063 250.817 37.8063C250.599 38.6779 251.471 38.1918 251.471 38.1918" stroke="#053C5E" stroke-width="1.49451" stroke-linecap="round" stroke-linejoin="round"/>
<path d="M226.563 42.2643C225.44 41.9626 224.652 42.1973 224.652 42.1973C224.535 42.2979 224.736 42.4487 224.736 42.4487C225.306 42.9348 225.708 43.3706 225.909 43.7394C226.194 44.259 226.932 44.3596 226.932 44.3596" stroke="#053C5E" stroke-width="1.49451" stroke-linecap="round" stroke-linejoin="round"/>
<path d="M231.876 45.0136C231.876 45.0136 230.769 44.8125 229.613 44.7119C229.613 44.7119 229.63 44.9298 230.233 45.3824C230.233 45.3824 231.306 46.1534 231.926 47.2932L232.06 47.4106C232.479 47.7458 233.267 47.6285 233.267 47.6285C233.451 47.6285 233.602 47.4776 233.602 47.4776" stroke="#053C5E" stroke-width="1.49451" stroke-linecap="round" stroke-linejoin="round"/>
<path d="M234.86 52.0697C234.558 52.4385 233.904 52.187 233.904 52.187C233.485 52.0362 233.116 51.7177 233.116 51.7177C232.48 51.1813 231.843 50.8461 231.843 50.8461C231.424 50.6617 231.507 50.4941 231.507 50.4941C231.491 50.3768 231.692 50.2427 231.692 50.2427" stroke="#053C5E" stroke-width="1.49451" stroke-linecap="round" stroke-linejoin="round"/>
<path d="M226.311 59.5964C226.311 59.5964 223.847 58.3392 222.254 56.5122" stroke="#053C5E" stroke-width="1.49451" stroke-linecap="round" stroke-linejoin="round"/>
<path d="M227.082 56.7129C227.082 56.7129 225.339 55.1876 224.4 54.8691" stroke="#053C5E" stroke-width="1.49451" stroke-linecap="round" stroke-linejoin="round"/>
<path d="M231.926 52.9751C231.926 52.9751 230.334 51.7347 229.881 51.6006" stroke="#053C5E" stroke-width="1.49451" stroke-linecap="round" stroke-linejoin="round"/>
<path d="M221.903 50.9808C221.903 50.9808 218.567 48.5671 218.148 47.5781" stroke="#053C5E" stroke-width="1.49451" stroke-linecap="round" stroke-linejoin="round"/>
<path d="M223.512 49.3547C223.512 49.3547 221.266 47.1087 220.059 46.6729" stroke="#053C5E" stroke-width="1.49451" stroke-linecap="round" stroke-linejoin="round"/>
<path d="M214.863 46.1526C214.863 46.1526 212.198 45.4486 212.03 44.3423" stroke="#053C5E" stroke-width="1.49451" stroke-linecap="round" stroke-linejoin="round"/>
<path d="M215.7 45.0978C215.7 45.0978 214.007 43.8742 213.488 43.8574" stroke="#053C5E" stroke-width="1.49451" stroke-linecap="round" stroke-linejoin="round"/>
<path d="M224.199 44.477C224.199 44.477 223.344 43.0187 222.64 42.8511" stroke="#053C5E" stroke-width="1.49451" stroke-linecap="round" stroke-linejoin="round"/>
<path d="M229.881 64.9096C230.066 64.2057 229.412 63.5352 228.675 63.5017C227.904 63.4514 227.149 64.5577 226.73 65.0605C225.691 66.3009 225.657 67.7927 227.635 68.7481" stroke="#053C5E" stroke-width="1.49451" stroke-linecap="round" stroke-linejoin="round"/>
<path d="M224.652 73.7429C223.562 73.525 222.841 72.7036 222.741 71.7817" stroke="#053C5E" stroke-width="1.49451" stroke-linecap="round" stroke-linejoin="round"/>
<path d="M225.473 72.8379C224.384 72.62 223.21 70.9439 223.11 70.022" stroke="#053C5E" stroke-width="1.49451" stroke-linecap="round" stroke-linejoin="round"/>
<path d="M66.219 123.861C60.3692 120.442 57.7543 113.67 57.7711 106.278C57.7711 105.792 57.7711 105.306 57.8046 104.803C57.8884 103.277 59.1791 102.104 60.7044 102.171C62.2297 102.238 63.403 103.546 63.336 105.071C63.3192 105.473 63.3025 105.876 63.3025 106.278C63.3025 112.513 65.448 117.039 69.0015 119.067C70.4933 119.939 72.1695 120.358 74.0635 120.358C77.3656 120.358 81.3382 118.967 85.2437 116.218C86.5008 115.346 86.417 116.368 87.2886 117.626C88.177 118.883 87.473 120.659 87.5233 120.944L88.4284 120.76C83.8189 123.995 78.8742 125.889 74.0635 125.906C71.3146 125.906 68.616 125.252 66.219 123.861Z" fill="#053C5E"/>
<path d="M65.347 88.0073C64.0396 87.2195 63.6038 85.5098 64.3916 84.2024C71.2975 72.7708 81.5389 65.3789 91.244 65.2783C92.7358 65.2783 94.2108 65.4627 95.6523 65.8817C97.1274 66.3008 95.1998 66.7031 94.7807 68.1781C94.7807 68.1781 93.9426 71.2958 92.4676 70.8768L93.0207 70.6589C92.1156 70.4074 92.2665 70.8265 91.244 70.8265C84.5728 70.7259 75.2365 76.7602 69.1352 87.0519C68.6156 87.9235 67.6937 88.4096 66.755 88.4096C66.2689 88.4096 65.7828 88.2755 65.3303 88.0073H65.347Z" fill="#053C5E"/>
<path d="M80.232 83.6325L61.9951 91.5776L64.2412 71.8154L80.232 83.6325Z" fill="#053C5E"/>
<path d="M1.26758 173.543L3.78185 170.878L6.29612 167.157L13.7216 158.441C25.019 146.406 33.4837 133.13 33.4837 133.13C48.0498 118.732 49.7595 109.329 49.7595 109.329C51.62 96.288 48.8878 78.3864 48.8878 78.3864C47.4799 70.4245 49.7092 65.9491 49.7092 65.9491C51.9385 58.6577 51.7206 52.4559 51.7206 52.4559C52.3743 47.6452 52.4078 43.6727 53.5141 40.9908C55.14 37.0685 56.6988 35.1074 56.6988 35.1074C60.1182 29.6431 61.1575 29.1905 61.1575 29.1905C61.3083 28.2854 63.0851 21.2286 63.0851 21.2286C64.5769 13.5015 65.1803 14.943 65.1803 14.943C67.3258 11.0878 71.9353 14.8759 71.9353 14.8759C76.3772 19.2675 76.0084 24.7319 76.0084 24.7319C76.813 34.9733 71.9018 45.4327 71.9018 45.4327C72.0359 53.4783 69.8066 62.1107 69.8066 62.1107L70.1753 62.4962C73.0751 61.0547 74.4831 58.708 74.4831 58.708C81.1711 50.9808 90.608 43.1028 90.608 43.1028C106.28 25.4526 123.126 13.4847 123.126 13.4847C139.469 -4.24929 146.81 3.10914 146.81 3.10914C151.185 6.98111 148.771 11.6241 148.771 11.6241" stroke="#053C5E" stroke-width="1.49451" stroke-linecap="round" stroke-linejoin="round"/>
<path d="M123.511 61.8257C123.511 61.8257 124.802 61.2893 125.64 60.1327C125.64 60.1327 129.16 55.2886 132.764 51.7351C132.764 51.7351 136.334 48.0978 139.234 43.9241C139.234 43.9241 141.463 41.9797 143.659 38.7279C143.659 38.7279 146.123 36.0628 151.067 30.8666C151.067 30.8666 159.985 23.9272 165.985 17.9098C165.985 17.9098 169.556 13.5014 165.131 8.79135C165.131 8.79135 161.041 3.49462 154.537 6.79669C154.537 6.79669 147.263 11.7917 142.083 18.6808C142.083 18.6808 138.379 22.1673 134.054 25.3352C134.054 25.3352 126.645 32.04 116.672 43.9744L114.007 46.6898C110.403 50.4276 108.157 53.78 108.157 53.78" stroke="#053C5E" stroke-width="1.49451" stroke-linecap="round" stroke-linejoin="round"/>
<path d="M132.813 72.9391L133.484 72.101C137.222 66.5864 146.575 57.8368 146.575 57.8368C147.597 56.7808 148.955 54.8029 148.955 54.8029C151.838 51.3164 154.721 48.5004 154.721 48.5004C158.962 45.0978 161.141 41.9298 161.141 41.9298C164.963 38.4434 167.561 35.1245 167.561 35.1245C170.393 32.2247 172.924 29.744 173.595 28.1516C174.467 26.0899 174.148 24.5814 174.148 24.5814C172.422 17.0888 166.203 17.642 166.203 17.642" stroke="#053C5E" stroke-width="1.49451" stroke-linecap="round" stroke-linejoin="round"/>
<path d="M145.418 84.5886L148.871 78.6047C155.006 72.252 159.867 64.4745 159.867 64.4745C165.298 58.9263 168.684 50.0929 168.684 50.0929C170.209 45.9192 167.075 42.5165 167.075 42.5165C164.695 40.2034 162.13 41.008 162.13 41.008" stroke="#053C5E" stroke-width="1.49451" stroke-linecap="round" stroke-linejoin="round"/>
<path d="M106.783 68.2788C106.783 68.2788 110.538 68.7984 114.51 72.6369C114.51 72.6369 118.651 76.3412 125.674 79.7942C125.674 79.7942 129.479 80.8669 132.865 88.2756L138.195 98.0813C140.994 104.937 144.095 107.803 144.095 107.803" stroke="#053C5E" stroke-width="1.49451" stroke-linecap="round" stroke-linejoin="round"/>
<path d="M156.313 105.071L155.743 104.35C152.458 99.0365 150.396 93.1364 150.396 93.1364C147.966 88.1078 145.921 85.4595 145.921 85.4595" stroke="#053C5E" stroke-width="1.49451" stroke-linecap="round" stroke-linejoin="round"/>
<path d="M201.419 193.288C187.524 171.649 186.602 163.017 186.602 163.017C184.473 147.881 180.618 138.762 180.618 138.762C176.411 131.287 175.774 126.241 175.774 126.241C174.349 114.542 163.035 106.345 163.035 106.345C157.101 98.3161 152.777 93.4384 152.777 93.4384C149.692 87.6053 145.938 85.4766 145.938 85.4766C141.429 77.6321 133.685 75.0005 133.685 75.0005C126.109 69.2009 120.091 66.8375 120.091 66.8375C114.744 64.692 110.587 65.3792 110.587 65.3792C107.486 65.6809 106.782 68.2957 106.782 68.2957C100.932 65.882 97.161 66.938 97.161 66.938C93.1717 67.8097 92.6018 72.0336 92.6018 72.0336C91.8811 74.7323 92.7527 76.6096 92.7527 76.6096C94.7473 78.3863 97.5968 80.029 97.5968 80.029C100.882 81.4873 102.307 84.7558 102.307 84.7558C104.871 88.6278 107.369 90.723 107.369 90.723C110.369 93.0529 112.565 97.059 112.565 97.059L123.477 115.983L123.963 117.659" stroke="#053C5E" stroke-width="1.49451" stroke-linecap="round" stroke-linejoin="round"/>
<path d="M92.7529 76.609C88.1266 75.2848 86.4337 79.6597 86.4337 79.6597C83.668 81.9728 85.8638 88.7278 85.8638 88.7278C86.6851 91.2588 88.2775 93.1864 88.2775 93.2032C90.0375 95.1308 90.775 98.7514 92.1662 101.064C94.9822 105.758 97.4294 110.686 99.4744 115.781C101.754 121.514 103.212 127.682 105.257 133.532C107.419 139.734 110.604 146.573 108.157 153.194" stroke="#053C5E" stroke-width="1.49451" stroke-linecap="round" stroke-linejoin="round"/>
<path d="M96.542 109.044C93.0723 106.177 88.027 107.904 87.1721 110.334C86.1161 113.368 86.8872 117.056 87.4906 120.106C88.3287 124.247 88.6136 128.47 89.2506 132.627C90.3066 139.399 94.145 145.283 94.7652 152.172C95.2345 157.351 95.6033 164.089 100.297 167.425C103.448 170.643 107.035 173.509 110.437 176.46L116.354 181.622L121.634 186.215L126.194 189.634C128.004 190.439 129.848 191.646 131.591 193.02" stroke="#053C5E" stroke-width="1.49451" stroke-linecap="round" stroke-linejoin="round"/>
<path d="M58.894 195.166C61.1569 191.562 63.403 187.975 63.403 187.975L71.0296 176.828C82.5785 162.933 93.4401 145.903 93.4401 145.903" stroke="#053C5E" stroke-width="1.49451" stroke-linecap="round" stroke-linejoin="round"/>
<path d="M71.884 67.0548C71.532 65.5295 70.9956 63.8868 70.1743 62.4956" stroke="#053C5E" stroke-width="1.49451" stroke-linecap="round" stroke-linejoin="round"/>
<path d="M65.1294 14.9434C67.3085 17.642 67.7275 20.2401 67.7275 20.2401C67.2582 23.4584 65.2803 26.2911 65.2803 26.2911C62.9839 30.1966 61.1401 29.2076 61.1401 29.2076" stroke="#053C5E" stroke-width="1.49451" stroke-linecap="round" stroke-linejoin="round"/>
<path d="M112.867 65.2949C115.6 65.6134 117.108 66.77 117.108 66.77C117.293 67.0717 116.706 67.2561 116.706 67.2561C115.013 67.8427 113.789 68.4629 113.035 69.0999C111.962 69.9882 110.286 69.5692 110.286 69.5692" stroke="#053C5E" stroke-width="1.49451" stroke-linecap="round" stroke-linejoin="round"/>
<path d="M98.8881 66.7368C98.8881 66.7368 100.48 66.7871 103.146 67.5749C103.146 67.5749 102.911 68.061 101.184 68.5303C101.184 68.5303 98.1674 69.3181 95.8542 71.2625L95.4519 71.4134C94.2283 71.7989 93.6081 71.3128 93.6081 71.3128C93.2059 71.1955 93.0215 70.6758 93.0215 70.6758" stroke="#053C5E" stroke-width="1.49451" stroke-linecap="round" stroke-linejoin="round"/>
<path d="M86.4341 79.6601C86.7693 80.7496 88.4455 80.7496 88.4455 80.7496C89.5182 80.7832 90.591 80.4144 90.591 80.4144C92.4516 79.7942 94.111 79.5763 94.111 79.5763C95.1837 79.5428 95.1502 79.0735 95.1502 79.0735C95.2843 78.8556 94.9323 78.3359 94.9323 78.3359" stroke="#053C5E" stroke-width="1.49451" stroke-linecap="round" stroke-linejoin="round"/>
<path d="M71.8845 45.4326C71.8845 45.4326 71.0632 46.7903 67.1074 45.9355" stroke="#053C5E" stroke-width="1.49451" stroke-linecap="round" stroke-linejoin="round"/>
<path d="M69.806 62.1108C69.806 62.1108 69.102 62.0773 68.8003 62.1779" stroke="#053C5E" stroke-width="1.49451" stroke-linecap="round" stroke-linejoin="round"/>
<path d="M98.2505 100.177C98.2505 100.177 104.721 99.5229 109.749 96.9248" stroke="#053C5E" stroke-width="1.49451" stroke-linecap="round" stroke-linejoin="round"/>
<path d="M99.6929 96.6394C99.6929 96.6394 104.788 94.8124 107.152 94.9297" stroke="#053C5E" stroke-width="1.49451" stroke-linecap="round" stroke-linejoin="round"/>
<path d="M92.1328 84.1855C92.1328 84.1855 96.692 82.8278 97.7983 82.9452" stroke="#053C5E" stroke-width="1.49451" stroke-linecap="round" stroke-linejoin="round"/>
<path d="M115.868 88.4932C115.868 88.4932 125.238 86.0795 126.964 84.2524" stroke="#053C5E" stroke-width="1.49451" stroke-linecap="round" stroke-linejoin="round"/>
<path d="M115.935 84.37C115.935 84.37 121.6 82.4256 122.69 82.5933" stroke="#053C5E" stroke-width="1.49451" stroke-linecap="round" stroke-linejoin="round"/>
<path d="M113.688 83.5325C113.688 83.5325 120.51 80.5154 123.51 80.6327" stroke="#053C5E" stroke-width="1.49451" stroke-linecap="round" stroke-linejoin="round"/>
<path d="M135.395 84.018C135.395 84.018 141.865 84.789 143.139 82.4927" stroke="#053C5E" stroke-width="1.49451" stroke-linecap="round" stroke-linejoin="round"/>
<path d="M134.423 80.9508C134.423 80.9508 139.166 79.7104 140.323 80.1294" stroke="#053C5E" stroke-width="1.49451" stroke-linecap="round" stroke-linejoin="round"/>
<path d="M99.9775 72.7377C99.9775 72.7377 104.151 69.5362 107.453 69.5865" stroke="#053C5E" stroke-width="1.49451" stroke-linecap="round" stroke-linejoin="round"/>
<path d="M116.22 72.2173C116.22 72.2173 119.337 69.7366 121.014 69.9712" stroke="#053C5E" stroke-width="1.49451" stroke-linecap="round" stroke-linejoin="round"/>
<path d="M86.7183 112.262C86.9026 110.535 88.8805 109.647 90.5567 110.2C92.2999 110.77 93.0039 113.837 93.5236 115.295C94.7807 118.95 93.6074 122.268 88.4615 122.654" stroke="#053C5E" stroke-width="1.25713" stroke-linecap="round" stroke-linejoin="round"/>
<path d="M90.9092 136.265C93.5073 136.734 95.7701 135.544 96.759 133.616" stroke="#053C5E" stroke-width="1.25713" stroke-linecap="round" stroke-linejoin="round"/>
<path d="M89.8364 133.549C92.4345 134.018 96.3903 131.336 97.3792 129.409" stroke="#053C5E" stroke-width="1.25713" stroke-linecap="round" stroke-linejoin="round"/>
</g>
<defs>
<clipPath id="clip0_107_419">
<rect width="256.254" height="196.096" fill="white" transform="translate(0.00976562 0.32666)"/>
</clipPath>
</defs>
</svg>
