<svg width="222" height="180" viewBox="0 0 222 180" fill="none" xmlns="http://www.w3.org/2000/svg">
<g clip-path="url(#clip0_107_563)">
<path d="M143.463 62.4639C141.669 60.5363 138.703 58.1226 138.703 58.1226C136.155 53.3287 127.606 44.2103 127.606 44.2103C123.5 38.1761 121.79 37.6732 121.79 37.6732C119.963 34.7734 118.002 32.5441 118.002 32.5441C114.867 28.4878 112.185 30.4992 112.185 30.4992C109.252 31.6725 108.85 34.7734 108.85 34.7734C108.263 37.8408 110.191 41.0088 110.191 41.0088C114.046 49.0042 116.158 50.0937 116.158 50.0937C116.476 51.3844 120.784 58.1897 120.784 58.1897" stroke="#053C5E" stroke-width="1.49451" stroke-linecap="round" stroke-linejoin="round"/>
<path d="M122.998 38.6286C121.757 35.2092 124.624 32.8458 124.624 32.8458C127.239 30.0298 130.608 31.6054 130.608 31.6054C133.692 33.2816 134.798 37.2206 134.798 37.2206C136.256 41.9642 137.497 42.6514 137.497 42.6514" stroke="#053C5E" stroke-width="1.49451" stroke-linecap="round" stroke-linejoin="round"/>
<path d="M174.791 95.0986C174.791 95.0986 175.696 95.568 178.16 95.7523" stroke="#053C5E" stroke-width="1.49451" stroke-linecap="round" stroke-linejoin="round"/>
<path d="M1.25635 177.332L26.2147 157.972L46.9322 140.691L62.6716 126.896L71.5721 118.8C73.0639 117.107 75.0585 115.213 76.6509 113.017C80.6067 107.569 84.3278 104.301 84.3278 104.301C95.2565 95.2662 99.1955 89.1313 99.1955 89.1313" stroke="#053C5E" stroke-width="1.49451" stroke-linecap="round" stroke-linejoin="round"/>
<path d="M91.2681 178.271C92.7431 176.276 94.2517 174.231 94.2517 174.231L98.3415 169.136L101.476 164.912C108.114 154.553 117.45 143.691 117.45 143.691C121.238 150.111 125.11 154.553 125.11 154.553C129.267 159.364 131.815 162.582 131.815 162.582C135.603 166.521 141.654 168.482 141.654 168.482C145.157 169.22 147.856 171.767 147.856 171.767C147.856 171.767 152.298 175.572 154.175 177.181" stroke="#053C5E" stroke-width="1.49451" stroke-linecap="round" stroke-linejoin="round"/>
<path d="M220.518 178.707C218.825 177.433 215.757 175.136 215.757 175.136C204.091 166.403 196.347 158.324 196.347 158.324L189.29 151.837L185.619 148.334L185.402 148.284L185.184 147.949L185.1 147.479L182.284 142.384C181.999 140.154 181.731 138.864 181.731 138.864L180.557 126.929L180.457 125.957L179.351 115.749C179.116 108.173 178.429 102.876 178.429 102.876L178.11 101.72C182.267 98.7528 182.887 91.6626 182.887 91.6626C183.072 87.8912 182.167 86.3156 182.167 86.3156C181.127 84.5388 179.686 84.1868 179.686 84.1868C178.932 83.9354 178.093 83.6672 178.093 83.6672C179.401 82.0413 180.624 80.6333 181.161 79.5606C181.932 78.0185 181.949 77.0128 181.949 77.0128C182.032 73.9956 179.937 71.7496 179.937 71.7496C177.758 68.766 174.54 69.2688 174.54 69.2688C172.646 69.3191 171.64 69.3526 171.64 69.3526C175.981 64.2068 176.669 61.1561 176.669 61.1561C177.473 57.6026 175.613 55.3901 175.613 55.3901C174.138 53.3954 172.897 52.6411 172.897 52.6411" stroke="#053C5E" stroke-width="1.49451" stroke-linecap="round" stroke-linejoin="round"/>
<path d="M171.623 69.3353C168.321 69.2682 165.723 70.7097 165.723 70.7097C162.74 72.1513 158.868 72.1848 158.868 72.1848C154.828 71.7993 153.621 74.3303 153.621 74.3303" stroke="#053C5E" stroke-width="1.49451" stroke-linecap="round" stroke-linejoin="round"/>
<path d="M178.077 83.6504L175.278 83.4493C172.613 83.2481 169.797 84.1532 169.797 84.1532C168.087 84.8572 165.154 85.5612 165.154 85.5612C161.567 86.1479 158.969 85.6283 158.969 85.6283C156.404 85.1422 154.862 82.5776 154.862 82.5776" stroke="#053C5E" stroke-width="1.49451" stroke-linecap="round" stroke-linejoin="round"/>
<path d="M154.459 58.6253C158.7 57.3178 161.902 54.9712 161.902 54.9712" stroke="#053C5E" stroke-width="1.49451" stroke-linecap="round" stroke-linejoin="round"/>
<path d="M169.914 91.9478C170.835 93.9424 174.791 95.099 174.791 95.099C174.791 95.099 177.456 98.1161 178.093 101.72" stroke="#053C5E" stroke-width="1.49451" stroke-linecap="round" stroke-linejoin="round"/>
<path d="M117.432 143.675C114.432 136.4 113.141 133.752 113.141 133.752C111.029 130.198 108.062 119.421 108.062 119.421C106.269 113.973 105.816 108.81 105.816 108.81C104.341 99.6919 104.928 98.5186 104.928 98.5186C103.453 93.2051 107.207 91.4787 107.207 91.4787C112.571 88.9476 116.209 92.6688 116.209 92.6688C124.69 100.798 125.813 113.286 125.813 113.286C127.02 113.973 128.327 118.298 128.327 118.298C130.49 123.309 132.367 125.589 132.367 125.589C133.155 129.696 134.244 132.093 134.244 132.093C135.066 133.283 135.904 135.763 135.904 135.763" stroke="#053C5E" stroke-width="1.49451" stroke-linecap="round" stroke-linejoin="round"/>
<path d="M101.04 61.542C92.223 53.5801 96.5308 49.6411 96.5308 49.6411C96.933 46.624 100.47 47.4453 100.47 47.4453C104.074 48.5013 107.594 50.9653 107.594 50.9653C109.588 50.8144 114.416 54.4182 114.416 54.4182L121.171 59.2289C125.478 62.8997 129.199 66.2353 129.199 66.2353C132.166 68.8334 135.988 74.985 135.988 74.985L139.022 79.8962L140.715 82.7457C142.927 86.9864 148.476 92.9033 148.476 92.9033" stroke="#053C5E" stroke-width="1.49451" stroke-linecap="round" stroke-linejoin="round"/>
<path d="M153.974 81.0689L153.438 80.9348L154.695 82.7116L155.516 81.0522L154.527 80.1303L154.561 79.1581L153.823 78.3367L153.991 76.6103L153.572 74.4648L152.7 72.8389L152.801 70.1067L152.449 68.5646L153.186 64.2233L153.924 57.2169L155.684 51.3335L160.36 48.5846L169.915 48.132L175.865 46.9419L199.952 41.5781L199.583 43.1034L197.152 47.7465L162.724 54.183L157.276 55.3898L154.812 55.7754L154.024 56.7308" stroke="#053C5E" stroke-width="1.49451" stroke-linecap="round" stroke-linejoin="round"/>
<path d="M195.928 40.5728L195.392 37.1534L192.173 25.5375L188.452 19.9558L185.77 15.9162L182.234 14.2568L174.791 8.49077L172.294 6.49611L168.439 4.56851L162.857 3.02642L154.845 1.55138L147.47 1.23291L141.938 5.59098L136.239 13.2344" stroke="#053C5E" stroke-width="1.49451" stroke-linecap="round" stroke-linejoin="round"/>
<path d="M145.157 8.74219L132.385 15.2122L125.78 23.04L125.663 25.8057" stroke="#053C5E" stroke-width="1.49451" stroke-linecap="round" stroke-linejoin="round"/>
<path d="M125.713 23.9448L122.193 25.1517L120.584 25.9898L116.796 31.3033" stroke="#053C5E" stroke-width="1.49451" stroke-linecap="round" stroke-linejoin="round"/>
<path d="M104.745 49.2553L105.683 46.6908L106.337 46.5232L109.237 42.5842L109.857 40.4722" stroke="#053C5E" stroke-width="1.49451" stroke-linecap="round" stroke-linejoin="round"/>
<path d="M102.498 71.3307L102.767 67.7437L101.526 67.0565L100.906 64.7769L100.319 62.9833L100.453 61.9776L101.04 61.5586L102.985 62.6313L105.918 62.9331L105.65 65.1456L106.37 66.9056L100.906 73.2416L101.107 80.6L100.487 82.3265L99.9003 87.5059L99.1796 89.1653L97.7213 95.7024L97.7548 96.9763L97.319 96.5572L96.0284 97.0768L94.0002 100.077V101.049L94.4528 101.737L93.1621 111.14L93.3297 111.76L93.7991 112.38L93.7152 113.101L94.2684 114.626L95.073 117.057L96.1122 117.945L96.967 120.476L99.9674 122.504L106.018 125.471L108.616 126.645L110.343 127.064" stroke="#053C5E" stroke-width="1.49451" stroke-linecap="round" stroke-linejoin="round"/>
<path d="M107.309 45.1825L105.398 36.4663V33.4995L106.856 32.3262L109.89 32.2256" stroke="#053C5E" stroke-width="1.49451" stroke-linecap="round" stroke-linejoin="round"/>
<path d="M105.398 33.4996L105.951 32.3598L106.119 31.6055L108.197 30.2813L109.622 29.9796L119.696 25.4204L121.473 24.5991L122.327 24.4482L122.294 25.0349" stroke="#053C5E" stroke-width="1.49451" stroke-linecap="round" stroke-linejoin="round"/>
<path d="M107.61 50.9651C106.336 51.0489 105.213 51.7194 105.213 51.7194C102.665 53.5967 98.9443 52.6581 98.9443 52.6581C96.3127 51.116 96.5474 49.6577 96.5474 49.6577" stroke="#053C5E" stroke-width="1.49451" stroke-linecap="round" stroke-linejoin="round"/>
<path d="M162.506 89.8358C158.952 87.3215 156.756 84.6899 156.756 84.6899" stroke="#053C5E" stroke-width="1.49451" stroke-linecap="round" stroke-linejoin="round"/>
<path d="M121.791 37.6732C120.853 37.6732 119.947 38.1426 119.947 38.1426C117.4 39.0309 114.617 38.1426 114.617 38.1426C112.237 37.2039 110.896 34.9243 110.896 34.9243C109.773 32.2759 112.187 30.4824 112.187 30.4824" stroke="#053C5E" stroke-width="1.49451" stroke-linecap="round" stroke-linejoin="round"/>
<path d="M133.608 41.8631C134.513 41.2262 134.58 40.4049 134.58 40.4049C133.323 36.1976 132.15 33.3314 132.15 33.3314C131.446 31.6049 129.434 32.2251 129.434 32.2251C127.59 32.5939 126.518 34.1359 126.518 34.1359C125.663 35.3428 125.545 36.3653 125.545 36.3653C126.149 38.9801 127.708 40.9915 127.708 40.9915C129.032 42.4498 131.027 42.5168 131.027 42.5168C132.401 42.6174 133.608 41.8799 133.608 41.8799" stroke="#053C5E" stroke-width="1.49451" stroke-linecap="round" stroke-linejoin="round"/>
<path d="M157.091 74.0624C157.661 73.9786 159.387 73.7775 161.315 74.0959C161.315 74.0959 163.309 74.3306 164.835 76.2247C164.835 76.2247 166.31 78.2026 164.701 80.3816C164.701 80.3816 163.477 81.8567 160.024 82.3092C160.024 82.3092 159.421 82.3427 159.387 81.9907C159.387 81.9907 159.169 80.2308 158.717 78.0517C158.717 78.0517 158.281 76.0403 156.99 74.2468C156.957 74.1965 157.124 74.1127 157.091 74.0792" stroke="#053C5E" stroke-width="1.49451" stroke-linecap="round" stroke-linejoin="round"/>
<path d="M167.232 85.0415C166.947 85.8796 167.098 86.1645 167.098 86.1645" stroke="#053C5E" stroke-width="1.49451" stroke-linecap="round" stroke-linejoin="round"/>
<path d="M152.817 72.47C156.471 71.0955 157.242 69.1344 157.242 69.1344C158.298 67.3409 157.309 65.0948 157.309 65.0948C155.733 62.3626 153.37 62.8822 153.37 62.8822" stroke="#053C5E" stroke-width="1.49451" stroke-linecap="round" stroke-linejoin="round"/>
<path d="M171.758 84.3045C173.569 85.9471 173.937 88.8134 173.937 88.8134C174.021 89.4168 174.608 89.4336 174.608 89.4336C177.038 89.6515 178.228 88.5117 178.228 88.5117C179.066 87.3886 178.463 86.4164 178.463 86.4164C177.742 84.7403 175.345 84.5056 175.345 84.5056C174.105 84.2207 171.775 84.3045 171.775 84.3045" stroke="#053C5E" stroke-width="1.49451" stroke-linecap="round" stroke-linejoin="round"/>
<path d="M104.945 98.518C106.386 104.82 107.275 105.776 107.275 105.776C107.56 106.111 107.761 106.295 107.912 106.413C108.113 106.58 108.398 106.497 108.515 106.463C110.459 105.776 111.75 105.86 112.957 105.591C115.371 105.038 116.862 103.446 116.862 103.446C117.801 102.356 115.907 96.6742 115.907 96.6742C114.147 91.5115 109.521 91.7797 109.521 91.7797C106.219 91.9138 105.096 93.8414 105.096 93.8414" stroke="#053C5E" stroke-width="1.49451" stroke-linecap="round" stroke-linejoin="round"/>
<path d="M132.401 125.589C131.546 119.487 132.3 115.515 132.3 115.515C131.546 112.464 131.278 109.766 131.278 109.766L129.032 102.29C125.998 95.7862 124.573 91.5623 124.573 91.5623C118.187 81.656 116.159 75.957 116.159 75.957" stroke="#053C5E" stroke-width="1.49451" stroke-linecap="round" stroke-linejoin="round"/>
<path d="M109.035 119.32C109.035 119.32 110.526 119.638 115.002 117.409" stroke="#053C5E" stroke-width="1.49451" stroke-linecap="round" stroke-linejoin="round"/>
<path d="M107.728 115.565C107.728 115.565 109.27 113.017 117.584 111.86" stroke="#053C5E" stroke-width="1.49451" stroke-linecap="round" stroke-linejoin="round"/>
<path d="M123.316 72.3864C123.316 72.3864 127.372 71.5483 129.987 69.1514" stroke="#053C5E" stroke-width="1.49451" stroke-linecap="round" stroke-linejoin="round"/>
<path d="M128.261 66.3354C128.261 66.3354 125.596 67.5255 123.987 68.6151" stroke="#053C5E" stroke-width="1.49451" stroke-linecap="round" stroke-linejoin="round"/>
<path d="M143.347 64.5757C143.347 64.5757 139.642 65.749 135.938 66.4362" stroke="#053C5E" stroke-width="1.49451" stroke-linecap="round" stroke-linejoin="round"/>
<path d="M136.189 62.8658C136.189 62.8658 138.619 62.2288 140.044 62.4802C140.916 62.6311 141.955 62.0947 141.955 62.0947" stroke="#053C5E" stroke-width="1.49451" stroke-linecap="round" stroke-linejoin="round"/>
<path d="M109.487 56.2118C109.487 56.2118 111.75 54.6362 113.124 54.7033" stroke="#053C5E" stroke-width="1.49451" stroke-linecap="round" stroke-linejoin="round"/>
<path d="M122.595 44.5448C122.595 44.5448 123.769 44.1426 126.233 43.9917" stroke="#053C5E" stroke-width="1.49451" stroke-linecap="round" stroke-linejoin="round"/>
<path d="M137.211 49.4897C137.211 49.4897 136.591 50.1099 135.434 50.0429" stroke="#053C5E" stroke-width="1.49451" stroke-linecap="round" stroke-linejoin="round"/>
<path d="M159.606 60.1841C159.606 60.1841 162.69 62.6648 163.193 65.3132" stroke="#053C5E" stroke-width="1.49451" stroke-linecap="round" stroke-linejoin="round"/>
<path d="M168.003 73.9961C168.003 73.9961 170.467 76.4601 169.981 78.6223" stroke="#053C5E" stroke-width="1.49451" stroke-linecap="round" stroke-linejoin="round"/>
<path d="M160.577 85.8125L163.745 88.0586L164.416 88.1927L165.153 88.0921L166.712 87.7066L167.517 87.5557H167.902" stroke="#053C5E" stroke-width="1.49451" stroke-linecap="round" stroke-linejoin="round"/>
<path d="M165.02 88.1262L166.461 88.8637L169.109 92.0652L169.914 91.8641L170.434 91.6462L171.071 90.674L171.674 89.7186L171.909 89.4336L170.752 89.1487L167.869 86.8355L165.858 85.3438" stroke="#053C5E" stroke-width="1.49451" stroke-linecap="round" stroke-linejoin="round"/>
<path d="M153.286 80.4486L151.208 78.8563L143.146 67.2739L143.749 65.7988L144.285 61.1223L145.09 58.7924L149.85 53.546L159.572 47.9475L173.518 47.4111" stroke="#053C5E" stroke-width="1.49451" stroke-linecap="round" stroke-linejoin="round"/>
<path d="M199.951 41.5785L201.61 41.327L200.671 40.5225L185.251 41.679L176.87 42.9529L170.048 44.3441L159.555 47.9479" stroke="#053C5E" stroke-width="1.49451" stroke-linecap="round" stroke-linejoin="round"/>
<path d="M126.266 63.6369L125.294 61.4244L123.567 60.6198L121.606 56.4461L120.014 55.7756L118.773 54.1665" stroke="#053C5E" stroke-width="1.49451" stroke-linecap="round" stroke-linejoin="round"/>
<path d="M116.175 75.9569L112.37 69.5036L106.671 63.1509L109.538 68.6152L107.191 71.7162" stroke="#053C5E" stroke-width="1.49451" stroke-linecap="round" stroke-linejoin="round"/>
<path d="M106.672 63.151L105.917 62.9331" stroke="#053C5E" stroke-width="1.49451" stroke-linecap="round" stroke-linejoin="round"/>
<path d="M139.273 58.609L137.312 52.5078L137.144 45.1493L138.636 40.9421L142.525 33.2485L141.67 30.5498" stroke="#053C5E" stroke-width="1.49451" stroke-linecap="round" stroke-linejoin="round"/>
<path d="M140.429 37.3373L140.815 29.6603L141.401 28.9731L143.111 28.2356L145.424 25.5537" stroke="#053C5E" stroke-width="1.49451" stroke-linecap="round" stroke-linejoin="round"/>
<path d="M132.133 32.6438L133.541 29.0567L136.022 26.4922" stroke="#053C5E" stroke-width="1.49451" stroke-linecap="round" stroke-linejoin="round"/>
<path d="M134.027 28.37L133.339 24.7829L135.468 19.4527L137.044 17.6089" stroke="#053C5E" stroke-width="1.49451" stroke-linecap="round" stroke-linejoin="round"/>
<path d="M182.234 14.2568L179.854 17.0225L172.964 23.8781L166.109 28.739" stroke="#053C5E" stroke-width="1.49451" stroke-linecap="round" stroke-linejoin="round"/>
<path d="M148.828 27.7337L151.359 26.3257L153.521 26.6944L154.477 29.2087L155.483 36.7012L156.052 36.9024L159.857 35.4273L167.719 31.6559L169.797 30.3318L175.764 29.7283" stroke="#053C5E" stroke-width="1.49451" stroke-linecap="round" stroke-linejoin="round"/>
<path d="M169.796 30.3315L172.712 28.2865L179.099 22.6378L185.099 16.9053" stroke="#053C5E" stroke-width="1.49451" stroke-linecap="round" stroke-linejoin="round"/>
<path d="M168.439 4.56885L153.051 8.89339L142.692 14.8438" stroke="#053C5E" stroke-width="1.49451" stroke-linecap="round" stroke-linejoin="round"/>
<path d="M148.274 27.4818L151.794 24.7161L155.716 24.3809H160.996L167.215 25.6715" stroke="#053C5E" stroke-width="1.49451" stroke-linecap="round" stroke-linejoin="round"/>
<path d="M162.84 24.7496L161.365 22.051L157.192 16.6537L155.08 13.4354L153.387 9.16113" stroke="#053C5E" stroke-width="1.49451" stroke-linecap="round" stroke-linejoin="round"/>
<path d="M107.007 91.6458L106.655 90.5563L107.242 78.9739L105.565 75.1689" stroke="#053C5E" stroke-width="1.49451" stroke-linecap="round" stroke-linejoin="round"/>
<path d="M122.344 96.4058L123.115 97.9981L124.909 105.943L126.954 109.731L127.306 112.212" stroke="#053C5E" stroke-width="1.49451" stroke-linecap="round" stroke-linejoin="round"/>
<path d="M101.659 115.397L105.062 115.85L107.861 119.001" stroke="#053C5E" stroke-width="1.49451" stroke-linecap="round" stroke-linejoin="round"/>
<path d="M104.761 97.9316L99.0112 98.468" stroke="#053C5E" stroke-width="1.49451" stroke-linecap="round" stroke-linejoin="round"/>
<path d="M100.487 82.4937L101.661 86.2148L101.426 89.9359" stroke="#053C5E" stroke-width="1.49451" stroke-linecap="round" stroke-linejoin="round"/>
<path d="M140.463 59.5137V57.9548L143.615 53.9655L144.805 45.6517L143.061 35.7622" stroke="#053C5E" stroke-width="1.49451" stroke-linecap="round" stroke-linejoin="round"/>
<path d="M141.016 59.245L141.301 58.122L145.089 55.1719L148.978 54.25" stroke="#053C5E" stroke-width="1.49451" stroke-linecap="round" stroke-linejoin="round"/>
<path d="M103.855 114.023L106.169 114.911L107.241 116.789" stroke="#053C5E" stroke-width="1.49451" stroke-linecap="round" stroke-linejoin="round"/>
<path d="M93.7983 112.38L95.7259 113.034L100.637 113.554" stroke="#053C5E" stroke-width="1.49451" stroke-linecap="round" stroke-linejoin="round"/>
<path d="M112.387 83.3491L113.544 89.2828L114.885 91.6294" stroke="#053C5E" stroke-width="1.49451" stroke-linecap="round" stroke-linejoin="round"/>
<path d="M114.047 89.0481L117.047 86.4668" stroke="#053C5E" stroke-width="1.49451" stroke-linecap="round" stroke-linejoin="round"/>
</g>
<defs>
<clipPath id="clip0_107_563">
<rect width="221.775" height="179.569" fill="white" transform="translate(0 0.394531)"/>
</clipPath>
</defs>
</svg>
