<svg width="335" height="139" viewBox="0 0 335 139" fill="none" xmlns="http://www.w3.org/2000/svg">
<path d="M169.785 120.245C169.785 120.245 169.953 121.686 168.863 125.173" stroke="#053C5E" stroke-width="1.49451" stroke-linecap="round" stroke-linejoin="round"/>
<path d="M179.072 5.92847L179.441 6.29723C180.547 7.26941 180.899 8.05722 180.899 8.05722C181.436 8.61036 181.821 8.69417 181.821 8.69417C185.257 9.33111 186.632 8.56007 186.632 8.56007C189.951 7.25265 190.722 6.54866 190.722 6.54866C193.236 4.47019 193.169 3.24658 193.169 3.24658" stroke="#053C5E" stroke-width="1.49451" stroke-linecap="round" stroke-linejoin="round"/>
<path d="M151.867 125.625L151.549 123.999C149.99 122.323 148.934 121.736 148.934 121.736C147.342 120.663 145.732 119.942 145.732 119.942" stroke="#053C5E" stroke-width="1.49451" stroke-linecap="round" stroke-linejoin="round"/>
<path d="M125.184 61.1416C125.184 61.1416 116.602 68.148 114.255 69.1035C114.255 69.1035 107.081 73.8806 100.846 76.4284" stroke="#053C5E" stroke-width="1.49451" stroke-linecap="round" stroke-linejoin="round"/>
<path d="M140.2 30.7861C140.2 30.7861 138.155 31.4063 135.926 30.585" stroke="#053C5E" stroke-width="1.49451" stroke-linecap="round" stroke-linejoin="round"/>
<path d="M143.738 26.8305C143.738 26.8305 142.85 25.9253 142.447 24.1318" stroke="#053C5E" stroke-width="1.49451" stroke-linecap="round" stroke-linejoin="round"/>
<path d="M163.92 6.43213C163.92 6.43213 164.372 6.8847 164.372 9.31516" stroke="#053C5E" stroke-width="1.49451" stroke-linecap="round" stroke-linejoin="round"/>
<path d="M158.908 6.43213C158.908 6.43213 158.975 7.01879 160.769 8.5944" stroke="#053C5E" stroke-width="1.49451" stroke-linecap="round" stroke-linejoin="round"/>
<path d="M143.889 26.6797C140.034 29.2275 140.034 32.0602 140.034 32.0602C139.565 34.0884 139.447 37.0888 139.447 37.0888C139.799 40.9943 140.973 41.7821 140.973 41.7821C146.169 42.9722 151.499 42.6202 151.499 42.6202C156.293 42.771 158.757 42.4525 158.757 42.4525C163.433 42.5028 165.428 42.3352 165.428 42.3352" stroke="#053C5E" stroke-width="1.49451" stroke-linecap="round" stroke-linejoin="round"/>
<path d="M191.072 17.8799L194.425 17.3938C200.66 15.6841 204.633 15.5667 204.633 15.5667C213.131 14.7622 217.975 15.3321 217.975 15.3321C230.11 16.8406 234.787 18.3492 234.787 18.3492L243.755 20.5785L248.984 21.9362C260.215 23.9644 265.059 24.5175 265.059 24.5175C274.948 25.8752 283.363 30.3339 283.363 30.3339L293.47 34.7087L299.119 36.3514L304.499 38.2287L314.523 41.3799L322.485 43.3746L332.525 45.6542" stroke="#053C5E" stroke-width="1.49451" stroke-linecap="round" stroke-linejoin="round"/>
<path d="M140.67 41.4303L137.703 41.3633C137.703 41.3633 135.859 41.5477 134.87 41.9332C129.674 43.8943 127.378 46.8612 127.378 46.8612C124.578 50.3308 124.578 53.1133 124.578 53.1133C124.696 55.594 124.545 57.9072 124.545 57.9072C125.031 63.1704 127.864 64.0755 127.864 64.0755C137.921 65.869 142.882 65.4835 142.882 65.4835L151.414 65.8187H156.778L161.371 65.8523" stroke="#053C5E" stroke-width="1.49451" stroke-linecap="round" stroke-linejoin="round"/>
<path d="M127.395 63.8916L126.423 63.8413C124.412 64.5788 122.601 66.2382 122.601 66.2382C120.456 68.2664 119.484 70.6969 119.484 70.6969C118.662 75.9601 119.165 79.8488 119.165 79.8488C120.489 85.397 124.629 87.2575 124.629 87.2575C129.289 88.4979 131.502 89.688 131.502 89.688C133.396 90.4423 140.587 90.4423 140.587 90.4423C150.711 90.5596 153.527 90.7105 153.527 90.7105L158.237 91.1966" stroke="#053C5E" stroke-width="1.49451" stroke-linecap="round" stroke-linejoin="round"/>
<path d="M2.03369 104.622L12.0908 100.65L21.1421 97.2972L32.0541 94.431L35.1718 93.794L39.7645 92.9894C46.5865 92.8386 53.5762 91.4809 53.5762 91.4809C56.9956 90.5255 64.5384 91.0451 64.5384 91.0451C68.7456 95.7887 88.139 101.756 88.139 101.756C95.8998 104.589 103.51 104.622 103.51 104.622C112.628 106.298 123.322 105.98 123.322 105.98C123.171 100.683 124.881 97.2972 124.881 97.2972C126.624 92.671 129.474 88.7822 129.474 88.7822" stroke="#053C5E" stroke-width="1.49451" stroke-linecap="round" stroke-linejoin="round"/>
<path d="M140.218 119.49L146.47 119.926L150.375 120.278L153.493 120.361L158.455 120.412L163.014 120.244C174.781 120.328 184.586 120.244 184.586 120.244C187.788 120.16 190.704 119.004 190.704 119.004C193.509 118.512 195.688 118.127 197.241 117.847" stroke="#053C5E" stroke-width="1.49451" stroke-linecap="round" stroke-linejoin="round"/>
<path d="M2.70361 43.5925L39.3784 34.8932L54.1959 32.2113C71.0079 30.753 79.6235 27.8532 79.6235 27.8532C91.5076 23.8639 95.8322 19.6902 95.8322 19.6902L104.431 14.3767C106.543 12.2983 109.778 10.6556 109.778 10.6556C115.745 6.12992 120.405 3.36422 120.405 3.36422C125.501 0.866714 129.792 2.25794 129.792 2.25794C139.396 4.6884 149.068 4.65488 149.068 4.65488C153.912 4.80574 157.365 5.64383 157.365 5.64383C166.181 5.00688 171.679 6.59925 171.679 6.59925C177.948 5.12421 179.054 5.92878 179.054 5.92878C189.279 1.82214 192.95 2.72727 192.95 2.72727L193.168 3.26365C196.487 4.13526 196.487 7.25296 196.487 7.25296C196.755 9.59961 196.135 11.192 196.135 11.192C195.012 14.5779 193.453 15.768 193.453 15.768C192.062 17.3938 191.073 17.8799 191.073 17.8799C183.781 19.1203 177.11 20.7462 177.11 20.7462C171.528 22.6571 168.461 22.9755 168.461 22.9755C164.053 23.579 161.203 24.0483 161.203 24.0483C149.939 23.8471 143.888 26.6799 143.888 26.6799" stroke="#053C5E" stroke-width="1.49451" stroke-linecap="round" stroke-linejoin="round"/>
<path d="M123.306 105.98L123.708 109.248C124.563 112.617 127.496 114.662 127.496 114.662C131.988 119.54 140.218 119.49 140.218 119.49C146.169 124.619 151.868 125.608 151.868 125.608C152.438 128.022 154.516 128.072 154.516 128.072C156.595 130.15 158.304 131.977 158.304 131.977C163.97 140.928 171.177 135.095 171.177 135.095C173.675 133.855 176.223 133.436 176.223 133.436C180.212 132.53 181.972 131.391 181.972 131.391C187.889 128.273 194.811 126.312 194.811 126.312C201.818 124.317 205.522 121.82 205.522 121.82L209.763 119.49L213.669 116.908L220.507 112.45L223.977 109.785C227.933 106.365 230.983 104.488 230.983 104.488C233.632 103.566 235.14 101.622 235.14 101.622C239.867 96.6602 243.655 94.6656 243.655 94.6656L245.968 93.3749C251.031 91.6317 254.701 89.5365 254.701 89.5365L256.612 89.5029C260.819 90.341 265.295 91.8328 265.295 91.8328L269.904 93.0397L276.391 94.4141L281.034 95.5037L286.951 97.2469L291.309 98.5375L295.013 99.7444L298.601 100.817L305.154 103.114L310.334 105.108L313.837 106.198L319.452 108.494L323.726 109.986L328.118 111.528L330.565 112.45L332.845 113.372" stroke="#053C5E" stroke-width="1.49451" stroke-linecap="round" stroke-linejoin="round"/>
<path d="M103.695 25.2217C95.4654 39.7039 92.2304 57.2199 95.8006 74.9036C97.4433 83.0666 98.9854 85.4133 102.991 92.1515" stroke="#053C5E" stroke-width="6.70472" stroke-linecap="round" stroke-linejoin="round"/>
<path d="M213.635 97.3475C221.848 82.8653 225.1 65.3493 221.53 47.6656C219.887 39.5026 216.92 31.9765 212.914 25.2383" stroke="#053C5E" stroke-width="6.70472" stroke-linecap="round" stroke-linejoin="round"/>
<path d="M108.706 42.0001L106.913 17.9805L87.0332 31.5408L108.706 42.0001Z" fill="#053C5E"/>
<path d="M106.594 100.851L108.757 76.8813L86.916 87.0055L106.594 100.851Z" fill="#053C5E"/>
<path d="M229.072 93.1571L207.583 82.2954L208.924 106.332L229.072 93.1571Z" fill="#053C5E"/>
<path d="M229.826 30.8866L209.293 18.332L208.689 42.402L229.826 30.8866Z" fill="#053C5E"/>
</svg>
