<svg width="233" height="183" viewBox="0 0 233 183" fill="none" xmlns="http://www.w3.org/2000/svg">
<g clip-path="url(#clip0_107_316)">
<path d="M36.3193 180.864L51.8072 168.242L63.0041 157.598L84.2748 133.964L94.4493 122.264C101.506 115.124 103.601 106.508 103.601 106.508L108.898 113.699L114.312 122.616C115.636 130.746 119.793 134.987 119.793 134.987L125.341 142.747L131.795 151.48C137.46 161.336 145.288 167.119 145.288 167.119L147.333 169.449C152.814 176.455 154.507 180.646 154.507 180.646" stroke="#053C5E" stroke-width="1.49451" stroke-linecap="round" stroke-linejoin="round"/>
<path d="M103.601 106.542C103.601 106.542 101.037 103.34 99.461 99.0323L96.3601 93.283C96.3601 93.283 95.522 92.0929 93.9632 88.4388C93.9632 88.4388 88.415 82.6057 88.8676 81.181C88.8676 81.181 87.4596 78.2644 90.108 75.482C90.108 75.482 95.0024 71.0066 103.484 75.7669C103.484 75.7669 110.155 78.8343 115.938 86.5112L117.698 89.2099C117.698 89.2099 122.123 98.1439 129.18 106.055L131.107 107.866C129.951 113.397 130.47 117.504 130.47 117.504" stroke="#053C5E" stroke-width="1.49451" stroke-linecap="round" stroke-linejoin="round"/>
<path d="M131.09 107.899C131.09 107.899 132.666 102.284 134.309 98.6637C134.309 98.6637 134.879 91.8584 136.722 81.4829C138.566 71.1073 133.068 64.1344 133.068 64.1344C126.045 53.7588 118.653 54.2114 118.653 54.2114C110.591 54.7143 111.144 60.9832 111.144 60.9832C110.373 62.9443 114.429 67.1683 114.429 67.1683C116.675 69.7496 117.446 70.4871 117.446 70.4871C116.843 73.8059 116.927 76.5549 116.927 76.5549C116.206 78.449 113.44 83.6954 113.44 83.6954" stroke="#053C5E" stroke-width="1.49451" stroke-linecap="round" stroke-linejoin="round"/>
<path d="M115.652 86.21C115.652 86.21 117.161 82.053 116.926 76.5552" stroke="#053C5E" stroke-width="1.49451" stroke-linecap="round" stroke-linejoin="round"/>
<path d="M122.995 55.1838L121.553 52.0326C119.508 43.9534 118.385 39.8468 118.385 39.8468C117.027 35.824 116.977 34.1813 116.977 34.1813C112.803 25.1635 114.245 14.0504 114.245 14.0504C115.821 8.26757 120.866 8.41843 120.866 8.41843C124.956 8.25081 125.928 11.5026 125.928 11.5026C127.822 13.2291 128.979 16.9167 128.979 16.9167L131.392 24.1242C132.8 28.717 133.555 32.4884 133.555 32.4884C135.281 37.0811 138.734 41.8415 138.734 41.8415C141.299 45.529 142.639 49.6692 142.639 49.6692C144.936 56.8935 147.45 62.5925 147.45 62.5925L151.071 71.1243C153.082 72.3479 154.121 70.9567 154.121 70.9567C154.44 65.4253 153.568 60.7823 153.568 60.7823L156.133 54.2619L158.06 49.9542C159.737 46.0989 159.871 43.6852 159.871 43.6852L160.759 41.7576L161.245 41.3554L167.866 30.8122C168.872 29.2869 169.157 27.8956 169.157 27.8956C172.509 24.6774 174.638 21.1071 176.23 18.0062C179.633 11.335 179.197 7.76472 179.197 7.76472C178.158 2.56856 174.319 2.06571 171.855 1.9819C170.648 1.94838 169.19 2.81999 168.922 3.00437C165.419 5.46835 164.111 6.99368 164.111 6.99368C159.049 12.4077 153.987 22.4145 153.987 22.4145C151.054 27.4263 144.718 32.5387 144.718 32.5387C142.153 34.9524 138.784 41.8415 138.784 41.8415" stroke="#053C5E" stroke-width="1.49451" stroke-linecap="round" stroke-linejoin="round"/>
<path d="M111.915 180.243L113.993 176.891C123.045 160.297 132.884 153.357 132.884 153.357" stroke="#053C5E" stroke-width="1.49451" stroke-linecap="round" stroke-linejoin="round"/>
<path d="M210.608 179.69L209.602 175.181L207.641 166.398L204.842 157.614L202.378 146.937C203.216 134.885 200.819 123.42 200.819 123.42L200.031 112.358C201.205 105.971 199.696 98.8979 199.696 98.8979C199.361 95.1265 200.367 92.1597 200.367 92.1597C203.099 82.9742 201.758 75.6158 201.758 75.6158C202.613 67.7042 203.484 64.0166 203.484 64.0166L197.333 68.425C195.656 70.5872 191.852 72.5986 191.852 72.5986" stroke="#053C5E" stroke-width="1.49451" stroke-linecap="round" stroke-linejoin="round"/>
<path d="M150.049 27.443L150.216 24.6271C149.328 20.8389 149.579 17.5871 149.579 17.5871C149.881 7.3624 152.496 4.34528 152.496 4.34528C155.58 0.90911 159.904 2.23329 159.904 2.23329C163.424 2.75291 163.877 7.22831 163.877 7.22831" stroke="#053C5E" stroke-width="1.49451" stroke-linecap="round" stroke-linejoin="round"/>
<path d="M167.38 31.4321L168.017 33.4771C171.436 40.7349 172.191 48.1604 172.191 48.1604C173.515 56.9771 174.286 65.3412 174.286 65.3412C174.403 73.7892 177.102 77.7282 177.102 77.7282" stroke="#053C5E" stroke-width="1.49451" stroke-linecap="round" stroke-linejoin="round"/>
<path d="M168.118 33.7788L173.532 29.89C180.873 25.4649 185.935 18.8943 185.935 18.8943C200.149 3.2723 205.614 6.05475 205.614 6.05475C211.346 8.01588 211.229 13.6814 211.229 13.6814C211.313 17.084 205.446 22.2466 205.446 22.2466C201.641 26.588 197.417 29.5883 197.417 29.5883C191.081 36.645 182.65 44.9756 182.65 44.9756C182.449 45.7467 181.963 46.1154 181.963 46.1154C180.991 49.4008 177.907 52.8369 177.907 52.8369L175.778 56.0384C174.806 57.6811 173.616 59.1561 173.616 59.1561" stroke="#053C5E" stroke-width="1.49451" stroke-linecap="round" stroke-linejoin="round"/>
<path d="M203.518 64.0004L205.53 62.4415C211.396 58.4187 214.564 55.0161 214.564 55.0161C224.001 48.3281 227.739 43.4169 227.739 43.4169C231.427 38.0867 227.136 34.0303 224.638 32.7564C223.431 32.1362 222.04 32.4882 221.588 32.6391C218.302 33.6783 214.33 37.5503 214.33 37.5503C209.385 41.0703 206.385 43.6516 206.385 43.6516C198.305 49.2332 191.333 52.4348 191.333 52.4348C189.439 48.127 189.757 41.8581 189.757 41.8581C190.159 38.4889 190.528 37.0139 190.528 37.0139" stroke="#053C5E" stroke-width="1.49451" stroke-linecap="round" stroke-linejoin="round"/>
<path d="M191.315 52.4351C191.315 52.4351 193.042 58.3855 192.64 62.1569L192.321 67.6883L191.55 76.22C191.03 84.5507 192.79 88.607 192.79 88.607" stroke="#053C5E" stroke-width="1.49451" stroke-linecap="round" stroke-linejoin="round"/>
<path d="M201.993 82.388C201.993 82.388 204.842 82.1868 207.742 81.8516C207.742 81.8516 213.726 79.3876 220.18 76.689C220.18 76.689 227.085 72.6326 229.449 75.8676C229.449 75.8676 233.941 81.3655 227.89 86.327C227.89 86.327 221.504 92.2774 214.481 93.7525C214.481 93.7525 212.067 95.1102 210.793 95.5125L204.256 97.8088C200.686 98.5128 199.713 98.9989 199.713 98.9989" stroke="#053C5E" stroke-width="1.49451" stroke-linecap="round" stroke-linejoin="round"/>
<path d="M197.082 44.8076C194.668 47.1878 194.869 50.6575 194.869 50.6575" stroke="#053C5E" stroke-width="1.49451" stroke-linecap="round" stroke-linejoin="round"/>
<path d="M202.194 43.1315C198.976 42.6789 197.082 44.8077 197.082 44.8077" stroke="#053C5E" stroke-width="1.49451" stroke-linecap="round" stroke-linejoin="round"/>
<path d="M203.586 43.92C203.586 43.92 203.133 43.3333 202.194 43.1489" stroke="#053C5E" stroke-width="1.49451" stroke-linecap="round" stroke-linejoin="round"/>
<path d="M117.446 70.487L117.781 70.8725C117.781 70.8725 118.2 71.2245 118.435 71.3921C119.575 72.2302 120.581 72.9845 120.581 72.9845C121.553 73.3365 121.72 72.4984 121.72 72.4984C120.698 69.2802 118.921 67.7716 118.921 67.7716C111.211 64.5366 111.127 60.9663 111.127 60.9663" stroke="#053C5E" stroke-width="1.49451" stroke-linecap="round" stroke-linejoin="round"/>
<path d="M93.9628 88.4556L95.7395 90.2156C98.1197 92.6796 100.198 91.2381 100.198 91.2381C103.601 88.1707 102.981 85.2206 102.981 85.2206C100.785 80.6279 97.9018 78.65 97.9018 78.65C93.8287 78.365 91.2306 79.3707 91.2306 79.3707C89.4874 79.9239 88.8672 81.1978 88.8672 81.1978" stroke="#053C5E" stroke-width="1.49451" stroke-linecap="round" stroke-linejoin="round"/>
<path d="M125.911 11.5021L126.849 14.6534L127.151 16.296C127.654 19.816 124.821 19.7825 124.821 19.7825C121.234 20.0171 118.954 17.7878 118.954 17.7878C117.228 14.6031 116.876 13.0442 116.876 13.0442C116.96 10.3623 119.122 9.13873 119.122 9.13873C119.826 8.7532 120.698 8.41797 120.698 8.41797" stroke="#053C5E" stroke-width="1.49451" stroke-linecap="round" stroke-linejoin="round"/>
<path d="M159.87 12.3237L159.434 12.2231C156.853 11.1839 155.663 8.80369 155.663 8.80369C153.618 4.39534 156.35 3.12144 156.35 3.12144C158.043 2.01516 159.92 2.24983 159.92 2.24983" stroke="#053C5E" stroke-width="1.49451" stroke-linecap="round" stroke-linejoin="round"/>
<path d="M185.298 19.665L184.98 19.5812C181.493 18.8101 179.281 21.2238 179.281 21.2238C176.867 23.604 177.068 27.4592 177.068 27.4592" stroke="#053C5E" stroke-width="1.49451" stroke-linecap="round" stroke-linejoin="round"/>
<path d="M180.555 24.5598C180.086 23.7049 180.32 21.4588 180.32 21.4588C181.611 19.5312 183.74 19.6486 183.74 19.6486C184.561 19.5815 185.181 19.833 185.181 19.833" stroke="#053C5E" stroke-width="1.49451" stroke-linecap="round" stroke-linejoin="round"/>
<path d="M198.641 48.5794C197.97 47.976 198.138 45.0762 198.138 45.0762C199.445 43.1486 201.557 43.2659 201.557 43.2659C202.379 43.1989 203.652 43.9532 203.652 43.9532C204.055 44.7242 204.088 45.2103 204.088 45.2103" stroke="#053C5E" stroke-width="1.49451" stroke-linecap="round" stroke-linejoin="round"/>
<path d="M153.534 60.8159C153.534 60.8159 152.562 61.587 151.338 61.587" stroke="#053C5E" stroke-width="1.49451" stroke-linecap="round" stroke-linejoin="round"/>
<path d="M104.573 104.782C104.573 104.782 105.763 103.726 106.333 103.558C106.903 103.408 110.943 100.508 112.585 98.1108" stroke="#053C5E" stroke-width="1.49451" stroke-linecap="round" stroke-linejoin="round"/>
<path d="M102.679 101.245C102.679 101.245 105.646 98.8647 107.976 98.6133" stroke="#053C5E" stroke-width="1.49451" stroke-linecap="round" stroke-linejoin="round"/>
<path d="M117.849 76.8066C117.849 76.8066 118.569 80.6619 123.631 81.9693" stroke="#053C5E" stroke-width="1.49451" stroke-linecap="round" stroke-linejoin="round"/>
<path d="M118.083 74.5933C118.083 74.5933 119.374 78.4485 122.509 79.186" stroke="#053C5E" stroke-width="1.49451" stroke-linecap="round" stroke-linejoin="round"/>
<path d="M130.856 52.2C130.856 52.2 134.393 52.9375 139.606 48.5962" stroke="#053C5E" stroke-width="1.49451" stroke-linecap="round" stroke-linejoin="round"/>
<path d="M128.292 46.5342C128.292 46.5342 132.867 42.5114 137.443 44.4054" stroke="#053C5E" stroke-width="1.49451" stroke-linecap="round" stroke-linejoin="round"/>
<path d="M123.632 28.8171C123.632 28.8171 128.61 28.7333 130.286 28.0796" stroke="#053C5E" stroke-width="1.49451" stroke-linecap="round" stroke-linejoin="round"/>
<path d="M161.463 46.9028C161.463 46.9028 166.039 50.1881 171.051 48.2103" stroke="#053C5E" stroke-width="1.49451" stroke-linecap="round" stroke-linejoin="round"/>
<path d="M163.324 39.5948C163.324 39.5948 166.827 38.3544 169.341 40.8351" stroke="#053C5E" stroke-width="1.49451" stroke-linecap="round" stroke-linejoin="round"/>
<path d="M163.692 43.6853C163.692 43.6853 167.044 43.4674 168.486 44.3391" stroke="#053C5E" stroke-width="1.49451" stroke-linecap="round" stroke-linejoin="round"/>
<path d="M183.136 57.4297C183.136 57.4297 186.991 61.2346 190.93 60.6479" stroke="#053C5E" stroke-width="1.49451" stroke-linecap="round" stroke-linejoin="round"/>
<path d="M183.857 51.4288C183.857 51.4288 188.366 51.2109 191.014 55.2338" stroke="#053C5E" stroke-width="1.49451" stroke-linecap="round" stroke-linejoin="round"/>
<path d="M197.299 75.5493C197.299 75.5493 199.378 78.4659 201.439 79.3542" stroke="#053C5E" stroke-width="1.49451" stroke-linecap="round" stroke-linejoin="round"/>
<path d="M198.105 72.0293C198.105 72.0293 200.887 73.1356 201.239 74.7279" stroke="#053C5E" stroke-width="1.49451" stroke-linecap="round" stroke-linejoin="round"/>
<path d="M13.6069 92.1933C23.4964 63.6312 40.9287 34.1807 75.3406 10.8315" stroke="#053C5E" stroke-width="6.03425" stroke-linecap="round" stroke-linejoin="round"/>
<path d="M68.5525 92.1933C58.6463 63.6312 41.2308 34.1807 6.81885 10.8315" stroke="#053C5E" stroke-width="6.03425" stroke-linecap="round" stroke-linejoin="round"/>
<path d="M21.9045 7.84818L9.43369 25.5654L0.332031 5.90381L21.9045 7.84818Z" fill="#053C5E"/>
<path d="M74.1171 25.7499L81.9449 5.53516L60.54 8.87075L74.1171 25.7499Z" fill="#053C5E"/>
</g>
<defs>
<clipPath id="clip0_107_316">
<rect width="231.983" height="181.396" fill="white" transform="translate(0.332031 0.724609)"/>
</clipPath>
</defs>
</svg>
