<svg width="249" height="187" viewBox="0 0 249 187" fill="none" xmlns="http://www.w3.org/2000/svg">
<g clip-path="url(#clip0_107_679)">
<path d="M22.7578 184.112C24.3837 178.211 26.613 170.132 26.613 170.132C32.2785 151.108 28.5071 141.805 28.5071 141.805L21.1487 133.625L15.6843 127.826L8.49354 120.098C1.67149 114.936 1.9732 109.907 2.22463 106.186L2.81129 103.588L3.02919 80.9763C2.52634 78.043 3.76671 74.3386 6.0966 71.8244C8.52706 69.2095 10.3038 64.4659 10.3038 64.4659L10.9575 63.8793C12.0638 58.9848 12.5499 55.9509 13.6897 53.8892C15.3659 50.8889 17.5784 50.9392 17.5784 50.9392C24.786 50.4195 25.8085 64.181 25.8085 64.181C25.3056 73.7017 20.6458 82.5519 20.6458 82.5519C22.3891 84.7812 21.9533 89.1058 21.9533 89.1058L22.2382 96.3804C24.0485 97.2017 24.0485 100.554 24.0485 100.554C26.0934 101.292 26.0096 102.482 26.0096 102.482" stroke="#053C5E" stroke-width="1.49451" stroke-linecap="round" stroke-linejoin="round"/>
<path d="M19.3721 50.9223L20.009 45.9609C20.7801 40.0104 24.2162 35.1998 24.2162 35.1998C27.9038 30.0371 30.3343 27.2212 30.3343 27.2212C37.9944 11.0963 46.5765 10.3923 46.5765 10.3923C52.728 9.55423 52.6442 16.7283 52.6442 16.7283C52.0743 24.3717 45.202 31.4451 45.202 31.4451C42.0508 41.0832 37.8436 46.162 37.8436 46.162C38.162 52.1627 37.8436 54.5261 37.8436 54.5261C37.4413 61.3482 35.6143 64.9855 35.6143 64.9855L35.6981 66.6784" stroke="#053C5E" stroke-width="1.49451" stroke-linecap="round" stroke-linejoin="round"/>
<path d="M52.376 14.2814L55.3261 9.30318C59.5165 1.99504 63.8578 2.69903 63.8578 2.69903C70.0597 3.60417 69.6742 8.49862 69.6742 8.49862C69.2383 14.734 63.0197 26.2158 63.0197 26.2158C59.8685 37.9491 56.0133 45.2405 56.0133 45.2405C55.7283 56.4709 53.7504 68.003 53.7504 68.003" stroke="#053C5E" stroke-width="1.49451" stroke-linecap="round" stroke-linejoin="round"/>
<path d="M55.8623 49.682L58.0413 46.2626L63.3548 35.7362C67.1933 17.8681 73.7639 17.2647 73.7639 17.2647C81.005 16.4098 80.7033 23.366 80.7033 23.366C80.653 29.3499 76.7643 38.7198 76.7643 38.7198C74.7361 49.5982 71.6352 55.381 71.6352 55.381C71.1993 66.1589 70.1601 74.0537 70.1601 74.0537L74.4008 76.7691C74.602 73.115 75.4736 69.6788 76.2782 66.6449C77.6526 61.3817 80.4183 56.8225 80.4183 56.8225C79.7646 43.9662 85.6815 39.407 85.6815 39.407C92.4868 36.3396 93.8278 45.3239 93.8278 45.3239C94.3809 52.2633 92.3695 58.7669 92.3695 58.7669C91.699 64.5665 89.3691 72.2099 89.3691 72.2099C89.0339 80.859 88.5813 88.385 88.5813 88.385C90.2575 95.911 90.1402 101.258 90.1402 101.258C91.8164 109.907 91.5817 118.908 91.5817 118.908L91.4811 129.736C91.1459 144.99 86.352 153.756 86.352 153.756C82.4465 158.768 81.5581 165.942 81.5581 165.942L79.882 174.256L78.4237 184.279C78.4237 184.279 78.3902 184.447 78.3231 184.749" stroke="#053C5E" stroke-width="1.49451" stroke-linecap="round" stroke-linejoin="round"/>
<path d="M183.404 185.101C181.912 181.463 180.202 177.34 180.202 177.34C176.749 163.411 172.274 155.03 172.274 155.03C159.769 139.492 159.686 119.763 159.686 119.763C157.825 99.2636 159.216 89.9273 159.216 89.9273C156.316 82.5857 155.478 74.7747 155.478 74.7747C150.902 67.5336 149.696 61.2479 149.696 61.2479C143.544 52.8502 144.281 46.464 144.281 46.464C143.997 38.8374 150.718 40.4633 150.718 40.4633C157.657 43.8491 160.423 55.6159 160.423 55.6159C163.775 59.8567 167.513 67.0475 167.513 67.0475C169.609 70.953 172.039 77.5906 172.039 77.5906C173.631 76.1324 175.525 74.959 175.525 74.959C171.184 64.617 170.497 55.5992 170.497 55.5992C164.982 46.816 163.692 37.3958 163.692 37.3958C158.144 26.7186 159.032 21.0028 159.032 21.0028C160.021 15.1194 166.122 15.0021 166.122 15.0021C173.078 14.6333 176.85 32.9204 176.85 32.9204C179.9 38.9715 181.761 44.0168 181.761 44.0168C184.007 47.4362 185.214 51.0567 185.214 51.0567C186.421 53.6213 187.175 55.7333 187.175 55.7333C187.912 61.734 190.427 67.6341 190.427 67.6341" stroke="#053C5E" stroke-width="1.49451" stroke-linecap="round" stroke-linejoin="round"/>
<path d="M187.158 55.716C187.158 55.716 185.951 50.0002 185.566 45.9103C185.566 45.9103 182.582 40.6807 180.168 34.7637C180.168 34.7637 178.777 31.6293 176.715 25.8129C176.715 25.8129 172.056 16.7616 170.195 12.1018C170.195 12.1018 166.005 3.82147 174.201 1.54187C174.201 1.54187 178.308 -0.368979 182.314 5.53117L186.873 11.1464C186.219 18.9574 196.478 28.1764 196.478 28.1764C199.545 34.462 205.512 43.0273 205.512 43.0273C205.227 53.3191 209.988 61.4988 209.988 61.4988C211.111 65.6893 208.58 63.879 208.58 63.879L206.82 53.6878" stroke="#053C5E" stroke-width="1.49451" stroke-linecap="round" stroke-linejoin="round"/>
<path d="M245.204 183.978C244.165 182.034 236.337 167.317 236.337 167.317L230.269 155.902C224.067 142.258 226.733 132.335 226.733 132.335L231.107 121.306L235.348 112.506L239.958 104.192C244.282 98.1575 243.075 93.196 243.478 88.9385C244.433 78.9317 246.227 71.3722 246.227 71.3722C249.059 64.349 245.908 58.5494 245.908 58.5494C245.74 53.6717 245.053 52.4816 245.053 52.4816C245.59 48.6096 245.523 45.6428 245.556 43.3464C245.657 35.2337 241.785 35.7366 241.785 35.7366C232.314 35.9713 228.912 49.3807 228.912 49.3807C227.051 59.5551 228.912 65.5055 228.912 65.5055C225.274 74.1882 225.14 81.0102 225.14 81.0102C223.078 86.1728 218.955 87.4635 218.955 87.4635" stroke="#053C5E" stroke-width="1.49451" stroke-linecap="round" stroke-linejoin="round"/>
<path d="M228.426 52.9001L227.37 49.4304C223.414 37.5966 222.442 35.5349 222.442 35.5349C216.374 26.1818 211.027 21.5556 211.027 21.5556C203.987 10.1408 193.947 5.51453 193.947 5.51453C186.907 4.52559 186.873 11.1633 186.873 11.1633" stroke="#053C5E" stroke-width="1.49451" stroke-linecap="round" stroke-linejoin="round"/>
<path d="M10.2373 64.952L11.0251 64.8682C12.3493 65.0693 13.5561 66.6785 13.5561 66.6785C14.3439 67.4495 15.2156 66.6952 15.2156 66.6952C18.8529 64.0301 18.6182 59.2027 18.6182 59.2027C18.1153 53.0008 15.4837 52.0454 15.4837 52.0454" stroke="#053C5E" stroke-width="1.49451" stroke-linecap="round" stroke-linejoin="round"/>
<path d="M205.982 49.6155C205.982 49.6155 203.635 43.5645 203.183 43.0449" stroke="#053C5E" stroke-width="1.49451" stroke-linecap="round" stroke-linejoin="round"/>
<path d="M202.813 39.2397C203.098 40.1952 203.182 43.0447 203.182 43.0447" stroke="#053C5E" stroke-width="1.49451" stroke-linecap="round" stroke-linejoin="round"/>
<path d="M245.104 52.9842H244.786C241.869 52.4143 241.383 51.241 241.383 51.241C239.757 49.3469 240.159 45.0391 240.159 45.0391C240.159 39.6586 242.271 38.6696 242.271 38.6696C243.076 37.8483 244.618 37.6807 244.618 37.6807" stroke="#053C5E" stroke-width="1.49451" stroke-linecap="round" stroke-linejoin="round"/>
<path d="M37.8266 46.1621C37.8266 46.1621 36.318 47.8383 31.7588 46.9834" stroke="#053C5E" stroke-width="1.49451" stroke-linecap="round" stroke-linejoin="round"/>
<path d="M45.2024 31.4448C45.2024 31.4448 43.6771 31.8974 42.8223 31.646" stroke="#053C5E" stroke-width="1.49451" stroke-linecap="round" stroke-linejoin="round"/>
<path d="M56.0143 45.2407C56.0143 45.2407 55.6791 45.995 52.6787 45.7436" stroke="#053C5E" stroke-width="1.49451" stroke-linecap="round" stroke-linejoin="round"/>
<path d="M63.0198 26.215C63.0198 26.215 61.9303 26.3658 60.7402 25.9971" stroke="#053C5E" stroke-width="1.49451" stroke-linecap="round" stroke-linejoin="round"/>
<path d="M71.6353 55.364C71.6353 55.364 70.2105 55.6993 68.417 55.0791" stroke="#053C5E" stroke-width="1.49451" stroke-linecap="round" stroke-linejoin="round"/>
<path d="M76.7654 38.7028C76.7654 38.7028 75.743 38.8872 74.5361 38.6357" stroke="#053C5E" stroke-width="1.49451" stroke-linecap="round" stroke-linejoin="round"/>
<path d="M205.512 43.0449C205.512 43.0449 205.847 44.2182 210.54 44.7043" stroke="#053C5E" stroke-width="1.49451" stroke-linecap="round" stroke-linejoin="round"/>
<path d="M196.478 28.1935C196.478 28.1935 197.349 28.579 199.863 28.1768" stroke="#053C5E" stroke-width="1.49451" stroke-linecap="round" stroke-linejoin="round"/>
<path d="M185.566 45.9111C185.566 45.9111 185.851 47.3694 189.086 47.2018" stroke="#053C5E" stroke-width="1.49451" stroke-linecap="round" stroke-linejoin="round"/>
<path d="M176.95 25.8639C176.95 25.8639 178.006 25.6963 178.643 25.4448" stroke="#053C5E" stroke-width="1.49451" stroke-linecap="round" stroke-linejoin="round"/>
<path d="M170.496 55.5989C170.496 55.5989 171.602 56.0515 173.061 55.5654" stroke="#053C5E" stroke-width="1.49451" stroke-linecap="round" stroke-linejoin="round"/>
<path d="M163.741 37.8486C163.741 37.8486 164.395 38.1838 165.937 37.5972" stroke="#053C5E" stroke-width="1.49451" stroke-linecap="round" stroke-linejoin="round"/>
<path d="M149.679 61.2143C149.679 61.2143 150.953 61.2478 151.757 60.7617" stroke="#053C5E" stroke-width="1.49451" stroke-linecap="round" stroke-linejoin="round"/>
<path d="M155.461 74.7413C155.461 74.7413 155.729 73.8194 157.422 73.2495" stroke="#053C5E" stroke-width="1.49451" stroke-linecap="round" stroke-linejoin="round"/>
<path d="M89.3521 72.2103C89.3521 72.2103 88.6146 70.467 86.7373 69.9307" stroke="#053C5E" stroke-width="1.49451" stroke-linecap="round" stroke-linejoin="round"/>
<path d="M92.2696 59.0021C92.2696 59.0021 91.2806 59.2368 90.5264 58.9351" stroke="#053C5E" stroke-width="1.49451" stroke-linecap="round" stroke-linejoin="round"/>
<path d="M20.6465 82.5356C20.6465 82.5356 20.0766 83.2732 17.3779 82.8374" stroke="#053C5E" stroke-width="1.49451" stroke-linecap="round" stroke-linejoin="round"/>
<path d="M22.3393 96.3643C22.3393 96.3643 22.5404 97.5879 19.7412 98.8785" stroke="#053C5E" stroke-width="1.49451" stroke-linecap="round" stroke-linejoin="round"/>
<path d="M34.0215 67.1308C36.8039 66.2592 39.8546 68.0695 39.8546 68.0695" stroke="#053C5E" stroke-width="1.49451" stroke-linecap="round" stroke-linejoin="round"/>
<path d="M51.3877 68.1701C55.1256 67.7343 56.2821 68.9411 56.2821 68.9411" stroke="#053C5E" stroke-width="1.49451" stroke-linecap="round" stroke-linejoin="round"/>
<path d="M70.1606 74.0367C68.9706 74.2882 67.9648 73.7686 67.9648 73.7686" stroke="#053C5E" stroke-width="1.49451" stroke-linecap="round" stroke-linejoin="round"/>
<path d="M74.4023 76.769C75.4081 77.2384 76.2461 78.6128 76.2461 78.6128" stroke="#053C5E" stroke-width="1.49451" stroke-linecap="round" stroke-linejoin="round"/>
<path d="M34.5928 103.856C48.2704 104.51 56.9362 116.428 56.9362 116.428C62.2833 121.808 67.9488 129.083 67.9488 129.083" stroke="#053C5E" stroke-width="1.49451" stroke-linecap="round" stroke-linejoin="round"/>
<path d="M172.021 77.5732C172.021 77.5732 170.513 78.5957 169.289 80.3054" stroke="#053C5E" stroke-width="1.49451" stroke-linecap="round" stroke-linejoin="round"/>
<path d="M175.525 74.9417C175.525 74.9417 176.531 74.6903 177.989 73.936" stroke="#053C5E" stroke-width="1.49451" stroke-linecap="round" stroke-linejoin="round"/>
<path d="M187.845 68.7231C187.845 68.7231 189.521 67.2984 193.963 67.6336" stroke="#053C5E" stroke-width="1.49451" stroke-linecap="round" stroke-linejoin="round"/>
<path d="M206.031 65.354C206.031 65.354 207.774 63.1247 213.825 64.8847" stroke="#053C5E" stroke-width="1.49451" stroke-linecap="round" stroke-linejoin="round"/>
<path d="M213.374 90.5303C203.502 94.1676 195.154 107.812 195.154 107.812C187.544 118.724 186.488 128.328 186.488 128.328" stroke="#053C5E" stroke-width="1.49451" stroke-linecap="round" stroke-linejoin="round"/>
<path d="M228.928 65.4722C229.581 66.3941 231.358 66.1426 231.358 66.1426" stroke="#053C5E" stroke-width="1.49451" stroke-linecap="round" stroke-linejoin="round"/>
<path d="M225.156 80.9766C225.341 83.055 226.933 83.6584 226.933 83.6584" stroke="#053C5E" stroke-width="1.49451" stroke-linecap="round" stroke-linejoin="round"/>
</g>
<defs>
<clipPath id="clip0_107_679">
<rect width="247.823" height="186.358" fill="white" transform="translate(0.867188)"/>
</clipPath>
</defs>
</svg>
