<?xml version="1.0" encoding="UTF-8"?><svg id="Layer_1" xmlns="http://www.w3.org/2000/svg" viewBox="0 0 237.41 161.41"><g id="mEndYo"><path d="m19.32,109.85c.54,1.15,1.09,2.3,1.64,3.44.01.03.16.05.18.02.35-.44.66-.9,1.03-1.31.09-.1.39-.07.56-.02.18.05.34.3.49.29.25-.02.49-.19.73-.3-.42,1.13-.18,1.85,1.18,1.8.26,0,.51-.11.76-.17-.07-.27-.13-.54-.22-.8-.04-.11-.15-.2-.23-.3.31-.09.62-.18.93-.27.73.03,1.46.06,2.2.09.49-.43.92-1.12,1.48-1.25,1.06-.23,2.2-.22,3.29-.16,1.34.08,2.67.31,4.01.5.08.01.15.19.22.29-.37.19-.73.39-1.11.55-.08.03-.24-.13-.36-.2.11-.05.23-.08.32-.16.06-.06.13-.22.1-.25-.15-.14-.38-.39-.49-.35-.34.12-.64.35-.94.56-.02.01.08.27.18.35.14.11.34.15.51.22-.07.05-.13.15-.19.14-.37-.01-.74-.09-1.1-.06-.39.03-.84.04-1.13.25-.31.22-.48.65-.71.99.4-.11.83-.38,1.21-.32.99.17,1.96.5,2.95.72.3.07.63,0,.95-.02.21-.02.41-.09.62-.13.05,0,.14.05.16.03.41-.38.83-.75,1.17-1.18.04-.05-.29-.53-.53-.65-.35-.17-.79-.13-1.15-.28-.12-.05-.12-.39-.18-.6.1.08.19.22.3.24.8.12,1.77-.03,2.38.37,2.09,1.38,2.52-1.06,3.8-1.47.67-.21,1.42-.17,2.14-.23,0,0,.06.12.04.17-.28.93-.56,1.87-.84,2.8-.02.05.07.19.07.19.46-.15,1.03-.19,1.35-.5.46-.45.73-1.1,1.11-1.65.05-.08.24-.07.36-.1-.03.11-.05.22-.1.31-2.47,4.28-5.59,7.79-10.76,8.7-4.44.78-8.68.04-12.87-1.61-1.03-.4-2.46.34-3.7.36-3.63.07-6.56-1.93-7.34-5.49-.41-1.86.33-3.95.11-5.88-.2-1.7-1.06-3.31-1.55-4.98-1.63-5.62-3.61-11.17-4.74-16.89-1.65-8.34,2.21-14.58,8.92-19.17,2.24-1.53,4.72-2.95,7.29-3.66,2.04-.56,4.4.07,6.62.13,1.79.05,3.59.04,5.38.03.09,0,.25-.28.26-.43.12-2.77.22-5.54.29-8.3,0-.11-.37-.36-.49-.32-6.11,2.18-12.29,1.73-17.89-1.03-4.84-2.38-9.31-5.59-12.07-10.72C3.62,37.97.71,34.05.37,29.09c-.31-4.45-1.12-9.03,1.43-13.15,1.35-2.18,2.57-4.72,4.53-6.2,2.76-2.08,6-3.93,9.31-4.77,5.73-1.45,11.37.08,16.32,3.11,4.02,2.47,7.63,5.61,11.43,8.45.05.04.34-.1.36-.19,1.69-6.14,4.94-10.9,11.77-11.59,3.97-.4,7.37,1.46,10.06,4.45.46.51,1,1.05,1.21,1.67.73,2.21,2.25,2.19,4.19,1.93,4.66-.64,9.14.27,13.39,2.18,3.98,1.79,8.22,3.23,10.69,7.28.06.1.5.12.64.02,7.31-5.7,15.23-5.32,23.24-2.03,4.52,1.86,8.75,4.34,11.09,9,.19.38.26.83.38,1.24-.3-.3-.58-.66-.93-.9-.26-.18-.63-.2-.95-.3.09.18.26.37.25.55-.03.95-.13,1.9-.16,2.86-.02.96.04,1.91.02,2.87-.07,3.66-.15,7.31-.22,10.97-.01.53.03,1.06.03,1.59,0,.05-.21.16-.23.14-.29-.29-.56-.6-.83-.91-.44-.49-.88-.99-1.31-1.48.04.44.09.87.11,1.31,0,.12-.08.25-.12.38-.04-.14-.09-.28-.12-.42-.08-.31-.15-.62-.23-.93-.28.13-.55.28-.84.38-.17.06-.37.06-.55.07-.01,0-.07-.22-.04-.24.35-.26.71-.51,1.07-.75.16-.1.33-.18.49-.27-.59-.65-1.22-1.26-1.73-1.96-.14-.19.09-.66.2-.99.04-.12.23-.2.35-.3-.19.04-.37.1-.56.13-.32.06-.63.11-.95.14-.02,0-.08-.21-.08-.21.28-.11.57-.19.83-.33.13-.07.28-.28.26-.39-.05-.22-.21-.58-.34-.58-.34-.01-.68.13-1.02.22.06.12.13.23.16.35.02.07-.02.21-.07.23-.18.08-.37.12-.56.18-.05-.21-.13-.42-.13-.63.02-.94.07-1.89.12-2.83,0-.09.09-.19.13-.28.12.1.22.21.35.28.06.03.24,0,.24-.02.03-.36.04-.73.06-1.09-.29.16-.57.35-.87.48-.17.08-.38.07-.57.11,0-.4-.09-.83.02-1.2.11-.39.41-.72.63-1.08-.06,0-.17-.03-.18-.01-.11.22-.19.62-.31.63-.54.04-1.11.07-1.62-.09-.71-.22-1.37-.6-2.05-.93-.04-.02.02-.21.01-.32,0-.3-.02-.59-.04-.89-.09.01-.23,0-.26.04-.16.29-.37.58-.4.89-.07.6-.04,1.21-.05,1.82-.31-.03-.79.05-.91-.12-.23-.32-.25-.79-.35-1.2-.02-.08.02-.18.04-.27-.15.27-.34.54-.43.83-.09.27-.07.58-.1.87-.6-.36-1.2-.7-1.8-1.07-.23-.14-.42-.33-.63-.49-.56-.4-1.13-.79-1.69-1.19-.01,0,.02-.08.04-.12.14-.36.25-.73.43-1.06.06-.1.33-.07.5-.1-.05.1-.12.2-.16.31-.03.11-.06.33-.05.34.61.17,1.22.38,1.84.44.16.02.37-.42.56-.65-.44-.13-.88-.28-1.32-.4-.15-.04-.31,0-.47,0,.02-.14.09-.37.05-.4-.28-.16-.6-.38-.9-.38-.43,0-.87.17-1.3.26-.08.02-.22-.04-.25,0-.46.58-.91,1.16-1.35,1.75.34.06.69.15,1.03.18.15.02.4-.14.44-.09.41.5.79,1.03,1.17,1.56.18.25.32.52.47.79-.74-.15-1.48-.33-2.22-.44-.33-.05-.74.18-1.01.05-.54-.26-.96-.81-1.51-.98-.32-.1-1.16.4-1.14.51.38,2.05-.12.68-.6.2-.44-.43-1.13-.61-1.63-.99-.26-.19-.36-.6-.53-.9-.15.1-.38.17-.45.31-.11.24-.11.52-.16.79-.07-.3-.15-.6-.2-.9-.03-.22-.02-.44-.02-.66-.28.12-.56.36-.83.35-.87-.03-1.75-.15-2.62-.23.1-.1.17-.24.29-.29.63-.28,1.26-.55,1.91-.77.09-.03.28.35.4.33.76-.1,1.55-.18,2.26-.45.21-.08.18-.78.26-1.2-.16.07-.31.19-.47.2-.39.03-.79,0-1.18,0-.08,0-.16,0-.25,0,.01.06,0,.14.04.18.18.15.37.28.56.42-.3-.07-.61-.11-.9-.21-1.07-.37-2.13-.76-3.19-1.15-.06-.02-.14-.12-.12-.16.09-.35.31-.7.27-1.03-.04-.33-.31-.65-.51-.95-.05-.07-.25-.04-.38-.05.02.3,0,.6.06.88.79,4.24.51,8.38-1.57,12.22-3.87,7.14-9.9,11.72-17.59,13.95-3.8,1.1-7.84,2.08-11.75,1.99-6.15-.14-11.33-2.81-15.29-7.88-2.35-3.01-4.12-6.14-4.87-9.82-.79-3.9-1-7.79.84-11.53.13-.26-.09-.7-.14-1.06-.16.2-.28.43-.48.58-.12.09-.37.02-.52.09-.28.12-.59.25-.8.47-.4.4-.74.87-1.11,1.3-.07.08-.17.13-.25.19.12.13.22.34.35.36.21.03.44-.07.66-.12-.27.38-.61.72-.79,1.13-.53,1.23-1.14,2.46-1.44,3.75-.32,1.37-.32,2.8-.46,4.21-.01.11,0,.22,0,.32,1.52,0,1.81.82,1.4,2.79-.09.45.82,1.51,1.39,1.61,2.08.38,2.43,1.04.82,2.94-1.33,1.57-3.03,2.84-4.57,4.24-.1.09-.2.19-.29.28.13.04.26.12.38.1,1.06-.12,2.2-.05,3.17-.43,1.19-.47,2.24-1.31,3.35-2,.13-.08.26-.17.39-.26-.06.13-.09.33-.19.39-1.39.8-2.73,1.77-4.22,2.31-1.15.41-2.49.25-3.74.4-.11.01-.28.37-.27.56.07.96.16,1.93.29,2.89.29,2.07.61,4.13.9,6.19,0,.06-.07.14-.11.21-.16-.2-.41-.37-.48-.59-.52-1.85-.99-3.71-1.49-5.56-.03-.12-.12-.22-.18-.33-.05.13-.16.27-.13.38.4,2.03.81,4.06,1.23,6.09.07.32.19.62.29.93-.15-.23-.31-.45-.46-.69-.2-.32-.4-.64-.58-.97-.23-.43-.43-.86-.64-1.3.03.42.1.84.09,1.26-.01.59-.08,1.17-.14,1.75,0,.04-.09.06-.14.1-.12-.18-.27-.36-.34-.56-.14-.38-.22-.78-.33-1.17-.05.07-.15.14-.14.2.08.59,0,1.56.31,1.7,1.37.64,2.87.98,4.28,1.53,6.16,2.42,10.76,6.58,13.86,12.44,3.83,7.25,2.33,14.04-1.59,20.68-.39.66-.87,1.88-.58,2.22.61.72,1.7,1.03,2.59,1.5-.35-.58-.72-1.15-1.06-1.73-.13-.23-.32-.49-.3-.72.02-.28.23-.54.36-.81.29.24.59.47.87.72.42.37.83.77,1.26,1.14.09.08.3.09.42.04.09-.04.11-.23.15-.35-.12,0-.3.04-.34-.01-.36-.53-.7-1.08-1.04-1.62.63-.32,1.36-.53,1.86-.99.47-.44.72-1.14,1.04-1.74.3-.56.58-1.14.86-1.71.32.22.65.43.96.66,0,0-.11.22-.2.29-.17.13-.36.21-.55.32.16.04.39.16.48.09.22-.16.57-.57.55-.6-.38-.45-.81-.86-1.25-1.26-.09-.08-.26-.09-.39-.13.08-.18.13-.38.23-.55.38-.66.78-1.31,1.17-1.96.14-.22.26-.5.46-.63.15-.1.42,0,.64,0-.13.12-.26.23-.37.36-.02.03.05.21.09.21.14,0,.38,0,.4-.05.21-.71.4-1.42.58-2.14,0-.02-.11-.11-.14-.09-.07.03-.13.1-.2.16-.31.3-.62.61-.93.91.02-.66-.13-1.38.1-1.95.18-.44.85-.67,1.29-1,.26-.2.5-.42.73-.65.01-.01-.33-.29-.3-.38.13-.45.28-.91.52-1.3.12-.19.44-.26.67-.38-.3-.23-.58-.46-.89-.68-.18-.13-.39-.23-.59-.34.07-.05.13-.15.2-.15.38-.02.77-.06,1.15-.02.14.01.25.23.38.35.2-.29.43-.57.58-.89.08-.17.02-.41.02-.62.12.13.25.26.37.39.05.06.11.12.16.17.04-.08.13-.17.11-.23-.22-.65-.47-1.3-.7-1.94-.52.42-1.05.84-1.56,1.27-.07.06-.07.18-.11.27-.05-.11-.17-.27-.13-.34.29-.5.62-.97.91-1.47.13-.23.24-.48.29-.73.02-.08-.18-.2-.29-.31-.05.2-.09.4-.14.6-.02.06-.07.11-.1.16-.02-.05-.07-.1-.07-.15.03-.3.04-.61.13-.9.32-1.01.67-2.01,1-3.01.02-.05-.07-.17-.05-.18.32-.22.65-.42.97-.62.14.32.29.64.43.96.02.05.06.1.09.15.13-.25.28-.49.37-.76.03-.09-.11-.24-.19-.34-.2-.26-.42-.52-.63-.77.35-.03.7-.07,1.05-.09.21-.02.42-.02.63-.03-.14-.11-.28-.25-.44-.33-.14-.08-.3-.1-.46-.14.17-.03.34-.08.51-.1.65-.1,1.31-.35,1.94-.27,2.87.36,5.88.38,8.56,1.32,5.14,1.8,9.1,5.24,11.26,10.39,1.36,3.23,1.38,6.55.05,9.86-.86,2.14-1.42,4.42-2.47,6.45-.7,1.35-1.97,2.44-3.09,3.53-.59.58-1.4.94-2.13,1.37-.09.05-.29-.1-.45-.14-.23-.06-.66-.19-.68-.14-.79,1.76-2.45.93-3.71,1.24-.25.06-.56-.16-.85-.18-.16,0-.33.13-.5.21.15.04.31.06.44.12.14.07.27.19.4.28-.13.04-.26.07-.38.11-.59.2-1.18.42-1.78.59-.14.04-.35-.07-.47-.17-.07-.06-.02-.25-.02-.39.13.05.27.13.4.14.14.01.29-.04.43-.06-.07-.1-.12-.24-.22-.29-.34-.18-.83-.57-1.01-.46-.35.22-.47.8-.81,1.08-.41.34-.94.56-1.45.76-.17.07-.44-.08-.66-.13.11-.06.23-.11.33-.19.02-.02,0-.15-.02-.16-.14-.05-.3-.12-.44-.1-.1.01-.2.14-.28.23-.38.43-.76.86-1.12,1.31-.51.64-1.01,1.3-1.5,1.96-.05.06,0,.23-.05.25-.18.07-.36.13-.55.13-.47,0-.97.06-1.41-.06-.39-.11-.71-.44-1.06-.67-.04-.02-.08-.1-.09-.1-.28.19-.55.38-.81.59-.05.04-.08.17-.05.21.1.13.23.24.35.35-.36.01-.72.03-1.09.04-.54.01-1.3-.21-1.57.06-1.13,1.13.31.98.76,1.2.98.48,2.02.85,3.03,1.26-.49.17-.96.4-1.47.48-.56.09-1.15.05-1.73.04-.4,0-.8-.04-1.2-.06.42.61.72,1.39,1.29,1.79.55.38,1.37.37,2.07.54.07.02.13.09.2.14-.1.03-.22.03-.29.09-.26.22-.5.46-.75.7.12.13.27.39.37.37.32-.06.76-.13.9-.36,4.25-6.69,11.16-8.28,18.24-9.49,2.13-.37,4.29-.62,6.43-.9.25-.03.68.02.75.16.44.94,2.7-.23,2.12,1.83.47.1.94.2,1.41.3.95.21,1.9.48,2.87.6.41.05.86-.2,1.29-.34.02,0-.02-.37-.05-.38-.41-.05-.87.04-1.23-.12-.49-.22-.86-.67-1.34-.94-1.46-.84-2.98-1.57-4.4-2.48-.53-.34-.88-1-1.21-1.57-.08-.14.32-.51.3-.75-.06-.71-.42-1.44-.31-2.1.34-2.06.64-4.17,1.34-6.12.72-2,1.62-4.04,2.91-5.7,2.53-3.26,9.04-3.73,12.25-1.14.11.09.04.39.1.58.14.43.32.85.45,1.28.04.12-.04.28-.06.42-.11-.07-.23-.12-.32-.2-.11-.1-.21-.22-.31-.32,0,.16-.02.31,0,.47.07.63-.09,1.59.25,1.83,1.9,1.33.48,3,.71,4.47.08.49,1.11.85,1.74,1.2.1.06.39-.22.59-.34.03.52.06,1.03.07,1.55,0,.12-.06.24-.09.35.09-.03.19-.05.25-.11.31-.27.62-.55.92-.82.05.45.19.92.13,1.36-.58,4.33-5.41,9.71-9.55,10.88-1.61.45-2.22,1.69-1.21,3.17,3.89,5.7,4.57,11.84,3.42,18.56-.98,5.74-4.79,9.56-7.86,13.99-1.47,2.12-2.26,4.77-3.04,7.28-.66,2.14-3.95,5-6.16,5.33-1.8.26-3.49,1.31-5.28,1.54-2.01.26-4.12.2-6.11-.16-.93-.17-1.58-1.52-2.51-2.1-.64-.4-1.53-.48-2.31-.53-2.51-.17-5.08,0-7.54-.44-4.14-.73-7.79-2.65-11.12-5.25-1.13-.88-2.66-1.24-4.01-1.84-.16-.07-.32-.14-.48-.21.17,0,.34,0,.51,0,.21,0,.41-.03.62-.04-.02-.06-.02-.16-.06-.18-.54-.21-1.08-.4-1.61-.6,0,.12.03.24.03.36,0,.09-.02.18-.03.27-.13-.18-.25-.38-.4-.55-.33-.37-.61-.82-1.01-1.08-1.14-.75-2.52-1.24-3.47-2.18-2.66-2.64-4.42-5.95-4.42-9.66,0-3.19.82-6.41,1.54-9.55.36-1.58,1.3-3.03,1.99-4.54.05-.12.25-.17.37-.25.09.25.2.49.27.74.02.07-.04.17-.07.25.16-.06.41-.07.47-.19.27-.53.39-1.17.76-1.6.31-.35.9-.47,1.37-.67.19-.08.39-.13.59-.19-.04-.09-.09-.18-.13-.27-.06.06-.12.14-.19.19-.04.03-.12.01-.18.02,0-.08-.04-.18,0-.25.35-.68.66-1.4,1.11-2.02.17-.23.66-.31,1-.32.23,0,.45.27.69.38.13.06.29.08.43.09.35,0,.88-.16,1,0,.29.38.38.91.55,1.39-.32-.03-.63-.05-.95-.08-1.86-.16-.93,1.34-1.24,2.09-.36-.59-.71-1.17-1.07-1.76-.63.7-1.28,1.39-1.88,2.11-.26.32-.42.72-.62,1.08.19.03.42.14.56.08,1.01-.49,2.01-1.01,3.01-1.52.26-.14.52-.28.77-.42-.18.2-.33.43-.53.59-.42.33-.84.66-1.3.94-.21.13-.48.15-.72.21.12.1.23.28.35.28.34,0,.75.05,1.01-.11.58-.39,1.08-.9,1.63-1.35.07-.05.29-.03.34.03.09.13.19.39.13.46-.26.28-.57.51-.86.76-.24.21-.5.42-.7.67-.03.04.3.28.33.46.07.33.02.68.06,1.01.21,1.75.45,3.5.65,5.25.33,2.87-1.01,5.11-3.74,6.38-.13.06-.22.23-.33.35.15,0,.31.03.45,0,.66-.16,1.34-.3,1.98-.54.24-.09.36-.47.57-.68.53-.52,1.09-1.02,1.63-1.53.08-.08.1-.21.15-.32.13.11.3.2.39.34.25.38.46.79.68,1.19.09.17.15.36.21.54,0,.02-.07.06-.07.08.21,1.19.4,2.39.66,3.58.05.24.47.37.61.61.19.32.17.83.42,1.03.88.7,1.86,1.27,2.76,1.96,1.56,1.2,1.3-.33,1.62-1.03.04-.09.23-.2.28-.17.13.07.28.19.31.32.16.64.28,1.28.43,1.92.02.08.14.15.23.18.44.16.89.31,1.33.46-.1-.31-.29-.62-.3-.94-.11-3.84-1.06-7.92-.07-11.45,1.38-4.89,4.23-9.37,6.43-14.03.07-.15-.13-.61-.21-.62-2.6-.11-4.79-2.28-4.74-3.89.11-4.28-4.46-4.38-5.5-7.39-.64-1.84-1.57-3.59-2.45-5.34-.11-.22-.87-.39-1.05-.24-4.84,4.03-10.64,5.1-16.53,4.26-4.83-.69-9.48-2.6-14.22-3.96-.15-.04-.46-.04-.48.03-.09.21-.18.53-.08.68.48.67.35,1-.55,1.55-.18.11-.28.73-.22.76,1.71,1,.33,1.62-.18,2.47-.21.35.2,1.07.36,1.62.04.14.16.26.25.39-.43-.27-.86-.55-1.29-.82-.03.38-.1.76-.08,1.14.01.22.15.45.26.66.29.53.59,1.06.89,1.59.12-.12.25-.23.35-.36.07-.1.13-.24.11-.35-.09-.56-.21-1.12-.33-1.67Zm16.76-76.21c-.33.45-.69.89-.98,1.36-.12.2-.1.49-.14.74.26-.17.53-.35.8-.52.1-.06.21-.14.32-.15.21-.03.42-.01.63-.02-.03-.15-.04-.32-.1-.46-.16-.33-.36-.65-.54-.97.08-.27.15-.55.26-.82.14-.32.3-.63.48-.94,0-.01.24.07.34.15.14.11.26.26.38.39.09-.4.19-.8.27-1.2.01-.07-.09-.16-.14-.24-.03.18-.06.37-.12.54,0,.02-.24-.07-.37-.06-.28.02-.79.03-.81.13-.14.67-.19,1.37-.26,2.06Zm45.03,6.05c.32-.32.84-.6.89-.96.07-.51-.19-1.07-.34-1.6-.08-.29-.22-.56-.33-.85.09.41.2.83.26,1.24.03.21,0,.43-.04.64,0,.03-.28.04-.28.03-.17-.62-.45-1.26-.41-1.87.02-.21.85-.37,1.31-.54.08-.03.27-.03.27-.03-.05-.66-.1-1.32-.17-1.97,0-.04-.07-.09-.11-.1-.37-.07-.74-.18-1.1-.18-.49,0-.98.08-1.47.13.01.05.04.11.04.16,0,.9,0,1.81,0,2.71,0,.16.04.31.07.47.14-.03.29-.03.42-.08.1-.04.17-.13.26-.2.12.46.23.91.33,1.37,0,.01-.22.1-.33.1-.11,0-.23-.06-.34-.09.06.13.1.28.18.4.3.42.61.82.92,1.23-.58-.43-1.17-.84-1.72-1.3-.19-.16-.27-.46-.4-.7-.05.89-.11,1.77-.13,2.66,0,.02.33,0,.41.1.17.2.28.44.4.68.03.07,0,.16,0,.25-.08-.02-.16-.02-.22-.06-.12-.08-.23-.19-.34-.28.09.5.14,1.01.29,1.5.04.12.52.25.54.22.42-.7.84-1.4,1.18-2.14.11-.24.02-.58.02-.88,0-.02-.02-.04-.04-.05ZM20.31,20.99s0,0,0,0c.04-.37,0-.79.15-1.11.31-.63.93-1.17,1.05-1.81.17-.97.09-2-.02-2.99-.06-.47-.45-.9-.69-1.35,0,.41-.03.82,0,1.22.03.79.09,1.58.13,2.38,0,.1-.05.21-.08.31-.04-.04-.1-.07-.12-.12-.1-.26-.2-.53-.29-.8-.09.43-.16.87-.27,1.3-.08.3-.2.6-.31.9-.07-.06-.2-.13-.2-.19.05-.63.1-1.26.2-1.88.03-.23.17-.44.26-.66-.18.21-.35.42-.54.62-.19.21-.4.4-.6.6.03-.17.1-.34.08-.5-.05-.57-.13-1.14-.2-1.71-.4.14-.79.34-1.2.41-.22.04-.48-.15-.72-.24-.02,0-.02-.1,0-.15.19-.45.39-.9.59-1.35-.14.07-.33.1-.42.21-.12.14-.11.42-.24.52-.84.58-1.71,1.13-2.57,1.69-.03.02-.12-.04-.18-.06-.28-.1-.6-.35-.83-.28-.46.14-.93.39-1.28.72-.24.23-.88.71-1.06.49-.12-.14-.15-.37-.17-.56,0-.11.1-.22.16-.33.05.16.05.36.15.48.14.18.35.32.53.47-.93-.55,1.63-1.65-.31-2-.69-.12-1.42-.09-2.13-.06-.28,0-.55.2-.83.29-.09.03-.27-.02-.27,0-.24.94-.46,1.88-.68,2.82-.07.3-.02.85-.15.88-.37.11-.81.05-1.21-.01-.07-.01-.07-.4-.1-.61-.04.33-.09.67-.12,1-.03.28-.06.56-.08.84-.1-.03-.26-.02-.29-.08-.09-.2-.14-.41-.2-.62.01.32.04.64.03.96,0,.05-.16.11-.25.15-.1.04-.28.04-.29.09-.03.13.01.27.04.4.11.53.26,1.05.33,1.59.02.13-.33.33-.3.43.05.17.28.29.43.43.13-.28.29-.55.37-.84.07-.28.04-.58.06-.88.22.33.44.66.64.99.09.15.16.32.25.47.06.11.14.2.22.3-.16.04-.34.07-.48.14-.28.14-.56.28-.81.46-.16.11-.25.35-.42.41-.13.05-.32-.08-.49-.13.22.36.44.72.65,1.08.14-.12.27-.26.42-.35,1.54-.94,3.07-1.91,4.66-2.75.25-.13.81.36,1.24.5.96.33,1.93.62,2.9.92.03,0,.12-.06.13-.1.03-.12.02-.36.06-.37.18-.03.38,0,.57,0-.02.34-.02.69-.07,1.03-.02.12-.23.29-.2.32.19.23.42.44.63.65.08-.17.12-.39.25-.49.43-.33.9-.62,1.36-.93-.04.45-.07.91-.13,1.36-.05.34-.26.68-.21.99.15,1.07.22,2.2.64,3.17.36.83,1.15,1.48,1.76,2.19.08.09.34.12.34.17,0,.2-.06.57-.14.58-1.57.26-2.89.73-2.66,2.74.04.36,0,.72-.02,1.08.07-.06.15-.11.22-.17.1-.08.2-.17.29-.25-.02.15,0,.41-.06.43-.43.13-.86.22-1.3.31-.27.05-.54.07-.81.12,0,0,0,.13.02.2.24.89.49,1.78.71,2.68.03.11-.08.26-.12.39.36-.17.72-.34,1.09-.52.05-.02.09-.07.13-.1-.15-.06-.36-.07-.45-.18-.23-.27-.51-.57-.56-.89-.07-.39.07-.81.12-1.22.07.03.18.04.2.1.63,1.27,1.29,1.6,2.21.2.2-.31.8-.36,1.22-.53.07.41.15.82.22,1.23.02.12.03.24.04.35.06-.11.15-.21.18-.33.23-.79.44-1.59.67-2.38,0-.03.04-.06.07-.09.04.05.07.11.12.15.55.54,1.12,1.08,1.66,1.63.17.17.29.39.43.58-.17-.07-.34-.2-.51-.21-.7-.03-1.41-.02-2.11-.03.04.31,0,.65.13.92.15.32.44.58.67.86-.18.06-.37.13-.55.19.1.09.21.18.31.27.2-.26.43-.51.6-.8.11-.19.15-.43.22-.65.05.22.11.45.16.67.04.19.08.38.13.57.05-.16.07-.35.17-.48.15-.2.36-.35.55-.52.05.07.15.14.15.22,0,.3-.01.6-.02.89-.11-.08-.23-.15-.34-.23.03.36.07.72.1,1.08.38-.27.76-.53,1.13-.82.08-.07.11-.21.16-.31.09.13.15.28.27.37.32.26.65.51.98.76.11-.25.21-.5.32-.74.06-.13.14-.26.21-.39.02.13-.01.33.06.37.35.21.72.38,1.09.57.01-.19.03-.38.04-.57,0-.09,0-.17,0-.26.08.04.16.08.25.12.12.05.25.1.38.15,0-.11,0-.21-.02-.32-.03-.13-.09-.25-.13-.37.2.08.39.21.59.23.23.03.51.02.69-.08.26-.15.45-.4.67-.61-.12.31-.25.62-.34.94-.08.27-.13.55-.18.82,0,0,.14.05.22.05.87-.04,1.74-.08,2.6-.14.07,0,.18-.13.18-.19,0-.36-.09-.73-.01-1.07.08-.34.32-.65.44-.99.01-.03-.35-.18-.53-.3-.29-.19-.79-.38-.81-.6-.04-.44.04-1.03.32-1.35.61-.71-.13-3.01,2.12-1.9.17.08.64-.08.64-.09-.08-.85-.2-1.7-.29-2.55-.01-.13.07-.31.18-.4.2-.16.64-.3.63-.4-.06-.37-.24-.72-.41-1.05-.02-.05-.25,0-.38,0,.05-.17.11-.35.16-.52.17.13.32.35.51.38.46.09.94.1,1.41.14-.06-.31-.12-.61-.18-.92-.18.1-.37.29-.54.27-.48-.05-1.02-.37-1.4-.23-.26.1-.3.8-.41,1.23-.06.23-.08.48-.13.72-.05-.04-.13-.08-.16-.13-.27-.73-.66-1.45-.77-2.2-.13-.84-.05-1.72.03-2.57.05-.49.28-.96.43-1.44.03-.09.04-.19.07-.28-.18.19-.35.38-.53.56-.06.06-.14.1-.21.15-.03-.09-.06-.18-.09-.27-.07-.18-.15-.35-.22-.53-.03.19-.03.4-.11.56-.18.33-.4.63-.61.94-.04-.27-.14-.54-.12-.8.02-.17.33-.43.29-.49-.77-1.04-1.56-2.07-2.37-3.08-.09-.11-.24-.17-.37-.25-.11.29-.26.57-.32.87-.02.08.19.24.32.31.33.19.77.29.99.57.19.25.17.68.19,1.04,0,.1-.17.21-.26.31-.17-.26-.35-.52-.52-.78-.11-.19-.2-.38-.3-.58.01.22.02.44.04.66.03.34.08.68.12,1.02-.24-.35-.52-.67-.72-1.04-.39-.75-.74-1.52-1.11-2.28-.05-.09-.15-.17-.16-.27-.1-.84-.17-1.68-.28-2.51-.02-.15-.21-.29-.34-.42-.35-.34-.74-.65-1.05-1.02-.25-.29-.4-.65-.62-.96-.04-.05-.21-.01-.33-.01,0,.35.03.69,0,1.03-.03.32-.13.63-.2.95-.04-.23-.05-.48-.14-.69-.36-.78-.76-1.54-1.14-2.3-.04.04-.12.08-.13.13-.1.74-.2,1.49-.27,2.23-.05.48.06.99-.09,1.43-.17.48-.52.91-.84,1.31-.28.35-.63.65-.95.97Zm46.93,6.18c-.49-.16-1.01-.27-1.48-.49-.73-.35-1.39-.85-2.14-1.16-.59-.25-1.26-.31-1.89-.45-.11-.03-.22-.07-.33-.1.04.1.11.2.11.29-.02.53-.04,1.06-.09,1.59,0,.07-.21.13-.33.19-.14-.44-.35-.86-.4-1.31-.04-.35.12-.72.19-1.08-.38.1-.95.08-1.09.31-.29.49-.37,1.11-.5,1.69-.01.05.17.16.26.24-.1.09-.2.18-.3.27-.08-.25-.16-.51-.24-.75-.15-.42-.3-.84-.45-1.26-.12.35-.22.69-.35,1.03-.07.17-.17.32-.26.49,0-.15,0-.3-.03-.45,0-.04-.19-.09-.21-.07-.15.17-.27.36-.4.55.33.11.66.21.99.33.13.05.35.16.34.18-.13.34-.28.67-.43,1.01-.06-.14-.1-.29-.18-.4-.14-.18-.27-.43-.46-.49-.15-.05-.47.1-.54.24-.07.15.06.41.1.62-.2-.35-.39-.69-.59-1.04.15-.04.31-.09.46-.13l-.17-.26c-.34.47-.69.94-1.02,1.41-.03.04.03.14.06.22.18.49.43.96.53,1.46.07.34-.06.73-.1,1.1.41-.3.82-.61,1.23-.91.15.14.3.27.43.42.08.09.21.21.19.29-.11.37-.15.89-.41,1.06-.38.25-.92.33-1.39.32-.43-.01-.87-.22-1.29-.37-.15-.06-.26-.24-.42-.29-.06-.02-.29.22-.27.29.22.89.25,1.4-.74.49-.13-.12-.5.04-.77.07.13.25.26.49.38.75.03.07.06.16.06.23-.06.7-.12,1.39-.2,2.09-.02.16-.11.32-.17.48-.07-.14-.11-.29-.2-.41-.12-.17-.28-.33-.42-.49,0,.17,0,.35-.03.52-.16.84-.31,1.69-.5,2.52-.03.12-.21.2-.33.29-.07-.18-.15-.36-.19-.54-.04-.19-.03-.39-.04-.59-.1.25-.26.49-.3.74-.09.51-.15,1.02-.15,1.54,0,.2.17.4.28.6,0,.02.21-.03.24-.08.32-.57.52-1.27.97-1.7.66-.63,1.5-1.06,2.25-1.59.11-.08.16-.23.24-.35.03.12.13.27.08.36-.17.38-.38.74-.58,1.1-.06-.09-.12-.17-.17-.27-.04-.08-.07-.18-.1-.27-.07.1-.2.2-.19.3.07,1.43.15,2.86.26,4.29.02.23.15.49.31.65.65.62,1.34,1.19,1.99,1.8.09.09.1.27.15.41.19-.07.42-.1.55-.24.14-.15.3-.42.25-.58-.13-.44-.38-.84-.56-1.26-.1-.22-.19-.45-.23-.68-.02-.15.07-.31.11-.46.6.46,1.21.9,1.79,1.39.09.07.04.3.05.46.14-.28.36-.55.41-.85.07-.38,0-.79,0-1.18.31.35.73.64.9,1.04.39.94.67,1.93.99,2.9.04.14.04.29.06.43.05-.04.11-.07.14-.12.08-.18.11-.38.21-.54.13-.21.32-.55.45-.54.46.04,1.02.08,1.33.36.47.41.85,1.51,1.13,1.47.98-.16,1.89-.68,2.84-1.06.07-.03.18.09.27.09.32,0,.64-.02.96-.05.52-.05,1.05-.08,1.57-.18.18-.03.39-.19.48-.35.15-.27.21-.58.31-.88.11.29.21.58.33.87.03.08.09.15.14.23.08-.15.19-.28.24-.44.03-.12-.02-.27-.03-.41.14.06.36.07.41.18.07.13.07.37-.01.48-.55.73-1.14,1.43-1.71,2.15-.09.11-.14.25-.2.37.16-.04.35-.04.49-.11.39-.21.81-.41,1.14-.7.53-.48,1.01-1.01,1.48-1.55.25-.29.41-.67.69-.93.08-.07.44.15.66.26.04.02.03.14.05.21.13.48.27.95.41,1.43.35-.22.73-.39,1.04-.66.53-.47,1.03-.98,1.51-1.5.4-.43.75-.91,1.09-1.39.02-.03-.38-.27-.38-.41,0-.71.07-1.41.09-2.12.04-1.35.07-2.71.11-4.06,0-.08.13-.16.2-.23.09.09.18.19.27.28-.01-.2-.03-.4-.04-.59-.02-.61,0-1.23-.05-1.84-.01-.15-.19-.32-.33-.43-.23-.19-.54-.31-.73-.54-.17-.2-.23-.51-.33-.76,0,.23,0,.46-.01.69,0,.09-.09.18-.13.27-.06-.06-.12-.11-.17-.17-.1-.13-.19-.27-.29-.4-.06.18-.16.36-.17.55-.09,1.35-.09,1.35-.91,1.53-.03,0-.05.07-.08.1-.18-.31-.37-.61-.54-.93-.08-.14-.1-.31-.15-.47.08-.01.17-.05.25-.04.28.03.55.08.83.12-.03-.1-.06-.2-.1-.29-.13-.31-.26-.63-.39-.94-.05.09-.09.19-.14.27-.07.11-.15.2-.23.3-.01-.11-.03-.23-.03-.34-.01-1.44.05-2.92-1.8-3.37.19-.32.38-.65.57-.97.36,1.64.59-.4.9-.03.04-.21.16-.45.1-.62-.08-.2-.32-.34-.49-.5,0,.08,0,.16.02.24.04.15.1.29.15.44-.14-.09-.3-.27-.41-.24-.3.07-.74.14-.85.36-.23.45-.28.99-.41,1.49.14-.06.29-.12.43-.18-.54.35-1.05.77-1.63,1.03-.25.11-.65-.09-.98-.17-.01,0,.03-.23.05-.35.3.05.62.18.9.13.27-.05.72-.3.71-.44-.05-.7-.24-1.39-.33-2.08-.07-.52.06-1.13-.17-1.54-.14-.25-.81-.23-1.24-.3-.35-.06-.71-.08-1.07-.11.49-.06.98-.09,1.46-.2.15-.04.36-.31.34-.45-.05-.3-.22-.59-.35-.88-.44.3-.86.61-1.31.89-.16.1-.39.16-.58.15-.28-.01-.56-.11-.84-.17.27.19.58.33.81.57.31.32.77.7.78,1.06.01.4-.41.82-.65,1.23-.85-1.29-1.36-1.02-1.62.36l.02-.02Zm12.05,93.49c-.19-.22-.39-.45-.58-.67-.36-.42-.71-.85-1.07-1.26-.02-.02-.13.04-.2.07.18.28.5.55.52.84.04.55-.1,1.11-.16,1.67-.18-.08-.37-.26-.52-.23-.2.04-.4.22-.55.38-.08.09-.05.27-.08.4.18.03.4.13.52.06.73-.41,1.43-.85,2.14-1.29-.07.4-.05.85-.24,1.19-.19.36-.57.63-.87.94-.07.08-.13.17-.21.25-.56.55-1.13,1.1-1.7,1.64-.05.04-.18,0-.27,0,0-.14.04-.28.02-.41-.1-.78-.21-1.56-.32-2.34,0,0-.16-.02-.17,0-.15.37-.29.73-.42,1.11,0,.03.06.11.1.12.16.02.32.02.49.03-.12.26-.21.54-.37.77-1.32,1.88-1.2,1.04-.78-.41.06-.21-.01-.46-.02-.69.1,0,.2,0,.31-.01-.08-.16-.16-.32-.24-.48-.45.28-.91.54-1.33.86-.04.03.29.41.26.61-.13.89-.33,1.77-.51,2.66-.34-.12-.68-.32-1.03-.34-.22-.02-.47.22-.7.34.08.14.17.29.25.43.07.13.16.25.2.39.02.08-.05.18-.08.27.25.05.51.16.75.13.15-.02.26-.27.38-.42-.04.32-.09.65-.13.97-.22-.04-.43-.07-.65-.11.08.64.14,1.29.23,1.93.04.27.12.53.18.8-.11-.14-.21-.28-.31-.43-.2-.29-.39-.59-.61-.87-.07-.09-.21-.14-.31-.21-.02.08,0,.18-.06.24-.16.19-.34.37-.52.55-.19.2-.47.37-.54.6-.09.33-.01.7,0,1.06-.25-.1-.68-.15-.72-.3-.07-.26.13-.58.18-.88.02-.12-.12-.38-.14-.37-.4.09-.78.22-1.18.33-.22.06-.58.02-.64.14-.1.19-.09.59.04.7.27.24.66.36,1,.53-.06-.17-.18-.36-.16-.52.02-.13.22-.24.33-.35.28.55.56,1.11.84,1.66-.29.07-.6.1-.86.23-.32.16-.6.4-.89.6.1.12.21.24.29.37.16.28.46.81.44.83-1.93,1.27-.69,2.68-.24,4.07.13.39.17.8.21,1.21.02.2-.06.42-.06.63.01.46-.04.94.1,1.37.25.79.62,1.54.95,2.3,0,.01.22-.03.23-.07.44-1.74.86.49,1.28,0,.13.34.25.69.41,1.03.04.09.2.19.31.19.71,0,1.44-.15,2.11,0,.45.1.78.84,1.21.9.44.06,1.39-.46,1.36-.57-.21-.99-.52-1.91,1.08-1.76.12.01.23,0,.35-.01-.1.34-.17.68-.31,1-.02.05-.37,0-.54-.07-.11-.05-.17-.22-.25-.34.04.49.08.98.13,1.47,0,0,.27.04.35-.03,1-.81,2.69-1.01,2.52-2.85,0-.06.09-.13.14-.2.04.14.07.28.12.41.07.17.15.34.24.49,0,.01.2-.04.25-.11.1-.12.17-.27.24-.4.08.19.13.39.24.56.24.38.51.75.77,1.12.13-.17.22-.38.38-.52.29-.26.67-.7.92-.65.49.09.92.48,1.38.75-.36-.37-.73-.74-1.09-1.13-.08-.09-.09-.24-.15-.36-.06-.1-.14-.19-.21-.28-.06.09-.12.17-.18.26-.1.16-.19.32-.29.49-.08-.2-.2-.4-.23-.6-.05-.38-.16-.81-.03-1.13.09-.22.55-.3.85-.41.03-.01.19.19.22.31.1.49.11,1.01.29,1.47.11.28.46.46.7.68-.01-.38-.04-.77-.03-1.15.02-.5.19-1.02.09-1.48-.1-.43-.5-.79-.69-1.22-.09-.2-.02-.48-.03-.72-.18.08-.35.21-.54.23-.2.02-.59-.05-.6-.12-.05-.47-.03-.94-.03-1.41.21.06.43.1.63.18.11.04.2.12.29.19.09-.49.18-.98.27-1.47-.11-.02-.22-.04-.33-.05-.13,0-.27,0-.41,0,.1-.2.19-.41.3-.6.17-.29.39-.55.54-.84.08-.17.07-.38.1-.58.2.13.4.25.58.39.22.17.39.45.63.53.69.24,1.72.8,2.05.53.89-.71,1.48-1.79,2.2-2.72.11-.14.3-.22.45-.32.12.28.3.55.35.84.02.11-.27.26-.42.39.18.05.36.1.54.15.09-.35.31-.73.25-1.05-.11-.63-.52-1.22-.53-1.84-.01-.67.28-1.34.44-2.01.35.28.71.56,1.06.84.2-.45.55-.89.57-1.34.01-.5-.29-1-.45-1.5.04.44.11.87.11,1.31,0,.1-.23.3-.32.28-.31-.08-.61-.22-.91-.35.05-.05.1-.15.14-.15.24.01.47.05.7.08-.26-.17-.54-.32-.77-.53-.14-.14-.28-.36-.28-.55,0-.85.09-1.71.04-2.55-.02-.39-.32-.75-.44-1.14-.02-.08.23-.22.33-.36.15-.22.37-.45.4-.69.04-.33-.07-.69-.12-1.03-.12.12-.29.37-.34.34-.45-.18-.87-.41-1.3-.64-.01,0,0-.12.04-.16.11-.13.24-.25.36-.37-.23-.02-.46,0-.68-.07-.49-.15-.98-.32-1.45-.53-.11-.05-.11-.32-.16-.49-.07.07-.21.17-.2.2.17.37.32.77.58,1.09.15.18.47.21.72.31-.22.06-.5.06-.64.2-.38.36-.73.77-1.03,1.2-.08.12.08.39.12.6-.17-.35-.43-.69-.46-1.05-.02-.27.44-.77.38-.83-.61-.57-1.24-1.39-1.95-1.49-.83-.11-1.98,1.32-2.28-.68-.02-.13.03-.27.06-.41.04-.16.14-.31.12-.46,0-.1-.17-.19-.26-.28-.06.15-.1.3-.18.44-.08.15-.2.27-.3.41-.02-.09-.03-.18-.05-.27-.03-.15-.07-.29-.1-.44-.29.26-.58.53-.87.79.16.09.32.18.48.26.29.13.58.24.87.36-.16.18-.3.52-.47.52-.77.04-1.54-.02-2.31-.04Zm-33.74-40.3l.02.02c-.14-.46-.28-.93-.42-1.39-.26.24-.52.48-.78.71-.2.18-.41.35-.63.5-.11.08-.35.19-.36.17-.16-.2-.27-.44-.4-.66.14.02.34.1.4.04.47-.48.94-.97,1.34-1.5.04-.05-.42-.46-.65-.71.03.45.1.9.09,1.35,0,.15-.15.37-.28.42-.12.05-.37-.04-.46-.15-.48-.58-.93-1.18-1.4-1.76,0,0-.16.06-.19.12-.15.28-.28.56-.42.84-.11-.53-.21-1.07-.33-1.6-.09-.38-.2-.76-.31-1.14-.19.21-.36.44-.57.61-.1.08-.29.09-.44.09-.42,0-.85,0-1.27,0,.21.18.49.33.6.55.1.21.05.53-.04.75-.04.09-.44.16-.52.08-.14-.14-.15-.4-.24-.6-.05-.11-.14-.21-.2-.32-.21-.34-.46-.68-.58-1.05-.02-.07.42-.39.68-.45.43-.1,1.09.08,1.29-.16.24-.28.09-.89.11-1.35-.27.23-.54.45-.82.67-.04.03-.18.03-.18.02-.03-.12-.01-.27-.08-.36-.17-.22-.38-.42-.57-.63-.04-.04-.1-.07-.16-.11.07.19.19.38.2.58,0,.13-.14.39-.19.38-.75-.1-1.04.05-1.44.66-.14.21-.42.32-.63.48.06-.27.08-.56.19-.81.11-.26.31-.48.47-.72-.23-.03-.47-.1-.7-.09-.49.02-1.03.24-1.44.09-.54-.2-.98-.67-1.46-1.02-.05.15-.07.31-.15.43-.1.13-.32.2-.37.34-.04.12.07.3.12.45-.12-.09-.23-.19-.36-.25-.13-.06-.39-.13-.42-.08-.27.4-.56.82-.7,1.27-.03.08.6.37.92.56.08-.13.14-.28.23-.4.29-.35.54-.89.89-.98.34-.08.79.32,1.2.49.23.09.67.09.7.21.21.76.33,1.55.47,2.32.02.1,0,.21-.01.32-.08-.01-.2,0-.23-.04-.4-.6-.72-1.26-1.19-1.8-.27-.3-.76-.41-1.15-.6-.07.29-.14.57-.2.86-.05.23-.08.46-.13.69-.12-.17-.21-.38-.37-.5-.26-.2-.57-.33-.85-.49-.03.23-.04.45-.08.68-.05.29-.13.57-.2.86-.04-.09-.12-.19-.11-.28,0-.22.1-.45.08-.66-.02-.19-.15-.37-.23-.55-.07.18-.14.37-.2.55-.08-.08-.21-.16-.23-.26-.17-.77-.33-1.55-.48-2.32-.68.37-1.35.74-2.03,1.1-.1.05-.22.05-.33.07.04-.1.07-.2.12-.29.08-.14.18-.27.26-.41-.24.04-.48.11-.72.1-.37,0-.77,0-1.09-.14-.26-.11-.43-.44-.64-.66-.16.23-.32.47-.48.7.27.13.71.21.79.42.26.67.39,1.39.56,2.1.01.06-.08.14-.12.21-.35-.45-.66-.94-1.07-1.33-.36-.34.06-2.32-1.33-.69-.3.36-.65.68-.98,1.01-.05-.08-.13-.16-.15-.25-.04-.24-.06-.48-.08-.72-.2.13-.47.21-.59.4-.13.2-.18.49-.18.74,0,.39.09.78.13,1.16-.08-.24-.14-.48-.24-.7-.02-.05-.23-.07-.24-.06-.26.64-.52,1.27-.74,1.92-.14.43-.22.88-.33,1.32,0,.03-.11.02-.12.05-.19.52-.53,1.06-.51,1.57.07,1.46.4,2.91.41,4.37.01,1.1-.3,2.21-.47,3.32,0,0,0,0,0,0-.27.18-.67.3-.77.55-.19.43-.2.95-.28,1.43.12-.23.18-.52.36-.66.21-.16.52-.2.8-.27.05-.01.13.06.18.11.3.33.57.7.92.97.14.11.44,0,.67.02.49.04.97.15,1.46.13.42-.02.82-.23,1.24-.27.11-.01.34.28.36.44.03.22-.18.64-.15.66.42.18.88.28,1.31.44.27.1.52.27.78.41-.1-2.29,1.04.31,1.41-.34.08-.13.56-.16.77-.06.53.26.98.74,1.53.89.32.09.79-.28,1.16-.49.11-.06.11-.31.16-.48.05.18.2.4.15.54-.2.48-.46.94-.7,1.4.78.13,1.56.35,2.33.34.18,0,.35-.78.51-1.2.12-.3.25-.6.31-.91.02-.08-.18-.21-.28-.31.3.03.6.05.9.11.05.01.12.17.11.26-.03.27-.09.53-.14.8.2-.23.39-.48.61-.7.08-.08.21-.12.33-.15.65-.14,1.32-.25,1.96-.43.16-.04.24-.34.36-.52.07.34.25.71.18,1.03-.12.51-.4.98-.62,1.47,0,.02-.04.02-.05.04-.14.19-.29.37-.43.56.31.13.61.29.93.37.11.03.27-.1.41-.16-.12-.26-.41-.66-.32-.77.27-.35.67-.61,1.04-.88.13-.1.31-.23.46-.22.97.1,1.95.25,2.92.35.1.01.22-.19.34-.29.05.11.1.23.15.34-.27.1-.54.22-.82.3-.21.06-.43.06-.64.11-.02,0-.03.2,0,.21.59.22,1.2.43,1.79.65.15.06.29.15.44.23.24-.94.48-1.89.71-2.83.03-.14.06-.41.04-.41-.36-.08-.73-.13-1.1-.18.09.15.26.3.26.44,0,.51-.06,1.02-.11,1.53,0,.05-.13.09-.2.13-.13-.64-.29-1.28-.36-1.92-.02-.2.13-.51.3-.64,1.27-.93,1.66-1.86.33-3.12-.25-.24.02-1.04.06-1.59,0,0,.11,0,.17,0-.02.36-.07.71-.07,1.07,0,.16.04.38.14.46.18.14.43.2.65.29-.01-.14-.07-.3-.03-.42.08-.24.2-.47.36-.67.04-.05.27.04.41.06-.24-.18-.52-.33-.71-.56-.13-.15-.17-.42-.16-.63,0-.17.14-.34.22-.51.05.06.12.11.14.18.06.21.1.42.15.63.09-.22.17-.45.26-.67.05-.12.12-.22.18-.33.01.13-.01.28.05.38.34.56.7,1.1,1.05,1.65.16-.49.32-.99.5-1.48.05-.12.18-.21.28-.32.06.2.15.4.18.6.04.26.03.53.05.8.29-.05.63-.02.85-.17.12-.08.09-.46.06-.69-.12-.89-.18-1.81-.45-2.66-.26-.85-.67-1.67-1.15-2.42-.22-.35-.75-.5-1.14-.74Zm20.48,7.57c.2-.03.39-.06.59-.08-.01-.11-.07-.26-.02-.33.34-.45.7-.89,1.06-1.32.02-.03.11,0,.17-.01-.03.1-.04.21-.08.31-.41,1.14-1.29,2.35-1.14,3.41.32,2.23,1.18,4.39,1.84,6.57.16.52.4,1,.59,1.51,0,.02-.15.11-.23.17-.23-.41-.41-.86-.71-1.21-.54-.62-1.16-1.18-1.75-1.77-.14.31-.42.63-.39.93.04.45.3.89.43,1.34.05.17.02.36.03.55.08-.02.23-.04.23-.06,0-.21-.05-.42-.03-.63.04-.32.13-.64.19-.96.08.2.1.46.25.58.68.53,1.43.98,2.08,1.54.6.5,1.12,1.1,1.66,1.67.45.47.89.94,1.34,1.42.04-.26.01-.56.13-.78.14-.27.36-.53.61-.7.13-.09.4.03.61.06-.06-.21-.05-.49-.18-.62-.15-.14-.44-.12-.65-.22-.31-.14-.61-.32-.9-.49-.03-.02,0-.19.02-.2.23-.06.6-.22.69-.12.6.63,1.18,1.3,1.65,2.03.06.09-.65.61-.91.99-.12.17,0,.49,0,.74.5-.24,1.01-.48,1.51-.72.19-.1.38-.21.57-.32-.12.21-.21.43-.35.62-.19.24-.42.43-.64.65.23.12.49.39.68.35.99-.23,1.95-.64,2.95-.77.53-.07,1.16.51,1.69.42.84-.14,1.65-.56,2.44-.92.45-.2.84-.52,1.25-.8.28-.18.55-.38.81-.57.03-.02,0-.11,0-.16-.28.04-.55.08-.83.11-.1.01-.21,0-.32,0,.03-.32.07-.64.1-.96-.43.39-.87.77-1.3,1.16-.1.09-.18.22-.28.31-.02.02-.11-.04-.17-.06.26-.63.38-1.67.79-1.8,1.14-.37,2.4-.37,3.61-.49.14-.01.29.16.44.24-.11-.21-.17-.46-.33-.62-.12-.12-.35-.17-.54-.19-.14-.01-.29.07-.44.11.04-.2.04-.42.13-.59.38-.71.78-1.41,1.19-2.1.28-.49.59-.96.88-1.44.12.31.23.64.37.94.1.2.25.38.38.56,0-.29.07-.6-.01-.86-.17-.54-.52-1.04-.64-1.58-.23-1.09-.47-2.19-.48-3.29,0-.58.47-1.16.72-1.74.14.16.43.34.41.47-.15.98-.36,1.95-.54,2.93-.01.06.04.16.09.21.06.07,1-.03,1-.09.06-.86.14-1.72.15-2.58,0-.39-.11-.78-.18-1.16.37.15.76.27,1.11.46.12.06.14.3.2.46,0-.23.11-.56,0-.67-.23-.23-.65-.28-.87-.51-.51-.55-.96-1.17-1.42-1.77-.03-.03.07-.16.12-.25.29.43.59.85.88,1.28.05.08.1.16.15.24.07-.15.25-.33.21-.43-.17-.47-.35-.97-.63-1.38-.5-.71-1.09-1.35-1.64-2.02-.1-.12-.17-.25-.26-.37-.02.2-.06.4-.04.59.01.13.12.25.18.37-.23-.07-.48-.12-.69-.23-.09-.05-.07-.27-.15-.37-.98-1.18-1.97-2.35-2.95-3.52-.24.21-.62.66-.72.6-1.26-.69-2.46-1.49-3.72-2.17-.5-.27-1.11-.44-1.67-.44-.41,0-.81.36-1.23.49-.19.06-.43-.09-.64-.09-.69-.02-1.62-.3-2.04.03-1.76,1.43-3.38,3.03-5,4.61-.39.38-.77.91-.88,1.43-.35,1.59-.16,3.45-.93,4.77-1.13,1.95.38,3.46.23,5.17,0,.05.38.14.59.18.04,0,.16-.19.15-.28-.2-1.91-.41-3.81-.62-5.72ZM53.58,10.32c-.26.18-.62.4-.93.67-.15.14-.26.38-.28.59-.02.26.15.56.08.79-.03.11-.45.08-.69.15-.14.04-.27.14-.41.2-.54.24-1.08.48-1.62.72-.03.01-.08-.02-.12-.04.01.1.01.2.03.3.04.2.08.39.12.59-.24-.09-.49-.18-.73-.27-.12-.04-.34-.13-.35-.11-.43.86-.8,1.75-1.29,2.58-.27.46-.71.86-1.14,1.2-.36.28-.84.42-1.22.68-.05.03.16.46.27.69,1.08,2.26,2.19,4.51,3.23,6.79.17.38.03.89.04,1.35.37-.52.8-1.01,1.12-1.56,2.14-3.72,4.78-6.91,8.67-8.99,1.19-.63,2.11-1.78,3.15-2.69.05-.04.1-.07.16-.11.03.12.03.29.11.35.16.13.36.26.56.28.18.02.38-.11.57-.17-.16-.03-.37,0-.46-.09-.33-.32-.64-.68-.93-1.05-.03-.04.08-.2.12-.3-.17.03-.37.02-.51.1-.06.04-.03.26-.02.4,0,.21.03.41.05.62-.14-.12-.28-.23-.41-.36-.7-.73-1.41-1.46-2.09-2.22-.05-.05.14-.4.29-.51.09-.07.32.02.49.04-.1-.43-.2-.87-.31-1.3-.2.22-.39.44-.59.66-.03.03-.06.08-.09.08-.57-.03-1.13-.09-1.69-.07-.17,0-.35.36-.51.35-.88-.07-1.75-.21-2.66-.33Zm43.46,93.92s.18-.29.44-.54c.05-.05.42.11.51.25.42.7.8,1.43,1.2,2.15.07-.05.14-.1.2-.15.42-.34.82-.69,1.26-1,.04-.03.26.21.4.33.09-.37.19-.73.28-1.1-.39.16-.78.31-1.16.49-.39.19-.77.4-1.16.6-.01,0-.14-.18-.13-.19.29-.25.59-.48.88-.73.09-.08.22-.21.2-.3-.02-.14-.13-.28-.23-.39-.03-.03-.17.06-.27.09-.17.06-.33.11-.5.17.16-.36.31-.73.5-1.08.01-.02.26.08.4.12.54.16,1.09.33,1.63.49.07-.26.17-.52.21-.79.01-.11-.14-.23-.16-.36-.01-.08.08-.17.12-.26.14.24.31.48.42.74.06.13-.02.32.02.46.02.07.17.1.27.15,0-.52,0-1.04-.03-1.57,0-.1-.09-.2-.12-.31,0-.03.07-.09.12-.11.62-.25,1.26-.45,1.84-.76.34-.18.59-.54.9-.79.03-.02.24.18.37.28-.07-.26-.07-.55-.21-.76-.24-.36-.56-.68-.85-1.01.31-.02.61-.04.92-.06-.04-.16-.09-.32-.12-.49-.06-.25-.12-.5-.17-.75.08.02.18.03.25.07.11.06.2.15.29.23.06-.17.21-.42.15-.49-.42-.49-.89-.95-1.35-1.4-.04-.04-.16-.01-.24-.02.13.89.29,1.8-.96.64-.07-.06-.26,0-.39.01.13-.14.28-.27.4-.41.3-.37.59-.74.88-1.11-.48-.09-.95-.2-1.44-.25-.15-.02-.33.2-.49.2-.4,0-.81-.04-1.21-.09-.14-.02-.26-.18-.4-.19-.54-.04-1.09,0-1.62-.1-.09-.02-.06-.63-.08-.97,0-.09-.04-.26-.05-.26-.25.02-.51.05-.76.08.02.09.03.18.05.26.25.97.5,1.94.73,2.92.01.04-.11.13-.19.18-.95.56-2.74.63-1.43,2.5,0,0-.35.29-.56.41-.06.03-.2-.07-.29-.13-.02-.02.02-.13.05-.2.14-.26.28-.52.42-.78-.14.05-.32.17-.41.13-.38-.21-.74-.46-1.1-.7,0,.02-.01.05,0,.06.43.69.86,1.37,1.28,2.06.13.22.36.51.3.69-.15.51-.42.98-.64,1.48-.06.13-.07.28-.1.42-.04-.13-.07-.28-.13-.4-.11-.21-.25-.4-.39-.59-.02-.02-.12.02-.18.03.07.17.26.43.21.49-.44.51,1.83,1.74-.45,1.74-.02,0-.04.1-.06.15.11.01.23,0,.32.04.43.26.93.47,1.23.83.25.3.26.8.38,1.21v-1.54Zm-78.5-20.27c-.28-1.18-.36-1.85-.6-2.46-.15-.37-.54-.65-.82-.96-.11.13-.23.26-.34.39-.1.12-.19.25-.29.38,0-.17.09-.43,0-.51-.3-.28-.66-.51-1.01-.73-.03-.02-.23.24-.33.38-.31.38-.61.77-.91,1.16.04-.31.22-.72.08-.9-.29-.39-1.03-.97-1.09-.92-.73.65-1.37,1.4-2.04,2.13-.04.05-.09.09-.13.14-.04-.04-.07-.12-.11-.13-.33-.04-.67-.06-1-.08.05.51.1,1.03.17,1.54,0,.04.23.08.36.08.14,0,.28-.07.42-.1-.08.14-.19.28-.24.43-.13.36-.23.73-.34,1.1.16-.2.31-.41.49-.59.06-.06.22-.11.25-.09.1.11.24.25.24.38,0,.79-.02,1.58-.03,2.37,0,.1,0,.21-.01.31.07-.07.21-.13.22-.2.04-2.89.52.1.76-.06.22.72.41,1.45.66,2.16.09.24.3.48.52.62.11.07.35-.07.54-.12-.09-.16-.17-.33-.29-.47-.07-.08-.19-.12-.29-.18.29-.21.57-.42.86-.64.04.12.07.24.12.35.12.26.19.6.4.74.11.08.52-.13.68-.3.45-.48,1.04-.95,1.22-1.54.27-.91.24-1.92.34-2.88,0,0-.08-.01-.12-.03-.09-.04-.17-.09-.26-.14.08-.11.14-.25.25-.31.06-.03.2.07.3.13.13.09.25.19.38.29-.03-.18-.05-.36-.09-.54-.08-.39-.16-.79-.24-1.18.13.18.39.36.37.52-.2,1.77-.42,3.53-.69,5.29-.07.44-.34.85-.52,1.27.21.04.41.09.62.11.06,0,.18-.08.19-.15.49-2.17.97-4.33,1.35-6.05Zm-10.01-50.91c.09-.67.12-.91.15-1.15.18.18.34.39.54.53.46.29.92.63,1.43.78.28.08.67-.13.98-.27.21-.09.48-.25.54-.44.19-.53.28-1.1.42-1.65.04.51.07,1.02.12,1.53,0,.08.18.22.2.2.15-.08.4-.2.4-.31,0-1-.03-2-.06-3,0-.14.02-.29.02-.43.2.01.4,0,.58.06.07.02.12.17.15.27.07.28.16.56.19.84.08.83.22,1.68.13,2.5-.03.3-.7.49-1.02.79-.31.29-.55.65-.79,1.01-.05.08.02.25.04.38.07-.03.15-.06.22-.1,1.66-1.13,2.51-2.63,2.04-4.66-.16-.72-.51-1.4-.82-2.08-.14-.3-.4-.55-.6-.83-.07-.1-.15-.21-.19-.32-.1-.29-.17-.85-.28-.85-.78-.05-1.56.02-2.34.02-.31,0-.64-.1-.93-.05-.08.02-.11.45-.1.69,0,.08.2.24.27.22.56-.12,1.1-.31,1.66-.38.18-.02.4.26.6.41.07.06.11.15.17.23-.16.07-.32.15-.48.22-.38.16-.76.33-1.14.47-.09.03-.22-.04-.33-.07-.53-.13-1.44-.49-1.52-.36-.73,1.26-1.34,2.59-1.92,3.94-.08.2.17.62.37.83.27.28.67.44.96.7.13.12.16.36.24.55.09-.19.17-.39.09-.2Zm31.98,101.82c.68-.09,1.1-.2,1.52-.19.38.01.78.28,1.13.22.74-.13,1.46-.38,2.17-.64.23-.08.6-.32.59-.47-.19-2.6-.41-5.19-.69-7.78-.01-.09-.74-.13-1.13-.14-.1,0-.22.22-.3.36-.28.5-.46,1.09-.83,1.5-.46.52-1.07.89-1.61,1.34-.05.04-.03.16-.04.25.1,0,.27-.04.28-.02.14.42.28.85.36,1.29.02.09-.22.22-.35.34-.13-.21-.29-.41-.39-.63-.1-.21-.15-.44-.24-.65,0-.02-.26.01-.3.08-.34.63-.66,1.27-.96,1.91-.03.06.11.22.18.32.45.62.91,1.24,1.33,1.88,0,.01-.33.22-.45.38-.14.18-.21.41-.32.62.1.05.2.1.04.02Zm40.51,21.31c-.04-.19-.08-.38-.12-.57-1.81.24-3.63.44-5.44.75-.65.11-1.26.5-1.89.76.56.41,1.14,1.19,1.66,1.15,1.29-.1,2.54-.64,3.82-.87.42-.08.9.25,1.35.4.02,0,0,.23-.05.3-.13.17-.29.32-.44.48.29.02.59.09.86.03.39-.08.77-.28,1.16-.36.05-.01.19.36.28.56.43-.43.86-.86,1.26-1.31.05-.06-.08-.28-.14-.43-.01-.03-.07-.06-.1-.06-.15,0-.3.01-.44.02.25-.23.48-.63.76-.67.98-.15,2-.09,2.95-.31.3-.07.47-.74.69-1.14-.15-.03-.31-.13-.45-.1-1.92.44-3.83.9-5.75,1.35Zm-21.62-6.43s.27.07.33.21c.17.41.13.96.39,1.27.59.7,1.27,1.34,1.98,1.9.33.26.84.31,1.27.45,0,0,.05-.08.04-.09-.27-.23-.54-.46-.82-.69-.35-.29-.83-.5-1.04-.87-1.63-2.93-1.61-2.93-3.93-3.5-.23-.06-.41-.3-.63-.33-.19-.03-.41.1-.62.16.54.83,1.08,1.65,1.63,2.47,0,0,.21-.09.2-.13-.06-.84-.07-.84,1.2-.87Zm34.92-20.78c-.14-.04-.28-.08-.42-.13.07-.37.14-.75.22-1.12.03-.13.09-.25.13-.37-.11.05-.21.14-.32.16-.36.05-.73.08-1.1.12.06-.6.24-1.23.13-1.8-.06-.3-.62-.54-.99-.71-.29-.14-.65-.14-.98-.2.02.26.01.53.08.78.01.04.37-.06.56-.02,1.26.23.15,1.11.43,1.59.24.4.62.71.91,1.08.18.23.38.47.46.74.09.3.04.63.05.95.27-.36.54-.71.82-1.07Zm-48.18,11.73c.28-.15.55-.29.83-.44-.26-.6-.5-1.2-.78-1.79-.07-.15-.31-.38-.36-.36-.6.3-1.17.64-1.75.97.69.54,1.38,1.08,2.06,1.61Zm-.75-.21c-.6.94-.79,1.1-.8,1.28,0,.14.2.3.34.42.07.06.19.06.29.08-.09.08-.17.2-.28.25-.43.21-.4.15,0,.37.12.07.02.56.02.85.51-.21,1.02-.41,1.53-.62-.28-.68-.56-1.35-1.09-2.64Zm40.73-1.24c.35-.65.7-1.31,1.05-1.96-.21.08-.42.2-.65.24-.1.02-.23-.12-.33-.21-.15-.14-.29-.3-.43-.45-.15.26-.38.52-.41.79-.02.2.2.44.34.64.08.11.21.2.31.29-.11.05-.23.1-.34.14-.16.05-.33.1-.49.15.18.07.35.14.95.37Zm-40.15-50.22c.06-.01.12-.03.17-.04-.01-.24,0-.49-.05-.73-.07-.34-.18-.68-.27-1.01-.14.3-.39.59-.41.9-.07.71-.06,1.43-.02,2.14.02.33.18.65.27.97.18-.23.51-.45.52-.68.02-.52-.13-1.04-.2-1.56Zm-17.25-16.09s-.02-.06-.02-.08c-.12.03-.25.06-.37.1.04.04.09.12.13.12.21,0,.43-.04.64-.06-.04-.15-.04-.4-.14-.45-.68-.32-1.37-.71-2.09-.84-.33-.06-.75.43-1.13.67.38.32.75.67,1.16.94.04.03.32-.41.54-.54.27-.15.6-.28.9-.28.2,0,.41.23.61.35-.08.02-.16.05-.24.07Zm18.18,73.33c.04.15.09.29.13.44.32-.13.64-.27.95-.4-.21-.27-.37-.66-.65-.78-.35-.15-.9-.25-1.18-.07-.33.2-.45.72-.67,1.11l1.41-.29Zm21-3.41c.18-.44.58-.93.48-1.27-.18-.63-.64-1.19-1.04-1.73-.11-.15-.44-.15-.66-.22.31.67.61,1.34.94,2,.06.12.27.17.4.25-.13.17-.25.36-.41.51-.11.1-.27.15-.41.22.16.05.31.11.69.24Zm17.66.03c-.09-.29,0-.03.07.24.04-.25.09-.49.12-.74.09-.69.5-1.66.2-2.03-.82-.98-1.78-1.52-.69.51.22.4.15.96.3,2.02Zm-36.92-55.07l-.41-.05c-.05.73-.09,1.47-.14,2.2.19-.14.36-.3.56-.41.09-.05.24,0,.36.02-.13-.59-.25-1.18-.38-1.76Zm.3,61.54c-.96-.89-1.82-1.68-2.67-2.47-.02-.02-.08.02-.11.02.03.08.05.16.08.24.34.7.6,1.46,1.04,2.08.2.28.77.3,1.18.42.04.01.11-.07.48-.29Zm18.02-10.13c-.12-1.28-.05-1.79-.24-2.14-.15-.27-.65-.36-.99-.53.16.58.29,1.17.49,1.73.07.21.28.37.74.94Zm-7.62-93.27c.23-.09.35-.14.47-.19-.04-.06-.06-.13-.11-.17-.38-.34-.76-.68-1.13-1.02.27,0,.55-.01.82-.02-.03-.11-.04-.29-.1-.31-.47-.18-.95-.32-1.43-.47.23.55.41,1.13.71,1.64.16.26.54.39.78.55Zm-19.89,10.67c-.11-.35-.28-.88-.45-1.41-.14.6-.43,1.22-.38,1.8.05.6.43,1.18.67,1.77.05-.65.1-1.3.17-2.16Zm30.97,90.03c.63.11,1.13.2,1.62.29-.41-.45-.79-.95-1.27-1.32-.13-.1-.57.22-.87.35.19.24.37.49.52.67Zm-27.39-31.37c.85-.51,1.28-.77,1.7-1.02-.31-.07-.67-.29-.91-.19-.55.22-1.04.58-1.55.89.3.13.59.26.76.33Zm-9.27-78.91c.09,0,.17-.01.26-.02-.04-.15-.13-.32-.09-.45.03-.08.25-.11.38-.15.01.15-.03.4.04.44.15.09.36.06.54.08-.19-.52-.37-1.04-.56-1.56-.11.13-.22.28-.34.4-.24.24-.49.47-.76.68-.02.02-.19-.16-.29-.24-.02.17-.12.41-.05.5.3.39.65.73.98,1.1-.04-.26-.09-.52-.13-.78Zm-15.25,55.46c.21.25.3.36.39.47.21.26.42.53.63.79.05.06.11.1.17.14.24-.33.49-.66.73-1-.41-.29-.81-.62-1.26-.85-.1-.05-.37.23-.67.43ZM4.89,29.4c.18.46.23.57.27.68.05-.11.08-.23.15-.33.38-.57.74-1.15,1.16-1.68.41-.53.88-1.01,1.33-1.51-.36.25-.78.44-1.08.75-.67.7-1.28,1.45-1.83,2.08Zm49.78,118.36c-.88-.35-1.59-.65-2.32-.92-.06-.02-.17.11-.26.17.52.47,1.01.99,1.59,1.37.12.08.57-.35.99-.63Zm-15.18-50.46c.36-1.23.58-1.96.79-2.7.04-.13.02-.27.02-.4-.09.1-.22.18-.26.3-.19.55-.28,1.15-.56,1.64-.12.22-.6.24-.92.35.2.18.41.36.92.82Z"/><path d="m154.57,24.21c.35-.38.71-.76,1.05-1.15.02-.02-.02-.08-.03-.13,2.23-.2,0-1.44.47-2.08.03-.04-.23-.39-.4-.45-.17-.07-.41.04-.62.07.2-.15.47-.26.58-.46.18-.32.27-.7.36-1.07.02-.08-.16-.28-.18-.27-.29.13-.56.34-.86.42-.18.05-.51-.03-.62-.17-.57-.74.55-2.91-1.82-2.13.09-.91-2.75-1.09-.64-2.53.08-.05.02-.3.03-.45.25.32.44.73.76.92.18.11.57-.17.88-.21.29-.04.59,0,.88.04.15.02.29.13.43.21.03-.14.13-.37.09-.41-.49-.36-.99-.7-1.5-1.02-.13-.08-.31-.07-.46-.1,0,.17-.03.35.03.5.07.16.23.27.35.4-.22-.06-.45-.14-.67-.19-.26-.05-.52-.09-.78-.13-.48-.34-.96-.69-1.43-1.04-.02-.01.03-.17.07-.18.23-.08.47-.14.7-.2-.35-.11-.71-.21-1.06-.32-.04.29-.09.58-.13.88-.01.08-.02.17-.03.25-.08-.06-.17-.18-.23-.17-.33.06-.66.14-.99.24-.09.03-.2.21-.22.2-.36-.24-.71-.5-1.05-.77-.23-.18-.45-.38-.67-.56.07.24.13.48.2.72-.25.06-.52.21-.75.16-.51-.11-1.01-.32-1.51-.49-.02,0-.04-.01-.06-.02-.05.39-.11.78-.16,1.17-.01.11-.02.25.03.34.08.14.2.26.31.39-.12-.05-.24-.13-.37-.15-.41-.07-.82-.12-1.23-.17.18.17.35.35.54.49.05.03.19-.09.29-.08.05,0,.09.14.13.22-.2.04-.4.11-.61.13-.15,0-.31-.05-.47-.08,0,.22-.01.44-.02.65.19-.03.38-.06.57-.09.07-.01.21-.04.21-.03.05.14.14.33.09.41-.14.21-.32.44-.54.53-.09.04-.33-.24-.49-.38-.14-.13-.26-.27-.39-.41-.29.33-.65.61-.84.99-.22.45-.29.97-.42,1.46.21-.16.41-.34.63-.48.05-.04.16,0,.25.01-.03.08-.04.18-.09.23-.27.22-.54.43-.82.63-.37.26-.76.49-1.14.74.28,0,.62-.11.83,0,.22.12.31.46.46.7-.37.14-.77.23-1.1.42-.43.25-.81.58-1.21.87.16,0,.38-.08.48,0,.15.13.33.36.32.54-.05.74-.18,1.47-.25,2.21-.03.27.01.55.02.82-.09-.17-.16-.35-.27-.5-.03-.04-.19-.01-.28.02-.28.09-.55.2-.82.31-.06.03-.15.08-.16.14-.09.49-.23.99-.21,1.47,0,.21.37.41.57.62-.21.01-.42.03-.63.04.13.23.29.45.38.7.21.57.48,1.14.54,1.73.04.36-.31.74-.42,1.13-.15.52-.21,1.05-.35,1.57-.03.12-.3.3-.31.29-.3-.26-.59-.55-.88-.84-.11.5-.24,1-.3,1.51,0,.04.4.15.62.21.28.07.56.13.84.19-.08.34-.25.7-.2,1.02.05.36.29.71.48,1.04.05.1.21.14.32.21-.23.19-.47.39-.7.58-.06-.14-.12-.28-.19-.41-.18-.31-.38-.62-.57-.93-.28.48-.67.94-.8,1.46-.1.4.14.88.22,1.33.21-.2.41-.4.63-.6.03-.02.09,0,.14-.01-.11.26-.17.55-.33.76-.37.48-.74,1.21-1.21,1.29-.47.08-1.06-.49-1.59-.78-.22-.12-.43-.26-.64-.39.03.23.06.46.09.69.02.25.03.5.05.75-.09-.11-.16-.24-.26-.33-3.91-3.54-2.6-8.04-1.96-12.21,1.19-7.73,4.9-14.24,10.95-19.2,4.43-3.64,10.92-3.39,15.16.05,2.2,1.78,3.77,4.37,5.51,6.67.56.75.92,1.73,1.13,2.65.73,3.19,1.14,6.48,2.16,9.57.36,1.09,2.22,1.62,3.22,2.59,1.26,1.21,2.54,2.47,3.45,3.94.68,1.1.77,2.56,1.2,3.84.05.14.67.19.99.11,4.26-1.11,8.4-.67,12.27,1.31,1.86.95,3.44,2.44,5.15,3.66.1.07.44.02.45-.04,1.66-5.55,5.7-8.89,10.62-11.39,1.09-.55,2.23-1.02,3.34-1.54.05-.02.08-.19.07-.2-.16-.1-.32-.26-.49-.26-1.11.02-2.22.08-3.33.12-.05,0-.1-.04-.15-.06.04-.02.07-.06.11-.07.28-.06.57-.12.85-.18-.31-.1-.62-.19-.92-.32-.08-.03-.12-.2-.13-.31,0-.09.1-.26.1-.26.85.35,1.7.71,2.55,1.08.07.03.18.1.21.08.27-.23.52-.47.78-.71-.11-.06-.22-.14-.34-.17-.18-.04-.38-.05-.57-.07.04-.07.05-.18.11-.21.26-.16.54-.29.81-.43-.38-.13-.77-.24-1.15-.39-.06-.02-.12-.24-.11-.25.31-.2.62-.51.95-.54.99-.07,1.99,0,2.98-.02.36,0,.72-.11,1.08-.17-.25-.11-.51-.21-.75-.33-.05-.03-.1-.19-.09-.21.24-.19.48-.52.74-.53,2.42-.11,4.84-.15,7.26-.27.31-.02.61-.56.9-.55.6.02,1.18.28,1.77.4.54.11,1.09.16,1.64.23-.27-.44-.53-.88-.8-1.32-.05-.08-.08-.17-.12-.26.3-.06.6-.11.89-.19.24-.06.47-.16.71-.24-.18-.03-.36-.05-.54-.09-.1-.02-.2-.08-.29-.11.06-.1.12-.28.19-.29.74-.09,1.47-.16,2.21-.23.23-.02.55.01.68-.12.26-.27.36-.69.62-.96.3-.31.71-.51,1.04-.81.22-.2.38-.47.56-.7.03.22.16.48.08.64-.12.25-.34.47-.57.64-.21.15-.49.21-.74.32.12.05.24.16.35.15.53-.05,1.06-.1,1.58-.21.36-.08.71-.36,1.06-.35.26,0,.51.33.77.51-.26.12-.51.26-.77.37-.07.03-.19.02-.24-.03-.04-.03-.03-.16,0-.22.05-.13.13-.24.19-.36-.2.12-.39.24-.6.36-.4.23-.79.5-1.22.65-.21.07-.51-.1-.77-.16.09.32.17.64.26.97.02.07.06.16.03.22-.12.25-.27.49-.41.73-.11-.12-.21-.25-.33-.36-.19-.16-.39-.31-.59-.46-.17.37-.33.74-.5,1.11.35.11.86.43,1.03.3.8-.61,1.5-1.34,2.26-2,.07-.06.34.1.52.15-.12.06-.35.12-.34.17.01.15.09.3.18.43.08.12.2.22.3.33,0,0-.05.09-.07.08-.26-.04-.52-.09-.78-.13.26.2.5.53.79.57.3.05.64-.18.97-.27.27-.07.54-.1.81-.16-.1.11-.29.24-.28.34.02.2.26.54.22.57-.3.23.05,1.83-1.04.55-.01-.02-.43.31-.65.47.43.17.86.33,1.29.51.16.07.31.17.46.25-.08.07-.15.21-.24.21-.21.01-.44.01-.62-.07-.24-.11-.44-.3-.66-.45-.05.09-.15.25-.14.26.25.21.49.53.78.58.87.14,1.75.16,2.63.24.07,0,.19.12.18.16-.02.1-.1.24-.17.25-.54.12-1.27.49-1.6.27-1.22-.79-2.33-1.55-3.58-.14-.09.1-.1.27-.14.4.11-.06.22-.17.32-.16.53.07,1.06.14,1.57.27.67.17,1.33.4,1.98.63.14.05.23.23.34.35-.4.11-.79.24-1.2.3-.2.03-.43-.08-.65-.09-.05,0-.11.15-.16.23.19.08.38.15.56.24.1.05.21.12.28.21.3.38.58.77.89,1.14.13.15.32.23.48.36.01.01-.04.15-.06.15-.52-.02-1.05-.07-1.57-.09-.47-.01-.93.01-1.4.02.14.37.18.84.44,1.08.43.4.99.65,1.5.97l-.02-.02c.13.11.27.22.4.34.17.15.38.29.49.48.19.32.28.72.49,1.02,1.14,1.65,2.41,3.22,3.43,4.95.7,1.18,1.23,2.53,1.53,3.87.44,1.98.71,4.01.87,6.04.49,6.05-2.17,11.36-4.39,16.67-1.29,3.1-3.54,5.81-5.44,8.64-3.51,5.23-8.26,9.17-14.16,11.13-2.9.96-6.33.29-9.53.31-.1,0-.36-.62-.28-.72.55-.63,1.17-1.19,1.77-1.77.22-.21.46-.41.69-.61-.23-.07-.51-.27-.67-.19-.4.19-.75.49-1.1.76-.28.22-.53.65-.81.66-.69.03-1.39-.13-2.09-.24,0,0-.01-.41.06-.45.38-.17.8-.27,1.19-.42.46-.18.89-.44,1.36-.56.46-.12.95-.1,1.43-.14.25-.02.5-.06.75-.09-.16-.04-.35-.05-.48-.14-.23-.16-.43-.36-.65-.55.34-.14.68-.28,1.02-.43-.04.14-.09.27-.11.41,0,.07.02.2.06.21.54.22,1.09.43,1.64.63-.03-.15-.1-.31-.08-.45.26-1.56-1.04-1.32-1.86-1.62-.05-.02-.1-.2-.08-.22.15-.13.31-.3.48-.33.5-.1,1.01-.16,1.52-.21.09-.01.2.06.29.11.02.01-.05.13-.03.17.19.42.35.87.6,1.24.06.09.45-.04.69-.07-.03-.09-.05-.26-.08-.26-.13,0-.26.04-.39.07-.04-.26-.2-.61-.1-.77.31-.46.74-.85,1.11-1.28.15-.17.27-.36.4-.55-.31-.15-.61-.38-.93-.42-1.05-.13-2.11-.2-3.17-.3-.03,0-.06-.11-.08-.17.85-.27,1.68-.56,2.54-.79.71-.2,1.44-.3,2.14-.52.07-.02.01-.52,0-.79,0-.1-.04-.24-.11-.3-.34-.25-.69-.48-1.04-.72.52-.12,1.04-.2,1.54-.37.55-.19,1.31-.32,1.56-.73.25-.4,0-1.13-.08-1.71-.02-.13-.16-.25-.25-.37.08-.05.19-.16.25-.14.39.14.77.32,1.15.48-.08.07-.16.13-.23.2-.13.14-.25.29-.37.43.17-.04.33-.09.5-.13.69-.17,1.43-.23,2.03-.56.22-.12.08-.89.1-1.36-.15.07-.31.13-.46.21-.26.15-.5.41-.78.45-.47.07-.96,0-1.44-.02-.1,0-.18-.15-.28-.18-.39-.12-.79-.22-1.19-.32.6-.03,1.21-.01,1.8-.11.55-.09,1.08-.28,1.6-.47.08-.03.13-.35.07-.47-.05-.1-.28-.12-.42-.18.37-.12.75-.22,1.11-.37.84-.34,1.68-.71,2.52-1.06-.18-.04-.36-.09-.54-.11-.06,0-.13.06-.19.05-.39-.07-.77-.15-1.16-.22.26,0,.55.09.76-.01.51-.24.98-.56,1.47-.86.04-.03.06-.1.09-.15-.08-.02-.16-.05-.24-.07-.59-.1-1.19-.19-1.78-.28.54-.11,1.11-.15,1.62-.36.61-.25,1.16-.65,1.74-.98-.24-.2-.47-.4-.71-.58-.08-.06-.19-.07-.29-.1.01.09.07.21.03.26-.24.37-.44.81-.77,1.05-.26.19-.69.13-1.05.18.07-.41.19-.83.2-1.24.03-1.52,1.03-1.13,1.91-1-.13-.34-.27-.67-.38-1.01-.03-.08.05-.19.08-.29.06.02.12.03.17.07.25.23.61.7.73.64.37-.17.65-.54.96-.83-.28-.16-.56-.32-.85-.48.07-.11.14-.22.2-.34.12-.27.34-.55.31-.81-.04-.36-.26-.69-.4-1.04.45.07.89.15,1.34.21.04,0,.15-.12.14-.14-.6-1.06-.63-2.71-2.52-2.46-.1.01-.22-.1-.32-.16.1-.03.2-.07.3-.09.51-.13,1.01-.28,1.52-.39.18-.04.38.03.58.05-.14.06-.29.1-.42.17-.08.05-.18.12-.21.21-.02.05.07.21.12.21.21,0,.48.05.62-.06.51-.37.98-.81,1.46-1.22-.04-.04-.09-.12-.12-.12-.17.04-.34.11-.51.14-.43.07-.87.12-1.3.18-.02,0-.05-.06-.07-.09.06-.03.12-.08.18-.09.39-.1.78-.2,1.17-.3.25-.06.51-.11.76-.17-.2-.17-.41-.33-.61-.51-.1-.09-.26-.27-.26-.27.31-.32.6-.68.97-.92.39-.26.85-.4,1.28-.61,0,0-.04-.24-.1-.26-.11-.03-.33.06-.36.02-.16-.3-.28-.62-.42-.93.37-.5.75-1,1.12-1.49.08-.13.14-.3.26-.4.25-.19.53-.34.79-.51.03-.02,0-.16.02-.17,1.41-.6-.55-.16-.15-.46,0,0-.12-.22-.2-.32-.26-.28-.53-.55-.8-.82-.22.24-.45.48-.67.72-.2.22-.41.43-.61.65-.07.09-.13.18-.2.27-.38.44-.77.87-1.16,1.3.15-.36.51-.82.4-1.05-.34-.7-.87-1.31-1.34-1.95-.07-.09-.21-.14-.32-.2.14,0,.27.01.41.01.24,0,.48,0,.72.01-.27-.22-.52-.46-.81-.66-.13-.09-.4-.04-.46-.13-.2-.39-.38-.8-.51-1.21-.25-.78-.42-1.59-.71-2.36-.07-.18-.49-.22-.75-.33.09-.08.18-.23.26-.23.28.02.59.2.82.12.15-.05.34-.54.26-.64-.16-.22-.48-.4-.75-.45-.33-.07-.7.02-1.05.03l.02.02c.63-1.07-.53-.55-.68-.82-.14-.26.11-.74.18-1.12.02-.12.03-.24.04-.36-.14.1-.29.18-.4.29-.24.24-.52.74-.66.7-.36-.1-.67-.43-.97-.69-.1-.09-.12-.26-.18-.39-.06.06-.19.12-.18.17.03.16.09.32.16.47.05.11.14.21.21.32-.06,0-.12.03-.18.03-.33-.02-.71.04-.98-.09-.21-.1-.31-.46-.43-.71-.1-.2-.16-.41-.24-.62-.04-.1-.09-.27-.14-.27-.35-.02-.71-.06-1.06,0-1.06.17-2.12.38-3.18.57-.22.04-.45.04-.68.06.05.31.03.68.19.92.17.25.55.35.78.57.1.1.14.36.08.49-.05.11-.28.18-.44.2-1.52.2-3.03.39-4.55.59-.03,0-.05.11-.08.17.92.09,1.83.2,2.75.27.4.03.8-.02,1.2-.03.03,0,.07.09.1.14-.32.16-.65.31-.95.5-.26.16-.46.43-.73.55-.19.09-.46.04-.69,0-.38-.07-.74-.19-1.11-.29-.13-.04-.26-.09-.38-.13.1-.18.19-.37.29-.55-1.38-.04-2.76-.08-4.14-.09-.04,0-.08.29-.12.45.19.05.38.09.57.14-.08-.11-.16-.22-.24-.33.51-.11,1.01-.23,1.52-.33.04,0,.11.16.17.25-.07.04-.15.12-.21.11-.1-.01-.27-.15-.29-.12-.13.15-.2.39-.35.48-.68.37-1.4.66-2.07,1.04-.23.13-.37.41-.53.65-.1.15-.14.35-.25.5-.09.13-.24.22-.37.31-.1.07-.22.1-.33.15,0-.24-.06-.49,0-.72.08-.34.24-.67.37-1-.33.33-.66.65-.97.99-.1.1-.15.25-.22.37-.15-.28-.32-.55-.43-.85-.04-.11.07-.28.12-.42-.47.04-.94.08-1.41.12.13.13.24.26.38.38,4.77,3.9,5.99,9.39,6.8,15.09.73,5.12-.48,9.87-3.34,13.99-3.87,5.57-8.81,9.99-15.7,11.58-1.05.24-2.16.28-3.24.41.9.83,1.86,1.61,2.67,2.51,1.16,1.29,2.3,2.61,3.3,4.02,2.95,4.2,6.15,8.27,8.62,12.74,2.11,3.83,1.35,8.05-.15,12.13-2.77,7.52-8.79,10.21-16.04,10.65-2.74.17-3.29,1.05-3.34,3.44-.13,6.22-4.46,11.7-10.43,13.59-6.05,1.92-11.06.34-15.19-4.36-.2-.23-.76-.53-.8-.48-.87.95-1.86,1.87-2.44,2.99-.21.42.72,1.31.89,2.05.26,1.09.74,2.4.37,3.32-1.4,3.49-3.05,7.03-6.84,8.49-1.82.7-3.98.43-5.93.83-5.87,1.2-11.26-.15-16.5-2.74-2.29-1.13-5.02-1.58-7-3.07-3.54-2.66-6.67-5.85-9.92-8.87-.18-.17-.02-.79.1-1.17.06-.19.44-.44.58-.39.2.07.31.4.47.6.11.13.27.32.38.3.33-.05.64-.2.96-.3-.16-.23-.34-.44-.48-.69-.12-.22-.2-.47-.3-.7.19.06.44.07.57.19.91.89,1.73,2.03,3.18.79.09-.08.37-.06.45.02.24.23.43.53.64.79-.06-.4-.12-.8-.17-1.2.15.01.33-.02.44.05.75.46,1.5.94,2.23,1.43.04.02-.08.26-.04.3.1.08.24.09.37.14-.01-.12-.07-.25-.03-.34.14-.35.31-.68.47-1.02.2.24.43.47.59.74.08.14.03.35.04.53.12-.21.27-.41.34-.64.06-.21.03-.45.05-.67.22.22.46.44.66.67.09.1.11.26.16.39.05-.19.21-.46.14-.56-.64-.89-1.34-1.73-1.97-2.62-.25-.36-.47-.79-.55-1.21-.05-.27.2-.59.32-.89.3.25.56.62.91.73.58.19,1.21.22,1.82.32-.22-.44-.45-.87-.64-1.31-.06-.14-.03-.32-.03-.48.13.04.28.04.37.12.41.36.75.84,1.21,1.07.31.16,1.04-.2,1.16-.03.56.81,1.06,1.69,1.41,2.6.18.46.02,1.05.01,1.58.2-.36.36-.74.6-1.07.96-1.27,2.03-2.46,2.89-3.79.6-.92.91-2.02,1.35-3.05.49,1.28.99,2.55,1.49,3.83-1.16.58-2.32,1.16-3.48,1.75-.34.18-.69.37-.98.62-.09.08-.03.51.08.57,1.26.68,2.56,1.27,3.79,2.01.35.21.46.8.69,1.22-.13.01-.26.03-.4.04.05.5.1.99.16,1.49,0,.01.15.04.18,0,.32-.32.62-.66.95-.97.18-.17.4-.29.61-.41.03-.02.14,0,.16.04.13.2.24.4.35.61.17-.42.32-.86.53-1.26.36-.69.75-1.37,1.13-2.05.15.1.28.24.44.29.18.06.39.06.58.04.13-.02.25-.12.37-.18-.02.19-.05.38-.05.57,0,.29.03.58.04.86.07-.01.15-.01.22-.04.97-.39,1.94-.78,2.92-1.17.11-.04.24-.04.35-.1.02-.01-.05-.17-.06-.27-.03-.27-.06-.55-.08-.82,0-.02.1-.05.15-.07.06.19.09.41.2.57.12.16.32.26.48.38.05-.12.17-.31.14-.34-.44-.4-.9-.76-1.34-1.15-.15-.13-.26-.32-.39-.48.14-.07.28-.16.44-.19.15-.03.31.02.47.03,0-.33.02-.66.03-.99-.19.05-.42.06-.57.17-.5.34-.97.73-1.46,1.08-.14.1-.33.14-.5.21.04-.17.02-.39.12-.49.62-.58,1.27-1.11,1.89-1.69.13-.12.18-.33.26-.5-.16-.07-.31-.15-.48-.19-.95-.23-1.97-.3-2.83-.71-.97-.45-1.76-1.31-2.74-1.73-.26-.11-1.02.67-1.37,1.17-.21.29-.15.85-.07,1.25.03.13.5.22.78.25.64.08,1.28.09,1.92.17.15.02.28.2.42.31-.14.06-.29.11-.43.17-.97.41-1.94.8-2.88,1.25-.11.05-.06.45-.09.69-.08-.34-.14-.69-.25-1.03-.11-.34-.28-.67-.42-1,.18-.19.36-.39.54-.58-.07-.05-.15-.09-.22-.15-.1-.08-.29-.18-.28-.23.25-1.33.54-2.65.78-3.98.03-.18-.07-.47-.21-.57-.09-.07-.41.06-.54.18-.51.47-.99.98-1.48,1.47-.14-.31-.28-.62-.41-.93-.06-.13-.14-.26-.17-.4,0-.03.17-.16.23-.14,3.09,1.19.56-1.24,1.09-1.78.61-.63.87-1.61,1.26-2.44.14-.29.22-.61.33-.92-.16.07-.31.18-.47.2-.25.03-.5,0-.75-.02.16-.1.37-.16.48-.3.7-.84,1.29-1.79,2.08-2.53.58-.55,1.41-.84,2.12-1.25-.35.25-.88.44-1,.78-.48,1.29-1.03,2.61-1.19,3.97-.35,2.92,2.88,5.21,5.88,6.13,2.22.68,3.55-.39,5.03-1.5.06-.05.1-.13.15-.19-.12.01-.26,0-.36.04-1.03.53-2.04,1.09-3.08,1.6-.19.09-.5.01-.73-.07-.08-.03-.09-.28-.13-.43.14.06.34.21.41.16.43-.29.83-.64,1.26-.94.22-.16.47-.3.72-.42.17-.08.44-.03.54-.14,1.4-1.6,1.72-3.42,1.03-5.42-.07-.2-.14-.39-.21-.59.24.18.47.37.71.55.1.07.2.21.28.2.08,0,.16-.16.23-.26.08-.13.14-.28.22-.42.07.15.11.36.23.43.13.08.47,0,.48.03.28,1.19.52,2.4.78,3.59.07.32.24.62.26.94.02.33-.08.67-.14,1.01.37-.29.75-.56,1.11-.87.18-.16.31-.38.47-.57.06.27.15.53.19.8.08.62.13,1.24.18,1.86.02.27,0,.55.01.83.02.51.05,1.02.07,1.53.25-.05.67-.21.72-.14.3.48.62,1,.73,1.54.12.6.03,1.25.04,1.88,0,.04.07.07.1.1.26-.52.52-1.03.77-1.55.1-.21.13-.45.27-.63.05-.07.28-.02.43-.02-.1.19-.21.38-.29.58-.04.09-.02.19-.03.29.11-.05.28-.08.32-.16.16-.35.28-.72.4-1.09,0,0-.12-.04-.18-.08-.54-.27-1.08-.55-1.62-.82.88-.38,1.73-.96,2.65-1.09,2.25-.33.57-1.63.69-2.46.17-1.18.12-2.39.38-3.54.04-.19,1.17-.14,1.8-.19,0,.51,0,1.01,0,1.52,0,.09-.05.21,0,.27.26.34.49.71.81.97.36.3.81.5,1.22.73.32.18.66.34.99.5.06.03.14,0,.22.01-.02.06-.08.15-.05.18.47.69.95,1.37,1.42,2.05.08-.07.24-.18.24-.19-.17-.27-.36-.52-.54-.78.35-.12.9-.43,1.02-.32.46.45.8,1.03,1.16,1.58.12.18.15.55.27.57.26.05.58-.14.84-.1.66.12,1.29.37,1.95.46.49.07,1,0,1.5-.03.04,0,.09-.09.13-.13-.25-.07-.5-.14-.75-.21-.09-.03-.18-.05-.28-.07.08-.06.18-.2.23-.18.55.23,1.1.48,1.64.73-.19.06-.38.11-.55.2-.05.03-.05.2-.03.3.07.25.14.69.25.7,1.03.1,2.06.13,3.09.17.02,0,.05-.16.08-.24.13-.35.18-.75.41-1.02.21-.24.6-.33.91-.48-.31.05-.63.12-.95.15-.08,0-.18-.08-.27-.13.54-.16,1.12-.27,1.62-.51.63-.3,1.54-.6,1.71-1.11.22-.67-.15-1.55-.28-2.33-.02-.15-.07-.31-.11-.46.09-.01.18-.05.27-.03.73.13,1.45.27,2.18.41.08-.48.11-.97.24-1.43.23-.8.51-1.59.79-2.37.04-.12.2-.2.31-.29-.21-.07-.42-.16-.64-.2-6.36-1.03-12.24-3.59-17-7.67-4.15-3.57-7.43-8.24-10.71-12.71-1.06-1.45-.86-3.8-1.3-5.73-.23-.98-.61-1.93-.92-2.89-.08-.25-.19-.49-.28-.73-.16.14-.33.28-.49.42.12.13.34.26.34.39,0,.41-.29.98-.11,1.21,2.19,2.78-.29,3.69-1.92,4.95-5.73,4.42-11.95,4.25-18.12,1.43-4.96-2.27-7.89-6.53-9.27-11.82-2.47-9.44,3.61-21.4,15.33-22.01,1.54-.08,3.2.35,4.65.93,1.34.54,2.47,1.59,3.66,2.46.16.12.1.56.26.65,1.19.67,2.54,1.14,3.58,1.98.93.75,1.55,1.89,2.28,2.88.31.42.53.91.84,1.33.12.16.38.22.58.33-.08-.2-.17-.39-.22-.59-.04-.17-.03-.35-.04-.53.1.13.26.24.29.38.5,1.92.98,3.84,1.46,5.76.03.1-.05.23-.07.35-.11-.1-.25-.19-.31-.31-.86-1.8-1.49-3.76-2.62-5.35-.74-1.04-2.22-1.56-3.38-2.28-.12-.07-.32,0-.49,0,.14.13.28.26.42.38,1.01.93,2.06,1.81,3,2.8.71.74,1.48,1.53,1.85,2.45.35.87.22,1.94.3,2.92-.42-.12-1.15-.19-1.19-.38-.1-.55.13-1.15.14-1.73,0-.22-.25-.45-.38-.68-.03.19-.07.39-.1.58-.01.09-.02.19-.03.28-.11-.07-.24-.11-.31-.2-.75-1-1.4-2.09-2.25-2.98-.64-.67-1.48-1.19-2.33-1.58-.49-.23-1.15-.07-1.74-.1-.74-.04-1.49-.04-2.22-.16-.24-.04-.42-.37-.64-.56-.08-.07-.25-.2-.27-.18-.66.56-1.9,1.2-1.85,1.71.14,1.4-2.28-1.59-1.13.74,0,0-.06.04-.09.07-.8.9-1.6,1.79-2.4,2.69-.08.09-.11.23-.17.35-.18-.16-.38-.3-.53-.49-.04-.05.08-.26.16-.37.17-.24.43-.43.54-.69.38-.93.71-1.87,1.05-2.81.05-.13.08-.26.12-.39-.13.06-.33.09-.39.19-.96,1.58-2.04,3.11-2.81,4.78-.54,1.17-.87,2.52-.91,3.8-.03,1.13.48,2.27.77,3.4.07.26.22.51.33.76.14-.28.33-.55.39-.84.04-.21-.1-.45-.16-.68.08-.01.23-.06.24-.03.27.45.5.93.8,1.36.5.73.97,1.49,1.59,2.11.42.42,1.07.6,1.62.89-.06.05-.11.11-.17.16-.19.15-.38.31-.56.46.85.41,1.7.82,2.55,1.23-.06-.34-.16-.67-.17-1.01-.01-.46.03-.92.08-1.38,0-.06.17-.11.26-.16.05.35.05.72.15,1.06.09.27.26.54.46.74.11.1.41.12.55.05.31-.16.56-.44.87-.6.18-.09.6-.01.62-.08.08-.32.03-.67.07-1.01.03-.23.12-.47.22-.68.03-.07.19-.09.28-.13.03.16,0,.4.09.48.34.27.71.63,1.11.69.51.08,1.12.02,1.58-.21.61-.3,1.12-.82,1.66-1.25.03-.03,0-.12,0-.19.06.05.13.09.18.14.12.16.24.33.36.49-.02-.22-.12-.46-.05-.64.15-.39.38-.74.59-1.1.02-.04.2.02.31.04-.13.26-.31.5-.37.77-.14.71-.25,1.43-.31,2.15,0,.09.48.33.5.31.59-.72,1.25-1.42,1.68-2.23.33-.62.39-1.4.56-2.11.36-1.59.72-3.18,1.07-4.77,1.18-.15,2.51,0,3.51-.51,2.69-1.36,5.09-3.49,7.9-4.39,3.32-1.07,6.96-1.15,10.45-1.71,1.35-.22,2.7-.86,4.03-.79,2.05.1,4.1.59,6.13,1.01,1.58.33,3.12.86,4.7,1.18.18.04.52-.66.79-1.02-.38-.12-.75-.24-1.13-.35-.14-.04-.29-.02-.43-.03.07-.14.13-.28.2-.41.03-.07.07-.13.11-.2-.1-.05-.2-.09-.28-.15-.47-.41-.91-.85-1.39-1.25-.66-.55-1.34-1.08-2.01-1.61-.04.06-.11.12-.1.17.04.23.1.46.16.69-.1-.04-.25-.07-.28-.14-.11-.32-.36-.73-.25-.95.2-.41.63-.69.95-1.05.11-.13.25-.36.2-.47-.11-.24-.32-.59-.51-.62-.36-.04-.75.1-1.11.22-.45.15-.88.37-1.33.53-.98.35-2.4.37-2.88,1.06-2.97,4.26-7.92,3.46-10.49.06-.98-1.29-1.55-2.89-2.31-4.35-.03-.05-.02-.12-.03-.18.13.02.25.05.38.06.22,0,.54.08.63-.02.16-.2.18-.51.25-.77.29.45.59.91.88,1.36-1.2-.02-.71.52-.37,1.05.04.06-.11.25-.17.38.12-.05.24-.11.36-.16.14-.06.28-.12.42-.18-.05.25-.1.5-.15.75.2-.2.37-.43.6-.58.25-.16.55-.24.83-.36.26.25.53.48.76.76.06.07-.05.27-.08.42.23-.07.49-.09.67-.23.12-.09.12-.33.18-.5.07.26.14.51.2.77.09.36.11.75.28,1.07.05.09.61.07.75-.08.19-.21.36-.65.27-.88-.19-.47-.57-.87-.84-1.31-.05-.09,0-.24,0-.36.39.15.77.3,1.16.45-.05.12-.08.24-.14.34-.07.12-.17.22-.26.33.52.37,1.04.74,1.59,1.08.02.01.22-.33.37-.48.38-.38.79-.74,1.18-1.12.46-.45.92-.92,1.38-1.38-.29.12-.59.24-.88.35-.06.02-.12.02-.18.03.03-.08.05-.16.08-.24.31-.83.93-1.7.83-2.48-.09-.73-.93-1.38-1.46-2.04-.03-.03-.33.21-.41.17-.6-.32-1.16-.95-1.75-.97-.55-.02-1.14.58-1.67.96-.08.06.04.42.09.63.12.48.27.95.4,1.43.01.04-.06.1-.1.15-.13-.26-.26-.51-.4-.76-.03-.06-.13-.08-.2-.12-.06.2-.06.46-.19.6-.31.32-.67.57-1.02.85.1-.91.2-1.81.3-2.72-.14.05-.39.1-.39.15.02.86.06,1.72.1,2.58-.04.31-.03.63-.11.93-.15.54-.34,1.07-.52,1.61.13-.41.25-.82.38-1.23-.22.28-.42.58-.67.84-.03.03-.31-.11-.42-.22-.22-.23-.45-.46-.58-.74-.18-.4-.23-.85-.39-1.26-.1-.25-.3-.46-.46-.69.11-.01.27-.08.31-.03.22.27.4.58.63.86.18.23.41.43.61.64.16-.51.33-1.01.46-1.53.02-.06-.14-.2-.24-.24-.47-.19-1.25-.25-1.37-.57-.16-.43.22-1.04.28-1.59.05-.48-.05-.97-.02-1.46.12-2.63,2.27-2.93,4.13-3.58.84-.29,1.65-.71,2.43-1.13.07-.04-.21-.57-.17-.85.06-.49.22-.98.38-1.46.06-.2.35-.48.31-.53-.17-.2-.43-.32-.65-.47.05.13.1.25.15.38-.14.03-.3.1-.43.07-.68-.14-1.36-.3-2.04-.46-.23-.05-.45-.13-.67-.2.15-.32.29-.65.44-.97.11-.25.23-.49.34-.74-.19-.04-.47-.01-.55-.13-.56-.78-1.09-1.59-1.61-2.41-.05-.08.02-.24.04-.37-.07.03-.16.04-.21.1-.16.15-.3.32-.45.48.07-.23.25-.48.2-.67-.08-.3-.32-.55-.5-.82-.04-.06-.17-.05-.23-.11-.31-.33-.62-.67-.92-1,.04.57-.09,1.22.13,1.71,1.6,3.65,1.64,7.33.11,10.96-2.56,6.06-6.68,10.39-13.58,11.08-4.54.45-13.11-2.41-15.88-8.18-2.79-5.8-2.91-11.59.55-16.83,6.58-9.97,19.24-10.41,26.36-1.15.31.41.63.82.98,1.2.32.35.68.67,1.02,1.01.03-.49.05-.99.08-1.48-.22,0-.45,0-.67.01.07-.81,0-1.68.27-2.41.22-.59.88-.99,1.3-1.52.8-.98,1.41-2.17,2.37-2.95,2.39-1.95,4.93-3.71,7.41-5.56.19-.14.35-.32.53-.47-.22.06-.44.14-.66.19-1.03.23-2.1.36-3.09.71-.59.21-1.02.82-1.58,1.15-.55.32-1.18.52-1.77.78-.38.17-.8.3-1.13.55-.35.26-.62.63-.93.94,0-.26.1-.57,0-.79-.2-.46-.5-.89-.76-1.32-.06.27-.1.54-.2.8-.07.17-.22.31-.33.46,0-.14.02-.29,0-.43-.01-.11-.07-.21-.11-.31-.28.32-.58.63-.82.97-.09.13-.06.34-.09.51-.23-.11-.53-.18-.66-.36-.08-.1.09-.42.19-.61.15-.3.34-.57.51-.86-.22.03-.44.07-.66.09-.03,0-.09-.12-.09-.18.02-.28.06-.56.09-.84-.38-.04-.75-.11-1.13-.12-.16,0-.33.13-.49.2.09-.16.22-.31.27-.49.07-.26.17-.57.09-.78-.06-.14-.42-.2-.66-.21-.07,0-.11.35-.23.43-.26.19-.56.32-.86.45-.08.04-.21-.02-.31-.03.24-.48.53-.93.7-1.43.19-.56.28-1.15.4-1.73,0,0-.26-.13-.35-.09-.36.16-.74.33-1.05.57-1.76,1.4-.11-1.28-1.04-.86.1-.12.17-.28.3-.34.66-.32,1.5-.46,1.95-.96.59-.66,1.23-1.59,1.21-2.4-.02-1.21-.58-2.42-.93-3.63-.01-.05-.15-.06-.23-.09,0,.08,0,.16,0,.24-.03.2-.03.4-.1.58-.04.08-.21.11-.33.16.02-.21.06-.42.05-.62,0-.14-.09-.28-.15-.42-.06.09-.12.19-.19.27-.04.05-.11.08-.16.12-.11-.24-.25-.46-.31-.71-.04-.16.03-.35.04-.53.05.08.07.19.14.23.73.41,1.47.81,2.22,1.18.04.02.25-.29.35-.46.03-.06-.02-.17-.05-.25-.24-.65-.52-1.29-.73-1.94-.1-.3,0-.72-.17-.94-.13-.17-.56-.11-.85-.14-.17-.02-.34-.03-.52-.05.09-.1.21-.19.25-.31.08-.28.11-.57.16-.86,0,0-.02.02-.02.02Zm7.3,84.05c.31-.19.61-.38.92-.56-.06-.07-.18-.15-.17-.19.03-.11.12-.2.19-.3.1.17.23.33.3.51.13.32.21.66.33.98.28.71.49,1.47.9,2.09.22.34.81.44,1.25.61.05.02.18-.26.3-.3.43-.12.87-.25,1.31-.27.26-.01.53.18.8.28-.04-.08-.07-.15-.11-.23-.11-.25-.23-.51-.34-.76.2.16.38.38.61.46.45.17.93.27,1.4.4-.19-.24-.4-.46-.58-.71-.22-.32-.41-.65-.61-.98.31.23.61.46.92.68.12.08.26.13.39.19-.07-.17-.1-.37-.2-.51-.19-.25-.43-.47-.65-.7.37.11.74.32,1.1.31.41-.02.83-.21,1.22-.39.06-.03-.05-.41-.07-.62-.02-.27-.13-.66,0-.77.21-.18.57-.21.88-.22.06,0,.11.38.2.57.05.12.16.22.25.34.08-.09.21-.18.22-.29.16-1.39.32-2.79.45-4.18.03-.3-.09-.61-.14-.92-.12.18-.23.38-.37.55-.11.13-.25.23-.38.34.03-.17.1-.35.07-.52-.09-.51-.23-1.01-.34-1.52,0,.19.05.4,0,.57-.03.09-.35.19-.36.18-.28-.48-.68-.96-.76-1.48-.16-.99-.13-2.01-.19-3.02-.02-.24-.09-.47-.14-.71-.25.05-.49.1-.74.16.21.31.44.61.61.94.19.35.32.72.47,1.09,0,.01-.25.14-.26.13-.18-.26-.35-.53-.52-.8-.18-.27-.37-.54-.56-.8.04.29.11.57.13.86,0,.14-.03.32-.12.41-.51.46-1.06.86-1.54,1.34-.1.1.19.59.1.67-.41.36-.53.3-.74-.18-.02-.04-.17,0-.19-.04-.37-.74-.76-1.48-1.08-2.25-.04-.09.42-.36.39-.49-.12-.53-.33-1.03-.52-1.54-.02-.05-.11-.07-.17-.11.05.29.15.59.12.88-.05.43-.19.84-.3,1.26,0,.03-.09.04-.14.05-.04-.28-.04-.59-.14-.84-.15-.37-.37-.71-.58-1.05-.04-.06-.19-.04-.29-.06.29-.66.57-1.31.86-1.97.16.2.35.39.47.61.26.5.44,1.04.72,1.51.18.3.49.51.74.77.02-.18.05-.36.06-.54,0-.26-.01-.53-.02-.79.08.25.16.51.26.76.04.1.1.19.15.29.06-.05.17-.11.17-.14-.29-.97-.54-1.96-.9-2.9-.12-.31-.65-.46-.79-.78-.26-.55-.37-1.17-.54-1.76.02.45.09.91.02,1.35-.02.15-.4.25-.63.34-.04.01-.22-.21-.21-.23.13-.15.29-.28.41-.43.06-.07.1-.22.07-.29-.14-.34-.32-.67-.48-1.01,0,.26.02.53.01.79,0,.68.02,1.37-.03,2.05-.03.37-.2.73-.3,1.1-.09-.04-.25-.05-.27-.11-.42-1.19-.82-2.38-1.23-3.57-.04-.12-.22-.32-.23-.31-.21.12-.4.27-.59.42.05.04.1.1.16.13.09.04.2.05.3.08-.21.16-.41.32-.63.47-.01,0-.16-.13-.19-.22-.78-2.16-.83-2.15-2.39-1.64-.43.14-1.05-.07-1.51-.28-1.24-.54-.9,2.71-2.73,1.09-.24-.21-1.89.84-2.58,1.59-.38.42-.15,1.43-.16,2.17,0,.46.19.97.06,1.38-.34,1.11-.75,2.21-1.24,3.26-.5,1.08-1.15,2.09-1.71,3.15-.23.44-.37.92-.55,1.39.37,0,.77.05,1.11-.06.12-.04.11-.49.16-.75.03-.18.06-.36.1-.54.14.2.26.42.43.6.22.24.48.45.71.69.12.12.21.28.28.44.02.03-.13.2-.2.2-.21-.01-.42-.08-.63-.12.25.24.52.47.76.73.07.07.05.22.08.33-.27.01-.54.02-.81.03.26.1.58.14.75.32.18.18.21.5.31.76.21.52.41,1.03.62,1.54.13-.2.27-.4.4-.6.14.11.29.22.43.32.13.1.35.3.39.27.16-.13.28-.32.41-.49-.13.01-.32.09-.39.03-.14-.13-.29-.31-.31-.49-.04-.39,0-.79,0-1.18.05.21.06.44.16.64.1.2.28.36.42.54.1-.28.21-.57.31-.85.07-.19.13-.37.2-.56.04.2.09.41.13.61.04.21.06.42.08.63.06-.09.15-.17.18-.27.13-.4.23-.81.35-1.21.01.35-.02.71.05,1.06.03.14.29.21.41.35.27.31.5.65.76.97-.27-.04-.56-.16-.81-.1-.25.06-.45.3-.68.45.07.05.14.16.21.15.64-.06,1.28-.12,1.91-.21.33-.04.65-.17.98-.19.71-.02,1.43.06,2.14-.01.39-.04.75-.31,1.12-.48-.21.47-.48.92-.59,1.41-.03.14.37.53.59.56.38.04.79-.11,1.19-.19-.2.32-.42.62-.59.96-.06.11-.03.37.05.44.22.17.5.28.75.41-.02-.13-.08-.27-.07-.4.02-.36.2-.77.09-1.06-.26-.67-.67-1.29-1.01-1.94Zm28.29-52.76c-.3-.36-.56-.79-.93-1.06-.31-.23-1-.16-1.1-.4-.77-1.93-2.27-.76-3.32-.67-1.12.1-2.16.95-3.29,1.33-1.62.54-3.28.92-4.91,1.43-.22.07-.32.48-.48.73.32.07.65.22.96.2.41-.02.81-.18,1.22-.28-.33.39-.62.85-1.01,1.17-.78.61-1.67,1.08-2.42,1.72-.69.59-1.27,1.31-1.9,1.98h.02c-.03-.31-.05-.63-.08-.95.03,0,.07.03.1.02.17-.06.38-.09.48-.2.39-.47.76-.96,1.12-1.46.2-.28.38-.58.57-.87-.24-.12-.5-.36-.7-.32-.28.05-.52.31-.76.49-.14.1-.25.23-.37.35,0-.17.04-.46-.02-.49-.28-.11-.59-.15-.89-.21-.05,0-.11.03-.16.04.08.14.17.27.24.41.12.23.39.53.33.69-.18.44-.5.83-.76,1.24-.1-.07-.27-.13-.28-.21-.02-.12.08-.26.12-.39-.1.04-.25.05-.29.12-.08.14-.14.32-.14.48-.01.8-.03,1.59,0,2.39.06,1.25.17,2.5.27,3.75.02.27.1.54.16.81-.14-.18-.33-.34-.41-.54-.19-.47-.41-.96-.46-1.45-.1-.96-.08-1.93-.12-2.9-.01-.28-.07-.55-.12-.82-.01-.05-.09-.09-.13-.14-.02.05-.04.1-.07.14-.37.46-.72.96-1.14,1.37-.26.25-.74.3-.93.57-.14.2.04.62.08.94.27-.28.53-.57.82-.82.03-.03.35.14.36.24.14,1.11.21,2.24.4,3.34.06.36.37.7.63,1,.22.26.51.45.78.68-.12.06-.24.16-.37.17-.11.01-.23-.06-.35-.09.1.14.24.27.28.43.08.34.13.68.15,1.03.02.27-.07.55-.03.82.04.23.15.49.31.65.24.23.55.51.85.55.46.06.95-.07,1.43-.12-.03-.1-.02-.22-.08-.28-.18-.19-.39-.36-.58-.53.12,0,.31-.03.35.03.22.29.46.59.58.93.25.72.44,1.46.65,2.19-.47-.24-.96-.47-1.42-.72-.23-.13-.44-.31-.66-.46-.15.22-.48.5-.42.65.1.31.36.63.64.8,1.04.6,2.11,1.14,3.17,1.71l.22-.45c.07.25.13.5.21.75,0,0,.16,0,.22-.05.9-.73,1-.74,1.67-.01.06.06.15.13.23.14.98.14,1.96.27,2.95.39.06,0,.19-.1.18-.15-.02-.28-.07-.55-.1-.83.19.35.35.73.58,1.05.15.21.39.35.6.51.02.01.13-.05.15-.1.63-1.46,1.36-1.57,2.2-.16.03.05.12.09.16.08.05-.01.08-.1.12-.14.38-.39.71-.83,1.14-1.15.42-.31.95-.47,1.41-.73.04-.02-.08-.31-.13-.48.33,0,.67.06.99,0,.71-.13,1.5-.16,2.08-.51.85-.53,1.55-1.32,2.32-1.97.18-.15.6-.21.61-.34.05-.62,0-1.26,0-1.89,0-.04.18-.1.28-.1.13,0,.25.05.38.08-.04-.14-.05-.3-.13-.42-.11-.19-.27-.36-.4-.54.21.1.41.22.63.29.09.03.3-.04.3-.07-.02-.74.2-1.66-.16-2.16-.37-.51,1.94-1.55-.34-1.5-.16,0-.36-1.55-.51-2.38-.05-.29.11-.65,0-.89-.11-.24-.42-.43-.69-.51-.1-.03-.31.3-.48.47-.03-.3-.04-.6-.09-.9-.06-.38-.12-.76-.21-1.14-.15-.64-.29-1.29-.48-1.92-.05-.18-.26-.32-.41-.47-.79-.84-2.54-1.24-1.39-2.99.51.66,1.02,1.31,1.53,1.97.04-.06.12-.16.1-.17-.09-.1-.3-.21-.28-.26.11-.3.27-.59.41-.89.42.51.87,1.01,1.25,1.55.07.1-.18.42-.12.55.19.39.47.73.72,1.1-.06-.29-.05-.61-.19-.85-.71-1.19-1.45-2.37-2.21-3.54-.14-.21-.41-.33-.61-.49.15.26.33.52.44.8.09.23.12.49.13.74,0,.09-.15.19-.23.28-.12-.23-.24-.45-.35-.68-.08-.16-.14-.33-.2-.5-.15.13-.3.26-.46.39Zm-51.38,5.34l-.42-.23c-.07.16-.24.37-.19.48.13.29.5.52.52.8.18,1.92.16,3.87.47,5.77.18,1.11.6,2.44,1.39,3.11.64.54,1.99.31,3.03.3,1.51,0,3.02-.09,4.52-.18.52-.03,1.04-.12,1.55-.22.52-.1,1.14-.11,1.53-.4.42-.3.6-.9.92-1.35.41-.58.86-1.14,1.26-1.73.01-.02-.39-.32-.6-.48-.12.55-.24,1.1-.36,1.65-.16-.52-.39-1.04-.45-1.58-.03-.25.3-.53.4-.83.11-.32.1-.68.24-.98.07-.16.34-.28.54-.33.24-.05.66.09.71,0,.16-.3.31-.71.24-1.02-.22-.94-.53-1.85-.87-2.76-.03-.09-.61.07-.69-.05-.56-.81-1.02-1.68-1.58-2.49-.22-.33-.57-.59-.92-.79-.13-.08-.4.12-.62.16-.04,0-.11-.16-.17-.25.37-.16.74-.32,1.11-.47.22-.09.44-.15.66-.23-.13-.17-.28-.51-.39-.49-1.12.12-2.22.37-3.34.45-.89.07-1.81-.13-2.7-.05-.85.08-1.7.3-2.5.6-.32.12-.46.66-.75.94-.67.63-1.4,1.2-2.07,1.84-.22.2-.33.52-.48.79Zm10.6,33.35c.09-.01.18-.02.27-.03-.16-.62-.3-1.24-.48-1.85-.18-.6-.39-1.2-.58-1.8.1.63.2,1.26.28,1.89.02.16,0,.32,0,.48-.06-.01-.14,0-.17-.04-.42-.48-.84-.97-1.24-1.47-.14-.17-.21-.39-.32-.58-.06.19-.19.39-.17.57.1.69.33,1.36.37,2.05.04.64-.09,1.29-.18,1.93-.01.08-.21.14-.32.21-.18-.42-.42-.83-.51-1.26-.09-.4.07-.86-.02-1.26-.12-.49-.4-.95-.61-1.42.06.29.21.61.15.87-.07.3-.33.56-.53.82-.04.05-.18.05-.25.02-.04-.02-.06-.14-.06-.21.03-.7.08-1.4.11-2.1,0-.09-.11-.18-.17-.28-.05.05-.14.09-.15.14-.08.91-.2,1.82-.22,2.73,0,.45.15.91.24,1.37-.18-.47-.35-.94-.54-1.4-.03-.08-.12-.14-.18-.21-.19.25-.41.47-.54.74-.05.11.1.31.16.47.06-.03.14-.05.19-.1.07-.08.11-.19.17-.28,0,.2.05.41.01.6-.15.68-.31,1.36-.49,2.04-.09.36-.22.71-.34,1.06-.03.09-.12.16-.18.24-.05-.07-.09-.17-.15-.22-.05-.03-.15,0-.22,0,.01.26-.03.73.05.75.42.11,1.05.31,1.26.11.4-.38.57-1,.83-1.53.09.39.22.78.25,1.18.03.4.07.86-.1,1.2-.17.37-.58.63-.88.93.5.1.99.22,1.49.29.1.01.24-.16.32-.27.2-.26.38-.53.57-.79.09.24.16.49.27.71.04.09.25.21.26.2.79-.79,1.96-1.47,2.25-2.42.39-1.25.1-2.72.1-4.09Zm-29.47,53.2c.33.23.71.5,1.1.77-.05.06-.11.18-.13.18-.36-.14-.71-.35-1.08-.42-.25-.05-.53.1-.8.19-.08.03-.13.14-.2.22.94.44,1.87.92,2.83,1.3.32.13.75.06,1.11-.01.22-.04.48-.22.6-.41.15-.23.18-.54.25-.81.25.39.49.79.75,1.17.27.42.56.83.84,1.24-.07-.34-.03-.8-.24-1.02-1.2-1.27-2.29-2.75-3.75-3.6-.79-.46-2.28.05-3.34.44-.4.15-.45,1.22-.66,1.87-.01.03.07.09.1.14.15-.46.23-.97.49-1.35.27-.39.68-.78,1.11-.92.45-.15,1,0,1.51.03-.02.1-.01.25-.07.29-.16.11-.34.23-.52.24-.22.02-.56-.17-.64-.09-.17.2-.22.51-.32.78.3-.06.59-.13,1.04-.22Zm48.88-110.97c-.11-.23-.23-.68-.49-1.01-.5-.63-1.08-1.19-1.63-1.78-.24.29-.58.55-.7.88-.44,1.3-.8,2.63-1.19,3.95-.04.14-.04.29-.06.43.14-.02.3,0,.43-.06,1.39-.66,2.78-1.33,4.17-1.99.35-.17.72-.28,1.08-.42h-1.62Zm41.68-8.74c.04.1.08.21.12.31-.21.11-.45.2-.63.35-.06.05.03.4.07.4,1.95.09,3.91.21,5.87.19.86,0,1.72-.29,2.57-.49.15-.04.25-.32.37-.48-.06-.01-.13-.03-.19-.04-.51-.05-1.02-.09-1.52-.15-.63-.08-1.26-.24-1.89-.26-1.16-.03-2.31,0-3.47.03-.43.01-.86.09-1.29.14Zm-31.91,24.77c-.15-.13-.3-.26-.44-.39,0,0,0,0,0,0-.41-.04-.86-.2-1.23-.1-.75.19-1.46.55-2.21.77-.21.06-.5-.18-.74-.16-.09,0-.15.37-.22.58-.19-.2-.35-.45-.57-.59-.26-.17-.58-.27-.88-.39.34.8.63,1.61,1.05,2.36.08.15.69.13.98,0,1.05-.43,2.07-.94,3.09-1.43.41-.2.79-.43,1.18-.65Zm34.38-25.7c1.06-.16,2.25-.34,3.44-.52.08-.01.16-.05.24-.07-.07-.05-.13-.11-.2-.15-.46-.21-.91-.47-1.4-.62-.28-.09-.61.01-.92,0-.74-.04-1.48-.11-2.21-.16-.03,0-.1.15-.09.15.13.11.27.21.41.31-.23.05-.46.1-.68.16-.19.06-.38.13-.57.2.17.15.32.36.52.42.42.13.86.17,1.45.28Zm-33.95,26.88c.25-.14.16-.09.07-.04.08.1.19.29.24.27.54-.16,1.08-.35,1.61-.55,0,0-.04-.18-.09-.26-.1-.17-.21-.33-.32-.5.23-.02.47,0,.67-.07.62-.22,1.23-.47,1.84-.73.05-.02,0-.35,0-.35-.46-.02-.92-.06-1.37,0-.39.05-.75.22-1.14.31-.31.07-.83,0-.89.15-.19.43-.2.93-.25,1.41,0,.07.13.16.2.24-.07.01-.14.03-.58.12Zm-51.43,90.86c-.11.45-.18.78-.26,1.12,1.02.22,2.04.48,3.08.61.1.01.3-.71.46-1.09-1.03-.2-2.05-.4-3.28-.64Zm-10.62-5.64c-1,.6-1.31.79-1.62.98.14.17.3.33.41.52.22.41.48.81.6,1.26.15.54.17,1.12.25,1.69.12-.35.33-.7.35-1.05.05-.96.02-1.93.02-3.39Zm95.54-101.7c-.05.12.05-.12.16-.35-.49-.1-.98-.27-1.47-.27-.32,0-.64.25-.96.39.05.1.09.2.14.31.17.38.36.75.51,1.13.03.07-.07.19-.11.28.39-.22.79-.43,1.17-.67.04-.02.02-.23-.04-.28-.11-.1-.26-.14-.4-.21.2-.07.39-.13.98-.33Zm14.64-8.18c.2.22.39.44.59.66-.17.1-.34.23-.53.29-.43.13-.86.22-1.29.32.39.23.77.65,1.16.65.56,0,1.12-.31,1.68-.49-.22-.25-.47-.48-.66-.76-.09-.13-.07-.33-.11-.5.11-.02.26-.09.33-.04.15.09.25.25.38.38.02-.11.08-.31.05-.33-.25-.12-.51-.26-.77-.29-.27-.03-.56.06-.83.1Zm-8.35,40.65c.55-.09.64-.11.73-.12-.05-.06-.13-.12-.16-.19-.14-.35-.26-.7-.39-1.05.29-.08.58-.16.87-.24.15-.04.31-.06.47-.09-.17-.06-.34-.17-.51-.18-1.25-.05-1.62.44-1.16,1.5.02.06.02.13.03.2-.06,0-.13.01-.19.01-.28,0-.56-.01-.84-.02.02.43.04.87.08,1.3,0,.02.16.07.19.05.17-.17.34-.35.48-.55.22-.31.43-.63.42-.62Zm-83.53,70.49c-.29-1.02-.52-1.8-.74-2.58-.44.24-.88.47-1.3.73-.07.04-.05.23-.08.35.16,0,.33.02.48-.03.2-.07.38-.19.57-.29-.08.34-.14.69-.26,1.01-.03.1-.22.14-.34.21.27-.06.57-.22.79-.15.33.12.59.4.89.62,0-.04,0-.09,0,.12Zm12.26-2.47s-.07.05-.1.08c.12.14.23.29.35.43.11-.12.35-.29.33-.36-.32-.84-.68-1.67-1.03-2.5-.33.27-.66.53-.99.8.48.52.97,1.03,1.45,1.55Zm-.17-126.17c.15-.31.29-.62.44-.92-.44-.25-.88-.53-1.34-.73-.08-.03-.28.28-.45.4-.4.27-.81.53-1.22.79l2.57.47Zm19.4,48.25c-.1,1.18-.16,1.74-.18,2.31,0,.08.18.23.2.23.49-.32.96-.66,1.44-.99-.32-.34-.65-.69-1.45-1.54Zm54.41-17.06c-.3.16-.57.31-.85.45.47.34.93.7,1.41,1.03.11.08.26.1.39.14-.05.07-.09.2-.14.2-.16.02-.34.02-.49-.03-.13-.04-.24-.16-.37-.24-.01.08-.06.19-.03.24.12.14.27.26.41.39.33-.37.66-.74,1-1.12-.18,0-.39.05-.54-.02-.21-.09-.38-.28-.55-.43-.03-.03-.04-.14-.02-.16.09-.08.2-.13.31-.19-.16-.08-.32-.16-.54-.27Zm5.77-18.78c.2.42.36.82.4.81.86-.26,1.7-.57,2.55-.87-.79-.25-1.57-.53-2.37-.7-.13-.03-.37.47-.57.76Zm-107.7,64.32c.03.28.08.74.12,1.2.08-.31.11-.64.25-.92.24-.51.69-.97.77-1.49.07-.49-.24-1.03-.38-1.54,0,0-.19.02-.2.05-.18.84-.35,1.69-.56,2.7Zm50.93,42.64c.04.14.06.27.11.39,0,.02.14.02.14,0,.3-.8.59-1.59.87-2.39.04-.1.03-.22.08-.31.02-.03.16-.03.22,0,.11.06.2.16.3.24-.05-.23-.06-.48-.17-.68-.03-.06-.45-.04-.48.04-.38.89-.72,1.79-1.08,2.7Zm-7.9-82.55c-.41,1.56-.59,2.31-.81,3.04-.05.16-.24.28-.37.43.24-.01.52.06.7-.05.22-.13.42-.39.51-.63.18-.46.3-.95.39-1.43.03-.15-.09-.32-.43-1.36Zm-18.55,1.23c0,.78-.16,1.33.04,1.68.25.43.78.72,1.22,1.01.07.05.33-.21.51-.32-.14-.21-.27-.42-.42-.62-.27-.38-.55-.75-.83-1.12-.09-.12-.19-.23-.53-.63Zm-26.14,39.17c.18-.1.37-.21.55-.31-.13-.06-.37-.19-.39-.17-.31.48-.94,1.11-.81,1.43.23.56.93.94,1.43,1.39.04-.06.13-.15.12-.19-.29-.72-.6-1.44-.9-2.15Z"/><path d="m122.35,0c3.16.57,6.34,1.03,8.24,4.27,3.56,6.07,2.63,12.52-3.74,16.81-.21.14-.53.12-.8.18.2-.12.44-.21.6-.37.9-.92,1.77-1.87,2.65-2.8-.16-.06-.46-.15-.46-.16.21-.76.56-1.5.64-2.27.04-.36-.41-.78-.67-1.16-.44-.66-.92-1.31-1.33-1.99-.05-.08.33-.37.31-.52-.09-.46-.3-.89-.42-1.35-.15-.61-.18-1.25-.4-1.83-.09-.24-.57-.52-.82-.48-.99.17-1.03-.29-.98-1.08.02-.27-.45-.77-.75-.81-.67-.1-1.4.14-2.06,0-1.09-.22-2.15-.63-3.23-.93-.15-.04-.35.11-.53.17.09.11.18.21.26.32.11.13.21.26.31.4-.14,0-.28,0-.42.01-.07,0-.2.07-.2.07.11.34.23.67.34,1.01.04.12.04.26.05.38-.16-.03-.43-.12-.45-.09-.1.19-.12.41-.18.62-.04-.02-.08-.04-.11-.07-.1-.08-.21-.16-.31-.25-.67.85-1.35,1.71-2.02,2.56.23.02.46.04.7.07.27.03.54.06.81.09-.17.04-.35.09-.52.13.07.13.15.26.21.39.52,1.29,1.04,2.57,1.54,3.86.04.1,0,.35-.04.35q-.64.14-.17,1.1c.03.06,0,.15-.01.23-.22-.09-.44-.2-.66-.28-.54-.19-1.1-.33-1.61-.59-.23-.11-.35-.44-.52-.67-.07.23-.14.46-.21.68-.08.24-.1.53-.25.7-.44.49-.94.94-1.42,1.4-.66-.87-1.76-1.68-1.88-2.63-.31-2.37-.82-5.03-.07-7.16,1.37-3.87,4.01-7,8.39-7.98.69-.15,1.4-.24,2.19-.37Z"/><path d="m91.19,65.27l.5-.86c.09.24.17.48.27.71.04.08.17.2.22.18.34-.12.69-.25,1.01-.42.25-.13.48-.31.72-.47-.02.2-.07.41-.06.61.01.33-.06.77.12.96.21.22.8.4.96.27.27-.23.34-.7.5-1.07.03-.07.08-.14.11-.21l1.77,1.23c-.16.14-.35.41-.47.38-.33-.07-.63-.29-.95-.42-.1-.04-.34,0-.36.04-.06.22-.16.5-.07.67.07.15.37.22.58.27.68.18,1.36.44,2.05.47.7.03,1.43-.35,2.09-.24.55.09,1.02.63,1.52.98.04.03.04.15.07.16.31.04.64.13.94.08.21-.03.4-.25.6-.38,0,.1.03.25-.02.29-.3.21-.61.44-.95.58-.2.08-.46.02-.69.02.07.2.09.45.23.58.14.14.39.2.6.23.25.04.6-.1.76.03.32.26.55.64.82.97-.44-.14-.87-.3-1.32-.4-.42-.09-.86-.1-1.29-.14.25.14.63.23.71.43.15.41.16.88.16,1.32,0,.05-.43.21-.6.15-.75-.28-1.48-.61-2.22-.93-.15-.07-.29-.17-.44-.25.02.16.05.31.07.47.03.18.06.36.09.54-.13-.01-.29.03-.37-.04-.16-.15-.3-.33-.4-.53-.16-.31-.23-.67-.43-.94-.1-.14-.4-.13-.61-.19.02.32.04.63.06.95,0,.08,0,.17,0,.25-.19-.03-.42,0-.57-.1-1.68-1.06-3.43-2.03-4.99-3.26-.78-.61-1.2-1.69-1.75-2.57-.18-.28-.37-.61-.38-.93-.01-.25.23-.52.36-.78.28.48.58.96.84,1.45.1.18.15.4.22.6.08-.21.15-.42.23-.62l-.22-.1Zm6.88,3.37c-.39.31-.57.41-.69.56-.04.06.01.28.09.33.88.55,1.78,1.08,2.67,1.62.18.11.36.23.54.34.05-.15.2-.37.15-.44-.17-.22-.4-.41-.64-.56-.34-.21-.76-.31-1.05-.57-.38-.35-.67-.8-1.07-1.28Z"/><path d="m36.92,108.85c1.82-.45,3.63-.91,5.46-1.33.24-.06.53.09.79.15-.16.18-.34.34-.49.54-.3.41-.58.84-.86,1.26.19,0,.47-.06.54.03.18.23.25.54.37.82-.18.05-.37.1-.55.15-.44.12-.88.24-1.32.36.23-.5.45-1,.68-1.51-.66-.1-1.32-.3-1.97-.27-1.02.05-2.03.27-3.06.36-.18.02-.38-.27-.57-.42.26-.24.51-.47.77-.71.07.19.14.37.21.56Z"/><path d="m230.15,33c.41-.27.81-.56,1.24-.79.14-.07.35,0,.53.01-.17-.13-.34-.27-.53-.39-.14-.09-.3-.15-.45-.22.15-.08.3-.19.46-.23.4-.08.8-.12,1.21-.18-.13.09-.27.18-.38.28-.05.04-.05.13-.07.2.11.01.24.08.32.03.18-.1.37-.23.47-.4.04-.08-.09-.37-.2-.41-.89-.3-1.8-.57-2.7-.86-.03,0-.03-.3.04-.36.49-.39,1.01-.74,1.52-1.11.22.47.44.93.64,1.41.04.1-.07.34-.02.36.45.23.93.43,1.39.64-.52.5-.98,1.11-1.58,1.46-.55.32-1.26.36-1.9.52,0,0,.02.02.02.02Z"/><path d="m223.03,48.94c.2-.22.41-.43.61-.65.44.28.87.55,1.31.83-.19.19-.37.4-.59.55-.2.13-.44.17-.67.26.24.11.47.21.71.32-.37.5-.75,1-1.12,1.49-.25.06-.5.12-.75.19.16-.18.43-.34.46-.54.05-.33-.09-.68-.08-1.02.01-.48.08-.95.13-1.43Z"/><path d="m28.56,112.32c-.73-.03-1.47-.06-2.2-.09-.42-.48-.88-.94-1.26-1.45-.24-.33-.37-.76-.54-1.14.37.17.78.3,1.11.53.98.69,1.93,1.43,2.89,2.15Z"/><path d="m105.88,70.75c-.35.44-.62,1.1-1.07,1.27-.61.23-1.36.1-2.04.09-.03,0-.14-.49-.05-.62.12-.17.44-.31.64-.28,1.56.26,1.55.28,1.19-.95,0-.03.31-.21.49-.23.75-.05,1.49-.08,2.24-.09.12,0,.25.08.37.12-.34.17-.68.35-1.03.51-.02.01-.14-.11-.17-.19-.07-.19-.11-.39-.17-.58-.24.22-.48.44-.73.66.11.1.22.2.32.3Z"/><path d="m121.11,43.77s.05-.04.05-.04c.07.06.22.13.21.17-.08.25-.17.5-.28.75-.07.16-.17.3-.26.45.13-.07.26-.15.4-.2.29-.11.58-.22.87-.32-.18.19-.34.47-.56.53-.34.09-.72,0-1.08.03-.08,0-.16.15-.22.24-.19.33-.36.68-.54,1.01-.05-.52-.2-1.05-.11-1.55.13-.71.44-1.39.69-2.08,0-.02.2-.02.24.03.12.15.21.33.59.97Z"/><path d="m109.69,59.46c.84,1.22,1.35,1.96,1.86,2.71.09.13.17.26.23.4.05.14.06.29.09.44-.17.03-.42.14-.5.07-.61-.56-1.21-1.15-1.75-1.77-.08-.09.2-.44.24-.68.03-.18-.04-.38-.16-1.17Z"/><path d="m106.18,67.63c-.31-.76-.54-1.26-.71-1.78-.03-.08.18-.24.28-.37.04.09.06.21.13.26.33.26.65.59,1.03.73.32.12.73.04,1.1.04-.08.16-.12.41-.23.45-.13.04-.38-.22-.47-.16-.2.12-.32.36-.5.53-.59.56-1.2,1.11-1.82,1.64-.03.02-.26-.2-.4-.31.16-.13.3-.29.47-.39.43-.27.88-.51,1.12-.65Z"/><path d="m117.5,42.04c-.27.11-.49.17-.7.28-.31.16-.61.35-.92.52-.01-.06-.05-.15-.03-.16.39-.29.76-.62,1.19-.82.42-.2.91-.28,1.37-.41-.19-.05-.38-.09-.56-.14-.02,0-.03-.08-.02-.09.25-.19.49-.48.77-.52.24-.03.53.22.79.34-.16.12-.44.22-.47.37-.1.49-.14,1-.12,1.5,0,.18.28.35.43.52-.32.08-.64.16-.96.25-.05-.29-.12-.58-.15-.87-.01-.15.12-.41.06-.45-.19-.14-.43-.21-.68-.32Z"/><path d="m215.38,41.49c.69.28,1.04.41,1.38.55-.18.25-.37.51-.55.76-.11-.11-.27-.33-.32-.31-.21.09-.37.28-.57.39-.27.15-.56.26-.85.38.13-.1.34-.18.36-.3.03-.17-.12-.53-.1-.53.4-.13.81-.23,1.22-.34-.01-.03-.03-.09-.04-.09-.26-.02-.54-.08-.79-.03-.53.1-1.06.26-1.59.37-.07.02-.16-.07-.24-.11.47-.23.93-.47,1.4-.69.24-.11.48-.21.72-.31-.01.15-.03.29-.03.26Z"/><path d="m154.59,24.19c-.49-.43-.99-.85-1.46-1.3-.08-.08-.11-.34-.05-.4.13-.12.34-.13.5-.22.53-.3,1.05-.62,1.57-.94.06-.04.17-.14.17-.13.11.11.28.23.28.35,0,.21-.09.43-.18.63-.28.68-.57,1.36-.85,2.04,0,0,.02-.02.02-.02Z"/><path d="m47.04,110.09c-.86-.19-1.59-.35-2.31-.55-.01,0,.07-.41.14-.62.02-.06.15-.09.23-.13,0,.19-.02.37,0,.55.02.14.05.34.15.39.1.06.3,0,.42-.06.7-.37,1.4-.77,2.1-1.14.06-.03.15,0,.22,0-.05.28-.02.61-.16.82-.21.3-.55.52-.8.73Z"/><path d="m213.62,41.14l-2.84-.56c.11-.02.22-.06.33-.06,1,0,1.99.01,2.99.02-.11.03-.22.06-.33.09-.05.17-.1.34-.14.51Z"/><path d="m52.59,138.96c-.02-.51-.24-1.16-.01-1.5.26-.38.92-.63,1.42-.65.28-.01.58.55.88.85l-1.17.64c-.37.22-.75.44-1.12.66Z"/><path d="m111.51,58.88c-.1.34-.15.5-.2.67-.04-.16-.06-.32-.12-.47-.03-.08-.17-.21-.18-.2-.5.3-1,.62-1.49.94-.14.09-.26.19-.39.29-.14-.44-.27-.87-.41-1.31.15.08.32.26.44.23.59-.14,1.16-.39,1.76-.5.18-.03.42.24.6.35Z"/><path d="m139.72,25.85c.43.16.63.23.84.31-.18.05-.43.05-.53.17-.24.31-.42.68-.62,1.02.18.09.51.24.51.26-.17.46-.38.91-.59,1.35-.06-.07-.17-.15-.17-.22,0-.07.16-.16.15-.22-.1-.63-.3-1.27-.28-1.9,0-.28.47-.54.69-.77Z"/><path d="m88.3,62.37c.27.29.64.54.79.88.15.34.08.77.1,1.16-.67-.88-1.35-1.76-1.99-2.66-.02-.03.38-.35.58-.53.25.32.51.63.76.95-.08.07-.16.13-.25.2Z"/><path d="m217.83,41.48c.06.22.13.45.19.67-.2.02-.48.13-.59.03-.34-.29-.61-.65-.91-1-.03-.04,0-.15-.04-.17-.25-.12-.5-.27-.76-.33-.21-.05-.44-.01-.66,0,.24-.05.52-.21.71-.14.71.28,1.39.64,2.08.96,0,0-.02-.02-.02-.02Z"/><path d="m45.55,80.35c.35,1.6.73,3.19,1.01,4.8.06.37-.21.8-.33,1.2,0-.29.13-.64,0-.86-.46-.83-1.06-1.58-1.46-2.43-.15-.32.08-.82.16-1.23.03-.16.15-.3.18-.45.01-.04-.12-.16-.2-.18-.25-.07-.55-.07-.76-.21-.09-.06-.01-.57.02-.58.46-.04.92-.03,1.38-.04,0,0-.01-.02-.01-.02Z"/><path d="m19.5,89.04c.57.09,1.14.21,1.71.24.29.01.67-.06.85-.25.17-.18.13-.55.19-.84.29.77.64,1.52.84,2.31.05.2-.35.52-.55.79-.13-.51-.24-1.03-.39-1.54-.02-.08-.21-.2-.26-.17-.14.07-.36.2-.36.3.01.31.12.62.19.93-.16-.22-.28-.51-.49-.66-.56-.4-1.15-.74-1.73-1.11,0,0,0,0,0,0Z"/><path d="m24.55,88.39c0,1.24,0,1.96,0,2.68-.51-.62-1.02-1.24-1.52-1.86.49-.3.98-.61,1.47-.91.1.19.21.37.05.09Z"/><path d="m43.52,88.74c-.14.27-.2.61-.39.72-.53.32-1.12.54-1.69.8-.01-.47-.03-.94-.03-1.42,0-.04.18-.1.27-.11.6,0,1.2,0,1.83,0Z"/><path d="m80.68,99.19c-.15.46-.32.94-.48,1.43-.31-.22-.91-.57-.89-.63.24-.51.59-.97.91-1.44.13.18.25.36.45.65Z"/><path d="m82.33,137.83c-.53.3-.99.45-1.29.76-.42.44-.69,1.02-1.09,1.48-.2.23-.55.34-.83.5.19-.2.44-.36.56-.6.1-.18.15-.53.04-.66-.28-.32-.66-.56-1-.83.4.13.8.24,1.18.4.09.04.1.25.19.34.05.05.25.03.28-.02.37-.63.71-1.28,1.08-1.92.02-.04.21-.04.29.01.14.08.24.21.58.53Z"/><path d="m77.5,133.91c.78-.49,1.08-.67,1.37-.86.08.25.29.54.22.73-.18.53-.47,1.02-.72,1.53-.36-.57-.71-1.14-.87-1.41Z"/><path d="m75.26,129.25c-.44.16-.71.28-.99.35-.23.06-.48.07-.71.1.22-.32.41-.67.67-.96.28-.32.61-.58.93-.87.09.78.18,1.56.26,2.34,0,.03-.1.07-.15.11v-1.07Z"/><path d="m77.85,125.01c1.18-.38,1.72-.55,2.26-.72-.22.65-.44,1.29-.65,1.94-.47-.46-.94-.93-1.41-1.39.11-.1.22-.19-.2.17Z"/><path d="m73.17,39.67c.51.92.99,1.51,1.11,2.15.04.24-.76.63-1.16.96-.36.3-.7.62-1.05.94-.05.05-.11.09-.17.14-.19-.29-.39-.58-.55-.89-.03-.05.17-.19.23-.31.46-.85.91-1.7,1.59-2.99Z"/><path d="m70.04,42.04c-.14.42-.37,1.21-.4,1.21-.88-.21-1.74-.51-2.6-.8-.02,0-.03-.16-.01-.17.9-.34,1.8-.68,2.71-.98.01,0,.18.44.3.74Z"/><path d="m74.99,35.34c.14-.23.26-.43.39-.64.56.4,1.64.89,1.59,1.2-.16,1.04-.72,2.01-1.14,3,0,.02-.19-.03-.3-.05.03-.09.09-.19.1-.28.13-1.06.26-2.12.36-3.19,0-.05-.28-.17-.43-.19-.07,0-.16.16-.23.26-.06.09-.1.2-.15.3-.05-.12-.11-.24-.19-.42Z"/><path d="m67.22,27.18c.63.47,1.24.95,1.88,1.4.23.16.5.25.74.41.03.02-.08.35-.11.35-.28-.03-.57-.08-.84-.16-.3-.09-.59-.24-.9-.33-.06-.02-.15.07-.23.11,0-.1.02-.22-.02-.3-.09-.19-.24-.35-.3-.55-.1-.3-.14-.62-.2-.93,0,0-.02.02-.02.02Z"/><path d="m70.12,31.27c-.32-.15-.64-.3-.96-.46-.07-.03-.17-.1-.17-.14.02-.15.04-.36.14-.43.22-.14.55-.35.71-.27.27.13.57.43.65.72.18.7.25,1.42.35,2.14.02.12-.07.25-.1.38-.03-.1-.03-.23-.09-.31-.14-.2-.32-.37-.47-.56-.15-.2-.28-.41-.41-.61.12-.15.24-.3.37-.45Z"/><path d="m72.09,32.22c-.16,1.16-.32,2.32-.5,3.47,0,.01-.29-.02-.44-.03.03-.38.06-.76.07-1.14.02-.74.03-1.48.06-2.21,0-.16.07-.32.1-.47.27.15.54.29.71.39Z"/><path d="m20.31,20.99c-.16.98-.24,1.99-.48,2.95-.29,1.11-.71,2.18-1.11,3.25-.02.06-.41.07-.55-.02-.21-.13-.5-.36-.51-.56-.09-1.83-.18-3.66,2.1-4.42.28-.09.37-.79.55-1.2,0,0,0,0,0,0Z"/><path d="m8.57,19.83c-.05.33-.04.7-.16,1.02-.12.32-.36.6-.55.89.22-.18.43-.37.67-.51.02-.02.32.26.3.37-.06.32-.18.65-.35.92-.06.09-.43.13-.51.05-.34-.35-.89-.77-.87-1.13.03-.61.42-1.21.72-1.78.09-.18.39-.26.59-.38.05.17.1.35.16.55Z"/><path d="m17.35,18.51c-.51-.3-1.03-.44-1.24-.77-.14-.22.1-1,.28-1.04.65-.14,1.34-.07,2.02-.08-.36.64-.72,1.29-1.06,1.89Z"/><path d="m29.69,31.06c.54-1.2,1.06-2.35,1.58-3.49.02-.05.1-.07.15-.11.03.05.1.1.09.15-.19,1.26-.39,2.52-.61,3.77-.02.14-.28.38-.3.37-.26-.16-.51-.36-.92-.69Z"/><path d="m30.12,26.83c-.26-.28-.63-.53-.76-.86-.12-.3.02-.71.04-1.07.28.24.7.42.8.72.26.73.37,1.51.54,2.27,0,.03-.08.08-.13.12l-.79-.91c.1-.09.19-.18.29-.27Z"/><path d="m188.81,68.96c.49-.43.98-.86,1.49-1.27.11-.09.29-.21.39-.17.17.06.44.28.42.34-.11.29-.25.6-.47.81-.66.64-1.29,1.39-2.08,1.82-1.2.66-2.52,1.14-3.82,1.6-.35.12-.82-.07-1.23-.13.36-.21.81-.35,1.05-.65.53-.67,2.01.21,2.02-1.56,0-1.11,1.1-2.22,1.71-3.32.03-.05.15-.04.24-.05.02.56.06,1.12.05,1.68,0,.2-.15.39-.23.58.15.1.31.21.46.31Z"/><path d="m172.97,61.65c-.12.97-.25,1.93-.37,2.9-.03.22-.04.44-.06.66-.05.41-.11.83-.17,1.24-.11-.36-.36-.75-.3-1.08.25-1.25.6-2.48.91-3.71,0,0-.02-.01-.02-.01Z"/><path d="m189.98,73.74c-.26-.24-.44-.35-.42-.4.07-.23.13-.5.3-.66.33-.31.72-.55,1.1-.8.08-.05.29.03.32-.01.16-.31.29-.64.43-.96.09.06.26.14.26.17-.08.35-.1.78-.31,1.03-.49.58-1.09,1.07-1.67,1.63Z"/><path d="m185.65,55.51c-.41-.44-.82-.88-1.23-1.32.1-.07.26-.21.3-.19.75.52,1.49,1.07,2.24,1.61-.14.05-.32.18-.41.13-.22-.13-.4-.34-.6-.51-.1.09-.2.18-.3.28Z"/><path d="m164.12,106.02c.08.27.18.46.19.65.02.54,0,1.08,0,1.62-.14-.62-.27-1.24-.41-1.86-.03-.13-.06-.27-.09-.4-.1.04-.24.05-.3.12-.07.09-.13.25-.1.35.18.61.38,1.22.57,1.83.02.07,0,.16,0,.24-.06-.01-.17,0-.19-.05-.44-.85-.87-1.7-1.28-2.56,0-.01.4-.17.57-.32.68-.58,1.33-1.18,2.01-1.76.04-.03.32.13.31.16-.17.72-.38,1.43-.56,2.16-.06.25-.06.51-.08.77-.08-.13-.19-.26-.22-.41-.04-.26-.02-.54-.05-.8,0-.05-.12-.09-.18-.14-.07.15-.14.3-.2.41Z"/><path d="m123.36,139.08c.14.53.51,1.13.36,1.57-.18.55-.74,1.27-1.21,1.33-.44.06-1.34-.61-1.39-1.03-.07-.57.48-1.22.76-1.84.49-.01.98-.02,1.47-.03Z"/></g></svg>