<?xml version="1.0" encoding="utf-8"?>
<!-- Generator: Adobe Illustrator 27.5.0, SVG Export Plug-In . SVG Version: 6.00 Build 0)  -->
<svg version="1.1"
	 id="svg7584" xmlns:cc="http://creativecommons.org/ns#" xmlns:dc="http://purl.org/dc/elements/1.1/" xmlns:svg="http://www.w3.org/2000/svg" xmlns:rdf="http://www.w3.org/1999/02/22-rdf-syntax-ns#"
	 xmlns="http://www.w3.org/2000/svg" xmlns:xlink="http://www.w3.org/1999/xlink" x="0px" y="0px" viewBox="0 0 106.7 137.4"
	 style="enable-background:new 0 0 106.7 137.4;" xml:space="preserve">
<g>
	<path d="M4.6,53c0.3-1.1,0.7-2.1,1-3.2c0.1-0.3,0.2-0.7,0.1-1C4.4,45.5,5.6,42,8.9,40c-0.1-1.6,0.2-3.3,1.2-4.7
		c1-1.4,2.4-2.3,4-2.8c-0.2-5.3,0.9-7.2,5.4-9c0.7-3.8,3-5.9,6.8-6.3c2.2-4.3,4.2-5.6,8.2-5.2c0.4-2,1.3-3.8,3.1-4.9
		c1.8-1.2,3.7-1.3,5.7-0.9C44,5.6,44.5,5,45.1,4.6c1.6-1.2,3.4-1.4,5.4-1.2c0.5,0.1,1,0,1.5-0.2c1.6-0.7,3.3-0.9,5-0.6
		c0.4,0.1,0.9,0,1.2-0.2C61,0.3,63.9,0.1,67,1.6c0.1,0,0.2,0,0.3,0.1c2-1.3,4.2-1.8,6.5-1.1c0.9,0.3,1.8,0.8,2.7,1.3
		c0.3,0.2,0.7,0.4,1.1,0.4c5,0.2,7.6,2.5,8.4,7.5c0,0,0,0.1,0.1,0.2c2.4,0.3,4.4,1.3,5.8,3.4c1.4,2.1,1.6,4.4,1,6.9
		c2.5,0.8,4.4,2.3,5.4,4.9c0.9,2.5,0.5,4.9-0.8,7.2c3.3,0.7,5.6,2.4,6.5,5.6c0.9,3.2-0.1,5.9-2.4,8.1c6.4,3.6,5.7,11.2,0.4,14.3
		c3,1.4,4.9,3.6,5,6.9c0.2,3.3-1.3,5.7-4.1,7.4c5.4,4.4,3.8,11.5-1.8,13.9c2.6,2.1,3.8,4.7,3.2,8c-0.7,3.3-2.8,5.2-5.9,6.1
		c2.3,4.7,0.4,10-5.4,11.7c0.6,2.6,0.4,5.1-1.3,7.3c-1.7,2.2-4,3.1-6.8,3c0,2.6-0.8,4.9-2.8,6.6c-2,1.7-4.4,2.2-6.9,1.6
		c-3.6,4.9-6.8,5.8-11.6,3.4c-1.2,0.4-2.2,0.9-3.3,1.2c-2.6,0.6-4.9-0.1-6.8-2c-0.5-0.5-1.1-0.8-1.8-0.7c0,0-0.1,0-0.1,0
		c-2-0.3-4.1-0.4-6.1-0.6c-1.1-0.1-2.3-0.9-3.3-1.6c-0.6-0.4-1.1-0.7-1.8-0.8c-1.4-0.2-2.7-0.8-3.7-1.8c-0.3-0.2-0.7-0.5-1-0.5
		c-3.5,0-5.8-1.8-6.9-5c0-0.1-0.1-0.1-0.2-0.2c-0.8,0-1.7,0-2.6-0.1c-3.2-0.5-5.4-3.1-5.7-6.4c-0.2-1.5-0.5-1.8-2-2.2
		c-2.6-0.7-4.3-2.4-5-5c-0.1-0.4-0.2-0.8-0.3-1.2c-1.8-0.7-3.2-1.8-4.1-3.5c-0.8-1.6-1-3.4-0.4-5.1c0.4-1.1,0.5-2.2,0.2-3.2
		c-0.9-0.6-1.8-1-2.6-1.6c-2.8-2.3-3.3-6.5-1.1-9.5c0.4-0.5,0.5-1,0.4-1.6c-0.2-0.9-0.2-1.9-0.3-3c-2.4-1.1-4-2.9-4.4-5.7
		C0,73.3,1.1,71.1,3,69.6c0-1.7,0-3.1-0.1-4.6c0-0.3-0.1-0.6-0.3-0.8c-2.9-3.2-2.2-8.5,1.9-10.8c0.1-0.1,0.2-0.1,0.3-0.2
		C4.7,53.1,4.6,53.1,4.6,53z M46.3,54c0-3.6-3-6.7-6.6-6.6c-3.6,0-6.6,3-6.6,6.6c0,3.6,3,6.6,6.7,6.6C43.3,60.6,46.3,57.6,46.3,54z
		 M31.8,68.3c0,3.6,2.9,6.6,6.5,6.6c3.6,0,6.7-3,6.7-6.6c0-3.6-2.9-6.6-6.5-6.6C34.8,61.6,31.8,64.6,31.8,68.3z M47.6,95.3
		c0-2.7-1.8-5.3-4.4-6.1c-0.6-0.2-1.2-0.1-1.8,0c-0.9,0.1-1.9,0.2-2.8,0.4c-0.5,0.1-1,0.1-1.3,0.4c-2.6,1.7-3.6,5.1-2.4,7.9
		c1.2,2.9,4.3,4.6,7.4,4C45.4,101.2,47.6,98.4,47.6,95.3z M45.5,81.6c-0.1-2.3-1.2-4.4-3.6-5.6c-0.4-0.2-1-0.2-1.5-0.2
		c-1.2,0-2.4,0.1-3.6,0.2c-0.6,0-1.2,0.1-1.7,0.4c-2.6,1.7-3.6,5-2.5,7.9c1.2,2.9,4.2,4.6,7.1,4.1C43.2,87.7,45.5,85.1,45.5,81.6z
		 M50.5,126.1c3.4,0,6.3-2.6,6.6-6c0.3-3.4-2.1-6.5-5.5-7.1c-0.9-0.2-1.6,0-2.4,0.6c-0.9,0.7-2,1.2-3,1.6c-0.7,0.3-1.2,0.6-1.5,1.2
		C42.4,120.8,45.6,126.1,50.5,126.1z M35.7,40.9c0,1.8,0.8,3.7,2.1,4.8c0.3,0.3,0.8,0.5,1.3,0.5c1.5,0,2.9,0.2,4.3,0.9
		c0.4,0.2,1,0.2,1.4,0c3.1-1.2,4.8-4.5,4-7.7c-0.8-3.1-3.9-5.3-7-5C38.4,34.8,35.8,37.6,35.7,40.9z M52.8,28.5
		c0-2.8-1.9-5.4-4.6-6.2c-2.7-0.9-5.8,0.1-7.4,2.5c-1.6,2.4-1.6,5.4,0.1,7.7c0.4,0.5,0.8,0.8,1.5,0.8c1.6,0,3,0.4,4.3,1.3
		c0.5,0.4,1,0.4,1.6,0.2C51,34,52.8,31.3,52.8,28.5z M41,103c-0.7-0.1-1.4,0-2,0.9c-1.2,1.8-1.6,3.6-1.1,5.7c0.8,3,3.6,5,6.9,4.8
		c3-0.2,5.5-2.5,6-5.5c0.5-2.9-1.2-5.9-4-7.1c-0.6-0.3-1.2-0.3-1.8,0.1C43.9,102.7,42.6,103,41,103z M53.3,25.3
		c4.1-0.6,6.6-4.2,5.8-8c-0.8-3.8-4.7-6-8.4-4.9c-3.9,1.2-5.5,5.6-4.2,8.3C49.5,21,51.8,22.5,53.3,25.3z M52.2,127.2
		c-0.2,2.5,1.4,5,3.9,6.1c2.6,1.2,5.7,0.4,7.6-1.8c1.8-2.1,2.1-5.1,0.7-7.6c-1.3-2.2-3.9-3.6-6.1-3.2
		C57.5,124.1,55.5,126.2,52.2,127.2z M90.1,93.6c-0.3,1.8-0.1,3.2,0.7,4.5c0.2,0.3,0.6,0.6,0.9,0.6c2.2,0.2,4.2,1.1,5.7,2.8
		c2.7-0.5,4.6-1.9,5.5-4.5c0.9-2.6,0.2-4.9-1.7-6.8c-1.6-1.6-3.5-2.1-5.9-1.7c1.6,2.5,1.5,3.1-0.7,3.9c0.4,1,0.3,1.9-0.6,2.5
		c-1,0.6-1.8,0.2-2.6-0.5C91,94.2,90.6,94,90.1,93.6z M94.1,63.6c0.7,0,1.2,0,1.7,0.1c0.7,0.1,1.4,0.3,1.6,1
		c0.3,0.7,0.1,1.3-0.4,1.9c-0.1,0.1-0.2,0.2-0.3,0.4c1,0.6,1.4,1.5,1,2.5c-0.4,1-1.3,1.1-2.3,1.2c-0.6,0-1.2,0.1-2.1,0.1
		c0.6,0.7,1,1.3,1.4,1.7c0.8,0.8,1.7,1.3,3,1c0.9-0.2,1.9,0.2,2.8,0.2c0.5,0,1.1,0.1,1.6-0.1c2.4-1.2,3.7-3.3,3.7-6
		c0-2.6-1.7-5.1-4.2-6.1c-2.6-1-4.9-0.5-7,1.4C94.4,63.1,94.3,63.3,94.1,63.6z M74.6,15.5c2.7,1.9,6.4,1.3,8.6-1.3
		c2.2-2.7,1.9-6.6-0.6-9C79.8,2.6,75.8,3.1,74,5C76.9,8.3,77.1,11.8,74.6,15.5z M95.2,79.9c0.5,0.2,0.9,0.3,1.2,0.5
		c0.4,0.4,0.9,0.9,1,1.4c0.3,1.4-1,2.3-2.4,1.9c-1-0.3-2-0.8-3.1-1.3c0.4,2.6,2.5,4.6,4.9,4.8c0.6,0,1.1,0.2,1.7,0.2
		c0.5,0,1,0.1,1.5,0c2.7-0.7,4.7-3.2,4.8-6c0.1-2.9-1.7-5.6-4.3-6.5c-2-0.7-3.9-0.5-5.9,0.8c0.7,0.4,1.3,0.6,1.8,1
		c1.1,0.7,1.1,2.1,0,2.8C96.1,79.6,95.8,79.7,95.2,79.9z M62.7,133.9c2.2,2.7,6,3.2,8.8,1.2c2.9-2.1,3.7-5.9,1.8-8.8
		c-1.7-2.7-5.3-4-7.7-2.6C67.3,127.7,66.2,131.3,62.7,133.9z M91.9,55c0,0.1,0.1,0.2,0.1,0.4c0.2,0,0.4,0.1,0.6,0
		c0.8-0.3,1.5-0.6,2.2-0.8c0.4-0.2,0.9-0.3,1.4-0.3c0.7,0,1.5,0.7,1.6,1.4c0.1,0.8-0.2,1.5-1,1.9c-0.7,0.4-1.5,0.7-2.2,1.1
		c0.1,0.2,0.2,0.2,0.2,0.3c2.3,1.3,4.6,1.4,6.8,0c2.3-1.4,3.4-3.6,3.2-6.3c-0.3-2.6-1.7-4.4-4.1-5.5c-0.4-0.2-0.9,0-1.4,0
		c-1.1,0.2-2.3,0.5-3.4,0.5c-1.8,0-3.7,1.7-3.8,3.6c1.1-0.3,2.2-0.6,3.3-0.9c1-0.3,1.8,0.2,2.1,1.1c0.2,0.9-0.2,1.7-1.2,2
		c-1.1,0.4-2.2,0.7-3.3,1C92.7,54.7,92.3,54.9,91.9,55z M27.9,81.6c-0.1-0.2-0.1-0.3-0.1-0.4c-0.1-0.1-0.2-0.2-0.3-0.2
		c-1.7-1-2.8-2.5-3.4-4.3c-0.1-0.3-0.6-0.6-0.9-0.7c-2.3-0.6-4.9,0.5-6.2,2.6c-1.3,2.1-1.2,4.7,0.2,6.7c1.5,2,4.1,2.9,6.4,2.2
		c0.6-0.2,0.9-0.5,1-1.1c0.3-1.6,1.2-2.8,2.4-3.9C27.2,82.1,27.5,81.8,27.9,81.6z M54.2,11.1c4.5,1.4,6.5,4.5,6.1,9.2
		c3.3-0.1,6-2.5,6.4-5.6c0.4-3.3-1.5-6.3-4.7-7.3C58.9,6.5,55.6,8,54.2,11.1z M85.2,104.8c-0.8,1.5-0.3,2.8,0.4,4.2
		c2.9,0.2,5.2,1.6,6.7,4c4-0.7,6.4-4.3,5.6-8c-0.8-3.4-4.4-5.6-7.1-4.9c0.5,1.4,0.2,2.6-1.2,3.3c0.1,0.2,0.3,0.4,0.4,0.6
		c0.5,1.1,0.3,2.3-0.6,2.9c-0.9,0.7-1.9,0.5-2.9-0.5C86.1,105.9,85.7,105.4,85.2,104.8z M67.4,16.9c3,0.8,6.3-1,7.4-4.1
		C76,9.6,74.4,6,71.2,4.5c-2.9-1.3-6.5-0.3-7.8,2.1C67.5,9,68.8,12.5,67.4,16.9z M93.8,46c0.3,0.2,0.4,0.2,0.5,0.3
		c2.6,0.9,4.9,0.3,6.8-1.6c1.9-1.9,2.4-4.3,1.5-6.9c-0.9-2.6-2.9-4-5.5-4.3c-0.4-0.1-0.9,0.2-1.3,0.4c-1,0.5-2,1.1-3.1,1.4
		c-1.7,0.5-3,2.4-2.6,4.3c1.1-1,2.1-2.4,3.9-1.4c1.2,0.6,1.1,1.7,0.8,2.8c0.1,0,0.2,0.1,0.3,0.1c1.4,0,1.8,0.2,2.1,1.1
		c0.3,0.9,0,1.5-1.1,2.2C95.4,44.9,94.7,45.4,93.8,46z M79.7,113.7c-0.7,1-0.8,2-0.9,3c0,0.7,0.2,1.1,1,1.4c2.1,0.8,3.5,2.3,4.3,4.4
		c0.1,0.3,0.2,0.6,0.4,0.9c2.6,0.2,4.8-0.7,6.3-2.8c1.6-2.2,1.7-4.6,0.4-7c-1.1-2-2.8-3-5-3.4c0.3,2.8,0.2,3.1-1.6,3.7
		c0,0.1,0,0.1,0,0.2c0.4,1.5,0.1,2.5-1,2.9c-1,0.4-2.1-0.1-2.8-1.3C80.5,115.2,80.2,114.5,79.7,113.7z M75.4,119
		c0,0.3,0.1,0.7,0.1,1c0,0.4,0.1,0.7,0.1,1.1c0,0.8-0.5,1.3-1.3,1.6c-0.7,0.2-1.4-0.2-1.8-0.9c-0.1-0.3-0.3-0.6-0.5-1.1
		c-0.5,0.7-0.8,1.3-1.2,1.9c3.7,2,5,5.1,4.4,9c3.1,1.1,6.8-0.9,7.9-4.2c1.1-3.2-0.6-7-3.6-8c-0.3,0.9-0.7,1.7-1.8,1.8
		C76.3,121.2,76,119.9,75.4,119z M27.4,67.6c-1.8-1.2-3.1-2.6-3.7-4.6c-0.1-0.3-0.6-0.5-0.9-0.6c-3.1-0.6-6,1.3-6.8,4.4
		c-0.8,2.9,0.9,6.1,3.9,7c1.3,0.4,2.6,0.5,3.8-0.1C24,71.2,25.1,69.2,27.4,67.6z M26.4,100.8c0.2-2.1,1.3-3.7,2.8-5.2
		c-2.7-1.2-4.3-3.1-4.9-5.8c-2.5-0.4-4.9,0.9-6,3.1c-1.2,2.2-0.7,5,1.1,6.9C21.2,101.7,23.9,102.1,26.4,100.8z M36.1,60.8
		c-2.6-1.6-3.8-3.8-4.1-6.6c-2.6-0.3-4.6,0.6-6,2.6c-1.7,2.2-1.9,4.6-0.5,7.1c1.1,2.1,2.9,3.2,5.3,3.4C31.3,64.2,33,62.1,36.1,60.8z
		 M34.6,40.7c-0.3-0.1-0.4-0.2-0.6-0.2c-3-0.6-6,1.1-7.2,3.9c-1.2,2.8-0.3,6,2.1,7.9c1,0.7,2,1.2,3.3,0.8c0.5-2.9,2.1-5,5-6.3
		C35.3,44.9,34.6,42.9,34.6,40.7z M38.5,102.7c-3.1-1.3-4.8-3.5-5.2-6.6c-2.3-0.6-3.7,0.4-4.8,2.2c-2.1,3.6-0.4,8.2,3.5,9.6
		c1.6,0.6,3.1,0.6,4.6-0.1C36.6,105.9,37.2,104.2,38.5,102.7z M25.1,48.4c-2.4-1-4.9-0.4-6.6,1.5c-1.7,1.9-2,4.6-0.8,6.8
		c1.2,2.1,3.6,3.3,5.7,2.9c0.5-2.9,2.2-4.9,5-6.1C26.7,52.1,25.5,50.4,25.1,48.4z M30.3,39.5c-2-4.5-4.7-4.8-7.3-4.1
		c-2.8,0.8-4.6,3.7-4.2,6.4c0.4,2.5,2.6,5.4,6.2,5.1C25.2,43.4,27,40.9,30.3,39.5z M31.2,82.1c-1.6-0.4-3.7,0.8-4.8,2.7
		c-1.5,2.4-1.2,5.5,0.6,7.7c1.7,1.9,4.4,2.8,6.3,2c0.3-2.1,1.3-3.9,3-5.4C33.2,87.7,31.5,85.4,31.2,82.1z M38.5,28
		c-2.3-1.2-6-0.5-8,2.4c-1.7,2.6-1.3,6.3,0.9,8.3c0.2,0.2,0.5,0.4,0.8,0.4c0.8,0.1,1.6,0.1,2.5,0.1c0.8-2.9,2.6-4.8,5.5-5.8
		C39,31.8,38.4,30,38.5,28z M81.1,22.5c0.3-0.8,0.6-1.6,0.9-2.3c0.7-1.4,2.3-1.5,3.1-0.2c0.1,0.2,0.2,0.4,0.3,0.6
		c2.1,0,2.6,0.7,2.1,3.2c2.2-0.3,4.7-3.3,4.4-6.7c-0.4-3.3-3.1-5.9-6.2-5.9c-0.1,0.3-0.2,0.6-0.2,0.9c-0.6,2-1.8,3.7-3.7,4.6
		c-1,0.5-1.5,1.2-1.7,2.2c0,0.2-0.1,0.4-0.1,0.6C79.5,20.7,79.9,21.6,81.1,22.5z M16,54.4c-2.4-0.2-4.2,0.6-5.5,2.5
		c-1.4,2-1.5,4.1-0.3,6.2c1.1,1.9,2.7,3,5,3.1c1.1-2.6,2.9-4.2,5.6-4.7c0.2,0,0.4-0.4,0.6-0.7C17.6,58.8,16.7,57.8,16,54.4z
		 M92.3,21.4c-0.9,1.6-2.2,2.9-4,3.4c-1.5,0.4-2.2,1.2-2.7,2.5c-0.1,0.2-0.2,0.4-0.3,0.6c-0.9,1.3-0.6,2.4,0.3,3.5
		c0.2-0.2,0.4-0.3,0.5-0.5c0.7-1,1.4-2,2-3c0.5-0.8,1.4-1.2,2.1-1c0.8,0.2,1.3,1,1.3,1.9c0,0.3,0,0.5-0.1,0.8c1.9,0.7,2.2,1.7,1,3.3
		c-0.3,0.4-0.5,0.8-0.8,1.2c3.3-0.2,5.9-3,6-6.4C97.7,24.8,95.3,21.9,92.3,21.4z M26.4,103c-2.3,0.6-3.9,2.5-4.3,4.9
		c-0.3,2.3,0.9,4.8,3,5.9c2,1.2,4.8,1,6.4-0.4c0.2-0.2,0.4-0.4,0.4-0.7c0.3-1.1,0.5-2.2,0.7-3.3C28.9,108.1,28.1,107.2,26.4,103z
		 M33.2,24.2c0.1-3.6,1.8-6.3,5.3-7.7c0-0.2,0-0.3-0.1-0.4c-1.1-2-2.8-3.1-5.2-3.1c-2.5,0-4.3,1.2-5.4,3.3c-1,2.1-0.8,4.1,0.5,6
		c0.2,0.2,0.4,0.5,0.7,0.6C30.4,23.4,31.8,23.8,33.2,24.2z M34.7,75.1c-2.5-1.5-3.8-3.7-4.1-6.7c-0.8,0-1.5-0.2-2.1,0
		c-2.5,1-4.1,4.3-3.6,7.2c0.6,3,3.2,5.2,6.1,5.2C32.5,76.7,32.5,77.4,34.7,75.1z M56.6,25.6c0.4,1.2,0.9,2.3,1.2,3.4
		c1.1,4.2,2.8,8.2,6,11.3c1.2,1.2,1.5,2.7,1.2,4.3c-0.2,1.3-0.3,2.7-0.4,4c0,0.9,0.5,1.3,1.2,1.3c0.8,0,1.2-0.5,1.3-1.4
		c0.1-1.4,0.3-2.8,0.5-4.2c0.2-1.7-0.1-3.4-1.1-4.8C66,39,65.5,38.4,65,37.8c-1.9-1.9-3.1-4.1-3.8-6.7c-0.5-1.7-1.1-3.4-1.7-5.1
		c-0.2-0.7-0.6-1.3-0.9-2C57.8,24.6,57.2,25.1,56.6,25.6z M90.4,101.5c-0.3-0.6-0.5-1.1-0.7-1.5c-3.3-5-6.6-10.1-10-15.1
		c-1-1.5-2.1-2.9-3.3-4.1c-1.5-1.6-3.3-2.9-4.9-4.4c-0.5-0.4-1.1-0.5-1.6,0.1c-0.4,0.5-0.3,1.2,0.3,1.7c0.5,0.4,1,0.7,1.5,1.1
		c0.7,0.6,1.4,1.1,2.3,1.4c0.5,0.2,1,0.9,1.3,1.4c0.5,0.7,0.9,1.6,1.4,2.3c0.6,0.9,1.3,1.7,1.8,2.5c3.1,4.6,6.1,9.2,9.2,13.7
		c0.3,0.4,0.5,0.8,0.8,1.2c0.2,0.2,0.7,0.5,1,0.4C89.8,102.3,90.1,101.8,90.4,101.5z M19.6,75c-3.1-1.4-4.7-3.6-4.9-6.7
		c-2.4-0.2-5.7,2.2-5.6,6c0.1,3.2,2.9,5.8,6,5.6C15.7,77.7,17.2,76.1,19.6,75z M33.5,26.6c-2.1-2.9-5.6-3.5-8.3-1.6
		c-2.7,1.9-3.3,5.6-1.4,8.3c0.2,0.3,0.6,0.7,1,0.8c1.1,0.3,2.3,0.5,3.5,0.7C28.1,31,29.8,28.2,33.5,26.6z M84.8,20.9
		c-0.3-0.3-0.5-0.9-0.9-1.1c-0.6-0.3-1,0.3-1.3,0.8c-0.8,1.7-1.5,3.4-2.4,5.1c-1.9,3.4-3.3,7-3.6,10.9c-0.1,2.1-1.1,3.6-2.8,4.8
		c-0.9,0.6-1.7,1.3-2.5,2.1c-0.3,0.3-0.5,0.9-0.5,1.4c0,0.4,0.3,0.9,0.6,1c0.3,0.1,0.8-0.1,1.1-0.3c1-0.7,1.8-1.6,2.8-2.3
		c2-1.4,3.1-3.3,3.3-5.7c0.3-4.2,1.8-7.9,3.8-11.5c0.7-1.2,1.3-2.6,1.8-3.9C84.6,21.9,84.6,21.5,84.8,20.9z M85.8,112.1
		c-0.2-0.7-0.4-1.1-0.5-1.6c-1.9-5-3.9-10.1-5.8-15.1c-1.1-2.9-2.6-5.6-4.4-8.1c-0.7-0.9-1.4-1.7-2.2-2.5c-0.5-0.5-1.1-0.5-1.6,0
		c-0.5,0.5-0.4,1,0.1,1.5c0.7,0.8,1.4,1.7,2.1,2.5c0.2,0.2,0.4,0.4,0.7,0.5c0.9,0.4,1.3,1.1,1.5,2c0.2,0.8,0.5,1.7,0.8,2.5
		c0.3,0.9,0.8,1.7,1.1,2.5c2,5,4,9.9,5.9,14.9c0.2,0.4,0.3,0.8,0.5,1.2c0.2,0.5,0.5,0.8,1,0.6C85.2,112.8,85.5,112.4,85.8,112.1z
		 M14.9,83c-2.9,0.7-4.7,4-3.9,7c0.7,2.6,3.5,4.7,5.7,4.2c0.7-2.8,2.5-4.6,5.5-5.6C18.1,88.2,16.5,86.9,14.9,83z M36.6,109.1
		c-0.6,0.1-1.2,0.1-1.7,0.3c-0.4,0.1-0.9,0.4-1.1,0.8c-1.3,2.3-0.8,5.3,1,7.3c1.8,2,4.9,2.7,7.2,1.7c0.3-0.1,0.6-0.4,0.7-0.7
		c0.3-0.9,0.5-1.9,0.8-2.9C39.9,115,37.5,112.9,36.6,109.1z M38.7,26.6c1-3.1,3.1-5.1,6.4-5.8c-0.1-0.8-0.2-1.5-0.3-2.2
		c-2.5-1.8-5.8-1.7-8.1,0.2c-2.3,2-3,5.4-1.8,7.4C36.1,26.4,37.4,26.5,38.7,26.6z M15.7,53.2c0.6-1.3,1-2.7,1.9-3.7
		c0.8-1,2.1-1.7,3.2-2.6c-1.7-1.2-2.7-3-3-5.1c-2.9-0.2-5.5,1.9-6,4.8C11.1,49.9,13.6,52.9,15.7,53.2z M26.5,115.5
		c-1,3.5,0.7,6.6,3.8,7.6c2.7,0.8,5.9-0.5,6.7-2.7c-2.7-1.1-4.3-3.1-5-6.1C30.3,115.5,28.5,115.6,26.5,115.5z M45.1,17
		c1-3.6,3.5-5.6,7.2-6.1c-1.9-2.8-5.4-3.7-8.3-2.3c-2.3,1.1-4.4,4.2-3.4,7.3C42,16.3,43.5,16.7,45.1,17z M17,98
		c-2.6,1.6-3.5,4.8-2.2,7.6c0.9,1.9,3.9,4,6.2,3c0-2.4,1.1-4.4,3.3-6C20.7,102.6,18.4,101.1,17,98z M73,63.3c0.2,0.8,0.7,1,1.4,1.1
		c1,0,2,0.1,3,0.3c2.3,0.5,4.4-0.1,6.1-1.7c2.3-2.2,5-3.4,7.9-4.2c1.7-0.4,3.3-1.1,4.8-1.7c0.8-0.3,1-0.9,0.8-1.5
		c-0.3-0.6-0.9-0.8-1.7-0.5c-1.2,0.5-2.4,1-3.7,1.3c-3.7,0.9-7,2.4-9.8,5.1c-1,0.9-2.2,1.3-3.5,1.1c-0.8-0.1-1.7-0.2-2.5-0.4
		C74.6,61.9,73.8,62.4,73,63.3z M8.3,60.9c-2.6,0.6-4.5,2.9-4.5,5.6c0,2.8,1.8,5.2,4.5,5.7c0.9-2.7,2.7-4.3,5.6-5.1
		C10.2,65.7,9.2,64.5,8.3,60.9z M63.6,121.1c0.9-2.6,1.8-5,2.7-7.4c1.1-3,1.6-6,1.5-9.2c-0.1-2.7,0.8-4.9,2.8-6.7
		c0.8-0.7,1.3-1.6,1.9-2.4c0.4-0.6,0.5-1.3,0.1-1.9c-0.2-0.3-0.7-0.6-0.9-0.5C71.4,93,71,93.4,71,93.8c0.1,1.2-0.5,2.1-1.4,2.8
		c-0.3,0.3-0.7,0.5-1,0.8c-0.2,0.2-0.5,0.4-0.6,0.7c-0.6,3.4-2.2,6.6-2.7,10c-0.4,2.7-1.5,5.3-2.3,7.9c-0.4,1.3-0.9,2.6-1.3,3.9
		C62.4,120.3,62.9,120.6,63.6,121.1z M21.4,29.5c-2.8-0.7-5.8,1.2-6.7,4.2c-0.8,2.8,0.7,5.9,3.1,6.7c0.5-3.1,2.3-5.1,5.1-6
		C22.4,32.7,21.9,31.2,21.4,29.5z M95.8,90.6c-0.4-0.4-0.6-0.9-0.9-1.2c-3.8-3.6-7.6-7.2-11.5-10.7c-2.1-1.9-4.5-3.6-7.1-4.8
		c-0.5-0.3-1.1-0.5-1.7-0.6c-0.3,0-0.9,0.2-1.1,0.5c-0.3,0.4-0.1,0.9,0.4,1.2c0.1,0.1,0.3,0.1,0.4,0.2c2.9,1.2,5.5,2.9,7.8,5
		c2.7,2.5,5.4,5,8.1,7.5c1.2,1.1,2.4,2.4,3.6,3.5c0.3,0.2,0.8,0.3,1.2,0.3C95.4,91.3,95.5,90.9,95.8,90.6z M72.2,68
		c-0.5,0-0.9-0.2-1.2,0c-0.3,0.2-0.8,0.5-0.8,0.8c0,0.3,0.4,0.7,0.6,1c0.1,0.1,0.5,0.1,0.7,0.1c2.7,0.1,5.3,0.8,7.8,1.8
		c5,2.2,9.9,4.5,14.8,6.7c0.4,0.2,0.7,0.5,1.1,0.5c0.4,0,0.9-0.1,1.1-0.4c0.3-0.4,0.2-0.9-0.3-1.2c-0.3-0.2-0.5-0.3-0.8-0.5
		c-4.8-2.2-9.5-4.4-14.3-6.5C78.1,69,75.2,68.2,72.2,68z M91.3,30.6c-0.3,0.3-0.7,0.6-0.9,1c-3,4.6-6.1,9.3-9.1,14
		c-1.6,2.6-2.8,5.4-3.4,8.4c-0.2,0.9,0.1,1.4,0.7,1.5c0.8,0.1,1-0.5,1.2-1.1c0.7-3.5,2.3-6.6,4.2-9.6c2.6-4.1,5.3-8.1,7.9-12.1
		c0.2-0.3,0.4-0.6,0.5-0.9C92.5,31,92.1,30.7,91.3,30.6z M57.4,115.5c0.7-1.2,1.4-2.2,2-3.2c2.2-3.1,3.7-6.5,4.3-10.3
		c0.3-2.1,1.3-3.6,3.2-4.6c0.9-0.5,1.7-1.1,2.4-1.7c0.3-0.3,0.7-0.7,0.8-1.2c0.1-0.4-0.1-1-0.4-1.4c-0.4-0.4-0.9-0.1-1.4,0.2
		c-0.7,0.6-1.5,1.1-2.2,1.6c-0.3,0.3-0.7,0.6-0.9,0.9c-1.3,2.4-2.6,4.8-3.9,7.2c-0.1,0.2-0.3,0.4-0.3,0.7c-0.5,2.6-1.9,4.7-3.3,6.9
		c-0.6,1-1.3,2-1.9,3.1C56.4,114.3,56.8,114.9,57.4,115.5z M74.3,96.9c-0.2,0.9-0.3,1.6-0.6,2.3c-0.4,1.2-0.2,2,0.8,2.8
		c2.1,1.9,3.5,4.2,4.4,6.9c0.3,1.1,0.7,2.1,1.1,3.2c0.5,1.2,1,2.4,1.7,3.6c0.4,0.8,1.2,1,1.8,0.6c0.6-0.4,0.8-1,0.4-1.8
		c-0.9-2.1-1.8-4.1-2.5-6.2c-1.1-3.1-2.7-5.8-5.1-8C75.4,99.4,74.6,98.4,74.3,96.9z M73.7,95.8c-0.1,0-0.2,0-0.3,0
		c-0.7,0.9-1.4,1.7-2.1,2.6c-0.4,0.5-0.5,0.9-0.3,1.5c0.6,2.1,1.2,4.3,1.8,6.5c0.1,0.4,0.3,0.8,0.5,1.2c0.4,1,1,2,1.3,3.1
		c0.6,2.2,0.9,4.4,1.4,6.7c0.2,0.8,0.4,1.5,0.7,2.3c0.2,0.6,0.7,1,1.4,0.8c0.6-0.2,0.9-0.7,0.7-1.5c0-0.1-0.1-0.2-0.1-0.3
		c-0.4-1.6-0.8-3.1-1.1-4.7c-0.6-3.2-1.3-6.4-3.4-9.1c-1.5-1.9-1.8-3.9-1-6.2C73.4,97.6,73.5,96.7,73.7,95.8z M9.1,78
		c-2.2,1-3.6,3.4-3.3,5.7c0.3,2.5,1.9,4.5,3.8,4.8c0.3-1.1,0.6-2.2,1-3.2c0.7-1.6,1.9-2.6,3.5-3.3c0.4-0.2,1-0.3,0.6-1
		C12.2,80.5,11.9,80.9,9.1,78z M47.6,54.6c3,1.8,6.1,3.4,9.7,3.3c2.2,0,3.9,0.8,5.1,2.7c0.5,0.8,1.2,1.5,1.8,2.2
		c0.6,0.5,1.3,0.5,1.7,0c0.4-0.6,0.3-1.1-0.2-1.6c-0.6-0.7-1.3-1.4-1.8-2.2c-1.5-2.1-3.4-3.3-6-3.3c-2.8,0-5.3-0.8-7.7-2.2
		c-0.6-0.4-1.3-0.7-1.9-1c-0.3-0.1-0.5-0.2-0.9-0.3C47.5,53,47.6,53.8,47.6,54.6z M76.5,48c1.1-0.6,2-1,2.9-1.4
		c0.3-0.2,0.6-0.4,0.7-0.7c1.4-2.8,3.4-5.2,4.7-8.1c0.7-1.6,2-2.9,3-4.3c0.9-1.3,1.9-2.6,2.8-4c0.4-0.6,0.2-1.4-0.4-1.6
		c-0.7-0.3-1.1,0-1.5,0.5c-1.2,1.6-2.3,3.3-3.5,4.8c-1.8,2.2-3.2,4.6-3.7,7.4c-0.4,2-1.4,3.4-3.4,4.1c-0.6,0.2-0.9,0.6-1,1.2
		C76.9,46.6,76.8,47.2,76.5,48z M3.8,70.3c-2,1.7-2.9,3.6-2.4,6c0.4,2.1,1.7,3.5,3.8,4.4C5.9,79,7,77.8,8.5,77
		c-0.2-1.2-0.3-2.4-0.5-3.6C6.3,72.9,4.9,71.9,3.8,70.3z M50.2,41.6c-0.1,0.6-0.2,1.1-0.4,1.5c-0.3,0.6-0.1,1,0.4,1.5
		c2.2,2.1,4.5,4,7.5,4.7c2.2,0.6,3.6,1.9,4.2,4.1c0.3,0.9,0.7,1.7,1.2,2.5c0.3,0.6,0.9,0.8,1.5,0.5c0.6-0.3,0.7-0.9,0.3-1.7
		c-0.4-0.8-0.8-1.6-1.1-2.4c-0.9-2.6-2.6-4.3-5.3-5c-2.4-0.6-4.4-2-6.2-3.7C51.8,43,51,42.4,50.2,41.6z M70.4,18.2
		c-0.1,0.3-0.1,0.4-0.1,0.6c-0.8,4.6-1.6,9.2-2.3,13.8c-0.5,3.3-0.4,6.6,1.2,9.7c0.2,0.3,0.3,0.6,0.5,0.9c0.1,0,0.2,0,0.4-0.1
		c0-0.6-0.1-1.1-0.1-1.7c-0.1-2.2-0.4-4.4-0.2-6.6c0.4-3.7,1-7.4,1.6-11.1c0.3-2,0.7-4.1,1-6.2C71.7,17.8,71.1,18,70.4,18.2z
		 M50,102.4c0.3-0.3,0.6-0.5,0.9-0.7c2.5-2.2,5-4.5,7.5-6.7c2.6-2.4,5.1-5,6.9-8.1c0.3-0.5,0.6-1,0.7-1.5c0.1-0.3-0.2-0.9-0.5-1.1
		c-0.3-0.1-0.8,0.1-1.1,0.3c-0.1,0.1-0.2,0.3-0.3,0.5c-1.3,2.5-2.9,4.7-5,6.6c-3.1,3-6.4,5.8-9.6,8.7c-0.3,0.3-0.7,0.5-1.1,0.8
		C49.1,101.6,49.5,101.9,50,102.4z M46.3,68c0.4,0.1,0.7,0.1,0.9,0.1c3.1,0.3,6.1-0.1,8.9-1.4c1.7-0.8,3.3-0.7,4.9,0.3
		c0.7,0.4,1.4,0.8,2.1,1.1c0.3,0.2,0.7,0.3,1,0.3c0.6,0.1,1.1,0,1.3-0.7c0.2-0.7-0.1-1.1-0.8-1.4c-0.8-0.3-1.6-0.7-2.4-1.1
		c-2.4-1.5-4.9-1.7-7.4-0.5c-2.2,1.1-4.6,1.3-7,1.1c-0.6,0-1.3,0-1.9,0C46.1,66.6,46.2,67.3,46.3,68z M63.2,48.9
		c-1.9-2.8-3.2-6-4.4-9.3c-1.4-4-2.7-8-4.1-12c-0.1-0.4-0.4-0.8-0.6-1.3c-0.2,1.8-0.3,3.3-0.4,4.8c0,0.3,0.2,0.6,0.3,0.9
		c0.8,2.5,1.6,4.9,2.5,7.4c0.8,2.2,1.7,4.4,2.6,6.6c0.2,0.4,0.6,0.8,0.9,1C61.1,47.6,62.1,48.2,63.2,48.9z M75.8,76.7
		c-1.1,0.8-1.1,1-0.3,1.9c1.8,2.2,3.7,4.3,5.4,6.5c0.6,0.8,1.2,1.3,2.1,1.7c1,0.5,2,1.1,2.9,1.8c1,0.8,1.8,1.7,2.7,2.5
		c1.2,1,2.3,2.1,3.5,3.1c0.7,0.5,1.2,0.4,1.7-0.1c0.4-0.5,0.3-1.1-0.4-1.6c-1-0.9-2.1-1.6-3-2.6c-2.6-2.8-5.6-5.1-9.4-6.2
		c-1.3-0.4-2.1-1.4-2.6-2.7c-0.3-0.8-0.6-1.6-0.9-2.5C77.3,77.6,76.8,77,75.8,76.7z M72.8,40.9c0.9-0.5,1.8-0.8,2.1-2
		c1.5-6.7,3.1-13.4,4.6-20.1c0.1-0.3,0.1-0.6,0.2-1c-0.7,0-1.3,0.1-2,0.1C76,25.6,73.9,33.1,72.8,40.9z M10.6,47.4
		c-2.5,0.5-4.3,2.3-4.7,4.9c-0.4,2.2,0.7,4.6,2.8,5.9c0.9-2.3,2.5-3.9,5.1-4.7C11.6,51.9,10.6,49.8,10.6,47.4z M48.9,95
		c2.4-1.2,4.7-2.4,6.4-4.3c0.9-1.1,1.8-2.2,2.7-3.3c0.8-1,1.8-1.6,3.1-1.6c1.2,0,2-0.3,2.5-1.5c0.6-1.3,2.3-1.2,3,0
		c0.1,0.2,0.2,0.4,0.4,0.7c0.6-0.5,0.6-1.1,0.3-1.6c-0.3-0.4-0.9-0.6-1.4-0.6c-1,0-2.1,0.1-3.1,0.3c-0.5,0.1-0.9,0.2-1.3,0.5
		c-2.3,1.4-4.5,2.8-6.8,4.3c-0.4,0.2-0.7,0.5-1,0.8c-1.3,1-2.5,2-3.8,3c-0.4,0.3-0.9,0.6-1.4,0.8C48.5,93.2,48.7,94,48.9,95z
		 M45.4,72.1c1.2,0,2.1,0,3.1,0c4.1,0,8.3,0.1,12.4-0.2c2-0.1,4-0.9,5.9-1.4c0.6-0.2,0.8-0.7,0.6-1.2c-0.2-0.6-0.7-0.7-1.3-0.5
		c-0.7,0.2-1.4,0.5-2.1,0.6c-4.3,1.2-8.8,1-13.2,0.8c-1.6-0.1-3.2,0-4.9,0C45.8,70.9,45.6,71.4,45.4,72.1z M65.3,93.4
		c-1.6-0.2-2,0-2.5,1.2c-0.5,1-0.9,2-1.5,3c-2.6,4.4-5.3,8.8-7.9,13.3c-0.2,0.4-0.4,0.7-0.7,1.2c0.6,0.3,1.1,0.5,1.8,0.8
		C58.2,106.2,62.7,100.4,65.3,93.4z M70.2,99.6c-1.2,1.2-1.5,1.8-1.2,2.9c1.1,4.9,2.2,9.9,3.3,14.8c0.3,1.2,0.5,2.5,0.7,3.8
		c0.1,0.6,0.5,1,1.1,0.9c0.6-0.1,0.8-0.5,0.7-1.1c0-0.4-0.1-0.7-0.1-1.1c-0.9-4.3-1.7-8.5-2.7-12.8C71.5,104.6,70.9,102.2,70.2,99.6
		z M86.8,65.9c0,0.1,0,0.2,0,0.3c1.9,0,3.8,0,5.6,0c1.1,0,2.2,0.1,3.4,0.2c0.6,0,1-0.3,1.1-0.9c0-0.6-0.4-0.9-1-1
		c-0.1,0-0.2,0-0.4,0c-3.6-0.1-7.3-0.3-10.9-0.4c-0.6,0-1.2,0.2-1.7,0.5c-1.6,1-3.2,1.3-5,1.1c-1.7-0.2-3.4-0.6-5-0.8
		c-0.2,0-0.3,0-0.5,0c-1,0.3-1.9,0.6-2.9,0.9c-0.5,0.2-0.9,0.6-0.7,1.2c0.2,0.6,0.7,0.8,1.4,0.5c2.8-1,5.7-1.4,8.6-1.5
		C81.4,65.8,84.1,65.9,86.8,65.9z M66.4,77.3c-0.1-0.1-0.1-0.2-0.2-0.3c-2.1,1.4-4.2,2.8-6.4,4.2c-4,2.5-8.1,5-12.2,7.4
		c-0.4,0.3-0.9,0.5-1.4,0.8c0.4,0.5,0.8,1,1.2,1.5c3.9-2.4,7.8-4.6,11.6-6.9c1.2-0.7,2.2-1.6,3.3-2.4C64,80.3,65.4,79,66.4,77.3z
		 M51.7,105c1.3-1.1,2.5-2.1,3.7-3c2.1-1.6,3.8-3.7,4.8-6.1c0.9-2,2.3-3.1,4.5-3.5c1-0.2,1.9-0.5,2.8-0.9c0.7-0.3,0.8-0.9,0.5-1.5
		c-0.3-0.6-0.8-0.7-1.4-0.5c-0.6,0.2-1.1,0.5-1.7,0.6c-0.9,0.1-1.4,0.6-2,1.2c-3.3,3.6-6.7,7-10.4,10.2c-0.6,0.5-1.3,1.1-1.9,1.6
		C51,103.7,51.3,104.3,51.7,105z M46.6,83.4c0.2,0,0.4,0,0.5,0c4.1-1.2,8.2-2.2,12.3-3.6c2.3-0.8,4.3-2.2,6.5-3.4
		c0.9-0.5,1.1-1.2,0.7-1.7c-0.4-0.5-0.8-0.4-1.8,0.2c-1.1,0.7-2.3,1.5-3.5,2.1c-2.9,1.5-6,2.3-9,3.1c-1.8,0.5-3.6,1-5.4,1.5
		C46.8,82.2,46.7,82.7,46.6,83.4z M38.4,120.9c-0.6,2,0.8,4.9,3.1,6.2c2.2,1.3,5.2,1.2,6.6-0.2c-3.1-1.2-4.8-3.5-5.3-6.5
		C41.2,120.6,39.8,120.7,38.4,120.9z M78.8,92c0.8,1.7,1.4,3.4,2.3,5.1c0.9,1.7,2.1,3.2,3.2,4.8c0.9,1.3,1.8,2.6,2.7,3.8
		c0.6,0.8,1.4,1,1.9,0.5c0.7-0.5,0.6-1.3,0-2.1c-1.2-1.7-2.4-3.4-3.5-5.1c-0.9-1.3-1.8-2.6-2.8-3.9C81.7,93.7,80.4,92.8,78.8,92z
		 M11.3,92.9c-3.5,3.3-1.6,8.7,1.8,9.6c0.3-2.4,1.4-4.3,3.6-5.6c-0.1-0.5-0.1-0.9-0.2-1.3C14.4,95.4,12.7,94.5,11.3,92.9z
		 M46.4,79.3c0.3,0,0.4,0,0.6,0c0.2,0,0.5-0.1,0.7-0.2c2.7-0.6,5-1.8,7.1-3.6c1.5-1.3,3.1-1.6,5-1.1c0.8,0.2,1.6,0.3,2.4,0.4
		c0.7,0.1,1.4,0.2,1.8-0.5c0.2-0.3,0.2-0.9,0-1.2c-0.4-0.7-1.2-0.5-1.8-0.5c-2.2,0.1-4.4,0.3-6.6,0.4c-0.9,0-1.7,0.2-2.4,0.9
		c-1.8,1.6-3.8,2.6-6.1,3c-0.5,0.1-1,0.3-1.5,0.5C45.9,78.1,46.1,78.7,46.4,79.3z M78,58.9c0.2,0,0.3,0.1,0.4,0.1
		c5.8-2,11.7-4,17.5-5.9c0.2-0.1,0.4-0.1,0.4-0.2c0.2-0.3,0.6-0.8,0.5-1.1c-0.2-0.3-0.7-0.6-1.1-0.7c-0.4-0.1-0.8,0.2-1.1,0.3
		c-4.3,1.4-8.6,2.8-12.8,4.2C80,56.1,79.2,57.6,78,58.9z M82.1,49.7c0.1,0.1,0.1,0.1,0.2,0.2c0.3-0.2,0.7-0.4,1-0.7
		c3-2.3,6.1-4.7,9.1-7c0.6-0.4,1.1-0.9,1.5-1.5c0.6-0.8,0.2-1.9-0.8-2c-0.5,0-1.1,0.2-1.5,0.5c-1.5,1.1-2.8,2.4-4.4,3.4
		C84.6,44.3,83.5,47.1,82.1,49.7z M80.6,54.5c5.1-3.6,10.2-7.2,15.3-10.9c0.1-0.1,0.3-0.2,0.4-0.3c0.1-0.4,0.3-0.8,0.1-1.1
		c-0.1-0.2-0.6-0.4-1-0.4c-0.3,0-0.6,0.3-0.9,0.5c-4,2.9-8,5.8-12.1,8.6C81,51.9,80.8,53.2,80.6,54.5z M80.2,69.1
		c1,0.4,1.8,0.8,2.7,1.1c0.2,0.1,0.5,0.1,0.7,0c2.4-0.9,4.9-0.6,7.5-0.4c1.6,0.1,3.3,0.1,4.9,0.1c0.7,0,1.1-0.4,1.1-1.1
		c0-0.7-0.5-1.1-1.2-1.1c-2.7-0.1-5.3-0.2-8-0.3C85.2,67.2,82.8,68,80.2,69.1z M8.2,96c0.8-1.4,1.5-2.8,2.3-4.3
		c-0.2-0.5-0.4-1.1-0.7-1.8c-1.8-0.5-3.1-1.7-4.2-3.1C2.8,90.1,4.7,95.2,8.2,96z M26,18.3c-2.4,0.2-4.4,1.7-5.2,4.1
		c-0.7,2-0.2,4.3,1.2,5.4c0.9-2.6,2.8-4.1,5.3-4.7C26.8,21.5,26.4,20,26,18.3z M81.4,75.7c0,0.1-0.1,0.2-0.1,0.3
		c0.9,0.7,1.7,1.4,2.6,2.1c0.1,0.1,0.4,0.1,0.5,0.2c1.5,0.6,3.1,1.1,4.6,1.7c1.3,0.6,2.4,1.4,3.7,2c0.8,0.4,1.7,0.8,2.5,1.1
		c0.6,0.2,1.2,0,1.5-0.7c0.2-0.6-0.1-1.1-0.6-1.4c-2.5-1.3-5-2.5-7.5-3.8C86.3,76,83.9,75.8,81.4,75.7z M46.2,58.5
		c3.3,1.6,6.5,3.2,9.6,4.7c0.3,0.1,0.6,0.2,0.9,0.1c2-0.5,3.8,0,5.5,1c1.1,0.6,2.2,1.1,3.3,1.6c0.6,0.3,1.1,0,1.4-0.6
		c0.2-0.6-0.1-1-0.8-1.2c-0.2-0.1-0.5-0.1-0.7-0.1c-2.9-0.3-5.6-1.1-8.1-2.3c-3-1.4-6-2.9-9.1-4.4c-0.4-0.2-0.8-0.3-1.2-0.5
		C46.8,57.4,46.5,57.9,46.2,58.5z M60.2,5.9c-1.6-1.8-3.6-2.6-5.9-2.2c-2.1,0.3-3.7,1.5-4.7,3.4c1.3,1,2.5,1.9,3.8,2.9
		C55,7.5,57.2,6.1,60.2,5.9z M60.1,119.4c2.3-6.9,4.9-13.7,7-20.9c-1.1,0.4-1.7,1.1-2,1.9c-0.3,0.7-0.5,1.4-0.6,2.2
		c-0.5,3.2-1.7,6.2-3.5,9c-0.2,0.3-0.3,0.6-0.5,1c-0.7,1.8-1.3,3.7-1.9,5.5c-0.1,0.4-0.1,0.8-0.2,1.3
		C59,119.3,59.5,119.4,60.1,119.4z M62.3,21.3c0,0.2-0.1,0.3-0.1,0.4c0.6,4.3,1.3,8.5,2,12.8c0.1,0.6,0.2,1.3,0.6,1.8
		c0.6,0.9,1.5,1.7,2.1,2.5c-1-5.9-1.9-11.9-2.9-18C63.4,21,62.9,21.1,62.3,21.3z M69.8,122.1c1.1-5.8,0.9-11.5-1.1-17.3
		c-0.1,1.4-0.2,2.6-0.3,3.9c-0.1,0.8-0.2,1.7-0.2,2.5c0,1.3,0.1,2.6,0,3.8c-0.1,2.2-0.4,4.4-0.6,6.8C68.5,121.9,69.2,122,69.8,122.1
		z M13.5,33.8c-2.3,1.1-3.4,2.8-3.6,5c-0.2,1.9,0.5,3.5,1.7,4.6c1.5-1,2.9-1.9,4.3-2.8C14,38.9,13.2,36.6,13.5,33.8z M44.3,129.9
		c0-0.9-0.6-0.8-1-0.9c-1.9-0.4-3.5-1.3-4.5-2.9c-0.7-1.1-1.2-2.3-1.9-3.7c-0.5,0.6-1.4,1.1-1.5,1.7c-0.4,2.4,0.6,4.3,2.6,5.6
		C40,131.2,42.1,131.2,44.3,129.9z M4.9,54.5c-3.8,2-3.7,7.3-1.4,8.9c1.1-2,2.8-3.2,5-3.9C6.7,58.2,5.3,56.7,4.9,54.5z M75.1,17.3
		c-1.1,5.9-3.6,11.4-2.2,17.4c1.3-5.6,2.6-11.2,3.9-16.9C76.2,17.6,75.8,17.5,75.1,17.3z M66.5,18.3c-0.3,1.8-0.8,3.4-0.9,5.1
		c-0.1,1.2,0.1,2.5,0.2,3.7c0.3,2.2,0.7,4.5,1,6.7c0.3-0.6,0.4-1.3,0.5-1.9c0.2-1.2,0.6-2.4,0.4-3.5c-0.4-2.6,0-5,0.5-7.5
		c0.2-0.8,0.2-1.5,0.4-2.4C67.9,18.4,67.3,18.3,66.5,18.3z M50.8,127.2c-1.9,0.8-3.6,1.5-5.3,2.3c0.9,3.1,5.3,5.2,8.1,3.7
		C51.9,131.6,51,129.7,50.8,127.2z M48.8,36c0,0.2,0,0.3,0.1,0.4c1.8,2.6,3.5,5.2,5.4,7.6c0.9,1.2,2.2,1.9,3.7,2.1
		c0.1-0.1,0.2-0.2,0.2-0.2c-2.5-3.6-5-7.1-7.6-10.7C49.9,35.4,49.4,35.7,48.8,36z M21.2,110c-0.6-0.2-1,0-1.1,0.5
		c-0.2,0.9-0.4,1.9-0.4,2.8c0.1,2.8,2.7,5.2,5.4,5.2c0.1-1.1,0.2-2.3,0.3-3.5C23.2,114.1,21.7,112.4,21.2,110z M38.9,14.6
		c0.4-1.3,0.7-2.8,1.5-4.1c0.8-1.2,2-2.2,3-3.2c-3.6-1.7-7.8,1.7-7.7,4.8C36.8,13,37.9,13.8,38.9,14.6z M47.7,46.8
		c0.4,0.4,0.8,0.7,1.1,1c2.3,2,4.6,3.9,6.8,6c1.2,1.1,2.5,1.1,4.1,1.1c-3.7-3.3-7.3-6.4-10.9-9.5C48.5,45.9,48.1,46.3,47.7,46.8z
		 M79.8,37c0.3-0.5,0.5-0.7,0.6-0.9c2.2-4.3,4.4-8.5,6.5-12.8c0.1-0.2,0.3-0.6,0.2-0.8c-0.1-0.4-0.3-1-0.6-1.1
		c-0.5-0.3-0.8,0.2-1,0.7c-1.2,2.6-2.5,5.1-3.7,7.6C80.5,31.9,79.9,34.2,79.8,37z M18.9,109.9c-1.9-0.4-3.5-1.4-4.7-3.1
		c-1.5,3,1,7.6,4.3,7.7C18.7,113,18.8,111.5,18.9,109.9z M6.5,48.1c1.4-0.7,2.7-1.4,4.2-2.2c0.1-0.3,0.3-0.8,0.4-1.2
		c-0.8-1.2-1.5-2.4-2.2-3.5C6.5,42.8,5.5,45.6,6.5,48.1z M84.7,53.9c2.1-0.7,4-1.4,6-2c0.4-1.9,1.3-3.4,2.7-4.6
		c-0.4-0.6-0.8-0.4-1.2-0.1c-1.4,1.1-2.8,2.1-4.2,3.1c-1.3,0.9-2.6,1.7-3.9,2.6C84.3,53.3,84.4,53.6,84.7,53.9z M12.7,108.1
		c0.2-1.4,1.3-2.7,0.4-4.3c-1.5-0.6-2.8-1.6-3.8-3.1C8.1,103.7,9.7,107.1,12.7,108.1z M59.2,3.2c1,1,2,1.9,3,2.9
		c1.1-1.6,2.7-2.6,4.6-3.2C64.5,1.1,60.7,1.6,59.2,3.2z M77,53.7c-1.3,0.2-2.5,0.4-3.7,0.7c-0.7,0.2-1.5,0.4-2.2,0.6
		c-0.8,0.3-1.1,0.9-0.9,1.6c0.2,0.7,1,1.1,1.8,0.9c0.9-0.2,1.8-0.5,2.7-0.7C75.7,56.5,77,54.8,77,53.7z M20.6,28.3
		c-0.4-1.3-0.8-2.4-1.2-3.5c-2.6,0.4-4.8,3.4-4.2,5.8C16.6,29.1,18.4,28.3,20.6,28.3z M93,59.1c-0.7,0.2-1.4,0.4-2.2,0.7
		c1,2.4-1,2.8-2.4,3.7c1.4,0,2.8,0,4.1,0c1.1-1,2.1-1.9,3.1-2.8C94.8,60.2,93.9,59.7,93,59.1z M29.5,124.2c0.5,2.4,3,4.3,5.4,4.2
		c-0.3-1.4-0.6-2.7-0.8-4C32.6,124.3,31.1,124.2,29.5,124.2z M21.2,118.5c0.4,2.9,3.8,5.3,6.4,4.5c-0.7-1-1.4-2-2.1-3
		C24.1,119.5,22.6,119,21.2,118.5z M76.8,43.2c-0.9,0.8-2,1.4-2.3,2.2c-0.6,1.5-0.7,3.2-1,4.8c-0.1,0.6,0.2,1.1,0.8,1.1
		c0.6,0.1,0.9-0.4,1-1C75.8,48.1,76.3,45.8,76.8,43.2z M65,72.4c-0.1,0.1-0.1,0.3-0.2,0.4c0.3,0.2,0.6,0.4,1,0.6
		c0.4,0.2,1,0.2,1.3,0.6c0.8,0.9,1.9,1.1,2.9,1.1c1,0,1.8,0.3,2.5,0.9c0.4,0.3,0.8,0.5,1.2,0.7c0.2,0.1,0.4-0.1,0.8-0.2
		c-0.7-0.5-1.4-0.8-1.7-1.4c-0.4-0.6-1-0.9-1.6-1.1c-1.1-0.3-2.1-0.7-3.2-1C67,72.7,66,72.6,65,72.4z M55.9,91.7
		c-0.6,0.5-1.3,1.1-1.9,1.6c-0.7,0.5-1.4,0.9-2.1,1.4c-2.7,1.6-3.1,2.1-4.1,5.3C50.8,97.5,53.7,94.9,55.9,91.7z M55.6,103
		c-2.9,2.2-3.6,5.2-4,8.6c0.3-0.4,0.5-0.5,0.7-0.7C53.9,108.5,55.1,106,55.6,103z M59.7,39.3c0.8,2.5,1.4,5,4.3,5.9
		c0.1-0.5,0.2-0.9,0.2-1.4c0.1-0.9-0.2-1.6-1.1-2.2C62,41,60.9,40.1,59.7,39.3z M67.2,86.1c0.4,0.3,0.6,0.6,0.9,0.7
		c0.7,0.3,1.1,0.9,1.2,1.7c0.1,1.3,1,2.1,1.7,3.1c0.3-0.8,0.5-1.5,0.9-2.5c-1-1.3-2.2-2.7-3.3-4.2C68,85.4,67.7,85.7,67.2,86.1z
		 M42.9,74.7c2,1.9,5.4,1.8,7.7-0.3C48.2,75,45.6,73.8,42.9,74.7z M86.3,57.1c-3.3,1.1-6.9,2-9.8,4.1c0.3,0.1,0.5,0.1,0.7,0
		c1.6-0.5,3.2-0.9,4.8-1.4c0.5-0.2,0.9-0.4,1.4-0.7C84.3,58.5,85.3,57.8,86.3,57.1z M68.5,2.6C70,3,71.5,3.5,73.2,4
		c0.7-0.4,1.5-0.9,2.3-1.4C73.2,1.1,70,1.1,68.5,2.6z M94.7,74.2c-0.8-0.9-1.5-1.8-2.2-2.7c-0.7-0.8-2-0.7-2.6,0
		c0.4,0.8,0.8,1.6,1.2,2.5c0.6,0.3,1.4,0.6,2.2,1C93.8,74.8,94.3,74.5,94.7,74.2z M61.5,134.4c-2.1,0.7-4.1,0.7-6.1-0.2
		c-0.5-0.2-1-0.2-1.3,0.3c1.8,2,5.6,2.6,8.1,0.7C62,135,61.8,134.7,61.5,134.4z M59.2,23c1.3,3.7,2.6,7.3,3.8,10.9
		c0.1,0,0.2-0.1,0.3-0.1c-0.1-0.5-0.1-1.1-0.4-1.6c-1.3-2.2-1.5-4.6-1.8-7c-0.2-1.2-0.3-2.3-0.5-3.5C59.5,21.7,59.6,22.7,59.2,23z
		 M51.2,61.9c-1.3-0.6-2.6-1.3-3.9-1.9c-1.7-0.8-1.8-0.8-3.2,0.8C46.4,62,48.8,61.7,51.2,61.9z M77.2,55.6c-0.8,1.1-1.6,2.1-2.4,3.3
		c-0.3,0.5-0.3,1,0.2,1.4c0.5,0.3,1,0.1,1.3-0.4c0.8-1.2,1.7-2.3,2.6-3.4C78.4,56.1,77.8,55.9,77.2,55.6z M88.8,94.1
		c0.1-0.7,0.6-1.2,0-1.8c-1.6-1.5-3.2-2.9-4.8-4.3c-0.1-0.1-0.2-0.1-0.4-0.1c-0.1,0.3-0.3,0.5-0.4,0.8
		C85.1,90.5,86.9,92.3,88.8,94.1z M66.4,79c1.7,0.9,3.2,1.7,5,2.7c0-0.5,0.2-0.9,0.1-1c-1.3-1.1-2.5-2.3-4.2-2.9
		C67,78.2,66.7,78.5,66.4,79z M50,4.4c-2.3-0.3-4,0.4-5.6,2.2c1.4,0.7,2.7-0.1,3.8,0.3C48.9,6,49.4,5.3,50,4.4z M54.6,54.3
		c-1.9-2.7-5.3-2.5-7.7-4.2C47.4,51.2,52.6,53.9,54.6,54.3z M74.2,94.7c0.1,0,0.2,0,0.4-0.1c0-1.2,0.1-2.4,0-3.6
		c0-0.6-0.6-1-1.2-0.9c-0.4,0.1-0.9,0.4-1.2,0.8c-0.3,0.5,0,0.9,0.5,1.3c0.4,0.3,0.7,0.8,1,1.3C73.8,93.9,74,94.3,74.2,94.7z
		 M75.2,85.8c-0.2-1-0.4-1.9-0.6-2.8c-0.1-0.4-0.3-0.8-0.6-1.2c-0.5-0.5-1.2-0.5-1.7,0c-0.5,0.5-0.5,1.3,0,1.7
		C73.2,84.3,74.1,84.9,75.2,85.8z M70.2,60.5c-1,0.2-2.3,1.6-2.8,3c0.2,0.3,0.5,0.7,0.8,1.2C69.5,63.5,70.2,62.2,70.2,60.5z
		 M67.9,49.9c-0.6,0.4-1.2,0.8-1.7,1.2c0,0.4-0.1,0.8,0,1.2c0.1,0.5,0.3,1,0.7,1.4c0.2,0.2,1,0.1,1.2-0.1c0.3-0.4,0.5-1,0.5-1.5
		C68.4,51.4,68.1,50.6,67.9,49.9z M85,63.1c1.8-0.2,3.3-0.7,4.7-1.5c0.4-0.3,0.6-0.7,0.2-1.2C88.2,60.6,86.4,61.6,85,63.1z
		 M73.5,59.4c-0.8,0.7-1.6,1.2-2.3,1.8c-0.4,0.4-0.5,0.8-0.1,1.3c0.4,0.4,0.8,0.5,1.3,0.2c0.7-0.5,1.4-1.1,2-1.6
		C74.1,60.6,73.8,60.1,73.5,59.4z M66.5,116.4c-0.1,0-0.2-0.1-0.4-0.1c-0.6,1.7-1.2,3.4-1.7,5.1c-0.2,0.6,0.2,0.9,0.8,0.8
		c0.6-0.1,0.8-0.4,0.9-1C66.3,119.6,66.4,118,66.5,116.4z M75.6,94.6c-0.7,2.6-0.1,3.9,2.3,5.8C77.2,98.4,76.5,96.6,75.6,94.6z
		 M79.6,39.7c0.1,0.1,0.2,0.1,0.4,0.2c1.2-2,2.4-4.1,3.6-6.1c0.1-0.1,0.1-0.3,0.1-0.4c-0.1-0.1-0.1-0.1-0.2-0.2
		c-0.3,0.2-0.7,0.2-0.8,0.5C81.7,35.6,80.6,37.6,79.6,39.7z M69.9,85.1c0.5-1.5-0.4-3.5-1.6-3.9c-0.6-0.2-0.9-0.1-1.1,0.5
		C68.1,82.8,68.9,83.9,69.9,85.1z M74.2,71.2c-0.2,0.5,0,0.9,0.5,1.2c1.2,0.6,2.5,1.1,3.8,1.7C77.4,71.7,76.5,71.1,74.2,71.2z
		 M70.8,39.5c1.2-1.7,1.4-3.1,0.7-5.1C70.4,36,70.2,37.6,70.8,39.5z M54.7,68.3c1.7,1.5,3,1.7,4.3,0.6
		C57.5,68.1,56.1,68.1,54.7,68.3z M64.6,58c-0.1,0.1-0.2,0.1-0.2,0.2c0.6,0.8,1.2,1.6,1.8,2.3c0.2,0.2,0.7,0.4,1,0.3
		c0.3-0.1,0.6-0.5,0.6-0.8c-0.1-0.4-0.4-0.8-0.7-1C66.3,58.6,65.4,58.4,64.6,58z M42.7,131.7c1.2,1.2,2.7,1.6,3.9,1.3
		c-0.6-0.7-1.2-1.4-1.8-2.2C44.1,131.2,43.4,131.4,42.7,131.7z M71.7,51.4c-0.2-0.7-0.3-1.3-0.4-1.8c-1.3,0.4-1.7,1-1.6,2.6
		C70.3,51.9,71,51.7,71.7,51.4z M65.9,56.8c0.8,0.6,1.3,0.6,1.7,0c0.4-0.6,0.3-1.2-0.5-1.8c-0.4-0.3-0.8-0.5-1.2-0.8
		C65.9,55.2,65.9,56,65.9,56.8z M52.5,78.3c1,0.4,1.7,0.3,2.5,0c0.5-0.2,0.9-0.3,0.7-1c-0.2-0.5-0.8-0.7-1.4-0.3
		C53.8,77.4,53.2,77.8,52.5,78.3z M85,84.1c-1.5-1.2-3.2-2.1-5-2.7C81.2,83.2,83.3,83.3,85,84.1z M77.4,108.6
		c-0.1,0-0.2,0.1-0.3,0.1c0.4,1.6,0.7,3.2,1.2,5c0.4-0.7,0.7-1.1,1.1-1.8C78.7,110.9,78,109.8,77.4,108.6z M46.2,48.2
		c1.1,1,2.2,1.7,3.6,2c-0.7-0.8-1.5-1.5-2.3-2.2C47.1,47.5,46.7,47.5,46.2,48.2z M54.7,58.6c-0.1,1,0.6,1.3,1.2,1.5
		c0.3,0.1,0.7,0.2,1.1,0.1c0.1,0,0.3-0.6,0.2-0.7c-0.2-0.3-0.6-0.6-0.9-0.8C55.8,58.6,55.3,58.6,54.7,58.6z M72.6,20
		c0.2,0.2,0.3,0.3,0.5,0.4c0.1,0.1,0.3,0.1,0.4,0.2c0.9-2.1,1-3.6,0.1-4.1C72.8,17.5,73.1,18.8,72.6,20z M46.8,69.1
		c0,0.1,0,0.2,0,0.3c2.4,0,4.8,0,7.2,0c-0.5-0.3-1.1-0.5-1.7-0.5c-1.3,0-2.7,0.1-4,0.2C47.8,69.1,47.3,69.1,46.8,69.1z M55.8,26.3
		c-0.2,0-0.3,0.1-0.5,0.1c0.6,1.9,1.3,3.9,1.9,5.8c0.1,0,0.2-0.1,0.4-0.1C57.1,30.1,56.5,28.2,55.8,26.3z M58.4,59.1
		c-0.1,0.7-0.2,1.3-0.3,1.9c0.9,0.5,1.4,0.5,1.7-0.1C60.2,60.2,59.8,59.6,58.4,59.1z M68.7,43.1c-0.1,0-0.1,0.1-0.2,0.1
		c-0.1,1-0.2,2-0.3,3.3c0.6-0.2,1.1-0.2,1.3-0.5c0.2-0.3,0.2-0.8,0.1-1.2C69.4,44.3,69,43.7,68.7,43.1z M66.6,67.7
		c0.5,0.2,0.9,0.5,1.3,0.7c0.4,0.2,0.8,0.3,1.1,0.4c-0.3-0.7-0.6-1.2-1.1-1.5c-0.2-0.2-0.6-0.5-0.9-0.5
		C66.5,66.8,66.4,67.3,66.6,67.7z M57.3,50.2c-0.4,1.2,0.4,2.1,2.2,2.9C58.9,51.9,58.1,51.1,57.3,50.2z M78.1,49.4
		c-0.7,1.1-1.3,2.1-2,3.2C77.5,52.3,77.6,52.2,78.1,49.4z M86.3,79.4c0,0.1-0.1,0.2-0.1,0.2c0.8,0.4,1.6,0.8,2.4,1.2
		c1.3,0.7,1.5,1,1.2,2.5c0,0.1,0.1,0.2,0.1,0.4c0.3,0,0.6,0.1,0.9,0.1c0.2-1.9-0.8-2.8-2.3-3.4c-0.3-0.1-0.6-0.3-1-0.5
		C87.1,79.8,86.7,79.6,86.3,79.4z M78.6,25.7c0.1,0.1,0.3,0.1,0.4,0.2c0.7-0.5,0.9-1.4,1.4-2.2c-0.4-0.3-0.7-0.6-1.2-1.1
		C79.1,23.7,78.9,24.7,78.6,25.7z M79.1,72.5c0.6,1.8,2,1.4,3.2,1.4C81.2,73.5,80.2,73,79.1,72.5z M51.9,34.4
		c-0.1,0.1-0.3,0.2-0.4,0.3c0.9,1.2,1.8,2.5,2.6,3.7c0.1-0.1,0.2-0.1,0.3-0.2C53.6,36.9,52.7,35.7,51.9,34.4z M56.7,82.3
		c0-0.1,0-0.1,0-0.2c0,0-0.1,0-0.1,0c-1,0.5-2.1,1-3.1,1.5c-0.5,0.3-0.9,0.7-1.3,1c0,0.1,0.1,0.1,0.1,0.2
		C53.8,84,55.2,83.2,56.7,82.3z M72.7,53.5c0.9-0.2,1.8,0.1,2.2-1C73.1,52.2,73.1,52.2,72.7,53.5z M70.7,120.1c0.1,0,0.2,0,0.2,0.1
		c0.3-0.3,0.7-0.6,1.1-1c-0.3-0.7-0.5-1.4-0.8-2.2c-0.1,0-0.2,0.1-0.3,0.1C70.9,118.1,70.8,119.1,70.7,120.1z M54,35.7
		c0.1-0.1,0.2-0.1,0.3-0.2c-0.3-1-0.7-2-1.1-3.1c-0.3,0.4-0.5,0.7-0.7,1C53,34.2,53.5,34.9,54,35.7z M72.3,50.1c0.1,0,0.2,0,0.2,0
		c0.2-1.1,0.4-2.3,0.6-3.4c-0.1,0-0.2,0-0.4-0.1C71.7,47.6,72.5,49,72.3,50.1z M46.7,84.5c0,0.1,0.1,0.2,0.1,0.3
		c1.5-0.5,3-0.9,4.5-1.4c0-0.1,0-0.1-0.1-0.2C49.7,83.6,48.2,84,46.7,84.5z M88.7,39c-1.1,1.4-1.6,2.1-1.7,2.8
		C88.8,40.9,88.8,40.9,88.7,39z M72.4,58.7c-0.7-0.2-1.3-0.5-1.7,0.2c-0.1,0.1,0.2,0.7,0.4,0.7C71.7,59.8,72.1,59.4,72.4,58.7z
		 M73.1,21.6c-0.1,0-0.3-0.1-0.4-0.1c-0.2,1.2-0.4,2.4-0.6,3.6c0.1,0,0.1,0,0.2,0C72.5,24,72.8,22.8,73.1,21.6z M66.9,88.5
		c-0.3-0.5-0.5-0.9-0.9-1.4c-0.5,0.8-0.9,1.4-1.3,2c0.1,0.1,0.1,0.1,0.2,0.2C65.5,89.1,66.1,88.8,66.9,88.5z M82.5,100.6
		c-0.1,0-0.1,0.1-0.2,0.1c0.5,1.2,1,2.5,1.5,3.7c0.1,0,0.2,0,0.3-0.1c0-0.5,0.1-1-0.1-1.4C83.6,102.2,83,101.4,82.5,100.6z"/>
</g>
</svg>
