<?xml version="1.0" encoding="UTF-8"?><svg id="Layer_1" xmlns="http://www.w3.org/2000/svg" viewBox="0 0 206.58 224.2"><path d="m7.49,49.99c4.2-2.21,8.29-4.72,12.67-6.49,1.76-.71,4.23-.07,6.27.42,5.08,1.21,10.29,1.95,13.54,7.14,1.4,2.23,4.43,3.4,6.57,5.23,6.06,5.18,12.05,10.46,18.78,16.33,0-4.21,0-7.83,0-11.44.02-9,3.73-16.45,10.55-21.94,2.3-1.85,6.22-1.8,9.45-2.32,1.92-.31,3.94-.06,6.65-.06-6.32-5.03-4.78-12.19-5.36-18.39-.45-4.86,3.53-8.95,7.11-12.56C99.47.14,106.92-.67,113.97.41c6.5.99,11.97,5.26,15.18,11.54,1.34,2.62,2.6,5.29,3.95,7.91,1.94,3.78,3.8,7.6,5.91,11.28,3.92,6.82,8.04,13.53,11.99,20.33,1.65,2.85,2.98,5.88,4.61,8.74,4.24,7.44,8.57,14.84,12.89,22.3,9.83-9.76,23.36-10.08,32.27.02,3.8,4.3,7.81,9.71,4.73,16.53l-.41-1.3c-.18.12-.35.24-.53.35.34.29.68.58,1.02.86-.64,5.28-1.18,10.58-1.96,15.85-.46,3.09-1.26,6.13-1.99,9.17-.88,3.68-1.84,7.35-2.75,11.02-1.48,6.02-2.85,12.07-4.45,18.06-2.15,8.07-4.48,16.1-6.73,24.15-.27.96-.92,1.96-.8,2.86,1.11,7.97-3.91,14.56-4.86,21.9-.76,5.83-3.51,9.94-6.35,14.63-3.83,6.31-9.6,6.93-15.72,7.5-8.48.79-14.16-4.47-19.63-9.71-1.38-1.32-1.87-3.83-2.23-5.89-.84-4.8-2.74-9.59.22-14.47,1.4-2.31.16-3.68-2.69-3.15-4.21.78-8.35,2.06-12.58,2.66-6.31.9-12.7,1.17-18.99,2.15-4.64.72-9.13,2.34-13.76,3.21-4.68.88-9.46,1.27-14.17,2.01-2.71.43-5.38,1.1-8.06,1.71-1.6.37-3.15.98-4.77,1.23-6.5.99-12.99,2.09-19.53,2.71-2.71.26-5.51-.74-8.29-.92-11.55-.74-15.09-9.45-17.81-18.42-1.97-6.49,4.45-17.59,10.07-21.71,6.3-4.61,13.67-3.24,20.4-5.19,4.66-1.35,9.78-1.09,14.7-1.55-2.07.42-4.13.89-6.2,1.26-1.95.35-4,.35-5.83,1.01-1.04.37-1.71,1.75-2.55,2.68.6.5,1.23,1.46,1.79,1.41,1.35-.11,3.14-.27,3.9-1.15,2.64-3.06,3.67-3.21,7.76.1-2.34,1.52-6.33-.11-7.2,3.76-3.17-.9-7.11,1.02-9.54-2.84-.52-.83-2.17-1.01-3.34-1.3-.15-.04-.97,1.27-.8,1.57.59,1.03,1.34,2.1,2.29,2.78,2.02,1.44,4.15,2.77,6.35,3.93,1.82.96,3.8,1.6,6.37,2.65.06.23.37,1.5.83,3.4,3.69-4.22,8.67-6.86,6.76-13.13-.18-.59.1-1.31.17-1.98l-.06.06c-.26-1.39-.53-2.78-.79-4.16.53-.83,1.5-1.66,1.52-2.5.15-6.02.07-12.05.14-18.07.02-2.22.24-4.43.35-6.36-5.6,3.67-11.18,7.32-16.76,10.95-.41.27-1.11.3-1.32.65-3.26,5.37-9.08,5.33-14.18,7.1-7.17,2.49-11.99-1.36-17.1-5.01-6.66-4.76-6.98-12.31-8.18-19.33-.29-1.68,1-3.75,1.89-5.48,2.46-4.82,4.61-9.59,10.37-12.01,3.82-1.6,6.8-5.22,10.15-7.94-1.02,1.72-2.04,3.43-3.05,5.15l-.07-.07c1.96,2.76,4.05,1.07,5.83-.13.25-.17-.98-2.62-1.64-3.97-.19-.39-.75-.6-1.15-.9-5.68-5.1-10.72-11.33-17.22-14.97-6.5-3.64-8.3-9.74-11.26-15.15-2.46-4.48-.24-9.74,1.75-14.27,1.07-2.43,3.14-4.42,4.76-6.61-.35,1.68-.7,3.36-1.05,5.04-.67.68-1.35,1.36-2.02,2.05.36.25.72.49,1.07.74.29-.95.58-1.9.86-2.86,1.48-1.2,2.96-2.4,5.25-4.25-2.33-.35-3.27-.49-4.22-.63Zm65.05,41.05l-.07-.07.07.07ZM19.54,47.03l-.17.11.11-.17c.36-.36.71-.71,1.07-1.07.32-.28.64-.57.96-.85-.3.31-.59.61-.89.92-.36.36-.72.71-1.07,1.07Zm83.97.97c-.32.34-.65.67-.97,1.01.02.32.03.65.05.97-.03.66-.07,1.32-.1,1.98l.06-.06c-1.41.16-2.82.32-4.23.47,1.8,1.3,3.6,2.6,5.74,4.14-.62,1.15-1.64,3.04-2.96,5.48-2.47-2.62-4.58-4.86-6.69-7.11,0,0,.07.06.07.06-1.61,1.29-3.21,2.58-4.82,3.87.16.35.33.69.49,1.04,1.31-.49,2.63-.98,3.94-1.46.57,4.05-3.29,8.49-7.53,9.46v-6.83c.09-.11.2-.2.27-.32.05-.08.03-.2.05-.3-.08.23-.16.46-.24.69-4.23,2.77-8.53,5.44-12.65,8.36-1.1.78-1.65,2.33-2.45,3.53-1.17.25-2.34.49-3.51.74-.06.35-.11.71-.17,1.06l3.06,1.34c.18-1.07.35-2.15.53-3.22,2.73-.65,5.45-1.3,8.18-1.94l-.07.07c3.39,2.53-.26,3.08-1.29,4.14-1.73,1.77-1.92,2.91.62,4.04,4.74,2.11,6.68,1.87,10.64-1.68.62-.55,1.21-1.38,1.93-1.53,6.89-1.46,9.88-7.13,13.55-12.16.68-.93,2.37-1.05,3.48-1.73,1.16-.71,2.82-1.5,3.07-2.54.22-.95-1.06-2.34-1.85-3.41-.71-.96-1.7-1.71-2.48-2.62-1.26-1.48-2.46-3.01-3.68-4.52l-.07-1.1.07.08Zm-69.97,1.02l.06-.06s-.06.05-.06.06Zm99.99,5.01l.06-.06s-.05.06-.06.06Zm5,94.99l.07-.07-.07.07Zm-22.97,4l-.21.13.14-.21.07.07ZM112.63,3.07l1.32-.28c-.09-.16-.17-.33-.26-.49-.33.28-.66.56-.99.84-.42-.07-.84-.14-1.26-.21-.01.12-.02.24-.03.36.41-.08.82-.16,1.23-.23Zm17.89,46.86s-.07.07-.07.07c-.47-.42-.95-.85-1.42-1.27-.13.23-.26.46-.38.7.62.17,1.25.34,1.87.5ZM97.54,6.03l-3.03,1.42c.32.42.64.83.96,1.25.67-.91,1.33-1.82,2-2.74.35-.35.71-.7,1.06-1.06,1.71,0,3.43-.02,5.14-.03.75.85,1.36,1.96,2.3,2.44.64.33,2.39-.06,2.5-.45.26-.96.12-2.24-.35-3.13-.27-.51-1.63-.85-2.28-.63-.86.29-1.5,1.21-2.24,1.85-1.67-1.85-3.33-3.14-5,0-.35.35-.7.71-1.05,1.06ZM4.55,62.04c-.81.19-1.63.37-2.44.56l.5,1.21c.63-.61,1.25-1.22,1.88-1.84,0,0,.06.06.06.06Zm5.97,60.87l3.08-.14c-.62-.87-1.25-1.74-1.87-2.62-.38.94-.75,1.89-1.13,2.83l-.18.11s.11-.18.11-.18ZM90.71,14.1c-.35.34-.85.62-1.02,1.03-.39.95-.61,1.97-.9,2.96.45.12.9.24,1.35.36.22-.98.49-1.96.63-2.96.07-.47-.1-.97-.16-1.46.41-.68.82-1.35,1.24-2.03l-.78-.43c-.12.84-.24,1.68-.36,2.52Zm71.84,96.93c-3.5-1.22-3.89.63-3.43,4.08,1.36-1.68,2.36-2.92,3.36-4.15l.07.07Zm-94.94,43.91c-.12-.08-.24-.18-.37-.24-.09-.04-.21-.03-.32-.04.26.07.51.14.77.2.48.64.85,1.65,1.47,1.85,1.07.33,2.31.25,3.44.1.24-.03.58-1.57.48-1.62-1.04-.51-2.13-1.05-3.25-1.17-.7-.07-1.47.58-2.2.91Zm68.02,6.9c0,.15,0,.3.03.44.03.11.11.21.18.31-.09-.23-.18-.46-.27-.69.31-.98.61-1.96.92-2.94l.07.07c-1.09-.3-2.33-1.06-3.24-.78-1,.31-1.7,1.58-2.53,2.43.97.5,1.9,1.13,2.93,1.45.56.17,1.28-.18,1.93-.29Zm-101.09,9.06l-.07.07c.67-2.57,1.33-5.14,2.01-7.78-3.1.29-3.6,3.03-4.34,5.23-.17.5,1.55,1.64,2.39,2.48Zm33-8c-.36,1.01-1.29,2.53-.95,2.91.72.81,2.15,1.41,3.2,1.3.53-.06.88-1.86,1.31-2.87-1.21-.42-2.43-.85-3.64-1.27l.08-.07ZM14.54,114.9c.81,1.53,1.63,3.05,2.44,4.58.83-1.17,1.65-2.34,2.48-3.51l1.07-1.1c3.28-.46,6.26-4.31,10.32-.71-1.81.94-3.44,1.64-4.92,2.6-1.34.86-2.76,1.82-3.64,3.08-.46.67.07,2.13.38,3.16.06.21,1.35.38,1.75.1,2.46-1.72,4.62-4.57,8.05-1.64.05.05.94-.54,1.03-.93.39-1.76.64-3.55.93-5.33-.78-.49-.65-.87-.39-.98,2.01-.88,3.86-2.21,2.2-4.39-.68-.89-3.04-.64-4.64-.65-1.44,0-2.96.73-4.32.46-5.28-1.04-5.25-1.14-6.12,3.93-.08.48-.37.92-.56,1.38-.36.36-.71.73-1.07,1.09-3.78-.31-2.11-2.48-.92-4.49-.39-.1-.77-.21-1.16-.31-1,1.25-1.99,2.49-2.99,3.74l.07-.07ZM78.55,40.03c-3.93.06-4.72,3.86-7,5.87l.07-.07c-1.68,4.56-4.63,8.75-4.78,13.76.6.43,1.2.86,1.79,1.29.8-1.82,1.6-3.63,2.59-5.91,3.64,6.98-5.5,7.66-4.32,12.19,2.33-1.32,4.38-2.7,6.59-3.68,3.91-1.73,4.56-3.14,2.96-7.3-.26-.68-.3-1.45-.54-2.65,1.13.28,1.75.63,2.3.54,1.47-.24,3.24-.3,4.23-1.17.52-.46.09-2.79-.63-3.72-1.41-1.83-3.32-3.29-5.18-5.05.42-.96,1.13-2.57,1.84-4.19l.07.07Zm101.01,37c-7.42,1.86-11.11,7.81-14.79,13.69-.54.87-.18,2.31-.23,3.48,1.06-.55,2.16-1.02,3.16-1.66.93-.6,1.75-1.37,2.62-2.07-.09,1.33.23,2.9-.37,3.93-.69,1.19-2.04,2.27-3.35,2.78-4.76,1.86-4.98,2.08-4.19,7.61q3.43-.71,3.41-4.53c6.94.6,14.39-1.93,17.06-6.09h-5.6c2.26-1.45,3.57-2.09,4.62-3.03.66-.6.93-1.63,1.37-2.47-2.76-1.33-2.48-6.21-6.76-5.76l.08.08c.31-1.04.51-2.14.97-3.1.51-1.05,1.27-1.97,1.92-2.95l.07.07ZM114.52,22.91s.08.08.08.08c.03-1.26.26-2.55.04-3.77-.39-2.24-1.05-4.42-1.68-6.99,1.46,0,1.95.1,2.37-.02,1.22-.33,2.41-.75,3.61-1.14-1.01-.98-1.91-2.16-3.09-2.82-.43-.24-1.8.59-2.31,1.25-1.08,1.39-1.87,3-2.86,4.66-1.25-3.23-6.27-6.28-9.69-5.87-3.87.46-4.98,3.34-5.38,6.69l-.08-.07h3.32l1.08,1.52c-1.4.39-2.79.78-4.19,1.18.3.48.59.96.89,1.44,2.13.47,4.26.93,6.73,1.47-1.1,1-1.9,1.73-2.81,2.56,7.89,4.31-.93,7.87-.58,10.98,4.11.39,7.79.73,12.65,1.19-3.74,2.2-2.41,3.65-.5,4.8,1.24.75,2.63,1.44,4.03,1.67,3.73.6,7.49,1.1,11.25,1.27,1.35.06,2.76-.95,4.14-1.48l-.34-1.26h-5.48c1.22-6.86,1.05-7.04-5.58-5.75-1.31-2.51,5.36-3.62,1.08-6.84-3.38-2.55-3.06,2.63-5.54,2.2-.88-2.23,2.71-5.36-1.17-6.92Zm69.04,89.13c-3.71-3.68-1.3-7.37.24-10.96q-3-1.04-9.57.82c-6.15,1.74-8.96,5.18-9.1,11.45-.06,2.81-1.29,4.19-4.07,4.65-1.32.22-2.52,1.19-3.78,1.82.43.41.86.82,1.29,1.23l-.06-.06c.75.32,1.57.54,2.23.98.85.57,1.57,1.33,2.34,2-.82.66-1.55,1.58-2.49,1.91-1.46.51-3.06.62-4.6.89-.16.41-.32.82-.48,1.24,1.63,1.1,3.23,2.23,4.89,3.27.86.54,1.81.92,2.73,1.38-.62.93-1.05,2.13-1.9,2.75-3.33,2.39-4.5-.02-5.62-3.14-1.2,2.1-2.19,3.98-2.28,5.89-.08,1.75.25,4.44,1.37,5.13,2.71,1.65,2.66-1.97,4.07-3.01.23-.17.6-.17.91-.25.35.17.7.34,1.04.51-1.08,1.94-2.28,3.82-3.2,5.84-.51,1.12-.56,2.46-.82,3.7,1.31-.37,2.87-.43,3.88-1.2,1.06-.81,1.61-2.31,2.38-3.51.5.33,1,.67,1.5,1-1.55,2.34-3.05,6.56-4.65,6.6-2.84.06-5.74-2.41-9.24-4.12-.46,2.92-1.04,6.59-1.63,10.26,2.2-2.92,4.91-3.69,8.25-2.64-.49,1.61-1.33,3.09-1.19,4.46.06.59,2.47,1.69,3.24,1.32,2.14-1,4.4-2.32,5.8-4.14,1.17-1.52,3.15-3.84.3-6.06-.28-.22.24-2.4.74-2.56,3.59-1.15,3.39-4.01,3.64-6.14-1.85-1.04-3.29-1.85-4.72-2.65.19-.47.38-.94.57-1.4,3.3-.22,6.6-.44,10.93-.73-2.09-1.51-3.55-2.56-5.01-3.61,0,0,.07.07.07.07-1.52-.85-3.04-1.7-4.57-2.55.47-.52.94-1.03,1.41-1.55,3.59-.61,7.61,2.55,11.44-1.36-3.35-.89-6.22-1.65-9.9-2.62,1.51-.85,2.42-1.08,2.86-1.66,1.77-2.36,5.33-5.9,4.7-7.05-1.88-3.38-.02-4.69,1.56-6.56,1.67-1.4,2.56,7.51,4.44.29l.07.07Zm-129.98-9.12c.1,2.12-.63,4.53,1.78,6.17,2.59-5.14,2.56-5.22-1.86-6.08,1.58-1.25,3.16-2.5,5.73-4.54.19,3.23.02,5.19.51,6.98.3,1.1,1.6,1.92,2.45,2.87,2.94-3.81,5.64-1.28,8.46.23.67.36,1.7.43,2.43.19.81-.26,1.67-.9,2.08-1.62.17-.29-.61-1.47-1.21-1.83-3.05-1.84-6.19-3.54-9.81-5.57,1.2-1.33,2.35-2.6,3.5-3.88,0,.15-.02.3.02.44.03.11.12.21.18.31-.09-.23-.18-.46-.27-.69-.57-2.28-1.13-4.56-1.83-7.36-1.7,1.8-2.93,3.1-4.17,4.4l.07.07c-1.04-1.04-2.07-2.08-3.11-3.12l.07.07c1.42-1.83,2.84-3.66,4.46-5.75-1.66-1.6-3.56-3.38-6.36.3-1.14,1.49-3.6,1.97-5.46,2.92,2.11-2.64,4.91-4.7,1.97-8.17-1.84,1.25-3.46,2.36-4.96,3.38.46-3,.81-5.28,1.16-7.57-1.44.22-2.89.44-4.39.67-.66-1.8-1.33-3.62-2.28-6.19-1.63,1.99-2.9,3.55-4.81,5.87-.19-1.97-.82-3.48-.36-4.52,1.83-4.21-.99-4.6-3.77-5.49-.42,1.92-.76,3.47-1.1,5.03-.39,0-.79,0-1.18,0,.44-2.99-1.6-4.31-2.96-6.27-3.18-4.61-2.44-5.11-7.23-6.37-.27-.07-.5-.41-.67-.67-2.4-3.76-5.89-2.16-8.94-1.58-2.92.55-4.92,4.64-4.35,7.99.56,3.3,3.08,3.51,5.69,3.53.83,0,1.66-.01,2.5-.02l-.07-.07c-1.55,1.44-3.09,2.88-4.77,4.44,1.24,1.55,2.15,2.9,4.37.28,2.22-2.62,4.12-1.88,4.41,1.55.21,2.51-.33,5.09-.47,6.84,3.88-1.15,7.71-2.29,12.47-3.7-2.25,3.49-.46,4.9,1.85,5.86-.97,1.51-1.8,2.79-2.62,4.06.22.24.44.48.66.72,1.09-.44,2.18-.88,3.25-1.31.89,1.65,1.69,3.12,2.66,4.92.9-1.71,1.48-2.8,2.06-3.9.36.12.73.24,1.09.36-.31,2.87-.83,5.73-.88,8.6-.11,7.29,5.95-2.06,6.95,2.51.62-.63,1.7-1.23,1.75-1.91.06-.79-.63-1.79-1.26-2.43-.73-.74-1.76-1.2-2.66-1.77.22-.46.44-.93.66-1.39,1.53.72,3.51,1.05,4.49,2.23,3.55,4.2-1.28,7.78-1.25,11.91,1.81-.65,3.58-1.28,5.35-1.91Zm98.16,34.91c-.35-.49-1.24-1.91-2.32-3.16-1.51-1.73-3.47-3.14-4.71-5.03-5.48-8.33-10.82-16.76-16.11-25.22-2.44-3.89-4.63-7.93-6.98-11.87-1.25-2.09-2.26-2.37-4.59-.59-3.88,2.96-6.29,6.21-7.37,11.1-.91,4.12-.26,6.91,2.81,9.7,3.72,3.39,8.25,5.84,10.66,10.76,3.26,6.64,6.7,12.94,2.41,20.42-1.24,2.16-.31,3.55,2.32,3.25,1.31-.15,2.59-.6,3.9-.8,4.52-.71,9.06-1.92,13.58-1.89,4.69.04,6.32-.76,6.42-6.7Zm-.4,41.77c-.02.46-.04.91-.06,1.37,1.97.44,3.95.89,5.92,1.33.19-2.37.38-4.75.55-7.12,0-.13-.19-.26-.27-.41-1.08-1.86-1.03-3.15,1.57-3.36.59-.05,1.6-.47,1.66-.84.61-4.1,4.23-5.11,6.93-7.11.65-.48.89-1.52,1.32-2.31-.15-.31-.3-.62-.45-.93-5.48,2.86-10.92,5.82-17.3,3.73-.37-.12-2.02,1.67-1.86,2.19,1.35,4.32,2.99,8.55,4.58,12.91-.49.1-1.54.32-2.59.54Zm-111-2.63c.13-.35.25-.69.38-1.04,1.43.57,2.82,1.27,4.29,1.66,1.12.3,2.34.21,3.52.29-.04-1.38.37-2.99-.19-4.1-1.34-2.62-5.27-3.29-8.73-1.47-1.28.67-2.09,2.23-3.11,3.39,1.28.42,2.57.84,3.85,1.26Zm102.12-29.58l-1.15.06q-2.73,8.82.52,12.52c.21-4.19.42-8.38.63-12.57ZM15.98,47.49c-.87.19-1.75.37-2.62.56.37,1.65.73,3.3,1.1,4.96.91-.21,1.81-.43,2.72-.64-.4-1.62-.8-3.25-1.19-4.87Zm147.56,131.09c.78-1.46,1.78-2.52,1.55-3.11-.29-.74-1.58-1.52-2.42-1.5-.8.02-1.56,1.06-2.34,1.66.89.81,1.77,1.63,3.21,2.95ZM25.68,54.73c.65.37,1.3.73,1.96,1.1.38-1.09,1.26-2.32,1-3.22-.26-.9-1.59-1.72-2.61-2.06-.53-.18-1.43.77-2.16,1.21.61.99,1.22,1.98,1.83,2.97Zm82.16-15.13c-.98-.87-1.91-2.04-2.22-1.9-.85.41-1.45,1.36-2.15,2.1.66.54,1.31,1.5,1.97,1.5.68,0,1.37-.92,2.39-1.7ZM26.32,85.21c.75-.99,1.45-1.66,1.75-2.48.08-.24-1.32-1.4-1.52-1.28-.85.51-1.49,1.35-2.21,2.07.57.48,1.14.97,1.99,1.68ZM97.53,27.37c.49-.28.99-.57,1.48-.85-.7-1.31-1.39-2.62-2.17-3.88-.03-.04-.97.49-1.49.75.73,1.32,1.45,2.65,2.18,3.97ZM32.83,60.41c.49-.24.99-.47,1.48-.71-.49-1.06-.95-2.13-1.54-3.13-.05-.09-.99.35-1.52.55.53,1.1,1.06,2.19,1.58,3.29Zm-4.21,107.67c-.46-.16-.92-.31-1.38-.47-.53,1.09-1.05,2.19-1.58,3.28l2.54.91.42-3.72ZM118.73,18.32c.99.58,1.59,1.14,2.25,1.24.3.04,1.13-1.07,1.03-1.25-.35-.59-.95-1.18-1.58-1.37-.31-.09-.88.69-1.7,1.39Zm-46.46,82.94c.75-.69,1.46-1.05,1.54-1.52.07-.37-.63-1.24-.99-1.24-.52,0-1.24.48-1.47.96-.14.29.46.95.92,1.8Zm99.9,51.82c-.36-.08-.73-.17-1.09-.25-.21.93-.43,1.85-.64,2.78.42.06,1.2.21,1.21.17.22-.89.36-1.79.52-2.7ZM36.74,94.85l-1.06-.51c-.39.28-1.1.57-1.1.85,0,.68.35,1.35.55,2.03.54-.79,1.07-1.58,1.61-2.37Zm105.92-24.19c.35.64.57,1.04.78,1.45.52-.29,1.29-.46,1.48-.89.15-.35-.39-1.01-.62-1.53-.51.3-1.02.61-1.64.98Zm46.93,11.1c.59-.96,1.07-1.53,1.27-2.19.05-.17-1-.96-1.18-.85-.59.35-1.13.93-1.44,1.54-.09.18.69.78,1.35,1.49Zm-46.76-1.76c.48-.66,1.02-1.27.96-1.34-.38-.44-.87-.85-1.4-1.04-.16-.06-.91.76-.83.92.23.5.72.87,1.27,1.47ZM1.33,67.96c.43.45.87.89,1.3,1.34.43-.15,1.18-.23,1.23-.46.14-.64-.01-1.34-.05-2.02-.83.38-1.65.76-2.48,1.14Zm20.44,58.19c-.66.83-1.17,1.38-1.53,2.01-.06.11.56.59.86.9.49-.54,1.04-1.05,1.43-1.66.09-.14-.37-.63-.77-1.25Zm151.45,21.45c.37-.52.86-.89.81-1.2-.05-.36-.56-.65-.87-.97-.3.3-.83.61-.83.91,0,.36.47.71.88,1.25Zm31.6-46.03c-.38-.09-.76-.17-1.15-.26-.16,1.11-.32,2.22-.48,3.33.26.05.53.1.79.15.28-1.07.56-2.15.84-3.22Zm-18.02-5.21c.49.4.87.93,1.14.88.37-.07.84-.54.92-.92.05-.24-.53-.86-.83-.86-.35,0-.7.48-1.23.89Zm-38.28,67.39c-.37-.13-.74-.26-1.11-.38-.28,1.15-.55,2.29-.83,3.44.65-1.02,1.29-2.03,1.94-3.05Zm-.51,9.96c-.72-.19-1.2-.48-1.54-.36-.33.11-.54.62-.8.95.41.15.84.46,1.22.4.33-.05.61-.51,1.12-.99Zm-.3,14.09c-.22-.17-.43-.47-.65-.47-.22,0-.44.3-.65.47.29.23.58.45.86.68.15-.22.3-.45.44-.68ZM45.87,65.53c.25-.15.5-.31.74-.46-.17-.23-.33-.61-.53-.64-.22-.03-.49.27-.74.42.17.23.35.46.52.68Zm78.87,72.25c-.24.14-.64.25-.69.44-.06.24.17.55.27.83.24-.14.63-.25.68-.44.06-.23-.16-.54-.27-.82Zm-8.17-88.54c-.09-.25-.12-.67-.27-.73-.23-.08-.54.11-.82.18.09.26.12.68.27.73.23.08.54-.11.82-.18Zm-79.49,12.67c-.2.23-.41.45-.61.68.26.22.53.45.79.67.15-.26.44-.52.42-.77-.01-.2-.38-.38-.61-.58Zm54.71,19.13c0-.26.1-.62-.03-.8-.1-.14-.51-.05-.78-.06,0,.29-.08.64.06.83.09.13.51.02.76.02Zm-80.71-2.25c-.12-.22-.23-.45-.38-.64-.02-.03-.35.09-.36.16-.03.26.02.52.05.78.23-.1.46-.2.69-.3Zm174.64-1.79c-.19-.1-.41-.25-.65-.31-.08-.02-.33.23-.31.27.1.22.26.42.4.63.19-.2.37-.4.55-.59Zm-117.88,71.35c-.19.24-.38.46-.53.7-.01.02.25.29.33.27.27-.09.5-.25.75-.39-.18-.19-.36-.38-.55-.57Zm62.14-117.59c.54-.97.86-1.38.79-1.45-.28-.32-.67-.54-1.02-.79-.13.26-.4.53-.36.76.07.44.32.84.58,1.49ZM32.78,180.37c.22-.16.45-.31.67-.47-.16-.2-.32-.56-.47-.56-.23,0-.45.27-.67.42.16.2.32.4.48.61ZM123.28,23.47c-.09.09-.17.19-.26.28.18.08.36.16.54.25.02-.12.1-.28.06-.36-.05-.09-.22-.11-.34-.17ZM27.11,93.21c.11.06.21.12.32.17.05-.11.16-.24.13-.31-.04-.09-.2-.12-.31-.18-.05.11-.1.21-.15.32ZM92.42,30.31c.22-.11.38-.19.54-.27-.11-.05-.25-.15-.33-.12-.09.04-.12.21-.21.39Zm17.75,21.31l-.08-.33-.32.2.4.13Z"/><path d="m10.5,64.22l-.59.45c-.12-.21-.26-.41-.35-.63-.01-.03.25-.25.32-.22.22.09.42.26.62.41Z"/><path d="m61.57,92.94c-.68.65-1.36,1.3-2.04,1.95l.07.07c.68-.65,1.37-1.3,2.05-1.94l-.07-.07Z"/><path d="m15.55,67.04l-.07-.07.07.07Z"/><path d="m59.52,94.89l.07.07-.07-.07Z"/><path d="m58.53,89.89l.07.07-.07-.07Z"/><path d="m172.31,120.72l-3.83.41c-.07-.49-.13-.97-.2-1.46,1.23-.22,2.46-.44,3.69-.67l.33,1.72Z"/><path d="m174.12,114.16c-.43-.25-.88-.46-.86-.5.2-.56.46-1.09.71-1.62.31.17.91.44.88.51-.18.56-.47,1.07-.73,1.62Z"/><path d="m173.47,108.56c-.72.09-1.44.18-2.17.28-.05-.2-.1-.4-.15-.6.72-.23,1.44-.47,2.16-.7.05.34.1.68.16,1.02Z"/><path d="m158.56,121.05l-.06-.06.06.06Z"/><path d="m114.52,22.91c-.21.37-.43.74-.64,1.12-.15-.15-.29-.31-.44-.46.39-.19.77-.38,1.16-.58l-.08-.08Z"/><path d="m85.79,73.58h3.78c0,.42-.01.83-.02,1.25-1.26-.08-2.51-.17-3.77-.25v-.99Z"/><path d="m93.39,68.09c.9-.19,1.79-.38,2.69-.57.05.23.1.46.15.69l-2.74.67c-.03-.26-.06-.53-.09-.79Z"/><path d="m102.48,51.96l.06-.06-.06.06Z"/><path d="m102.49,48.92c.37,0,.74,0,1.1.01-.36.36-.72.72-1.09,1.09,0-.37-.01-.73-.02-1.1Z"/><path d="m79.61,70.96l-.07.07.07-.07Z"/><path d="m174.56,82.99c.68,0,1.36.01,2.03.02l-.08-.08c-.66,1.57-1.32,3.15-1.98,4.72-.46-.17-.93-.34-1.39-.51l.42-3.16-.07.03c.37-.37.73-.73,1.1-1.1,0,0-.04.08-.04.08Z"/><path d="m175.25,89.45c.36.49.83.86.78,1.14-.06.34-.53.8-.88.85-.25.03-.82-.53-.81-.81.01-.34.49-.67.9-1.17Z"/><path d="m173.56,83.98l-.2-1.22c.4.08.8.15,1.19.23l.04-.08c-.37.37-.73.73-1.1,1.1l.07-.03Z"/><path d="m169.46,85.95l.07.07-.07-.07Z"/><path d="m169.54,86.03l-.07-.07.07.07Z"/><path d="m63.63,162.94l-.06.06.06-.06Z"/><path d="m72.76,51.37c.75-1.32,1.5-2.63,2.25-3.95.47.3.93.6,1.4.9-.84,1.26-1.68,2.53-2.52,3.79-.38-.25-.75-.49-1.13-.74Z"/><path d="m71.54,45.91c.1.2.21.41.31.61-.05-.09-.12-.18-.15-.28-.04-.13-.06-.26-.09-.39l-.07.07Z"/><path d="m14.47,114.98l.07-.07-.07.07Z"/><path d="m67.47,162.98l.08-.07-.08.07Z"/></svg>