<?xml version="1.0" encoding="UTF-8"?><svg id="Layer_1" xmlns="http://www.w3.org/2000/svg" viewBox="0 0 223.06 222.2"><path d="m190.82,67.13c3.17,8.42,2.92,16.83-.02,25.25-.01-.15,0-.3-.05-.44-.03-.11-.12-.2-.19-.3.1.22.21.45.31.67-1.08,4.12-2.16,8.24-3.34,12.69,4.52,1.99,9.79,4.1,14.87,6.6,4.8,2.37,9.12,5.45,11.4,10.62l.09-.05c-.04.89-.13,1.78-.07,2.67,0,.1.84.14,1.29.21-.06-.61-.13-1.22-.19-1.83l-.04.09c1.04,1.99,2.08,3.98,3.12,5.97l-.07-.08c.64,1.34,1.29,2.68,1.93,4.02l.08-.04c-.35.87-.69,1.74-1.04,2.6l2.06-.56s-.07.08-.07.08l1.38,6.89c-.46.03-.91.07-1.37.1l.07-.07c-.1.96-.47,2.71-.26,2.78,3.57,1.21,2.13,4.29,1.77,6.13-1.19,6.13-3.01,12.13-4.59,18.18-.36-.29-.71-.59-1.07-.88.38.27.76.53,1.14.8-3.02,3.72-5.79,7.68-9.11,11.1-10.29,10.6-27.81,12.97-41.06,5.82.26-.14.52-.29.79-.43-.24.17-.48.34-.72.51-2.1-.4-4.25-.63-6.28-1.25-3.05-.92-4.56.4-4.75,3.2-.79,11.52-7.47,19.86-15.33,27.19-4.7,4.38-11.01,6.14-17.63,5.92,0-.37,0-.74,0-1.12.13-.03.27-.04.39-.08.1-.04.18-.12.26-.18-.19.11-.38.23-.56.34-.26.16-.51.33-.77.49.26.16.51.31.77.47-6.84,1.4-13.55,2.11-19.13-3.51-.35-.35-1.22-.56-1.68-.39-4.86,1.8-8.15-1.1-11.47-3.79-2.94-2.38-5.79-4.85-8.69-7.29,0,0-.07.06-.07.06.97-.69,1.95-1.38,2.92-2.08l.07.07c-1.15-.65-2.32-1.27-3.46-1.95-2.07-1.24-3.33-1-5.73.53-10.16,6.46-21.39,8.05-33.06,4.58-2.04-.61-3.8-2.14-5.69-3.24-.11-.08-.22-.17-.35-.23-.09-.04-.19-.05-.29-.07.24.08.47.15.71.23-3.94,2.11-6.9-.62-9.78-2.38-2.14-1.31-3.64-3.65-5.42-5.53,0,0,.06.07.06.07-1.65-1.02-3.29-2.04-4.94-3.06l-.09.04c.99,0,1.98-.02,2.97-.03.12.11.22.26.36.33.1.05.24,0,.37,0-.26-.08-.53-.17-.79-.25-.49-1.34-.99-2.69-1.48-4.03-.82.99-1.63,1.97-2.45,2.96l.04-.09c-2.35-7.88-5.96-15.31-6.02-23.92-.04-6.35,1.34-12.17,3.31-17.98.41-1.21,1.86-2.07,2.83-3.09-.6.89-1.21,1.77-1.81,2.66.46.11.91.22,1.37.33.11-.97.23-1.95.34-2.92.66-1.31,1.32-2.62,1.98-3.93,0,0-.07-.07-.07-.07.04.67.08,1.33.12,2l-.07-.07c.99-.82,1.89-1.78,2.98-2.43,1.1-.65,2.38-1,3.57-1.48.17.3.34.59.52.89-3.26,3.99-6.52,7.98-9.98,12.22,1.41.63,2.68,1.2,4.14,1.86-1.07,2.78-2.96,2.36-4.97,2.11-.72-.09-1.7.55-2.28,1.13-.33.33-.28,1.69-.07,1.78.83.34,1.79.45,2.7.47,2,.05,4.06.29,5.98-.12,1.7-.36,3.25-1.48,5.38-2.52-1.45,4.23.7,9.1-3.53,12.89-1.79,1.6-2.99,4.17-1.24,6.76.37.55,1.32.94,2.01.96.42,0,1.24-.86,1.23-1.31-.16-7.32,4.63-10.63,10.23-13.02.42,1.47.44,3.77,1.4,4.26,1.08.55,3.27-.11,4.49-.95,3.49-2.41,6.66-5.28,10.14-7.72.8-.56,2.4-.4,3.49-.08,2.79.82,4.43-.41,4.59-2.92.12-1.81,3.1-5.29-2.03-5.3-.43,0-.98-.29-1.27-.63-3.19-3.76-6.37-7.53-9.47-11.35-.36-.44-.39-1.23-.39-1.86,0-3.62-1.61-5.62-5.74-5.22,1.13-3.17,2.1-5.88,2.94-8.24-4.92-1.6-10.42-3.39-15.92-5.17.16,0,.32.02.47-.02.12-.03.21-.14.32-.21-.24.1-.48.2-.72.3-6.5-.09-10.97-4.01-15.38-8.09-1.46-1.35-3-2.6-4.5-3.9,0,0-.08.05-.08.05.94-.76,4.31,2.09,2.99-2.01l.07.07c-1.69-.18-3.33-4-5.09-.07l.05-.09c-1.82-6.61-5.92-12.64-5.06-19.93l.07.07c-2.52-7.97.78-15.23,2.91-22.58.32-1.11,2.17-1.78,3.31-2.65-1.15,1.98-2.3,3.96-3.46,5.94l1.41.67c.65-2.19,1.31-4.37,1.96-6.56l.85-2.84-.07-.08c2.49,1.41,2.76,1.14,3.13-3.04l-.08.08c4.2,1.35,4.3,1.61,1.76,4.63-1.18,1.4-2.78,2.61-3.46,4.21-.84,1.96-3.03,3.38-.48,6.7,1.73,2.25,2.34,5.11,5.46,6.82,2.69,1.47,1.78,5.68-1.28,8.49-3.53,3.23-3.48,6.29.17,8.24.21.11.61-.13,1.22-.27-.45-7.53,3.98-11.52,10.29-14.18.85,1.9,1.52,3.4,2.18,4.89,1.59-.74,3.3-1.29,4.73-2.25,3.29-2.2,6.44-4.61,9.67-6.9.37-.26.91-.34,1.38-.39,1.84-.2,4.76.3,5.32-.64,1.84-3.09,2.9-6.66,4.07-10.11.14-.41-.97-1.17-1.37-1.85-.56-.94-.99-1.96-1.48-2.95,1.02-.32,2.04-.67,3.07-.95.89-.23,1.81-.37,3.06-.62-.39-.92-.61-1.5-.88-2.04-2.44-4.96-2.42-4.91-7.22-1.87-.83.52-2.02.48-3.64.83,2.45-3.49,4.57-6.26,6.36-9.23.53-.89.12-2.35.14-3.54-1.14.7-2.5,1.19-3.35,2.14-1.6,1.8-2.84,3.92-4.41,5.75-.27.31-1.49-.04-2.16-.34-.17-.07-.07-1.24.21-1.72,1.28-2.12,2.67-4.18,4.15-6.46-.93-.17-1.72-.31-2.51-.45l.07.08c0-.36,0-.72,0-1.09l-.03.06c8.24-.81,21.16,3.92,24.52,8.84-4.93-9.27-1.57-17.57,2.48-25.8l-.05-.08c0,.69,0,1.39,0,2.08l.06-.12v4.13s-.09-.06-.09-.06c.67.45,1.39.84,1.99,1.37.64.56,1.16,1.25,1.73,1.88-.77.51-1.49,1.11-2.32,1.5-.4.19-1.04-.18-1.46-.01-.87.36-1.67.91-2.5,1.39,1.01.45,1.99,1.16,3.05,1.3,1.66.23,3.43.34,5.05.02,1.93-.39,3.76-1.29,5.56-1.94-.22,1.79-.67,3.76-.66,5.72.02,2.43-.38,4.28-2.38,6.11-3.53,3.24-3.09,5.58,1.26,8.25-.11-7.69,4.24-11.92,11.53-14.88-.72,2.19-1.24,3.76-1.76,5.34-5.9-1-2.12,4.44-3.96,5.5,1.91,1.34,3.84,2.28,5.24,3.74,3.28,3.43,3.48,3.58,5.05-1.07,1.26-3.72,3.06-6.31,7.57-6.49-.21.81-.43,1.27-.42,1.72.04,1.12.2,2.24.31,3.36,1.04-.57,2.18-1.03,3.1-1.76.87-.69,1.37-1.9,2.28-2.47,1.88-1.18,5.22-1.32,2.9-4.93.61-.21,1.22-.42,1.83-.64.69.31,1.37.62,2.06.93l-.07.07c-.69-.31-1.37-.62-2.06-.93-1.79-3.57-4.17-4.45-7.5-1.81-2.4,1.9-4.99,3.56-7.36,5.49-3.4,2.75-6.83,2.51-9.05-.8,3.52.43,6.39-.59,9.05-3.11,2.44-2.32,5.36-4.15,8.18-6.02.58-.39,1.8-.28,2.5.05,2.88,1.35,4.43.17,5.32-2.5.83-2.51,1.78-5,2.35-7.57.2-.93-.57-2.07-1.13-3.88-1.13,2.33-1.81,3.72-2.49,5.12-.44-.03-.88-.05-1.32-.08,0-1.86-.62-4.05.15-5.5,1.03-1.94,2.89-3.67,5.79-2.54.81.32,1.97-.24,2.97-.4-.54-.66-1.18-1.27-1.58-2-.39-.73-.58-1.58-.75-2.4-.18-.88-.23-1.79-.33-2.69-1.18.35-2.85.33-3.43,1.12-1.78,2.42-3.87,2.8-7.21,2,4.51-2.87,8.79-5.41,9.15-10.79.09-1.29-1.05-2.66-1.62-4-.66.46-1.32.93-1.98,1.39-.36,1.51-.56,3.08-1.12,4.52-.53,1.37-1.16,2.96-2.26,3.77-.97.71-2.64.48-4,.66.44-1.08.99-2.13,1.3-3.24.43-1.51.69-3.06,1.02-4.6-1.16-.08-2.32-.16-3.47-.24l.1-.06h-6.73c11.83-4.07,21.99-.89,31.65,5.08-.68.27-1.37.54-2.05.81.16.22.31.44.47.65.5-.52,1-1.03,1.5-1.55,2.02,1.36,4.05,2.72,6.07,4.09-.02.63-.03,1.27-.05,1.9l.1.19-.18-.11c.01-.68.03-1.37.04-2.05,1.08,2.03,2.1,4.1,3.26,6.09.42.72,1.17,1.26,1.76,1.89l-.07.07c3.9-.86,2.19,2.65,3.17,4.06-.15.02-.32.02-.46.07-.11.04-.2.14-.3.22.23-.12.46-.24.69-.36,1.31,3.99,2.61,7.99,3.92,11.98l.08-.03c-2.26.95-2.15,2.62-1.15,4.35.14.24,1.42-.18,2.17-.29l-.08.09c12.65-1.36,23.6,2.41,32.99,10.89-.33.49-.96,1.01-.91,1.45.06.52.72.97,1.12,1.45.2-.13.4-.25.6-.38-.3-.86-.6-1.72-.91-2.59,1.19,1.57,2.38,3.13,3.56,4.7.87,1.15,1.72,2.31,2.58,3.46l-.08-.09c.38,0,.76,0,1.14,0l-.07.08c1.33,2.97,2.67,5.94,4,8.9-.39.58-.77,1.17-1.16,1.75.13.07.26.13.4.2.23-.68.45-1.35.68-2.03Zm-6.89,40.24c-.35.32-.69.64-1.04.96l-.07-.07c.37-.32.73-.64,1.1-.96l.07-.13s-.06.19-.06.19Zm-26.06,74.84l-.05.04.05-.04Zm-4-4l-.06.05.06-.05Zm-95.99-35.88c-.35-.36-.7-.72-1.05-1.08-1.17-1.93-2.26-3.91-3.54-5.77-.55-.8-1.38-1.54-2.25-1.91-.33-.14-1.71,1.03-1.63,1.23.39,1.01.91,2.16,1.74,2.79,1.8,1.35,3.82,2.41,5.74,3.6.35.36.7.72,1.06,1.07l-.07.07Zm2.98,3s.06-.06.06-.06c.34.33.69.66,1.03,1,.7.29,1.4.58,2.1.88,2.84.93,5.69,1.86,8.53,2.8.1-.43.2-.87.3-1.3l-8.91-1.42-2.09-.88c-.34-.33-.68-.67-1.02-1Zm48.03.97c-.33.34-.66.68-1,1.02-.14.01-.29,0-.42.05-.1.04-.17.14-.26.21.2-.11.4-.22.61-.34.33-.34.66-.68.99-1.02,0,0,.07.07.07.07Zm-40-86.12l-.07.07.07-.07Zm88.01,98.98s.07.07.07.07c-.36.36-.72.73-1.07,1.09-.69.3-1.38.6-2.06.91-.13.09-.26.17-.39.26.11-.11.22-.22.33-.33.69-.3,1.38-.6,2.06-.9.36-.36.71-.73,1.07-1.09Zm5.98-6.86l-.06-.06.06.06Zm23,4.01l.07-.07c.3.33.59.67.89,1-.32-.31-.64-.62-.96-.93Zm-109.99-4.98l-.1-.15.12.11c.44.07.87.14,1.31.21-.44-.05-.89-.11-1.33-.16Zm114.99-76.02l.07-.07c.09.78.19,1.56.28,2.34l.68-.25c-.35-.67-.69-1.34-1.04-2.01Zm-42,88.96c-.8.05-1.6.09-2.4.14l.17.7c.72-.3,1.44-.6,2.16-.91.35-.3.71-.59,1.06-.89-.33.32-.67.64-1,.96Zm-24-48.08c.22-.73.43-1.47.65-2.2-.19-.02-.38-.05-.57-.07v2.35l-.19.1.12-.17Zm-38.98-44.91c-1.33,0-2.67,0-4,0-13.16-.48-26.58,7.44-29.93,18.13,1.02-.47,2.06-1.08,2.49-1.99,1.44-3,2.83-2.07,4.35-.17l.07-.07c-1.92,1.11-4.07,2.12-1.47,5.04-1.87-.13-3.17-.08-4.41-.34-3.8-.79-5.55.97-5.93,4.55-.1.98-.16,1.96-.24,2.94l.06-.1c-.26.42-.7.82-.76,1.26-.23,1.72-.33,3.45-.48,5.17,1.49-.15,3.01-.17,4.48-.46,3.53-.71,8.29,1.93,8.89,5.41.43,2.54,1.62,2.55,3.45,1.79,2.08-.86,4.13-1.78,6.12-2.65.37,1.66.66,2.94.94,4.22,1.54-.37,3.11-.66,4.61-1.17.56-.19.87-1.04,1.42-1.36,3.75-2.13,7.35-5.03,11.39-6,2.54-.61,5.29.37,6.17-3.05.69-2.67,1.41-5.4,1.5-8.12.05-1.65-1.08-3.33-1.69-5,1.84-.28,3.67-.55,5.5-.85.12-.02.21-.24.56-.67-.51-.98-1.1-2.1-1.69-3.21-2.16-4.07-2.34-4.06-6.11-1.55-1.23.82-2.74,1.2-4.12,1.79,1.84-3.31,4.07-5.85,6.02-8.59.86-1.21,1.47-2.82,1.52-4.26.01-.47-2.13-1.01-3.29-1.51-.51,1.36-1.26,2.68-1.49,4.08-.58,3.61-2.91,5.31-6.81,4.65.6-1.32,1.2-2.63,1.8-3.94.35-1.32.7-2.64,1.05-3.96Zm-41.05,39.86c.9.23,1.79.46,2.69.7.01-.35.02-.69.03-1.04-.88.14-1.77.27-2.65.41,0,0-.07-.07-.07-.07Zm124.95,27.94c.57-1,1.13-2,1.7-3.01l-.76-.31c-.29,1.13-.58,2.26-.87,3.39-.1.2-.21.4-.31.6.08-.22.16-.45.24-.67Zm-33.87-20.85c-.26-.08-.53-.15-.79-.23.29.05.57.1.86.15,1.14.48,2.29.96,3.43,1.43.09-.33.17-.66.26-1-1.25-.12-2.51-.24-3.76-.36Zm33.97,1.08c-1.47.39-2.93.78-4.4,1.17.15.32.3.64.45.96,1.29-.73,2.59-1.46,3.88-2.2l.07.07Zm-54.91-36.2c.3.73.6,1.47.89,2.2.04,2.73,1.35,4.07,4.15,3.76.09,1.39.17,2.77.26,4.16.37-.08.74-.16,1.11-.24-.48-1.28-.96-2.57-1.44-3.85-1.38-1.25-2.77-2.5-4.15-3.75-.3-.74-.59-1.48-.89-2.22-.75-.68-1.49-1.36-2.24-2.03-.15.44-.31.88-.46,1.31.92.22,1.84.44,2.76.66Zm-80.11,2.08c.8,1.09,1.63,2.17,2.39,3.29.42.62.7,1.33,1.04,1.99.68-.57,1.62-1,2-1.72,1.53-2.91,2.88-5.91,4.72-9.75-4.12,1.73-8.58,1.31-10.08,6.27-1.03.66-2.07,1.31-3.1,1.97-3.48-.32-6.95-.63-10.78-.98-.28.98-.75,2.67-.92,3.28,2.8,2.74,5.05,4.94,7.31,7.15,3.76-1.61,5.15-4.5,4.33-8.54-.06-.32-.01-.66-.01-.99l3.09-1.97Zm106.99,2.02c1.63-.43,3.26-.87,5.54-1.47-.61,2.32-.96,3.65-1.32,5.04,3.19,1.08,4.34-.66,5.87-2.68,1.32-1.73,3.64-2.7,5.75-4.16-.84-.74-1.6-1.4-2.41-2.11,1.1-.53,1.91-.91,2.94-1.4-5.06-3.34-12.61.04-16.29,6.87-2.6-.41-5.19-1.08-7.8-1.11-1.13-.01-2.27,1.3-3.41,2,.6.78,1.13,1.63,1.83,2.32,1.79,1.77,3.65,3.47,5.52,5.24,3.36-2.88,3.57-3.32,3.77-8.54Zm-32.99,102.99c2.47-.52,5.07-.69,7.35-1.65,1.79-.76,3.08-2.62,4.76-3.74,2.68-1.79,3.06-3.81.84-5.68l.08.07c-1.15-.78-2.65-2.48-3.39-2.19-2.88,1.11-5.84,2.45-8.17,4.42-7.11,5.99-7.19,6.14-14.35,1.38-.43,2.21-.84,4.36-1.1,5.65,3.16,2.06,5.93,3.86,8.98,5.85.91-1.23,1.96-2.66,3.02-4.09.66,0,1.32,0,1.98,0Zm-29.04-72.98l-.07-.07c.38,1.59.76,3.19,1.14,4.78,1.06-.33,2.84-.41,3.06-1.04,1.11-3.16,3.75-4.32,6.25-5.93.97-.62,1.77-3.42,1.25-4.03-1.15-1.35-3.45-2.97-4.82-2.63-2.78.68-5.85,2.05-7.74,4.1-4.24,4.61-8.39,6.81-13.98,1.88-.69,2.23-1.21,3.91-1.44,4.63,2.92,2.74,5.33,5.01,8.02,7.54,1.52-1.69,4.66-3.83,4.34-5.07-1.14-4.37,1.46-3.97,3.99-4.16Zm84.14-61.95l.07.07c-.47-1.6-.95-3.19-1.42-4.79-1.43.64-2.85,1.29-4.29,1.92-1.46.64-3.18.98-4.34,1.98-1.45,1.25-3.77,3.52-3.41,4.48,1.13,3-.22,4.23-2.19,5.79-1.11.88-2.43,2.28-2.52,3.52-.3,4.37-2.99,6.59-6.18,8.99-1.61,1.21-2,4.03-2.94,6.13,1.99-.72,4.08-1.24,5.96-2.18,4.63-2.33,7.71-8.14,14.3-6.21.55.16,1.98-1.24,2.34-2.16.83-2.13,1.59-4.41,1.73-6.66.09-1.55-.91-3.17-1.66-5.47-.87,2.77-1.35,4.31-1.83,5.85-.99-7.48-.44-8.03,5.9-7.9.85.02,1.71-.75,2.56-1.15-.7-.73-1.39-1.46-2.09-2.18Zm-77.09,135.9c1.17,1.01,2.82,3,3.1-.33.62-7.38,3.09-10.45,10.3-12.03.56,1.38.9,3.68,1.69,3.85,1.31.28,3.08-.56,4.35-1.4,3.22-2.13,6.26-4.52,9.88-7.18-.48-.83-1.11-2.61-2.32-3.79-1.62-1.57-3.92-2.45-5.54-4.03-6.9-6.75-15.23-2.99-22.99-3.3-.37-.01-.74.63-1.15.88-1.05.64-2.12,1.24-3.19,1.85-.27-1.22-.53-2.44-.8-3.66-.21-.03-.42-.06-.62-.09-.25,1.73-.51,3.47-.76,5.2-.85,2.53-1.71,5.07-2.88,8.57,3.33-.91,5.76-.91,3.94-4.51-.63-1.25-.77-2.75-1.13-4.13,2.57.94,5.93.51,5.69,5.18-.14,2.75,2.3,2.92,4.74.78,1.03-.91,2.63-1.17,3.97-1.72.21.39.42.78.63,1.18-2.8,1.39-3.84,3.21-3.19,6.42.33,1.62-1.34,3.74-2.33,5.51-1.21,2.17-4.08,3.94-1.31,6.84l-.07-.07Zm-58.18-14.63c4.9-1.48,7.15,2.65,10.63,5.74,1.26-2.78,2.14-5.02,3.28-7.11.56-1.03,1.62-1.8,2.45-2.69.72.82,1.83,1.54,2.1,2.49.8,2.74,2.19,2.53,3.97,1.11,1.85-1.47,4.01-2.74,5.35-4.59.99-1.37,1.29-3.59,1.08-5.33-.09-.76-2.53-2.04-3.43-1.73-2.62.91-5.34,2.1-7.39,3.91-4.46,3.93-8.81,6.65-14.16,2.12-1.31,2.06-2.44,3.83-3.88,6.09Zm101.1-28.31c.2.38.4.75.6,1.13,5.15-1.28,10.55-1.89,15.03-5.17,1.02-.74,1.19-2.64,1.76-4-1.38-.08-3.13-.73-4.09-.12-3.28,2.07-6.37,2.04-9.88.66-2.4-.95-4.71-.45-5.84,2.99,1.7-.17,2.84-.29,4.47-.45-.84,2.04-1.45,3.51-2.05,4.98Zm49.71,10.92c.54-1.26.75-2.13,1.22-2.79.74-1.03,1.54-2.56,2.54-2.77,3.57-.73,2.98-2.38,2.69-5.39-.37-3.77-1.53-2.98-3.6-1.88-3.23,1.72-5.54,6.61-4.82,10.3.1.5.67.9,1.97,2.53Zm-119.78-44.36c-4.02,1.04-6.3,3.88-5.62,7.26.19.93,1.25,1.69,1.9,2.53.73-.75,1.85-1.39,2.12-2.28.71-2.32,1.04-4.76,1.59-7.5Zm130.32,20.21c-.34-.24-.69-.48-1.03-.72-1.21.74-2.77,1.24-3.55,2.3-.76,1.05-.88,2.67-.94,4.05-.02.43,1.39,1.42,1.57,1.29,1.15-.76,2.47-1.6,3.1-2.75.65-1.19.59-2.77.85-4.18Zm-116.69-65.32c.66-.55,1.32-1.1,1.98-1.65-1.18-1.15-2.33-2.36-3.61-3.39-.14-.11-1.09.79-1.67,1.21,1.1,1.28,2.2,2.55,3.3,3.83Zm13.76,109.9c-.08-.64-.16-1.28-.23-1.92-1.57.15-3.15.3-4.72.45.19.7.4,2.01.57,2.01,1.47-.04,2.92-.33,4.39-.54ZM159.84,40.61c-1.08,1.22-1.9,2.04-2.52,2.99-.07.1,1.18,1.46,1.49,1.34,1.09-.39,2.03-1.18,3.03-1.81-.52-.66-1.05-1.32-2-2.52Zm-83.91.29c-1.72-.59-2.73-1.23-3.67-1.15-.58.06-1.06,1.23-1.58,1.9.8.41,1.62,1.18,2.38,1.13.76-.05,1.47-.92,2.87-1.89Zm119.17,96.14c-.4-.16-.79-.31-1.19-.47-1.22,2.07-1.99,4.32-1.89,6.92.37.13.74.26,1.11.39.66-2.28,1.31-4.56,1.97-6.83ZM6.74,80.11c.07.63.15,1.25.22,1.88,1.63-.19,3.26-.37,4.89-.56-.07-.62-.15-1.24-.22-1.86-1.63.18-3.26.36-4.9.54Zm48.29,31.16c-.05-.71-.09-1.42-.14-2.12-1.39.12-2.78.24-4.18.37.07.59.09,1.67.21,1.68,1.36.12,2.74.08,4.11.08Zm-33.07,54.87c-.26-.64-.53-1.29-.79-1.93-1.14.51-2.28,1.02-3.42,1.53.2.4.46,1.18.6,1.16,1.21-.17,2.41-.48,3.61-.75ZM5.87,75.38c-1.07-.86-1.72-1.54-2.52-1.91-.18-.09-1.33,1.08-1.23,1.34.32.75.93,1.55,1.64,1.89.34.16,1.15-.69,2.11-1.31Zm39.98,39.92l-1.35.14c.28,1.71.57,3.41.85,5.12.38-.06.76-.11,1.14-.17-.21-1.7-.43-3.39-.64-5.09Zm79.6-10.59c-.51.06-1.01.12-1.52.18.14,1.43.27,2.86.41,4.3.44-.03.88-.06,1.33-.1-.07-1.46-.14-2.92-.22-4.37Zm-47.6,79.81c-.45.02-.9.05-1.36.07.26,1.91.52,3.82.79,5.72.19,0,.38,0,.57-.01v-5.78ZM153.78,49.92c.27.47.54.93.8,1.4.85-.52,1.7-1.05,2.55-1.57-.24-.38-.61-1.1-.69-1.07-.91.35-1.78.82-2.67,1.25Zm-16.68,115.83c.1.38.21.75.31,1.13,1.41-.48,2.83-.97,4.24-1.45l-.26-.86c-1.43.4-2.86.79-4.29,1.19Zm-39.45-59.41c-.33-.64-.54-1.04-.74-1.44-.5.32-1.22.55-1.41,1-.14.35.39.98.62,1.49.48-.33.97-.66,1.54-1.05Zm19.6-68.54c.39-.83.85-1.39.84-1.94,0-.32-.76-.62-1.18-.93-.24.55-.61,1.08-.67,1.65-.03.29.5.64,1.01,1.22Zm6.42,59.2c-.45.11-.9.22-1.35.34.46,1.2.92,2.4,1.37,3.6.34-.12.68-.25,1.03-.37-.35-1.19-.7-2.38-1.05-3.57Zm-18.16-20.57c-.09.49-.19.98-.28,1.47,1.17.19,2.34.38,3.5.58.07-.31.14-.62.21-.93-1.14-.37-2.29-.74-3.43-1.11Zm-16.17,75.82c.09.29.18.57.27.86,1.16-.36,2.32-.72,3.49-1.09l-.28-.84c-1.16.35-2.32.71-3.48,1.06Zm78.23-87.75c-.51-.36-.89-.83-1.18-.78-.36.06-.63.56-.95.88.3.29.61.84.89.82.37-.02.7-.49,1.24-.91Zm-68.13,32.03c.48-.99.83-1.4.82-1.81,0-.25-.53-.57-.87-.7-.14-.05-.62.33-.63.54-.02.34.21.69.68,1.97Zm20.09-15.15c.12.28.25.55.37.83.91-.26,1.82-.53,2.73-.79-.06-.24-.13-.47-.19-.71-.97.22-1.94.45-2.91.67Zm-51.48-38.87c-.27-.41-.44-.85-.59-.85-.41,0-.82.21-1.23.33.16.24.3.66.5.69.4.06.82-.1,1.32-.18Zm96.17,28.43c.5-.59.79-.93,1.08-1.27-.32-.24-.61-.57-.96-.69-.14-.04-.61.39-.61.61,0,.36.25.73.49,1.35Zm-.31,4.05c-.33-.34-.62-.65-.91-.96-.21.37-.64.79-.57,1.09.11.44.58.8.9,1.19.18-.4.36-.81.58-1.32Zm-41.63,113.15c-.37.27-.61.44-.85.61.28.33.52.71.86.97.07.06.7-.41.68-.47-.17-.39-.44-.74-.69-1.11Zm-23.94-87.32c-.18-.39-.31-.66-.43-.93-.4.19-.89.3-1.15.6-.11.13.29.68.46,1.04.38-.24.76-.48,1.12-.71Zm21.77-76.5c-.41.51-.67.85-.94,1.19.24.19.52.57.7.52.42-.1.78-.41,1.17-.64-.27-.31-.53-.61-.93-1.07Zm-23.73,170.05c.48-.89.84-1.27.85-1.66,0-.23-.51-.56-.84-.68-.13-.05-.6.33-.61.54-.02.33.21.68.61,1.81Zm63.04-72.37c-.07-.27-.13-.55-.2-.82-.73.28-1.46.56-2.19.85.08.22.15.45.23.67.72-.23,1.44-.46,2.16-.7ZM117.11,30.79c.5.42.76.78,1.12.9.17.06.71-.32.7-.47-.02-.38-.27-.75-.42-1.12-.38.19-.76.38-1.39.69ZM33.04,178.99c-.51,0-.94-.08-1.32.03-.19.06-.28.46-.41.71.42.07.85.21,1.26.16.15-.02.25-.47.47-.9Zm87.84-15.67c-.43-.31-.76-.66-1.17-.82-.17-.07-.49.25-.74.4.33.31.63.68,1.01.88.14.08.49-.25.9-.47ZM2.78,88.29c-.2.16-.56.32-.56.49,0,.23.26.47.4.71.21-.17.57-.33.58-.5.01-.22-.27-.46-.42-.7Zm165.78,57.11c-.08-.29-.16-.59-.24-.88-.24.2-.66.37-.69.59-.04.31.21.66.33,1,.2-.24.4-.47.59-.71ZM56.01,65.19c.18.2.34.42.55.58.05.04.38-.13.38-.2,0-.25-.09-.51-.15-.76-.26.12-.52.25-.78.37Zm34.77,55.69c-.28-.06-.55-.16-.83-.17-.07,0-.25.33-.22.36.17.2.39.35.6.51.15-.23.3-.47.45-.71Zm30.53,11.12c-.17-.36-.28-.59-.39-.83-.27.15-.63.23-.78.46-.13.2-.03.55-.03.84.4-.16.79-.31,1.2-.47Zm52.15-84.21c.1-.23.34-.57.26-.68-.13-.19-.49-.34-.71-.3-.14.03-.21.43-.31.67.25.1.5.2.76.31Zm-32.01,14.64c-.24-.05-.47-.13-.71-.12-.09,0-.26.3-.23.35.14.19.35.34.53.5.14-.24.27-.48.41-.73Zm30.97,65.27c-.11.07-.32.14-.32.2.01.29.08.59.13.88.11-.06.33-.13.33-.19-.02-.3-.09-.59-.14-.89ZM21.09,93.97h-.4c.07.2.14.4.22.6.11-.08.27-.14.3-.24.03-.11-.08-.25-.12-.36Zm33-24.04c-.13,0-.27.01-.4.02.07.21.15.41.22.62.11-.08.28-.15.31-.25.03-.11-.08-.26-.13-.39Zm62.06,92.11c-.2-.18-.38-.43-.62-.52-.08-.03-.31.31-.47.47.11.09.23.27.34.26.26-.02.5-.14.75-.22Zm-52.39-.77c-.15-.19-.3-.37-.45-.56-.09.26-.2.51-.24.77-.02.1.15.23.23.35.16-.19.31-.37.47-.56Zm111.66-44.67c.1-.24.2-.48.29-.72-.13-.01-.35-.08-.38-.03-.13.22-.21.47-.31.71.13.01.26.03.4.04Zm-118.07,91l.09.31.34-.19-.43-.12ZM144.38,52.52l-.19.33.28.05-.09-.39Zm-20.1,112.79c-.13-.24-.22-.41-.31-.58-.05.12-.17.28-.13.34.06.1.23.13.44.23Zm-26.86-14.75l-.2.23h.39s-.19-.23-.19-.23Zm59.01-60.05c.13.07.26.14.39.21.06-.13.2-.3.16-.38-.05-.11-.24-.15-.37-.22-.06.13-.12.26-.18.39ZM13.69,173.78c-.09-.13-.18-.26-.26-.39-.11.11-.3.21-.3.33,0,.12.15.26.24.38.11-.11.21-.22.33-.32Zm118.38-79.99c-.27.13-.46.23-.66.33.14.06.31.19.41.15.11-.05.15-.26.25-.48Zm-8.52,29.22v-.38c-.1,0-.21,0-.31,0,0,.13-.02.26.02.38,0,.03.19,0,.29,0Zm-38.11-67.99c.1-.08.2-.16.3-.24-.08-.1-.16-.19-.24-.29-.14.14-.27.28-.41.41.12.04.23.08.35.12Zm-3.59,97.7c-.23-.03-.46-.05-.7-.08.1.09.2.25.31.26.12.01.26-.11.38-.18Zm139.84-2.1c-.24.05-.38.08-.52.11.07.1.14.2.21.3.07-.1.15-.2.3-.41Zm-76.45-106.45l.14.27.14-.27h-.28Zm-34.44,116.72l.32-.15-.32-.15v.3Zm-8.92-10.06l.03-.27-.29.11.26.16Z"/><path d="m69.96,22.24c.9-1.12-.19-4.82,3.39-2.6.19.12,1.09-1.05,1.73-1.51.94-.67,1.95-1.24,3.74-2.37-1.26,7.09-6.62,9.52-10,13.48l.09.06v-4.13s-.06.12-.06.12c.89-.86,3.81-1.05,1.01-3.11l.08.06Z"/><path d="m41.87,41.19c-.35,2.09-.93,3.73-3.64,3.84-1.33.05-2.57,1.27-3.93,1.77-1.37.5-2.82.77-4.46.34,1.39-1.66,2.78-3.32,4.17-4.98,0,0-.07.08-.07.08,2.27,1.17,4.26.83,5.98-1.07l-.09.08c.7,0,1.4.01,2.1.02l-.07-.08Z"/><path d="m102.94,2.26c.72.29,1.44.58,2.16.87-.33.69-.48,1.8-1.01,2.01-2.92,1.2-5.93,2.18-9.22,3.34.57-5.18,5.15-4.73,8.17-6.28l-.1.06Z"/><path d="m26.54,46.89c-.35,5.05-1.37,5.69-10.87,6.1,4.14-2.32,7.36-4.13,10.87-6.1Z"/><path d="m86.02,11.34c1.31-1.22,2.61-2.45,4.89-4.58-.51,2.11-.42,3.85-1.18,4.37-.87.6-2.49.13-3.78.13,0,0,.07.08.07.08Z"/><path d="m48.11,63.13c0,1.17.06,2.34-.06,3.5-.02.18-.81.28-1.25.41-.24-1.22-.49-2.44-.73-3.66.68-.08,1.36-.17,2.04-.25Z"/><path d="m33.41,136.43c-1.7.73-3.39,1.45-5.09,2.18-.17-.33-.34-.67-.51-1,1.68-.9,3.36-1.81,5.04-2.71.19.51.37,1.03.56,1.54Z"/><path d="m37.83,131.79c-.33,1.27-.66,2.55-1,3.82-.5-.11-1-.23-1.51-.34.3-1.26.59-2.51.89-3.77.54.1,1.08.2,1.61.3Z"/><path d="m85.96,11.26l-4.92,3.26c-.2-.39-.39-.79-.59-1.18.99-2.59,3.54-1.73,5.58-2.01l-.07-.08Z"/><path d="m39.92,41.18h-2.87c0-.31-.02-.62-.03-.93h4.88l.03-.06c-.7.36-1.4.71-2.1,1.07l.09-.08Z"/><path d="m15.83,72.95c.39.55.66.93.93,1.31-.36.2-.79.64-1.05.55-.37-.13-.62-.64-.91-.99.31-.26.62-.52,1.03-.87Z"/><path d="m90.78,4.17c-1.96.33-3.93.66-5.89,1l.05.06c1.97-.33,3.94-.65,5.91-.98,0,0-.07-.08-.07-.08Z"/><path d="m33.95,129.28c1.5-.42,3-.84,4.51-1.26.03.28.07.55.1.83l-4.69.35.08.08Z"/><path d="m28.98,42.27c1.65-.98,3.29-2.09,4.95-.03l.07-.08c-1.7,0-3.4.02-5.1.03l.07.08Z"/><path d="m28.91,42.19c-.91.74-1.83,1.48-2.74,2.23-.16-.26-.33-.52-.49-.77,1.1-.46,2.2-.92,3.31-1.37l-.07-.08Z"/><path d="m16.29,70.75c-.26.12-.51.31-.77.33-.27.02-.56-.11-.84-.18.28-.18.55-.45.85-.5.22-.04.49.22.76.35Z"/><path d="m18.98,47.24c.96-.99,1.92-1.98,2.88-2.97l-.07-.07c-.96.99-1.92,1.98-2.88,2.97l.07.07Z"/><path d="m13.89,63.3c.75.06,1.49.11,2.24.17-.06.21-.11.41-.17.62-.67-.29-1.33-.58-2-.86,0,0-.07.07-.07.07Z"/><path d="m90.85,4.25c.27-.74.53-1.48.8-2.22l1.12,1.33c-.66.27-1.33.54-1.99.81,0,0,.07.08.07.08Z"/><path d="m145.86,35.21c.34,1.37.68,2.74,1.01,4.11l.08-.09c-.34-1.35-.68-2.7-1.02-4.06l-.08.03Z"/><path d="m30.73,130.1c-.61,1.02-1.23,2.05-1.84,3.07,0,0,.06.06.06.06.61-1.02,1.23-2.05,1.84-3.07,0,0-.06-.07-.06-.07Z"/><path d="m99.93,15.71c-.04-.13-.16-.31-.12-.39.06-.1.25-.12.38-.18.05.13.16.31.12.39-.05.1-.25.12-.39.18Z"/><path d="m33.87,130.21c-1.05-.04-2.09-.07-3.14-.11,0,0,.06.07.06.07,1.05-.3,2.1-.6,3.16-.9,0,0-.08-.08-.08-.08-.02.36-.04.71-.07,1.07l.06-.05Z"/><path d="m219.85,133.23l1.02,2.08.07-.08c-.34-.68-.68-1.36-1.02-2.04l-.08.04Z"/><path d="m13.83,51.25s.04.05.07.07c0,0-.07-.07-.07-.07Z"/><path d="m24.82,136.24s.05.05.07.07c0,0-.07-.07-.07-.07Z"/><path d="m20.86,140.16c.14-.21.28-.43.42-.64-.03.12-.02.26-.1.34-.1.11-.26.16-.39.24l.07.07Z"/><path d="m20.8,140.09c-.3.69-.59,1.39-.89,2.08l.07.07c.29-.7.59-1.39.88-2.09l-.07-.07Z"/><path d="m74.82,13.24c-.11.24-.21.47-.32.71.02-.12.01-.25.07-.34.07-.13.19-.23.29-.35,0,0-.04-.02-.04-.02Z"/><path d="m185.98,56.21c.31.69.61,1.39.92,2.08l.07-.08c-.38,0-.76,0-1.14,0l.08.09c.04-.72.09-1.43.13-2.15l-.07.06Z"/><path d="m10.96,55.18c-.37-.02-.75-.04-1.12-.06,0,0,.07.07.07.07.12-.24.24-.47.36-.71.2.26.41.52.61.79,0,0,.08-.08.08-.08Z"/><path d="m186.05,56.15l-.07.06.07-.06Z"/><path d="m9.83,55.12l.07.07-.07-.07Z"/><path d="m18.9,143.3c.36-.35.72-.7,1.08-1.05l-.07-.07c-.36.35-.71.71-1.07,1.06,0,0,.07.07.07.07Z"/><path d="m24.89,136.31c.32-.35.64-.71.95-1.06,0,0-.06-.05-.06-.05-.32.35-.64.69-.96,1.04,0,0,.07.07.07.07Z"/><path d="m25.84,135.25l-.06-.05.06.05Z"/><path d="m13.97,63.23l-.07.07.07-.07Z"/><path d="m28.89,133.18s.06.06.06.06c0,0-.06-.06-.06-.06Z"/><path d="m33.81,130.27l.06-.05-.06.05Z"/><path d="m213.81,122.22c.36.36.71.73,1.07,1.09l.04-.09c-.34-.35-.69-.7-1.03-1.05l-.09.05Z"/><path d="m13.9,51.32c.32-.36.64-.72.96-1.07,0,0-.06-.03-.06-.03-.32.35-.64.69-.97,1.04,0,0,.07.07.07.07Z"/><path d="m17.96,193.23c-.36-.36-.71-.71-1.07-1.07l-.04.09c.34.34.68.68,1.03,1.02l.09-.04Z"/><polygon points="81.88 205.18 81.69 205.01 81.81 205.24 81.88 205.18"/><path d="m82.98,206.24c-.37-.35-.73-.71-1.1-1.06l-.07.06c.37.35.73.71,1.1,1.06,0,0,.07-.06.07-.06Z"/><path d="m14.85,50.25l-.06-.03.06.03Z"/><path d="m17.82,48.25l.07.07-.07-.07Z"/><path d="m17.89,48.31c.36-.36.73-.72,1.09-1.07,0,0-.07-.07-.07-.07-.36.36-.73.72-1.09,1.08,0,0,.07.07.07.07Z"/><path d="m7.96,108.23c-.33-.34-.66-.68-.99-1.02l-.09.05c.33.34.67.68,1,1.02,0,0,.08-.05.08-.05Z"/><path d="m21.87,44.27l-.07-.07.07.07Z"/><path d="m6.96,107.2c-.36-.34-.71-.69-1.07-1.03,0,0-.05.09-.05.09.34.33.69.67,1.03,1l.09-.05Z"/><path d="m68.91,23.29c.35-.35.7-.7,1.05-1.05,0,0-.08-.06-.08-.06-.34.34-.68.69-1.02,1.03,0,0,.05.08.05.08Z"/><polygon points="74.86 13.26 74.98 13.14 74.82 13.24 74.86 13.26"/><path d="m80.82,9.23l.07.07-.07-.07Z"/><path d="m80.89,9.3c.31-.36.63-.72.94-1.08h-.06c-.32.33-.64.67-.95,1.02l.07.07Z"/><polygon points="81.83 8.22 81.95 8.12 81.77 8.21 81.83 8.22"/><path d="m84.89,5.17s.05.06.05.06c0,0-.05-.06-.05-.06Z"/><polygon points="7.9 58.29 8.01 58.13 7.82 58.22 7.9 58.29"/><path d="m81.87,71.2c1.36,0,2.72,0,4.07,0-.34,1.36-.68,2.72-1.01,4.08-4.18-1.82-7.09,2.11-10.66,3.06l-.82-1.61c2.81-1.84,5.61-3.69,8.42-5.53Z"/><path d="m46.86,99.37c1.08-1.93,2.16-3.87,3.62-6.48,1.78,3.2-2.34,6.25,1.66,7.79-.62.77-1.16,2.12-1.86,2.2-2.48.29-3.58-1.16-3.36-3.62l-.06.1Z"/><path d="m88.75,96.93c.49-1.49.98-2.98,1.85-5.64,1.05,1.87,2.35,3.17,2.09,3.96-.35,1.06-1.9,1.72-2.94,2.56-.33-.29-.67-.58-1-.88Z"/><path d="m67.52,80.07c.5-1.41,1-2.82,1.5-4.23.5.15,1.01.29,1.51.44-.37,1.45-.73,2.9-1.1,4.36-.64-.19-1.27-.38-1.91-.56Z"/><path d="m65.05,81.76c-1.36.29-2.72.57-4.08.86-.1-.37-.2-.74-.31-1.11,1.41-.48,2.82-.96,4.23-1.45.05.57.11,1.13.16,1.7Z"/><path d="m59.66,103.28c.48.43.79.71,1.1.98-.37.22-.72.53-1.11.61-.22.05-.52-.29-.78-.45.23-.33.46-.67.79-1.15Z"/><path d="m80.32,84.81c-.23.13-.46.27-.68.4-.03-.25-.1-.5-.08-.74,0-.08.31-.23.34-.19.17.15.29.35.42.54Z"/><path d="m58.17,100.14c-.06.11-.09.29-.17.32-.09.03-.22-.09-.34-.14.06-.11.09-.3.17-.32.09-.03.23.09.34.15Z"/><path d="m58.83,87.25l.07-.07-.07.07Z"/><path d="m163.97,55.26c-.22.08-.43.17-.65.25.1-.05.2-.12.31-.14.13-.03.27-.03.41-.04l-.07-.07Z"/><path d="m79.83,117.22c.22-.09.44-.18.66-.27-.1.05-.2.13-.31.16-.13.03-.28.03-.42.04l.07.07Z"/><path d="m108.91,190.28c-.69,0-1.37,0-2.06,0,.03-.33-.06-.75.11-.97.81-1.03,1.64-2.06,2.6-2.95.12-.12.99.56,1.51.87-.72,1.02-1.44,2.04-2.16,3.06Z"/><path d="m121.83,179.12c-.17.41-.34.82-.5,1.23.19-.39.39-.77.58-1.16l-.08-.07Z"/></svg>