<?xml version="1.0" encoding="UTF-8"?><svg id="Layer_1" xmlns="http://www.w3.org/2000/svg" viewBox="0 0 204.64 223.96"><path d="m179.69,156.35c.67-4.29,1.34-8.58,2.01-12.88-.46-.23-.92-.47-1.38-.7-3.47,4.62-7.04,9.17-10.36,13.89-1.88,2.68-3.44,5.61-4.98,8.52-1.13,2.14-1.89,4.48-3.03,6.61-1.38,2.57-2.92,5.07-4.55,7.5-1,1.5-2.26,2.83-3.45,4.2-4.27,4.91-8.41,9.94-12.9,14.65-3.29,3.44-6.85,6.69-10.65,9.54-2.45,1.83-5.51,2.88-8.37,4.12-3.79,1.63-7.53,3.95-11.49,4.46-6.52.83-13.44,2.33-19.45-2.31-1.04-.8-2.23-1.42-3.37-2.09-3.78-2.22-7.23-4.43-7.06-9.8.06-1.88-1.91-3.82-2.96-5.73,0,0,.05.08.05.08-.05-.37-.09-.74-.14-1.11.78-.14,1.57-.29,2.35-.43-.1-.25-.19-.49-.29-.74-.67.42-1.33.83-2,1.25-2.01.68-4.03,1.35-6.04,2.03l.04-.06c-2.35.7-4.69,1.4-7.04,2.09-1.78-1.85-3.32-1.81-7.6.67,2.57-.26,5.13-.51,7.7-.77-3.85,1.29-7.69,3.74-11.6.1-.18-.17-.7-.16-.97-.04-5.86,2.64-13.03,2.86-16.1,10.36-2.2,5.38-6.39,7.26-11.62,6.43-1.35-.21-3.53-1.05-3.69-1.91-.83-4.31-3.45-8.15-1.97-13.13,1.57-5.29,5.11-8.5,8.87-11.83l.12.14c-1.01,1.85-1.59,4.24-3.11,5.46-6.16,4.94-3.61,11.27-3.24,17.28.02.3.21.66.44.88.8.75,1.65,1.44,2.48,2.15.41-.52,1.06-.99,1.18-1.57.29-1.39.33-2.83.55-4.98-.39.13.41-.03,1.1-.4,3.88-2.04,4.09-3.95,1.03-6.9-.75-.72-.98-1.98-1.45-3l-.07.07c.84-.38,2.19-1.3,2.45-1.06,3.33,3.15,4.48.27,5.91-1.97.41-.64.84-1.26,1.26-1.89.33.09.67.18,1,.26-.27,1.86-.54,3.72-.88,6.1,3.75-2.82,6.9-5.19,10.05-7.55,1.45.75,3.29,1.67,4.65-1.72.27-.66,1.66-.87,2.53-1.29l-.07-.1c.39,1.05.78,2.1,1.16,3.15l-.06-.07c.65.11,1.52.54,1.93.28,4.03-2.61,8.51-3.29,13.17-3.35.42,0,.83-.4,1.24-.62l-.32-.81c-1.17-.21-2.34-.43-3.52-.64-.02-.41-.04-.82-.06-1.24,1.96-.27,4.12-1.18,5.85-.67,3.11.92,5.1.24,6.75-2.37.33-.51.94-1.05,1.51-1.17,5.2-1.12,5.2-6.86,8.56-9.63.42-.34.26-1.58.12-2.36-.71-3.82-1.5-7.63-2.27-11.44l.07.07c-4.31-1.54-7.1-7.2-12-4.9-1.74-1.76-2.9-3.94-4.45-4.26-2.76-.57-5.75-.02-8.64.06l.08.07c-2.75-2.08-5.59-3.5-9.22-2.17-.64.23-2.28-.43-2.41-.94-.87-3.45-3.08-2.57-5.44-2.15-.95.17-2.06-.6-3.1-.94.53-.79,1.07-1.59,1.86-2.77-1.85-.17-3.23-.3-4.94-.45.5-1.78.89-3.18,1.28-4.59l-.06.06c-.18-2.15-.22-4.33-.6-6.45-.22-1.23-.96-2.36-1.47-3.53-1.03.63-2.12,1.16-3.06,1.9-1.11.88-2.09,1.93-3.13,2.9-.13-.2-.25-.4-.38-.61.79-2.5,1.57-4.99,2.49-7.92,5.67,1.16,9.25-2.97,12.01-6.2,2.71.43,4.71.69,6.67,1.08,3.75.75,8.1-3.69,11.37,1.3.11.17.65.14.96.08,4.93-.89,9.86-1.81,15.15-2.78,1.52,3.83,4.12,5.68,8.67,3.52,1.32-.63,3.44-.4,4.88.19,3.16,1.31,6.1,3.14,9.18,4.67.71.36,1.6.35,2.4.56,1.85.49,3.69,1.03,5.54,1.51,6.31,1.62,12.41,5.05,19.24,2.2.23-.1.61.16,1.13.31-.18.9-.37,1.81-.52,2.57,2.81,0,5.64.22,8.43-.05,4.02-.38,7.92-.54,11.78-2.93,1.79-1.11,4.49-.64,5.1-3.69.48-2.38,1.83-4.83,1.52-7.07-.87-6.35-4.82-10.53-10.86-12.61-7.73-2.67-13.54-7.8-18.56-14.03-1.3-1.61-3.05-3.91-.69-5.01,3.55-1.65,6.65-3.53,9.13-6.53.22-.27,1.32-.14,1.76.16,3.93,2.71,6.18.42,8.87-2.32,2.07-2.11,4.92-4.21,7.67-4.59,1.4-.19,2.82.07,3.28-1.26.48-1.38.78-3.95.1-4.41-2.51-1.68-1.12-3.3-.8-5.2.37-2.14.08-4.4.08-6.94,4.97.78.88-2.25.66-3.89l-.05.09c7.24,3.94,8.68,10.61,8.83,18.09.18,9.69-7.33,12.56-14.03,15.84-4.12,2.02-8.78,2.93-13.39,4.39,3.63,5.33,8.72,7.37,13.67,9.62-.29.15-.59.28-.86.46-.07.05-.02.26-.02.4.27-.31.53-.63.8-.94,4.2,2.07,7.53,5.11,10.03,9.06-.2.99-.4,1.99-.61,2.98.37.02.75.04,1.12.06-.2-1.04-.41-2.08-.61-3.12.78,1.37,2.24,2.75,2.22,4.11-.07,4.98-.64,9.96-1.05,15.34.68-.37,1.56-.6,2.08-1.16,10.38-11.03,21.84-11.99,33.96-1.06,3.38,3.05,4.01,5.98,3.76,9.96-.24,3.75.14,7.54-.1,11.29-.16,2.43-.67,4.93-1.51,7.21-1.36,3.69-3.53,7.12-4.64,10.87-2.48,8.41-4.51,16.94-6.72,25.43-.09.24-.18.49-.27.73.07-.27.14-.54.21-.81.07,7.91,5.25,13.4,9.23,19.45,4.09,6.22,1.16,14.95-5.46,15.34-2.98.17-6.44-.7-9.03-2.22-6.83-4.03-12.59-9.19-13.54-17.84-.31-2.82-.69-5.63-1.04-8.45l-.09-.08c.83,1.14,1.7,2.25,2.46,3.43.36.56.79,1.3.71,1.89-.78,5.89-.81,5.89,5.54,7.48-5.29,3.05-1.99,5.3.3,7.62.92.93,1.99,1.72,3,2.58l-.07-.08c2.53,4.36,7.34.77,10.57,2.91.07.05,2.15-1.92,2.03-2.79-.34-2.66-.37-5.7-4.66-5.74-1.51-.01-4.47-2.68-4.26-3.26,1.48-4.19-1.19-5.68-4.33-7.04.92-1.36,1.6-2.37,2.54-3.77-1.75-.46-3.03-.8-3.37-.89-.51-2.46-.37-5.23-1.3-5.65-2.55-1.16-1.52-2.32-.93-3.91,1.79-4.75,3.48-9.53,5.13-14.34.25-.72.31-1.79-.05-2.38-1.45-2.36.09-3.62,1.1-5.61,1.74-3.43,7.07-6.45,2.68-11.46-.24-.27.02-1.3.37-1.71,1.83-2.19,3.76-4.3,5.84-6.65-1.46-.5-2.74-.93-4.96-1.68,4.57-1.93,7.27-3.98,3.61-8.12-.33-.37-.11-1.3-.02-1.95.37-2.77.15-5.17-2.43-7.09-.73-.54-.51-2.57-.42-3.9.07-.99.63-1.94.98-2.9-.29-.24-.58-.49-.87-.73-1.56,1.1-3.13,2.19-5.34,3.74.69-2.08,1.11-3.34,1.47-4.41-5.69-1.95-9.79,1.18-14.14,3.4-.36.36-.73.72-1.09,1.08-1,1-2,2-3,3-2.35,1.99-4.7,3.99-7.06,5.98-.15-3.59-2.08-.94-2.67-.54-8.04,5.38-16.07,10.57-26.7,6.78-.55,2.13-1.03,4.03-1.53,5.93-.69,2.62-1.39,5.23-2.08,7.85l-.37-3.31c-.19.02-.38.04-.57.06-.32,1.06-.64,2.12-.96,3.18-.36.36-.73.72-1.09,1.09-.07.12-.15.23-.22.35.05-.14.1-.28.16-.42l1.1-1.08c.68.01,1.37.02,2.05.03-2.07,3.53-4.1,7.07-6.22,10.56-.85,1.39-1.82,2.72-2.87,3.97-4.6,5.51-9.32,10.92-13.84,16.49-1.92,2.36-3.6,4.94-5.09,7.59-.46.81-.23,2.35.27,3.23.33.6,1.74,1.01,2.55.86,2.25-.44,4.96-.61,6.56-1.98,6.1-5.19,15.47-5.99,19.23-14.28.14-.3.9-.32,1.37-.47-.44.69-1.27,1.39-1.25,2.08.12,4.94-5.02,6.04-6.88,9.52-.07.13-1.26-.35-1.92-.54.4-.36.81-.72,1.21-1.08-.2-.14-.41-.27-.61-.41-.17.52-.34,1.04-.51,1.56-1.01.29-2.03.57-3.04.86l.06-.07c-6.45,3.37-12.89,6.74-19.33,10.1.08-6.03-.47-6.5-5.76-5.02l.06.06c-.78-.73-2.03-2.23-2.27-2.08-2.09,1.29-4.3,2.61-5.88,4.44-1.41,1.63-2.06,3.9-3.05,5.89.45.22.9.44,1.35.66.61-1.3,1.22-2.6,1.84-3.9l-.06.06c4.05,1.47,1.15,3.39.31,5.15-.25.53-.7.96-1.19,1.61,1.43.98,2.57,1.77,3.84,2.64.49-1.96.88-3.51,1.44-5.77,3.45,4.87,6.72,3.61,9.59.36.63,1.89.86,4.55,1.74,4.78,1.42.38,3.29-.76,4.92-1.38,4.13-1.58,8.78-2.29,11.15-6.87.28-.55,1.86-.38,2.8-.65.94-.27,1.98-.47,2.73-1.04,3.23-2.45,6.35-5.05,9.56-7.54.47-.37,1.3-.79,1.73-.62,3.31,1.32,4.95-1.14,6.71-2.99,2.37-2.48,4.68-5.07,6.65-7.88.62-.89.06-2.61.04-3.95l.06.06c.26-.96.53-1.92.79-2.88,3.15.95,3.48-1.53,4.31-3.49,1.09-2.55,2.18-5.11,3.46-7.57,1.34-2.58,2.92-5.03,4.34-7.58.71-1.28,1.21-2.67,1.95-3.93,1.72-2.91,3.4-5.85,5.34-8.6,1.36-1.92,1.87-5.02,5.55-4.29,1.78.35,2.27-.71,2.32-2.74.03-1.38,1.81-3.48,3.2-3.9,2.09-.62,4.53.02,6.82.02,2.23,0,3.93.8,2.91,3.2-1.76,4.13,1.03,9.81-4.38,12.72-.51.27-.59,1.5-.71,2.31-.37,2.56-.66,5.14-.98,7.71,0,0,.09.04.09.04-.71-.36-1.42-.71-2.13-1.07,0,0,.07.03.07.03Zm-29-79.93l-.07-.07.07.07Zm8.01,27l-.11-.14.14.1-.03.04Zm41,116.89l.07.07-.07-.07Zm-.02-9.99l.16.18-.23-.1-.1-.23.18.16Zm-2-3.02l-.06.06c-.33-.34-.66-.68-1-1.02-.31-.68-.61-1.36-.92-2.04-.7-.94-1.4-1.89-2.1-2.83-.3-.69-.6-1.39-.9-2.08l.07-.07c.3.7.59,1.4.89,2.09.7.94,1.4,1.88,2.1,2.82.31.68.61,1.36.92,2.03.33.34.66.69.99,1.03Zm-58.96-8.96l.06.04-.06-.04Zm59.03-74.98l.07-.07.08.24-.15-.18Zm-104.08,60.91c.34-.33.67-.65,1.01-.98.1-.22.21-.44.31-.67-.08.25-.17.49-.25.74-.34.33-.67.65-1.01.98l-.07-.07Zm17.09-8.89l.18-.27-.11.34-.07-.07Zm8.89-11.08c.07-.08.14-.16.21-.24-.04.1-.09.21-.13.31l-.19.16s.12-.23.12-.23Zm45.97-3.04l.08.07-.12.14.04-.21Zm2.12-2.89c.1-.12.23-.23.3-.37.05-.1.02-.24.03-.37-.09.26-.18.51-.27.77l-.06-.03Zm-76.07,54.1l-.09-.17.1.11c.21.09.42.18.63.27l-.64-.22Zm-54.93-6.11l.19-.75c-.04.28-.08.55-.11.83l-.3.05s.23-.13.23-.13Zm81.84-70.93c.12.05.25.12.38.16.09.03.19.02.28.03-.24-.04-.49-.08-.73-.12l-.62-.46.69.39Zm28.11,54c-.12.1-.27.17-.36.29-.06.09-.05.23-.07.35.13-.23.26-.47.38-.7,0,0,.05.06.05.06Zm-56.88-.92c-.25.14-.51.28-.76.42.23-.16.45-.33.68-.49.05-.24.11-.49.16-.73-.03.27-.05.54-.08.8Zm53.87,4.92c-.32.31-.65.62-.97.93.17.1.35.21.52.31.13-.44.26-.87.39-1.31l.07.07Zm48.91-13.19c.33-1.01.66-2.01.99-3.02.28-.67.57-1.34.85-2.01-.18-.05-.36-.11-.54-.16-.08.75-.16,1.49-.24,2.24-.33,1.01-.66,2.01-.99,3.02l-.23.72c.05-.26.1-.52.16-.78Zm-81.87,34.21c-.83.06-1.66.11-2.49.17.05.24.09.47.14.71.76-.31,1.53-.63,2.29-.94l.06.06Zm-.05-82.02s.07-.07.07-.07c.48.46.96.92,1.44,1.37.14-.2.27-.4.41-.6-.64-.24-1.28-.47-1.92-.71Zm19.11,74.1c-.94.3-1.88.59-2.82.89l.36.78c.81-.58,1.61-1.16,2.42-1.75l.04.08Zm-46-81.23c-.14-.08-.27-.18-.41-.24-.1-.04-.22-.03-.34-.04.27.07.55.14.82.21.89.29,1.78.59,2.66.88.03-.13.07-.27.1-.4-.95-.14-1.89-.27-2.84-.41Zm-51.05,87.05c.62-.75,1.24-1.49,1.86-2.24-.28-.16-.56-.31-.83-.47-.32.93-.64,1.86-.96,2.79l-.07-.08Zm127.01-39.9c-1.02,1.62-2.04,3.24-3.05,4.85,0,0-.06-.07-.06-.07l3.04-4.85c.13-.1.28-.17.37-.3.06-.09.03-.24.04-.36-.11.24-.23.49-.34.73Zm-57.06-1.04s.07-.07.07-.07c-.69,1.14-1.38,2.29-2.07,3.43.59.18,1.18.35,1.76.53.08-1.29.16-2.59.23-3.88Zm.02,44.01c-2.28-.46-4.55-.93-6.83-1.39-.05.44-.09.88-.14,1.32h6.89l.16-.11-.09.18Zm-33.01-78.13c3.58,1.59,5.29-1.27,7.49-3.69,1.82,3.54,3.74,4.4,7.04,1.98,1.62-1.18,4.63-1.41,6.68-.84,3.33.92,4.9-.95,7.11-2.49-.57-.52-.79-.9-1.06-.94-9.7-1.24-19.41-2.48-29.12-3.66-4.9-.6-6.6,1.31-6.13,6.71-.74-3.16-1.48-6.32-2.35-10.02-4.15.99-8.81,1.9-13.32,3.3-1.49.46-3.86,2.63-3.64,3.28,1.18,3.48,2.2,7.96,4.86,9.8,4.91,3.39,10.67,5.65,17.06,5.94,6.95.32,13.47,2,19.04,6.99,3.56,3.19,8.2,5.16,12.36,7.68,4.51,8.41,3.37,9.57,9.11,3.17.17-.19.59-.15.57-.15.77,1.23,1.48,2.37,2.2,3.5,1.02-1.14,2.79-2.19,2.93-3.43.41-3.61,2.44-5.53,5.28-7.33,1.29-.82,2.72-2.72,2.69-4.11-.09-3.89,1.52-6.66,4.17-9.19.75-.72,1.04-1.93,1.54-2.92-.97-.48-1.89-1.09-2.9-1.42-1.71-.56-3.45-1.06-5.22-1.38-1.57-.28-3.19-.28-4.79-.4,1.33,1.03,2.65,2.06,4.11,3.19-4.59-.26-5.48,3.03-5.83,6.77-.64-.09-1.28-.19-1.92-.28,0-.67,0-1.35,0-2.02.35-.87.7-1.73,1.27-3.12-1.89.19-3.39.13-4.76.52-7.73,2.19-15.59,2.83-23.62,2.68-8.53-.16-14.68-3.93-18.92-11.15,2.88,0,5.83-.09,5.07,4.25.65-.04,1.29-.08,1.94-.13.36-.36.72-.72,1.08-1.08Zm130.56,15.06c.56.19,1.13.37,1.69.56.46-2.6.92-5.2,1.38-7.8-.4-.07-.8-.15-1.2-.22-.62,2.49-1.25,4.97-1.87,7.46Zm-124.66-8.61c.05-.4.1-.8.15-1.2-1.54-.64-3.08-1.27-4.63-1.91-.17.44-.33.88-.5,1.33,1.66.59,3.31,1.19,4.97,1.78Zm108.37-7.21v-1.15h-3.56v1.15h3.56Zm18.66-3.94c.42-.09.84-.19,1.25-.28-.53-1.67-1.05-3.34-1.58-5.01-.4.13-.8.26-1.19.39.51,1.63,1.01,3.27,1.52,4.9Zm-97.16,2.69c.08-.43.15-.87.23-1.3-.95-.23-1.9-.48-2.86-.64-.04,0-.22.78-.33,1.2.99.25,1.98.49,2.96.74Zm-7.4,7.27c.04.23.08.46.12.7,1.11-.16,2.22-.33,3.33-.49-.05-.27-.09-.55-.14-.82-1.1.21-2.21.41-3.31.62Zm53.45,42.23c-.25-.13-.51-.26-.76-.39-.37.74-.73,1.47-1.1,2.21.24.12.48.23.72.35.38-.72.76-1.45,1.15-2.17Zm24.56-37.85c-.2-.23-.4-.57-.47-.55-.26.09-.57.26-.69.49-.1.19.04.5.07.76.36-.23.72-.47,1.09-.71Zm-87.25-2.67c-.87-.54-1.13-.83-1.32-.79-.46.11-.89.37-1.33.57.66.06,1.32.11,2.65.22Zm7.62,24.53c-.12-.21-.23-.42-.35-.63-.06.32-.17.64-.15.95.02.21.22.41.35.62.06-.31.11-.62.16-.94Zm12.26-28.59c-.45-.14-.8-.38-.97-.28-.36.21-.64.58-.95.88.28.1.62.34.83.26.38-.16.67-.51,1.09-.85Zm-6.46,47.56c.14-.49.33-.93.36-1.38.01-.15-.37-.33-.58-.5-.18.44-.4.86-.49,1.31-.02.12.39.32.71.57Zm-20.82-44.33c-.09.22-.18.44-.26.66.16.03.36.13.48.07.24-.11.45-.3.67-.46-.3-.09-.59-.18-.89-.27Zm80.15-15.28c.19.15.38.29.56.43.08-.13.24-.26.23-.38-.03-.24-.15-.47-.23-.71-.18.22-.37.43-.56.65Zm-21.93,11c.19-.14.38-.27.57-.41-.26-.08-.51-.18-.78-.21-.11-.01-.24.13-.36.2.19.14.38.28.57.42Zm-74.18-15.49c.26.1.51.21.77.29.02,0,.11-.2.17-.31-.26-.11-.51-.23-.77-.32-.02,0-.11.22-.17.34Zm83.01-38.7c-.26-.15-.46-.31-.69-.39-.13-.04-.3.04-.45.06.08.18.15.51.23.51.28,0,.56-.1.91-.18Zm-22.16,51.77c-.13,0-.26-.03-.39-.01-.03,0-.03.17-.04.26.13,0,.26.03.39,0,.03,0,.03-.17.04-.26Zm-29.11,37.68c-.08.1-.21.2-.22.3-.01.12.08.25.13.37.08-.1.21-.2.22-.31.01-.12-.08-.24-.13-.37Zm98.93-7.85l.17-.25-.25-.05.08.3Z"/><path d="m86.63,36.28c3.03-1.65,6.07-3.29,9.1-4.94l-.07.03c.42,1.49.83,2.98,1.26,4.46.62,2.16,1.79,2.97,3.85,1.52l-.06.06q1.9-.16,1.95,3.02c1.94.18,4.1-.15,5.74.62,8.4,3.93,17.09,6.35,26.41,6.43,1.17,0,2.39.84,3.5,1.46,2.96,1.64,5.89,3.36,8.8,5.08,1.58.94,3.11,1.96,4.66,2.94-1.03,1.11-2.06,2.22-3.1,3.33-.3.72-.6,1.45-.9,2.17-.16,0-.33-.02-.48.02-.12.03-.22.13-.33.2.25-.1.49-.19.74-.29.3-.73.6-1.45.89-2.18.39,1.05.79,2.1,1.18,3.15l-.07-.07c.32.75,1.1,1.95.88,2.17-1.27,1.28-2.24,3.69-4.77,1.95-.09-.96.18-2.39-.35-2.81-2.52-1.99-5.25-3.71-8.23-5.74-.41,1.51-.78,2.41-.87,3.33-.17,1.73-.17,3.48-.24,5.22,1.74-.08,3.48-.21,5.23-.21,1.52,0,3.04.16,4.56.26-1.74,1.36-3.48,2.71-5.21,4.08-1.39,1.1-2.87,2.76-2.97-.87,0-.35-1.55-1.14-1.94-.92-1.11.61-2,1.64-2.98,2.5,0,0,.08-.06.08-.06-3.38,1.05-6.76,2.1-10.14,3.15-.35.35-.71.71-1.06,1.06-.96,3.39-5.17,5.41-4.47,10.54,1.2-1.72,1.85-2.66,2.5-3.59.33.17.65.33.98.5-.99,1.74,1.06,4.29-2.46,5.6-.67.25-.3,3.64-.12,5.55.03.3,1.64.47,2.53.64.51.1,1.42-.08,1.52.14,1.25,2.85,2.39,5.74,3.55,8.63-3.16-2.85-6.31-5.69-9.01-8.13-5.29,4.41-10.44,8.71-15.58,13,0,.35,0,.7,0,1.05,7.25-1.89,12.74,1.82,18.46,4.84,1.65.87,3.44,1.47,5.17,2.19-3.11-.29-6.22-.59-9.96-.94-2.88-4.94-6.96-6.44-13.96-4.44-.91.26-2.45.92-2.67.62-3.42-4.54-8.92-3.53-13.38-5.21l.07.08c-2.14-.39-4.27-.97-6.43-1.12-2.56-.18-5.15,0-7.73.03l.07-.07c-.05.34-.09.68-.14,1.02l.06-.06c-1.41-.94-2.82-1.88-4.23-2.82,1.07-.29,2.18-.47,3.19-.88,1.54-.63,3.76-1.03,4.37-2.21,1.78-3.44,4.85-3.72,7.91-4.98,2.58-1.07,3.63-5.6,6.21-6.92,5.62-2.87,9.38-7.91,14.58-11.15-.43.99-.62,2.24-1.34,2.92-5.31,5.02-10.71,9.93-16.11,14.85-.85.77-1.81,1.92-2.78,1.98-4.32.26-6.63,3.11-8.85,6.21l-.05-.07c4.04.08,8.07.16,12.11.23l-.08-.07c2.89,3.04,3.56,3.03,6.2-.14l-.07.07c1.49-.89,3.63-1.43,4.34-2.74,1.16-2.15,2.48-2.96,4.84-3.47,4.93-1.08,7.88-4.56,9.35-9.37.41-1.33.79-3.2,1.78-3.74,3.76-2.05,5.58-5.37,7.28-9.03,1.16-2.5,2.5-5.23,4.53-6.97,4.34-3.72,4.85-8.33.35-11.59-1.92-1.39-4.37-2.05-6.59-3.05-.32,2.17-.64,4.35-.96,6.52-.02.16-.04.33-.07.49,0,0,.08-.07.08-.07-1.43,1.47-3.22,2.73-4.21,4.45-1.57,2.71-2.62,5.73-3.89,8.62,0,0,.05,0,.05,0-1.67.68-3.35,1.35-5.02,2.03.89-.93,1.84-1.81,2.65-2.81,1.52-1.87,3.12-3.71,4.39-5.74,1.34-2.13,2.72-4.37,3.37-6.76.6-2.19.89-4.88.12-6.9-.74-1.93-2.79-4.11-5.55-2.97-6.46,2.68-14.38,2.6-18.52,9.86-.72,1.27-2.66,1.86-4.06,2.73-1.1.69-2.53,1.08-3.31,2.03-4.76,5.77-9.37,11.67-14.02,17.52-.44-.48-.88-.97-1.31-1.45-1.23,1.47-2.47,2.94-3.7,4.41l-.03-.07c1.71-1,3.42-2,5.13-3-4.38,5.39-8.76,10.77-13.14,16.16.01-.67.03-1.35.04-2.02.08-.25.16-.51.24-.76-.05.27-.11.55-.16.82-1.13,1.06-3.96,1.24-2.03,3.9-1.44.97-2.88,1.95-4.31,2.92l1.03,1.44c5.26-2.73,10.66-2.59,16.13-1.3-2.12,1.59-4.06,2.68-6.99,1.21-1.49-.75-3.8.1-5.74.3-2.03.21-4.1.34-6.07.81-3.81.91-8.02.65-11.16,3.64,0,0,.06-.06.06-.06-2.68,2-5.35,4.01-8.03,6.01l.08.08c.3-1.1,1.61-2.36-1.11-2.42-3.88-.1-7.93-.29-10.88-3.45-3.55-3.8-7.91-7.19-10.29-11.63-2.69-5-.91-10.86.52-16.26.67-2.54,1.54-5.02,2.31-7.53.05-.16,0-.35.07-.49,2.79-5.74,5.58-11.47,8.37-17.21,0,0-.08-.08-.08-.08-.3,1.68-.6,3.37-.9,5.05l-.21.16.14-.23c.67.88,1.35,1.75,2.02,2.63-4.12-.37-2.63,4.6-5.36,5.68-.68.27-1.53,2.07-1.37,2.23,2.31,2.28-.05,3.27-1.03,4.83-1.47,2.35-3.06,4.83-3.64,7.46-.43,1.93.69,4.2,1.28,7.13-2.45,2.84-2.57,5.35.54,8.89,1.07,1.22,2.43,2.2,3.65,3.3,0,0-.08-.07-.08-.07.8,1.18,1.59,2.35,2.49,3.68,1.44-1.98,1.01-4.62,4.87-1.87,3.24,2.31,9.22,1.79,13.7.96,2.38-.44,4.15-4.2,6.2-6.45.91-1.01,1.72-2.67,2.79-2.86,2.41-.44,3.15-1.78,3.81-3.85.69-2.14,1.45-4.33,4.9-3.33,1.82.53,3.96-.5,2.88-3.55-.3-.86.37-2.2.87-3.19,3.6-7.22,11.64-10.91,14.19-19.44,1.26-4.23,6.86-7.21,10.58-10.67,4.34-4.03,12.2-3.3,13.43-10.08,2,.64,3.83,1.85,4.66,1.36,2.26-1.33,1.47-3.27,0-5.03-1.62-1.93-3.11-3.97-5.04-6.44-.91.76-2.1,1.75-3.29,2.74l.09-.07c-1.02.06-2.04.11-3.05.17l-.13-.16Zm-26.91,56.16l-.22.1s.15-.17.15-.17c.36-.35.71-.71,1.07-1.06.1-.1.23-.19.31-.31.05-.08.03-.21.03-.32-.09.23-.18.47-.26.7-.36.35-.72.7-1.07,1.06Zm53.01,4.98c-.33.35-.66.7-.99,1.06-.98.63-1.96,1.27-2.95,1.9l-1.1,1.03c-1.41.94-2.82,1.89-4.23,2.83.34.36.69.73,1.03,1.09,1.04-1.33,2.09-2.66,3.13-3.98.36-.34.73-.69,1.09-1.03.98-.64,1.96-1.28,2.94-1.91.33-.35.66-.7.99-1.05l.28-.23-.2.3Zm-13.05,9.98c-.33.35-.66.7-.99,1.06l-.15.08.08-.15c.33-.34.67-.69,1-1.03l.06.05Zm-20.95-40.07c.32-.34.65-.69.97-1.03.33-.34.66-.68,1-1.02,0,0,.07.07.07.07-.33.34-.67.68-1,1.02-.33.34-.65.68-.98,1.02,0,0-.06-.05-.06-.05Zm39-16.96l-.13-.11.17.1s-.04,0-.04,0Zm-44.94,25.05c.28-.73.56-1.45.84-2.18.1-.09.22-.17.3-.28.05-.08.04-.2.06-.3-.09.22-.19.43-.28.65-.28.73-.57,1.46-.85,2.19l-.82.37c.25-.15.5-.31.74-.46Zm-50.1,35l.06-.06.11,1.2c.08-.11.26-.25.24-.32-.1-.29-.26-.55-.4-.82Zm110.92-43.2c.13-.45.27-.9.4-1.35-.11.47-.22.95-.33,1.42-.11.12-.24.23-.32.36-.05.1-.03.23-.04.35.09-.26.19-.52.28-.79Zm-43.28-7.83c-.27-.36-.54-.71-.81-1.07-1.68,1.17-3.36,2.35-5.04,3.52l.61.92c1.75-1.12,3.49-2.25,5.24-3.37Zm7.69-6.33c-.05.26-.11.53-.16.79.15-.03.39-.02.43-.1.1-.25.12-.53.18-.79-.15.04-.29.07-.44.1Z"/><path d="m198.68,3.41c5.02,3.19,5.52,4.25,4.07,8.65-1.75,5.33-5.27,7.56-9.92,7.81-5.92.32-11.92-1.27-17.84,1.06-1.88.74-4.5-.68-6.76-.6-9.24.31-18.57-.17-27.53,2.92-.89.31-1.96.08-2.92.23-6.85,1.06-13.69,2.15-20.53,3.28-.41.07-.74.61-1.94,1.64,2.69,1.47,5.01,2.72,7.32,3.98l.08-.08c-4.11-1.02-6.03,2.75-8.17,4.09-1.45-3.19-2.85-6.01-4-8.93-.61-1.55-1.53-3.65-.95-4.84.85-1.75,1.8-4.54,5.18-3.29.91.34,2.42-.68,3.56-1.25,2.44-1.22,4.73-2.83,7.27-3.75,2.44-.88,6.05-.21,7.51-1.76,3.19-3.38,7.04-1.38,10.4-2.47,1.72-.56,3.67-.41,5.77-.6.41.47,1.78,2.55,2.13,2.39,3.03-1.4,5.66-.49,8.48.57.77.29,2.07-.79,3.11-1.29,1.11-.53,2.2-1.11,3.41-1.72.29,1.39.48,2.31.54,2.63,2.75-1.34,5.2-2.54,7.66-3.74,0,0,.07-.07.07-.07-.73,1.14-1.46,2.27-2.19,3.41,1.51.34,3.07,1.1,4.52.92,1.7-.22,3.48-2.08,4.9-1.77,4.12.9,6.21-2.6,9.38-3.64.95-.31,1.66-1.36,2.48-2.07.35,1.09.69,2.17,1.07,3.36,1.81-.61,3.64-1.24,5.56-1.89-.55-1.09-1.11-2.2-1.67-3.3,0,0-.06.09-.06.09Zm-24.8,16.01c-.26.09-.53.19-.79.29.15.19.29.51.46.53.25.03.53-.15.8-.24-.15-.19-.31-.37-.47-.57Zm-47.09,4.65c.15-.06.3-.11.45-.17-.13-.09-.28-.27-.37-.25-.2.06-.38.22-.56.34.16.02.32.05.49.07Zm12.51-1.97c.11-.07.22-.14.33-.21-.09-.09-.23-.27-.26-.25-.16.09-.29.23-.43.35.12.03.24.07.36.1Z"/><path d="m9.68,17.4c3.53-1.83,6.56-.89,9.72,1.22,2.67,1.78,5.65,3.25,8.68,4.32,8.21,2.91,11.69,9.05,12.59,17.23.18,1.63.77,3.21,1.09,4.83.79,3.95.57,7.7-1.33,11.44-1.59,3.13-2.52,6.6-3.74,9.91-.14-.79-.28-1.57-.61-3.4-.71,2.19-1.07,3.26-1.42,4.34-.65,1.34-1.31,2.69-1.96,4.03l-.04-.06c.64-1.35,1.28-2.69,1.92-4.04.73-.32,1.46-.65,2.19-.97-2.87,6.09-5.94,12.1-8.48,18.33-.75,1.84.01,4.3.08,6.48,1.48-.43,3.01-.75,4.45-1.32,7.22-2.86,10.58-9.33,14.47-15.39,2.23-3.48,4.93-6.66,7.42-9.97l-.05-.08c-.35,1.02-.7,2.04-1.06,3.06l.06-.04c-.44,1.94-1.27,3.9-1.22,5.83.07,3.11-1,4.82-4.07,5.61-1.03.27-1.76,1.68-2.62,2.56-.35.35-.69.71-1.04,1.06-1.35,1.34-2.69,2.69-4.04,4.03-1.68,1.38-3.95,2.44-4.93,4.21-1.95,3.54-1.66,3.7-4.05,3.76-.99-1.91-1.98-1.68-2.98,0-1.58-.09-3.17-.32-4.74-.22-2.09.14-4.16.53-6.24.82,5.2-5.05,5.99-8.99.01-12.6,2.66-3.99,5.39-7.94,7.93-12,1.2-1.91,2.79-4.01,2.87-6.08.16-4.27,1.23-8.56,3.81-10.9,3.06-2.76,3.39-7.21,1.06-10.72-1.24-1.87-2.29-3.94-3.06-6.06-.87-2.39-.68-6.56-2.07-7.1-3.7-1.44-.52-3-.51-3.25-3.64-2.51-6.76-4.3-9.44-6.61-2.68-2.31-4.69-2.58-6.62.62l.07.07c-.69-1.02-1.38-2.04-2.07-3.06l-.04.08Zm18.01,65l-.15.13s.08-.2.08-.2c.37-.34.73-.68,1.1-1.01l1.05-2.84c.07-.22.15-.44.22-.66-.05.25-.1.49-.15.74-.35.94-.7,1.89-1.05,2.83-.37.34-.73.68-1.1,1.01Zm12.04-28.08c.28-.96.56-1.92.85-2.88-.2-.04-.39-.08-.59-.12-.07,1.02-.13,2.05-.2,3.07l-.06-.06Zm10.78,19.73c-.22-.34-.38-.59-.54-.84-.34.29-.82.53-.98.9-.09.2.37.63.58.96.32-.34.64-.69.94-1.02Zm-11.36-35.54l.21-.31-.31-.06.11.37Zm-13.13,50.57l.17.37.17-.37h-.34Z"/><path d="m29.75,188.4c4.72-4.77,10.74-6.32,17.14-7.25,2.52-.37,4.91-1.66,7.36-2.52.93-.33,2.19-1.17,2.77-.84,4.5,2.55,8.86-.63,13.29-.13,2.61.3,5.4-.21,5.78-3.26.38-3.11-2.19-3.56-4.8-4.29-3.76-1.05-7.25-3.04-10.85-4.65-1.05-.47-2.32-1.68-3.08-1.4-7.06,2.54-12.42-1.92-18.31-4.16-2.14-.81-4.33-1.51-6.39-2.5-1.3-.62-2.72-1.44-3.51-2.58-4.33-6.23-7.76-12.98-8.53-20.6-.61-6.03.93-11.77,5.01-16.49.67-.77,2.06-.92,3.11-1.35,0,0-.08-.08-.08-.08-.75.82-1.5,1.63-2.25,2.46-4.72,5.19-4.69,10.26.07,13.99-4.64,4.1-4.74,5.6-.8,11.56-.06.24-.12.48-.17.73.03-.26.07-.52.1-.79.69.72,1.38,1.44,2.08,2.15,0,0-.07-.07-.07-.07,2.1-.34,4.2-.69,6.68-1.09-1.14,1.97-2.35,4.06-3.56,6.15-.38.01-.77.02-1.15.03-.25-.38-.5-.76-.75-1.14.28.35.56.7.83,1.05.24.23.48.47.72.7.09-.24.18-.48.27-.73,1.87-.06,3.74-.09,5.6-.2.9-.05,2.54-.53,2.59-.37,1.5,4.28,4.78,2.29,7.52,2.29,1.03,0,2.22.19,3.04.73,2.34,1.54,4.42,3.49,6.83,4.89.92.53,3.17.48,3.61-.14,3.16-4.56,7.63-.37,8.09.55,2.48,5.02,4.59,1.51,6.11.61,1.29.99,2.4,1.57,3.11,2.47.72.91,1.04,2.14,1.54,3.23h-6.68c2.3,2.49,3.76,4.07,5.21,5.64.46-.12.92-.23,1.39-.35v-5.37c1.88.73,3.87,1.31,3.04,4.12-2.2,7.42-5.22,9.76-12.97,9.88l.06.07c-3.02-.67-5.78,3.39-8.97.54-.03-.02-.8.93-1.32,1.28-.94.63-2.2,1.84-2.9,1.6-3.18-1.11-6.16-.26-9.3-.11-4.11.2-7.34,1.65-10.56,3.73-.35,0-.71,0-1.06,0l-4.98,1.91s.08.08.08.08Zm26.12-8.71c-.12.04-.27.05-.35.13-.04.04.05.21.08.32.12-.04.27-.05.35-.13.04-.04-.05-.21-.08-.32Z"/><path d="m17.73,57.4c.64-2.17,1.08-4.44,1.98-6.51,1.81-4.17,1.15-7.49-2.83-9.78-2.98-1.72-6.27-2.95-9.51-4.14C1.24,34.74-1.39,29.54.71,23.39l-.07-.07c.37,1.58-.54,4.95,3.03,2.15.21-.17,1.44.36,1.48.67.38,2.76,1.65,2.88,3.78,1.62.42-.25,1.4.21,2.02.53,1.56.81,3.07,1.73,4.73,2.69-.78,3.81-.63,3.9,6.13,3.21-.24,1.47-.47,2.85-.69,4.23.28-.17.57-.34.85-.52,1.24,1.32,2.9,2.44,3.62,3.99,1.09,2.38,1.04,4.73-1.93,6.29-1.18.62-1.91,2.2-2.7,3.44-1.18,1.86-2.22,3.8-3.32,5.71l.08.08Zm-9.96-22.06c-.12-.1-.24-.22-.37-.29-.1-.05-.23-.04-.34-.06.26.09.53.18.79.28.09.1.17.21.27.29.07.06.18.08.28.11-.21-.11-.41-.22-.62-.33Zm7.9,3.09l.08-.07c.65.32,1.29.63,1.94.95l-.07.08c-.65-.32-1.29-.63-1.94-.95Zm7.73,4.56c-.43-.51-.74-.92-1.12-1.26-.04-.03-.65.35-.63.49.08.57.3,1.12.46,1.68.33-.23.66-.47,1.28-.91Z"/><path d="m54.72,64.39c1.73-2.79,3.45-5.58,5.2-8.35.35-.56.73-1.14,1.22-1.56,4.75-4.1,9.49-8.22,14.35-12.19.79-.65,2.15-.61,3.25-.89,0,0-.05-.08-.05-.08-.79.9-1.59,1.8-2.38,2.7l.42.57c1.71-.68,3.42-1.36,5.12-2.03.26.27.52.54.77.81-6.11,3.63-12.96,6.61-14.07,14.65.34-2.56.69-5.13,1.03-7.69l.18-.08-.12.09c-4.61,2.69-8.27,6.34-10.98,10.94,0,0-.02-.07-.02-.07,2.05-.35,4.1-.7,6.14-1.05-3.47,1.38-5.71,6.11-10.12,4.14,0,0,.05.08.05.08Zm18.97-17.97c-.47.12-.93.25-1.4.37l.37.6c.32-.35.64-.7.96-1.05,0,0,.07.07.07.07Z"/><path d="m133.75,3.39c6.46-.82,12.9-1.72,19.37-2.42,4.45-.48,8.94-.86,13.41-.92,7.91-.12,15.83.01,23.75.13.46,0,.9.8,1.36,1.23,0,0,.08-.1.08-.1-2.74,1.42-4.45,5.78-9.04,2.99,1.32-.6,2.33-1.05,3.69-1.67-.83-.62-1.2-1.13-1.57-1.13-6.28-.11-12.56-.31-18.83-.15-4.35.11-8.82.19-12.98,1.28-5.09,1.33-10.55-1.71-15.31,1.66l.08.08c-1.36-.35-2.72-.69-4.07-1.04,0,0,.08.07.08.07Z"/><path d="m171.74,195.43c-2.27-14.03,1.2-26.89,7.95-39.08l-.07-.03c.71.36,1.42.71,2.13,1.07l-.09-.04c-4.04,4.36-5.54,9.8-6.4,15.46-.44,2.88-.54,5.81-.94,8.69-.48,3.39-1.1,6.76-1.72,10.13-.23,1.26-.63,2.48-.96,3.72l.09.08Z"/><path d="m122.64,32.39c7.02,2.65,14.04,5.31,21.07,7.96l-.02.02c-3.42-.42-8.21.4-9.96-1.54-3.09-3.41-5-2.18-7.78-.64-.45.25-1.44-.46-2.18-.73l.06.1c2.67-2.38-.58-3.53-1.1-5.25l-.08.08Z"/><path d="m108.75,10.39c6.45-4.19,13.51-6.21,21.22-6.07,1.26.02,2.52-.61,3.79-.94l-.08-.07c-1.38.71-2.69,1.75-4.15,2.06-4.48.95-9.04,1.48-13.51,2.45-2.51.54-4.9,1.64-7.34,2.49,0,0,.08.07.08.07Z"/><path d="m95.73,31.34c.02-2.91-.46-5.95.21-8.7.63-2.57,2.47-4.85,3.78-7.25,0,0-.06-.07-.06-.07l-.92,5.04s-.16.14-.16.14c0,0,.08-.21.08-.21,1.41-.26,2.82-.51,4.23-.77,0,0-.08-.06-.08-.06-.4.97-.8,1.95-1.2,2.92l.07-.06c-3.43.58-6.76,1.23-5.08,6.08l.06-.06-1.01,3.04s.07-.03.07-.03Z"/><path d="m143.71,40.35c1.09.35,2.19,1.01,3.28,1,4.16-.01,5.47,2.44,5.66,6.05l.08-.09c-1.28-.24-4.31,1.77-2.75-2.24.18-.45-1.67-2.44-2.31-2.32-2.28.45-3.4-.33-3.99-2.38l.02-.02Z"/><path d="m99.72,15.39c1.69-4.05,6.14-3.11,9.03-5l-.08-.07c-1.98,1.7-3.96,3.4-5.94,5.1-.36,0-.71-.01-1.07-.02-.67-.03-1.33-.05-2-.08l.06.07Z"/><path d="m78.73,41.4c2.63-1.71,5.27-3.41,7.9-5.12l.13.16c-1.89,2.95-4.54,4.65-8.08,4.88l.05.08Z"/><path d="m152.65,47.4c2.76-.51,4.81.4,6.02,3l.05-.09c-2.2-.6-5.16.32-5.99-3.01l-.08.09Z"/><path d="m191.64,1.41c2.75-.75,5.3-.81,7.04,2l.06-.09-7.02-2.01-.08.1Z"/><path d="m2.72,19.37c1.51-3.53,4.03-3.45,6.96-1.97,0,0,.04-.08.04-.08-2.35.67-4.71,1.34-7.06,2.01,0,0,.06.04.06.04Z"/><path d="m77.69,196.32c-1.71,2.09-3.65,2.84-6.03,1.01l-.04.06c2.04-.33,4.08-.66,6.11-.99l-.05-.08Z"/><path d="m1.74,22.4c.33-1.01.65-2.02.98-3.03,0,0-.06-.04-.06-.04-.33,1-.66,2.01-.99,3.01,0,0,.07.06.07.06Z"/><path d="m27.65,189.3c.7-.3,1.4-.6,2.1-.9,0,0-.08-.08-.08-.08-.63.37-1.27.75-1.9,1.12l-.12-.14Z"/><path d="m.71,23.39c.34-.33.68-.66,1.02-.99,0,0-.07-.06-.07-.06-.34.33-.68.65-1.02.98l.07.07Z"/><path d="m125.64,118.32c4.85.35,9.7.88,14.55.94,1.78.02,3.57-1.09,6.19-1.97-7.68-4.79-14.22-8.87-20.76-12.96,2.4.38,4.79.77,7.19,1.13,1.09.16,2.21.14,3.28.38,1.6.36,3.28.67,4.73,1.39,1.87.91,3.49,2.32,5.33,3.3,2.89,1.53,3.44,4.82,1.24,7.26-1.01,1.12-1.46,2.79-2.55,3.8-1.07.99-2.59,1.6-4.02,2.02-.21.06-.99-1.8-1.7-3.13-1.2.23-2.78.54-4.36.85l.07-.04c-.86.28-1.73.56-2.59.84-.2-5.64-3.4-2.04-5.52-1.79l.07.07c-.38-.7-.77-1.4-1.15-2.1Zm18.02-4.84l.02-.07c.11.07.22.15.33.2.09.04.19.04.29.05-.21-.06-.43-.12-.64-.19Zm-5.68-4.66c-.25.44-.5.87-.76,1.31.96.61,1.91,1.23,2.87,1.84.29-.51.58-1.02.87-1.53-.99-.54-1.98-1.08-2.98-1.63Z"/><path d="m53.67,189.32c2-.81,4.01-1.61,6.19-2.49-1,3.8-1.55,3.98-6.26,2.4,0,0,.07.1.07.1Z"/><path d="m33.87,138.64c.81-1.2,1.62-2.39,2.43-3.59.48.33.96.66,1.44,1-.83,1.18-1.67,2.36-2.5,3.53l-1.36-.94Z"/><path d="m26,140.78l3.23-.17c.02.37.05.74.07,1.12-1.08.07-2.16.13-3.23.2-.02-.38-.05-.76-.07-1.14Z"/><path d="m121.65,76.34c.34-.35.69-.69,1.03-1.04.32.66.63,1.32.95,1.98-.66-.31-1.32-.63-1.97-.94Z"/><path d="m120.61,125.52c-.45.17-.85.38-1.28.45-.11.02-.3-.44-.45-.67.4-.2.78-.44,1.2-.58.07-.02.29.43.52.8Z"/><path d="m128.74,102.64c-.27.07-.56.24-.79.18-.14-.04-.17-.44-.25-.68.27-.07.56-.25.79-.18.14.04.18.44.26.69Z"/><path d="m132.82,72.26c.05.74.11,1.48.16,2.22-.16-.02-.31-.03-.47-.05.13-.74.26-1.49.39-2.23,0,0-.08.06-.08.06Z"/><path d="m44.55,111.23c-.56.49-1.12.99-1.68,1.48-.09-.13-.19-.26-.28-.39.67-.34,1.35-.68,2.02-1.02,0,0-.07-.08-.07-.08Z"/><path d="m126.72,120.34l-1.82,2.08-.59-.69c.83-.44,1.65-.88,2.48-1.32,0,0-.07-.07-.07-.07Z"/><path d="m123.76,37.46c-.55.21-1.1.42-1.65.63.01-.43.02-.86.04-1.28.56.25,1.11.5,1.67.75,0,0-.06-.1-.06-.1Z"/><path d="m84.79,107.42l-2.65,1.36c-.08-.26-.17-.53-.25-.79.99-.17,1.98-.33,2.97-.5,0,0-.07-.08-.07-.08Z"/><path d="m163.76,6.99c.08.22.14.36.19.49-.14.05-.27.1-.41.15.07-.19.13-.39.22-.65Z"/><path d="m46.79,108.36c.05-.12.11-.24.16-.36.22.14.44.26.64.42.03.02-.09.23-.15.35-.22-.14-.44-.27-.65-.41Z"/><path d="m137.67,4.28c-.25.38-.49.77-.74,1.15.27-.36.54-.71.82-1.07l-.08-.08Z"/><path d="m102.89,19.52c-.08-.44-.16-.88-.24-1.32.13-.01.25-.03.38-.04-.07.43-.14.86-.22,1.3,0,0,.08.06.08.06Z"/><path d="m44.62,111.31c.47-.23.93-.46,1.4-.68.05.2.1.41.15.61h-1.61s.07.08.07.08Z"/><path d="m99.76,27.37c.2-.25.39-.52.62-.75.07-.07.26-.02.39-.02-.36.23-.72.46-1.08.69,0,0,.08.08.08.08Z"/><path d="m27.77,194.37c.62,0,1.24,0,1.86,0l.07-.06c-.67,0-1.34,0-2,0l.07.08Z"/><path d="m110.64,13.36c-.09.21-.18.41-.27.62.02-.09.03-.2.08-.27.07-.11.17-.19.26-.29,0,0-.06-.06-.06-.06Z"/><path d="m59.75,152.35c.19-.11.38-.21.57-.32-.08.06-.16.14-.26.17-.12.04-.25.05-.38.08l.07.07Z"/><path d="m59.68,152.28l.07.07-.07-.07Z"/><path d="m87.69,158.29l.07.07-.07-.07Z"/><path d="m62.66,149.27l.08.07-.08-.07Z"/><path d="m27.69,146.42l-.07-.07.07.07Z"/><path d="m68.7,179.31l.06.07-.06-.07Z"/><path d="m40.78,135.33l-.06.06.06-.06Z"/><path d="m34.62,186.34h1.14c-.38,0-.76,0-1.14,0Z"/><path d="m30.72,191.28l-.07.07.07-.07Z"/><path d="m30.64,191.35l.07-.07-.07.07Z"/><path d="m119.69,119.42l.06-.06-.06.06Z"/><path d="m27.69,194.3l.07.08-.07-.08Z"/><path d="m29.63,194.36l.07-.06-.07.06Z"/><path d="m26.76,198.36l-.07.07.07-.07Z"/><path d="m119.76,119.36s-.06.06-.06.06.06-.06.06-.06Z"/><path d="m124.64,117.31c.37.37.74.74,1.11,1.11-.37-.37-.74-.74-1.11-1.11Z"/><path d="m36.63,110.37s.06-.06.06-.06c0,0-.06.06-.06.06Z"/><path d="m67.63,109.35l.07.07-.07-.07Z"/><path d="m67.7,109.43l-.07-.07.07.07Z"/><path d="m70.64,107.35s.06-.06.06-.06c0,0-.06.06-.06.06Z"/><path d="m100.76,37.36l-1.02-.99-.06.06c.34.33.68.66,1.02,1l.06-.06Z"/><path d="m99.75,36.36s-.06.06-.06.06c0,0,.06-.06.06-.06Z"/><path d="m96.6,28.4l.06-.06-.06.06Z"/><polygon points="99.68 27.29 99.57 27.49 99.76 27.37 99.68 27.29"/><path d="m101.61,22.38l.07-.06-.07.06Z"/><path d="m101.62,15.34c.38,0,.76,0,1.14,0-.38,0-.76,0-1.14,0Z"/><path d="m110.7,13.42s-.06-.06-.06-.06c0,0,.06.06.06.06Z"/><path d="m174.63,8.37l.07-.07-.07.07Z"/><path d="m138.63,168.38c.87-1.73,1.62-3.53,2.63-5.16,6.23-10.02,12.51-20.01,18.82-29.98.3-.47,1.1-.63,1.67-.93-1.29,2.05-2.66,4.06-3.85,6.18-.87,1.56-1.5,3.26-2.24,4.9l.09-.08c-.37.37-.73.73-1.1,1.1,0,0,.04-.08.04-.08-.68,1.01-1.36,2.02-2.04,3.03,0,0,.07-.07.07-.07-2,3.67-4,7.34-6,11.02l.04.08h-1.13s.04-.07.04-.07c-1.01,1.99-2.02,3.97-3.03,5.96-.04.25-.07.5-.11.76l.03-.83c1.66,3.79.84,4.66-3.93,4.18Z"/><path d="m137.88,183.56c.97-1.27,1.93-2.53,2.9-3.8.74,2.59.81,4.68-1.97,4.78l-.92-.99Z"/><path d="m103.99,201.54c.94-1.32,1.89-2.63,2.83-3.95l1.31.94c-.98,1.35-1.96,2.7-2.94,4.04-.4-.35-.8-.69-1.21-1.04Z"/><path d="m130.63,178.4c2.03-2.7,4.07-5.4,6.1-8.1-.37,1.04-.74,2.08-1.11,3.12l.07-.09c-.33.66-.67,1.33-1,1.99l.08-.07c-1.38,1.05-2.76,2.1-4.14,3.15Z"/><path d="m141.8,174.22c-.7.06-1.39.13-2.09.19l.07-.07c-1.36-.34-2.73-.67-4.09-1.01l-.07.09c2.1-.18,4.39-1.72,6.09.87l.08-.07Z"/><path d="m134.69,175.32c2.74,1.81.95,3.83.08,5.82v-5.89l-.08.07Z"/><path d="m155.66,143.39c.93.1,1.86.2,2.79.3-.02.36-.03.72-.04,1.07-1.24-.15-2.48-.29-3.71-.44l-.04.08c.37-.37.73-.73,1.1-1.1l-.09.08Z"/><path d="m161.75,138.38c-.43.58-.85,1.15-1.28,1.73-.2-.15-.4-.29-.59-.44.42-.58.85-1.15,1.27-1.73.2.15.4.3.6.44Z"/><path d="m183.65,218.35c.76-.48,1.52-.95,2.29-1.43l.46,1.02c-.94.11-1.88.22-2.82.33,0,0,.07.08.07.08Z"/><path d="m157.02,155.55c-.14.05-.32.18-.42.14-.1-.04-.12-.26-.17-.4.14-.05.32-.18.41-.14.1.05.12.26.17.4Z"/><path d="m173.63,131.36l-.88.91c.32-.28.63-.56.95-.84l-.07-.07Z"/><path d="m171.65,123.34c.35-.35.7-.7,1.05-1.05-.35.71-.7,1.41-1.04,2.12,0-.36,0-.71,0-1.07Z"/><path d="m136.65,170.42c.7-.7,1.4-1.4,2.1-2.1-.7.7-1.4,1.4-2.1,2.1Z"/><path d="m117.71,190.29c.07.12.15.25.22.37-.05-.15-.1-.29-.16-.44l-.06.07Z"/><path d="m146.72,158.3c-.35,0-.7,0-1.05,0,0,0-.04.07-.04.07h1.13s-.04-.07-.04-.07Z"/><path d="m152.64,147.35l.07-.07-.07.07Z"/><path d="m141.72,174.29c.3.36.61.72.91,1.08l.06-.06c-.33,0-.67-.01-1-.02l.06.06c.02-.38.03-.75.05-1.13l-.08.07Z"/><path d="m141.69,175.29s.06.06.06.06c0,0-.06-.06-.06-.06Z"/><path d="m142.63,175.37s.06-.06.06-.06-.06.06-.06.06Z"/><path d="m146.69,176.29s.06.06.06.06c0,0-.06-.06-.06-.06Z"/><path d="m173.7,131.43l-.07-.07.07.07Z"/><path d="m168.63,126.34c.38,0,.75,0,1.13,0-.38,0-.75,0-1.13,0Z"/><path d="m169.65,126.41c.37-.37.73-.73,1.1-1.1-.37.37-.73.73-1.1,1.1Z"/><path d="m170.64,125.41c.37-.37.73-.73,1.1-1.1-.37.37-.73.73-1.1,1.1Z"/><path d="m92.69,195.29s.06.06.06.06c0,0-.06-.06-.06-.06Z"/><path d="m84.73,200.38l-.06.06.06-.06Z"/><path d="m106.73,147.3c-.04,1.67-.07,3.35-.11,5.02l-.07-.07c-1.97.38-3.95.76-5.92,1.15,2.03-2.03,4.07-4.06,6.1-6.1Z"/><path d="m100.73,153.3c-1.17,1.97.68,5.46-3.09,6.1,1.03-2.03,2.06-4.07,3.09-6.1Z"/><path d="m97.75,159.31c-.7.7-1.4,1.39-2.1,2.09.7-.7,1.4-1.39,2.1-2.09Z"/><path d="m107.73,145.3c0,.7,0,1.4,0,2.1-.36,0-.72,0-1.09,0,.36-.7.72-1.4,1.08-2.11Z"/><path d="m108.77,152.31c3.9,1.63.36,3.11.29,4.66-.4-.04-.79-.07-1.19-.11.32-1.55.65-3.09.97-4.64l-.07.08Z"/><path d="m117.63,144.35l-.76,2.05c-.13-.06-.27-.12-.4-.18.41-.6.81-1.2,1.22-1.81l-.06-.07Z"/><path d="m106.62,152.32c.72,0,1.43,0,2.15,0l.07-.08c-.76,0-1.53.01-2.29.02l.07.07Z"/><path d="m117.69,144.41l-.06-.07.06.07Z"/><path d="m68.71,137.29c0,.38,0,.76,0,1.13,0-.38,0-.76,0-1.13Z"/><path d="m69.76,137.38c-.38,0-.75,0-1.13,0,.38,0,.75,0,1.13,0Z"/><path d="m44.67,82.32c.36,0,.72,0,1.08,0-1.02,2.22-.98,5.78-5.12,4.02,1.35-1.34,2.7-2.69,4.04-4.03Z"/><path d="m28.66,94.32c1.03,0,2.06,0,3.09,0-.91.75-1.83,1.49-2.74,2.24-.12-.75-.23-1.5-.35-2.25Z"/><path d="m89.72,36.35c.58.46,1.15.92,1.73,1.38-.28.12-.56.25-.84.37-.26-.61-.53-1.22-.79-1.83,0,0-.09.07-.09.07Z"/><path d="m32.69,104.3c-.61-.29-1.22-.58-1.82-.86l.27-.35c.49.43.99.86,1.48,1.29l.07-.07Z"/><path d="m30.18,44.33c-.1.21-.12.4-.22.44-.08.04-.25-.08-.38-.13.18-.09.36-.19.6-.32Z"/><path d="m12.76,104.44c.1-.25.2-.5.3-.75,0,.13.04.28-.02.37-.08.13-.24.21-.36.32l.08.07Z"/><path d="m53.61,67.37l.06-.04-.06.04Z"/><path d="m32.62,104.37l.07-.07-.07.07Z"/><path d="m11.72,20.31l.07.07-.07-.07Z"/><path d="m45.68,82.42v-1.14c0,.38,0,.76,0,1.14Z"/><path d="m53.64,101.41c.7-.7,1.4-1.4,2.1-2.1-.7.7-1.4,1.4-2.1,2.1Z"/><path d="m103.73,76.29c-.36.71-.71,1.42-1.07,2.13.36-.71.71-1.42,1.07-2.13Z"/><path d="m102.48,92.03c.88-.95,1.75-1.91,2.63-2.86.3.35.92.92.86,1-.74,1.05-1.58,2.02-2.4,3.01-.36-.38-.73-.77-1.09-1.15Z"/><path d="m95.54,93.25c-.62.68-1.24,1.35-1.86,2.03,0,0,.06.06.06.06.62-.67,1.25-1.35,1.87-2.02,0,0-.07-.07-.07-.07Z"/><path d="m91.85,104.24c-.72.02-1.44.04-2.16.05l.07.07c.67-.02,1.35-.04,2.02-.05l.07-.07Z"/><path d="m95.61,93.32c.21-.08.42-.16.62-.24-.1.04-.2.1-.3.12-.13.03-.26.04-.39.05,0,0,.07.07.07.07Z"/><path d="m116.63,61.37l.08-.07-.08.07Z"/><path d="m89.69,104.29l.07.07-.07-.07Z"/><path d="m85.73,104.45l-.08-.07.08.07Z"/><path d="m93.68,95.28l.06.06-.06-.06Z"/><polygon points="108.61 74.36 108.78 74.46 108.66 74.36 108.61 74.36"/></svg>