<?xml version="1.0" encoding="UTF-8"?><svg id="Layer_1" xmlns="http://www.w3.org/2000/svg" viewBox="0 0 490.19 501.06"><path d="m418.15,234.11c.74-2.88,3.58-2.95,5.61-3.86.99-.44,3,.2,3.91,1.03,2.26,2.07,4.8,3.96,6.11,6.92.51,1.15.57,2-.26,3.1-1.66,2.2-4.09,2.95-6.46,3.77-1.44.5-3.52,1.37-4.41.75-1.45-1-3.06-.08-4.12-.96-.91-.75-1.57-.59-1.77.2-.71,2.9-3.45,2.22-5.25,2.92-1.41.55-3.21-.06-4.42,1.54-.21.28-1.61-.07-2.26-.46-.84-.5-1.43-1.22-2.21.05-.41.65-.89,1.25-1.78.25-1-1.13-1.94-2.09-1.72-3.82.36-2.86-.66-5.87,1.01-8.6.08-.13-.28-.52-.43-.79-.12.09-.28.16-.35.29-.98,1.75-2.1-.3-3.13.12-.57.23-1.23.36-1.67.74-.29.25-.51,1.02-.34,1.28.45.68,1.2,1.16,1.7,1.81.6.78.21,1.73-.71,1.69-1.09-.04-2.26.41-3.26-.61-.36-.37-1.22-.39-1.82-.33-1.26.12-2.34,1.79-1.58,2.72,1.06,1.28.19,3.33,2.03,4.22.85.41.93,1.37.09,2-.59.45-1.83,1.09-1.97.93-1.28-1.46-2.11-.84-3.24.22-.61.57-1.75.54-2.59.92-.33.15-.67.72-.64,1.07.03.32.5.74.86.85.45.15,1.01.12,1.48.01.5-.11.97-.41,1.45-.63-.02.78-.03,1.57-.05,2.35-.57-.04-1.28.13-1.68-.15-.74-.54-1.07-.59-1.12.41-.03.83-.03,1.67,0,2.5.04,1.38.92,2.08,2.23,1.51,2.7-1.18,5.87-1.83,6.79-5.34.11-.42.6-.77.95-1.1,1.53-1.42,1.52-2.86-.1-4.1-1.39-1.06-.21-1.51.34-2.14.47.53.94,1.06,1.41,1.59.59-.59,1.18-1.18,1.77-1.77.2.35.56.71.57,1.06.02,1.59.41,3.27-.95,4.61-.13.12.04.62.18.89.04.08.48.05.67-.05.96-.51,1.87-1.11,2.84-1.6,2.38-1.19,3.35-.53,3.29,2.16-.07,3.42,0,3.35,1.63,5.01,1.09,1.11,2.28,1.19,2.71-.13.67-2.1,2.92-2.23,3.96-3.77.16-.24,1-.31,1.28-.12.3.22.49.89.39,1.27-.2.73-.62,1.41-.99,2.09-.3.55-.83,1.04-.92,1.61-.09.57.16,1.25.44,1.78.07.13.99.04,1.27-.22,1.13-1.03,1.8-1.37,2.3.59.34,1.36,1.34,1.83,2.73.78.42-.32,1.3-.1,1.96-.04,3.25.31,5.71-1.45,7.09-3.9.8-1.44,2.09-1.15,2.94-2.01.4-.4,2.24-.71,2.33,1.37.04.92,1.21,1.8,1.91,2.67.19.24.53.38.8.56.06-.31.04-.68.22-.9.18-.22.62-.47.83-.39.72.27,1.47.57,2.05,1.05.75.63,1.58.92,2.01.02.28-.59.08-1.68-.31-2.28-.71-1.08-1.75-1.95-2.58-2.95-.13-.16,0-.67.17-.89.17-.21.55-.33.84-.32s.55.28.85.34c1.08.23,2.16.61,3.24.58,1.25-.03.73-2.21,2.52-2.27.62-.02.75-2-.35-2.88-1.02-.81-1.43-1.47-.14-2.53.81-.67,1.9-2.45,1.75-2.6-1.13-1.1-.75-3.31-2.78-3.7-.89-.17-1.74-.61-2.58-.99-.18-.08-.26-.43-.32-.68-.02-.07.21-.26.35-.29,2.19-.57,6.3,1.33,7.44,3.52,1.35,2.6,2.79,5.18,3.8,7.92.35.94-.32,2.42-.85,3.49-.8,1.64-1.44,2.93-.07,4.78.7.95.22,2.66.96,4.08.49.93-.49,2.65-.86,4-.11.42-.36,1.13-.58,1.15-2.38.19-1.61,1.82-1.07,2.79,1.17,2.1,2.24,3.81.85,6.5-.67,1.3.26,3.76,1.1,5.36.57,1.1,2.21,1.68,3.45,2.34.21.11.91-.54,1.26-.94,1.09-1.22,2.56-1.55,2.9-.4.73,2.48,1.51,1.44,2.58.44.98-.92,1.8-1.79,1.6-3.38-.1-.81.7-1.69.9-2.58.35-1.56,1.26-1.44,1.99-.55,1.9,2.31,3.88,1.76,6,.47,1.99-1.21,4.31-1.76,6.09-3.47,1.46-1.41,1.61-1.42.48-2.53-1.46-1.44-3.15-2.1-5.18-2.01-1.16.05-2.33.04-3.5-.01-.28-.01-.54-.29-.81-.44.23-.18.55-.56.68-.51.94.38,1.66-1.87,2.79-.15.26.4,1.57.18,2.39.11,2.65-.25,4.63.95,6.36,2.78,1.87,1.97,2.99,4.29,4.1,6.8.76,1.72-.18,3.85,1.81,5.35,1.14.86.97,3.28,1.94,4.58,1.4,1.88.93,3.6.43,5.47-.89,3.3-2.85,6.34-2.54,9.95-1.65,1.91-1.36,4.81-4.36,6.28-3.47,1.69-5.36,5.56-7.58,8.71-5.08,7.18-14.73,6.72-19.06-1.08-.98-1.76-1.91-3.56-3.03-5.24-.63-.95-1.47-2.17-2.43-2.42-3.57-.95-5.43-3.93-8.01-6.07-2.44-2.02-5.01-3.91-7.67-5.62-.85-.54-2.18-.38-3.3-.44-2.44-.13-2.34-.29-5.83-2.67-1.73-1.18-3.94-1.97-6.02-2.25-3.16-.42-4.33-2.83-5.63-4.98-1.41-2.32-2.1-2.72-4.38-1.33-1.31.8-2.74,1.43-4.11,2.14-1.78-2.04-2.77-.27-3.8.85-.4.43-.72,1.1-.74,1.67-.09,3.64-2.26,5.81-5.11,7.56-.4.25-.82.48-1.18.77-1.44,1.15-1.38,1.28.34,2.84,1.36,1.23,2.65,2.54,3.89,3.89,2.32,2.53,2.04,7.36-.56,9.57-1.33,1.14-3.4,1.86-4.01,3.26-.75,1.71-2.31,1.93-3.33,3.01-2.45,2.6-2.75,4.4-1.12,7.77.44.92.51.78,1.19.29,2.84-2.05,5.45-1.9,8.16.41,1.46,1.24,2.69,2.66,4.48,3.64,1.92,1.05,3.73,1.69,5.87,1.57.43-.02.87.28,1.31.43-.44.47-.88.95-1.34,1.41-.1.1-.36.18-.43.12-2.45-1.86-4.02,1.41-6.28,1.12-.55-.07-1.27,1.2-1.91,1.85.68.52,1.29,1.22,2.05,1.53.86.35,1.86.32,2.79.52.73.16,1.44.41,2.17.62-.27.89-.39,1.86-.84,2.65-.42.74-1.66,1.17-.26,2.16,1.32.94,1.82.96,2.21-.89.2-.96.88-.2.88.5,0,1.59.11,2.84,2.13,1.37.46-.34,1.2-.34,1.81-.42,1.28-.16,2.33-.06,2.1,1.72-.05.39.31.84.49,1.27.57-.24,1.19-.4,1.68-.75.36-.25.55-.75.79-1.15.58-.96,1.13-1.93,1.7-2.9.1,1.12.14,2.26.33,3.37.1.59.51,1.12.73,1.69.43,1.13.6,2.29-.58,3.04-1.89,1.2-2.53,3.5-4.43,4.75-1.46.95-.98,2.63-.28,3.83.87,1.48,1.84,3.26,3.24,3.98,1.59.82,1.6,2.58,2.98,3.4,1.34.8,4.99,1.12,6.43.09,1.56-1.11,3.09-2.28,4.53-3.54,1.28-1.12,1.21-1.17-.55-1.83-.4-.15-.92-.38-1.06-.7-.29-.71-.27-1.56-.6-2.25-.1-.2-.97,2.02-1.37.08-.25-1.21-1.23-.81-1.64-1.27-1.46-1.64-4.06-2.64-3.42-5.56.1-.44.33-.86.5-1.28.24.24.47.47.71.71.47.47.94.95,1.41,1.41.92.91.96.78,3.52,1.58,2.09.65,3.53.63,4.51-1.74.36-.87,1.81-1.22,2.59-1.98,1.46-1.42,3.84-2.23,3.71-4.81-.08-1.62,1.62-.79,1.95-1.62.34-.86.37-1.85.76-2.68.49-1.03,1.27-.03,1.72-.09,1.35-.18,3.22-4.07,2.55-5.08-.46-.69-1.49-1-2.24-1.51-.27-.18-.46-.46-.69-.7.43-.16.86-.43,1.3-.46.54-.04,4.45,2.32,4.69,2.75,1.94,3.62,2.94,7.31,1.37,11.4-.93,2.42-.51,3.15,1.72,4.4l2.41,2.41c.5,1.13.83,2.38,1.54,3.35,1.53,2.09,1.35,4.38.56,6.45-1.04,2.71-4.21,4.87-6.69,5.2-.49.07-1,0-1.5.01-1.32.02-2.9-.39-3.89.2-.85.5-1.04,2.14-1.48,3.29-.17.43-.19,1.27-.37,1.29-2.01.32-2.64,2.57-4.21,3.13-2.32.83-4.32,2.61-7.15,2.16-2.87-.45-5.59,1.61-8.58.95-.64-.14-1.73.25-1.93-.06-2.25-3.39-4.37-.74-6.35.17-4.69,2.15-11.51-.52-13.34-5.59-.95-2.62-1.37-5.43-2.12-8.13-.2-.73-.69-1.39-1.11-2.03-1.28-1.98-2.31-4.21-3.96-5.81-1.54-1.49-3.17-2.92-4.42-4.64-1.36-1.88-3.18-3.45-3.59-6.03-.17-1.07-1.63-2.75-2.47-2.73-2.44.05-3.84-2.23-6.18-2.22-.66,0-1.74-.64-1.91-1.21-.62-2.03-1.33-2.3-2.89-.77-.61.59-1.7.67-2.53,1.06-.27.13-.63.69-.59.73,1.87,2.02-.29,3.46-.69,5.15-.28,1.21-.78,2.61-.43,3.68,1.15,3.51,1.83,7.04,1.83,10.74,0,4.23-1.71,8.31-1.02,12.59.03.16.08.4,0,.49-3.06,3.31-1.84,7.39-1.92,11.18-.03,1.5-.46,2.49-1.53,3.4-.63.53,1.13,2.13-1.13,2.23-1.02.05-1.54,1.91-3.22,1.86-1.35-.04-2.71.74-4.09.88-1.24.12-2.39-.08-3.68-.78-1.19-.64-2.05-1.5-3.03-2.29-.51-.42-.87-1.17-1.44-1.35-1.04-.34-2.25-.68-3.27-.45-1.3.29-.51,1.66-.69,2.54-.25,1.2.27,2.15.93,3.13.17.25-.47,1.07-.79,1.6-.51.85-.87.3-1.43-.07-1.29-.85-2.68-1.55-4.06-2.26-.54-.28-1.25-.28-1.73-.62-2.87-2.04-3.11-1.98-5.34.48-1.04,1.15.23,1.57.61,1.72.86.34,1.94.56,2.82.36,2.21-.5,3.74.67,4.54,2.23,1.31,2.54,2.77,4.3,5.9,3.88.13-.02.55.81.48,1.18-.05.3-.62.72-.98.73-2,.07-4.01.17-5.99-.01-1.4-.12-2.37.51-2.84,1.51-.48,1.03-.13,2.11.83,3.07,1.15,1.14,1.44,3.07,3.94,2.61,1.06-.2,2.59,1.02,3.56,1.96.55.53.57,1.81.5,2.73-.23,3.25,1.09,5.41,3.65,7.5,2.18,1.78,4.32,3.19,7.04,3.63,1.33.21,2.31.86,2.29,2.06-.04,3.03,2.91,2.28,4.25,3.56,1.08,1.04,2.23-.09,3.43-.45,1.85-.54,2.63-2.95,5.09-2.46.78.16,1.55-1.5,1.3-2.81-.29-1.54.43-2.03,1.92-1.93.33.02.94-.7,1.04-1.16.39-1.8-.85-3.47-.81-5.07.05-2.25-1.32-3.2-2.46-4.55-.81-.96-1.34-2.15-2.18-3.07-.48-.53-1.75-1.17-1.95-.99-.72.66-2.25,1.12-1.3,2.7.39.65.78,1.5.67,2.17-.12.7-.86,1.29-1.33,1.93-.24-.5-.42-1.04-.73-1.5-.15-.22-.68-.46-.79-.37-.41.34-.74.78-1.07,1.21-.33.43.72,1.71-.88,1.39-2.51-.5-3.69-1.36-3.05-2.5.72-1.28.51-3.79,3.24-3.2.1.02.73-1.1.57-1.47-.42-.99-.91-2.17-1.74-2.74-3.51-2.43-5.29-6.74-9.37-8.51-.25-.11-.3-.68-.45-1.03.31-.06.65-.25.92-.16.73.22,1.52.43,2.13.87,1.68,1.23,3.32,2.52,4.89,3.88,1.35,1.17,2.37,2.46,4.59,2.37,1.31-.05,2.69,1.39,4.01,2.22.41.26.74.67,1.07,1.05,1.19,1.37,2.75,2.46,4.44,2.49,3.51.07-.96,2.39,1.1,3.25,1.4.59,2.16,2.65,3.26,4.01.23.28.69.38,1.04.56.08-.3.22-.6.23-.9.03-.83-.04-1.67.02-2.5.08-1.11-.47-1.27-1.45-1.43-.52-.09-.89-1.07-1.33-1.64.63-.09,1.26-.22,1.89-.26.48-.03,1.05-.1,1.45.1,3.75,1.83,5.59,7.67,4.99,12.01-.5,3.64-2.41,6.77-2.73,10.47-.18,2.13-2,4.12-3.09,6.17-3.05.44-3.07,3.89-5.23,5.27-2.13,1.36-3.18,3.43-2.48,5.93.78,2.78-1.81,3.94-2.58,5.96-.68,1.78-3.1,1.68-4.58,1.94-4.28.74-8.52.3-11.34-3.8-.7-1.02-1.24-2.31-2.21-2.96-.83-.56-2.17-.29-3.26-.54-.98-.22-1.99.24-2.97-.51-1.22-.94-3.35-1.34-3.8-2.49-.52-1.33-1.99-1.25-2.15-2.01-.47-2.21-1.1-1.67-2.55-.75-2.11,1.33-4.99,1.49-6.16,4.21-1.43-.18-1.79,1.38-2.78,1.73-.79.28-1.82-.15-2.74-.15-2.24,0-4.81.8-6.62-.05-1.95-.93-2.95.04-4.39.44-1.19.33-1.14.99-.66,1.77.5.81,1.35,1.45,1.69,2.3.79,2.01,2.08,4.17,1.86,6.14-.27,2.5-1.79,4.87-2.86,7.26-.14.31-.92.27-1.19.58-1.64,1.83-4.08,2.72-5.41,5-.9,1.53-2.32,3.06-3.88,3.8-1.3.62-3.02.38-4.56,1.05-.89.38-2.37-.87-3.48-.7-1.14.17-2.09,1.55-3.23,1.75-2.9.51-5.85-.36-8.22-1.71-1.57-.9-2.96-1.41-4.51-1.16-1.93.31-3.7-1.14-5.74-.18-.58.27-1.81-.99-2.8-1.43-4.14-1.82-5.83-5.14-5.93-9.47-.02-1,0-2,0-3-.01-1.22-.02-1.11-1.89-1.01-2.24.11-4.71.5-6.52-1.04-1.3-1.11-2.02-.38-3.21-.23-1.26.16-3.1-.9-4.01-2-1.41-1.7-3.01-1.71-4.85-1.72-4.49-.02-6.82-1.24-9.91-4.85-1.04-1.22-2.08-2.39-4.11-2.21-2.04.18-2.92-2.21-4.79-2.83-1.29-.43-2.78-1.34-3.38-2.46-.64-1.2-.98-2.53-1.75-3.79-.76-1.23-.7-3.17-.49-4.73.29-2.14.66-4.44,1.72-6.25,1.65-2.84,4.76-4.16,7.58-5.68.11-.06.54.23.6.42.09.29.09.7-.06.95-.14.23-.53.29-.79.46-3.39,2.29-3.34,2.25-.43,5.23,1.65,1.68,3.24,2.76,5.51,1.1.34-.25,1.12-.43,1.3-.25,1.91,1.95,2.25-.08,2.42-1.12.27-1.62.2-3.33.04-4.98-.18-1.82.34-3.19,1.81-4.27,1.54-1.13,2.99-2.41,4.58-3.48.33-.22,1.09.19,1.64.31-.28.49-.47,1.06-.85,1.44-.65.64-1.66,1.03-2.08,1.77-.52.91-.6,1.88-.26,3.19.43,1.65,1.13,1.56,2.28,2.22,3.01,1.74,4.77.17,6.72-1.47,2.49-2.11,7.04-2.36,9.85-.57.64.41,1.41.6,2.13.88,1.39.54,2.51-1.26,4.26-.14,1.18.76,3.25.02,4.9.18,1.37.14,2.36-.4,2.89-1.44.67-1.34.04-2.53-1.12-3.39-1.91-1.41-3.83-2.81-5.76-4.21-.51-.37-1.11-.66-1.52-1.12-.28-.32-.55-1.08-.39-1.27.55-.63,1.41-1,1.92-1.65.53-.68-1.84-1.29-.21-2.26.19-.11.32-.78.22-.85-1.76-1.35-1.55-3.75-2.92-5.32-1.04-1.19-2.44-2.43-2.72-3.84-.37-1.92-2.16-2.42-2.94-2.52-2.41-.29-4.73-.7-6.68-2.05-1.25-.86-1.74,1.58-2.82.3-.64-.76-1.36-1.48-2.13-2.1-.31-.25-1.01-.38-1.3-.2-.3.19-.58.95-.43,1.24,1.2,2.38.64,4.41-1.04,6.28,1.56,2.1-.63,2.44-1.55,3.46-.84.92-1.88,2-2.04,3.11-.19,1.41.36,2.94.71,4.4.48,2.01.05,4.53-1.44,5.12-3.32,1.31-5.77,3.81-8.64,5.7-.25.16-.69.05-1.04.06,0-.33-.12-.74.03-.98.66-1.07,1.39-2.1,2.1-3.13,1.32-1.92,1.37-2.66-.41-4.08-1.57-1.25-3.32-2.53-5.19-3.07-1.02-.29-2.7.68-3.68,1.54-1.8,1.59-3.99,1.85-6.11,2.19-2.89.46-2.96.3-2.71,3.1.06.75.55,1.45.69,2.2.18.95.36,1.95.24,2.88-.14,1.05-.78,2.05-.9,3.1-.08.69,1.53,1.41.03,2.2.1,2.66-2.89,2.23-3.82,3.83-.97,1.66-1.45-.68.3-3.98,2.43-5.67,2.4-6.82,2.21-7.93-.03-.18-1.11-.44-1.24-.29-.57.71-1.12,1.52-1.39,2.38-.16.48,1.9,1.32-.37,1.62-1.86.24-3.01,2.21-2.3,3.83.35.8.84,1.35.07,2.07-.72.68-.88,1.51,0,1.97.33.17,1.19-.52,1.72-.93,2.37-1.83,4.77-3.66,1.29-2.72-2.21,5.92-3.41,8.35-1.56,10.32-1.76,2.89.51,5.73.1,8.68-.44,3.11.49,6.47-.27,9.44-.7,2.75-.61,5.42-.86,8.13-.14,1.55-.4,3.16-1.01,4.57-1.23,2.81-.95,5.71-.94,8.61.01,4.01-.99,7.4-4.88,9.43-1.12.58-1.85,2.21-2.97,2.46-2.79.64-5.69.84-8.57,1.05-.67.05-1.59-.43-2.05-.97-1.24-1.45-3.26-2.28-3.57-4.51-.24-1.71-.77-3.38-.94-5.09-.1-1.06-.4-1.45-1.46-1.39-1.16.07-2.34-.04-3.5.03-3.21.19-5.16-1.64-6.7-4.13-.16-.26-.32-.55-.37-.84-.43-2.28-2.11-3.1-4.1-3.64-2.09-.56-3.94-.88-5.85.88-1.03.95-2.84,1.3-4.34,1.44-2.95.27-6.33,1.12-8.79.04-2.73-1.19-6.06-2.42-7.74-5.26-.53-.9-.97-1.22-1.78-1.7-2.15-1.27-3.54-3.51-5.11-5.33-1.33-1.55-2.89-3.84-2.32-6.48.05-.25-.14-.64-.34-.84-2.41-2.33-2.45-5.7-3.8-8.42-1.38-2.77-.87-5.04.31-7.18.66-1.19.57-1.58-.27-2.18-4.18-2.97-4.9-5.42-2.84-9.9.32-.7.82-1.37.92-2.1.05-.42-.52-1.3-.84-1.32-2.06-.1-3.61-1.07-5.02-2.45-.2-.2-.72-.23-1.03-.13-3.19,1.01-6.22.49-9.4-.38-2.16-.6-3.85-1.58-5.17-3.19-1.28-1.56-2.74-2.23-4.73-1.92-4.41.69-7.22-2-10.04-4.75-1.17-1.14-.55-2.47-.69-3.72-.17-1.66-.39-1.82-2.06-.96-2.83,1.45-5.61,3.07-8.99,2.44-2.17-.41-3.91-.96-5.14-3.4-1.13-2.24-1.81-4.6-2.8-6.86-.65-1.48-1.53-2.38-2.51-1.64-1.61,1.21-3.53,1.17-5.25,1.86-.72.29-1.72.25-2.47,0-1.6-.53-3.13-1.81-4.68-1.81-1.56,0-3.25,1.95-4.65,1.71-4.14-.73-8.4-1.8-11.26-5.24-2.01-2.41-1.72-6.98.51-9.75,1.22-1.52,1.88-1.88-.43-3.3-4.32-2.67-5.28-7.51-5.13-12.2.06-1.97.1-3.69-.72-5.44-1.45-3.09.05-5.96.97-8.74.87-2.62,2.91-4.44,5.5-5.66,1.45-.68,2.73-.79,4.07-.02.39.23.65.69.97,1.04-.57.06-1.39.4-1.67.15-1.69-1.54-1.68.73-2.49,1.08-.76.33-1.12,1.07-.52,2.02.66,1.04,1.14,2.19,1.73,3.28,1.09,1.98,2.5,3.2,5.05,2.98,2.38-.21,4.85-.49,6.75,1.87.63.79,2.29.79,3.5,1.05.44.09,1.23.04,1.36-.21.65-1.25,1.28-3.54,2.69-2.59,1.61,1.09,2.53-.01,3.18-.39,1.98-1.12,3.5-1.21,5.23.39.61.56,2.15,1.07,2.56.73,1.26-1.03,2.03-1.1,3.31.02.66.58,1.44-.2,1.37-1.29-.1-1.58.31-2.09,1.98-1.22,1.49.77,3.21,1.1,4.84,1.57.26.07.74-.03.88-.23,1.45-2.06,2.94-4.1,4.21-6.26.36-.62.21-1.66.02-2.44-.1-.42-.78-.99-1.2-.99-1.16-.02-1.93-.17-1.84-1.59,0-.13-.83-.48-1.24-.43-2.56.31-2.82.02-2.7-2.25.12-2.32,1.72,1.73,2.17-.64.33-1.71,1.59-3.77,3.05-4.6,2.12-1.2,4.69-2.06,7.32-1.45.21.05.43,1.18.23,1.62-.81,1.74-2.48,1.29-3.93,1.28-1.07,0-1.93-.06-1.88,1.5.02.52-1.31.93-.18,1.79.69.52,1.13,1,2.11.44.78-.45,1.78-.54,2.69-.71,1.01-.19,1.65.22,1.44,1.32-.28,1.48.93,2.02,1.69,2.8.41.42,1.07.59,1.62.88.23-.53.52-1.04.69-1.59.37-1.18.3-2.82,1.08-3.5,2.09-1.82-.5-4.1.88-5.87.12-.15-.32-.85-.63-1.18-1.02-1.09-2.28-2.01-3.13-3.22-1.27-1.82-3.4-3.37-1.33-6.25.91-1.26.16-3.13-1.9-4.08-1.05-.49-3.37-1.71-1.1-3.75.19-.17.06-1.16-.16-1.27-1.11-.52-2.28-.97-3.48-1.22-.33-.07-1.21.69-1.17.97.33,2.4-1.87,2.58-3.01,2.84-2.06.46-4.3.13-6.47.13-1.42-2.38-3.25-.46-4.05.18-1.92,1.55-4.64,2.59-4.69,5.95-.01.97-1.79,2.11-2.98,2.81-1.72,1.03-3.39,2.07-5.64,2.17-1.92.08-3.79,1.19-5.67,1.89-.72.27-1.48,1.05-2.08.92-3.06-.63-5.37.94-7.43,2.62-2.99,2.44-6.11,1.78-9.14.75-2.17-.73-4.24-1.98-6.06-3.39-.96-.74-1.14-2.42-1.96-3.45-.71-.89-1.56-2.53-3.07-.78-1.11,1.28-2.39-1.61-3.48.15-2.68-1.7-5.99-2.58-6.46-6.69-.21-1.82-1.42-3.39-3.52-4.55-2.52-1.4-4.38-4.03-6.44-6.2-1.48-1.55-3.41-2.34-4.73-4.4-2.13-3.33-2.34-7.51-5.12-10.42-.49-4.55-.31-9.17,2.13-13.03,1.31-2.07,1.97-4.2,2.84-6.35.93-2.3,2.11-4.46,3.64-6.52,2.04-2.74,4.61-2.81,7.45-2.65.28.02.54.28.81.43-.22.18-.48.55-.67.52-1.76-.27-2.9,1.08-4.34,1.63-.35.13-.82.76-.75,1.01.12.42.6.96,1.01,1.03,1.27.22,2.58.23,3.86.37.29.03.56.25.84.38-.35.2-.74.35-1.04.61-1.42,1.23-1.49,2.37-.45,3.94.3.46.39,1.12.38,1.69,0,.13-.83.32-1.29.34-1,.05-2.15-.29-2.95.11-.72.36-1.62,2.02-1.46,2.19,1.17,1.27.52,2.86.98,4.15.93,2.64,3.84,3.53,5.56,5.53.12.14.86-.19,1.28-.39,1.91-.9,3.6-2.56,6-.66.91.72,3.77-.99,4.07-2.15,1.52-5.85,5.74-8.35,11.26-9.44.91-.18,1.98.41,2.96.68.29.08.53.32.8.48-.26.17-.52.47-.79.48-1.16.05-2.36-.13-3.49.06-1.53.25-2.01,2.13-.89,3.28,1.68,1.72,3.5,3.31,4.22,5.76.12.4.85.81,1.34.88.98.14,2-.02,2.99.06.59.05.95-2.05,1.55-.23.22.66.68,1.97-.98,2.26-1.16.2-2.07.98-1.94,2.39.04.46.2.92.3,1.37.35-.23.78-.39,1.05-.69.7-.77,1.33-1.5,2.14-.13.64,1.09,1.37.88,2.12.12.35.69.69,1.38,1.06,2.06.45.81.82,1.72,1.44,2.39,1.06,1.15,1.78,2.52,4.12,1.59,1.99-.79,3.69,2.15,2.69,4.36-.04.1-.75.05-1-.14-.38-.27-.62-.72-.92-1.1-.34-.43-.88-1.26-.98-1.21-.7.35-1.39.81-1.9,1.39-.19.22-.07,1.06.19,1.28.58.48,1.44,1.16,2.01,1.03,3.15-.74,4.22,1.8,5.41,3.6,1.68,2.52,4.85,2.36,6.76,4.46,1.05,1.16,4.19-1.12,4.5-3.16.36-2.36.72-4.72.99-7.09.26-2.25,2.37-3.01,3.49-4.56,2.77,2.52,2.7-.59,3.89-1.76,2.33-2.29,3.35-2.96,3.57-4.87.23-2.01.65-.9,1.59-.52.67.27,2.49,1.02,2.51-1.15,0-.11.58-.35.86-.31.93.14,1.84.36,2.75.58,1.01.25,2.13.97,2.99.72,1.08-.31,1.29-1.59,1.48-2.82.15-.95,1.22-1.94,2.12-2.55.89-.6,2.22-.66,1.75-2.22-.4-1.33-.83-2.65-1.37-3.93-.07-.16-.95-.19-1.28.01-.55.34-1.04.85-1.42,1.39-.87,1.2-1.97,1.59-3.43,1.43-.76-.08-1.74-.04-2.31.37-1.29.93-1.49.86-2.32-.71-.99-1.87-3.92-1.78-5.6-.45.49,2.77-3.78.77-3.41,3.41-1.98.45-3.96.91-5.95,1.31-.24.05-.54-.26-.82-.4.37-.19.77-.34,1.11-.58,1.09-.76,1.15-1.71.03-1.89-.82-.13-1.75-1.99-2.67-.14-4.59-.47-8.59,1.71-12.83,2.82-.43.11-1.01.24-1.33.05-2.67-1.56-5.72-2.4-8.25-4.22-.4-.29-.86-.64-1.02-1.07-.14-.37.04-.93.23-1.32.09-.18.68-.31.86-.19.67.45,1.24,1.03,1.88,1.53.17.13.64.21.67.16.14-.27.3-.62.24-.89-.74-3.2.48-5.76,3-7.39,2.83-1.83,5.89-1.54,8.91-1.38,1.91.1,2.4-.56,2.11-2.25-.4-2.32.61-3.9,2.16-5.65,1.6-1.8,2.98-4.06,2.85-6.78-.13-2.69,1.23-5,3.33-6,2.29-1.09,1.87-1.91,1.05-3.59-.46-.94-.77-2.67-.26-3.23,1.66-1.81.54-1.99-.85-2.96-1.42-.98-3.06-1.85-4.03-3.65-.63-1.17-1.23-2.1-1.31-3.5-.09-1.51.67-2.34,1.45-3.45,1.51-2.14,2.74-4.5,3.93-6.86,1.17-2.33.88-2.35-1.03-4.45-1.66-1.83-2.95-4.04-3.28-6.61-.08-.66.19-1.42-.06-1.98-.41-.93-.4-3.2-2.37-1.19-2.07-.97-4.12-2-6.23-2.9-2.21-.94-4.34-1.93-6.51.48-.82.91-2.5,1.32-3.83,1.44-2.88.25-5.77-.16-8.61.99-1.71.7-3.75.56-5.54,1.12-1.47.46-2.44,1.14-4.34.3-1.72-.76-3.91,1.23-5.72,2.37-1.34.84-2.49,1.99-3.85,2.78-3.25,1.91-6.53,2.77-9.55-.5-3.11-.33-4.02-2.99-5.41-5.14-1.42-2.18-2.52-4.5-1.97-7.16.37-1.8-.66-3.17-1.39-4.43-1.8-3.12-2.02-6.04-1.03-9.56.78-2.77.31-5.89.38-8.86,0-.15-.01-.39-.11-.44-2.77-1.65-2.57-4.53-3.36-7.14-.43-1.43-.18-1.87.49-2.85,1.72-2.47,2.94-5.25,5.29-7.33,1.85-1.64,4.34-.76,6.16-2.09.22.74,1.96.68.96,2.12-1.19,1.71-.16,3.29.54,4.91.69,1.62,1.36,1.88,3.06,1.06,1.43-.69,2.21.2,1.97,1.68-.6,3.82.42,6.79,3.15,8.86,1.12.85,2.34,1.58,3.51,2.37,1.77,1.19,3.96-.02,5.76,1,1.41-1.86,2.29-.56,3.54.37,1.86,1.39,3.87,2.69,6.02,3.53,1.06.42,1.69.46,2.31,1.7.74,1.49,2.14,2.93,4.42,2.48.57-.11,1.8.62,1.91,1.14.6,2.87,1.98,1.61,3.33.79,1.33-.81,2.72-1.54,3.97-2.47.78-.58,1.3-.7,2.1-.06.91.72,1.21,1.61.93,2.59-.12.41-.93.96-1.31.88-1.8-.39-2.96.99-4.45,1.42-.14.04-.22.6-.16.89.06.28.35.73.52.72,1.88-.13,3.93.65,5.44-1.38,1.16-1.56,2.89-2.4,4.9-2.63.41-.05.75-.74,1.12-1.13-.32-.27-.7-.82-.97-.78-2.38.42-2.16-1.81-3.01-2.92-.11-.15.14-.58.22-.88.24.07.57.06.69.22,1.52,1.97,3.35,2.84,5.97,2.62,1.69-.14,3.45-.5,5.28.44,1.49.76,2.04,2.41,3.69,2.95.85.28,1.4,1.39,2.16,2.03,1.01.85,2.07.83,3.05-.1.48-.46.94-.94,1.42-1.41,1.75-1.74,1.67-2.41-.77-2.96-4.65-1.05-5.88-5.05-7.64-8.56-.21-.42.61-1.34.9-2.05.18-.43.13-1.1.43-1.3,2.8-1.91,3.03-5.67,5.64-7.69.92-.71,1.58-2.51,3.14-.79.1.11.54.07.68-.05,1.67-1.55,3.38-3.22,3.08-5.69-.36-2.93,2.36-4.82,2.23-7.6,1.54-1.11,3.06-3.08,4.63-3.12,2.55-.07,3.84-1.43,5.4-2.87.67-.62,1.56-1.02,2.4-1.43,1.7-.83,1.05-1.93.38-3.01-.33-.54-.64-1.26-1.15-1.49-4.55-2.07-5.94-6.83-8.74-10.36-.85-1.07-1.02-1.05-2.1-.6-2.1.87-8.63-.59-10.15-2.1-.33-.33-.79-.75-.81-1.15-.29-4.39-3.99-5.15-7.01-6.09-4.44-1.37-9.24-1.49-13.39-3.92-.5-.29-1.27-.16-1.92-.18-2.4-.05-4.6-.21-6.92-1.44-1.75-.93-4.46-.61-6.59-.15-4.06.89-5.7.89-9.49-1.21-3.29-1.82-5.43-5.11-5.68-8.97-.15-2.4-.1-4.76,1.19-7,1.18-2.04,1.92-4.27,1.82-6.75-.13-3.33.88-6.24,3.5-8.56,1.91-1.69,3.34-3.73,4.61-6.05,1.98-3.62,5.47-5.71,9.79-5.85,2.5-.08,5-.1,7.5.03.87.05,1.72.62,2.58.95-1.03.86-2.1,1.68-3.06,2.62-.31.3-.39.9-.43,1.37-.24,2.43,3.02,3.22,2.74,5.72,0,.07.54.19.83.29,1.73.59,3.53,1.05,5.19,1.81,1.79.82,2.29-1.47,3.73-1.32-1.76-.51.22-1.88-.74-2.86-1.63-1.67-2.86-3.73-4.25-5.63,1.9.18,3.27.88,4.35,2.71,1.12,1.89,3.28,3.05,4.21,5.27.45,1.06,0,1.07-.64,1-1.49-.17-2.01.35-1.95,1.9.1,2.61-.16,5.08,2.34,7.1,1.81,1.46.84,4.83-1.31,6.02-.67.37-1.39.67-2.08,1.01-.28.13-.66.21-.8.43-.16.24-.21.68-.1.93.63,1.4,1.18,2.88,2.05,4.13.74,1.07,2.99.71,3.88-.65.46-.69.73-1.21,1-.14.6,2.32,3.17,1.61,4.34,3.01.05.06.65-.42,1.02-.54,1.51-.45,2.83-1.74,4.66-.28.8.64,2.3.22,2.05-1.61-.06-.4.3-.86.46-1.29.17.43.34.85.5,1.28.67,1.72,1.45,3.41,1.96,5.18.37,1.27-.34,1.77-1.63,1.37-.68-.21-1.67-.79-2-.53-.92.72-1.42.58-2.51.18-1.61-.59-3.52-.4-5.3-.42-.16,0-.6.9-.47,1.2.71,1.69,2.15,1.9,4.33,1.96,2.27.07,4.53.83,6.76,1.44,1.63.45,3.18,1.15,4.77,1.73.58.21,1.17.56,1.75.56.79,0,1.96-.68,2.29-.36.88.83,1.54,1.98,2,3.12.29.72-.04,1.66.1,2.47.05.31.61.75.94.76.34,0,.84-.39.97-.73.17-.43-.16-1.29.07-1.44,3.9-2.57,1.35-5.97.8-8.76-.45-2.29-2.46-4.27-3.72-6.42-1.33-2.27-2.62-4.57-3.87-6.89-.19-.36-.25-1.2-.08-1.29,2.15-1.18,1.56-3.77,2.86-5.33.53-.64,1.47-.96,1.97-1.62,1.43-1.9,4.41-1.21,5.58-3.46,2.27.15,4.32-.95,6.55-1.22,2.35-.29,4.7-.83,7.1-.76,2.33.08,3.74-2.49,6.17-2.02,2.65-2.1,5.73-.57,8.58-.94.47-.06,1.14.54,1.54,1,.8.92,1.4,2.71,2.22,2.8,2.41.26.56,2.29,1.61,3.03,1.35.95.52,2.46.62,3.71.08,1.04.48,1.8,1.39,1.34,1.14-.58,2.11-1.79,1.46.74-.19.74-.46,1.48-.83,2.15-.25.46-.66.97-1.12,1.14-2.01.77-2.31,1.22-1.55,2.82.4.84.95,1.6,1.39,2.42.87,1.6,1.05,1.61,2.43.18.2-.21.7-.45.8-.36.41.34,1.02.8,1.01,1.22-.01,1.81.49,2.17,1.62.64.87-1.18,2.05-.75,3.13-.94.47-.08.87-.62,1.3-.96,1.57-.07,3.18.06,4.69-.25,2.54-.52,2.51-.64,3.31,2.25-.33,0-.67.03-.99,0-2.22-.23-3.34,1.33-3.91,2.96-.45,1.29-.34,2.9,1.23,3.91,1.46.94,2.76,2.12,4.18,3.12,1.47,1.03,3.4,1.66,4.4,3.01,1.32,1.79,3.11,1.62,4.76,2.24,1.14.43,2.16,1.27,3.1,2.08.59.52,1.01.82,1.41,0,.31-.63.74-1.84.56-1.96-1.82-1.22-1.77-3.95-4.4-4.76-1.31-.4-2.47-2.27-3.47-3.83-1.57-2.46-2.82-5.46-5.85-6.75-.15-1.04.04-1.99,1.03-2.52,1.96-1.05,1.64-2.54.98-4.2-.38-.96-1.68-1.79-2.46-1.26-2.88,1.95-5.71,3.98-8.56,5.98-2.32-2.02-2.45-2.35-2.32-5.18.01-.23,0-.49-.07-.7-.4-1.2.37-2.24,1.5-2.13.96.09,1.93.27,1.94-1.37.01-4.03-1.38-7.78-2.07-11.66-.06-.35-.48-.8-.83-.92-5.21-1.79-8.97-5.77-13.35-8.79-3.92-2.7-7.65-5.67-11.53-8.42-.72-.51-1.76-.77-2.65-.78-4.4-.03-8.11-1.55-10.97-4.92-2.55-2.99-3.38-6.37-2.08-10.17,1.71-5.01,1.82-5.26,6.33-9.28.99-.88,1.13-1.84,1.15-3.05.04-2.23-.57-4.55.94-6.61.33-.46.12-1.69.38-1.77,2.87-.82,2.28-4.24,4.47-5.67,2.82-1.84,5.76-1.69,8.8-1.4.15.01.34.53.34.81s-.16.79-.32.82c-.8.13-1.63.26-2.42.18-2.21-.25-3.4,1.26-4.15,2.8-.85,1.72.63,3.32,1.18,4.94,0,.02.46-.05.67-.16.96-.48.91-.47,1.08-.07.69,1.71,1.36,3.44,2.15,5.1.13.28.99.53,1.27.37,1.9-1.08,2.37-3.65,4.57-4.47-.45-2.47,1.14-5.31-1.39-7.45-.37-.31-.42-1.1-.42-1.67,0-.12.86-.42,1.27-.35,2.35.39,4.94-1.02,7.14.92.19.17,1.06-.54,1.65-.67,1.4-.29,2.87-.87,4.06.53.21.25.45.47.68.71-.27.16-.53.46-.8.47-3.33.03-6.67,0-10,.05-.38,0-.75.36-1.12.55.44.14,1.19.19,1.27.44.8,2.49,2.8,1.97,4.63,2,1.27.02,1.22.89.8,1.66-.31.56-.98.91-1.36,1.45-.25.36-.47,1.23-.39,1.27,1.93,1.03,1.66,3.9,3.95,4.65.72.23,1.49.77,1.89,1.4,1.23,1.94,3.27,2,4.83,1.44,1.68-.6,4.82.01,4.39-3.46.47.2.94.39,1.41.59.1-.57.33-1.16.25-1.7-.09-.58-.6-1.1-.72-1.69-.13-.64-.11-1.34,0-1.99.08-.52.39-1,.6-1.5.46.48,1.28.94,1.3,1.43.05,1.18.87,2.21.93,3.09.18,2.64,2.87.36,3.3,2.01.47-.24,1.11-.37,1.39-.75,1.2-1.65,2.75-2.08,4.73-1.95,2.39.16,4.66.03,6.92-1.43,1.31-.85,3.47-.47,5.25-.42.2,0,.53,1.4.48,2.13-.02.28-1.21.84-1.39.69-.89-.73-1.37-1.5-1.59.48-.17,1.53-2.6-.48-3.02,1.58-.16.8-1.79,1.39-1.81,2.11-.06,1.87-.64,3.84.84,5.63.95,1.15,1.41,2.73,2.03,4.14.1.22-.1.61-.24.88-.03.05-.51-.03-.67-.17-1.74-1.64-3.15-3.63-5.89-3.96-1.15-.14-.93-1.3.38-2.72.3-.32.1-1.1.13-1.67-1.91-.06-1.65-1.4-1.75-2.71-.05-.71-.66-1.37-1.02-2.06-.71.42-1.5.75-2.09,1.3-.42.39-.67,1.05-.81,1.64-.19.77-.19,1.59-.28,2.39-.59-.08-1.28-.39-1.75-.19-1.07.46-1.23,1.56-.96,2.54.36,1.33.6,3.23,1.53,3.76,2.36,1.36,2.11,3.32,2.58,5.47.6,2.72.8,5.38.9,8.12.03.71.88,1.38.9,2.09.07,1.77.4,1.3,1.54.59,1.08-.68,1.64.04,1.51,1.66-.03.33-.12.72.01.99,1.59,3.36,2.97,6.93,7.01,8.2.6.19,1.4.06,1.8.42.55.49,1.28,1.54,1.09,1.94-.68,1.38-1.11-.25-1.67-.42-1.79-.53-3.45-1.78-5.36-.34-.16.12-.49.14-.69.07-.78-.27-.97-1.99-2.08-1.17-.7.52.08,3.24.88,3.99,2.49,2.33,2.46,2.34,4.05,5.73.19.41,1.08.44,1.47.82.79.76.66,2.32-.15,2.94-.11.08-.37-.06-.48.02-3.18,2.25-3.18,2.28-.69,5.68.28.38.62.75.78,1.17.09.23-.05.67-.24.86-.19.19-.65.35-.86.25-1.25-.61-2.42-1.4-3.7-1.93-.52-.21-1.35-.06-1.84.25-.22.14-.06,1.1.12,1.63.75,2.18,2.04,3.1,4.62,3.22,3.27.15,6.68,1.01,8.7,4.17.47.74.51,1.59-5.72-.43-7.47-1.31-9.71-.68-11.86.16-1.58.62-1.62,1.73-.29,2.97.39.37.88.73,1.08,1.19.43.98.7,2.04,1.03,3.06.41,1.26.78.25,1.25.03.58-.27,1.4-1.86,1.58-.76.32,1.98,1.91,1.82,2.36,1.38,1.45-1.41,2.43-.55,3.79-.03.56.21,1.22,2.03,2.25.41.58-.92,2.37-1.61,1.65-2.68-.73-1.1-.69-1.5.2-2.21.52-.41.95-.93,1.42-1.4.17-.17.33-.33.5-.5-.26-.17-.66-.54-.77-.47-1.69,1.14-2.53,0-3.82-.96-1.56-1.15-3.63-1.62-.36-.2,5.27,3.24,7.29,6.92,7.93,7.08.83.2,1.53,1.5,2.69.01,1.2-1.55,3.63-1.83,4.4-4.12.44-1.32,1.22-1.37,1.8.47.61,1.95,2.18-1.84,2.15.63-.01.96-.07,2.61.33,2.76,2.47.92,4.05,3.65,7.14,3.4.63-.05.91,1.5,1.65-.41.96-2.49,2.08-2.28,3.82.46.45.71.49,1.14,1.05.15.46-.82.92-1.68,1.58-2.33.78-.77,1.77-1.32,2.67-1.97.58,1.21,1.41,2.37,1.7,3.65.78,3.47,1.66,4.32,5.15,4.35,1,.01,2,.04,3,0,3.88-.18,3.54-.15,3.99,3.06.54,3.91-2.3,5.54-4.43,7.67-.24.24-1.3-.41-2-.55-.43-.09-.9,0-1.35.02.15.35.37.69.44,1.06.13.62.38,1.34.19,1.87-.14.4-1.26.9-1.33.82-1.64-1.91-2.19.23-2.85.88-1.25,1.23-1.09,2.85.33,3.68,1.18.69,2.55,1.16,3.89,1.43.9.18,2.06.09,2.79-.37.41-.25.18-1.52.23-2.33.1-1.46.81-1.67,1.88-.85,1.95,1.5,2.14.3,2.13-1.32,0-.29.19-.58.29-.88.35.22.82.36,1.04.67,2.28,3.18,2.22,4.51-.23,7.53-.79.98-1.69,1.77-2.27,3.05-.66,1.45-2.06,3.08-4.33,2.58-.41-.09-1.11.05-1.32.34-2.46,3.41-5.28.83-7.84.36-1.36-.25-2.45-1.64-3.13-3.02-1.23-2.49-1.02-5.19-.09-7.53.65-1.64,2.45-2.84,3.81-4.16.8-.77,1.81-1.33,2.61-2.1.86-.84.59-1.78-.73-1.85-1.99-.09-2.74-1.57-3.79-2.73-.51-.56-.74-1.37-1.2-1.99-.7-.94-1.21-1.51-2.52-.27-3.44,3.28-7.88,3.16-12.25,2.9-.42-.03-.91-.33-1.2-.66-.81-.91-1.68-1.28-2.96-1.38-2.45-.19-3.72-1.69-3.88-4.02-.05-.66.06-1.34-.04-1.99-.04-.25-.48-.44-.73-.66-.94,1.55-2.81,1.36-4.07,2.19-1.13.75-2.33,1.66-2.27,3.55.03,1.1-.63,2.44-1.08,3.5-1.18,2.78-1.3,4.97.62,7.61,1.39,1.91,2.18,4.53,2.44,6.91.22,2.03,1.45,3.18,2.68,3.83,1.59.84,3.65.85,5.52,1.07.26.03.56-.9.94-1.28.3-.3,1.03-.69,1.1-.62.92,1.02,1.84,2.06,2.57,3.22.24.38-.06,1.11-.12,1.68-.34,3.02-2.7,4.65-4.6,6.59-.58.59-1.21,1-.21,1.83.22.18-.16,1.07-.26,1.64-.74-.59-1.89-1.04-2.15-1.79-.94-2.81-1.22-3.31-3.28-3.15-.38.03-1.09,1.01-1.01,1.14,1.32,2.05.92,4.6,1.97,6.69.23.45.73.98,1.18,1.06.78.14,1.68.13,2.42-.12,1.09-.38,2.09-1.03,3.13-1.57-.1,1.94,2.13,1.6,2.75,2.78.57,1.09,1.39,2.29,1.32,3.4-.07,1.28-.79,2.66-1.58,3.74-1.22,1.68-2.27,3.43-4.76,3.97-2.82.61-5.2,2.72-8.29,2.93-.77.05-2,.96-2.1,1.62-.28,1.8-2.86,2.42-2.2,4.68.1.35-.97,1.23-1.65,1.59-1.6.86-3.41,1.62-4.18,3.26-.79,1.67-2.47.04-3.37,1.41-.57.87-.38,2.67-2.32,2.54-.85-.06-1.74.72-2.63.78-1.12.08-1.98.11-1.82,1.57.01.13-.51.47-.76.45-1.23-.11-2.45-2.18-3.67.02l-2.83-2.82c-1.39,1.26-2.12-.03-2.79-.86-.46-.57-.55-1.43-.89-2.11-.51-1.03-1.81-2.56-1.53-2.94.98-1.3.49-2.59.48-3.82-.01-1.9.84-3.36,1.88-4.74,1.55-2.06,1.75-2.01,3.17.28.16.26.15.68.36.83.63.45,1.4,1.18,1.99,1.07.63-.12,1.4-.97,1.6-1.65.44-1.5-.63-3.31.93-4.62-.33-.21-.86-.67-.96-.59-2.16,1.72-3.85,1.03-5.32-.95-.69-.93-1.32-.34-2.15-.29-1.74.1-3.22-1.1-4.53-2.73-3.69-4.56-3.66-9.21-1.28-14.15.57-1.19.47-1.47-.82-2-1.57-.64-2.99-1.78-4.26-2.94-1.24-1.13-2.26-2.2-4.2-2.04-1.66.14-3.29-.06-4.4,1.56-.08.12-.91-.11-.9-.11.47-3.6-4-1.98-4.62-4.39-1.95.06-.49-.8-.6-1.45-.46-2.88-1.23-5.77-2.36-8.46-.6-1.42-2.09-2.55-4.06-2.1-3.05.7-6.44.56-8.51,3.6-1.12,1.66-4.03,1.53-4.19,4.18-.01.21.58,5.69.68,6.12.37,1.49,1.53,2.17,2.77,2.77.14.07.26.33.36.31,1.87-.31,3.77-.5,5.57-1.06.76-.24,1.24-1.3,1.92-1.91.64-.58,1.35-1.07,2.05-1.56.19-.13.46-.13.7-.19-.4,1.68,2.03,2.87.76,4.8-.48.72-.65,1.9-.44,2.75.2.81.92,1.79,1.67,2.11,1.03.44.97-.67,1.35-1.38.57-1.07,2.53-1,3.74-.22.39.25.79.53,1.23.66.69.21,1.68-.43,1.96.86.26,1.21,1.16,2.53.88,3.56-.56,2.05-1.76,3.92-2.67,5.88-1.55,3.36-5.14,4.66-7.42,7.32-.91,1.06-4.34.53-5.34-.67-2.32-2.81-4.38-5.76-4.51-9.64-.01-.44-.63-.86-.96-1.29-.33.27-.93.51-.95.8-.2,2.89-3.01,1.92-4.46,2.9-1.11.76-1.8.76-.62,1.98.15.15-.18.9-.45,1.25-.13.17-.74.2-.92.05-.88-.75-2.44-1.66-2.37-2.39.19-2.15-1.52-2.47-2.57-3.4-.73-.64-.45-.97.1-1.46.19-.17.35-.74.24-.85-1.5-1.58-2.13-3.47-2.24-5.6,0-.11-.63-.34-.83-.24-.36.18-.9.63-.85.86.22,1.05.78,2.05.9,3.1.09.86-1.34,1.75.02,2.71.1.07-.37,1.21-.42,1.2-1.91-.45-1.44,1.44-2,2.18-.46.61-.23,1.75-.31,2.65,1.12.06,2.24.17,3.35.11.16,0,.47-.88.36-1.26-.11-.42-.78-.69-.9-1.11-.11-.39.06-1.05.35-1.29.26-.21,1.05-.18,1.27.05.51.54,1.98.97.54,2.14-.2.17.12,1.12.34,1.64.54,1.28.95,2.69,1.8,3.73,1.1,1.35.16,1.18-.67,1.23-1.34.09-2.61.11-3.51-1.24-.29-.43-1.09-.51-1.66-.75-.17.76-.71,1.7-.44,2.23.59,1.17,1.39,1.86.06,3.32-.99,1.09.63,2.81.05,4.62-.57,1.77,2.42,1.56,3.48,2.74.11.13,1.56-.83,2.27-1.42.29-.24.12-1.02.41-1.29.74-.71,1.62-1.28,2.45-1.91.02,1.12.46,2.51-.04,3.29-.82,1.28-1.15,2.21-.24,3.51.16.23-.18,1.05-.51,1.36-1.45,1.34-1.58,3.24-.51,4.34,1.26,1.29,1.05,3.02,2.07,4.17.45.51.16,3.35,2.21,1.12.1-.11,1.57.85,2.25,1.49,1.11,1.04,1.93,2.25,3.57.5.64-.69,2.03,1.54,3.15-.03.07-.1.82.3,1.25.46-.26.5-.41,1.31-.8,1.46-2.48.92-4.91,2.61-7.63,1.96-1.75-.42-2.73,1.75-4.47.74-1.43-.83-2.8.94-4.32.39-.04-.01-.3.52-.4.83-.02.07.27.21.32.35.75,2.01,3.46,1.14,4.21,2.59,1.11,2.13,2.77,1,4.15,1.14,2.14.21,4.33.04,6.49.07.45,0,.89.24,1.34.37-.5.24-.99.48-1.49.71-1.4.64-2.82,1.24-4.2,1.92-.7.34-1.47.72-1.92,1.31-.24.31.12,1.09.2,1.66,1.72-1.07,3.38,2.69,5.26.08.18-.24,1.9.23,2.52.8,1.12,1.02,1.92,1.73,3.22.25.3-.34,1.26-.1,1.92-.11,1.38-.02,2.07.93,1.6,2.19-.05.14-.07.31-.14.44-.59,1.01-2.56,1.32-1.6,3.12,1.68-.38,2.92,2.1,4.79.74.19-.14.78-.04.92.15.26.36.25,1.18.49,1.24,1.09.24,2.36.03,3.29.51.58.3.22,1.69,1.75,1.77.66.04,1.56.87,2.59.86,2.26-.04,2.85-.95,1.92-3.07-.37-.85-.81-1.7-.98-2.59-.29-1.56,1.28-3.28,2.98-3.32.32,0,.93.49.94.77.08,2.16,0,4.33.11,6.49.01.24,1.16.75,1.47.58,1.51-.85,2.41-3.29,1.66-5.1-.68-1.64.65-2.04,1.34-2.77,2.73-2.88,2.69-2.81,4.49,1.05.84,1.81,2.07,3.34,4.51,2.96.81-.13,1.69.11,2.49-.05,1-.2,2.3.83,3-.78.41-.95-1.75-1.25-.44-2.39.27-.23-.05-.57-.88-.8-.58-.16-1.57-.29-1.63-.59-.2-.95-.04-1.97-.02-2.96.35.06.76.02,1.05.19,1.14.67,3.49-.14,3,2.64-.11.6,1.11,1.54,1.86,2.15.88.71,1.16,1.52,1.05,2.59-.03.27.22.56.34.85.21-.32.66-.7.6-.95-.61-2.45,1.36-3.47,2.55-4.98,1.01-1.29,1.84-.58,2.09.25.63,2.06,2.63,2.58,3.97,3.71,1.61,1.36,5.02,1.22,6.99-.08,1.2-.8,1.73-.97,2.86.02,1.83,1.6,2.43,3.5,2.95,5.83.48,2.13,1.15,3.81-.27,5.85-.75,1.08-.76,2.67-1.09,4.03-.04.16.04.35-.01.5-.1.29-.33.82-.37.81-2.91-.89-2.55,3.42-5.14,3.19-1.98-.18-4-.08-6-.02-.99.03-1.42-.19-1.56-1.31-.1-.86-.59-1.89-1.25-2.44-1.97-1.64-3.76-3.33-4.15-4.22-.31-.7-.7-1.36-1.05-2.04-.71.94-2.22,2.43-2.01,2.74,1.06,1.52-.53,1.72-.99,2.16-.99.97-1.71,1.75-.51,3.02.1.11-.17.56-.26.85-.24-.1-.52-.14-.7-.3-.5-.44-.88-1.13-1.45-1.34-.4-.15-1.4.21-1.49.53-.22.77-.11,1.65-.05,2.48.02.28.29.54.45.81.18-.41.29-.87.55-1.21.17-.22.71-.45.84-.35,1.39,1.01,2.12,2.9,4.45,2.68.94-.09.95,1.11.26,1.81-.69.7-.97,1.64-.07,2.01,2.33.96,2.47,3.25,3.52,5,.26.44.74.88,1.22,1.05,1.26.44.38.79.05,1.26-.89,1.24.82,3.82-2.07,4.05.21.35.33.89.64,1.03,1.31.58.63,2.78,2.74,2.95.91.07.4,2.35-.84,2.74-1.03.33-2.17.49-3.04,1.07-.48.32-.67,1.35-.64,2.05,0,.31.83.73,1.34.85.63.15,1.36.16,1.98,0,.73-.19,1.4-.63,2.09-.97.17.76.6,1.58.46,2.28-.42,2.05,1.63,2.18,2.35,2.35,2.26.53,4,1,3.85,3.91-.03.54.98,1.92,2.47.59.57-.51,2.56-.69,3.6.59.49-.51.97-1.03,1.46-1.54-1.54-.13,1.55-2.58-1.11-2.24-.11.01-.51-1.07-.52-1.65-.02-.85-.63-4.07-1.01-4.77-.29-.54-.51-1.12-.7-1.71-.07-.2-.02-.62.09-.67.28-.13.72-.24.93-.11,1.66,1.08,2.6,2.89,4.12,4.2,1.08.93,1.06,3.14,1.54,4.78-.62.12-1.24.24-1.85.35.35,1.21-1.36,2.9.92,3.69.41.14.97,1.17.88,1.28-.67.78-1.04,1.56-1.01,2.63,0,.33-.76.97-1.19.98-1.14.04-1.97.13-1.76,1.6.09.65-.03,1.34.03,2,.04.45.24.89.37,1.34.35-.28.72-.54,1.06-.84.25-.22.44-.55.72-.68.42-.19.89-.25,1.34-.36.09.57.27,1.14.25,1.71-.01.36-.31.71-.48,1.06.45.03,1.06.27,1.33.06,1.8-1.35,3.64-2.68,5.23-4.25,1.2-1.19,1.44.64,2.38.54.53-.05,1.19,1.25,1.79,1.94-.7.51-1.44.99-2.1,1.55-.31.27-.49.69-.73,1.05.45.11.91.32,1.36.31,1.74-.05,1.45.39.59,1.5-.53.68-.08,1.69,1.08,1.48.89-.16,1.82-.5,2.57-.99,1.78-1.16,3.37-1.24,5.22-.01,1.93,1.28,4.1,1.75,6.25.3.93-.63,1.41.02,2.09.51.74.54,1.62,1.07,2.49,1.17,1.28.15,2.6-.08,3.9-.16-.57-1.02-1.28-1.98-1.68-3.06-.82-2.2-3-3-4.38-4.61-.2-.24-.15-.69-.22-1.04.32-.02.65-.09.97-.06.47.05,1.02.04,1.37.29,1.55,1.13,3.08,2.28,4.54,3.53.97.84,1.91,1.66,1.77,3.29-.1,1.15,1.48,1.18,1.61.56.41-1.96,2.06-2.45,3.19-2.13,1.23.36,2.16-1.48,3.67.18,1.16,1.28,2.39.24,2.46-1.87.01-.5-.02-1,0-1.5.08-1.77,2.14-7.09,3.31-8.09.29-.25,1.18-.03,1.64.25.37.22.5.84.73,1.29.1-.46.37-.94.29-1.36-.36-1.93-1.34-3.54-2.84-4.81-.79-.67-1.48-1.26-.15-2.14,1.98-1.31,2.33-3.7,3.55-5.51.93-1.39,1.57-1.25,2.47.43,1.79,3.37,1.82,3.47,5.13,4.16.73.15,1.98-.76,2.33-.45.84.75,1.68.8,2.67.93,1.42.18,2.1-.73,2.86-1.56.32-.35.49-.84.73-1.27.43.49,1.16.94,1.24,1.47.44,3.18.88,6.38.98,9.58.05,1.68-.55,3.4-.98,5.07-.07.29-.77.69-1.09.62-1.6-.34-1.77.83-2.19,1.84-.52,1.28-1.21,2.51-1.62,3.82-.11.34.44,1.06.86,1.33.36.23,1.14-.16,1.44.08,1.36,1.13,2.42,1.87,2.88-.72.08-.47.89-.81,1.36-1.21.24.57.46,1.14.71,1.71,1.08,2.48,1.19,4.98-.06,7.41-1.12,2.2-2.37,4.33-3.27,6.64-.75,1.93-1.94,3.39-4.32,3.14-.33-.03-.7-.1-.99,0-4.08,1.45-5.4,1.39-9.65-.48-.56-.25-1.18-.47-1.78-.5-.41-.02-1.06.24-1.18.54-.14.34.17,1.24.33,1.26,2.15.16,1.51,1,.43,1.8-.57.42-.93,2.11-2.13.61-.05-.06-.49.1-.67.25-.6.51,1.13,2.49-1.05,1.91-1.86-.49-.5,1.31-1.41,1.61-1.45.48-2.76,1.36-4.18,1.97-1.01.43-1.95-1.71-3.08-.18.01-2.87-3.52-.99-4.19-3.1-.12-.37-1.07-.52-1.66-.69-1.34-.39-2.7-.71-4.04-1.11-.7-.21-1.38-.5-2.06-.76.2.47.59,1.34.56,1.36-1.35.67-2.68.85-4.06-.09-.4-.27-1.53-.25-1.62-.06-1,2.3-3.98,2.9-4.64,5.5-.18.7-.9,1.25-1.37,1.87-.97-1.65-1.4.66-2.3.3-2.31-.91-3.18.89-3.82,2.46-.4.99.06,1.39-1.54.8-3.1-1.16-4.79-.18-6.57,2.5-.34.52-.58,1.1-.92,1.62-.55.84-1.8,2.08-1.59,2.41.96,1.5-.85,1.43-.98,2.2-.05.32-.08.77.09.98,2.45,2.84,2.2,2.94,3.49,6.03.78,1.86,2.28,3.42,2.06,5.65,2.09,1.23,1.89,3.23,1.87,5.24-.01,1.65.83.31,1.28.4.79.16,1.45,1.06,2.14,1.67.72.64,1.42,1.31,2.12,1.96.47-1.14,1.04-2.25,1.39-3.42.27-.93-.08-1.57-1.25-1.52-.8.03-1.74.12-2.38-.25-.61-.35-.91-1.24-1.34-1.89.48-.28,1.03-.49,1.44-.85,1.78-1.57,4.26-.87,6.2-1.95.27-.15,1.02.12,1.26.42.68.85,1.3,1.78,1.76,2.76.21.46.18,1.32-.12,1.65-.94,1.02-.67,2.13.31,2.34,1.04.23,2.4,3.5,3.5,0,.06-.2.89-.18,1.36-.21,2.17-.12,2.14-.11,2.29,2,.08,1.09-.39,2.27.68,3.23.85.76,1.23.96,1.34-.42.01-.18.67-.53.77-.45.53.4.91,1,1.45,1.36,2.44,1.61,2.85,1.52,3.71-1.35.67-2.24,2.64-3.26,4.02-4.82,1.28-1.44,2.48-3.2,4.94-2.62.25.06.95-.7,1.02-1.15.16-.97-.09-2.02.1-2.98.11-.56.67-1.19,1.19-1.44.28-.13,1.03.38,1.36.77,1.24,1.49,2.41,2.46,4.38.94.48-.37,1.96-.56,2.07,1.14.07,1.05.55,2.09.99,3.07.14.33.94.75,1.02.67,2.28-2.09,2.86,1.92,4.69,1.29-.07.24-.1.49-.21.7-.56,1.04-.57,1.04-.02,1.05,1,0,2.01.07,2.98-.07.22-.03.58-1.07.45-1.2-1.02-.97-2.1-2.51-3.25-2.59-2.71-.2-2.61-3.3-4.71-3.88.17-.41.35-.82.52-1.23,2.09,2.22,1.47-.13,1.44-.93-.05-1.72-.69-.59-1.34-.3-.41.18-1.07-.23-1.62-.37.29-.47.48-1.23.89-1.37,3.1-1.09,4.9-2.98,5.26-6.45.09-.88.42-2.31.95-3.03,1.8-2.46,1.03-4.19-.93-5.9-.63-.55-1.2-1.15-1.76-1.77-.13-.15-.1-.66-.1-.66,3.37-.47.29-2.5.8-3.26,1.02-1.54,2.49-2.99,4.1-3.86,1.24-.67,2.39.45,2.8,1.92.29,1.04.56,2.11,1.04,3.07.21.42.87.81,1.37.86,1,.11,2.25.15.77-1.34-.22-.22,0-.87.02-1.32.35.16.78.24,1.04.49.32.32.67.76.73,1.18.2,1.68,1.47.94,2.28.96.24,0,.62-.93.72-1.47.21-1.1.28-2.22.41-3.34.71.96,1.24,2.19,2.18,2.8.73.47-.12,2.57,1.28,1.56,1.05-.76,3.96.63,3.18-2.45-.06-.24.14-.62.32-.85,1.83-2.26,1.85-2.26,1.26-4.06-.14-.44-.48-.82-.56-1.26-.04-.23.2-.64.43-.78.25-.14.88-.17.93-.06.81,1.91,2.52,4.08,2.11,5.71-.7,2.82-.18,5.53-.5,8.25-.15,1.31.62,3.06-1.7,3.25-.13.01-.38.72-.29.81,1.43,1.4.3,4.25,2.98,5.03.99.29,1.85,1.28,2.59,2.11.28.32.05,1.1.06,1.67-2.07,0-1.71,1.51-1.61,2.73.04.49.45,1.07.87,1.37.17.13.99-.25,1.16-.58.42-.81.57-1.76.96-2.6.16-.34.67-.72,1.01-.71.33,0,.69.46.95.78.25.31.4.71.6,1.07.14-.44.31-.88.4-1.33.06-.32.15-.86,0-.97-3.36-2.25-1.23-3.84.48-5.72.42-.46-.2-1.79-.12-2.7.08-.92.71-1.84.61-2.71-.22-1.87.44-3.46,1.14-5.06,1.21-2.77,1.25-2.77-1.28-5.12-.84-.78-1.26-1.54-.19-2.41.38-.31.64-1.28,1.41-.39.44.5.9,1,1.42,1.4.41.32.94.7,1.4.68.58-.02,1.26-.29,1.69-.68,1.26-1.17-.45-3.37,1.44-4.39-.4-.18-.79-.43-1.22-.52-.73-.14-1.66.29-1.78-1.05-.11-1.13.2-2.1,1.14-2.49.78-.33,1.83-.32,2.66-.11.5.12,1.26,1.08,1.15,1.41-.77,2.3,1.51,2.11,2.4,2.93.44.41,1.7.44,2.25.11.87-.53,1.39-1.22,2.5-.32.54.44,1.49.41,2.27.48.23.02.51-.35.75-.56,1.51-1.35,1.46-6.17-.35-7.02-1.72-.81-2.9-2.03-4.11-3.3-1.22-1.27-2.38-1.54-3.8-.43-.14.11-.62.07-.66-.03-.13-.27-.26-.71-.13-.91.35-.54.78-1.05,1.27-1.47.52-.46,1.13-.82,1.7-1.22-.68-.52-1.37-1.48-2.05-1.46-1.08.02-2.13-.6-2.97-.46-4.63.78-6.07-3.33-8.81-5.42,1.21-1.42-.85-2.71-.17-4.1,1.02-2.08,2.05-4.15,3.14-6.2.31-.58,1.22-.6-.14-1.48-5.71-3.67-6.18-9.29-3.98-14.67.96-2.35,1.8-4.71,4.3-6.2,1.6-.96.68-3.54-1.33-3.98-.84-.19-2.13-.46-2,1.25.05.66.06,1.34-.02,2-.03.26-.37.68-.56.67-.45-.01-.94-.16-1.31-.41-.17-.12.04-.72-.13-.91-1.01-1.1-1.47-.89-2.01.89-.22.73-1.65,1.31-2.11.81-1.36-1.49-2.72-2.91-5.04-2.37-.22.05-.78-.4-.76-.44,1.4-3.32-4.06-3.1-3.16-6.14-1.79-5.21-.71-9.66,3.15-12.95.98-.83,1.66-.65,1.91.71.18.98-.07,1.74,1.47,1.94,1.45.19,2.75,1.37,4.2,1.85,1.13.37,2.22-.02,3.02-1.09,2.04-2.74,1.78-4.06-1.06-6.92-.51-.51-.73-2.07-.34-2.56,1.41-1.78,3.63-3.06,2.75-5.89,1.79.13,1.68-1.93,2.87-2.51.56-.27,1.09-.61,1.59-.98.39-.28.71-.65,1.07-.97.15.44.39.86.44,1.31.08.66-.1,1.36.05,1.99.25,1.06,1.85,1.79,2.94,1.08,1.2-.78,1.78-.25,2.45.51.74.84.49,2.73,2.57,2.12,1.02-.3,2.02,2.11,3.26.2,3.23,1.89,5.21-.23,7.26-2.22.17-.17.81-.16.94,0,.28.33.64,1,.5,1.23-.79,1.26-1.83,2.44-.33,3.85.45.42,1.01,1.65,1.43-.14.17-.71.82-1.41,1.44-1.85.24-.17,1.46.46,1.44.58-.38,2.22.84,2.5,2.58,2.31.66-.07,1.33.02,1.99-.05.12-.01.32-.62.27-.65-1.11-.75-.34-1.22.19-1.8.79-.86,1.02.38,1.42.33.71-.09,1.52-.35,2.04-.82.99-.9,1.62-2.34,2.73-2.93,1.32-.71,1.6-1.84,2.22-2.91.51-.87,1.32-1.34,2.49-1.21,1.32.14,2.66,0,4,.04,2.1.06,4.19.14,5.96-1.31.35-.29.79-.51,1.21-.69.88-.38,2.97.45,2.54-.65-.53-1.36-.1-3.25-1.89-4.24-3.52-1.95-6.59-4.55-9.44-7.38-3.05-3.02-3.08-8.55-.55-11.86.34-.44,1.07-.58,1.62-.87.23.53.43,1.08.7,1.6.26.49.5,1.24.9,1.36,4.04,1.16,4.95,1.14,8.65.03.52-.16,1.39-.57,1.38-.83-.14-3.14.96-1.81,2.09-.64.16.16.46.18.7.27.09-.3.34-.65.25-.88-1.25-3.45-2.02-6.98-1.99-10.68.01-1.86.54-3.52,2.01-4.65.98-.75,2.27-1.41,3.01.46.11.29.18.74.39.82,1.82.67,3.51-1,4.99-.67,1.35.3,2.25,2.22,4.22,1.85,1.14-.21,1.94-.95,1.36-1.88-.73-1.17-1.84-3-2.79-3-4.45-.02-5.98-3.55-8.1-6.26-1.15-1.47-1.86-3.25-3.24-4.66-1.47-1.51-2.18-3.5-1.83-5.72.03-.16-.07-.41.01-.49,2.4-2.18,2.78-5.72,5.3-7.79.28-.23.88-.07,1.33-.09,0,.57.22,1.28-.04,1.68-.77,1.21-1.81,2.24-2.57,3.45-.45.71-1.88,1.87-.73,2.3,1.09.41,1.83,2.2,3.77,1.02,2.11-1.28,4.67-2.03,7.32-1.6,1.36.22,1.75-.43,1.63-1.68-.08-.83-.33-1.88.06-2.45.55-.8,1.57-1.39,2.5-1.73.23-.08,1.23,1.1,1.36,1.8.23,1.29.39,2.77-.02,3.96-.44,1.27-1,2.16.48,3.08.36.22.63,1.37.42,1.61-1.04,1.15-1.3,2.19-.29,3.48.15.19.05.89-.15,1.01-1.56.96-1.49,2.48-1.34,3.95.11,1.13-.3,1.87-1.11,2.56-1.52,1.31-1.24,2.89-.41,4.4,1.71,3.1,2.01,6.08.66,9.54-.7,1.79-.15,4.1-1.16,6.02-.29.54-.42,1.18-.76,1.68-1.83,2.75-1.93,3.18-4.73,2.65-2.77-.52-4.03,1.72-6.13,2.31-.76.22.38,3.32,1.45,3.82,2.36,1.1,4.32,1.25,6.62-.09.89-.52,1.62-1.1,2.63-.89,1.55.32,1.79-.71,2.23-1.78.19-.46,1.03-1.08,1.34-.97.54.19,1.21.84,1.29,1.38.43,2.92-.01,5.84-1.05,8.54-.44,1.15-1.91,2.55-3.03,2.67-2.41.24-3.07,2.34-4.6,3.45-.1.07.35.89.55,1.36-.62.11-1.25.17-1.86.34-.74.2-1.49.43-2.19.74-.77.33-.73.32-3.14-.57-.73-.27-1.61-.12-2.43-.18-1.23-.09-1.33.72-1.19,1.59.28,1.73,1.48,3.09.17,5.28-1.1,1.84,1.62,3.82,2.12,5.93,1.23-.1,2.47-.21,3.7-.31-.24-2.1,2.21-1.4,2.82-2.74.65-1.44,1.25-.13,1.71.32.61.59,1.07,1.19,1.79.13,1.25-1.85,1.98-.53,2.68.51.98,1.45.94,1.45,2.01.02.39-.52.75-1.12,1.27-1.46,1.31-.83,2.7-1.52,4.05-2.27.89,1.6,1.96,3.13,2.58,4.83.24.67-.36,1.82-.86,2.57-1.07,1.61-1.13,1.57-1.34,4.85-.02.27-.4.7-.65.73-.82.09-1.68-.05-2.49.07-.55.08-1.35.32-1.53.71-.71,1.56-1.15,3.28-3.37,1.54-.14-.11-1.06.49-1.35.93-2.37,3.62-5.82,5.13-9.93,6.11-1.59.38-1.15.08-1.53-.84-.34-.85-1.88-.62-1.82.18.24,3.13-2.65,3.97-4.13,5.79-.45.56-1.78.45-2.72.55-2.13.22-3.5,1.3-3.99,3.35-.03.15.55.42.83.67.26.23.73.62.68.72-1.98,3.67-2.04,3.68-1.38,6.07.15.53,1.11,1.25-.14,1.14-2.59-.22-2.45,1.94-3.14,3.28-.34.66-.05,1.64-.06,2.47-.02,1.42-.81,1.9-1.79.94-1.34-1.3-2.09-.42-2.79.49-3.23,4.19-3.2,4.19-8.91,2.92-.79-.18-1.67-.11-2.49-.02-1.54.18-2.81-.53-2.93-1.89-.16-1.78-2.2-.63-2.41-1.95-2.23,1.27-2.4-.19-2.73-1.88-.38-1.96-2.6-3.24-2.07-5.7.12-.55-1.24-1.42-1.92-2.13-.73-.77-1.32-.46-2.09.07-.5.34-.68.13-.86-.76-.15-.72.34-1.93-1.01-1.75-2.12.29-3.5-1.38-3.83-2.56-1.15-4.1-4.21-3.48-7.1-3.42-.36,0-.94.73-1.01,1.18-.11.7-.37,1.58.96,1.82,1.34.24,2.64.85,3.91,1.4.43.18.72.68,1.07,1.03-.42.17-.83.39-1.27.5-.46.12-1.35.12-1.36.21-.15,2.32-1.89,1.64-3.22,1.85-.43.07-1.01.68-1.09,1.11-.1.56.25,1.2.4,1.8,1.63-.83,2.7,1.66,4.43.69,1.47-.82,2.36.97,3.47,1.05.77.05,1.66-1.27,2.46-2.03,1.15-1.09,1.57-1.14,2.28.62,1.03,2.56,2.83,4.7,3.47,7.59.48,2.17.63,3.64-1.07,5.19-.83.76-.29,2.12.81,2.74.65.37,1-1.53,1.69-.21.65,1.23,1.28,2.47,1.8,3.75.09.22-.37.86-.71,1.01-1.75.76-.42,2.89-1.73,3.83-.02.02.26.56.48.79.36.4.84.7,1.16,1.13,1.39,1.91,1.35,1.85,3.6.9,1.6-.67,3.22-1.18,5.08-1.08,2.43.13,2.43-.05,3.34-2.98.09-.29.25-.56.38-.84.35.28,1.02.56,1.01.82-.06,2.52,3.04,4.71.74,7.52-.41.51-.11,1.6-.14,2.42q-.09,2.58-2.67,3.12c-3.24.68-4.11,1.85-2.86,4.86.77,1.84.03,4.26,2.36,5.57,1.4.78,1.72.87,2.18-.81.15-.56.34-1.44.69-1.54,1.07-.31.95.83,1.39,1.33,1.18,1.33,1.18,2.24-.2,3.2-1.4.97-.94,2.41-.83,3.63.12,1.31.7.36,1.18.06.79-.5,1.7-.59,1.72.61.03,1.64-.23,3.28,2.03,3.63.05,0,.15.78-.01.92-.33.28-.87.58-1.24.5-.84-.16-1.74-1.82-2.37-.64-.66,1.25-1.95,2.52-1.22,4.37,1.11,2.81,2.06,3.16,3.81.78,1.27-1.72,2.04-3.81,3.06-5.72.63-1.18,1.25-1.93,2.77-.82.73.54,1.56-.46,1.21-1.43-.26-.72-.81-1.37-.91-2.1-.06-.42.54-1.34.82-1.33,2.45.06,4.77-2.49,7.3-.38.11.09.32.27.34.26.71-.69,1.41-1.58,2.39-.45.19.21.02,1.06-.25,1.29-1.4,1.13-3.02,1.29-4.06.26-.85-.84-1.4-1.21-2.17,0-.25.39-.71.66-1.09.96-.43.33-1.17.56-1.28.97-.22.83,1.5,1.69.03,2.62,1.59,1.58,3.05,3.43,5.58,3.39.98-.02,2.37.67,2.47-1.43.03-.56,1.74-1.39,2.71-1.43.75-.03,1.74.84,2.27,1.57,1.51,2.05,3.6,1.41,5.44,1.18,1.57-.2,2.08-3.02.72-4.01-2.01-1.46-3.89-3.44-6.81-2.86-1.56.31-1.57-.75-1.47-1.81.11-1.18.63-1.94,1.98-1.7.57.1,1.14.21,1.71.31-.23-.49-.58-.95-.67-1.46-.2-1.09.42-1.56,1.42-1.31.73.18,1.49,1,2.06.85.7-.18,1.13-1.21,1.81-1.64.74-.46,1.49-.5,1.74.74.08.4.92,1.04,1.22.95,1.06-.33.96-1.1.32-1.85-.11-.13-.34-.24-.33-.35.04-.57.14-1.14.22-1.71.51.24,1.38.4,1.46.74.23,1.03.34,1.67,1.31.49.25.39.63.75.73,1.17.19.77.23,1.58.33,2.37.35-.55.59-1.3,1.1-1.59.34-.2,1.48.15,1.53.4.18.96.24,2.02.05,2.98-.64,3.25,1.76,4.68,3.69,6.39.16.14.65.02.92-.11.11-.05.19-.56.09-.66-1.34-1.25-.42-2.83-.67-4.23-.27-1.54.5-2.66,1.9-2.92,1.65-.31,1.11-1.44,1.04-2.24-.1-1.29-.65-.51-1.16-.14-.77.57-1.54.64-1.78-.54-.38-1.85-.85-3.71-.95-5.59-.08-1.4-.25-2.48-1.4-3.46-1.21-1.03-1.1-1.68.72-2.19,1.34-.38.54-1.55-.23-2.24-1.04-.93-1.64-1.67.46-1.83.16-.01.26-.84.39-1.28-.56-.12-1.15-.42-1.67-.31-.41.08-.96.61-1.03,1.01-.27,1.67-1.25,1.95-2.73,1.8-.55-.06-1.16.36-1.72.61-2.24.97-2.21.96-.95,2.77.44.63.92,1.33,1.04,2.05.12.75-.17,1.57-.28,2.35-1.28-.25-.34-1.31-.68-1.88-.8-1.34-1.57-2.72-2.56-3.9-.27-.32-1.27-.04-1.93-.04.15.47.44.95.4,1.41-.04.54-.29,1.11-.63,1.54-.09.11-.97-.16-1.21-.47-.47-.6-.64-1.43-1.11-2.02-1.11-1.37-2.19-1.9-4.16-.93-1.58.78-3.2.84-3.09,3.19.02.39-.68,1.34-2.12.61-1.22-.62-3.29.73-4.92.56-1.44-.15-2.73-1.56-4.18-1.78-1.92-.29-5.18-1.39-5.39-2.8-.52-3.43-2.82-6.48-2.08-10.16.28-1.4.14-2.96.73-4.19.29-.61.99-2.97,2.71-1.04.19-.87.36-1.74.58-2.61.11-.45.31-.87.48-1.3.35.34.95.64,1.02,1.04.6,3.1,3.47,3.54,5.62,4.4,1.86.75,4.16.44,6.27.49.19,0,.31-.84.62-1.12.41-.37,1.18-.91,1.43-.76.79.47,1.47,1.75,1.61-.43.03-.51.78-1.02,1.27-1.45.64-.56,1.52-.09,1.67.85.03.16-.01.33,0,.5.39,3.19,1.65,4.4,4.36,3.33,1.37-.54,2.15-1.18,3.25.12.13.15.78.11.92-.06,1.7-1.97,2.19-.59,2.83.89.19.43,1.05.99,1.34.87.53-.22,1.25-.94,1.21-1.39-.09-1.05-.62-2.06-.9-3.1-.07-.26.08-.62.22-.89.03-.06.48,0,.67.13,2.24,1.47,2.4,4,3.03,6.23.3,1.08.02,2.32.07,3.48.01.28.28.54.44.81.18-.23.39-.44.53-.69.07-.13-.03-.34.02-.49.48-1.56-.89-3.39.98-4.82,1.32-1.01,2.22-2.54,3.37-3.78,2.16-2.33,2.28-2.39.43-4.8-.96-1.25-.84-2.12-.26-3.47,1.08-2.52.66-3.03-1.73-2.89-.7-1.46-2.38,2.92-3.01-.53-.12-.66-2.39-.81-1.82-2.65.06-.2-.22-.62-.45-.78-.77-.52-2.06-.79-2.31-1.46-.64-1.75-.97-3.64-1.18-5.51-.48-4.27,1.71-7.59,4.17-10.75.61-.78,1.4-1.43,2.11-2.13,1.74-1.73,1.71-1.7,3.56.12.39.38,1.11.43,1.68.64.07-.57.24-1.16.16-1.7-.07-.43-.76-1.03-.66-1.16.85-1.12.33-2.06.08-3.23-.22-1.05.3-2.67,1.09-3.42,1.29-1.22,1.64-2.64,2.12-4.18.2-.65,1-1.8,2.1-.41.33.41.59.2.77-1.15.14-1.07,1.24-1.57,2.07-.92.51.39.95.94,1.51,1.17.29.12.88-.24,1.18-.54.17-.16.05-.64.03-.97-.14-2.48-.07-4.78,3.44-4.51.09,0,.26-1.04.4-1.59-1.43-.32-2.27-1.02-1.89-2.66.03-.14-.71-.67-1.05-.64-1.53.16-1.95-.42-1.96-1.94,0-1.55.35-3.06-.78-4.69-.78-1.13-.83-3.8-.01-4.76,1.44-1.68-1.11-2.58-.14-3.79.26-.33.64-.55.93-.86.37-.39.71-.82,1.06-1.23-.51-.25-1.04-.76-1.52-.72-1.58.14-1.63-.84-1.43-1.86.09-.45.72-1.15,1.06-1.13,1.54.12,2.08-.46,1.91-1.97-.11-.99.1-2.02-.08-2.99-.07-.42-.8-1.1-1.13-1.05-2.87.45-4.71-1.65-5.43-3.46-.84-2.12-4.3-4.16-1.41-7.13,0,0-.61-.42-.64-.68-.07-.55.05-1.13.09-1.7.35.3,1,.88,1.02.85,1.47-1.52,2.19-1.25,2.91.77.31.87,1.38.11,1.96-.51.62-.64.99-1.5,2.2-.36.72.68,5.25-1.73,5.45-2.7.07-.32-.32-1-.62-1.08-.62-.17-1.35.07-1.98-.09-.5-.13-1.31-.61-1.3-.9.09-1.79.74-.5,1.32-.23.36.17.91.05,1.33-.09.28-.09.65-.42.69-.68.35-2.6,3.68-2.75,4.22-5.18.06-.29.37-.57.35-.84-.03-.63-.19-1.25-.3-1.87-.35.23-.69.62-1.06.67-.97.13-1.97.22-2.94.12-1.29-.13-1.65.41-1.84,1.6-.07.44-1.57,1.07-1.61,1.02-.85-1.16-1.42.52-1.8.24-.9-.67-.06-1.28.21-2.03,1.14-3.2-.23-5.62-3.63-5.67-2.36-.04-3.09-3.26-5.63-2.29-.01,0-.35-.53-.34-.81.08-1.71-1-2.92-1.76-4.28-.45-.8-.56-1.63.68-1.73,2.83-.23,4.45-2.82,7.03-3.59.5-.15.76-1.29,1.02-2.01.57-1.62,1.98-2.05,3.1-.79,1.05,1.18,1.9,2.54,2.86,3.8.15.2.46.28.7.42.12-.28.3-.56.34-.86.06-.49-.03-1,.03-1.5.06-.46.22-.9.34-1.36.35.26.74.48,1.06.77,1.72,1.59,2.7,3.49,2.63,5.92-.02.74.19,1.62.6,2.22.62.9.27,1.37-.26,2.11-1.27,1.78-2.39,3.67-3.56,5.51-.26.41-1.34.82-.15,1.27.56.21,1.34.1,1.92-.12.26-.1.28-.84.42-1.28,1.18-3.62,3.58-5.86,7.07-6.55,1.07-.21,2.4.49,3.17-.77.97-1.59,2.5-3.2,2.59-4.86.12-2.25,1.34-3.53,2.8-4.26,1.71-.86,2.46-2.12,3.51-3.56,1.89-2.6,4.35-4.78,6.36-7.36,1.27-1.63,3.83-2.19,5.35-3.69,1.4-1.38,2.19-3.39,3.26-5.11.8-1.28,1.99-1.48,3.42-1.43,1.73.07,1.59.51.54,1.5-.17.16-.21.78-.06.93.6.59,1.42.99,1.94,1.64.56.7-1.76,1.16-.26,2.32.58.45.53,1.73.76,2.63l4.77.29c1.1-.56,3.09.33,3.17-2.06.01-.33,1.49-.47,1.59.8v1q-.51,2.08-2.12,2.38c-1.76.34-3.05,2.01-2.58,3.41.19.58.46,1.14.7,1.71-.59-.08-1.43-.44-1.72-.18-1.11,1-2.25,1.51-3.76,1.9-1.18.31-3.25.76-9.51,8.33-6.23,8.3-4.32,9.12-2.85,10.6,1.61,1.63,2.89-.69,4.08.49.11.1.9-.47,1.36-.75.37-.22.69-.66,1.06-.7,2.22-.25,2.33-.22,2.31-1.79-.02-2.26,1.74-4.21,1.07-6.59-.08-.28.43-.84.79-1.13,2.08-1.65,1.27-2.5-.77-3.16-.42-.14-.81-.62-1.04-1.04-.29-.53.73-2.55-1.28-.84-1.02.87-2.63.9-2.85,2.8-.07.6-1.41,1.41-2.22,1.48-1.71.14-3.23.05-3.71,2.27-.33,1.49-2.82,2.05,4.05-1.64,7.15-5.55,8.77-6.04,9.39-5.46,2.05,1.93,2.95.58,3.54-1.04.72-1.99,2.2-.68,3.28-.99.15-.04.51.62.77.95-.68.52-1.34,1.08-2.06,1.54-.51.32-1.54.4-1.61.74-.18.85.06,1.78.13,2.68,0,0,3.54-.84,3.54-.84.11-1.62.99-1.01,1.27-.27.66,1.75,2.45,2.2,3.51,3.45.83.98,1.59,1.01,2.42.01,1.63-1.98,3.15-4.09,4.97-5.89,1.25-1.23.08-1.52-.41-2.16-.7-.91-2.73.7-2.65-1.17.04-.91,1.54-1.69,1.83-2.68.6-2.12,3.17-1.96,3.97-3.76.08-.19.67-.16,1.02-.23-.06.45-.05.93-.21,1.34-.81,2.12-.82,2.09,1.03,2.24,1.25.11,2.4.01,3.72.69,1,.52,2.84-.59,4.31-.97-.55-1.04-1.04-2.12-1.68-3.1-.61-.93-1.39-1.75-2.09-2.63,2.55.2,5.11.26,6.05,3.43.21.7,1.03,1.3,1.69,1.78,2.47,1.79,1.57,5.03,3.16,7.19-.99,1.72-1.93,3.48-2.99,5.16-.52.81-1.7,1.43-1.78,2.22-.07.71,1.13,1.47,1.44,2.33,1.27,3.59,2.69,7.3.39,10.94-1.26,2-1.14,4.09-.89,6.09.55,4.25-.36,8.61-2.71,12.07-.6.88-.97,1.58-2.08,2.08-6.38,2.9-12.29,2.41-17.64-2.2-3.19-2.75-6.8-2.34-10.47-1.76-.92.15-1.81.46-2.72.65-1.55.32-3.07-.26-4.77.57-1.23.61-3.58.17-4.79-.69-1.54-1.1-3.48-.16-4.5-1.16-1.33-1.3-2.21,1.32-3.2-.03-1.11-1.51-1.87-.27-2.81.28-1.05.62-2.6.72-3.29,1.57-1.86,2.3-4.26,1.15-6.43,1.46-1.49-2.12-4.18.02-5.83-1.62-.07-.07-.79.26-.79.41-.02,1.91-.37,3.91.98,5.56.5.61,1.11,1.52,1.73,1.57,2.41.19,4.45.56,4.33,3.65.31-.09.88-.16.89-.27.09-1.42.7-1.73,1.87-.97,1.05.69,2.49,1.19,3.01,2.17.66,1.24,1.04,3.03.65,4.31-.33,1.08-.38,1.53.22,2.49,1.04,1.69,1.73,3.6,2.52,5.43,1.06,2.46,1.59,4.77-.52,7.16-1.53,1.73-2,4.43-5.24,4.15-2.73-.23-3.52,1.99-4.03,4.1-.12.48.62,1.16.96,1.75,1.6-2.05,4.12-.36,6.23-1.71,2.56-1.63,5.24-2.69,6.52-5.75.43-1.03,1.49-1.79,2.86-1.43.44,1.24,2.3,2.48-.7,3.38-1.54.47-2.63,2.42-3.89,3.73-.13.14-.17.62-.1.66.26.14.63.28.89.21,2.27-.64,3.68-2.45,5.33-3.94.19-.17.91.11,1.29.34.17.1.28.69.15.87-.46.66-1.06,1.22-1.55,1.85-.13.16-.08.46-.12.69.96.07,1.95.27,2.88.13.33-.05.69-.88.79-1.4.2-1.1.24-2.22.34-3.34,1.25.46,2.53.83,3.73,1.4.56.27.91.95,1.44,1.34.21.16.78.18.92.03.17-.2.13-.65.09-.97-.38-2.6-3-2.99-4.52-4.47-2.08-2.03-2.87-2.11-5.97-1.53Zm-269.01,177c2,0,2.33-.27,1.97-2.26-.21-1.19-.77-2.33-1.21-3.48-.22-.57-.79-1.57-.71-1.61,1.99-1.26-.03-3.96,1.9-5.3.27-.19.05-1.78-.41-2.16-.45-.37-1.6-.23-2.25.09-1.6.77-2.73,2.93-2.26,4.2.48,1.29,1,2.61,1.76,3.75,1.23,1.84-.84,2.91-.83,4.48,0,2.05.05,2.29-15.33,1.69.81-.62,1.54-.99,2.01-1.57,1.68-2.05,2.93-4.31,5.54-5.66,3.15-1.62,5.98-3.91,7.57-7.36.33-.71,1.14-1.19,1.72-1.78,1.59,1.67,1.67.43,1.49-.84-.06-.44-.61-.94-1.06-1.17-2.05-1.06-4.13-2.05-6.22-3.01-1.15-.53-1.69-2.6-3.09-1.89-.85.43-1.02,2.13-1.6,3.2-.59,1.09-1.44,2.06-1.94,3.18-.5,1.12-.95,2.35-.99,3.55-.11,3.09-.61,5.92-2.83,8.34-.76.82-.89,2.27-1.18,3.46-.08.34.29.8,17.95,2.14Zm59.33,62.24c-.5-1.63-.82-3.35-1.53-4.88-.72-1.54-2.12-2.8-2.71-4.37-.65-1.73-.98-.36-1.48-.08-.47.26-.99.8-1.4.72-1.05-.19-2.06-.62-3.05-1.04-.15-.06-.24-.78-.11-.88.66-.53.73-2.38,2.37-.91.99.89,2.15-.4,2.26-1.08.25-1.52.01-3.13-.18-4.68-.04-.37-.6-.8-1.02-.99-2.37-1.08-2.38-1.06-2.46-2.05-.02-.33-.06-.68,0-1,.17-.87-.14-1.12-1.01-1.02-1.32.15-2.79-.53-3.32,1.7-.26,1.1-1.8,1.88-2.7,2.86-1.51,1.65-1.47,3.62.58,4.33,1.77.61,2.6,1.93,3.74,3,1.25,1.17,1.02,2.52-.41,3.71-.56.47-1.77.72-1.8,1.15-.19,2.29-2.64,4.94.88,6.79.48.25.61,1.11,1.05,1.52,1.49,1.36,2.87,3.13,4.65,3.8,1.42.54,3.45.72,5.02-.93,1.55-1.63,3.07-3.06-8.27-44.82-.13.13-.25.24-.36.36-1.55,1.62-3.69,2.89-3.08,5.73.2.95.14,2.01,0,2.98-.17,1.18.35,2.16,1.23,2.45,1.96.63,2.22,2.25,2.84,3.78.25.63.96,1.07,1.46,1.6,1.18-1.71,1.65.2,2.49.41,1.68.42,3.49,2.45,5.16-.05.09-.14.21-.29.35-.35,2.59-1.04,2.94-1.28,2.11-2.79-.86-1.56-.77-2.63.35-3.87.15-.17-.25-.84-.39-1.28-.52.21-1.36.29-1.5.65-.3.74.14,1.45-1.32.71-1.56-.79-3.52-.67-2.78-3.29.09-.33-.27-.91-.58-1.22-1.73-1.79-3.51-3.55-5.28-5.3-.2-.2-.46-.35,10.22,38.63Zm75.71-36.64c.04.14.16,1.45.7,2.56.61,1.26,1.52,2.4,2.46,3.45.26.28,1.21.26,1.63,0,.61-.37,1-.9,1.18.26.1.63.13,1.8.26,1.81,2.36.18,1.71,1.92,1.73,3.26.04,2.16.05,4.32,0,6.48-.04,1.62,1.53,2.98,2.18,2.46,2.29-1.84,2.66,1.93,4.34,1.14.09.23.33.57.25.69-1.59,2.49-.86,4.36,1.13,6.36.58.58.09,2.06,1.85,1.99,1.98-.08,2,.08,3.97,2.17.44.47.67.77,1.47.24.63-.42,2-.47,2.59-.05,1.03.74,1.57.72,2.48-.11,4.44-4.04,4.49-4.41.47-9.07-.11-.13-.24-.23-.35-.35-1.88-1.96-2.97-4.44-5.05-6.4-2.16-2.03-2.01-5.62-.67-8.55.81-1.77.06-1.92-1.36-1.94-.43,0-1.23-.32-1.23-.48.08-2.25-2.63-2.91-2.87-4.39-.36-2.12-1.75-3.05-2.93-4.3-1.28-1.37-1.82-1.12-2.24.88-.16.76.26,1.46-1.24.75-2.48-1.18-5.25-2.01-7.97-2.33-2.8-.33-2.87-.7,17.03-15.52.06,0,.11-.01.17-.02,0-1-.14-2.02.03-2.98.3-1.72-.69-2.69-1.7-3.81-.86-.96-1.28-.44-1.79.2-2.35,2.92-2.52,3.33-7.29,3.04-.66-.04-1.34-.07-1.99.02-.43.06-.83.32-1.24.5.23.23.45.49.71.7,3.1,2.53,5.33,5.9,5.11,9.76-.24,4.31,3.23,6.01,4.74,9.02,3.19.84,3.22,3.46,3.44,6,.03.34.31.67.48,1,.41-.59,1.04-1.13,1.17-1.77.1-.49-.63-1.1-.64-1.67-.07-3.32.12-6.65-.08-9.95-.2-3.35-.74-6.68-20.93,8.99Zm-156.03-133.87c0,1.17.03,2.33-.02,3.5-.01.26-.32.51-.49.76-.24-.24-.58-.43-.69-.71-.32-.87-.51-1.79-.82-2.66-.07-.21-.39-.35-.62-.46-.05-.02-.27.19-.34.34-.25.56-.48,1.13-.71,1.7-.71,1.75-.56,2.25,1.56,2.74,1.2.28,1.09.89,1.15,1.71.03.45.28.87.44,1.31.18-.4.52-.79.51-1.19-.01-1.11.04-2.03,1.55-1.77,1,.17,1.51-.18,1.55-1.31,0-.22.98-.41,1.5-.61.14.44.48.93.38,1.31-.19.73-.54,1.46-.96,2.09-1.4,2.08-1.16,2.39.04,4.18,1.19,1.78,3.49.77,4.58,2.35,1.03-.73,1.98-1.63,3.1-2.16,2.01-.95.62-2.15.23-3.06-.56-1.3-1.91-2.45-.34-3.85.65-.58-.02-2.23,1.6-1.93,1.28.24.63,1.28.8,1.99.07.3.14.69.36.84,1.56,1.08,1.67,2.59,1.7,4.33.03,1.7.33,3.51,1.03,5.04.47,1.02,2.12,1.35,2.49,2.71.47-.14.94-.28,1.41-.41v2c-.63-.17-1.26-.3-1.87-.51-.43-.15-.88-.34-1.24-.62-.51-.4-.95-.89-1.42-1.33-.16.77-.25,1.56-.49,2.3-.23.73-.83,1.39-.89,2.12-.2,2.61-1.12,1.03-1.79.33-.78-.81-1.23-1-1.31.4-.04.74-1.6,1.28-.12,2.24,2.53,1.64,3.43,4.52,4.97,6.92.75,1.17,1.47,2.4,2.44,3.38,1.02,1.03,1.63-.44,2.45-.71.15-.05.34-.03.5,0,1.01.18,2.18,1.86,1.67,2.55-.65.87-1.39.51-2.05-.17-.12-.12-.62-.11-.66-.02-.14.27-.29.69-.17.91,1.38,2.44,4.06,2.75,6.31,3.7,1.7.72,1.4-1.24,2.12-1.87.19-.17.65,0,.95-.1.5-.17.97-.42,1.45-.64-.02.45.15,1.15-.07,1.31-2.18,1.56,2.56,2.1.49,3.57.38.26.74.58,1.15.76,1.79.78,4.16.75,4.6,3.38.03.2.39.34.6.51.59-.89,1.08-.78,1.8-.03.51.53,1.33.76,2,1.15,1.27.73-.71,1.11-.2,1.7.42.49,1,1.25,1.44,1.21.7-.06,1.71-.55,1.94-1.13.54-1.31,1.01-2.85-.37-4.01-1.34-1.13-2.84-2.06-4.14-3.23-.54-.48-1.01-1.33-1.03-2.02-.02-.68.56-1.38.88-2.06-.63.18-1.29.56-1.89.47-.4-.05-1.1-1-1.01-1.12,1.22-1.88-4.35-1.92-1.13-4.24-.21-.19-.38-.48-.62-.56-1.18-.37-2.4-.95-3.57-.89-.53.03-.94,1.42-1.51,2.11-.28.34-.75.59-1.18.73-.23.07-.66-.1-.83-.3-.18-.21-.3-.7-.18-.88.23-.33.62-.69,1-.76,2.09-.39-.04-3.04,1.9-3.46-.31-.69-.46-1.53-.95-2.03-1.39-1.38-1.13-2.84-.59-4.45.72-2.16-.55-4.07-.97-6.08-.04-.21-.84-.26-1.29-.39.5-.21.98-.51,1.49-.61,1.09-.21,3.01-.02,3.18-.5,1.11-3.08,2.35-6.05,4.2-8.76-1.58-1.37.14-1.95.58-2.93.43-.98.82-2.69.32-3.22-1.27-1.35-.91-2.78-.86-4.18.09-2.3-.15-4.45-1.48-6.4-.16-.23-.06-.97,0-.98,2.55-.35,1.23-1.24.6-2.53-.73-1.5-.79-3.33-1.15-5.01-.1-.46-.23-.9-.35-1.35-.24.47-.36,1.13-.74,1.36-.44.27-1.44.42-1.62.18-1.25-1.6-4.62.63-4.83-2.69-3.31-.25-6.55-.91-9.76-1.74-.4-.1-.97.66-1.49.7-.96.07-2.2.25-2.85-.24-1.27-.96-2.28-.93-3.48-.11-.17.12-.58.16-.68.05-2.34-2.45-5.17-4.01-8.28-5.36-3.31-1.44-1.03-5.46-2.91-7.72,1.04-2.4,2-4.85,3.21-7.16.22-.42,1.49-.38,2.26-.33.15,0,.39,1.07.31,1.6-.24,1.6.22,3.11,1.45,3.26,1.49.17,2.4.64,2.78,2.16.67,2.65,3.61,1.49,5.07,2.88.08.08.78-.25.77-.37-.15-2.69,2.68-4.03,3.01-6.23.46-2.98,1.76-4.9,4.36-6.16.25-.12.3-.68.44-1.03-2.11-.44-2.05-3.06-3.83-3.82-1.58-.67-3.44-.22-5-1.26-.24-.16-1.44,1.09-2.17,1.72-3.85,3.32-7.24,4.58-12.43,4.11-1.78-.16-2.04.77-2.69,1.92-.81,1.43-.86,2.78-.07,4.06.5.81.76,1.38,0,2.09-.76.71-.39,1.26,0,2.09.79,1.66.65,1.74-1.48,1.42-.25-.04-.55-.38-.7-.31-2.89,1.43-3.48,7.14-.66,8.65,1.17.63,1.33,1.05,1.33,2.03,0,.83-.35,1.95.06,2.45,1.71,2.09,1.26,2.8-1.32,2.73-.22,0-.8,1.18-.64,1.43.54.82,1.23,1.73,2.09,2.1,1.32.56,2.24,1.07,1.82,2.72-.48,1.9.59,3.18,1.99,4.15,1.22.84.63,1.41.04,2.22-.16.21.28,1.22.41,1.22,1.39-.07,1.65.65,1.56,1.83-.08.99-.02,2-.02,3Zm41,105.49c-.02,3.1.19,3.25,2.97,2.3.44-.15.86-.51,1.28-.49.59.03,1.21.26,1.72.56.1.06-.25.83-.35,1.29-.41,1.89-2.74,2.73-2.63,4.92.21,3.99-2.87,6.83-3.76,10.44-.07.28-.45.48-.69.71-.18-.23-.49-.44-.52-.69-.07-.66.04-1.34-.05-1.99-.06-.44-.22-1.08-.53-1.21-.33-.15-.93.09-1.31.32-3.33,2.04-4.09,6.66-8.07,8.09-.12.04-.08.62-.07.94.05.89.02,1.62-1.21,1.6-2.94-.06-5.82-.01-6.99,3.58-.17.52-1.35.66-1.98,1.1-1.05.73-2.63-.27-3.52,1.34-.35.62-1,2.97-2.73,1.04-1.04.66-2.12,1.26-3.1,2-.31.23-.58,1.12-.44,1.24,1.66,1.49,3.41,2.88,5.1,4.33,1.18,1.02,1.67-.22,2.46-.6.31-.15,1.07.09,1.28.39,1.11,1.6,2.68,1.52,4.37,1.63,2.17.14,5.18-1.35,5.96,2.51.06.31,1.78.25,2.71.45.71.16,1.92.35,1.99.71.29,1.39.69,1.45,1.97.96,3.58-1.39,4.86-.63,6.16,2.85.91,2.45,2.04,4.83,3.24,7.15.3.59,1.01,1.99,2.07.47,2.58,1.95,5.08.2,7.61-.16.95-.13,2.49.09,2.75-.39.49-.91.26-2.22.3-3.36,0-.31-.04-.65-.17-.93-1.28-2.64-2.48-5.32-3.91-7.88-1.09-1.95-1.35-4.03-.07-5.77,1.89-2.58,1.76-5-.11-7.51-.44-.59-.76-1.48-.68-2.18.21-1.87.17-4.02,1.11-5.51,2.64-4.21-1.14-7.03-1.8-10.49-2.49-.03-.97-1.93-1.36-2.93-.48-1.26-1.91-2.51-.6-3.9,1.28-1.36.3-2.05-.55-2.78-1.16-1-1.12-1.83.04-2.8.89-.74,1.82-1.49.47-2.79-.77-.74-1.21-1.81-1.8-2.73-.68.79-1.53.98-2.56.99-.53,0-1.09.93-1.58.89-1.91-.18-2.85.38-2.42,2.28Zm185.03-51.69c-.28-.28-.44-.37-.5-.51-1.97-4.24-5.86-6.26-10.19-4.69-1.59.58-2.48.09-3.83-.11-3.02-.45-4.9-2.14-6.87-4.05-.54-.52-1.82-1.23-1.93-1.1-1.84,2.04-2.83.34-3.93-.8-1.52-1.59-3.34-2.38-5.56-2.29-.4.02-1.17-.51-1.16-.53.94-2.14-1.5-2.33-2.14-3.55-.78-1.49-2.9-2.04-5.1-1.86-1.23.1-2.14-1.02-3.76-.21-1.44.72-1.7-1.82-2.58-2.83-.76-.88-1.57-1.74-2.49-2.45-.4-.32-1.28-.52-1.65-.3-1.69,1.02-3.09,1.04-4.84-.12-1.23-.81-2.89.2-3.46,1.7-.22.58.03,1.4-.29,1.86-.44.64-2.34.16-1.63,1.66.25.54,1.67.49,2.52.8.58.21,1.09.59,1.64.85,2.44,1.15,2.8,1.27,3.63-.76.74-1.82,1.18-1.53,2.34-.55.69.59,1.59.97,2.44,1.3,2.64,1.01,2.65.99,4.48,4.66.07.14.22.33.35.34,2.87.26,1.48,1.92.88,3.05-.45.84-1.42,1.39-2.04,2.17-.26.32-.22.88-.32,1.33.57.08,1.4.43,1.66.19,1.67-1.61,1.63.8,2.5,1.03.25.07.57.92.51.97-.61.48-1.32,1.25-1.95,1.21-4.5-.28-6.98,2.84-9.7,5.55-.17.17-.04.64-.05.97.34,0,.69,0,1.03.02.35.02.73.01,1.06.12,1.75.59,3.53,1.03,5.15,2.06,1.87,1.19,3.64-.22,5.43-.66.16-.04.38-.07.49,0,1.53,1.06,2.38.7,2.9-1.11.2-.71,1.01-1.23,1.43-1.9.82-1.3,1.56-.81,2.11.12.69,1.19,1.08,2.57,1.82,3.73.92,1.44,3.43,1.62,4.58.44.29-.31.34-.84.51-1.28.17.42.4.83.5,1.26.52,2.15.68,2.29,2.23.94.92-.81,1.75-1.43,3.01-1.21,1.69.29,1.9-.66,1.79-2.02-.07-.93.3-1.06,1.07-.44.59.47,1.42.64,2.02,1.1.89.68,1.76,2.18,2.46,2.08.92-.13,1.67-1.48,2.5-2.3.71-.71,1.37-1.47,2.14-2.09.32-.26,1.12-.44,1.29-.26,1.52,1.57,2.75-.88,4.15-.23.31-1.42.93-1.97,2.26-.88.14.12.68-.26,1.11-.43Zm-219.03,10.25q0-3.24,3.59-3.77c.32-.05.79.09.95-.09.61-.65,1.05-1.07,1.82-.11.56.71.99,1.22.28,2.09-.91,1.13-.88,2.18.11,3.43,1.18,1.49,1.43-.6,2.35-.4.98.21,1-.56.28-1.02-1.59-1.03-1.29-1.9.04-2.87.18-.13.17-.71.07-1.02-.31-1.02-.7-2.01-1.06-3.01-.69.33-1.4.95-2.08.92-.69-.03-1.44-.6-1.99-1.11-.81-.76-1.34-1.02-2.48-.32-1,.62-2.81.16-3.54.89-.73.73-.59,2.36-.81,3.59-.19,1.09-.16,2.26-.58,3.25-.41.98-1.45,2.52-2.44,1.58-1.48-1.4-2.22-.37-3.32.14-.26.12-.78-.34-1.19-.54.29-.47.52-1,.9-1.39.16-.17.64,0,.97-.04.55-.07,1.45.05.66-.96-1.72-2.21-3.05-2.54-5.14-.86-1.88,1.51-3.3,3.56-5.6,4.58-.36.16-.8.8-.74,1.14.32,1.91-.93,1.66-2.14,2.29-1.61.84-2.55-.55-3.75-.17-1.43.45-1.78,2.16-3.28,2.72-1.28.47-2.36,1.55-3.49,2.4-.77.58-1.43,1.34-2.24,1.84-.59.36-1.36.43-2.05.62.35.69.72,1.36,1.05,2.06.64,1.33,1.78.9,2.83.82-.12,2.19,2.66,1.48,3.16,3.1,0,.03.82-.02.99-.24,1.43-1.84,2.32-1.08,2.86.62.63,2,2.19.93,3.26.96,1.21.03.58-1.24.77-1.94.2-.74.33-1.57.76-2.16.32-.44,1.05-.62,1.64-.75.1-.02.41.72.59,1.13.87,1.97,1.64,3.99,2.64,5.89.47.89,1.46,1.55,2.34.39.56-.74,1.48-.54,2.18-1.44,1.32-1.7,3.57-2.67,5.44-3.92.03-.02.21.24.34.33,2.1,1.54,1.98.06,2.09-1.43.08-.97,2.22-3.19,3.84-4.38,2.6-1.92,2.4-1.85,1.24-5.15-.4-1.15-2.45-2.71-.15-4.17.09-.06-.3-1.21-.42-1.2-1.98.15-1.49-1.26-1.55-2.33Zm-29.33-251.78c1.58.24,2.67-.08,2.4-2.29-.1-.81,1.55-1.1,1.76-.29.6,2.33,3.02,2.55,4.34,4.07,1.27,1.45,3.27,2.36,5.1,3.21,1.54.71,2.79,1.22,2.81,3.31.02,1.45,1.29,2.29,2.79,1.97,2.57-.55,3.31.87,3.61,2.98.11.77.32,1.52.54,2.27.08.28.42.76.48.73,1.15-.42,2.28-.9,3.42-1.37-.2-.19-.38-.41-.6-.58-.43-.34-1.24-.62-1.26-.97-.15-2.23-.11-4.39-.95-6.61-.71-1.88.7-3.69,2.06-5.03,1.37-1.35,2.54-3.96,5.14-1.6.07.06.3.09.34.04.72-1.03,1.51-2.02,2.08-3.13.21-.42-.08-1.12-.2-1.68-.13-.6-.58-1.23-.48-1.77.45-2.29-.82-3.68-2.32-5.06-1.22-1.12-2.34-2.36-3.55-3.5-.24-.23-.69-.23-1.04-.33.03.45-.04.94.12,1.34.27.72.7,1.37,1.03,2.07.16.34.26.7.39,1.06-.45,0-1.05.17-1.33-.05-1.34-1.1-2.34-1.47-2.32.85.01,1.08-.4,1.41-1.44,1.41-.53,0-1.14.33-1.55.7-.31.27-.36.83-.53,1.26-.17-.43-.32-.86-.51-1.28-.54-1.24-.77-3.03-1.72-3.59-1.61-.96-3.3.48-4.93,1.04-.06,2.3-1.77,1.82-3.14,1.83-1.08.01-2.28.39-2.41-1.54-.03-.5-1.59.82-3.07.08-1.87-.93-3.78,1.62-3.01,3.66.61,1.61.51,2.71-1.46,3.08-.75.14-1.45.65-2.19.7-1.32.09-1,.99-1.07,1.75-.11,1.16.53,1.4,1.51,1.29.33-.04.66,0,1.17,0Zm234.76,321.32c-.55-1.04-1.03-1.99-1.53-2.92-.96-1.77-2.69-3.51-2.75-5.3-.14-4.24-3.91-6.79-4.33-10.77-.01-.12-.22-.3-.35-.32-.32-.04-.71-.1-.97.03-.24.12-.5.53-.46.76.07.44.28.9.56,1.25.6.78.74,1.52-.31,1.87-.29.1-.99-.51-1.25-.94-.64-1.07-.89-2.31-1.23-3.5-.32-1.11-1.14-1.58.66-1.49,0-.34.16-.86,0-1-1.47-1.23-2.98-2.41-4.52-3.55-.35-.26-.87-.44-1.3-.43-2.07.05-4.36-.63-5.83,1.64-.06.09-.54.06-.67-.07-1.84-1.86-3.09,1.28-4.78.56-.11.45-.47,1.14-.3,1.32,1.79,1.85,3.47,3.78,4.94,5.89.88,1.27,2.11.58,3.16.59,1.31.02.74-1.17.85-1.89.05-.33-.03-.67.02-1,.05-.3.19-.58.3-.87.23.28.49.53.69.83.68,1.05,1.71,2.04,1.93,3.18.56,2.82.76,5.71,1.07,8.57.16,1.46.86,1.64,1.9.81,1.37-1.09,1.36.7,2.09.93-.18.47-.36.94-.54,1.41.57-.19,1.26-.25,1.67-.62.43-.38.88-1.08.84-1.6-.14-1.87,1.55-2.4,2.4-3.52.14-.19.7-.29.88-.16.33.23.7.64.74,1.01.1.99.12,2,.02,2.99-.37,3.68.62,6.14,3.37,7.76.5.3,1.34.34,1.89.14.43-.16.67-.86,1.19-1.61Zm-260.83-45.13c.58-.29,1.03-.43,1.39-.71,3.15-2.36,6.83-3.97,9.69-6.71,2.54-2.44,5.33-4.43,8.58-5.81,1.13-.48,2.29-1.11,3.16-1.96,2.67-2.61,6.01-3.85,9.41-5.04.72-.25,1.82-.79,1.87-1.28.12-1.36-1.21-.3-1.7-.71-2.19-1.8-5.18-3-5.03-6.61.02-.43-.27-.88-.42-1.31-.35.31-.71.62-1.06.94-.36.34-.91.65-1.03,1.07-.59,2.15-2.11,2.64-4.1,3.25-1.96.6-3.9,1.87-4.66,4.35-.44,1.43-1.87,2.52-2.71,3.86-.81,1.3-1.53,2.69-2.12,4.11-1.8,4.34-6.1,5.84-9.52,8.25-1.26.89-2.48,1.31-2.35,3.03.03.4.34.77.58,1.28Zm206.4-34.03c0,.56-.06,1.07.01,1.56.2,1.49,2.46,4.5,2.55,4.13.31-1.23.3-2.54.45-3.82.03-.3.21-.58.32-.86.35.24.78.42,1.04.74.29.34.4.83.64,1.23.65,1.07,2.07,2.33,1.83,3.12-.43,1.47-2.24.46-3.43.75-.45.11-1.03.14-1.29.44-.38.44-2.25,1,.1,1.65,1.54.42,1.09,2.73.62,3.33-.85,1.07-1.25-.73-1.98-1.1-.42-.21-.69-.72-1.09-1.01-.13-.1-.45.06-.69.09.59,1.9-2.28,1.12-2.05,2.54.34,2.05-.71,2.21-2.28,2.08-.73-.06-1.8-.35-1.74,1,.03.62.08,1.65.39,1.76.69.24,2.22.03,2.22-.01.02-2.74,3.19-1.04,3.86-2.76.44.23.88.45,1.32.68-1.96,2.68,1.44,4.01,1.55,6.17.55-.15,1.48-.2,1.56-.48.22-.77-.01-1.65.1-2.47.16-1.22.92-1.06,1.75-.64.34.17.7.27,1.06.4.44-2.38,4.33-4.2,1.17-7.17.25-1.71-.09-3.33.84-5.16,1.21-2.39,2.92-4.42,4.05-6.8.16-.34-.23-1.27-.62-1.49-.99-.55-2.65.88-3.27-1.04-.78-2.39-1.32.96-2.44.09-1.03-.81-2.38.29-3.51.88-.26.14-.67.08-.99.01-2-.45-2.31.63-2.06,2.18Zm121.21-182.59c-.54-1.19-1.04-2.3-1.54-3.42-.7.6-1.33,1.34-2.12,1.76-2.02,1.04-1.89,4.68-5.13,4.18.08.35.16.7.24,1.05.89,3.77.49,5.02-2.49,5.78-1.61.41-3.24.15-1.42,2.37.02.03-.5.7-.69.67-1.7-.32-.55,2.85-2.56,2.05.17.79.22,1.63.54,2.35.5,1.14.9.1,1.29-.18,2.29-1.65,2.86-1.59,5.47.05.75.47,1.76.53,2.65.77.48-2.44,4.14-2.34,4.13-5.1,0-1.13-.24-2.31-.64-3.37-.13-.34-1.11-.37-1.7-.53-1.3-.36-1.61-1.01-.83-1.88.77-.86,1.75-1.56,2.42-2.49.89-1.24,1.57-2.64,2.39-4.05Zm-308.8,97.76c-1.49.86-2.26,1.05-2.43-.53-.1-.94-2.1-2.11-.38-2.69,2.38-.8,1.51-1.5.47-2.56-.93-.94-1.85-1.9-2.82-2.8-.26-.24-.69-.31-1.04-.46-.9,2.82-2.66,1.69-4.4,1.02-1.16-.45-.82.64-.76,1.02.25,1.53.85,3.04.91,4.57.08,1.85-.1,2.05,1.32,2.04,1.58-.02,2.72,2.03,4.47.83.32-.22.7-.34,1.05-.5.03.45.26,1.07.06,1.32-1.03,1.23-1.65,2.02.67,2.52.94.2,1.72,1.37,1.53,2.78-.16,1.19.71,1.24,1.59.97.88-.27,1.76-.56,2.62-.88.27-.1.49-.34.74-.51-.27-.16-.55-.29-.79-.48-1.31-1.02-1.25-2.44.31-2.9,1.15-.34,2.46.18,2.78-1.74.11-.68,1.18-.55,1.76.43.96,1.62,1.07,1.55,1.97-.15.15-.28.42-.49.6-.75.77-1.09.59-2-.83-1.84-2.58.3-5.72-1.39-7.63,1.9-.07.12-1.37-.48-1.75-.61Zm324.59-114.41c0-1.32.1-2.17-.02-2.97-.21-1.39-2.24-2.63-3.34-1.9-1.32.87-2.23,2.43-4.16,1.97-.83,1.48-1.63,2.97-2.48,4.43-.61,1.06-1.58,2.02-1.81,3.14-.14.67.71,1.68,1.31,2.35.95,1.05.44,1.72-.36,2.42.62.5,1.65.91,1.78,1.53.34,1.49.97,1.1,1.35.28.91-1.99,1.96-3.53,4.48-3.48.67.02,1.46-.53,2.02-1.02.8-.69,2.05-1.42.69-2.73-.15-.15-.28-.57-.19-.67.54-.62,1.46-1.11,1.62-1.8.12-.52-.71-1.26-.89-1.55ZM117.31,288.03c.13-1.64-.86-1.57-2.03-2.05-1.92-.79-3.25-1.02-4.39.9-.77,1.29-1.61.87-2.6.28-.2-.12-.98.28-1.1.59-.5,1.26.37,2.86,1.74,3.66,1.64.96,3.23,1.97,5.29,1.77.27-.03.84.82.88,1.29.04.53-.21,1.36-.61,1.59-.78.46-1.87.4-2.59.91-.62.44-.9,1.36-1.32,2.06.69-.3,1.35-.68,2.07-.85.4-.1,1.04.01,1.32.29.99.99,2.01.93,3.08.26,1.06-.67,2.34-1.21,3.03-2.17.47-.66.23-1.96.01-2.91-.07-.29-1.09-.44-1.69-.52-2.6-.33-2.66-.4-1.83-2.91.24-.73.51-1.46.77-2.19Zm236.13,39.99c-.58.12-.83.1-.87.19-.09.21-.2.52-.11.69,1.27,2.3,2.47,4.65,3.9,6.85.58.9,1.19,1.45.25,2.47-.31.33-.14,1.1-.19,1.67.57-.09,1.26,0,1.68-.29.92-.66,1.14-.16,1.01.56-.16.87-.8,1.69-.82,2.55-.04,1.43.1,1.43-.99,1.06-.34-.11-.7-.17-1.06-.25-.03.32-.18.69-.07.95.65,1.5,2.98,1.56,3.95.02.65-1.03.85-2.35,1.55-3.32.78-1.09,1.95-2.39,2.51.28.03.13.68.31.89.2,1.25-.66,1.4-1.97.95-2.97-.19-.42-1.68-.35-2.58-.32-.4.01-.75.57-1.18.73-.23.09-.77-.06-.84-.24-.17-.4-.29-.95-.14-1.32.17-.43.69-.7,1.01-1.08.53-.64,2.35.02,1.82-1.63-.43-1.32-1.71-.43-2.55-.73-.72-.25-1.39-.92-2.08-.93-2.2-.05-3.5-.32-1.38-2.61.17-.18-.21-.86-.33-1.31-.23.15-.48.28-.7.44q-1.84,1.37-2.93-.42c-.27-.45-.52-.91-.71-1.24Zm-293.39,43.72c-1.66.53-3.03.84-4.28,1.41-.95.43-.92,1.36-.13,1.91,2.04,1.42,4.11,2.79,6.27,4.01.88.5,4.87-.33,6.7-.88.76-.23,1.63-.12,2.45-.07,1.41.09,6.89-.62,7.64-1.1.14-.09.24-.54.15-.66-.29-.4-.63-.87-1.05-1.01-.24-.08-.75.67-1.02.6-1.34-.36-2.2,2.19-3.33.84-1.28-1.52-2.17.3-3.16-.05-2.6-.93-5.22-1.8-7.5-3.45-.85-.62-1.84-1.04-2.73-1.54Zm265.47,34.37c0-.06-.01-.12-.02-.18-1.43.21-2.86.42-4.29.62.78,1.49,2.24,1.53,3.64,1.81.41.08.99.64,1.02,1.02.15,2.01,2.11,2.33,3.24,3,2.61,1.54,4.43,3.42,5.19,6.35.15.58.55,1.1.87,1.64.15.26.35.48.53.72.16-.27.44-.53.45-.81.06-1.92-.59-3.77-.81-5.6-.47-3.85-4.22-5.17-5.45-8.28-.09-.23-.88-.25-1.34-.27-1-.04-2-.01-3-.01Zm-137.37,9.74c-.58-1.79-1-3.96-2.51-5.96-.98-1.29-1.56-2.54-3.1-1.55-1.09.7-3.11,1.08-2.42,3.31.34,1.08.65,2.25.58,3.36-.15,2.38-.02,2.77,1.9,3.1.78.13,1.59.11,2.34.33,2.21.63,3.17.02,3.21-2.58Zm22.49-32.74c1.2-.53,3.47,1.3,3.71-1.64.01-.15.96-.47,1.26-.31.56.29.92.94,1.45,1.33.25.19.69.12,1.04.17.02-.32.12-.68.03-.97-.17-.54-.32-1.2-.71-1.55-1.18-1.06-2.49-1.98-3.71-2.99-.76-.63-.77-1.31-.08-2.07.15-.17-.03-.64-.05-.97-.44.13-1.01.14-1.3.42-1.2,1.19-3.99,2.47-4.03,2.07-.32-2.91-1.7-.58-1.75-.24-.24,1.75-.35,3.56-.18,5.31.05.53,1.11,1.16,1.82,1.38.75.24,1.64.05,2.51.05Zm151.5,6.17c0,1.33-.05,1.83.01,2.33.05.46.22.9.34,1.35.35-.25.68-.55,1.06-.75,1.36-.72,2.77-1.37,4.09-2.16.31-.18.43-.82.46-1.26.02-.21-.33-.56-.58-.66-.79-.31-2.16.67-2.35-.92-.11-.94.12-1.92.25-2.87.05-.36.25-.71.38-1.06-2.61-.94-1.81-4.57-4.49-5.6-.79-.31-1.21-1.61-1.79-2.45-.23.9-.23,2-.76,2.66-.8.99-.7,1.51.05,2.49,1.44,1.85,2.65,3.87,3.89,5.86.13.22-.15.68-.22,1.04-.17.94-.33,1.88-.35,2.02Zm-118.8-18.19c-.51-1.97-1-3.27-2.77-4.22-1.62-.87-3.8-.65-4.97-2.65-.49-.85-1.98,1.6-3.02-.05-.15.77-.66,1.72-.38,2.28,1.06,2.08,1.43,4.67,3.73,5.91.79.43,2.28.99,2.58.67,1.12-1.19,2.41-.77,3.66-.96.44-.07.81-.66,1.17-.98Zm46.41,55.01c3.3.03,4.25-1.64,3.08-3.77-.45-.83-1.3-1.46-1.66-2.31-1.26-2.98-1.22-2.81-3.99-2.97-2.12-.12-3.06,1.35-3.89,2.57-.81,1.18.87,1.88,1.57,2.69.76.88,1.55,1.77,2.48,2.45.97.72,2.13,1.19,2.41,1.34Zm-55.59-112.79c1.29-.25,2.71-.35,2.73-.56.17-2.04,1.93-2.24,3.15-3.12.71-.51-.17-2.37-1.06-2.53-1.38-.25-2.86.59-4.16-.74-1.17-1.19-2.74,2.25-4.05-.12-.88.51-2.21.84-2.51,1.59-.35.89-.2,2.74.4,3.12,1.78,1.12,3.88,1.72,5.5,2.37Zm-125.67-176.84c.39,2.42,2.32,2.79,3.48,3.91.75.72,1.76,1.45,2.73,1.57.74.1.05-1.66,1.55-1.95,1.75-.34.77-2.17.83-3.29.07-1.55.05-3.19,1.81-3.54,2.38-.47.62-1.17.17-1.61-1.99-1.96-4.71-1.69-6.44.62-.15.2-.05.83.15,1,.46.39,1.09.58,1.57.94.33.24.81.87.75.94-.33.41-.78.96-1.23.99-1.64.12-3.3.02-4.95.07-.23,0-.45.36-.42.33Zm274.42,164.37c-.59-1.61-.92-2.81-1.46-3.88-.67-1.32-2.08-.54-3.08-.89-1.3-.46-2.43,1.68-3.67.1-1.17,1.13-2.39,2.23-3.45,3.45-.16.18.34,1.4.62,1.43,1.87.24,3.67-.23,5.4,1.5,1.97,1.98,2.29,1.68,4.41-.46.49-.5.99-.99,1.24-1.25Zm-199.73,53.27c.96,0,1.46.02,1.96,0,2.15-.09,2.95-.77,2.98-2.86.05-3.9.3-3.06-3.11-3.14-.66-.02-1.53-.27-1.96.05-1.32.98-2.45,1.36-3.73-.01-.09-.1-1.13.36-1.12.53.07,1.25-.34,2.46.63,3.73,1.34,1.76,2.98,1.8,4.36,1.7Zm-22.11-218.28c-.81.33-1.37.57-1.93.8.35.68.7,1.36,1.05,2.03.42.81,1.78.06,2.07,1.55.21,1.09,1.55,1.97,2.41,2.92.32.36.67.72,1.09.95.25.14.73-.1.96.05,1.29.85,2.97-.1,4.24.94.15.13.85-.25,1.16-.54.16-.15.15-.75-.02-.92-1.84-1.86-3.57-3.89-5.67-5.42-1.55-1.14-3.59-1.6-5.36-2.35Zm-25.78,273.91c-1.08.99-2.22,1.85-3.07,2.95-.2.26.6,1.3.97,1.97.3.54.95,1.1.89,1.58-.17,1.4.69,2.13,1.56,2.83.58.46,1.6,1.15,1.97.94.97-.55,1.74-1.49,2.46-2.39.18-.23-.02-.94-.25-1.29-.33-.5-1.15-.89.11-1.22.44-.12,1.59.14.8-.85-1.02-1.28-2.26-2.39-3.48-3.5-.43-.39-1.06-.56-1.95-1.01Zm265.85-182.82c-.05,3.69.72,4.12,4.25,2.43.69-.33,1.45-.59,2.02-1.06,1.07-.88,1.21-2.78.02-3.27-2.24-.92-3.12-2.9-4.47-4.54-.24-.29-.96-.46-1.28-.31-.3.14-.64.95-.5,1.18,1.22,1.91-.33,3.76-.04,5.57Zm-15-6.44c0,2.15,0,2.11,2.75,1.65.81-.14,1.67.04,2.49-.03,2.13-.19,2.8-.99,2.75-3.11-.05-2.02-.84-2.79-3-2.87-1-.03-2.08-.25-2.97.07-.79.28-1.59,1.07-1.96,1.84-.33.67-.07,1.63-.07,2.47Zm4.48-11.38c-.13.37-.61,1.07-.43,1.34,1.14,1.68,2.35,3.31,3.67,4.85,2.69,3.15,2.8,3.08,5.63,0,.87-.95.82-1.55-.05-2.44-2.18-2.24-5.29-2.46-7.89-3.75-.13-.07-.33,0-.92,0Zm-196.22,227.41c-1.5-.88-1.96-1.38-2.4-1.38-2.52.04-2.95-1.5-2.88-3.54.02-.45-.21-.9-.33-1.35-.23.47-.36,1.22-.72,1.36-2.71,1.06-4.05,2.5-1.97,5.33.13.18-.25.88-.54,1.22-1.47,1.7,1.34,2.34.9,3.77.23-.12.58-.19.66-.37.83-2.04,2.69-2.69,4.5-3.47.75-.32,1.44-.8,2.79-1.57Zm62.47-60.41c.13-.03,1.2-.27,2.27-.51-.33-.85-.75-1.68-.97-2.56-.15-.62.13-1.38-.08-1.95-.16-.42-1.14-1-1.22-.93-1.68,1.52-3.05-.29-4.52-.47-.56-.07-.98-.58-1.41.14-.31.53-.89,1.25-.73,1.62.48,1.12,1.7,2.07,1.83,3.17.17,1.46.79,1.55,1.87,1.49.66-.04,1.32,0,2.97,0Zm-94.74,27.24c.22-2.42-1.55-3.15-3.13-4.32-1.83-1.36-2.72-.6-3.98.6-.47.45-1.49.3-2.23.51-.25.07-.62.41-.61.61.02.44.12,1.03.42,1.27.59.46,1.3.89,2.02,1.01.45.08,1.09-.31,1.49-.67.3-.27.36-.82.53-1.24.17.42.45.84.48,1.27.07.98-.11,1.99.05,2.95.21,1.28.69.34,1.19.1.54-.26,1.23-.36,1.83-.3,1.4.12,2.24-.21,1.94-1.78Zm102.01-5.37c-.15-.27-.22-.65-.45-.79-2.37-1.38-4.76-2.76-7.18-4.04-.28-.15-.9.16-1.26.41-.17.12-.23.76-.09.89,1.53,1.38,2.18,2.98,2.06,5.11-.06,1.02,2.17,1.81,3.66,1.56,1.22-.21,3.28-2.19,3.26-3.13ZM88.16,186.49c.04,1.66,1.05,2.99,2.67,2.55,1.65-.45,3.22-1.09,4.96-1.13.13,0,.28-.83.32-1.28,0-.09-.57-.38-.62-.32-1.45,1.43-1.5.3-1.22-.75.14-.55.93-.9,1.31-1.43.17-.24.06-.68.07-1.03-1.29.61-2.23-2.37-3.77-.32-.5.66-1.56,1.23-2.38,1.24-1.63.03-1.36,1.01-1.34,2.45Z"/><path d="m411.09,128.98c1.02,3.3-.98,5.68-3.68,7-2.17,1.06-4.42,3.55-7.36,1.53-2.29.64-4.88.43-6.8,2.04-2.93,2.46-6.27,3.55-10.04,3.57-.62,0-1.67,0-1.8.32-.9,2.07-3.14,1.42-4.59,2.36-1.39.9-3.04,1.59-4.95,1.44-.54-.04-1.43,1.52-1.78,2.49-.96,2.62-3.57,3.44-5.33,5.18-.22.22-1.21-.07-1.63-.4-.46-.36-.75-1-.96-1.57-1.14-3.07-1.22-3.17-3.27-.99-1.09,1.15-1.53.76-2.55-.06-1.96-1.56-4.68-2.05-6.2-4.29-1.79-2.65-3.38-5.45-6.63-6.72-.54-.21-.85-1.28-1.05-2-.14-.51.07-1.13.13-1.7.52.21,1.2.29,1.53.67.94,1.04,1.71,2.23,2.59,3.32.89,1.09,1.51,1.26,1.47-.51,0-.12.56-.4.63-.34,2.11,1.85,2.65.15,3.36-1.41.59-1.29,1.27-1.23,2,0,.57.95,1.2,1.91,1.99,2.66,1,.95,2.52.71,3.39-.34,1.02-1.23.87-3.27-.33-4.1-1.55-1.07-3.2-2.01-4.67-3.17-.96-.75-2.32-1.59-.71-3.17.25-.24-.31-1.83-.89-2.27-.96-.73-2.75-.79-2.7-2.3.06-1.7-2.9-.57-2.08-2.59-.76-.17-2.15-.58-2.19-.47-1.02,2.64-3.26,1.85-5.17,1.99-.23.02-.61.43-.59.63.03.44.3,1.26.43,1.25,1.43-.1,1.62.68,1.57,1.84-.02.4.32.82.5,1.22.24-.24.54-.44.69-.71.3-.53.46-1.16.79-1.67.58-.88,1.37-.86,1.96-.07.46.6.67,1.38,1.03,2.06.26.49.48,1.18.9,1.36.76.33,2.27-.46,2.05,1.22-.2,1.53-1.61.53-2.41.85-.28.11-.45.53-.73.65-1.12.45-2.34,1.25-3.38,1.08-.61-.1-.93-1.8-1.44-2.75-.3-.55-.66-1.46-1.06-1.5-2.91-.29-4.35-2.59-6.26-4.28-.5-.44-.85,1.26-1.79.25-.85-.92-1.77-.79-1.87.74-.08,1.15.18,2.4-.21,3.42-.49,1.27-2.12,2.21-.83,3.85-1.15,2.38-3.38,2.97-6.12,1.92-2.67-1.02-5.06-2.55-7.17-4.34-2.3-1.95-4.77-.54-7.1-1.04-1.19,1.66-3.01,3.17-3.45,5-.91,3.8-4.02,4.62-6.76,5.94-1.93.93-4.05,1.54-6.15,2.01-2.01.44-2.97,1.9-4.04,3.36-.92,1.26-1.74,2.68-2.93,3.63-1.24,1-2.75,2.39-2.04,3.52,1.02,1.64.79,3.16.73,4.7-.06,1.7-.76,3.38-.9,5.09-.14,1.81,1.15,2.38,2.83,1.35.41-.25.75-.66,1.06-1.05.71-.89,1.13-.1,1.4.32,1.46,2.27.61,4.83.53,7.21-.03,1-1.47,2.64-2.44,2.77-2.21.3-4.16,1.67-6.58,1.19-3.08-.61-4.36,1.25-4.04,4.35.38,3.61.49,7.34.04,10.93-.23,1.84-1.87,3.52-2.97,5.22-.19.3-.86.28-1.29.45-1.06.41-1.93-1.62-3.28-.1-.42.48-2.2.04-3.2-.37-1.14-.46-2.07-1.41-3.16-2.04-.52-.3-1.25-.59-1.78-.46-2.41.58-4.79-2.59-7.18-.04-1.7-1.62-3.98-.72-5.93-1.35-2.25-.73-3.11-2.57-4.01-4.31-.82-1.59-1.83-3.27-.13-5.21.84-.96.68-2.75,1.42-3.86.7-1.06,2.15-3.17,2.7.27,2.33.8,4.2,2.71,6.98,2.52,2.37-.16,4.85-.51,7.11.89.38.23,1.45-.04,1.72-.42.32-.44.3-1.33.09-1.9-.21-.57-.82-1.01-1.29-1.46-.68-.63-.99-1.23-.27-2.08,1.22-1.43,1.13-3.62.37-4.59-1.77-2.27-.37-3.96.29-5.8.29-.82,1.19-1.29-.01-2.23-2.53-1.97-2.01-4.91-2.03-7.63,2.73-3.12.13-5.86-1.17-8.16-1.28-2.27-3.24-4.22-4.42-6.69-.52-1.09-1.48-1.48-1.45.44,0,.02-.79.19-.93.03-.36-.41-.48-1.31-.85-1.41-3.97-1.02-5.89-4.31-7.82-7.33-1.75-2.73-2.28-5.92-.53-9.07,1.12-2.03,2.09-4.13,3.22-6.16.31-.56.88-1.31,1.4-1.37,4.44-.51,5.38-4.88,8.14-7.22.85-.72.49-1.47-.24-2.04-3.38-2.62-1.73-6.01-1.28-9.11.32-2.2,3.52-4.8,6.34-5.74.58-.2,1.15-.43,1.74-.63,1.43-.48,4.08-2.82,4.87-4.22.38-.68.84-1.85,1.31-1.87,2.77-.12.92-3.23,2.66-3.94.03-.01-.13-1.01-.44-1.23-1.56-1.13-1.41-2.71-1.61-4.38-.47-3.97.92-7.71,1.09-11.59.1-2.21-.34-3.92-1.96-5.74-2.75-3.08-3.5-7.11-2.97-11.17.14-1.09,1.64-1.95,2.2-3.06,1.52-3.01,4.79-2.82,7.25-4.1.28-.15,1.02.42,1.41.8.1.09-.27.86-.58,1.12-.33.27-1.12.19-1.25.47-.65,1.41-3.09-.54-3.06,1.53.03,2.02-1.02,4.42,1.35,5.9.88.55.08,2.46,2.04,2.16,2.55-.39,2.65-.16,1.92,2.1-.37,1.14-1.39,2.35.89,2.95,1.16.3,1.15,1.41-.15,1.81-1.56.47-.98,1.43-1.06,2.27-.01.15.69.55.75.49.98-.9,1.99-1.79,2.83-2.82.73-.88,1.14-.64,1.81.06,1.06,1.11-.3,1.28-.66,1.75-.22.29-1.09.13-1.26.42-.27.45-.47,1.32-.22,1.63.49.61,1.84.11,1.79,1.73-.05,1.43-.78,1.48-1.72,1.78-.23.08-.24.85-.36,1.3.57.09,1.18.35,1.69.23.41-.1.71-.66,1.07-1.01.41-.39,1.23-1.22,1.15.03-.18,2.58,3.41,3.85,2.11,6.69-.01.03.41.25.63.39.11-.29.17-.61.35-.85,1.01-1.4,1.04-1.4,1.99.12,1.14,1.84,1.13,1.83,2.91.49.74-.56,1.99-2.62,2.38-3.82.1-.29.36-.66.63-.75,1.18-.39,2.47-.53,3.55-1.08.85-.43.87-1.61-.07-1.86-.95-.25-1.4-.38-1.42-1.46-.05-2.29-2.31-3.02-3.42-4.57-.35.32-.72.9-1.06.88-.51-.03-1-.47-1.5-.74.36-.4.66-.96,1.11-1.16.64-.29,1.77.4,1.88-.92.08-.93-1.37-2.33-2.24-2.09-1.64.44-3.28.93-4.82,1.62-.87.39-1.65.7-1.85-.38-.13-.73-.72-2.03.94-2.28,1.54-.23,3.06-.66,4.59-.97,1.96-.4,2.31-1.09,1.73-3.2-.14-.52-.15-1.25.11-1.67.43-.69,1.27-1.12,1.69-1.81.72-1.18,1.25-2.47,1.86-3.72-1.4-.2-2.85-.71-4.18-.5-1.13.18-2.43,1.08-.86,2.61.14.13-.27.83-.43,1.27-.51-.24-1.46-.47-1.46-.72-.02-1.71-1.34-1.45-2.08-1.17-.78.29-1.83,1.15-1.89,1.85-.16,1.7-.73,3.68,1.25,4.94.65.42.91.97-.22,1.12-.33.04-.68-.06-.99.02-.6.16-2.85-.86-3.15-1.34-.34-.55-.79-1.06-1.29-1.46-.71-.55-.63-.9.02-1.45,1.39-1.16,1.95-3.12,3.82-3.86.28-.11.52-.88.41-1.25-.08-.3-.71-.64-1.08-.62-.94.04-1.88.26-2.81.42-.57.1-1.14.25-1.71.38.2-.47.39-.94.59-1.41-.44-.14-.97-.18-1.3-.45-.31-.26-.62-.79-.56-1.16.04-.31.62-.8.93-.77,1.55.12,3.31-.69,4.57.91,1.28-.94,2.54-1.9,3.84-2.81.23-.16.62-.15.94-.13.47.03.94.14,1.4.22-.17.35-.26.83-.54,1.04-1,.76-2.09,1.41-3.08,2.17-.17.13-.16.64-.08.93.06.21.38.34.59.51.78-1.25,2.03-.81,3.13-.88,2.59-.16,2.86-.28,1.76-2.84-.72-1.68.33-1.03.91-1.14.32-.06.84-.15.97,0,1.85,2.37,4.24,3.03,7.22,3.26,2.33.18,4.48,2,6.84,2.66,3.54.99,5.75,3.03,6.57,6.62.17.73.79,1.36.95,2.1.3,1.35-.01,1.95,1.15.18,1.55-2.36,3.89-4.14,7.17-3.87,1.82.15,3.66,0,5.5.04,1.03.01,1.23.24.77.88-.28.39-.92.76-1.38.74-.75-.04-1.47-.43-2.22-.61-.31-.08-.8-.16-.98,0-1.52,1.44-3.7,1.65-5.31,2.87-.4.3-.42,1.1-.61,1.67.44.15.98.18,1.3.46,1.11.97,1.72-1.86,2.81-.33.64.89,1.25,1.81,1.82,2.75,1.45,2.39,3.79,1.51,5.81,1.51,1.5,0,2.21-1.06,2.24-2.63,0-.56.39-1.24.82-1.62.56-.49,1.34-.74,2.03-1.09-.76-.82-1.41-1.8-2.31-2.42-.59-.4-1.54-.24-2.31-.44-.16-.04-.35-.63-.25-.83.18-.36.75-.92.84-.86,2.9,1.73,6.07.8,9.11.91,2.2.08,3.65,1.67,5.6,2.25.86.26,1.27.8,2.47.37,4.35-1.56,8.27,0,10.96,3.79.66.93,1.79,1.57,2.31,2.55.71,1.34,1.98,2.54,1.67,4.3-.78,4.46.72,8.54,2.3,12.54,2.84,7.23-2.71,14.79-8.57,15.27-1.71.14-3.46.44-5.07,1.02-1.64.59-2.14,2.95-4.24,3.03-1.75,2.44-4.33,3.72-6.94,4.96-2.56,1.21-4.23,3.5-6.34,5.25-1.54,1.28-3.46,2.11-5.13,3.25-.78.54-1.57,1.24-.6,2.4,1.19,1.42,1.07,3.5.33,4.6-1.22,1.8-.44,3.52-.72,5.23-.19,1.16.86,1.68,1.48,1.13,2.92-2.62,6.43-1.55,9.72-1.99,1.45-.19,2.44,1.02,3.87.56,1.2-.38,2.54-.49,3.81-.43,1.23.06,3.18-1.03,3.32,1.59,0,.15,1.15.26,1.77.36,2.39.38,4.92-.82,7.23.66.18.12.81-.17,1.02-.43,2.27-2.88,4.34-5.94,6.78-8.66,2.07-2.29,3.04-4.79,2.97-7.79-.05-2.45.82-4.64,2.05-6.64.68-1.1,1.79-1.94,2.7-2.89.08,1.13.19,2.26.25,3.39.04.66,0,1.33,0,2,0,2.17-.82,1.01-1.51.37-.16.43-.57,1.15-.45,1.25.68.59,1.81,1.62,2.18,1.42,2-1.1,4.8-.13,6.29-2.61.56-.93-.17-.99-.38-1.45-.66-1.41-1.66,1.09-2.07-.14-.3-.9-.16-1.99-.04-2.97.19-1.54-.72-1.54-1.81-1.54-.39,0-.77-.34-1.16-.53.35-.35.67-.96,1.07-1.02,1.6-.23,3.28-.62,4.82-.36,2.74.47,5.61.96,7.68,3.1.75.77,1.2,1.82,1.79,2.74,1.53-1.73,1.96.32,2.82.83.94.56,1.86,1.16,2.77,1.77.27.18.48.46.71.7.35.35.95.66,1.02,1.07.82,4.37,5.49,6.51,6.29,10.91.16.88.61,1.81,1.19,2.48m-123.23-32.56c1.67-3.51-2.44-6.74-2.19-10.79,0-.1-.21-.24-.35-.32-1.79-1.06-3.34-2.41-4.84-3.82-.23-.22-1.02-.16-1.28.07-.27.24-.4.94-.24,1.29.62,1.41,1.17,2.94,2.14,4.09,1.11,1.31,2.65,2.25,3.97,3.38.32.27.53.66.8.99-.43.33-.87.95-1.29.94-1.22-.04-1.44.46-1.86,1.58-.98,2.68-1.19,4.21-.03,7.8.28.86.39,1.63-.87,1.67-.83.03-1.67-.02-2.5,0-2.57.08-2.68.06-3.41,2.92-.42,1.66-.86.31-1.4.31-.81,0-1.66.57-2.4,1.04-1.69,1.08-1.73,2.47.01,3.43,2.57,1.41,5.19,2.76,7.9,3.85,1.07.43,2.45.15,3.68.08.42-.03.89-.67,1.21-.58.57.17,1.2.58,1.5,1.08.15.25-.21,1.12-.57,1.34-1.31.8-2.7,1.51-4.11,2.13-.48.21-1.46.29-1.64.03-1.59-2.33-4.41-1.47-6.5-2.52-.94-.47-2.48.18-3.73.42-.61.12-.43.9-.26,1.75.48,2.51.85,4.97,4.17,5.11.21,2.06.98,2.15,2.47.86.28-.24,1.32.38,2,.61.24-.81.43-1.64.73-2.43.09-.22.52-.42.79-.42,1.46.02,2.8-.13,4.13-.94.61-.37,1.86-.49,2.07,1.18.12.93,1.3,2.45,2.44,1.55,1.57-1.24,3.14-.69,4.7-.78,2.48-.15,2.48-.07,2.77-2.55.16-1.41,2.27-2.25,2.56-1.22.5,1.76,2.26,1.59,2.9,2.74.83,1.5,1.94,2.95,1.54,4.85-.11.52.17,1.32-.97.72-2.72-1.45-4.89-.17-6.8,1.72-.96.96-3.09,2.21.31,2.78.1.02.25.48.19.67-.19.58-.85,1.36-.66,1.66.78,1.26,1.2-.83,1.73-.37,1.31,1.15,3.11-.49,3.58.06,1.71,1.98,4.36-.26,5.88,1.66.25-.23.7-.46.71-.7.13-2.45-.7-4.62-2.03-6.64-.26-.39-.56-1.06-.4-1.38,1.74-3.44,2.84-7.25,4.73-10.5,1.69-2.91,2.79-5.62,2.74-8.89-.03-1.79-.27-3.59,1.6-4.89.41-.29.35-1.92-.06-2.57-.71-1.13-.77-1.99-.14-3.12.36-.66.59-1.5.56-2.25-.1-2.05.74-3.61,1.89-5.24,1.51-2.14,2.83-4.47,3.85-6.88.43-1.01.25-2.62-.28-3.63-1.08-2.06-1.61-4.1-1.47-6.42.05-.82-.37-1.67-.58-2.5-.47.8-.79,1.77-1.45,2.37-.86.78-.99,1.62-.94,2.64.02.49-2.69,9.32-3,9.74-.76,1.03-1.38,2.42-2.42,2.94-2.56,1.29-4.21,3.17-5.67,5.6-1.02,1.71-2.62,3.21-4.74,4.03-1.21.46-2.92.73-3.16,2.54-.29,2.18-2.81.1-3.47,1.89-.31.85-1.5,1.34-2.01,2.17-.64,1.04-1.2,2.22-1.35,3.4-.07.51.99,1.15,1.52,1.76,1.04,1.19,2.62,1.97,2.35,4.05-.27,2.07.62,2.37,2.21,1.06.32-.26.91-.3,1.36-.27.45.03.88.26,1.32.41-.38.19-.77.35-1.13.57-1,.62-2.32,1.06-.98,2.66.23.27-1.18.56-1.84.03-.44-.36-1.15-.41-1.55-.8-1.27-1.22-2.25-2.38-2.62-4.44-.46-2.61-1.66-5.73-3.61-7.24-1.89-1.45-1.36-2.21-.17-2.61,2.1-.71,2.11-2.03,1.97-3.69-.06-.66,0-1.33,0-2.8Zm99,42.28l-2.48-3.37c-.57.22-1.31.29-1.67.7-.82.94-1.39,2.09-2.19,3.05-.19.23-1.17.22-1.25.06-.27-.54-.38-1.2-.37-1.82,0-.27.43-.54.66-.8.68.79,1.15,1.1,1.33-.35.15-1.17-.45-1.83-1.18-2.53-.28-.27-.42-.69-.63-1.04.45-.07.93-.27,1.34-.18.71.16,1.72.92,1.99.69.67-.56,1.08-1.49,1.41-2.35.28-.72,0-1.87.46-2.27,1.86-1.62-.81-2.43-.54-3.89.31-1.69,2.76-2.12,2.11-4.14-.09-.29-.17-.6-.25-.89-.25.23-.56.42-.74.69q-1.66,2.41-3.77.79c-.44-.34-1.01-1.26-1.2.03-.26,1.77-2.88,2.45-2.07,4.66.02.06-.55.46-.59.42-2.57-2.3-.52,2.33-2.13,1.42-.86,2.56,1.23,1.38,2.15,1.81.38.18.6,1.1.54,1.65-.05.46-.68,1.27-.94,1.23-2.8-.48-4.48,1.05-6.38,2.81-2.82,2.62-2.94,2.72-1.71,5.96.39,1.03,2.34,2.37.2,3.67.39.47.79.94,1.18,1.41.24-.26.45-.55.71-.79.41-.36.83-.71,1.28-1,1.12-.72,2.25-2.34,2.94.57.24,1.02,2.55.46,2.73-.81.15-1.06.02-1.96,1.56-1.82.54.05,1.23-.31,1.68-.69.99-.85,1.63-2,3.22-.55.63.57,2.65-1.36,2.59-2.33Zm-31.83-70.39c-.89-.3-1.77,1.88-2.66.01-.59.58-1.21,1.13-1.75,1.75-1.25,1.42-2.44,2.19-3.75,2.77-1.83.8-4.32.13-5.47,2.44-1.15-1.6-1.64.07-2.49.42-1.67.68.18,1.95-.74,2.92-1.47,1.56.51,2.92,1,4.28.14.4,2.35.29,3.52.02,2.25-.51,4.66-.81,6.89-.66.4.03.99-.53,1.26-.96,1.23-1.97,2.86-3.61,3.74-5.93.45-1.2,2.31-1.87,2.65-3.81.4-2.29.03-3.29-2.19-3.25Zm11.47,17.74c-.68-2.36-.88-4.67-2.01-6.38-.77-1.17-2.93-2.2-4.28-1.99-1.51.23-2.8,1.91-4.18,2.96.98,3.01-2.11,3.7-3.17,5.55-.38.66-.75,1.35-.96,2.08-.07.22.49.89.59.85,1.14-.4,3.04-.7,3.21-1.4.41-1.68.61-1.34,1.62-.48,1.6,1.35,1.65,1.07,6.53.7,1.44-.11,1.57-1.17,2.44-1.58.2-.1.29-.44.2-.29Zm-52.65-23.41c.06-3.09-.84-4.42-3.18-5.33-.71-.28-1.88-.39-2.06-.87-.67-1.82-1.98.05-2.94-.73-2.1-1.72-1.38,1.29-2.37,1.61-2.44.8-2.52,2.86-2.38,4.9.03.39.73,1,1.15,1.03,1.08.06,2.2.34,3.19-.73.53-.57,1.24-.28,1.67.81.9,2.32,3.25.14,4.67,1.19.31.23.79.55,1.03.45.42-.18.88-.6,1.04-1.02.22-.58.18-1.26.19-1.32Zm98.14,71.15c-.17-.46-.19-1.06-.5-1.3-1.44-1.1-2.64-2.38-3.82-3.75-.7-.82-1.93-.91-2.83.29-1.14,1.53-2.37,2.99-3.64,4.42-1.09,1.23-2.91,2.44.38,3.09-.05.23-.16.47-.13.7.19,1.98,1.1,2.71,2.23,1.68,1.13-1.03,2.2-1.55,3.79-1.72,1.41-.15,2.74-1.28,4.03-2.08.3-.19.32-.84.48-1.32Zm-137.95,62.52c1.36,0,1.7-.05,2.02,0,1.63.27,1.84-.58,1.85-1.98,0-1.71-1.84-3.41-.07-5.16.07-.06-.18-.62-.4-.78-.89-.63-1.8-1.23-2.74-1.76-1.51-.85-5.49-.21-6.71,1.08-.17.18-.18.65-.09.92.08.26.41.63.61.62.44-.02,1.01-.13,1.28-.43.75-.83.99.01,1.43.31.81.55.47.97-.1,1.42-.26.2-.48.46-.71.7-2.17,2.33-2.15,2.69.62,4.02,1.24.6,2.62.9,3.01,1.03Zm125.19-65.99c.32-.17,1.96-.51,2.34-1.39.79-1.83.96-3.94,1.25-5.95.07-.52-.22-1.39-.61-1.6-.5-.26-1.57-.28-1.87.06-.93,1.05-2.46,1.61-2.6,3.41-.06.76-2.01.45-1.79-.15.83-2.23-1.79-2.14-2.14-3.59-.41-1.65-1.94-.54-2.95-.75-.27-.06-.87.42-.95.75-.32,1.24.19,2.26,1.23,2.95.64.42,1.33.92,2.05,1.03,1.42.21,1.66.91,1.74,2.25.14,2.52.78,2.95,4.31,2.99Zm-50.24-64.28c-.16-.6-.19-1.1-.41-1.49-.63-1.14-4.67-1.96-6.34-1.04-1.47.8-2.06,2.06-.41,3.49.25.21-.02.96.04,1.45.19,1.59,1.3,2.57,2.32,1.78,1.2-.93,2.36-.84,3.62-.94.31-.03.58-.42.87-.64-1.99-1.04,1.16-1.75.3-2.59Z"/><path d="m210.89,15.07c-2.48-1.08-2.6,2.31-4.48,2.28.2.8.55,1.61.51,2.4-.02.27-1.05.47-1.61.71.28.67.96,1.79.79,1.94-1.35,1.2-.52,2.1.46,2.52,1.41.59,2.76,1.52,4.5,1.24.65-.11,1.96.3,2.01.63.38,2.35,1.84,1.42,2.89.96,2.26-1,4.24-1.29,6.15.75.85.9,2.24.54,2.69-.59.29-.71.22-1.56.36-2.35.08-.45.25-.89.37-1.34.35.27.73.52,1.05.82.72.69,1.47,1.36,2.11,2.12,1.9,2.24,1.88,2.25,3.45-.08.08-.12-.04-.44.03-.47.41-.2.93-.57,1.27-.47,1.24.39.11.78-.04,1.24-.48,1.43-.13,1.76,1.21,1.75,1.38-.01,2.13-.78,2.49-1.87.25-.75-.03-1.65.07-2.47.07-.58.31-1.56.59-1.6.74-.11,1.65,0,2.28.38.83.51,1.33,1.55,2.17,2.02,1.19.67,2.77,1.69,3.8,1.36,1.71-.55,3.36-.79,5.11-.89,1.43-.08,2.57-2.04,2-3.29-.57-1.26-2.5-1.8-1.98-3.67-1.06.18-1.88-.81-2.59-.86-1.46-.1-2.49-.5-3.38-1.59-.63-.78-1.32-.75-2.07-.06-.16.15-.63-.05-.96-.09.47-1.83-2.67-1.14-2.12-3.02-2.25-1.35-3.95-3.84-7.07-3.39-.65.09-1.58.3-1.95-.03-2.36-2.1-3.74-.07-4.53,1.41-.72,1.34-.45,3.19-2.81,2.64-.1.57-.3,1.13-.28,1.69l-12.49-.73Zm36.07.4,6.73,4.7c.75,1.35,1.48,2.71,2.09,4.13.2.47.06,1.13-.04,1.69-.16.92-.7,1.88-.55,2.73.46,2.63-1.39,4.45-2.09,6.66-.1.32-.66.54-1.05.72-1.06.49-4.86,3.07-5.26,3.9-.67,1.38-1.28,2.83-1.61,4.32-.29,1.32.41,3.07-1.89,3.13-.65,2.88-2.71,5.11-3.34,8.15-.53,2.59-2.6,4.89-4.1,7.25-.52.82-1.37,1.45-2.09,2.13-.69.65-.72,1.17-.24,2.09,1.27,2.42,1.88,5.04,1.62,7.82-.18,1.88-.34,3.39-2.54,4.47-2.1,1.02-2.45,3.86-3.43,5.96-.07.16.23.63.47.75.26.14.65.07.98.03.13-.02.31-.19.35-.33,1.44-4.41,4.62-4.17,8.2-3.2.7.19,1.59-.48,2.36-.41.72.07,1.45.98,2.08.88,4.02-.59,5.5,2.17,6.37,5.12.25.84,1.84,1.91.48,3.31-.25.25.79,1.75,1.22,2.67.1.22.28.61.2.68-1.63,1.52-2.22,4.25-5.13,4.29-2.54.04-5.36-.81-7.19,1.96-.1.15-.65.08-.97.01-1.53-.31-3.04-.85-4.59-.94-1.53-.09-2.7-.4-3.94-1.48-1.24-1.09-2.75-.73-4.4.25-2.65,1.56-5.68,1.99-8.56.17-.67-.42-1.89-1.13-1.81-1.41.62-2.09-1.76-2.23-2.15-3.59,1.78.2,2.85-.66,2.97-2.37.16-2.38-.28-4.85,1.65-6.83.28-.29.26-1.27-.02-1.64-2.69-3.59-2.84-7.68-2.62-11.9.19-3.76-1.14-7.01-3.24-10.14-1.26-1.88-1.88-4.19-2.73-6.33-.52-1.31-1.63-2.14-2.19-3.58-1.2-3.09-.79-6.12-.72-9.13.05-2.11-.55-3.73-2.19-4.57-2.88-1.47-4.07-4.37-5.33-6.76-1.21-2.3-1.58-5.61.44-8.29.66-.87,1.03-2.01,1.81-2.72,1.45-1.32,1.62-2.96.92-4.42-2.95-6.12,1.81-12.6,7.87-14.36,2.78-.81,5.46-1.96,8.15.05,1.41,1.06,3.24,1.97,3.98,3.42,1.05,2.05,2.57,2.82,4.41,2.48,1.96-.36,3.64,2.16,5.58.32,2.88.44,7,2.21,9.53,4.62,1.66,1.58,3.53,2.58,5.55,3.51l6.73,4.7Zm-7.55,68.41c0-.8.14-1.29-.02-1.44-.99-.92-1.95-1.94-3.11-2.57-.71-.38-1.76-.17-2.66-.15-.35,0-.92.41-1.02.3-1.64-1.79-2.94-.07-4.31.43-.41.15-.85.91-.83,1.37.11,2.23,1.6,3.68,3.04,5.2,1.42,1.5,1.86-.82,2.92-.64.48.08.99,0,1.49.02,1.88.04,1.96-.74.95-2.05-.79-1.03.22-1.02.68-.9.57.14,1.03.79,1.6.9.43.08.96-.34,1.27-.47ZM214.65,1.83c-.96.35-1.86.61-2.69,1.02-.28.14-.62.85-.51,1,1.24,1.67,2.52,3.31,3.88,4.89.25.29,1.18.48,1.28.34.97-1.36,2.36-.86,3.63-1,.24-.03.67-.65.63-.71-1.13-1.54-2.22-3.15-3.55-4.51-.58-.6-1.69-.68-2.66-1.03Z"/><path d="m192.76,286.77c-.23-2.29-.37-4.16-.63-6.02-.42-3.02.84-7.2,2.87-8.95.43-.37,1.12-.43,1.68-.64.15.44.51.92.42,1.3-.54,2.25.97,3.67,2.45,4.41,1.89.94,3.4,3.02,6.06,2.3,1.51-.4,4.11.44,1.63-2.44.82-1.17,1.77-2.54.13-3.54-1.14-.7-2.68-.74-4.04-1.07-.3-.07-.69-.05-.89-.23-.2-.18-.31-.56-.29-.85.02-.28.2-.76.39-.79.63-.13,1.79-.31,1.88-.1,1,2.37,2.86-.69,3.94.69.26-.21.76-.46.73-.62-.12-.76-.37-1.5-.6-2.24-1.01-3.33.85-7.98,3.87-9.55.12-.06.68.33.74.58.36,1.68,1.31,1.48,2.77,1.53,1.14.03,2.3,1.6,3.34,2.59,1.21,1.15,2.66,1.01,4.09.97,1.89-.06,3.75,1.05,5.67.03.62-.33,1.37-.41,2.07-.61-.64-.47-1.29-.93-1.91-1.42-2.39-1.87-4.76-3.76-7.15-5.64-1.21-.95-1.03-1.75.02-2.8.99-1,1.67-2.29,2.51-3.43,1.07-1.46,2.43-1.64,3.03-.1,1.02,2.59,2.7,3.58,5.23,2.93,2-.51,2.18,1.18,3.11,2.03.81.74,1.71,1.66,2.7,1.84.93.17,2.01-.76,3.03-.77,1.8-.02,3.09-.31,3.59-2.38.25-1.04.7-.57.97.24.34,1.02.78,2.03,1.35,2.93,1.59,2.51,1.66,2.52-.28,4.52-.74.77-1.41,1.32-.13,2.18.13.09-.24,1.25-.32,1.24-1.84-.15-1.49,1.77-2.39,2.49-.68.54-1.13.99-2.1.44-.77-.44-2.28-.95-2.59-.62-1.13,1.21-2.43.93-3.68.85-1.53-.1-1.83.46-1.95,1.93-.24,2.84-3.4,4.09-4.1,6.77-2.34.78-4.67,1.58-7.04,2.27-.12.04-.42-1.21-.82-1.35-1.74-.63-3.53-1.1-5.33-1.53-.12-.03-.39.73-.66,1.06-.2.25-.53.57-.78.56-2.09-.11-2.77.49-1.97,2.01.8,1.53,1.91,2.87,1.79,4.77-.08,1.22-.13,2.1-1.4.67-.21.5-.63,1.01-.59,1.48.26,2.82-.9,5.02-2.97,6.75-.54.45-1.6.8-2.19.58-2.15-.81-4.36-1.65-6.26-2.92-1.78-1.19-3.45-2.2-5.67-2.03-1.24.09-2.54.24-3.59-.84-.11-.11-1,1.71-1.36-.14-.17-.86.14-1.11,1.01-1.04.35.03.73-.37.61-.31Z"/><path d="m210.16,119.06c-1.53-.2-3.01.25-4.65-.82-2.06-1.34-3.27-1.96-3.34-4.06-.07-2,0-3.99-.03-5.99-.01-.63-.18-1.25-.28-1.87-.47.34-1.03.6-1.4,1.02-1.37,1.56-3.13.5-4.69.72-.15.02-.46-.71-.61-1.12-.42-1.16-.64-2.42-1.22-3.49-.86-1.59-2.56-2.54-2.77-1.84-.38,1.25.93,1.6,1.38,2.42,1.06,1.96.92,4.04.11,6.03-.43,1.05-1.48,1.14-2.54,1.06-1.5-.11-2.76.11-3.97,1.36-1.14,1.18-3.01.86-4.32-.24-.22-.19-.19-.68-.27-1.04,2.29.11,1.49-1.6,1.59-2.75.16-1.73-.41-3.52.92-5.15.31-.39-.22-2.12-.83-2.49-2.41-1.48-.29-2.98.05-4.15.38-1.27,1.43-.15,2.29.27,1.37.68,2.34-.64,2.48-1.58.33-2.09.48-4.43-1.86-5.64-1.36-.7-2.5-1.26-2.09-3.09.09-.41-.04-1.12-.33-1.32-2.37-1.67-1.56-4.13-1.61-6.34-.02-1.15.52-.65,1.14-.24,1.03.68,2.06.67,3.06-.31.97-.96.98-1.96.49-3.07-.18-.42-.75-.85-.68-1.19.41-2.07-.78-2.36-2.29-2.01-1.34.3-1.53,1.38-1,3.27.14.5.01,1.46-.3,1.62-.53.27-1.39.27-1.92,0-.31-.16-.53-1.28-.29-1.59,1.23-1.64.82-3.36.48-5.09-.07-.37-.27-.71-.41-1.06.45,0,.97-.15,1.34.03.43.2.75.65,1.07,1.03.82.98,1.21.84,1.3-.43.02-.27.28-.55.48-.79,1.12-1.37,1.38-1.33,2.51.35.27.4.61.76.97,1.09.18.18.46.25.7.37.11-.29.38-.64.3-.85-.95-2.6-.46-5.74-3.15-7.71-1.59-1.17-1.12-1.81.71-2.54.79-.31.95-1.86,2.68-1.92.88-.03,1.84-1.93,2.48-3.14.22-.41-.42-1.3-.71-1.95-.46-1.03-.77-.76-.99.13l-3.32,1.14c-.08-.31-.34-.79-.23-.9,1.01-.98.39-1.61-.22-2.49-.22-.33.91-1.6.69-1.91-.94-1.28-1.09-1.72.81-1.75,1.5-.03,2.44.54,3.28,1.65,2.53,3.36,3.2,5.87,3.04,9.67-.1,2.31-1.69,3.96-2.28,6.1-.67,2.46-.93,4.5-.11,6.86.36,1.02.71,2.77.2,3.25-3.45,3.19-1.23,7.21-1.82,10.78-.01.08.63.44.82.35,2.1-.97,4.71-.54,6.51-2.41.51-.53,1.85-1.15,1.95-1.02,1.06,1.29,1.84-.21,2.7-.12.35.03.74.46.94.8.11.19-.1.84-.19.85-3.07.23-5.28,2.57-8.13,3.31-.16.04-.34-.03-.5.01-.72.2-1.43.42-2.15.64.51.78.92,2.14,1.54,2.24,1.31.21,2.27.12,2.84,1.78.21.59,2.4.32,3.51.83.82.38,1.3.71,2.12.06.41-.32,1.11-.26,1.68-.37-.03.9.12,1.86-.15,2.68-.13.39-.52,1.45-1.77.59-.84-.57-2.62-.52-3.59-.01-2.77,1.45-2.73,5.22-.06,7.11.22.16.91-.35,1.38-.55.88-.38,0-2.15,1.59-2,1.61.16,3.27.08,4.8.5.74.2,1.7,1.1.8,2.34-1.11,1.53-1.51,2.82,1.03,3.48.83.22,1.45,1.32,2.13,2.05.54.56.9.88,1.18-.23.18-.73.59-1.42.98-2.08.4-.68.91-1.29,1.37-1.93.21.67.36,1.36.63,2,.46,1.08,1.08,2,2.49,1.89.5-.04,1.03-.11,1.49.02.87.24,1.71.61,2.57.92.15-.94.35-1.87.43-2.81.14-1.56.7-1,1.33-.32.34.36.66.94,1.07,1.02,1.64.31,2.65,1.01,2.64,2.86-.01,2.06-.62,4.1-2.33,4.95-1.89.93-3.36,3.14-6.03,2.42-.58-.16-1.4.54-2.09.87-1.76.82-3.55,1.47-5.56,1.02Z"/><path d="m240.83,220.79c.44-2.17.77-4.37,1.35-6.5.57-2.07,1.89-3.05,3.46-1.86,1.21.92,1.9-.96,2.65.26.51.83,1.3,1.55,2.11,2.09.37.25,1.1-.06,1.67-.11-.21-.52-.42-1.04-.63-1.57l-4.58-2c-1.25-.44-.04-.83-.03-1.25.04-1.68,1.56-1.7,2.46-2.4.78-.6,1.3-.56,1.88.44.71,1.23,1.65,2.38,2.67,3.38,1.37,1.35,3,1.21,4.02-.51.57-.96.5-2.18,1.83-.72.14-.44.54-1.11.39-1.28-.86-.95-1.81-1.84-2.82-2.63-1.27-1.01-1.65-1.99-.66-2.93,1.51-1.42,3.22-2.62,4.86-3.91.07-.06.31-.04.33.02.13.28.32.58.3.86s-.26.55-.36.84c-1.04,2.85-.38,4.08,2.39,4.08,2.21,0,4.64.75,6.32-1.69.44-.63,1.75-.54,1.63.68-.28,2.78,1.19,5.05,2.63,6.87,1.33,1.68,1.36,3.19,1.42,4.96.06,1.86-.87,3.23-1.9,4.72-1.42,2.06-3.65,2.59-5.63,3.39-2.18.89-4.34-.57-6.33-1.39-1.41-.58-2.03-1.02-2.18.92-.04.55-.84,1.03-.92,1.59-.48,3.2-1.61,5.46-5.52,5.11-.54-.05-1.79,1.35-2.52.8-1.77-1.34-4.24-.1-5.48-1.15-2.09-1.78-5.27-3.26-4.54-7.03.12-.64.02-1.33.02-1.99-.11-.02-.22-.05-.32-.07Z"/><path d="m214.37,198.5c1.06.74,1.76,1.05,1.72,1.23-.51,2.67,1.6,3.36,3.28,4.02,1.79.71,3.76.9,5.45-.62.44-.4,1.1-.8,1.64-.77.49.03,1.01.58,1.37,1.02.1.13-.22.8-.51,1-.5.34-1.18.78-1.68.68-1.45-.3-2.41.66-3.6,1.02-1.17.36-1.19,1.07-.62,1.77,1.2,1.47,2.29,3.04,4.69,1.35,1.16-.81,3.3.66,4.52-1.09,1.59.59,3.19,1.14,4.75,1.8.24.1.49.92.4.99-1.59,1.28.41,3.76-1.65,4.84,1.01,2.51-1.82,2.91-2.71,4.23-1.04,1.55-3.62,2.61-5.63,2.79-1.75.15-3.72-1.07-5.43-1.99-1.52-.82-2.66-2.49-4.23-3.05-3.9-1.38-4.09-4.96-4.89-7.93-.95-3.54.17-6.68,2.2-9.51.39-.54.61-1.19.91-1.78Z"/><path d="m317.26,164.31c-5.32-.63-9.58-2.43-12.77-6.36,0-2.23-.19-4.48.09-6.68.17-1.31.96-2.6,1.72-3.74.63-.93,1.54-2.12,2.48-2.27.79-.13,1.8,1.06,2.7,1.68,2.2,1.52,4.3,3.63,7.16,1.18,2.02.4,3.83-.39,5.33-1.49.56-.41.41-2.09,1.73-1.37.7.39,1.42,1.55,1.38,2.32-.14,2.86-.57,5.71-.95,8.55-.06.42-.4.85-.71,1.19-1.75,1.89-3.69,3.56-5.03,5.87-.46.8-2.24.83-3.13,1.12Z"/><path d="m212.97,241.11c-3.53,1.06-6.78-1.11-9.51-3.36-4.86-4.01-4.57-11.78-.23-15.23.93-.74,1.52-.5,1.91.8l2.96,2.26c.8.47,1.59.96,2.41,1.4,1.36.73,2.67,1.62,4.12,2.08,1.32.41,2.78-.25,4.16.93.52.45,2.29-.86,3.46-.79,1.57.09,1.82-.79,2.2-1.85.06-.16.67-.31.85-.19.34.21.79.62.79.95.02,2.56.06,5.06-.85,7.6-.56,1.57-1.79,3.19-2.62,3.22-1.95.06-2.78,1.63-4.19,2.08-1.5.49-3.29.11-5.48.11Z"/><path d="m280.21,203.05c-.51-2.37.29-4.27,2.31-5.9,1.44-1.16,2.36-1.94,2.79.62,2.44-.12,3.62,1.79,5.2,3.11.28.23,1.1-.15,1.66-.31,1.62-.46,3.11-1.5,4.98-.52.88.46,1.92-.01,2.53-.98.75-1.18,2-1.3,3.02-.82,1.01.48,1.69,1.45,1.48,2.84-.17,1.14.01,2.32-.05,3.48-.06,1.21-1.46,3.08-2.72,3.76-2.17,1.17-4.43,2.2-6.49,3.55-3.03,1.99-6.45,1.72-8.93.06-2.89-1.94-6.77-3.97-5.79-8.89Z"/><path d="m318.23,184.98c-.79-3.06,1.93-3.97,3.28-5.68.03-.03.44.21.64.36,2.76,1.97,2.93,1.82,5.5,1.55,1.3-.14,2.69.6,4.04.94-.41.99-.75,2.02-1.3,2.93-.13.22-.97-.07-1.43.05-1.13.31-1.19,1.23-.43,1.77,1.24.89,2.69,1.49,4.05,2.2,1.05-1.71,3.89-.32,4.65-2.85.41-1.38,2.02-1.29,2.55.02.29.71.48,1.6.33,2.33-.56,2.72-.33,5.75-2.77,7.81-.31,3.38-3.48,3.06-5.4,3.48-1.68.36-4.08-.38-5.48-2.04-1.3-1.54-3.45-2.38-3.47-5.09,0-1.08-1.78-2.25-2.91-3.19-1.52-1.26-2.39-2.68-1.84-4.59Z"/><path d="m250.32,158.44c-2.57.09-4.51-.65-6.11-2.71-1.21-1.56-2.92-2.74-4.16-4.29-1.74-2.17-2.98-4.54-.91-7.26.38-.49.92-1.03.95-1.58.11-1.59,1.01-2.28,2.42-2.45.17-.02.55.69.61,1.1.2,1.26,2.79.54,2.06,2.58-.21.59-.2,1.37,0,1.97.39,1.18.5,2.76,2.65,1.54.66-.37,2.22.76,3.33,1.29,1.39.66,2.74.84,4.05-.11.53-.39,1.28-1.39,1.37-1.32.79.57,1.62,1.21,2.14,2.02,1.83,2.85.35,6.84-2.93,7.87-1.79.56-3.65.91-5.47,1.35Z"/><path d="m131.15,211.12c.21-2.22-1.42-3.06-2.95-4.01-.67-.42-1.55-.78-1.86-1.41-.3-.62,0-1.53.04-2.32.49.24.97.53,1.48.73,3.44,1.35,4.97,4.3,6.18,7.47.15.38-.39,1.47-.6,1.47-1.71-.04-1.28,1.17-1.28,2.07,0,.9-.44,2.1,1.27,2.08.23,0,.59.96.67,1.51.06.41-.23.88-.37,1.32-.53-.19-1.51-.37-1.52-.57-.03-1.1-.9-1.85-1.45-1.27-1.63,1.71-2.47.59-3.58-.49-.67-.64-1.59-1.01-2.32-1.59-3.25-2.56-5.64-5.62-5.7-9.99,0-.28.22-.57.34-.85.22.31.53.59.63.94,1.45,4.92,4.32,7.08,9.22,6.91,1.88-.06,1.89-.07,1.8-1.99Z"/><path d="m440.15,152.11v-1c.69-.33,1.36-.71,2.07-.99,1.35-.53,2.23-1.38,1.9-2.92-.19-.89-.45-1.89-1.04-2.51-.44-.47-1.65-.78-2.15-.5-1.21.68-2.11-2.05-3.21-.15-.19-.2-.56-.43-.54-.6.05-.44.21-1.19.45-1.24.79-.16,1.8-.38,2.43-.03,2.29,1.25,5.51.55,7.06,3.39.54.98.96-.24,1.38-.23.51.01,1.06.44,1.5.8,1.49,1.22,2.8,2.75,4.45,3.68,1.5.85,3.67.4,4.69,2.31-2.64.61-5.06-.58-7.51-1.15-.98-.23-1.32-1.32-1.6.55-.12.76-1.05,2.13-2.59,1.41-1.11-.52-2.24-1.22-3.41-1.34-1.27-.13-2.59.33-3.89.53Z"/><path d="m306.71,229.4c-.23,1.27-.17,2.33-.64,3.04-.31.48-1.62.88-2.05.61-2.93-1.84-6.09-.61-9.13-.88-.69-.06-1.31,1.41-2.22.03-.73-1.11-.83-2.03-.04-3.09.85-1.14,1.58-2.37,2.52-3.43.31-.35,1.1-.27,1.67-.39-.11,2.37,2.07,1.36,3.02,2.1,1.91,1.49,3.99,1.89,6.3,1.75.3-.02.61.29.56.26Z"/><path d="m213.15,92.12c0,.5.04,1-.02,1.49-.03.18-.28.43-.48.48-.31.08-.84.16-.96,0-.54-.75-1.33-1.56-1.36-2.37-.06-1.81-1.32-2.81-2.01-4.18-.55-1.08-.84-1.36-1.93-1.46-1.78-.17-2.46-1.37-2.21-3.07.05-.33.8-.87.82-.86,1.54,1.36,4.66.1,5.22,3.26.2,1.13,1.04,2.35,1.94,3.12,1.26,1.08.93,2.34.99,3.6Z"/></svg>