<?xml version="1.0" encoding="UTF-8"?><svg id="Layer_1" xmlns="http://www.w3.org/2000/svg" viewBox="0 0 38.41 132.94"><path d="m38.1,80.73c.09,7.2.23,14.39.25,21.59.02,4.96-.12,9.91-.17,14.87-.02,1.72-.05,3.44.02,5.16.04,1.09-.39,1.87-1.29,2.38-.66.37-1.36.66-2.06.95-3.8,1.57-7.61,3.11-11.41,4.69-1.51.63-2.99,1.35-4.5,1.97-2.21.92-4.37.78-6.43-.49-.54-.33-1.13-.62-1.62-1.03-3.02-2.49-6.01-5.02-9.04-7.51-.99-.81-1.34-1.86-1.35-3.06-.02-1.24-.02-2.48.03-3.72.26-6.84.29-13.67.04-20.51-.14-3.88-.08-7.76-.13-11.64C.29,73.92.09,63.44,0,52.96c-.04-4.52.17-9.03.27-13.55.06-2.8,1.24-5.02,3.59-6.55,1-.65,2.07-1.2,3.12-1.77.98-.53,2.01-.99,2.98-1.54,1.69-.96,2.57-2.48,2.74-4.39.12-1.43.2-2.87.24-4.31.05-1.44.03-2.88.05-4.32.01-.78-.19-1.46-.64-2.14-.31-.47-.53-1.1-.53-1.66,0-2.08.1-4.16.16-6.23.02-.61.3-1.08.81-1.38.45-.27.55-.63.47-1.12-.08-.51-.04-1.05-.15-1.55-.13-.58.11-.96.57-1.17.72-.34,1.45-.71,2.21-.88,2.29-.51,4.6-.54,6.9-.01,1.81.42,2.43,1.24,2.16,3.08-.09.59-.15,1.04.52,1.37.27.13.46.66.48,1.02.1,2.12.19,4.23.19,6.35,0,.61-.16,1.3-.47,1.81-.51.83-.73,1.7-.66,2.62.14,1.83.35,3.66.54,5.49.12,1.11.26,2.22.37,3.34.07.77.42,1.34,1.04,1.8,2.06,1.51,4.13,3.02,6.16,4.58,1.11.85,2.19,1.74,3.19,2.72,1.29,1.26,1.78,2.88,1.82,4.68.07,3.64.26,7.27.27,10.91.03,10.2,0,20.4-.02,30.59-.09,0-.19,0-.28,0ZM23.78,1.56s.02.06.03.09c0,.02.03.03.04.04-.03-.03-.07-.07-.1-.1-.17-.07-.35-.14-.52-.21-.09-.07-.18-.14-.28-.19-.02-.01-.06.02-.1.04.13.05.26.09.4.14.17.07.35.13.52.2Zm-8.64.05c-1.09.22-1.24.39-1.22,1.37,0,.36.03.72.08,1.08.02.12.15.23.23.34-.03-.12-.07-.24-.08-.36-.03-.96-.08-1.92.97-2.45.09-.04.17-.08.26-.12-.03,0-.09-.04-.1-.02-.05.05-.09.12-.14.18Zm1.19.93c.32-.01.64-.06.95-.02.14.02.26.2.39.31-.13.06-.25.15-.39.17-.55.1-1.1.17-1.65.26.55.12,1.06,0,1.57,0,.27,0,.55.16.82.25-.03.02-.06.03-.09.05-.03.02-.05.04-.08.06.05-.04.09-.09.14-.13,1.54.15,3.08.3,4.62.45.07,0,.15-.03.23-.04-.06-.07-.11-.18-.18-.19-.69-.16-1.39-.29-2.09-.45-.12-.03-.3-.08-.33-.16-.12-.35-.11-.36-.25-.38-.28-.04-.56-.05-.83-.1-.12-.02-.23-.12-.34-.19.1-.05.2-.11.31-.14.15-.04.31-.06.47-.09-.15-.04-.31-.06-.46-.11-.15-.05-.31-.11-.42-.21-.1-.1-.14-.26-.21-.39.14,0,.28.01.42.03.86.09,1.73.19,2.59.27.08,0,.17-.06.26-.09-.07-.03-.14-.08-.21-.09-.63-.08-1.25-.15-1.88-.24-.13-.02-.25-.1-.38-.15.1-.11.19-.24.32-.32.13-.08.28-.12.42-.17-.12,0-.23-.03-.35-.02-.71.07-1.42.14-2.14.21-.17.02-.38.03-.02.15.15.05.29.14.44.22-.19.06-.37.11-.56.18-.36.13-.73.26-1.09.39-.13.05-.26.1-.4.16.12-.06.25-.12.37-.18.44.03.88.06,1.32.08-.39.16-.78.32-1.16.49-.06.03-.09.11-.14.17-.14.01-.29.03-.43.04.02.04.04.08.05.11.12-.06.24-.12.36-.18Zm21.27,78.07h.11c0-8.44.04-16.87-.01-25.31-.03-5.36-.2-10.71-.28-16.07-.03-1.77-.58-3.31-1.94-4.47-1.39-1.19-2.84-2.34-4.29-3.46-1.45-1.13-2.93-2.22-4.41-3.31-1.27-.93-1.78-2.21-1.85-3.72-.04-.8-.11-1.59-.16-2.39-.12-1.95-.25-3.91-.33-5.86-.04-.89.14-1.73.68-2.5.23-.33.3-.82.31-1.24.03-2,0-4,.03-6,0-.67-.22-1.07-.89-1.19-1.53-.28-3.05-.65-4.59-.82-2.21-.24-4.24.57-6.3,1.22-.72.23-1.07.6-1.09,1.34-.03,1.96-.1,3.91-.09,5.87,0,.41.3.81.43,1.22.2.68.52,1.36.54,2.05.06,1.96-.04,3.92-.02,5.88.01,1.81-.26,3.58-.68,5.33-.19.78-.55,1.43-1.21,1.86-1.17.77-2.35,1.51-3.55,2.23-1.16.7-2.38,1.31-3.52,2.05-2.1,1.37-3.37,3.32-3.54,5.83-.16,2.31-.22,4.63-.21,6.94.04,8.96.1,17.91.19,26.87.08,7.52.18,15.03.35,22.55.15,6.4.29,12.79-.09,19.18-.1,1.68-.09,3.36-.21,5.03-.09,1.34.49,2.31,1.45,3.12,1.94,1.67,3.85,3.37,5.84,4.98,1.61,1.31,3.34,2.47,4.97,3.75,1.28,1.01,2.63,1.03,4.06.5,1.76-.65,3.53-1.27,5.26-2,4.08-1.72,8.14-3.5,12.21-5.26.48-.21.98-.36,1.43-.61.82-.44,1.29-1.04,1.26-2.09-.05-2.08.1-4.16.1-6.24.01-11.76,0-23.51,0-35.27ZM15.2,4.15h.1s-.04-.06-.07-.07c-.03,0-.06.01-.1.02.02.02.04.03.06.05Zm8.92-.45s.05-.04.07-.06c-.02-.02-.04-.06-.06-.07-.02,0-.05.03-.07.05.02.02.04.05.06.07Z"/><path d="m33.85,83.44c-1.81.29-3.61.59-5.42.86-.3.05-.62.01-.93.02.3-.13.59-.33.9-.39,1.45-.27,2.91-.49,4.36-.74.2-.03.4-.07.58-.14.12-.05.2-.17.3-.26-.12-.02-.24-.06-.35-.04-1.14.19-2.28.37-3.42.58-.51.09-1.01.24-1.51.33-.17.03-.37-.04-.55-.06.17-.14.33-.28.5-.42,1.31-.23,2.63-.41,3.93-.69.71-.16,1.39-.48,2.08-.73.05-.05.1-.1.15-.15-.04.06-.08.12-.12.17-1.3.27-2.61.53-3.91.83-.71.16-1.41.39-2.11.59-.24-.11-.66-.27-.12-.46.75-.26,1.55-.34,2.33-.53,1.23-.3,2.45-.62,3.64-1.09-1.36.23-2.75.35-4.07.72-.77.21-1.38-.35-2.08-.15-.04.01-.1-.08-.16-.12.05-.06.09-.16.15-.18.46-.13.92-.26,1.38-.37,1.42-.33,2.84-.66,4.22-1.19-1.4.28-2.79.57-4.19.85-.19.04-.39.07-.59.09-.06,0-.12-.07-.18-.1.05-.06.08-.15.14-.18.22-.08.45-.14.68-.2,1.45-.4,2.9-.79,4.34-1.19.06-.04.12-.07.18-.11l-.16.13c-1.42.28-2.84.57-4.26.85-.18.04-.37.05-.59-.05.81-.28,1.62-.56,2.43-.84.33-.07.67-.14,1-.21.11-.01.23-.02.34-.04.11-.02.22-.04.34-.06-.13-.03-.27-.09-.4-.07-.09.01-.17.13-.26.19l-1.01.21c-1.02.19-2.03.38-3.05.57-.27.05-.55.12-.82.15-.11.01-.22-.05-.33-.08.05-.1.07-.26.15-.31.33-.21.66-.45,1.03-.56,1.23-.39,2.47-.74,3.66-1.3-.84.21-1.67.42-2.51.61-.57.13-1.15.24-1.73.36.54-.23,1.08-.47,1.63-.68,1.29-.48,2.75-.48,3.87-1.42.14-.02.29-.04.43-.06-.03-.04-.07-.11-.08-.1-.11.06-.22.13-.33.19-1.38.35-2.76.7-4.15,1.04-.48.12-.97.22-1.46.33.47-.23.92-.48,1.4-.68.83-.34,1.67-.64,2.51-.96.32-.08.64-.15.96-.23.25-.08.5-.16.75-.24.11-.01.22-.02.33-.03.11-.01.22-.04.33-.05-.12-.02-.25-.08-.37-.06-.1.01-.18.12-.27.18-.25.08-.5.16-.74.24-.32.07-.65.15-.97.22-.88.18-1.76.36-2.64.54-.27.06-.53.14-.8.17-.12.01-.25-.07-.38-.11.1-.05.2-.12.3-.15.57-.16,1.15-.28,1.7-.48.23-.08.4-.31.6-.48.25-.07.51-.14.76-.22.14-.02.28-.03.43-.05-.02-.04-.04-.08-.06-.12-.11.06-.23.13-.34.19-.25.07-.51.14-.76.22-.69.15-1.38.31-2.07.45-.12.02-.26-.06-.39-.09.1-.06.2-.13.3-.17.93-.32,1.87-.62,2.79-.94.35-.12.68-.31,1.03-.46.32-.08.63-.16.95-.24.08,0,.15,0,.23-.02.09-.02.18-.05.27-.08-.1,0-.21-.03-.3-.02-.06.01-.12.09-.17.14-.32.08-.64.16-.96.23-.89.2-1.78.38-2.67.59-.46.11-.92.27-1.38.37-.13.03-.28-.05-.42-.08.08-.08.15-.17.24-.24.79-.73,1.73-1.08,2.79-1.11.06.05.11.12.18.13.09.01.2-.02.29-.03-.09-.03-.18-.06-.27-.08-.07-.01-.15,0-.23,0,.01-.09.02-.19.03-.28.18-.03.37-.06.55-.09-.17-.05-.34-.1-.52-.16-.07,0-.14-.01-.22-.02h.24c0,.1-.02.19-.03.29-.98-.31-1.88.04-2.77.38-.1.04-.23.01-.34.02.08-.09.15-.21.25-.26.87-.37,1.75-.74,2.63-1.09.69-.27,1.4-.51,2.11-.76.07-.04.13-.08.2-.12-.06.05-.12.1-.18.15-1.16.24-2.32.49-3.48.73-.45.09-.9.18-1.4.07,1.7-.46,3.39-.92,5.09-1.37,0-.05-.02-.1-.03-.15-1.07.18-2.14.37-3.21.56-.23.04-.47.11-.7.13-.1,0-.2-.06-.3-.09.07-.09.12-.23.21-.26.72-.22,1.45-.41,2.17-.61.22-.06.44-.15.65-.23.42-.07.83-.14,1.25-.21.19-.02.38-.03.56-.06.11-.01.22-.04.33-.06-.13-.03-.27-.1-.39-.08-.17.03-.33.14-.49.22-.42.07-.83.14-1.25.21-.48,0-.96-.02-1.44-.03l.02.03c-.33-.3-.67-.3-1,0l.02-.03c-.18,0-.36-.02-.54-.03.09-.16.18-.31.27-.47.16,0,.32,0,.47,0,.08,0,.16-.02.23-.04-.09-.04-.18-.12-.26-.1-.15.03-.29.11-.43.17-.42-.01-.85-.03-1.27-.04.42-.15.83-.29,1.25-.44.25-.09.49-.17.74-.25.48-.08.96-.16,1.44-.24h.98c-.01-.09-.03-.17-.04-.26-.31.09-.61.19-.92.28-.48.08-.96.16-1.44.24-.08,0-.16-.02-.24-.02-.51-.02-1.02-.03-1.54-.04.53-.14,1.05-.29,1.58-.4.59-.12,1.18-.19,1.77-.29.1-.02.18-.11.27-.17-.1-.03-.2-.09-.29-.08-.75.11-1.5.2-2.24.36-.61.13-.52-.27-.38-.52.21-.37.54-.67.82-1,.96-.16,1.91-.32,2.87-.48.14-.04.27-.09.41-.13-.13.05-.26.1-.39.15-.96.16-1.92.32-2.87.48-.28-.09-.82-.25-.15-.44.54-.15-.11-.69.4-.72.34-.02.68-.13,1.02-.22.37-.1.73-.21,1.1-.32.15,0,.31,0,.46-.02.09-.01.17-.05.26-.08-.11-.02-.22-.08-.32-.06-.13.03-.25.13-.38.19-.94.13-1.89.26-2.83.39-.11.01-.23-.03-.34-.04.09-.1.16-.28.27-.3,1.44-.3,2.88-.58,4.31-1.03-.94.13-1.87.25-2.81.38-.39.05-.79.1-1.19.13-.09,0-.18-.08-.27-.13.09-.06.19-.1.27-.17.06-.05.1-.14.16-.21-.94-.59,0-.6.25-.67,1.34-.37,2.7-.68,4.05-1.02.18-.05.34-.16.51-.24.09-.05.19-.1.28-.14-.09.06-.17.11-.26.17-1.53.27-3.06.54-4.59.82-.2.04-.39.12-.58.13-.12,0-.25-.08-.37-.13.09-.07.16-.18.27-.22.4-.16.81-.3,1.21-.47.1-.04.18-.15.27-.24-.14-.01-.28-.06-.41-.03-.43.1-.84.23-1.27.33-.09.02-.21-.06-.32-.1.07-.09.12-.23.21-.26.88-.24,1.76-.47,2.62-.87-1.13.19-2.25.38-3.38.57-.02-.09-.03-.18-.05-.28,1.54-.35,3.07-.71,4.61-1.06,0-.02,0-.05,0-.07-.4,0-.8-.05-1.19.01-.43.07-.84.25-1.26.35-.18.04-.38,0-.57.01.15-.14.29-.3.46-.42.15-.11.33-.18.5-.27.94-.18,1.88-.35,2.82-.53-1-.1-1.95.02-2.8.55-.08,0-.16-.02-.24-.02-.31-.03-.62-.05-.93-.08.31-.14.61-.32.93-.41.94-.28,1.88-.52,3-.83-1.43-.27-2.57.04-3.72.41-.19.06-.41,0-.61,0,.18-.13.35-.27.54-.38.36-.19.72-.36,1.09-.54-.38.04-.76.09-1.15.13-.07,0-.15-.04-.22-.07.06-.09.1-.25.17-.27.95-.29,1.91-.55,2.87-.83.22-.06.42-.16.63-.25.11-.01.22-.02.34-.04.1-.01.19-.03.29-.04-.1-.01-.21-.05-.31-.04-.1.02-.2.09-.3.14-1.27-.19-2.46.16-3.64.54-.3.1-.61.2-.92.28-.1.03-.22-.02-.33-.03.08-.11.13-.28.23-.31,1.03-.33,2.06-.63,3.09-.96.17-.05.32-.15.48-.23-.2-.02-.42-.1-.6-.05-.77.19-1.54.42-2.31.62-.12.03-.27-.02-.4-.03.1-.11.19-.27.32-.31.76-.25,1.52-.48,2.28-.71.38-.11.76-.21,1.1-.5-.96.17-1.92.34-2.89.49-.13.02-.27-.07-.41-.1.11-.1.21-.23.35-.29,1.05-.42,2.11-.82,3.17-1.31-.58.09-1.16.19-1.74.27-.44.06-.87.13-1.31.15-.21,0-.42-.09-.62-.14.2-.09.38-.23.59-.26,1.53-.24,3.07-.46,4.75-.71-2.08.09-4.03.17-5.98.25,0-.08-.01-.16-.02-.23,1.62-.19,3.24-.37,4.86-.56.13-.02.25-.08.38-.13-.13-.08-.26-.21-.39-.22-.6-.01-1.2.01-1.79.03-1.32.04-2.64.1-3.95.13-.17,0-.33-.1-.5-.15.18-.06.36-.16.54-.17,1.59-.12,3.19-.23,4.78-.35.23-.02.46-.05.79-.08-1.93-.88-3.88-.14-5.74-.53,1.91-.5,3.85-.46,5.89-.41-.99-.47-1.14-.51-2.53-.43-1.2.07-2.39.18-3.59.26-.15,0-.3-.06-.45-.1.15-.08.29-.22.44-.24,1.86-.26,3.71-.62,5.6-.3.31.05.63,0,.95-.04-2.12-.51-4.27-.4-6.42-.23-.2.01-.39.1-.59.1-.16,0-.31-.1-.46-.15.12-.09.23-.25.36-.26.99-.12,1.98-.25,2.98-.29,1.22-.05,2.45-.01,3.87-.01-.55-.08-.94-.19-1.32-.19-1.72.01-3.44.06-5.15.08-.15,0-.3-.13-.45-.2.14-.06.27-.15.41-.16,1.55-.09,3.11-.17,4.66-.24.48-.02.96,0,1.44.02l.03.05-.05-.03c-.93-.15-1.85-.37-2.79-.43-.91-.07-1.83.02-2.75.03-.12,0-.25-.08-.37-.12.11-.09.21-.24.33-.26.63-.08,1.27-.15,1.91-.17,1.19-.03,2.39,0,3.29,0-1.34-.45-3.05-.18-4.72-.3-.52-.03-1.04-.01-1.56-.04-.08,0-.15-.14-.22-.22.08-.06.16-.17.25-.17.76-.06,1.52-.18,2.27-.15,1.55.07,3.1.24,4.65.36.15.01.31,0,.47-.05-1.04-.44-2.13-.61-3.25-.63-1.12-.01-2.24,0-3.36,0-.09,0-.18-.09-.27-.13.08-.08.14-.21.23-.23.43-.07.87-.12,1.31-.14.76-.02,1.52,0,2.29-.16-.73-.09-1.47-.21-2.2-.25-.8-.04-1.6,0-2.4.03-.16,0-.32.07-.47.07-.14,0-.28-.07-.42-.11.11-.09.2-.25.32-.27,1.42-.23,2.84-.39,4.29-.17,1.14.17,2.29.26,3.44.38.07.03.13.06.2.08-.07-.02-.15-.04-.22-.06-.33-.16-.66-.43-1-.45-1.87-.11-3.75-.14-5.62-.22-.16,0-.31-.11-.47-.17.13-.07.25-.18.39-.2.47-.08.95-.19,1.42-.17,1.59.08,3.18.22,4.78.34.39.03.78.1,1.19.06-.7-.44-1.49-.62-2.3-.63-1.56-.02-3.11-.02-4.67-.03-.28,0-.56.02-.84,0-.07,0-.15-.11-.2-.19-.01-.03.07-.15.13-.16.27-.05.55-.12.82-.12,1.6-.01,3.19,0,4.79-.01.44,0,.89-.12,1.33-.18,0-.09-.02-.17-.02-.26-1.78,0-3.55,0-5.33,0-.33,0-.66-.02-.98-.03.34-.15.68-.41,1.03-.42,1.56-.05,3.11-.02,4.67-.11-2.16-.69-4.32-.79-6.47.05-.3.12-.64.13-.96.2.27-.2.51-.46.81-.59,1.82-.82,3.72-.77,5.64-.48.32.05.63.11.95.15.09,0,.18-.06.27-.09-.06-.05-.11-.13-.17-.15-.33-.13-.66-.32-1.01-.36-2.14-.24-4.3-.56-6.34.49-.15.08-.35.04-.53.05.13-.13.23-.3.39-.39,1.08-.65,1.65-.83,3.28-1.05-.62-.68-1.31-.23-1.97-.12-.43.07-.85.15-1.28.22.41-.2.82-.43,1.25-.61.43-.18.89-.32,1.28-.7-.91.22-1.82.44-2.73.65-.23.05-.49.03-.73.04.22-.15.41-.35.65-.44.48-.19.97-.36,1.48-.48,1.09-.24,2.18-.49,3.28-.65,1.09-.15,2.13.2,3.15.56.22.08.46.12.69.17.07.02.14.05.2.07l-.23-.05c-.78-.82-1.82-.88-2.84-.94-1.89-.1-3.74.21-5.55.76-.23.07-.46.15-.69.2-.11.02-.22-.02-.34-.03.08-.1.14-.26.24-.3,1.49-.59,3-1.11,4.62-1.17.72-.03,1.43,0,2.15-.07-1.45-.24-2.9-.28-4.34.11-.44.12-.93,0-1.37.11-.57.14-1.1.4-1.66.59-.13.05-.28.03-.42.04.07-.13.12-.3.23-.37,2.98-1.93,6.12-2.9,9.62-1.54,2.21.85,3.36,2.56,3.54,4.85.16,2.03.15,4.07.14,6.11-.01,7.88-.05,15.76-.08,23.63-.02,5.88-.08,11.76-.07,17.64,0,2.2.18,4.39.25,6.59.2,5.64.05,11.27-.14,16.91-.08,2.55-.08,5.11-.24,7.66-.08,1.24-.59,2.02-1.59,2.6-.27.16-.57.28-.87.4-2.59,1.06-5.18,2.1-7.76,3.18-1.4.59-2.75,1.28-4.16,1.86-.92.38-1.87.74-2.84.91-1.35.22-1.93-.28-1.84-1.64.12-1.83-.23-3.6-.36-5.4-.05-.64.14-.87.79-1.02,1.83-.42,3.65-.86,5.47-1.31.95-.23,1.9-.5,2.85-.76.1-.03.18-.11.27-.17-.11-.08-.21-.2-.33-.22-.15-.02-.32.03-.47.06-2.4.61-4.79,1.22-7.19,1.82-.35.09-.91.49-1.05,0-.14-.51.54-.41.88-.49,2.28-.57,4.58-1.11,6.87-1.66.23-.06.47-.11.69-.2.25-.1.48-.25.73-.37-.26-.13-.52-.3-.79-.36-.22-.05-.48,0-.7.06-2.04.56-4.07,1.14-6.11,1.72-.19.05-.38.13-.57.19-.29.09-.58.18-.88.28-.08-.42-.31-.87-.22-1.25.16-.67.4-1.25-.05-1.94-.37-.56.46-.49.59-.82.26-.06.53-.13.79-.19.12-.02.24-.02.35-.05.11-.02.21-.07.31-.11-.11-.03-.24-.1-.33-.06-.12.04-.21.16-.31.25l-.79.19c-.41-.14-.58-.47-.11-.59.87-.23,1.79-.27,2.69-.37.03,0,.1.17.13.26.03.09-.34.04-.12.13.31.12.71,0,1.05.09.17.05.29.32.43.48-.15.09-.28.22-.44.27-1.03.33-2.07.64-3.11.95-.09.05-.18.11-.27.16.08-.06.16-.12.25-.18,1.53-.27,3.06-.5,4.58-.83.52-.11.83-.04,1.06.42.3.58.75.55,1.36.59.97.07,1.9.5,2.85.78.09.11.18.21.27.32.04-.05.07-.1.11-.15-.13-.05-.27-.1-.4-.14.05-.14.11-.39.16-.39,1.4.03,2.5-.74,3.68-1.3.16-.08.32-.17.47-.25.16-.08.33-.16.49-.24.16-.08.32-.16.48-.24.16-.08.33-.15.49-.23l.47-.23s.03-.05.04-.08c0,.04-.01.07-.02.11-.16.08-.32.15-.48.23-.16.08-.33.15-.49.23-.16.08-.32.16-.48.24-.16.08-.32.16-.49.24-.16.08-.31.17-.47.25-1.07.26-2.13.53-3.2.79-.19.05-.38.09-.57.12-.07,0-.14-.05-.21-.08.04-.06.07-.16.13-.19.21-.1.43-.18.65-.26.9-.3,1.8-.58,2.69-.91.26-.1.47-.33.7-.5.1-.04.2-.07.31-.11-.09.04-.19.09-.28.13-.99.3-1.96.63-2.96.9-.68.19-1.39.3-2.08.43-.11.02-.22-.02-.33-.03.09-.11.17-.26.29-.33.46-.23.94-.42,1.4-.66.17-.09.29-.28.44-.43-.22.01-.46-.03-.66.04-.48.18-.94.42-1.42.62-.08.03-.21-.03-.31-.04.05-.09.08-.23.16-.27.52-.29,1.05-.56,1.57-.84.11-.06.19-.17.29-.25-.11,0-.23-.02-.34,0-.76.13-1.51.26-2.27.39l.02.02c.28-.18.55-.39.86-.53,1.55-.68,3.12-1.31,4.66-2.02.59-.27,1.1-.71,1.65-1.08.08-.05.15-.1.23-.15-.07.06-.14.12-.21.17-1.29.45-2.58.9-3.88,1.33-.62.21-1.26.38-1.89.57h.01c.16-.14.33-.3.49-.45l5.24-2.19c.17-.08.34-.16.51-.23.05-.03.1-.06.15-.09-.04.04-.08.08-.12.11-.17.08-.34.16-.52.23l-5.31,2.11c-.15,0-.31-.01-.46-.02.07-.1.12-.25.21-.29,1.28-.63,2.57-1.24,3.86-1.86.14-.07.26-.17.37-.34-.91.3-1.82.59-2.72.89l-.04-.05c1.16-.54,2.33-1.07,3.48-1.63.3-.14.56-.35.84-.53.24-.07.48-.15.73-.22.07-.04.15-.08.22-.13-.03,0-.08-.03-.09-.02-.04.05-.07.11-.11.17-.25.07-.49.14-.74.21-1.63.24-3.2.7-4.75,1.25-.03-.04-.07-.08-.1-.12.89-.44,1.78-.87,2.67-1.31.21-.1.44-.19.64-.31.07-.04.12-.23.09-.28-.05-.08-.2-.14-.29-.12-.27.07-.53.16-.79.27-.96.4-1.9.82-2.86,1.22-.13.05-.29.03-.44.04.09-.1.17-.23.28-.29.98-.45,1.97-.87,2.94-1.32.18-.08.31-.27.46-.41-.19,0-.39-.05-.56.01-.93.35-1.85.73-2.79,1.08-.19.07-.42.04-.63.06.19-.12.36-.28.57-.37,1.03-.42,2.07-.83,3.11-1.25.13-.05.24-.15.35-.23-.17-.06-.38-.21-.51-.16-.78.29-1.55.64-2.33.94-.31.12-.66.15-.99.23.29-.19.55-.41.86-.55,1.52-.68,3.05-1.33,4.58-2,.08-.04.15-.08.23-.12-.03,0-.08-.03-.09-.02-.04.05-.08.11-.12.17-.48.07-.96.15-1.43.22l.02.03c-.02-.1-.04-.19-.06-.29.09-.05.18-.1.27-.15-.08.06-.17.12-.25.18-.7.2-1.4.39-2.1.6-.41.12-.8.27-1.21.4-.03-.03-.06-.07-.09-.1.67-.3,1.34-.6,2-.9.37-.17.74-.35,1.12-.53.24-.08.47-.16.71-.24.24-.08.48-.16.72-.24.24-.08.48-.16.72-.24.07,0,.15,0,.22-.01.09-.02.18-.05.27-.07-.1,0-.19-.03-.28-.01-.07.01-.12.08-.18.12-.24.08-.48.16-.73.23-.24.08-.48.16-.72.24-.24.08-.47.17-.71.25-.47-.27-.9-.14-1.35.08-.7.33-1.41.63-2.12.94l-.12-.28c.93-.41,1.85-.85,2.8-1.23.47-.19.77-.44.76-.97.25-.07.49-.14.74-.22.07-.01.15-.03.22-.04-.03-.04-.06-.07-.1-.11-.03.06-.07.12-.1.18-.25.07-.5.14-.75.21-.88.25-1.75.5-2.63.75,0-.09,0-.18,0-.27.16-.08.32-.16.48-.24.4-.16.8-.32,1.2-.47,1.27-.48,2.54-.96,3.81-1.45-.04-.09-.08-.19-.12-.28-1.24.55-2.58.88-3.68,1.75-.4.16-.79.32-1.19.48-.16.08-.32.16-.47.24-.11.03-.22.07-.33.1.11.04.22.08.32.12-.16.1-.31.21-.47.3-.3.17-.64.26-.81-.11-.04-.09.32-.45.55-.56,1.6-.78,3.22-1.53,4.84-2.3.24-.12.46-.28.69-.42l.69-.27c.07-.02.15-.04.22-.06-.03-.03-.06-.06-.09-.09-.04.06-.07.12-.11.18-.25.06-.5.13-.75.19-1.44.52-2.87,1.04-4.31,1.55-.4.14-.8.25-1.2.38l.02.02c.55-.32,1.11-.64,1.66-.97.56-.33,1.13-.66,1.69-.99l.03.06-.03-.04c.07-.09.14-.17.19-.27,0-.01-.13-.14-.17-.13-.82.31-1.63.63-2.44.94-.13.05-.28.05-.43.08.12-.12.21-.3.35-.36.47-.21.96-.39,1.44-.57.43-.16.75-.41.84-.89l-.03.03c.25-.01.49-.02.74-.03.16,0,.32,0,.47,0,.1-.04.21-.08.31-.12-.11-.03-.22-.06-.33-.09,0-.08.02-.17.02-.25h-.01c.07-.03.14-.07.22-.12-.06-.03-.12-.05-.18-.08,0,0-.07-.08-.07-.08.17-.14.34-.29.51-.43.15-.08.31-.17.46-.25.15-.08.31-.16.46-.25.06-.04.12-.07.18-.11-.05.04-.1.09-.16.13-.15.08-.31.17-.46.25-.15.08-.31.17-.47.25-.24,0-.48,0-.71,0,0,0-.06-.07-.06-.07.17-.15.34-.29.51-.44.15-.09.29-.18.44-.26.03-.01.07-.03.1-.04.03-.02.06-.04.09-.06-.06.04-.11.08-.17.13-.15.09-.29.18-.44.27-.9.28-1.79.54-2.68.83-.51.17-1,.38-1.5.58-.03-.09-.07-.17-.1-.26,1.16-.47,2.32-.93,3.47-1.42.34-.14.65-.35.97-.53.24-.08.48-.15.73-.23.1-.02.19-.05.29-.07-.03,0-.06-.03-.08-.02-.07.03-.13.08-.19.12-.24.08-.48.15-.73.23-.96-.27-1.75.28-2.6.56-.16.05-.34.03-.52.03.14-.12.27-.28.43-.35.39-.18.82-.3,1.2-.49.08-.04.06-.3.08-.47l-.03.03c.17,0,.34-.01.51-.02.06.03.11.05.17.08-.07-.02-.13-.03-.2-.05,0-.09.02-.18.03-.27l-.02.02c.14-.05.28-.11.43-.16-.14-.03-.29-.07-.43-.1l.03.02c0-.09-.02-.18-.02-.26.25-.08.49-.16.74-.23.08,0,.16.01.23,0,.09-.02.17-.07.26-.1-.1,0-.21-.04-.31-.02-.06.01-.1.1-.16.16-.25.08-.49.15-.74.23-.81.2-1.61.4-2.42.58-.13.03-.27-.02-.41-.04.1-.1.19-.26.32-.3,1.21-.39,2.44-.75,3.65-1.14.44-.14.85-.35,1.28-.53-.48.06-.97.09-1.45.19-1.28.29-2.56.62-3.84.92-.18.04-.38,0-.59-.1,2.12-.59,4.24-1.18,6.36-1.78-.02-.06-.03-.13-.05-.19-.62.1-1.25.18-1.87.29-1.45.25-2.9.52-4.35.77-.12.02-.26-.05-.39-.08.12-.09.23-.24.36-.26,1.29-.25,2.59-.47,3.88-.71.18-.03.35-.11.53-.17-.2-.11-.41-.32-.61-.3-.75.07-1.5.22-2.25.32-.5.07-1,.12-1.52,0,2.34-.52,4.67-1.03,7.01-1.55-.01-.05-.02-.11-.03-.16-2.07.32-4.14.63-6.21.95-.02-.1-.05-.19-.07-.29.45-.1.89-.18,1.34-.29.91-.23,1.82-.48,2.73-.73.11,0,.22,0,.33-.01.11,0,.22-.03.33-.04-.12-.03-.25-.08-.36-.07-.1,0-.19.1-.28.16-1.07.13-2.13.25-3.2.38-.4.05-.79.1-1.19.12-.08,0-.17-.09-.26-.14.06-.05.12-.12.18-.13.43-.09.86-.17,1.29-.24,1.61-.26,3.23-.51,4.84-.78.26-.04.5-.18.73-.36-1.86.19-3.72.37-5.58.56-.16.02-.32.08-.47.07-.29-.02-.57-.07-.86-.11.27-.25.51-.64.83-.74.88-.26,1.79-.39,2.68-.58.18-.04.33-.16.5-.24.39-.08.79-.17,1.18-.25.16,0,.31,0,.47-.02.07,0,.14-.07.21-.11-.07,0-.16-.04-.22-.02-.15.04-.29.11-.43.17-.4.08-.79.16-1.19.24-1.15.08-2.29.17-3.44.24-.21.01-.43-.06-.64-.1.18-.07.35-.17.53-.21,1.25-.23,2.51-.44,3.76-.67.17-.03.32-.17.47-.26.11,0,.23,0,.34,0,.1,0,.21-.04.31-.05-.1-.02-.21-.06-.31-.04-.11.01-.21.08-.32.12-1.51.12-3.02.25-4.53.36-.22.02-.63.29-.61-.21,0-.2.28-.5.48-.55.66-.16,1.34-.21,2-.32.94-.15,1.89-.3,2.82-.5.36-.08.69-.3,1.04-.46l.45-.04s-.04-.08-.06-.12c-.12.06-.25.12-.37.18-.24,0-.49-.04-.71.02-1.82.49-3.71.21-5.55.51-.18.03-.37-.05-.56-.07.2-.08.39-.21.59-.24,1.88-.32,3.77-.62,5.65-.94.36-.06.71-.2,1.04-.47-2.34.38-4.68.76-7.03,1.13.95-.73,2.1-.65,3.16-.91.72-.18,1.45-.33,2.17-.5.15,0,.3,0,.45-.01.09-.01.17-.06.26-.09-.1-.02-.22-.08-.31-.06-.14.03-.26.12-.38.19-1.59.14-3.18.27-4.76.41-.16.01-.32.07-.47.07-.18,0-.37-.05-.55-.07.16-.15.32-.3.48-.45,2.14-.07,4.26-.28,6.29-1.06-.59-.02-1.16.05-1.73.16-1.51.3-3.02.61-4.53.92-.18-.03-.36-.06-.54-.1.1-.1.18-.27.29-.3,1.39-.28,2.79-.52,4.18-.82.79-.18,1.54-.47,2.32-.71.24-.08.49-.16.73-.24.11,0,.22,0,.33,0,.07,0,.14-.04.21-.06-.09-.03-.19-.11-.27-.09-.09.02-.17.12-.26.18-.24.08-.49.16-.73.24Zm-2.89,38.37s.04-.04.07-.06c-.02.03-.03.06-.05.08l-.02-.02Zm.02-1.89l.04-.04-.02.07s-.06,0-.09,0c-.02,0-.03.03-.05.04l.11-.07Zm-2.39-.22l.09-.2c-.04.05-.09.1-.13.15-.03.06-.06.13-.09.19.05-.05.09-.09.14-.14Zm1.88-1.7c-.15.08-.31.16-.46.24l-.56.07c.05.09.09.22.16.25.33.14.41-.04.4-.33.15-.09.3-.17.44-.26.07-.03.13-.07.2-.1-.06.04-.12.08-.18.12Zm1.95-5.53c.09-.03.17-.07.26-.1-.03,0-.07-.03-.08-.02-.06.04-.1.1-.15.15-.09.03-.17.06-.26.08.03,0,.06.03.07.02.06-.04.11-.08.16-.13Zm2.16-5.04s.06-.03.09-.05c.03-.02.06-.04.09-.06-.05.04-.1.09-.16.13l-.21.11.18-.13Zm-1.19-4.31s.05-.04.07-.06c.03-.02.06-.04.09-.05-.04.04-.09.09-.13.13-.03.01-.07.03-.1.04-.04.02-.07.03-.11.04.06-.04.13-.07.19-.11Zm.96-61.22c-.06-.04-.12-.08-.18-.12-.02,0-.05.02-.08.03.09.02.19.04.28.07.06.04.12.08.19.13-.07-.03-.14-.07-.21-.1Zm-10.33,84.03c-.09.03-.18.06-.27.09.03.01.07.04.09.03.06-.04.1-.1.16-.15.08-.06.16-.11.24-.17l-.21.2Zm8.89-26.41c.15-.09.31-.17.46-.26.09-.04.18-.07.26-.11-.03,0-.07-.04-.09-.02-.06.05-.1.1-.15.16-.15.09-.31.17-.46.26-.11.04-.21.08-.32.11.1-.05.19-.09.29-.14Zm1.15-56.64c.06.04.11.08.17.11.02,0,.05-.02.07-.02-.09-.02-.18-.04-.27-.06-.03-.06-.05-.12-.09-.18,0-.01-.06,0-.09.01.07.05.14.09.2.14Zm-11.76,75.09s-.07.04-.1.04c-.11.02-.22.04-.32.05.01.03.03.05.04.08.12-.07.24-.13.36-.2.08,0,.16,0,.23-.03.08-.02.15-.06.22-.1-.07.01-.15.02-.22.04-.07.02-.14.07-.21.1Zm10.59-4.53c-.23.08-.46.16-.7.24-.17.08-.33.16-.5.25-.24.07-.49.15-.73.22-.39.17-.77.33-1.16.5-.09.05-.18.09-.27.14.08-.06.16-.11.24-.17.39-.17.78-.33,1.16-.5.24-.08.49-.15.73-.23.17-.08.33-.16.5-.25.23-.08.46-.16.7-.24.09-.05.17-.1.26-.15-.08.06-.16.12-.24.17Zm-3.81.52c-.07,0-.15-.03-.22-.02-.09.02-.17.06-.26.09.09,0,.19.03.28.02.07-.01.12-.07.18-.11v-.05s0,.07,0,.07Zm-10.59,3.78c.31-.08.63-.17.94-.25.15,0,.31,0,.46-.02.09-.01.17-.06.26-.09-.11-.02-.22-.08-.32-.06-.13.03-.25.13-.38.19-.31.08-.63.17-.94.25-.13.05-.27.1-.4.15.13-.06.26-.12.39-.18Zm5.54,2.69c-.33.06-.67.13-1,.19-.87.25-1.73.5-2.6.75-.72.16-1.43.32-2.15.48-.16.02-.31.04-.47.06.01.03.04.08.04.08.14-.05.27-.11.41-.17.72-.16,1.44-.31,2.16-.47.87-.25,1.73-.5,2.6-.75l1-.19.03-.05s-.01.08-.01.08Zm-4.56,5.01c.38-.09.77-.18,1.15-.27.11,0,.23-.02.34-.03.11-.01.23-.03.34-.04-.13-.03-.26-.09-.39-.07-.09,0-.18.11-.27.17-.38.09-.77.18-1.15.26-.07,0-.15-.01-.22,0-.08.02-.14.07-.21.1.07-.01.15-.01.21-.03.07-.02.13-.06.2-.1Zm13.2-55.2c.38-.09.76-.19,1.14-.28.08,0,.16.01.24,0,.1-.01.2-.04.3-.06-.1-.01-.21-.04-.31-.03-.07,0-.14.07-.21.11-.38.09-.76.19-1.13.28-.16,0-.32,0-.48.02-.07,0-.14.07-.21.11.08,0,.16.04.23.02.15-.04.29-.12.44-.18Zm-1.22,48.22c.39-.16.78-.33,1.17-.49.09-.05.17-.1.26-.14-.08.06-.16.11-.24.17-.39.16-.78.33-1.17.49-.09.05-.18.09-.27.14.08-.05.17-.11.25-.16Zm-.24-51.83l1.38-.27c.3-.02.6-.03.9-.05,0-.04-.01-.08-.02-.12-.28.06-.57.13-.85.19-.46.09-.92.18-1.39.27-.15,0-.31-.01-.46,0-.09,0-.19.05-.28.08.1.03.22.09.31.07.14-.03.27-.12.4-.18Zm0,56.68c-.57-.07-.94.22-1.22.68-.54-.03-1.05.01-1.42.49-.34.08-.68.17-1.03.25.03.08.06.16.09.23.31-.17.62-.34.93-.5.47-.17.94-.33,1.41-.5.42-.23.84-.45,1.26-.68l.02-.05-.03.08Zm.95-35.33c.75,0,1.48-.02,2.11-.5.07-.03.14-.06.2-.1-.06.04-.12.08-.18.12-.71.17-1.41.33-2.12.5h-1.59c.01.1.02.2.04.29.51-.11,1.02-.21,1.54-.32Zm-13.45,40.56c.65-.16,1.31-.32,1.96-.47-.03-.09-.05-.17-.08-.26-.62.25-1.24.5-1.86.76-.16,0-.32-.01-.48,0-.09,0-.17.07-.25.11.07.03.15.09.21.07.17-.05.33-.14.5-.21Zm12.27-49.89c.81-.17,1.61-.34,2.42-.51-.86-.04-1.69.02-2.4.54-.04,0-.08-.02-.11-.01-.19,0-.38.02-.58.03,0,.04,0,.09,0,.13.19-.04.37-.07.56-.11.04,0,.07-.04.1-.06Zm-5.52-40.56c.92-.19,1.84-.39,2.76-.58-.95.04-1.99-.23-2.74.61-.11.04-.22.07-.32.11l.3-.13Zm-3.36,79.47c-1.12.23-2.23.45-3.35.68-.08.02-.14.11-.2.16.12.01.24.06.35.03,1.07-.29,2.13-.6,3.19-.9l.02-.04v.07Zm-4.35,4.97c1.78-.36,3.57-.72,5.35-1.08.15-.03.28-.13.42-.2-.16-.04-.34-.15-.49-.11-1.76.46-3.51.94-5.26,1.42-.06.04-.13.08-.19.12.06-.05.11-.1.17-.15Zm6.22,2.42c-.39.07-.78.11-1.17.2-1.55.35-3.09.7-4.64,1.07-.21.05-.39.2-.59.31.21.16.39.37.62.47.16.07.4.03.58-.04,1.72-.67,3.44-1.35,5.16-2.03.06-.02.13-.05.19-.07l-.17.09Zm-6.55-1.71c.01.08.03.16.04.25.37-.03.76,0,1.12-.09,1.93-.47,3.86-.97,5.79-1.47.11-.03.21-.11.31-.16-.11-.04-.24-.14-.34-.13-.74.12-1.48.24-2.21.42-1.57.38-3.14.78-4.71,1.18Zm1.28.55c.02.06.04.12.06.18,1.88-.25,3.76-.5,5.64-.76.09-.01.16-.13.24-.2-.07-.07-.13-.21-.21-.21-.58-.04-1.18-.18-1.73-.07-1.35.29-2.67.69-4,1.05Zm-.31,1.24c.85-.16,1.71-.32,2.57-.48.39-.07.79-.11,1.17-.23.15-.05.24-.28.35-.42-.15-.01-.31-.05-.45-.03-1.25.21-2.51.43-3.76.66-.12.02-.24.05-.34.1-.06.03-.13.1-.14.16,0,.05.07.14.12.15.15.04.31.06.48.09Zm-.56,3.01c.44-.1.64-.14.83-.2,1.09-.35,2.19-.68,3.27-1.08.43-.16.99-.16,1.2-.7-.44.11-.88.2-1.31.33-1.27.41-2.43,1.2-3.83,1.19-.09,0-.25.1-.24.13.02.15.08.3.09.32Zm7.83-4.63c-.73.17-1.51.35-2.27.54-.09.02-.15.12-.22.19.06.04.13.12.19.12.38.03.78.11,1.15.04.45-.08.87-.28,1.3-.46.13-.05.23-.18.35-.27-.15-.05-.29-.1-.5-.16Zm7.83-33.28v-.29c-1.23.17-2.47.34-3.72.52-.15.02-.3.09-.44.13.18.03.36.11.53.09,1.21-.14,2.42-.3,3.63-.45Zm-.95-49.48c-1.58-.69-2.77-.84-4.04-.57,1.22.17,2.51.36,4.04.57Zm-3.06,40.69c0,.05.02.1.03.15,1.12-.19,2.24-.37,3.35-.58.1-.02.18-.18.27-.27-.11-.02-.23-.07-.34-.05-1.11.24-2.21.5-3.32.75Zm-12.09,35.12c.05.09.1.18.15.27.94-.25,1.88-.49,2.82-.74l-.06-.23c-.97.23-1.94.46-2.91.7Zm8.46,5.71c-.28.1-.52.19-.76.28.18.1.37.29.55.28.25,0,.5-.16.74-.25-.17-.1-.34-.2-.53-.31Zm8.38-2.5c-.04-.09-.08-.18-.11-.28l-1.16.62s.04.08.05.07c.41-.13.81-.27,1.22-.41Zm-9.49.89c-.16.08-.32.16-.47.24.14.08.29.25.42.23.2-.02.38-.17.56-.26-.16-.07-.32-.13-.51-.21Zm4.21-1.9c-.04.1-.14.28-.11.31.15.14.32.28.51.34.07.02.21-.16.32-.24-.19-.11-.38-.22-.73-.41Zm-1.63,3.67c.16-.13.3-.24.43-.35-.12-.06-.25-.18-.36-.16-.15.02-.29.14-.44.22.11.08.22.17.37.29Zm.11.57c-.21.1-.41.19-.61.28.12.06.27.2.36.18.2-.05.37-.2.55-.31-.1-.05-.19-.1-.31-.15Zm-.05-4.19c-.4-.07-.6-.12-.81-.13-.04,0-.08.17-.12.26.18.03.36.08.55.09.07,0,.14-.08.38-.22Zm4.11,2.34c-.27-.21-.38-.35-.51-.38-.13-.03-.29.03-.44.05.07.11.11.29.21.31.17.05.36.01.74.01Zm-.04-.72c.2.15.28.26.35.26.18-.01.35-.08.53-.12-.06-.09-.12-.25-.19-.25-.18,0-.35.05-.69.12Zm-4.91,1.2c-.2-.15-.28-.27-.36-.27-.18,0-.37.06-.55.09.04.08.08.22.12.22.22,0,.43-.02.79-.05Zm-.87-1.03c.23.05.37.1.5.09.08,0,.16-.11.24-.17-.12-.06-.25-.16-.37-.17-.08,0-.18.12-.36.25Zm4.64.73c-.34-.09-.48-.16-.61-.15-.12.01-.24.11-.36.17.12.08.23.2.36.21.12.01.26-.09.61-.24Zm-1.91-.75c-.07.09-.15.19-.23.29.07.02.17.08.21.05.1-.07.18-.17.27-.26-.07-.02-.13-.04-.25-.08Zm2.44-83.28c-.08,0-.16-.02-.23-.02,0,0-.01.05-.02.08.08,0,.16,0,.24,0,0,0,.01-.04.02-.06Zm.23,27.59c-.07,0-.15-.02-.22-.02,0,0-.01.04-.02.07.08,0,.15,0,.23,0,0,0,.01-.03.02-.04Zm-3.49,55.16c-.13-.02-.25-.05-.34-.03-.05.01-.08.12-.13.19.11,0,.22.02.33,0,.04,0,.08-.09.14-.16Zm3.4-49.25c.11-.04.18-.07.25-.1-.11-.03-.21-.08-.32-.09-.07,0-.14.05-.22.07.1.04.21.09.29.12Zm-2.48,50.78c-.07.08-.13.14-.19.21.1.04.2.1.3.1.07,0,.14-.1.21-.15-.1-.05-.2-.09-.32-.15Zm6.39-32.71s-.07.01-.1.02c.04.02.08.04.13.05.02,0,.05-.03.07-.04-.03,0-.06-.02-.1-.03Zm-3.03-30.22c-.07-.01-.14-.03-.21-.03-.02,0-.04.04-.06.06.07.01.14.03.21.04.02,0,.04-.04.06-.06Zm.85-.19h.12s-.06-.06-.1-.06c-.04,0-.08,0-.11.01.03.02.06.03.09.05Zm-2.68,63.82c-.06-.03-.12-.09-.19-.09-.06,0-.13.05-.19.08.07.05.14.11.22.13.04,0,.1-.07.15-.12Zm1.95.06s-.04-.13-.06-.13c-.07,0-.13.03-.2.04.02.06.04.12.06.18.06-.03.13-.06.2-.1Zm2.51-48.29s-.01-.04-.02-.05c-.04,0-.07,0-.11,0-.03,0-.05.03-.07.05h.21Zm-5.12-34.61s-.06.01-.1.02c.04.01.08.03.12.03.02,0,.05-.02.07-.03-.03,0-.06-.01-.1-.02Zm-.72,83.16c-.08.07-.15.13-.22.19.1.03.2.08.31.08.06,0,.12-.07.18-.11-.08-.05-.17-.1-.27-.16Zm-3.37-2.58c-.07.03-.13.06-.2.1.07.03.14.08.2.08.07,0,.13-.06.2-.09-.07-.03-.14-.06-.21-.09Zm7.91-45.08l-.09.04s.1.05.15.05c.03,0,.06-.02.1-.04-.05-.02-.1-.04-.15-.06Zm-2.29-4.74s-.05-.03-.08-.04c-.03,0-.07,0-.1,0,.03.01.05.04.08.04.03,0,.07,0,.1,0Zm-3.64,51.05c.06-.08.11-.14.16-.21-.06-.03-.13-.09-.19-.07-.09.02-.18.08-.27.12.09.05.18.1.3.16Zm7-28.02s-.01-.04-.03-.05c-.04,0-.08,0-.12,0-.03,0-.06.03-.08.04h.23Zm-1.22.21s.03.05.05.06c.07,0,.14,0,.21,0-.02-.03-.03-.09-.05-.09-.07,0-.14.02-.21.03Zm.79-44.61s-.03-.05-.05-.06c-.07,0-.14,0-.21,0,.02.03.04.09.05.09.07,0,.14-.02.21-.03Zm-1.45,15.34c-.06-.02-.12-.05-.18-.05-.04,0-.08.05-.12.07.03,0,.07.03.1.03.06-.01.13-.03.2-.05Zm-11.31,53.06s-.06-.04-.09-.04c-.03,0-.07,0-.11.01.03.02.06.04.09.05.03,0,.07,0,.11-.01Zm-.71,1.44s-.04-.04-.06-.05c-.03,0-.07,0-.1,0,.02.03.04.06.07.07.03,0,.06-.01.1-.02Zm9.46,1.66c-.07-.03-.13-.08-.2-.08-.07,0-.14.05-.21.07.08.04.16.1.24.11.05,0,.11-.07.17-.11Zm-.29-41.28c-.07-.01-.14-.03-.2-.04-.01,0-.03.03-.05.05.06.01.13.03.19.03.02,0,.03-.03.05-.05Zm4.33-.52s-.06.02-.09.03c.05.02.1.04.15.05.03,0,.06-.02.09-.03-.05-.02-.1-.03-.15-.05Zm-1.51,17.83v-.05s-.09.02-.09.02l.09.04Zm.97-54.77v.04s.08-.01.08-.01l-.08-.03Zm-4.69,82.1s-.06-.07-.08-.06c-.06.01-.12.04-.18.07.03.02.06.07.08.06.06-.01.12-.04.18-.07Zm3.72-20.12s.06-.01.09-.02c-.02-.02-.05-.04-.07-.04-.03,0-.06.01-.09.02.02.02.05.03.07.05Zm-2.64,19.67l.1-.03-.1-.03v.06Zm1.5-19.21s-.02-.06-.03-.06c-.03,0-.07.01-.1.02,0,.02.02.06.03.06.03,0,.07-.01.1-.02Zm2.85,0s-.02-.05-.03-.05c-.03,0-.06.01-.09.02,0,.02.02.05.03.05.03,0,.06-.01.09-.02Zm-3.34,18.67l-.09.03.09.03v-.06Zm1.12-17.45s.06-.01.09-.02c-.02-.02-.05-.04-.07-.05-.03,0-.06.01-.09.02.02.02.05.03.07.05Zm-.42,1.62s-.07-.02-.1-.02c-.01,0-.02.04-.03.06.03,0,.07.02.1.02.01,0,.02-.04.03-.06Zm1.73,14.18s-.06-.07-.08-.07c-.06.01-.12.04-.19.07.02.03.05.08.07.07.07-.01.13-.05.19-.07Zm-1.45-83.53s-.06-.02-.09-.02c.02.02.04.05.05.07.01-.02.02-.03.03-.05Zm2.6,47.54l-.08-.05-.02.06h.1Zm-3.22-11.78l.07.04v-.04s-.07,0-.07,0Zm.88.26s-.03-.05-.05-.06c-.03,0-.06,0-.1,0,.02.03.04.07.07.09.02,0,.06-.02.09-.04Zm-4.13,45.84s-.02-.07-.03-.07c-.04,0-.07.01-.11.02.01.03.02.07.03.07.04,0,.07-.02.11-.03Zm2.32-44.92l.08.05.02-.06h-.1Zm-11.99,44.64v.05s.09-.01.09-.01l-.09-.03Zm14.19-43.84s.06-.02.09-.04c-.02-.02-.05-.06-.07-.06-.04,0-.07.04-.1.06.03,0,.06.02.09.03Zm-11.24,43.1s-.06.01-.1.02c.04.01.08.02.13.04,0-.02-.02-.04-.03-.06Zm10.34-.67l-.08-.04v.05s.08-.01.08-.01Zm.64-.21s.07-.02.1-.03c-.03-.02-.06-.05-.09-.05-.03,0-.07.02-.1.03.03.02.06.04.09.05Zm.69-.25s.06-.01.09-.02c-.02-.02-.04-.04-.07-.05-.03,0-.06.01-.09.02.02.02.05.03.07.05Zm-1-6.98l-.06-.04v.05s.06-.02.06-.02Zm.2,11.32l.05-.08h-.08s.03.08.03.08Z"/><path d="m14.16,117.49c.73.51.8,1.21.68,2.03-.06.46-.28.91-.09,1.44.07.2-.37.58-.58.88-.17-.08-.33-.16-.5-.24-1.34-.94-2.68-1.89-4.03-2.83-.08-.05-.22-.01-.33-.01.07.11.11.24.21.32.75.6,1.51,1.19,2.27,1.79-.17,0-.34,0-.5,0-.43-.27-.86-.54-1.29-.82-.02.03-.04.06-.05.09.45.23.91.47,1.36.7.23.17.46.34.69.51.17.08.33.15.5.23,0,.02.01.04.02.06-.01-.02-.02-.04-.03-.06-.17-.07-.34-.13-.51-.2-.07-.18-.14-.36-.2-.54l1.94.74c.17.08.34.15.51.23.11.2.33.4.32.59-.02.35-.14.7-.31,1.01-.05.09-.44.07-.61-.02-1.1-.56-2.18-1.15-3.27-1.74-.21-.11-.39-.28-.61-.38-.07-.03-.2.05-.29.1-.02,0,0,.16.05.19.32.24.63.49.98.68,1.11.63,2.24,1.22,3.34,1.85.15.09.2.35.29.53-.18-.02-.39,0-.53-.08-.8-.45-1.58-.93-2.37-1.4-.2-.12-.41-.24-.63-.33-.09-.04-.23.02-.34.04.05.12.06.3.15.35.65.39,1.32.75,1.98,1.11.42.23.83.48,1.28.65.55.22.77.6.85,1.16.12.85.32,1.68.47,2.53.04.23.03.48-.01.7-.11.63-.25.72-.78.38-1.38-.88-2.75-1.76-4.07-2.73-1.89-1.39-3.73-2.86-5.59-4.3-1.56-1.21-2.02-2.55-1.41-4.28.07-.2.37-.32.56-.47.33.38.65.77.98,1.15,0,0,.06-.04.09-.06-.33-.34-.65-.69-.98-1.03-.02-.02-.07-.02-.11-.03-.21-.16-.42-.31-.63-.47-.51-.38-.14-.54.17-.71l-.04-.03c.65.62,1.3,1.25,1.96,1.86.05.04.18,0,.28-.02-.04-.11-.08-.22-.13-.33.05-.05.09-.09.14-.14.46,0,.54-.24.31-.57-.19-.27-.45-.5-.68-.74.04-.04.09-.09.13-.13.42.36.86.7,1.25,1.09.25.24.46.41.82.23.35-.17.73-.28,1.1-.42-.29-.24-.59-.48-.88-.74-.12-.11-.2-.26-.3-.4.15.03.29.07.44.1.04,0,.07.04.1.06.86.82,1.75.75,2.67.12.16.09.31.18.47.27,0,.02.02.04.02.06l-.04-.07c-.16-.08-.32-.15-.48-.23-.46-.29-.92-.58-1.38-.88-.07-.05-.09-.17-.14-.25.11,0,.23-.04.32,0,1.19.63,2.36,1.28,3.55,1.89.33.17.71.25,1.07.37v.08s-.02-.05-.02-.05c-1.65-.97-3.3-1.94-4.95-2.9-.21-.12-.44-.2-.64-.31-.1-.06-.17-.16-.25-.24.14-.02.31-.09.42-.04.9.44,1.78.91,2.67,1.36.35.18.72.34,1.07.51l-.03-.03c.17.09.35.18.52.26l-.04-.03c.17.09.35.18.52.26l-.04-.03c.25.17.5.34.75.51l-.04-.03c.17.09.35.18.52.26l-.03-.03Zm-8.88,4.33s.06-.02.09-.03c.01,0,.01-.04.02-.06-.03.04-.05.08-.08.12-.04.05-.09.11-.13.16.04-.06.07-.12.11-.18Zm7.67-3.59s.02.04.02.06c-.01-.02-.03-.04-.04-.06l-.03-.05.05.05Zm-2.38-.73c-.1-.02-.21-.05-.31-.07l.33.04c.17.07.33.15.5.22.22.18.44.36.65.54.18.07.36.14.54.2.15.08.3.16.45.23,0,0-.02.02-.02.02l-.46-.23c-.18-.07-.36-.13-.54-.2l-.65-.54c-.16-.07-.33-.15-.49-.22Zm-.71.23l-.05-.02.07.03c.17.07.33.14.5.2.04.14.04.37.13.42.97.53,1.95,1.03,2.93,1.55.17.07.34.13.51.2,0,.03,0,.07,0,.1,0,.02.03.04.04.05-.02-.04-.05-.08-.07-.13-.16-.07-.33-.15-.49-.22-1.03-.65-2.06-1.3-3.09-1.95-.16-.08-.33-.15-.49-.23Zm1.43,1.69s-.01-.04-.02-.07c0,.02.02.04.03.07.17.07.34.14.52.21.22.17.44.35.66.52.17.07.34.14.51.22.16.08.33.15.49.23.05.07.11.14.16.2,0,0,.05-.04.08-.06-.09-.04-.18-.08-.26-.12-.16-.08-.33-.16-.49-.23-.17-.07-.34-.14-.51-.21-.22-.18-.44-.35-.66-.53-.17-.08-.33-.15-.5-.23Zm-.2,4.76c.02.13.04.27.07.4.06-.03.13-.06.19-.09-.1-.09-.19-.19-.29-.28-.26-.13-.53-.27-.79-.4l-.05.19c.29.06.59.12.88.18Zm2.15,1.19c.02.05.04.11.05.16,0-.02.02-.05,0-.07-.02-.03-.06-.05-.09-.07-.44-.21-.88-.42-1.32-.63-.01.03-.02.06-.03.08.46.17.92.35,1.39.52Zm-1.27-3.29c.07.03.13.07.2.1.02,0,.05-.02.07-.03-.1-.01-.2-.03-.3-.04-.45-.32-.9-.65-1.35-.96-.02-.01-.1.06-.16.09.44.25.87.51,1.31.76.07.04.15.06.22.08Zm-3.22-1.67c-.15.1-.25.16-.34.22.15.14.29.29.45.41.02.02.23-.17.22-.18-.09-.15-.21-.29-.33-.45Zm.2,1.74c.1-.12.16-.19.23-.26-.15-.09-.3-.2-.46-.26-.04-.01-.14.13-.21.2.14.1.28.21.44.33Zm-.92-.59c.11-.15.17-.24.23-.33-.15-.11-.3-.23-.46-.3-.05-.02-.16.12-.24.18.15.14.3.28.47.45Zm-.17-1.55c-.13-.2-.18-.34-.23-.35-.17,0-.34.04-.52.06.04.09.06.26.12.27.16.04.33.01.63.01Zm-1.6.65c-.27-.12-.42-.23-.54-.21-.13.02-.24.17-.37.26.15.08.29.2.45.21.11.01.23-.12.46-.26Zm.8.67c-.11.1-.18.17-.25.24.1.09.19.21.31.27.05.02.16-.09.24-.14-.09-.11-.18-.22-.3-.36Zm-2.03-.97c.09-.1.18-.2.27-.3-.05-.04-.14-.12-.16-.11-.11.07-.2.16-.3.25.05.04.1.08.19.16Zm3.6-1.4c-.09.09-.13.14-.18.19.11.08.21.18.33.24.03.01.12-.1.19-.15-.11-.09-.22-.18-.34-.28Zm1,6.06c-.1.15-.23.26-.21.31.04.09.15.2.24.21.08,0,.17-.12.25-.18-.08-.1-.17-.2-.29-.33Zm-3.52-2.51c.09-.06.21-.11.21-.13-.03-.1-.09-.18-.14-.27-.08.05-.16.1-.24.15.06.08.12.17.18.25Zm1.85-.5c-.11.13-.24.23-.22.27.03.09.13.2.22.21.09.02.19-.07.29-.1-.08-.11-.17-.22-.29-.38Zm-.08-3.4c-.03.07-.07.13-.1.2.07.02.15.08.21.06.04,0,.06-.11.09-.18-.07-.03-.13-.06-.2-.08Zm1.93,4.79c-.14-.1-.22-.21-.31-.21-.08,0-.16.12-.24.18.08.06.16.17.25.18.08.01.17-.08.31-.15Zm-2.91-3.08c-.12-.11-.19-.23-.28-.25-.07-.02-.17.07-.26.12.07.07.12.19.2.21.08.02.19-.04.34-.08Zm1.86,2.71c.04-.07.11-.14.13-.22,0-.03-.14-.13-.15-.12-.08.06-.15.15-.22.22.07.03.13.06.24.11Zm.78-.43c.07-.03.15-.04.2-.09.02-.02-.03-.11-.05-.16-.09.03-.17.07-.26.1.04.05.08.1.12.15Zm-2.46.38c-.03-.05-.05-.14-.09-.15-.06-.01-.13.03-.2.04.04.07.08.15.12.22.06-.04.11-.08.17-.12Zm-.2-3.6c-.02-.06-.04-.12-.06-.18-.06.03-.15.04-.19.09-.02.03.03.11.05.17.07-.03.13-.05.2-.08Zm1.49,4.64c-.06-.02-.13-.07-.19-.06-.06.02-.1.09-.15.14.09.03.17.08.26.09.02,0,.05-.11.08-.18Zm.53.51c-.06.1-.11.19-.17.28.07.02.15.07.21.05.06-.02.11-.11.12-.18,0-.03-.08-.08-.16-.15Zm2.48,1.98c.07.03.13.06.19.07.02,0,.05-.04.08-.06-.05-.04-.09-.09-.15-.1-.03,0-.08.06-.12.09Zm-.89-.76c-.07-.02-.13-.03-.19-.05,0,.05-.02.09,0,.14,0,.01.07.03.09.02.04-.02.07-.07.1-.11Zm-5.76-4.43c.06-.03.13-.05.19-.08-.02-.03-.05-.07-.07-.08-.06,0-.13.01-.19.02.02.04.05.09.07.13Zm4.02-3.01l-.04.06h.07s-.03-.06-.03-.06Zm-2.88,1.54s.05-.04.08-.07c-.02-.03-.05-.07-.07-.07-.02,0-.05.04-.08.06.02.03.05.05.07.08Zm3.66-.07l-.07-.04v.07s.07-.03.07-.03Zm-1.54.49l.07.05v-.07s-.07.03-.07.03Zm1.51.19l-.05.06h.07s-.03-.06-.03-.06Zm-1.94,3.01s.05-.04.08-.06c-.02-.03-.04-.07-.07-.07-.02,0-.05.04-.08.06.02.03.04.05.06.08Z"/><path d="m23.75,35.89c.17-.16.34-.32.51-.47,0,0-.03.03-.03.03.25-.09.5-.18.75-.26l-.03.03c.07,0,.15,0,.22-.02.11-.04.21-.1.32-.15-.1-.02-.21-.05-.31-.07-.07-.01-.15-.02-.22-.03,0,0,.02.02.02.02v-.26s-.02.02-.02.02c.25-.09.5-.17.75-.26,0,0-.03.02-.03.02.33,0,.66-.01.99-.02-.18.13-.36.25-.55.38.21,0,.43.03.64.01.47-.05.94-.15,1.41-.16,1.05-.03,2.1,0,3.41,0-1.24-.51-2.26-.47-3.29-.33-.55.07-1.11.1-1.66.15,0-.09.01-.17.02-.26.32-.08.64-.16.95-.25,1.28,0,2.56,0,3.84,0l.13.15s.04-.07.06-.11c-.07,0-.14-.02-.21-.03-1.27-.65-2.54-.43-3.8,0-.31.08-.63.17-.94.25-.34-.01-.67-.03-1.01-.04l.03.02c1.52-.79,3.18-.96,5.12-1.02-1.62-.63-2.97-.32-4.32-.06-.58.11-1.16.26-1.73.39-.03-.03-.06-.07-.09-.11,1.38-.85,2.94-.91,4.49-1.01-1.85-.22-3.65,0-5.4.66-.11.04-.25,0-.38-.01.08-.09.14-.22.24-.26.59-.22,1.19-.43,1.79-.73-.81.08-1.62.17-2.43.25-.01-.08-.02-.17-.03-.25,1.83-.27,3.65-.55,5.48-.82-1.98-.38-3.86.18-5.78.44,1.57-.63,3.2-1.02,4.91-1.31-.53-.04-1.08-.18-1.6-.1-1.29.21-2.57.52-3.86.78-.12.02-.26-.03-.39-.05.09-.06.17-.14.27-.19,1.3-.56,2.65-.85,4.06-.95.14-.01.28-.07.42-.11-.15-.1-.31-.3-.44-.29-.67.06-1.34.17-2.01.28-.7.12-1.4.26-2.1.39-.02-.08-.04-.15-.06-.23,1.1-.28,2.19-.56,3.29-.84,0-.05-.01-.1-.02-.15-1.22.16-2.45.33-3.67.49-.01-.07-.03-.13-.04-.2.92-.22,1.84-.43,2.76-.65,0-.05,0-.1,0-.14-.98.08-1.96.18-2.95.24-.1,0-.21-.13-.32-.2.68-.03-.54-.53.15-.59.43-.04.84-.19,1.25-.43-.66.05-1.33.1-1.99.14-.07,0-.15-.1-.22-.15.05-.05.1-.14.16-.15.15-.04.32-.03.47-.06.2-.04.4-.1.6-.14-.19-.04-.38-.07-.57-.12-.07-.02-.14-.06-.21-.1.06-.05.11-.14.17-.15.31-.08.62-.16.93-.19.38-.05.76-.06,1.13-.2-.67-.08-1.34-.14-2.01-.24-.17-.03-.33-.15-.5-.22.14-.17.24-.4.42-.49.56-.27,1.15-.49,1.65-.69-.41-.03-.93-.08-1.46-.12,0-.04,0-.09,0-.13.65-.09,1.3-.18,1.94-.27,0-.05-.01-.1-.02-.16-.54.03-1.08.06-1.62.07-.09,0-.19-.07-.28-.12.09-.07.17-.19.27-.21.51-.08,1.02-.14,1.54-.32-.67-.05-1.33-.09-2-.15-.09,0-.17-.12-.26-.19.09-.05.18-.14.26-.14.79-.01,1.58,0,2.38,0,0-.08,0-.17,0-.25h-2.28c0-.08-.02-.16-.03-.23.75-.13,1.5-.27,2.25-.4,0-.04,0-.08,0-.12h-2.37s0-.09,0-.13c.87-.14,1.75-.28,2.68-.43-.88-.15-1.68-.28-2.48-.41.81-.08,1.62-.15,2.43-.23-.01-.09-.03-.18-.04-.28-.79.18-1.58.35-2.37.53-.17-.1-.62-.2-.18-.4.57-.25,1.23-.28,1.83-.54-.49.06-.98.13-1.47.18-.1.01-.22-.06-.32-.09.08-.09.14-.23.23-.25.42-.09.85-.14,1.28-.36-.32,0-.65.04-.96-.01-.23-.04-.56-.17-.62-.33-.16-.43.3-.33.51-.46.06-.04.11-.11.16-.16.19,0,.38,0,.57-.02.11,0,.23-.03.34-.05-.13-.03-.26-.11-.39-.09-.17.03-.34.12-.51.19-.38-.03-.76-.07-1.13-.1.37-.14.74-.27,1.11-.42.17-.07.32-.15.48-.23.38,0,.76,0,1.15,0,0-.08-.02-.16-.03-.25-.37.09-.73.18-1.1.27-.43-.04-.85-.08-1.28-.12.26-.61.83-.3,1.25-.42.38-.11.79-.14,1.15-.3.36-.16.68-.42,1.02-.64-.03.39-.13.79-.07,1.17.21,1.23.07,2.42-.05,3.65-.14,1.35.3,2.75.34,4.13.03.9.12,1.7.77,2.36.41.41.78.92,1.27,1.16.67.33,1.05,1,1.85,1.24.54.17.93,1.1,1.55,1.38,1.1.49,1.74,1.48,2.56,2.23,1.02.93,2.2,1.81,2.81,3.13.08.18.08.41.11.61-.16-.05-.36-.06-.49-.16-1.89-1.55-4-2.25-6.45-1.79-.7.13-1.42.33-2.07-.17.5-.06,1.01-.12,1.51-.18.51-.03,1.01-.06,1.52-.1,0-.05-.02-.11-.02-.16-.49.09-.98.19-1.47.28-.51.06-1.01.12-1.52.18-.78.18-1.57.35-2.35.53,0,0-.03-.03-.03-.03Zm9.12-.2l.03.04s-.04-.04-.05-.05c-.04-.03-.09-.06-.13-.09.05.03.1.07.16.1Zm-6.3-3.8s-.08.05-.11.08h1.76s0-.05,0-.08h-1.64Zm-5.12-6.22s.04.04.05.06h1.13s0-.04,0-.06h-1.18Zm1.71,2.43c-.27-.02-.38-.05-.49-.04-.11,0-.22.03-.34.05.11.02.22.04.33.05.11,0,.22-.02.49-.05Zm-.59-9.12c-.07-.01-.14-.03-.21-.03-.02,0-.04.03-.06.05.07.01.15.03.22.03.02,0,.03-.04.05-.05Zm.18,7.91s-.07,0-.11,0c0,0,0,.02,0,.04.04,0,.07,0,.11,0,0,0,0-.02,0-.03Z"/><path d="m21.79,8.36c-.46-.68-1.13-.76-1.87-.64-.1.02-.22-.11-.32-.16.09-.06.18-.17.28-.18.59-.05,1.19-.08,1.81-.2-.69-.1-1.38-.2-2.06-.31-.13-.02-.25-.12-.38-.19.11-.05.22-.14.34-.16.6-.11,1.21-.21,1.81-.31-.01-.08-.03-.16-.04-.23-.54.04-1.08.09-1.62.1-.29,0-.3-.07-.11-.45.08-.16.08-.19-.18-.17-.87.07-1.74.17-2.62.23-.34.02-.68-.03-1.02-.04.29-.15.57-.39.88-.44,2.33-.36,4.66-.63,6.96.17.63.22,1.05.53,1.06,1.24-.05.12-.1.25-.15.37.03.01.07.03.1.04,0-.14.01-.29.02-.43.1.26.2.52.31.78-.2.19-.57.36-.59.57-.09,1.05-.09,2.1-.11,3.16,0,.08.11.16.17.24.07-.08.18-.15.19-.23.03-.31.02-.63.05-.94.08-.94.18-1.88.27-2.82.04.07.11.14.11.21.07,1.91.06,3.82-.35,5.7-.03.15-.1.31-.2.43-.58.69-2.54.9-3.37.39-.12-.07-.28-.06-.43-.1-.29-.07-.34-.22-.04-.32.44-.16.29-.24-.01-.36-.27-.11-.52-.24-.78-.36.28-.02.55-.04.83-.05.08,0,.17.02.24,0,.16-.07.31-.17.46-.25-.13-.07-.25-.16-.38-.19-.15-.04-.32-.02-.47-.05-.07-.01-.13-.07-.2-.11.08-.05.16-.15.24-.15.7-.01,1.4,0,2.1-.09-.96-.23-1.93-.46-2.89-.69v-.11c.67-.03,1.33-.06,2-.09.01-.06.02-.13.04-.19-.36-.08-.71-.14-1.06-.24-.2-.06-.39-.17-.59-.26.05-.1.09-.28.15-.29.21-.03.43-.02.64.02.57.1,1.15.23,1.77.13-.82-.24-1.64-.49-2.69-.8.6-.04.99-.06,1.37-.1.1-.01.27-.13.26-.16-.03-.14-.11-.27-.2-.38-.04-.05-.16-.02-.23-.04-.23-.08-.45-.17-.68-.25.25-.09.5-.21.75-.27.15-.04.31.01.47.03.07.03.14.09.21.09.09,0,.19-.02.29-.03-.1-.02-.2-.06-.29-.07-.07,0-.15.02-.23.02Zm2.86,3.66c-.05-.09-.08-.16-.11-.22-.08.05-.21.09-.24.16-.02.06.07.16.12.25.08-.06.16-.13.23-.19Z"/><path d="m9.12,40.96c-.45-.36-.91-.71-1.36-1.08-.09-.08-.11-.25-.17-.37.11,0,.24-.05.33-.01.4.15.8.32,1.2.49.08.09.16.18.23.27.17.06.35.12.52.18.08.08.16.16.24.25.07.09.14.18.22.26.08.08.15.17.23.25.06.1.12.2.18.3.66.78,1.32,1.56,1.98,2.34.09.07.19.14.28.21.03.07.06.15.09.22-.04-.06-.08-.13-.12-.19-.09-.07-.18-.15-.27-.22-.34-1.03-1.01-1.81-1.87-2.45-.09-.07-.18-.14-.27-.2-.08-.08-.16-.16-.25-.23-.07-.09-.15-.17-.22-.26l-.24-.24c-.17-.06-.35-.12-.52-.18-.08-.09-.15-.18-.23-.27-.49-.38-1-.74-1.47-1.14-.11-.09-.12-.29-.17-.44l.57-.08c-.2-.13-.41-.24-.59-.38-.07-.06-.08-.19-.12-.29.11-.02.24-.09.34-.07.38.11.79.19,1.12.39,2.4,1.42,4.27,3.26,5.16,6.03.42,1.31.44,2.59.41,3.92-.02.73.06,1.45.08,2.18,0,.36-.21.39-.47.23-.1-.06-.17-.16-.25-.25-1.68-1.98-3.5-3.82-5.65-5.31-.11-.07-.15-.24-.22-.37.14,0,.3-.04.43.01,1.22.5,2.11,1.41,3.01,2.32.47.48.97.94,1.45,1.4.02.03.04.06.06.08.01.01.04,0,.06,0-.05-.02-.1-.04-.15-.06-.15-.26-.25-.58-.46-.78-1.38-1.36-2.78-2.7-4.17-4.06-.11-.11-.15-.29-.23-.43.15.02.33-.02.44.05.58.41,1.18.8,1.71,1.27.79.71,1.52,1.48,2.28,2.23l.26.23c.14.25.29.51.43.76l.05.02h-.07c-.14-.26-.28-.51-.43-.75-.09-.08-.17-.15-.26-.23-.39-.53-.71-1.14-1.18-1.59-1.14-1.1-2.36-2.13-3.53-3.19-.11-.1-.17-.25-.25-.38.17,0,.38-.05.51.03.62.33,1.22.69,1.83,1.03.08.08.16.16.24.24.09.08.17.15.26.23.08.08.17.16.25.23.08.08.16.16.24.24.22.33.44.66.67.99.08.08.17.16.25.25.09.07.17.15.26.22.08.08.17.15.25.23.09.07.17.15.26.22.14.25.29.5.43.75.09.08.18.15.28.23,0,.04.01.08.02.11,0,.03.02.06.04.08-.03-.06-.06-.11-.09-.17l-.27-.23c-.15-.25-.29-.5-.44-.74-.09-.07-.17-.15-.26-.22-.08-.08-.17-.15-.25-.23-.09-.07-.17-.15-.26-.22l-.26-.24c-.22-.33-.44-.66-.67-.99-.08-.08-.16-.16-.24-.24-.08-.08-.17-.16-.25-.24-.08-.08-.17-.16-.25-.24-.08-.08-.16-.16-.24-.24-.57-.48-1.14-.96-1.69-1.46-.1-.09-.13-.24-.2-.37.15,0,.31-.06.44-.02.34.11.66.26.99.39.39.41.79.81,1.18,1.22.08.08.17.16.25.24.08.07.17.14.25.21l.25.24c.08.08.17.15.25.23.14.25.28.51.42.76.09.08.18.16.27.24l.26.22.03.07-.06-.04-.26-.22-.27-.24c-.14-.25-.28-.51-.42-.76-.08-.08-.17-.15-.25-.23l-.25-.24c-.08-.07-.17-.14-.25-.21l-.25-.24c-.14-.65-.58-1.01-1.18-1.22Zm2.42-.05l.03.07-.03-.05c-.08-.08-.16-.16-.24-.25-.41-.31-.81-.62-1.22-.93-.07-.09-.15-.18-.22-.26-.17-.06-.34-.12-.51-.18v-.07s.01.04.01.04l.52.18c.07.09.14.18.21.27.41.31.81.62,1.22.92.07.08.14.17.21.25Z"/><path d="m14.64,15.74c-.11-.31-.22-.62-.32-.94.35.02.71.03,1.06.07.28.03.55.09.82.17,1.94.57,3.86.47,5.78-.1.27-.08.54-.17.81-.19.3-.03.6,0,.9.02-.04.34,0,.71-.13,1.02-.26.61-.81.88-1.44.9-1.83.07-3.64.59-5.48.12-.15-.04-.34.1-.51.15.11.14.2.31.34.41.16.12.37.15.54.26.63.43-.07.39-.2.55-.1-.06-.19-.12-.29-.16-.02-.01-.06.02-.09.03.13.04.27.07.4.11q-.52.31-1.57.36c.46.09.97.18,1.47.3.15.04.28.17.42.26-.12.16-.22.41-.36.45-.42.1-.86.12-1.31.25.55.07,1.09.13,1.64.22.1.02.17.13.26.2-.09.04-.18.12-.27.12-.58.01-1.16,0-1.73.22.35.02.71,0,1.05.06.27.04.53.16.8.24-.28.07-.57.19-.86.21-.39.04-.78,0-1.18.24.78.06,1.57.12,2.35.2.12.01.24.12.36.19-.11.05-.21.13-.32.13-.72.01-1.43,0-2.15.15.63,0,1.27,0,1.9,0,.11,0,.22.13.33.19-.09.06-.18.16-.28.17-.75.08-1.49.15-2.24.38.74,0,1.48-.01,2.22,0,.24,0,.49.09.73.14-.25.09-.5.22-.76.25-.63.07-1.27.08-1.91.13-.09,0-.19.07-.28.11.08.08.17.21.25.22.79.05,1.59.07,2.39.12.1,0,.2.08.29.12-.08.08-.15.23-.23.23-.99-.02-1.99-.04-2.98-.11-.11,0-.29-.27-.29-.41-.04-1.56-.04-3.12-.09-4.68-.03-.88-.17-1.76-.21-2.64,0-.15.26-.3.4-.45l.03.06-.04-.04Zm7.67.24c-.12.04-.25.08-.37.11.03.01.07.04.09.03.09-.05.17-.11.26-.17.09-.02.18-.04.27-.05-.02,0-.05-.03-.07-.03-.06.03-.12.07-.17.1Zm-5.3.2c1.21.74,2.37.15,3.54-.02.04,0,.1-.13.1-.2,0-.05-.1-.13-.15-.13-1.17.11-2.33.22-3.49.34Z"/><path d="m13.19,7.14c.29-.32.53-.69.87-.95.46-.35.97-.52,1.5-.02.22.2.56.27.85.4.07.03.12.09.19.13-.08.05-.15.13-.24.16-.32.1-.64.19-.93.41.47.03.93.06,1.4.1,0,.05,0,.1.01.15-.3.06-.61.1-.89.2-.25.1-.48.27-.72.41.23.07.47.12.69.21.1.03.18.12.26.18-.13.05-.27.09-.4.14-.13.04-.27.08-.4.12.1.12.17.32.29.35.4.13.82.19,1.24.28-.4.15-.8.29-1.19.46-.11.05-.19.18-.28.28.12.02.24.07.35.06.27-.03.54-.16.8-.12.2.03.37.24.55.37-.16.11-.31.27-.49.31-.42.09-.85.13-1.28.19-.05-.05-.1-.14-.16-.15-.1-.02-.21.01-.31.02.09.03.17.08.26.1.07.02.15,0,.23,0,.5.2,1,.41,1.5.61,0,.05-.01.11-.02.16-.33-.03-.65-.08-.98-.09-.13,0-.25.1-.38.15.09.13.16.32.29.38.36.16.75.25,1.12.39.14.05.25.17.37.25-.18.04-.38.16-.54.12-.34-.08-.66-.26-1-.37-.12-.04-.27.03-.4.05.07.09.13.22.22.26.32.15.66.26.98.41.1.05.16.18.23.27-.15.02-.31.04-.46.06-.32-.07-.65-.15-.97-.22-.09-.03-.19-.06-.28-.09.1.02.21.04.31.06.32.07.65.15.97.22.25.18.49.37.74.55-.33-.02-.66-.04-.98-.06-.23-.06-.45-.12-.68-.17-.02,0-.05.05-.07.08.26.02.52.04.78.06-.7.42-1.46.47-1.94.02-.61-.58-1.22-1.2-1.23-2.11-.02-1.52.02-3.03.05-4.55,0-.09.13-.19.19-.28,0,.08,0,.15,0,.23.04.31.09.63.14.94.05-.36.11-.71.15-1.07,0-.03-.04-.07-.05-.1.05-.03.11-.05.16-.08-.03-.03-.07-.07-.1-.1-.02.06-.04.11-.06.17-.09.01-.17.02-.26.03Zm.37,4.73s.03,0,.05,0v-1.88s-.1,0-.15,0c.03.63.07,1.25.1,1.88Zm1.23,1.85c-.06,0-.13-.02-.19-.03.03.02.06.05.09.06.03,0,.07-.02.1-.03Z"/><path d="m9.67,33.15c1.06.28,2.12.55,3.18.84.23.06.45.17.66.28.1.05.16.17.24.25-.13.01-.27.06-.39.04-1.28-.3-2.54-.64-3.83-.9-.58-.12-1.19-.08-1.8.03.92.17,1.84.41,2.77.5,1.21.11,2.11.8,3.06,1.41.06.04.07.17.11.26-.11,0-.23.03-.34,0-1.12-.26-2.23-.63-3.37-.76-1.14-.13-2.3-.03-3.46,0,1.8.1,3.55.46,5.24,1.1.23.09.41.29.62.43-.27-.02-.54,0-.79-.06-.89-.22-1.76-.5-2.66-.7-1.92-.45-3.72-.14-5.42.86-.17.1-.4.1-.6.15.11-.22.17-.49.34-.64.64-.58,1.17-1.27,1.75-1.89.65-.71,1.66-1.35,2.59-1.49,1.64-.24,3.35-.27,4.99.2.15.04.31.09.45.17.34.19.67.39,1.01.58-.36-.08-.71-.18-1.07-.24-1.09-.21-2.18-.4-3.27-.61l-.03.19Zm-1.34,1.2s0-.08,0-.12c-.77.05-1.54.09-2.32.16-.11,0-.2.12-.3.18.1.03.2.1.29.08.78-.09,1.56-.2,2.34-.3Z"/><path d="m18.48,42.38c.98-.48,1.96-.96,2.94-1.44.02.05.05.1.07.15-1,.67-2,1.35-3,2.02-.17.07-.34.14-.5.21l-.03.05.02-.07c.17-.07.33-.14.5-.21.83-.23,1.66-.47,2.5-.7.1-.03.23.02.34.04-.09.09-.15.22-.26.26-.91.38-1.84.72-2.74,1.12-.37.17-.69.48-1.03.73-.03.05-.06.1-.09.16.02-.06.05-.12.07-.18.99-.28,1.97-.58,2.96-.84.37-.1.77-.09,1.19.08-.6.17-1.21.3-1.79.5-.67.24-1.32.53-1.97.81-.1.04-.14.21-.21.31.11-.01.23,0,.33-.04.8-.24,1.58-.53,2.39-.72.49-.12,1-.11,1.51-.06-1.31.45-2.63.91-3.94,1.36-.1.06-.2.12-.3.19.12-.03.25-.07.37-.1l3.02-.6s0,.05,0,.08c-1.1.41-2.2.83-3.3,1.25-.75.29-.78.3-.97-.46-.3-1.19-.3-2.27.6-3.34,1.09-1.3,2.5-2.09,3.88-2.97.09-.05.21-.05.32-.07-.06.12-.09.29-.19.36-.55.39-1.15.73-1.68,1.14-.36.28-.65.64-.98.97-.06.09-.13.18-.19.28,0,0-.02-.01-.02-.02.07-.09.14-.18.2-.27Z"/><path d="m10.56,61.35c-.43-.46-.87-.91-1.28-1.38-.32-.37-.93-.55-.73-1.31.06-.22-.45-.6-.71-.9-.23-.28-.47-.54-.67-.83-.04-.06.03-.21.05-.31.07.01.15.02.22.05.03.01.06.05.09.08,2.18,2.04,4.35,4.07,6.53,6.11.09.08.17.17.25.25.44.41.19.68-.18.94-.08-.09-.16-.18-.24-.27-.69-1.54-1.95-2.52-3.35-3.34-.07-.08-.15-.17-.22-.25-.07-.08-.15-.17-.22-.25-.08-.09-.15-.18-.23-.27-.01-.01-.02-.03-.03-.04.02.02.03.04.05.06.08.08.16.16.24.23.07.08.15.17.22.25.07.08.15.17.22.25,1.12,1.11,2.24,2.23,3.35,3.34.08.09.16.18.24.26.12.16.33.32.33.48,0,.38-.09.75-.15,1.13-.29-.18-.61-.32-.85-.55-1.72-1.65-3.43-3.32-5.14-5-.14-.14-.2-.36-.29-.55.2.09.42.15.59.28.65.5,1.28,1.02,1.92,1.54.08.08.16.16.23.25.07.09.13.19.2.28.08.08.15.17.23.25.32.32.65.63.97.95.08.08.16.16.24.24.08.08.17.15.25.23.09.07.18.14.27.21.08.08.16.16.25.23.08.08.16.16.24.24l.26.22s0,.06,0,.09c0,.02.03.03.04.04-.03-.04-.05-.07-.08-.11-.08-.08-.17-.15-.25-.23-.08-.08-.16-.16-.24-.24-.08-.08-.16-.16-.24-.24-.07-.09-.14-.18-.22-.26-.07-.09-.14-.18-.21-.26-.08-.09-.15-.17-.23-.26-.32-.32-.64-.64-.96-.96-.09-.07-.17-.15-.26-.22-.09-.07-.19-.13-.28-.2-.08-.08-.16-.16-.24-.24Z"/><path d="m3.66,41c.61.26,1.23.51,1.84.8.1.05.15.23.22.35-.14-.02-.29-.01-.43-.05-.45-.15-.89-.32-1.34-.46-.07-.02-.17.08-.26.13.07.04.13.08.2.11.19.07.4.09.56.2.32.22.62.49.92.74-.32-.12-.64-.25-.96-.35-.27-.08-.54-.14-.82-.18-.07-.01-.2.05-.21.07,0,.09.02.22.08.26.44.28.89.53,1.33.81.09.06.13.18.19.28-.11.01-.22.06-.32.04-.5-.11-.83-.74-1.46-.45.46.29.92.58,1.38.87.1.06.22.11.31.19.19.18.37.37.55.55-.25-.08-.5-.14-.74-.23-.55-.21-1.09-.47-1.66-.64-.46-.14-.67-.3-.51-.84.09-.28-.02-.63-.05-.95-.12-1.11,0-2.19.36-3.24.42-1.2,2.36-2.02,3.47-1.45.08.04.13.17.19.26-.09.04-.18.12-.26.12-.2,0-.39-.06-.59-.08-.33-.02-.61,0-.23.4.01.01-.1.21-.15.21-.2,0-.4-.1-.58-.08-.22.03-.42.16-.63.24.2.04.4.1.6.13.27.04.57.02.82.12.24.1.43.31.65.47-.25-.02-.49-.04-.74-.07-.2-.02-.4-.09-.59-.08-.31.03-.61.11-.92.17.27.12.54.24.81.35.18.08.39.12.55.22.18.12.33.29.49.44-.21-.04-.43-.07-.64-.11-.43-.07-.85-.16-1.28-.2-.12,0-.25.15-.38.24.13.04.25.08.38.11.45.12.91.22,1.36.35.05.01.07.13.11.2-.09.04-.18.11-.26.1-.44-.06-.88-.13-1.33-.2v.12Z"/><path d="m14.65,27.03c.51.15,1.02.36,1.55.45.47.08.96.03,1.43.02.33,0,.59.1.51.46-.03.16-.28.37-.44.39-1.07.09-2.14.14-3.22.35.39.03.77.09,1.16.09.76.01,1.52-.02,2.27,0,.26,0,.77-.22.72.29-.06.56.41.14.48.35.02.08,0,.23-.06.26-.29.18-.59.45-.89.46-1.55.05-3.11.04-4.67.02-.16,0-.33-.14-.49-.21.09-.1.19-.2.27-.31.18-.25.5-.51.5-.76,0-1.05.65-.99,1.36-.91.35.04.71,0,1.07-.06-.57-.11-1.15-.2-1.72-.34-.1-.02-.14-.24-.21-.36.14-.05.28-.1.42-.15,0,0-.03-.03-.03-.03Zm3.48,2.8s0-.09,0-.13h-3.88s0,.09,0,.13h3.88Z"/><path d="m12.97,94.22c-1.19-.9-2.38-1.8-3.58-2.7-.19-.14-.43-.23-.59-.4-.11-.12-.11-.33-.16-.5.26-.02.28-.55.72-.25,1.22.81,2.48,1.56,3.73,2.32.26.16.57.24.85.36l-.03-.03c.14.17.29.33.4.51.07.11.09.26.14.39-.17.02-.34.04-.51.06-.18-.06-.36-.13-.54-.19-.23-.17-.47-.33-.7-.5-.07-.09-.15-.18-.22-.27-.18-.06-.35-.13-.53-.19-.07-.1-.13-.19-.2-.29-.17-.06-.34-.13-.51-.19-.08-.09-.15-.19-.23-.28-.02-.02-.05-.04-.07-.06.03.01.07.02.1.04.07.09.15.19.22.28.17.06.34.13.51.19l.2.29.53.19.22.27c.23.16.46.33.7.49.18.06.36.12.54.18.2.48.41.95.59,1.43.15.38-.12.47-.41.52l.03.03-.52-.26.03.03c-.09-.09-.18-.18-.27-.27l.03.03c-1.46-1.09-2.92-2.18-4.38-3.27-.25-.19-.52-.36-.77-.56-.05-.04-.06-.13-.09-.2.09-.03.21-.11.27-.08.28.15.55.31.81.49.88.62,1.74,1.27,2.62,1.88.32.22.69.36,1.04.54.11.1.2.23.33.3.07.04.19,0,.29,0-.06-.06-.1-.14-.17-.17-.14-.06-.29-.1-.44-.15Zm-2.66-2.63l.05.04-.07-.04-.02-.05.04.05Z"/><path d="m12.5,56.8c-.28-.37-.54-.76-.86-1.1-.63-.67-1.22-1.41-1.95-1.94-.98-.71-1.12-1.93-1.91-2.72-.03-.03-.03-.16,0-.19.04-.04.16-.07.21-.04.17.1.35.2.49.34,1.91,1.87,3.82,3.75,5.73,5.63.14.14.26.31.32.49.01.04-.24.18-.37.27-.08-.08-.16-.16-.24-.24l-.25-.23c-.08-.08-.16-.16-.24-.24-.08-.08-.16-.16-.24-.24-.08-.08-.16-.16-.24-.24-.08-.08-.16-.16-.25-.23-.08-.08-.16-.16-.23-.25-.08-.08-.16-.16-.25-.23-.08-.08-.16-.16-.24-.24-.08-.08-.16-.16-.24-.24l-.03-.08.02.05c.09.08.18.16.26.24.08.08.16.16.24.24l.25.23.23.25c.08.08.16.16.25.24.08.08.16.16.24.24.08.08.16.16.24.24.08.08.16.16.24.24.08.08.16.16.24.24l.24.24c.14.18.27.36.42.54.29.34.2.54-.21.64l.03.03c-.09-.09-.18-.18-.27-.27l.03.02c-.33-.33-.66-.66-.99-.99l.03.03-.27-.27.03.03c-.09-.09-.18-.18-.27-.27l.03.03c-.09-.09-.18-.18-.27-.27l.03.03Z"/><path d="m14.15,60.62c.33.44.52.91.38,1.46-.03.13-.06.35-.13.37-.12.03-.31-.02-.41-.11-.57-.5-1.14-1-1.67-1.53-1.08-1.06-2.14-2.14-3.19-3.23-.18-.18-.26-.45-.39-.68.25.14.54.23.73.41.78.74,1.53,1.51,2.3,2.26.14.13.32.22.48.32.08.08.16.16.25.24.07.09.15.17.22.26l.24.24c.08.08.17.16.25.24l.03.04h-.06c-.08-.09-.17-.17-.25-.25-.08-.08-.16-.16-.24-.25-.07-.09-.15-.17-.22-.26-.08-.08-.16-.16-.23-.25-.74-.85-1.49-1.7-2.23-2.54-.49-.56-1-1.12-1.45-1.71-.07-.1.06-.35.1-.54l-.03-.03c.09.09.18.18.27.27l-.03-.03c.09.09.18.18.27.27l-.03-.03c.09.09.18.18.27.27l-.03-.03.27.27-.03-.03c.09.09.18.18.27.27l-.03-.03c.09.09.18.18.27.27l-.03-.03c.09.09.18.18.27.27l-.03-.03c.09.09.18.18.27.27l-.03-.03c.09.09.18.18.27.27l-.03-.03.27.27-.03-.03c.68,1.1,1.57,1.99,2.67,2.67l-.03-.03c.09.09.18.18.27.27l-.03-.03c.09.09.18.18.27.27l-.03-.03Z"/><path d="m13.67,69.49c.74.48.38,1.44.89,2.02.04.05,0,.24-.07.29-.07.06-.23.07-.32.03-.14-.06-.26-.18-.38-.28-1.73-1.53-3.46-3.06-5.18-4.6-.14-.13-.21-.34-.31-.51.21.07.44.11.62.22.56.37,1.09.77,1.63,1.15.08.08.16.16.24.24.47.41.94.82,1.41,1.23l.25.23.73.7c.08.08.16.17.25.25.02.01.04.03.06.04-.03,0-.06,0-.09-.01-.08-.08-.16-.17-.24-.25l-.65-.79c-.09-.07-.17-.15-.26-.22-.49-.39-.97-.79-1.46-1.18-.08-.08-.16-.16-.24-.24-.74-.71-1.48-1.42-2.22-2.13-.2-.19-.41-.38-.6-.58-.04-.04-.03-.14-.04-.22.1,0,.23-.06.29-.01.32.24.63.49.93.75,1.27,1.09,2.52,2.2,3.8,3.27.29.25.65.41.98.62l-.03-.03Z"/><path d="m8.64,63.99c-.35-.35-.71-.7-1.05-1.07-.06-.06-.05-.2-.07-.3.1,0,.23-.04.31,0,.37.21.72.44,1.08.66l-.03-.03c1.24,1.53,2.74,2.77,4.35,3.87l-.03-.03c.09.09.18.18.27.27l-.03-.03c.09.09.18.18.27.27l-.03-.03c.62.36.4,1.06.62,1.59.19.45-.35.31-.62.33l.03.03c-.35-.37-.68-.76-1.06-1.1-1.58-1.44-3.18-2.86-4.76-4.3-.14-.13-.2-.35-.3-.52.18.06.36.11.53.17.18.06.36.13.54.2.08.09.15.18.23.27.08.08.16.17.23.25.08.08.16.16.24.25.49.39.97.78,1.46,1.17.08.08.16.16.24.24.08.08.16.16.23.25.08.08.16.16.24.24.56.47,1.12.94,1.68,1.41l.03.07-.03-.05c-.56-.48-1.12-.95-1.68-1.43-.08-.08-.16-.16-.24-.24-.08-.08-.16-.16-.24-.23-.08-.08-.16-.16-.24-.24-.49-.39-.98-.77-1.47-1.16-.08-.08-.16-.16-.24-.25-.08-.08-.15-.17-.23-.25-.07-.09-.15-.18-.22-.27Z"/><path d="m8.9,63.29c-.43-.47-.91-.91-1.28-1.42-.31-.42.12-.25.29-.28l1.01.67s-.02.02-.02.03c-.34-.22-.67-.44-1.01-.66-.08-.13-.17-.25-.24-.38-.05-.09-.09-.19-.13-.29.11,0,.25-.03.32.02.37.24.74.48,1.07.76,1.69,1.4,3.37,2.81,5.06,4.22.03.03.07.04.09.08.12.19.23.38.34.57-.25.03-.5.05-.75.08-.08-.08-.15-.17-.23-.25-.08-.09-.15-.17-.23-.26-.08-.08-.16-.16-.24-.24-.48-.4-.96-.8-1.44-1.2-.07-.08-.15-.17-.22-.25-.02-.03-.04-.05-.06-.07-.01-.01-.04,0-.05-.01l.14.06.22.26c.48.4.96.8,1.44,1.2.08.08.16.16.24.24.08.08.15.17.23.25.08.08.16.17.23.25.11.11.23.21.32.33.36.46.16.62-.33.6,0,0,.03.03.03.03-.09-.09-.18-.18-.27-.27,0,0,.03.03.03.03-.09-.09-.18-.18-.27-.27l.03.03c-1.41-1.29-2.82-2.58-4.24-3.87-.02-.02-.08,0-.12,0l.03.03Z"/><path d="m14.22,31.62c.38.2.76.41,1.14.61-.38-.05-.76-.11-1.14-.14-1.22-.11-2.44-.21-3.67-.1.83.1,1.66.17,2.47.31.62.11,1.23.31,1.84.48.07.02.1.15.16.23-.08.01-.15.05-.22.04-.2-.03-.39-.11-.58-.13-1.5-.14-3-.28-4.51-.39-.32-.03-.64.04-.95.03-.08,0-.23-.12-.23-.18,0-.09.09-.25.17-.27.99-.24,1.89-.89,2.85-.99,1.77-.18,3.58-.03,5.28.65.14.06.22.28.32.42-.18-.02-.36-.03-.53-.07-.79-.2-1.59-.41-2.38-.61,0,.04,0,.08-.01.12Z"/><path d="m13.94,107.67c-.37-.29-.73-.59-1.1-.88-1.64-1.3-3.29-2.61-4.94-3.9-.25-.2-.4-.44-.16-.69.11-.11.44-.12.6-.04.6.29,1.18.64,1.76.96l-.03-.03c.25.17.5.34.76.51l-.04-.03c.81.89,1.73,1.61,2.91,1.95l-.03-.03c.24.32.48.63.72.95-.57.33-.83-.24-1.18-.46-.96-.62-1.87-1.32-2.81-1.96-.25-.17-.54-.28-.82-.41-.07-.08-.14-.17-.22-.25-.02-.02-.05-.03-.07-.05.03,0,.06.02.09.02.07.08.14.17.21.25.99,1.28,2.33,2.13,3.71,2.93.34.2.75.37.98.67.35.47-.04.5-.4.47l.03.03Z"/><path d="m13.7,87.77c-.37-.4-.68-.87-1.11-1.18-.97-.71-1.93-1.46-3.01-1.95-.93-.43-1.04-1.48-1.83-1.94-.03-.02-.04-.16,0-.21.03-.04.15-.07.2-.05.22.1.43.21.63.34,1.19.74,2.37,1.48,3.56,2.21.26.16.57.25.85.37,0,0-.04-.03-.04-.03l.27.27-.03-.03c.17.09.35.17.52.26l-.03-.03c.08.08.16.16.24.25l.03.03c.08.08.15.15.23.23h-.01c.08.22.26.49-.22.45-.18-.06-.36-.12-.54-.18-.08-.09-.15-.19-.23-.28l-.03-.05.05.02.22.28c.18.06.36.11.53.17.1.19.2.37.31.56.25.43.09.64-.37.68l.03.02c-.09-.09-.18-.18-.27-.27l.03.03Zm-4.35-3.84s.02.03.03.05c-.02-.02-.03-.04-.05-.05l-.02-.04.04.05Zm1.21.71l.05.04-.07-.04c-.15-.07-.3-.15-.45-.22l-.03-.05.05.04c.15.08.3.16.45.23Z"/><path d="m14.19,102.61c.06.1.15.18.17.29.04.16.03.34.04.51-.14-.02-.32.02-.43-.06-.93-.62-1.86-1.23-2.77-1.88-.97-.7-1.91-1.44-2.87-2.15-.36-.27-.27-.43.09-.56.02.03.05.06.07.09-.03-.02-.06-.04-.09-.06.08-.12.22-.35.24-.33.28.14.56.3.83.47,1.54.96,3.08,1.94,4.63,2.89.43.26.43.52.07.83-.17-.08-.34-.15-.51-.23-1.27-.88-2.55-1.77-3.82-2.65-.06-.03-.11-.06-.17-.08.06.02.13.04.19.06,1.05,1.2,2.34,2.06,3.82,2.65.17.08.34.15.51.23Zm-5.05-3.35s-.01-.04-.02-.06l.04.06.03.04-.04-.04Z"/><path d="m13.91,73.09c.13.19.22.44.4.57.68.47-.06,1.1.21,1.6-.1.04-.21.13-.29.12-.11-.02-.2-.12-.29-.2-1.57-1.35-3.13-2.71-4.69-4.06-.09-.08-.2-.15-.25-.25-.05-.09-.02-.21-.03-.31.1.03.22.03.3.08.26.19.5.4.74.6,1.17.96,2.34,1.92,3.51,2.87.11.09.28.12.42.17l.02.06-.04-.04c-.35-.46-.65-.99-1.07-1.38-1.3-1.22-2.65-2.39-3.98-3.59-.14-.12-.23-.29-.34-.44.21.04.42.08.63.12.08.01.15.02.23.03l-.03-.03c1.21,1.4,2.51,2.68,4.11,3.63l-.03-.03c.09.09.18.18.27.27l-.03-.03c.09.09.18.18.27.27,0,0-.03-.03-.03-.03Z"/><path d="m12.74,99.76c-1.23-.92-2.46-1.83-3.68-2.77-.3-.24-.53-.57-.79-.86.34.18.69.33,1.01.53.6.37,1.18.77,1.76,1.16l.73.48c.23.16.47.33.7.49.17.07.34.14.51.2,0,0-.02.02-.02.03-.17-.07-.34-.14-.51-.2l-.69-.49c-.24-.16-.49-.32-.73-.48-.48-.46-.97-.91-1.44-1.38-.21-.21-.39-.46-.58-.7.27.11.56.19.79.35.43.29.81.66,1.23.95.88.61,1.74,1.27,2.69,1.78.61.32.73.78.77,1.33.03.46-.29.36-.57.29h.01c-.17-.08-.34-.16-.5-.25l.03.02c-.25-.17-.5-.34-.75-.51l.03.03Z"/><path d="m22.54,110.53c-1.12.34-2.26.66-3.37,1.02-.54.18-1.05.45-1.49.89,2.03-.47,4.07-.94,6.1-1.42.02.08.04.15.06.23-.45.13-.89.27-1.34.4-1.72.5-3.44,1-5.16,1.49-.15.04-.31.08-.46.06-.08,0-.18-.12-.23-.21-.02-.04.04-.2.07-.2.79-.04-.15-1.04.72-1.17,1.72-.27,3.42-.7,5.12-1.07l-.02-.02Z"/><path d="m16.8,114.52c-.36-.57.1-.7.48-.8,2.08-.56,4.16-1.1,6.24-1.63.12-.03.28.04.41.07-.11.1-.21.24-.34.28-1.46.4-2.92.77-4.38,1.17-.46.13-.9.32-1.33.51-.13.06-.22.21-.33.31.14,0,.28.02.41,0,1.02-.18,2.03-.38,3.05-.55.14-.02.31.1.46.16-.14.06-.28.13-.42.17-1.24.3-2.48.6-3.72.88-.44.1-.85.09-.53-.57Z"/><path d="m14.16,53.66c.12.38.24.76.36,1.14-.57.08-.67-.46-.95-.75-1.6-1.66-3.2-3.33-4.79-5-.23-.24-.38-.55-.57-.82.3.14.59.27.89.41.17.08.35.16.52.25l-.03-.03c1.45,1.53,2.9,3.06,4.35,4.59l-.03-.03c.09.09.18.18.27.27l-.03-.02Z"/><path d="m17.04,39.25h1.41c0,.06.01.12.02.17-.34.05-.68.09-1.01.17-.14.03-.27.16-.4.24.14.03.28.04.41.08.15.04.29.1.43.15-.13.06-.26.17-.39.17-.89.04.11.35-.06.43-.26.13-.54.29-.82.3-.16,0-.48-.26-.47-.38.06-.75.18-1.49.33-2.23.03-.13.29-.28.45-.3.91-.12,1.82-.21,2.74-.3.11,0,.22.07.33.11-.11.06-.22.16-.33.18-.24.04-.48.02-.72.05-.06,0-.16.11-.16.17-.06.48-.05.46-.44.52-.45.07-.89.17-1.34.26,0,.06.02.12.03.18Z"/><path d="m9.62,48.89c-.41-.41-.83-.82-1.22-1.25-.14-.15-.2-.37-.3-.56.18.05.37.08.53.16.42.21.82.45,1.23.68l-.03-.03c.09.09.18.18.27.27l-.03-.03c.09.09.18.18.27.27l-.03-.03c.09.09.18.18.27.27l-.03-.03c.09.09.18.18.27.27l-.03-.03c.09.09.18.18.27.27l-.03-.03c.81.81,1.62,1.62,2.43,2.43l-.03-.03c.37.5.76.99,1.09,1.51.26.39.21.69-.37.66,0,0,.03.02.03.02-.09-.09-.18-.18-.27-.27l.03.03c-.22-.37-.39-.78-.67-1.09-.77-.86-1.57-1.69-2.39-2.5-.39-.38-.86-.67-1.29-1l.03.03Z"/><path d="m9.87,47.92c-.55-.56-1.11-1.11-1.65-1.68-.09-.09-.1-.25-.14-.38.14,0,.32-.04.43.02.33.21.66.44.95.71,1.46,1.4,2.9,2.82,4.35,4.23.06.06.12.11.17.17.19.27.64.48.3.86-.06.07-.54-.24-.83-.37l.03.03c-.59-1.03-1.41-1.83-2.43-2.43,0,0,.03.03.03.03-.09-.09-.18-.18-.27-.27,0,0,.03.03.03.03-.09-.09-.18-.18-.27-.27,0,0,.03.03.03.03-.09-.09-.18-.18-.27-.27,0,0,.03.03.03.03-.09-.09-.18-.18-.27-.27,0,0,.03.03.03.03-.09-.09-.18-.18-.27-.27l.03.03Z"/><path d="m14.68,55.74c-.18.1-.32.24-.42.21-.14-.03-.25-.19-.36-.3-1.84-1.89-3.67-3.79-5.51-5.68-.08-.09-.2-.16-.24-.26-.07-.16-.09-.34-.14-.51.14.06.3.08.4.18.93.87,1.88,1.74,2.78,2.64,1.02,1.02,2,2.07,2.99,3.11.16.17.29.36.48.61Z"/><path d="m14.19,59.43c.12.19.23.39.35.58.33.5.09.62-.38.6,0,0,.03.03.03.03-.09-.09-.18-.18-.27-.27,0,0,.03.03.03.03-.09-.09-.18-.18-.27-.27l.03.03c-.89-.89-1.78-1.78-2.67-2.67,0,0,.03.03.03.03-.09-.09-.18-.18-.27-.27,0,0,.03.03.03.03-.09-.09-.18-.18-.27-.27,0,0,.03.03.03.03-.09-.09-.18-.18-.27-.27,0,0,.03.03.03.03-.09-.09-.18-.18-.27-.27,0,0,.03.03.03.03-.09-.09-.18-.18-.27-.27,0,0,.03.03.03.03-.09-.09-.18-.18-.27-.27,0,0,.03.03.03.03-.09-.09-.18-.18-.27-.27,0,0,.03.03.03.03-.09-.09-.18-.18-.27-.27,0,0,.03.03.03.03-.09-.09-.18-.18-.27-.27,0,0,.03.03.03.03-.09-.09-.18-.18-.27-.27l.03.03c-.05-.1-.18-.25-.14-.31.05-.09.26-.21.31-.18.3.19.59.41.84.65,1.17,1.13,2.33,2.28,3.51,3.4.31.29.69.51,1.04.77l-.03-.02Z"/><path d="m14.22,59.45c-1.61-1.64-3.22-3.29-4.84-4.92-.36-.36-.77-.68-1.15-1.03-.06-.06-.04-.2-.06-.3.11-.02.25-.09.32-.04.32.22.65.45.93.73.76.75,1.5,1.53,2.26,2.28.24.24.55.42.82.63,0,0-.03-.03-.03-.03.09.09.18.18.27.27,0,0-.03-.03-.03-.03.09.09.18.18.27.27,0,0-.03-.03-.03-.03.09.09.18.18.27.27l-.03-.03c.33.33.66.66.99.99,0,0-.03-.02-.03-.02.09.09.18.18.27.27l-.03-.03c-.03.26.37.64-.21.74l.03.02Z"/><path d="m9.39,69.04c-.4-.38-.8-.75-1.18-1.14-.05-.05-.02-.19-.03-.29.07,0,.17-.03.22,0,.2.13.39.27.58.42,1.69,1.39,3.38,2.78,5.07,4.17.09.08.21.14.27.23.11.19.18.39.27.59-.22.02-.45.03-.67.05,0,0,.03.03.03.03-.09-.09-.18-.18-.27-.27,0,0,.03.03.03.03-.09-.09-.18-.18-.27-.27l.03.03c-1.19-1.41-2.52-2.68-4.11-3.63l.03.03Z"/><path d="m8.04,93.97c.26.15.54.29.79.47,1.54,1.05,3.08,2.11,4.62,3.17.26.18.55.34.76.56.09.09.03.33.04.51-.14-.02-.31,0-.41-.06-1.72-1.21-3.42-2.44-5.13-3.66-.26-.18-.52-.36-.77-.56-.05-.04-.09-.14-.09-.21,0-.05.08-.1.18-.21Z"/><path d="m14.15,96.86c.11.11.27.2.32.34.05.15,0,.34,0,.51-.14-.03-.31-.02-.42-.1-1.9-1.37-3.8-2.75-5.69-4.13-.13-.09-.25-.19-.36-.31-.05-.05-.04-.14-.06-.22.1-.01.23-.07.29-.02.49.34.97.7,1.45,1.04,1.11.78,2.21,1.55,3.33,2.31.12.08.3.08.45.12,0,0-.03-.03-.03-.03.25.17.5.34.75.51l-.03-.02Z"/><path d="m14.68,27.05c-.32-.29-.45-.65-.28-1.06.06-.15.25-.37.36-.35,1.24.14,2.48.33,3.72.63h-3.31c0,.08-.01.16-.02.23.74.09,1.48.17,2.22.28.25.04.49.14.73.22-.27.07-.55.21-.82.2-.88-.03-1.75-.11-2.63-.18l.03.03Z"/><path d="m8.63,106.69c1.29,1.61,2.98,2.72,4.71,3.78.31.19.62.36.9.58.1.08.1.28.14.42-.17,0-.38.06-.49-.02-1.24-.87-2.48-1.75-3.68-2.67-.86-.65-1.67-1.36-2.49-2.06-.08-.07-.08-.24-.12-.37.11,0,.22-.01.32.02.25.1.49.22.74.34l-.03-.03Z"/><path d="m17.55,47.68c1.03-.11,2.06-.22,3.09-.32.11-.01.22.04.33.07-.1.08-.2.21-.31.23-1.13.24-2.25.48-3.39.69-.24.04-.58.08-.73-.05-.2-.18.14-.96.44-1.05.49-.15.99-.28,1.5-.4.66-.16,1.32-.31,1.98-.43.13-.02.29.08.43.12-.12.07-.23.16-.36.2-.88.24-1.77.45-2.65.7-.12.03-.21.18-.32.28-.04,0-.08.02-.12.03.03-.02.07-.03.1-.05Z"/><path d="m14.16,95.89c.06.32.81.65,0,.97l.03.02c-.25-.17-.5-.34-.75-.51l.03.03c-.46-.37-.9-.75-1.37-1.09-1.18-.87-2.38-1.72-3.57-2.59-.11-.08-.17-.25-.25-.38.17.03.38,0,.51.09,1.21.83,2.41,1.68,3.62,2.51.32.21.7.34,1.05.5,0,0-.03-.03-.03-.03.09.09.18.18.27.27,0,0-.03-.03-.03-.03.17.09.35.18.52.26l-.03-.03Z"/><path d="m13.7,91.84c-.41-.36-.79-.75-1.23-1.07-1.25-.91-2.53-1.79-3.78-2.69-.11-.08-.13-.3-.19-.45.14.04.3.05.42.13,1.02.69,2.01,1.42,3.04,2.09.73.47,1.5.87,2.26,1.31l-.03-.03c.11.21.22.43.33.64-.28.02-.56.03-.84.05,0,0,.03.03.03.03Z"/><path d="m13.7,78.88c-.91-.86-1.81-1.74-2.73-2.59-.55-.51-1.15-.97-1.71-1.47-.13-.12-.2-.3-.3-.45.17.04.38.02.5.12.51.38.98.8,1.49,1.18.18.14.4.22.61.33l-.03-.03c.49.41.98.82,1.47,1.23l-.03-.03c.09.09.18.18.27.27l-.03-.03c.09.09.18.18.27.27l-.03-.03c.09.09.18.18.27.27l-.03-.03c.17.09.35.17.52.26l-.03-.03c.08.08.16.17.24.25h.02c.06.22.12.43.18.64-.2-.03-.41-.04-.61-.08-.11-.02-.22-.06-.32-.09l.03.03Z"/><path d="m13.91,87.98c.11.1.24.19.34.3.45.51.14.63-.35.65l.03.03c-.85-.69-1.68-1.42-2.57-2.06-.84-.6-1.75-1.1-2.61-1.67-.18-.12-.31-.32-.46-.48.21.03.46,0,.63.11,1.26.76,2.49,1.56,3.74,2.33.33.21.69.38,1.03.57,0,0-.03-.03-.03-.03.09.09.18.18.27.27l-.03-.02Z"/><path d="m14.21,91.15c-.6-.5-1.17-1.05-1.82-1.49-1.32-.89-2.68-1.72-4.01-2.6-.12-.08-.16-.29-.24-.44.14.03.3.03.42.1,1.89,1.18,3.77,2.37,5.65,3.56.46.29.51.58-.04.84l.03.03Z"/><path d="m8.66,110.81c-.28-.31-.57-.63-.85-.95-.04-.04-.06-.17-.03-.19.05-.04.16-.07.21-.05.27.17.53.35.78.53,1.34.99,2.67,1.99,4.03,2.95.35.25.77.39,1.16.58l-.03-.03c.13.15.28.28.38.44.06.11.03.27.04.41-.11-.02-.23,0-.32-.06-.74-.48-1.47-.97-2.21-1.44-.33-.21-.68-.37-1.03-.56l.03.03c-.09-.09-.18-.18-.27-.27,0,0,.03.03.03.03-.33-.25-.66-.5-1-.75l.03.03c-.09-.09-.18-.18-.27-.27l.03.03c-.25-.17-.51-.34-.76-.5l.03.03Z"/><path d="m13.9,88.93c.1.12.24.22.3.36.07.15.07.34.1.51-.17-.03-.38,0-.51-.09-1.42-.96-2.84-1.93-4.25-2.9-.16-.11-.35-.21-.49-.35-.13-.13-.21-.3-.32-.45.17.03.38,0,.52.09,1.12.69,2.22,1.42,3.34,2.11.44.27.9.5,1.35.75l-.03-.03Z"/><path d="m15.52,25.03c.75.04,1.51.07,2.26.12.1,0,.19.11.28.17-.1.08-.21.24-.31.24-.99-.04-1.99-.08-2.98-.19-.15-.02-.34-.36-.39-.58-.08-.33.13-.51.48-.49.79.04,1.59.06,2.38.11.13,0,.24.14.36.21-.12.07-.23.19-.35.19-.59.02-1.18,0-1.77,0,0,.07.02.14.02.21Z"/><path d="m13.96,113.69c-1.6-1.25-3.2-2.49-4.78-3.76-.33-.26-.6-.6-.89-.91.39.2.81.36,1.16.62.96.72,1.87,1.51,2.84,2.2.51.36,1.11.58,1.67.87l-.03-.03c.08.08.16.15.23.23.13.17.25.35.38.52-.2.07-.41.14-.61.21l.03.03Z"/><path d="m11.54,76.01c-.53-.52-1.05-1.04-1.58-1.55-.2-.19-.45-.33-.65-.52-.06-.05-.03-.19-.05-.29.11-.01.23-.06.33-.03.11.03.21.11.3.18,1.55,1.31,3.1,2.61,4.64,3.93.32.27.56.56-.12.67h-.02c-.08-.1-.16-.18-.24-.27l.03.03c-.17-.09-.35-.17-.52-.26,0,0,.03.03.03.03-.09-.09-.18-.18-.27-.27,0,0,.03.03.03.03-.09-.09-.18-.18-.27-.27,0,0,.03.03.03.03-.09-.09-.18-.18-.27-.27l.03.03c-.49-.41-.98-.82-1.47-1.23,0,0,.03.03.03.03Z"/><path d="m12.99,83.44c-1.22-1-2.44-2-3.65-3.02-.27-.22-.47-.52-.7-.79.31.13.67.21.93.41.95.72,1.86,1.49,2.8,2.22.34.26.73.46,1.09.69l-.03-.03c.09.09.18.18.27.27l-.03-.03c.3.26.67.47.88.79.27.41-.08.44-.39.41l.03.02c-.33-.25-.66-.5-.99-.75l.03.03c-.09-.09-.18-.18-.27-.27l.03.03Z"/><path d="m10.11,103.13c-.59-.51-1.19-1.02-1.78-1.54-.07-.06-.08-.2-.12-.3.11,0,.24-.05.31,0,.27.16.52.36.79.53,1.43.93,2.86,1.86,4.28,2.78.13.09.31.12.41.23.12.13.19.32.28.48-.2.06-.41.13-.61.19l.03.03c-.7-1.05-1.91-1.35-2.91-1.95l.04.03c-.25-.17-.5-.34-.76-.51l.03.03Z"/><path d="m14.61,76.57c-.11.06-.23.18-.29.15-.18-.07-.35-.17-.5-.3-1.45-1.3-2.9-2.61-4.33-3.92-.09-.08-.11-.24-.17-.36.14.01.33-.04.42.04,1.57,1.34,3.13,2.7,4.68,4.06.08.07.11.2.19.33Z"/><path d="m13.7,82.25c-.28-.32-.52-.69-.84-.96-1.33-1.14-2.69-2.24-4.04-3.37-.11-.09-.18-.25-.26-.37.17,0,.38-.04.51.04.27.16.51.39.75.59,1.45,1.19,2.9,2.37,4.34,3.58.15.13.19.39.28.58-.18.04-.36.09-.54.13l.04.02c-.09-.09-.18-.18-.27-.27,0,0,.03.03.03.03Z"/><path d="m13.95,112.72c-1.71-1.31-3.41-2.62-5.12-3.93-.16-.12-.32-.23-.47-.36-.04-.04-.06-.16-.03-.19.04-.05.15-.1.21-.08.18.08.36.17.52.28,1.73,1.22,3.45,2.44,5.16,3.68.14.1.18.36.27.54l-.57.03.03.03Z"/><path d="m10.79,112.46c.94.7,1.89,1.39,2.83,2.1.35.27.67.58,1.01.87-.62.41-.95-.2-1.29-.46-1.62-1.2-3.2-2.47-4.78-3.73-.21-.17-.51-.43.1-.43l-.03-.03c.25.17.51.34.76.5,0,0-.03-.03-.03-.03.09.09.18.18.27.27l-.03-.03c.33.25.66.5,1,.75,0,0-.03-.03-.03-.03.09.09.18.18.27.27l-.03-.03Z"/><path d="m13.66,91.81c.22.21.47.4.64.65.34.48.08.61-.39.56l.03.03c-.47-.42-.9-.88-1.41-1.25-1.15-.85-2.34-1.65-3.5-2.48-.14-.1-.22-.29-.32-.45.2.04.44.03.6.13,1.19.79,2.36,1.62,3.54,2.41.26.17.55.28.83.42l-.03-.03Z"/><path d="m10.08,106.94c1.2.9,2.4,1.8,3.59,2.71.26.2.47.45.71.67-.45.46-.73-.05-.99-.24-1.14-.81-2.23-1.68-3.36-2.51-.44-.32-.93-.59-1.39-.88l.03.03c-.09-.12-.17-.24-.25-.36-.06-.09-.11-.19-.16-.29.14,0,.31-.07.41,0,.49.29.96.6,1.44.91l-.03-.03Z"/><path d="m10.11,106.97c-.48-.46-.98-.91-1.45-1.39-.09-.09-.09-.27-.13-.41.13.05.29.08.4.16.32.24.59.54.92.77,1.18.82,2.37,1.62,3.56,2.41.2.13.45.19.62.35.15.14.22.37.33.55-.21-.01-.47.06-.62-.04-.9-.59-1.78-1.22-2.67-1.83-.32-.22-.67-.41-1-.61l.03.03Z"/><path d="m13.92,100.47c.12.1.26.19.35.32.06.08.08.25.04.32-.05.07-.23.12-.31.08-.22-.08-.43-.21-.63-.34-1.68-1.06-3.37-2.12-5.04-3.19-.13-.09-.2-.28-.3-.42.18.02.39-.01.53.07.85.52,1.67,1.09,2.52,1.59.54.32,1.11.57,1.67.85l-.03-.03c.25.17.5.34.75.51l-.03-.02c.17.08.34.17.5.25h-.01Z"/><path d="m19.22,36.87h1.29c-1.1.61-2.32.67-3.5.86-.09.01-.33-.23-.31-.28.12-.3.25-.77.46-.82.73-.17,1.49-.2,2.24-.26.12,0,.24.09.36.13-.13.07-.27.13-.39.21-.06.04-.09.12-.13.18-.19,0-.38,0-.58.01-.11,0-.23.03-.34.04.12.03.25.11.37.09.18-.02.35-.11.53-.17Z"/><path d="m13.91,80.05c.17.21.36.4.5.63.06.1.01.27.01.41-.14-.01-.33.03-.41-.04-.55-.46-1.05-.97-1.6-1.43-1.01-.84-2.03-1.66-3.04-2.5-.13-.11-.18-.3-.27-.45.16.04.36.04.48.13,1.19.93,2.36,1.88,3.56,2.81.24.19.54.31.81.46l-.03-.03Z"/><path d="m13.67,78.85c.21.21.44.4.63.62.14.16.22.36.33.55-.24.01-.48.03-.72.04,0,0,.03.03.03.03-1.37-1.26-2.74-2.51-4.1-3.78-.21-.2-.37-.45-.55-.67.26.13.56.21.78.39.9.72,1.76,1.49,2.66,2.21.3.24.65.43.97.64l-.03-.03Z"/><path d="m13.47,82.96c-.43-.41-.84-.83-1.28-1.23-1.15-1.05-2.32-2.08-3.47-3.13-.08-.07-.07-.25-.1-.38.11.02.24.02.31.08.42.37.81.77,1.25,1.12,1.17.95,2.35,1.88,3.53,2.82,0,0-.03-.03-.03-.03.09.09.18.18.27.27l-.04-.02s.06.05.09.08c.12.18.24.37.36.55-.23.03-.45.05-.68.08,0,0,.03.03.03.03-.09-.09-.18-.18-.27-.27l.03.03Z"/><path d="m14.64,104.25c-.36.04-.55.12-.66.06-.42-.23-.82-.48-1.21-.75-1.33-.93-2.66-1.87-3.98-2.82-.1-.07-.13-.25-.2-.37.14.02.31,0,.42.06.38.22.73.47,1.09.71,1.29.85,2.58,1.69,3.87,2.54.18.12.33.28.66.58Z"/><path d="m13.9,107.65c.13.14.27.27.38.42.06.08.11.24.07.3-.04.07-.21.12-.3.09-.22-.08-.44-.19-.63-.33-1.58-1.2-3.15-2.41-4.71-3.63-.13-.11-.19-.31-.28-.47.2.06.43.08.58.2.74.6,1.42,1.28,2.2,1.82.86.6,1.81,1.09,2.72,1.63l-.03-.03Z"/><path d="m13.2,84.62c.42.37.87.72,1.25,1.13.34.36.1.52-.29.56h.01c-.08-.06-.15-.14-.23-.22l-.03-.03c-.08-.08-.16-.16-.24-.25l.03.03c-.17-.09-.35-.17-.52-.26,0,0,.03.03.03.03-.09-.09-.18-.18-.27-.27l.04.03c-.79-.65-1.58-1.32-2.39-1.95-.44-.34-.93-.62-1.37-.96-.13-.1-.19-.29-.28-.45.17.05.37.06.51.15.92.64,1.82,1.3,2.74,1.94.32.22.68.37,1.03.56l-.03-.03Z"/><path d="m23.62,109.04c-.32.11-.65.22-.97.34-1.83.65-3.65,1.31-5.48,1.94-.16.06-.38-.03-.57-.05.14-.16.24-.41.42-.47,1.73-.58,3.46-1.14,5.21-1.68.44-.14.9-.19,1.35-.28.02.07.04.13.05.2Z"/><path d="m23.16,107.31c.06.04.14.09.22.14-.09.06-.17.16-.26.19-.76.22-1.53.4-2.29.64-1.21.38-2.4.8-3.61,1.18-.18.06-.41-.04-.62-.06.14-.15.26-.39.43-.44,1.68-.47,3.37-.9,5.05-1.35.34-.09.69-.19,1.07-.29Z"/><path d="m13.23,84.65c-1.02-.91-2.05-1.83-3.07-2.75-.26-.23-.5-.48-.75-.72.33.15.68.25.97.44.88.59,1.74,1.21,2.6,1.82,0,0-.03-.03-.03-.03.09.09.18.18.27.27l-.03-.03c.33.25.66.5.99.75l-.03-.02c.04.23.08.46.12.69-.2-.07-.4-.12-.59-.2-.17-.07-.33-.17-.49-.25l.03.03Z"/><path d="m22.81,105.55c.09.04.16.06.22.09-.07.08-.13.22-.21.24-.73.19-1.47.34-2.19.54-1.06.3-2.11.66-3.17.96-.14.04-.33-.09-.5-.15.1-.15.17-.4.29-.43,1.85-.44,3.7-.85,5.54-1.27Z"/><path d="m22.85,104.25c-1.86.52-3.73,1.05-5.6,1.56-.15.04-.35-.08-.52-.13.08-.11.15-.31.25-.33,1.92-.45,3.85-.88,5.78-1.31.03.07.06.14.09.21Z"/><path d="m21.76,106.81c.07.03.14.05.21.08-.08.08-.14.2-.24.23-.49.15-1,.27-1.49.42-1.07.32-2.13.66-3.2.96-.12.03-.29-.14-.44-.22.09-.11.17-.3.28-.33,1.62-.39,3.25-.76,4.87-1.14Z"/><path d="m19.04,35.65c.3-.07.53-.14.76-.17.09-.01.19.07.29.11-.08.08-.15.2-.25.23-.76.21-1.52.42-2.28.6-.13.03-.3-.05-.44-.08.04-.14.05-.29.11-.41.32-.6,1.23-1.06,1.93-.98.07,0,.14.05.21.08-.1.11-.19.23-.31.32-.12.09-.27.15-.4.23.15.03.3.06.38.07Z"/><path d="m3.11,80.54c.93.92,1.86,1.84,2.77,2.77.29.29.52.64.78.97-.34-.23-.69-.43-1.01-.69-.96-.78-1.9-1.57-2.83-2.38-.16-.14-.24-.37-.35-.57.23-.02.45-.05.68-.07l-.03-.03Z"/><path d="m2.27,61.13c.09.05.21.1.29.18,1.12,1.07,2.24,2.14,3.35,3.21.07.07.07.2.11.31-.1-.01-.22.01-.29-.04-1.19-1.04-2.38-2.09-3.56-3.16-.09-.08-.09-.27-.11-.4,0-.02.13-.06.21-.1Z"/><path d="m3.35,97.6c.16.1.31.16.42.27,1.07,1.07,2.14,2.14,3.19,3.22.08.08.07.26.1.39-.1-.05-.22-.07-.3-.14-.34-.33-.65-.7-1.01-1.01-.78-.67-1.59-1.3-2.38-1.97-.13-.11-.2-.32-.24-.49-.02-.06.12-.16.22-.26Z"/><path d="m22.31,108.62c-.43.17-.86.35-1.29.5-1.24.43-2.48.85-3.73,1.26-.15.05-.34.01-.51.01.08-.15.13-.41.25-.45,1.74-.53,3.43-1.32,5.3-1.3l-.02-.02Z"/><path d="m2.49,48.89c.07.03.16.04.21.09,1.13,1.02,2.25,2.03,3.36,3.06.07.06.06.2.09.31-.1-.02-.22-.02-.29-.08-1.15-.92-2.31-1.83-3.44-2.78-.11-.09-.1-.33-.13-.5,0-.02.13-.06.2-.1Z"/><path d="m6.44,67.8c-.21-.04-.36-.03-.45-.1-.76-.57-1.51-1.16-2.26-1.75-.59-.46-1.19-.92-1.77-1.4-.1-.08-.12-.26-.18-.4.14,0,.32-.05.41.02,1.36,1.1,2.7,2.21,4.05,3.32.06.05.09.13.21.3Z"/><path d="m21.7,59.59c-.16.12-.24.22-.34.25-1.46.39-2.93.77-4.4,1.13-.11.03-.25-.09-.37-.14.09-.1.17-.27.28-.3,1.51-.37,3.02-.73,4.53-1.08.07-.02.16.07.29.14Z"/><path d="m16.52,56.35s-.15-.13-.26-.22c.1-.1.19-.28.31-.3,1.53-.25,3.07-.48,4.61-.7.09-.01.19.07.28.11-.09.07-.17.19-.27.21-1.52.3-3.05.59-4.67.9Z"/><path d="m10.41,114.07c1.23.63,2.47,1.26,3.7,1.9.18.09.36.18.5.32.09.09.09.26.14.39-.14,0-.32.06-.42,0-1.36-.81-2.71-1.63-4.06-2.46.05-.05.1-.11.15-.16Z"/><path d="m20.86,54.11s.08-.01.12,0c.25.02.5.04.74.06-.24.08-.48.19-.72.24-1.3.3-2.61.59-3.92.87-.17.04-.36,0-.55-.01.12-.16.21-.44.36-.47,1.31-.29,2.63-.54,3.94-.8,0,.04.02.08.02.12Z"/><path d="m2.96,93.01c.16.1.31.16.42.26,1.08.95,2.15,1.91,3.22,2.88.08.07.06.26.09.4-.1-.05-.21-.09-.3-.16-1.15-.92-2.31-1.84-3.45-2.77-.11-.09-.18-.24-.22-.38-.01-.05.14-.14.24-.23Z"/><path d="m20.79,56.56c.16,0,.32,0,.48,0,.06,0,.1.07.16.11-.05.05-.09.13-.15.16-.15.06-.3.1-.46.13-1.24.25-2.48.5-3.72.73-.14.03-.31-.11-.47-.17.1-.11.18-.29.3-.31,1.28-.27,2.56-.52,3.85-.77l.02.12Z"/><path d="m21.22,78.09c-.48.13-.97.24-1.45.38-.99.29-1.97.59-2.96.86-.14.04-.33-.1-.49-.16.08-.11.15-.31.25-.33,1.52-.36,3.05-.69,4.58-1.04.02.09.04.19.06.28Z"/><path d="m21.25,57.76c-.56.13-1.13.24-1.69.38-.81.2-1.61.42-2.42.6-.22.05-.48-.04-.71-.07.2-.15.38-.4.6-.45.85-.19,1.71-.34,2.57-.48.53-.09,1.07-.14,1.61-.21.01.07.03.15.04.22Z"/><path d="m20.96,86.38c-.1.07-.18.15-.27.18-.45.14-.92.24-1.37.39-.82.28-1.63.6-2.45.87-.14.05-.32-.05-.48-.08.07-.13.11-.34.2-.37,1.37-.38,2.74-.73,4.11-1.08.06-.02.14.05.25.1Z"/><path d="m6.74,113.9c-.26-.15-.56-.26-.79-.45-1.02-.89-2.03-1.79-3.03-2.7-.14-.13-.15-.39-.22-.59.2.05.47.03.6.16,1.15,1.19,2.28,2.4,3.42,3.61l.02-.02Z"/><path d="m6.39,109.47s0,.1,0,.11c-.06.03-.14.06-.2.05-.07-.02-.13-.08-.19-.13-1.02-.74-2.05-1.47-3.06-2.23-.12-.09-.14-.31-.2-.47.14-.03.34-.13.42-.07,1.08.87,2.14,1.75,3.2,2.64.03.02.04.07.05.1Z"/><path d="m3.14,85.6c-.12-.09-.27-.17-.35-.29-.09-.14-.1-.33-.15-.49.17,0,.42-.08.51,0,1.01.88,2,1.79,2.98,2.7.05.05.01.2.02.3-.1-.03-.23-.03-.3-.1-.55-.51-1.07-1.06-1.64-1.54-.32-.26-.74-.41-1.11-.61l.03.03Z"/><path d="m6.66,114.94c-1.17-1-2.35-2-3.51-3.01-.12-.11-.14-.34-.2-.51.2.04.46,0,.58.12,1.1,1.08,2.17,2.18,3.25,3.28-.04.04-.08.08-.12.12Z"/><path d="m6.15,78.49c0,.07,0,.14-.01.14-.07.02-.14.05-.2.04-.07-.02-.13-.08-.2-.13-1.11-.84-2.22-1.67-3.32-2.52-.1-.08-.13-.26-.19-.39.18-.03.42-.15.52-.08.42.29.81.64,1.2.98.64.54,1.27,1.09,1.9,1.64.12.1.21.23.3.32Z"/><path d="m2.43,62.38c.09.06.2.11.28.18.95.91,1.9,1.82,2.84,2.73.07.07.09.19.14.28-.1,0-.24.03-.31-.03-1.01-.84-2.01-1.68-2.99-2.55-.12-.1-.12-.34-.15-.52,0-.02.12-.06.2-.11Z"/><path d="m20.67,82.95c-.16.14-.21.21-.28.23-1.18.37-2.36.74-3.55,1.07-.14.04-.35-.17-.53-.27.1-.1.19-.27.31-.3,1.2-.28,2.4-.53,3.61-.79.11-.02.23.03.44.06Z"/><path d="m20.73,65.33c-.09.09-.16.2-.26.24-.23.07-.47.08-.7.16-.97.34-1.92.72-2.89,1.05-.15.05-.35-.03-.52-.05.04-.14.06-.37.14-.39,1.33-.39,2.67-.75,4.01-1.1.05-.01.13.06.22.1Z"/><path d="m21.59,68.84c-.14.13-.21.25-.3.27-1.41.39-2.82.78-4.24,1.14-.13.03-.29-.08-.43-.12.09-.11.16-.3.28-.33,1.38-.35,2.77-.67,4.16-.99.14-.03.3.01.54.03Z"/><path d="m3.11,85.57c.93.87,1.85,1.74,2.77,2.63.09.09.11.25.16.38-.13-.05-.29-.08-.4-.16-.77-.55-1.52-1.1-2.29-1.66l.03.03c-.2-.18-.42-.33-.58-.54-.36-.44-.16-.64.34-.66l-.03-.03Z"/><path d="m6.18,89.98c-1.06-.82-2.12-1.64-3.16-2.47-.13-.1-.16-.32-.24-.48.2-.08.41-.15.61-.23l-.03-.03c.52.56,1.04,1.12,1.57,1.67.46.47.92.94,1.39,1.41-.04.04-.09.09-.13.13Z"/><path d="m20.59,81.48c.13.06.23.1.33.15-.09.07-.16.19-.26.22-.6.19-1.22.33-1.81.54-.67.23-1.32.52-1.99.75-.12.04-.28-.05-.42-.08.07-.13.14-.25.21-.38.02-.03.06-.05.1-.06,1.28-.38,2.57-.76,3.84-1.14Z"/><path d="m21.12,70.33c-.2.14-.28.24-.39.27-1.22.33-2.44.65-3.67.95-.13.03-.31-.13-.47-.21.08-.11.14-.3.24-.32,1.27-.27,2.54-.52,3.82-.77.11-.02.24.03.47.07Z"/><path d="m6.2,97.34c-.02.07-.05.14-.07.2-.07-.03-.15-.05-.2-.1-.35-.32-.68-.67-1.06-.96-.36-.29-.78-.51-1.15-.79-.21-.16-.4-.36-.54-.58-.05-.08.03-.29.1-.4.03-.05.26-.03.32.03.86.82,1.7,1.66,2.54,2.5.03.03.03.07.05.11Z"/><path d="m21.01,53.05c-.17.14-.25.26-.34.28-1.24.28-2.48.55-3.72.81-.09.02-.2-.09-.31-.14.07-.12.12-.32.21-.35.46-.13.93-.22,1.4-.3.75-.13,1.49-.24,2.24-.35.14-.02.28.02.52.05Z"/><path d="m5.78,61.82c-.54-.37-1.09-.74-1.63-1.12-.74-.53-1.48-1.08-2.21-1.63-.1-.08-.13-.25-.2-.38.14-.02.33-.11.4-.05,1.21,1.06,2.41,2.14,3.62,3.21l.02-.02Z"/><path d="m19.98,75.7h.78c-.23.1-.46.24-.71.31-.92.24-1.85.46-2.78.65-.16.03-.37-.17-.55-.26.14-.12.26-.32.42-.34.94-.13,1.89-.21,2.84-.32,0-.01,0-.02,0-.03Z"/><path d="m5.83,53.82c-.05.09-.08.19-.12.19-.07,0-.16-.03-.22-.07-1.09-.72-2.19-1.43-3.26-2.17-.13-.09-.13-.37-.19-.57.17.03.38.01.51.11.99.73,1.96,1.48,2.94,2.22.12.09.24.2.35.29Z"/><path d="m21.2,58.42c.09.06.2.13.3.2-.1.05-.19.13-.3.16-1.34.35-2.68.7-4.03,1.02-.14.03-.32-.12-.48-.19.12-.13.22-.35.36-.38,1.36-.29,2.72-.55,4.14-.82Z"/><path d="m21.49,61.69c-.11.08-.17.14-.24.16-1.41.41-2.82.82-4.23,1.21-.11.03-.26-.1-.39-.15.09-.11.17-.3.28-.33,1.43-.34,2.86-.67,4.29-.99.08-.02.17.06.29.1Z"/><path d="m3.18,105c.12.07.24.11.32.19.75.77,1.5,1.54,2.24,2.32.09.1.11.25.17.38-.13-.05-.29-.07-.4-.15-.8-.66-1.6-1.32-2.38-2.01-.13-.11-.17-.33-.2-.51,0-.06.15-.14.25-.22Z"/><path d="m21.17,62.6c-.1.07-.18.16-.28.18-.46.11-.94.17-1.39.32-.82.27-1.63.6-2.45.88-.12.04-.32,0-.41-.09-.05-.05.01-.36.07-.37,1.42-.37,2.85-.72,4.27-1.06.04,0,.1.08.19.14Z"/><path d="m21.41,60.65c-.11.06-.2.15-.31.18-1.34.37-2.67.75-4.01,1.1-.12.03-.27-.07-.41-.11.1-.14.18-.39.3-.42,1.39-.32,2.79-.62,4.19-.92.04,0,.09-.02.12,0,.04.04.07.1.12.17Z"/><path d="m6.03,94.83c-.11.01-.22.06-.26.03-.28-.23-.53-.48-.81-.7-.66-.51-1.34-.99-1.98-1.52-.14-.11-.17-.36-.25-.55.18.01.42-.05.53.04.89.79,1.76,1.61,2.63,2.42.05.05.07.14.14.27Z"/><path d="m16.69,72.61c-.08-.07-.19-.16-.29-.25.07-.08.13-.2.22-.22,1.16-.27,2.33-.53,3.5-.78.14-.03.29.05.44.08-.11.09-.2.22-.32.26-1.16.3-2.32.59-3.55.9Z"/><path d="m6.44,91.35c-.25-.09-.4-.1-.49-.18-.7-.59-1.37-1.19-2.07-1.77-.33-.28-.7-.5-1.03-.79-.08-.07-.03-.27-.04-.41.14,0,.33-.07.4,0,1,.89,1.99,1.8,2.97,2.71.08.07.12.19.26.44Z"/><path d="m2.36,59.99c.1.05.22.08.3.16.99.92,1.98,1.84,2.96,2.77.08.07.09.21.13.31-.12-.02-.28,0-.37-.08-1.04-.86-2.07-1.73-3.08-2.62-.1-.08-.11-.27-.13-.42,0-.03.11-.08.18-.13Z"/><path d="m5.85,86.32c-.09-.06-.19-.12-.28-.19-.9-.71-1.81-1.42-2.7-2.15-.1-.08-.12-.27-.18-.41.17-.02.41-.12.5-.04.93.81,1.85,1.64,2.76,2.47.05.05.1.14.1.2,0,.04-.12.07-.2.11Z"/><path d="m20.82,74.43c-.14.1-.23.2-.34.23-1.18.35-2.36.7-3.55,1.01-.12.03-.3-.16-.46-.25.09-.11.17-.3.28-.32,1.24-.27,2.49-.52,3.73-.77.09-.02.19.05.33.1Z"/><path d="m5.37,52.53s-.06.14-.1.14c-.07,0-.16-.02-.22-.06-.95-.72-1.9-1.44-2.84-2.19-.11-.09-.09-.33-.12-.5.14.02.33-.01.42.06.94.8,1.86,1.62,2.79,2.44.03.03.04.07.07.11Z"/><path d="m5.98,57.54c-.6-.45-1.19-.9-1.79-1.34-.58-.42-1.17-.81-1.74-1.24-.17-.12-.27-.33-.4-.5.24.04.53,0,.72.13.52.36,1.01.77,1.48,1.19.61.55,1.2,1.12,1.79,1.69l-.06.06Z"/><path d="m20.51,48.61c-1.19.24-2.38.49-3.57.71-.13.02-.3-.15-.45-.23.11-.09.21-.23.33-.25,1.2-.19,2.41-.35,3.62-.52.03.09.05.19.08.28Z"/><path d="m20.78,51.9c-.28.09-.56.21-.85.27-1.04.22-2.09.43-3.14.63-.11.02-.25-.11-.38-.18.08-.12.15-.33.24-.35,1.36-.21,2.72-.4,4.09-.59.01.07.03.14.04.22Z"/><path d="m16.72,78.14c-.06-.05-.19-.11-.22-.2-.02-.08.04-.23.11-.29.12-.09.28-.15.43-.18,1.12-.22,2.25-.44,3.37-.65.11-.02.24.09.36.14-.05.06-.08.15-.14.16-1.25.34-2.51.67-3.76,1-.04,0-.08,0-.16.01Z"/><path d="m21.02,87.11c-1.37.54-2.73,1.08-4.1,1.6-.11.04-.29-.07-.43-.11.04-.11.05-.28.12-.31,1.44-.52,2.88-1.03,4.41-1.18Z"/><path d="m5.69,82.54c-.53-.47-1.05-.96-1.6-1.41-.29-.24-.65-.4-.97-.6l.03.03c-.03-.07-.05-.14-.08-.21-.14-.27-.77-.29-.41-.77.03-.05.55.16.74.35.83.8,1.63,1.64,2.43,2.46-.05.05-.09.09-.14.14Z"/><path d="m3.62,104.07c.69.7,1.38,1.39,2.07,2.09.11.11.23.23.31.36.15.25.28.52.41.79-.23-.18-.46-.34-.67-.53-.8-.71-1.59-1.42-2.38-2.14-.15-.14-.25-.33-.38-.49.22-.02.45-.04.67-.06,0,0-.03-.03-.03-.03Z"/><path d="m2.73,70.16c.11.06.26.12.37.21.89.72,1.77,1.45,2.65,2.19.1.09.14.25.21.38-.13-.02-.29,0-.38-.07-.99-.72-1.97-1.46-2.94-2.2-.1-.07-.12-.26-.15-.39,0-.01.12-.06.24-.12Z"/><path d="m5.15,55.03c-.05.05-.1.14-.13.14-.11-.03-.22-.08-.32-.14-.9-.64-1.81-1.28-2.7-1.94-.13-.1-.17-.31-.25-.48.14-.03.34-.13.41-.07.99.79,1.97,1.59,2.94,2.4.03.02.03.07.04.1Z"/><path d="m6.17,115.67c-1.08-.88-2.17-1.75-3.25-2.63-.1-.08-.12-.27-.18-.4.17.01.41-.04.51.05,1.04.93,2.06,1.88,3.09,2.82-.05.05-.11.11-.16.16Z"/><path d="m3.16,100.34c.1.03.23.04.31.12.92.87,1.84,1.75,2.74,2.64.07.06,0,.26,0,.39-.09-.07-.18-.13-.27-.2-.92-.81-1.85-1.61-2.76-2.43-.1-.09-.16-.24-.21-.38,0-.02.11-.08.19-.15Z"/><path d="m20.71,88.68c-1.28.33-2.56.67-3.84.99-.1.02-.23-.12-.35-.18.1-.1.19-.28.31-.3,1.27-.27,2.55-.51,3.82-.77l.06.26Z"/><path d="m20.38,79.34c-.15.11-.23.2-.32.23-1.01.33-2.02.66-3.04.95-.16.04-.38-.13-.57-.2.13-.11.25-.29.4-.33,1.03-.25,2.07-.48,3.11-.7.1-.02.22.02.42.05Z"/><path d="m14.02,30.44c.85.14,1.71.27,2.56.42.06.01.11.16.16.25-.07.03-.14.08-.21.08-1.3-.11-2.59-.22-3.89-.34-.09,0-.17-.12-.26-.18.11-.07.22-.2.32-.2.43,0,.87.03,1.3.05v-.06Z"/><path d="m6.21,101.61c-.22-.07-.35-.08-.44-.14-.53-.42-1.03-.86-1.56-1.27-.34-.26-.73-.48-1.06-.75-.07-.06-.04-.28-.01-.41,0-.04.25-.08.3-.03.89.78,1.76,1.58,2.63,2.37.03.03.04.07.14.23Z"/><path d="m21.47,103.13c-.34.13-.44.19-.54.2-1.34.2-2.68.34-3.9,1.02-.1.05-.28-.04-.42-.06.06-.13.08-.3.18-.39.11-.1.28-.15.44-.18,1.21-.23,2.42-.46,3.63-.67.12-.02.25.03.61.08Z"/><path d="m5.63,68.44c-.13.03-.24.11-.3.07-.14-.07-.25-.2-.37-.3-.8-.59-1.61-1.16-2.39-1.78-.17-.13-.23-.41-.33-.62.2.04.46,0,.6.12.87.7,1.71,1.44,2.55,2.17.09.07.14.19.25.33Z"/><path d="m2.73,81.89c.15.07.24.08.29.14.93,1.01,1.87,2.03,2.79,3.06.07.08.09.2.13.3-.12-.03-.28-.02-.36-.1-.89-.84-1.78-1.69-2.65-2.54-.14-.13-.26-.3-.32-.48-.03-.1.07-.24.12-.38Z"/><path d="m2.64,47.66c.42.4.81.84,1.26,1.2.43.35.93.6,1.37.93.12.09.18.28.26.43-.14-.03-.29-.03-.41-.1-.88-.53-1.76-1.06-2.61-1.62-.54-.35-.34-.62.16-.8l-.03-.03Z"/><path d="m20.15,64.14c.11.03.25.06.39.09-.12.08-.22.21-.35.24-1.1.31-2.21.61-3.32.89-.12.03-.28-.07-.42-.11.1-.13.18-.35.3-.38,1.12-.26,2.24-.49,3.4-.74Z"/><path d="m6.03,75.73c-.13.03-.23.08-.29.05-.11-.05-.19-.14-.28-.22-.88-.74-1.77-1.47-2.64-2.23-.12-.11-.16-.32-.23-.49.19.03.45-.02.57.09.89.8,1.76,1.62,2.62,2.44.08.08.13.18.25.35Z"/><path d="m2.61,71.31c.09.05.2.09.29.16.96.88,1.92,1.76,2.87,2.66.09.08.1.25.15.37-.13-.04-.3-.05-.4-.14-.99-.79-1.97-1.59-2.93-2.4-.12-.1-.14-.33-.18-.51,0-.03.11-.08.19-.14Z"/><path d="m21.3,98.34c-.28.19-.37.27-.47.3-1.21.37-2.42.74-3.64,1.1-.08.02-.26-.07-.29-.14-.03-.07.05-.26.13-.29.37-.13.76-.23,1.14-.34.8-.21,1.61-.43,2.42-.63.14-.04.3,0,.71,0Z"/><path d="m5.96,110.6c-1-.64-2.01-1.26-3-1.92-.12-.08-.13-.32-.19-.48.2-.02.48-.14.59-.04.92.76,1.81,1.56,2.71,2.35-.03.03-.07.07-.1.1Z"/><path d="m5.78,76.94c-.26-.15-.54-.29-.78-.47-.73-.55-1.46-1.1-2.18-1.67-.16-.13-.22-.36-.33-.54.2.02.48-.05.6.06.9.87,2.09,1.45,2.67,2.64l.02-.02Z"/><path d="m20.58,68.04c-1.23.41-2.46.82-3.7,1.21-.1.03-.26-.1-.39-.16.09-.11.16-.29.27-.32,1.25-.33,2.51-.64,3.76-.95.02.07.04.14.06.21Z"/><path d="m3.38,96.33c.14.07.26.09.34.17.86.82,1.71,1.65,2.56,2.49.06.06.05.2.07.3-.1-.03-.22-.04-.3-.11-.95-.78-1.89-1.56-2.82-2.35-.07-.06-.11-.22-.09-.32.02-.08.16-.13.24-.19Z"/><path d="m20.19,72.58c.12-.02.24-.04.35-.04.06,0,.11.07.16.11-.05.05-.09.14-.14.16-1.19.27-2.39.53-3.58.78-.09.02-.2-.09-.3-.15.08-.12.14-.32.23-.34,1.09-.2,2.18-.38,3.27-.56,0,.01,0,.03,0,.04Z"/><path d="m20.9,89.31c-.21.17-.29.28-.39.31-1.1.34-2.21.67-3.32.97-.14.04-.33-.12-.5-.19.11-.13.2-.34.33-.37,1.12-.26,2.25-.49,3.38-.72.12-.02.25,0,.51,0Z"/><path d="m21.02,100.75c-.32.07-.65.14-.97.22-.93.22-1.85.46-2.78.66-.15.03-.34-.08-.51-.13.12-.12.22-.33.36-.36.82-.16,1.65-.29,2.47-.42.46-.07.93-.11,1.39-.17.01.07.03.13.04.2Z"/><path d="m19.56,80.74c.12-.02.23-.06.35-.06.11,0,.22.03.33.05-.07.08-.13.21-.22.24-1.02.29-2.05.58-3.08.84-.15.04-.34-.08-.51-.12.11-.14.2-.36.34-.39.92-.23,1.84-.41,2.77-.61v.06Z"/><path d="m5.95,93.49c0,.06,0,.12-.02.12-.06.02-.15.04-.18.01-.16-.12-.29-.27-.45-.39-.74-.6-1.5-1.18-2.23-1.79-.15-.13-.22-.34-.33-.52.21.04.49,0,.63.13.81.7,1.6,1.43,2.39,2.16.08.08.13.19.19.28Z"/><path d="m2.36,68.51c.12.06.28.1.39.2.79.66,1.57,1.33,2.34,2.02.08.07.07.26.11.39-.1-.02-.23-.01-.31-.07-.85-.64-1.7-1.29-2.54-1.95-.1-.08-.14-.26-.18-.4,0-.03.1-.1.19-.19Z"/><path d="m5.95,81.16c-.13.02-.24.07-.31.03-.1-.04-.18-.15-.27-.23-.87-.69-1.74-1.38-2.6-2.08-.13-.11-.18-.31-.27-.47.18,0,.41-.05.52.04.91.77,1.8,1.57,2.7,2.37.09.08.14.19.24.34Z"/><path d="m20.54,99.31c.06.03.15.08.23.13-.08.08-.15.2-.25.23-.65.2-1.3.37-1.95.56-.38.12-.74.3-1.13.38-.14.03-.32-.13-.47-.2.09-.11.17-.28.29-.31,1.08-.28,2.17-.53,3.29-.79Z"/><path d="m12.02,116.33c-.26-.27-.51-.54-.77-.81.38.14.78.24,1.14.42.71.36,1.4.74,2.08,1.14.15.09.23.28.34.42-.22,0-.44,0-.66-.01,0,0,.03.03.03.03-.17-.09-.35-.18-.52-.26l.04.03c-.25-.17-.5-.34-.75-.51,0,0,.04.03.04.03-.17-.09-.35-.18-.52-.26,0,0,.04.03.04.03-.17-.09-.35-.18-.52-.26l.03.03Z"/><path d="m19.87,91.76c.22.04.37.07.52.1-.13.09-.25.23-.4.27-.93.31-1.87.61-2.81.89-.14.04-.32-.07-.48-.11.09-.12.16-.3.27-.34.98-.29,1.97-.56,2.91-.82Z"/><path d="m20.52,90.49c-1.21.48-2.42.97-3.64,1.44-.12.04-.28-.03-.42-.05.07-.15.11-.4.23-.44,1.24-.4,2.49-.77,3.73-1.15.03.06.07.13.1.19Z"/><path d="m2.67,47.69c-.03-.32-.92-.63-.01-.96l-.03-.03c.17.09.35.18.52.26l-.04-.03c.25.17.5.34.75.51l-.03-.03c.41.35.83.7,1.24,1.06.08.07.12.19.18.29-.14,0-.31.06-.41,0-.35-.19-.66-.44-1.01-.62-.38-.19-.79-.33-1.19-.49l.03.03Z"/><path d="m20.99,97.51c-1.2.36-2.39.73-3.59,1.08-.09.03-.21-.07-.32-.11.06-.13.09-.35.17-.37,1.22-.3,2.45-.58,3.67-.86l.06.26Z"/><path d="m3.65,104.09c-.13-.15-.3-.27-.38-.44-.05-.11-.02-.32.06-.4.07-.06.3-.05.39.02.43.34.84.71,1.25,1.08.46.43.9.87,1.35,1.31-.05.05-.1.11-.15.16-.48-.4-.93-.82-1.44-1.18-.34-.24-.74-.39-1.12-.58l.03.03Z"/><path d="m5.4,79.81c-.08-.07-.17-.14-.26-.22-.79-.64-1.59-1.28-2.37-1.94-.13-.11-.18-.31-.26-.47.2.02.46-.05.58.06.83.73,1.62,1.49,2.43,2.25.05.05.1.14.09.21,0,.03-.12.06-.2.1Z"/><path d="m5.21,58.31c-.96-.64-1.92-1.26-2.87-1.92-.15-.11-.21-.35-.31-.52.21.04.47.03.62.14.91.7,1.8,1.43,2.7,2.15-.05.05-.09.1-.14.15Z"/><path d="m2.66,46.73c-.07-.37-.48-.83.28-.96l-.03-.02c.36.89,1.29,1.1,1.94,1.65.11.09.18.24.26.36-.14,0-.28.02-.41-.02-.29-.09-.58-.21-.87-.32l.03.03c-.25-.17-.5-.34-.75-.51l.04.03c-.17-.09-.35-.18-.52-.26l.03.03Z"/><path d="m20.43,66.51c-.21.12-.33.23-.47.27-1.01.35-2.03.68-3.05,1.01-.09.03-.21-.04-.32-.06.04-.13.04-.35.12-.38.44-.18.89-.33,1.35-.46.65-.18,1.31-.34,1.97-.49.09-.02.2.05.39.11Z"/><path d="m5.18,59.69c-.02.05-.04.16-.07.16-.07,0-.16-.02-.22-.06-.86-.63-1.72-1.26-2.57-1.91-.1-.07-.1-.27-.14-.41.14-.02.33-.11.4-.06.85.71,1.69,1.44,2.53,2.17.03.02.04.07.07.11Z"/><path d="m6.03,116.53c-.33-.2-.68-.36-.97-.6-.64-.54-1.26-1.1-1.87-1.68-.12-.11-.14-.32-.21-.49.17.03.4,0,.5.09.86.88,1.69,1.79,2.53,2.69l.02-.02Z"/><path d="m6.22,104.47c-.12,0-.25.06-.32.01-.2-.13-.37-.29-.56-.44-.72-.56-1.44-1.12-2.15-1.69-.1-.08-.14-.25-.21-.38.1-.05.25-.16.28-.14.96.82,1.92,1.66,2.87,2.49.03.02.04.07.08.14Z"/><path d="m17.09,94.31c-.06-.03-.15-.06-.19-.11-.03-.06-.03-.18,0-.22.15-.12.3-.25.47-.32,1.04-.38,2.08-.74,3.13-1.09.12-.04.29.04.43.06-.08.07-.15.18-.25.22-1.16.49-2.33.97-3.49,1.45-.03.01-.08,0-.12,0Z"/><path d="m17.37,97.49c-.07-.04-.18-.08-.19-.13-.01-.1,0-.26.07-.3.16-.1.36-.17.55-.21.97-.21,1.95-.42,2.92-.62.11-.02.25.06.37.09-.1.07-.19.16-.29.19-1.07.31-2.14.61-3.21.92-.07.02-.15.03-.22.05Z"/><path d="m20.19,95.42c-.05.07-.09.16-.15.18-1.06.3-2.13.59-3.19.88-.06.02-.2-.05-.2-.07,0-.1.03-.27.08-.29,1.1-.29,2.21-.56,3.32-.82.04,0,.1.08.14.13Z"/><path d="m20.53,73.38c-1.18.38-2.37.77-3.55,1.14-.12.04-.28-.05-.42-.08.09-.14.16-.37.28-.4,1.21-.3,2.44-.56,3.66-.83l.04.17Z"/><path d="m20.47,101.88c-1.06.25-2.12.51-3.19.74-.09.02-.23-.14-.34-.22.07-.08.13-.23.21-.24,1.09-.19,2.18-.36,3.27-.53.02.08.03.17.05.25Z"/><path d="m20.15,84.2c-1.09.35-2.17.7-3.26,1.03-.12.04-.3-.12-.45-.19.08-.12.14-.33.24-.35,1.15-.23,2.3-.43,3.45-.63,0,.05.01.09.02.14Z"/><path d="m18.61,50.75h1.62c-.34.56-.9.21-1.35.33-.49.13-1.01.2-1.51.26-.16.02-.34-.07-.51-.11.15-.13.29-.36.46-.39.5-.08,1.02-.08,1.29-.1Z"/><path d="m20.31,85.22c-.13.08-.18.14-.25.17-1.04.37-2.07.75-3.11,1.1-.09.03-.23-.11-.35-.16.06-.09.1-.24.17-.26,1.09-.33,2.19-.64,3.29-.95.06-.02.15.06.26.11Z"/><path d="m4.96,91.67c-.62-.48-1.25-.95-1.85-1.45-.12-.1-.12-.33-.18-.5.2.02.48-.04.59.07.56.55,1.07,1.14,1.6,1.72-.05.05-.11.11-.17.16Z"/><path d="m17.04,95.33s-.07-.06-.07-.16c0-.09.09-.24.16-.26,1.04-.25,2.08-.48,3.12-.71.07-.01.15.03.22.04-.03.06-.05.15-.1.16-1.06.3-2.13.59-3.35.92Z"/><path d="m18.42,49.77c.28.03.79.07,1.3.12-.51.1-1.01.23-1.52.3-.51.07-1.03.1-1.54.13-.09,0-.19-.09-.29-.15.09-.11.17-.3.27-.31.51-.06,1.03-.06,1.77-.1Z"/><path d="m2.94,45.77c-.14-.08-.29-.13-.41-.23-.1-.08-.17-.22-.26-.33.17-.04.38-.17.49-.11.77.41,1.52.86,2.27,1.32.07.04.09.18.13.27-.11,0-.24.03-.33-.01-.65-.3-1.29-.62-1.93-.93l.03.02Z"/><path d="m4.73,69.35c-.76-.55-1.54-1.1-2.28-1.67-.11-.09-.12-.32-.18-.48.17.03.4,0,.51.09.72.61,1.41,1.26,2.11,1.89-.05.06-.1.11-.16.17Z"/><path d="m30.74,96.85c-.87.29-1.73.57-2.6.85-.1.03-.22.02-.33.03.08-.1.15-.27.25-.3,1.05-.35,2.1-.69,3.16-1.03,0,0-.03-.02-.03-.02,0,.09,0,.18,0,.27l.02-.02c-.17.09-.34.18-.51.26,0,0,.03-.03.03-.03Z"/><path d="m4.73,116.62c-.54-.33-1.09-.66-1.61-1.01-.14-.09-.19-.3-.29-.45.21.01.49-.05.62.05.5.4.94.85,1.41,1.28-.04.04-.09.09-.13.13Z"/><path d="m10.26,114.23c-.74-.46-1.49-.92-2.22-1.4-.09-.06-.14-.17-.22-.26.14,0,.32-.05.42.02.73.48,1.45.98,2.17,1.48-.05.05-.1.11-.15.16Z"/><path d="m4.48,110.87c-.46-.37-.93-.72-1.36-1.12-.1-.09-.06-.33-.09-.5.16.03.39,0,.48.11.4.43.76.89,1.14,1.34-.06.06-.11.11-.17.17Z"/><path d="m4.25,45.35c-.51-.19-1.03-.36-1.53-.57-.12-.05-.19-.21-.28-.32.16-.06.36-.21.46-.16.52.27,1,.59,1.5.89-.05.06-.1.11-.15.16Z"/><path d="m18.19,34.91c-.12-.06-.22-.11-.32-.16.08-.11.15-.29.25-.3.37-.05.75-.05,1.13-.07,0,.04,0,.11,0,.11-.35.14-.7.28-1.05.42Z"/><path d="m18.8,8.57c.19.35.33.49.3.58-.09.27-.25.51-.38.76-.1-.11-.29-.23-.27-.32.05-.27.17-.53.35-1.02Z"/><path d="m28.06,100.68s0,.1-.02.11c-.54.24-1.09.48-1.63.72,0-.03-.02-.1,0-.1.56-.24,1.12-.47,1.68-.71l-.02-.02Z"/><path d="m3.15,116.8c-.06-.21-.13-.41-.19-.62.23.05.49.05.67.17.22.14.36.39.54.59-.05.05-.1.11-.15.16-.3-.11-.6-.23-.91-.34l.04.03Z"/><path d="m17.55,7.29c-.18-.25-.34-.39-.31-.46.09-.22.24-.42.37-.62.11.1.32.22.31.29-.05.23-.19.43-.36.79Z"/><path d="m4.9,110.95l1.38,1.25s-.08.08-.08.08c-.48-.4-.97-.79-1.45-1.19.05-.05.1-.09.15-.14Z"/><path d="m19.56,33.79c-.53.07-.82.12-1.11.14-.03,0-.07-.19-.1-.28.26-.05.52-.11.78-.14.07,0,.15.09.44.28Z"/><path d="m22.56,110.55c.56-.15,1.12-.3,1.68-.45.01.08.03.16.04.24-.58.06-1.16.12-1.74.19,0,0,.02.02.02.02Z"/><path d="m28.58,111.29s-.03.09-.06.1c-.46.19-.92.37-1.38.55-.01,0-.05-.05-.08-.07.49-.21.98-.41,1.47-.62l.04.05Z"/><path d="m4.88,69.18c.31.32.62.63.92.95l-1.08-.78c.05-.06.11-.11.16-.17Z"/><path d="m18.81,12.19c.06.12.19.26.16.36-.02.1-.22.24-.3.22-.11-.02-.24-.19-.26-.3-.02-.14.08-.3.12-.45l.27.17Z"/><path d="m16.09,41.67c.07-.16.11-.36.23-.48.06-.06.27.02.41.04-.07.14-.1.33-.21.4-.1.07-.29.02-.44.03h.01Z"/><path d="m30.5,99.76c.16-.16.32-.33.49-.49l-.03.02c.23-.02.46-.04.7-.06l.07.08c.02.08,0,.15-.04.21h.01c-.16.08-.32.17-.48.25-.25,0-.49-.02-.74-.03l.02.02Z"/><path d="m30.5,99.97l-1.22.25.02.02c.4-.16.8-.32,1.19-.48,0,0-.02-.02-.02-.02,0,.09,0,.17,0,.26l.03-.03Z"/><path d="m29.28,100.22c-.41.15-.82.31-1.23.46l.02.02c.41-.15.82-.31,1.23-.46l-.02-.02Z"/><path d="m6.28,112.2c.29.2.57.4.86.59-.04.05-.12.14-.12.14-.28-.21-.55-.43-.82-.65l.08-.08Z"/><path d="m19.33,32.87c.05.09.11.17.16.26-.07.03-.16.11-.19.09-.08-.05-.13-.15-.19-.23.06-.03.12-.07.22-.12Z"/><path d="m19.62,14.22c-.17.06-.29.14-.42.14-.04,0-.16-.22-.13-.24.09-.1.22-.16.33-.24.06.09.12.18.22.34Z"/><path d="m4.4,45.18c.19.19.39.38.58.56-.24-.13-.49-.27-.73-.4.05-.05.1-.11.15-.16Z"/><path d="m5.35,58.16c.16.1.33.19.48.31.08.06.1.19.14.29-.12-.02-.27,0-.35-.05-.15-.11-.27-.26-.41-.4.05-.05.1-.1.14-.15Z"/><path d="m26.88,113.42c-.14.1-.27.21-.42.29-.03.02-.11-.05-.16-.08.05-.06.09-.15.14-.16.14-.03.3-.03.45-.05,0,0-.01-.01-.01-.01Z"/><path d="m30.25,70.93c-.32.3-.64.33-.97,0l-.02.03c.33,0,.67,0,1,0l-.02-.03Z"/><path d="m24.99,34.48c.24-.08.48-.16.72-.24l-.03-.02c0,.09,0,.18,0,.27l.03-.02c-.25,0-.5,0-.75,0l.03.02Z"/><path d="m23.54,35.43c.24-.08.48-.15.72-.23l-.02-.03c0,.09,0,.18,0,.27,0,0,.03-.03.03-.03-.25,0-.5,0-.75-.01,0,0,.03.03.03.03Z"/><path d="m6.32,105.66c.06.04.15.06.19.12.07.11.11.24.16.36-.12-.05-.25-.08-.37-.14-.06-.03-.09-.12-.13-.18.05-.05.1-.11.15-.16Z"/><path d="m24.99,34.7c-.14-.03-.29-.05-.43-.08.14-.05.29-.1.43-.14l-.03-.02c0,.09,0,.18,0,.27l.03-.02Z"/><path d="m16.08,41.66c.04.16.09.32.13.47-.1-.01-.21-.03-.31-.04l.19-.42h-.01Z"/><path d="m24.25,35.2l.73-.24s-.02-.02-.02-.02v.27s.03-.03.03-.03c-.25,0-.5,0-.75,0,0,0,.02.03.02.03Z"/><path d="m6.33,110.71l.27.43c-.14-.1-.27-.2-.41-.3.05-.05.09-.09.14-.14Z"/><path d="m30.98,99.03l.44-.28.06.07-.52.19s.02.02.02.02Z"/><path d="m30.98,105.76c-.05.05-.1.1-.16.14-.01,0-.05-.03-.08-.04.09-.02.17-.04.26-.07,0,0-.02-.03-.02-.03Z"/><path d="m27.66,106.53c-.16.08-.33.15-.49.23-.03-.03-.06-.06-.09-.09.16-.08.33-.16.49-.24.03.04.06.07.09.1Z"/><path d="m22.33,108.64c.04-.05.08-.11.13-.16.02.04.05.07.07.11l-.22.03s.02.02.02.02Z"/><path d="m24.76,33.55c-.18.06-.35.12-.53.19,0,0,.02.02.02.02.14-.1.28-.21.42-.31.03.04.06.07.09.11Z"/><path d="m27.62,110.55c.14-.1.28-.2.42-.3.03.04.07.08.1.12-.18.06-.36.11-.53.17,0,0,.02.02.02.02Z"/><path d="m23.78,35.92c-.11.06-.23.12-.34.17,0,0-.05-.05-.07-.08.13-.04.25-.08.38-.12,0,0,.03.03.03.03Z"/><path d="m23.51,35.41c-.05.07-.1.13-.15.2,0,0-.05-.04-.08-.06.09-.04.17-.08.26-.11l-.03-.03Z"/><path d="m6.49,115.83s.06.03.1.05c-.03-.01-.06-.03-.1-.04h0Z"/><path d="m4.99,116.84c-.09-.07-.17-.15-.26-.22.04-.04.09-.09.13-.13.09.08.17.15.26.23-.04.04-.09.08-.13.13Z"/><path d="m6,116.55c.05.04.1.08.16.12-.04-.05-.09-.09-.13-.14l-.02.02Z"/><path d="m6.49,115.83c-.11-.05-.22-.11-.32-.16.05-.05.11-.11.16-.16.05.11.11.21.16.32,0,0,0,0,0,0Z"/><path d="m4.16,116.95c.08.08.16.16.24.24-.05.05-.09.1-.14.14-.08-.07-.17-.15-.25-.22.05-.05.1-.11.15-.16Z"/><path d="m5.83,82.41c.07.09.14.18.21.27l-.08.08c-.09-.07-.19-.14-.28-.21.05-.05.1-.09.14-.14Z"/><path d="m4.4,117.19c.08.08.16.16.24.24-.05.05-.09.1-.14.15-.08-.08-.16-.16-.24-.24.05-.05.09-.1.14-.14Z"/><path d="m6.78,114.82c.05.06.1.11.15.17-.09-.02-.18-.04-.27-.05.04-.04.08-.08.12-.12Z"/><path d="m4.65,117.43c.08.08.16.16.24.24-.05.05-.09.1-.14.15-.08-.08-.16-.16-.24-.24.05-.05.09-.1.14-.15Z"/><path d="m6.04,82.68s.08.09.13.13c-.07-.02-.14-.03-.2-.05,0,0,.08-.08.08-.08Z"/><path d="m4.89,117.67c.08.08.16.16.24.24-.05.05-.09.1-.14.15-.08-.08-.16-.16-.24-.24.05-.05.09-.1.14-.15Z"/><path d="m5.13,117.91c.08.08.16.17.24.25-.05.05-.09.09-.14.14-.08-.08-.16-.16-.24-.25.05-.05.1-.1.14-.15Z"/><path d="m6.72,113.92l.07.03s-.03-.03-.05-.05l-.02.02Z"/><path d="m5.76,76.96s.06.02.08.04c-.02-.02-.04-.04-.06-.06l-.02.02Z"/><path d="m4.65,110.7c.08.08.16.17.24.25-.05.05-.1.09-.15.14-.09-.07-.18-.15-.27-.22.06-.06.11-.11.17-.17Z"/><polygon points="27.6 110.53 27.58 110.58 27.62 110.55 27.6 110.53"/><path d="m6.19,110.85c-.08-.08-.16-.17-.23-.25.03-.03.07-.07.1-.1.09.07.18.14.27.21-.05.04-.09.09-.14.14Z"/><path d="m24.23,33.74c-.02.06-.04.12-.06.18.03-.05.06-.11.09-.16,0,0-.02-.02-.02-.02Z"/><path d="m27.17,106.75c-.08.02-.17.04-.25.06.05-.05.11-.11.16-.16.03.03.06.06.09.09Z"/><path d="m5.76,61.84s.05.02.07.03l-.05-.05-.02.02Z"/><path d="m6.31,89.85c.04.08.08.16.11.24-.08-.03-.17-.07-.25-.1.04-.04.09-.09.13-.13Z"/><path d="m6.04,57.48s.05.09.07.13l-.13-.07.06-.06Z"/><path d="m5.13,91.51c.08.08.15.17.23.25-.05.05-.1.1-.16.15-.08-.08-.16-.16-.24-.24.06-.05.11-.11.17-.16Z"/><path d="m5.45,92.14c-.08-.08-.16-.16-.25-.24.05-.05.1-.1.16-.15.08.08.16.16.23.25-.05.05-.09.09-.14.14Z"/><path d="m5.59,92c.08.08.16.16.24.24-.05.05-.09.09-.14.14-.08-.08-.16-.16-.24-.24.05-.05.1-.09.14-.14Z"/><path d="m27.36,103.1s-.02.06-.03.09c.02-.02.03-.05.05-.07l-.02-.02Z"/><path d="m5.83,92.24c.08.09.15.17.23.26-.04.04-.08.08-.12.12-.08-.08-.17-.16-.25-.24.05-.05.09-.09.14-.14Z"/><path d="m6.06,92.5c.04.08.07.16.11.23-.08-.04-.15-.08-.23-.12.04-.04.08-.08.12-.12Z"/><path d="m30.98,99.27c0-.08,0-.16,0-.23l-.02-.02c0,.09,0,.18,0,.27l.03-.02Z"/><path d="m25.45,115.1s-.03.06-.05.08c-.01.01-.04,0-.06,0,.04-.02.09-.05.13-.07,0,0-.02-.02-.02-.02Z"/><path d="m31.7,100c-.17,0-.34,0-.51,0,0-.09,0-.18,0-.27.17,0,.34,0,.51,0,0,.09,0,.18,0,.27Z"/></svg>